<?xml version="1.0" standalone="no"?>
<!DOCTYPE svg PUBLIC "-//W3C//DTD SVG 1.1//EN" "http://www.w3.org/Graphics/SVG/1.1/DTD/svg11.dtd" >
<svg xmlns="http://www.w3.org/2000/svg" xmlns:xlink="http://www.w3.org/1999/xlink" version="1.1">
<metadata>
Created by FontForge 20170910 at Mon Dec 18 10:55:42 2017
 By Jimmy Wärting
Copyright (c) 2017 by studio kmzero. All rights reserved.
</metadata>
<defs>
<font id="Kabrio-ExtraBoldItalic" horiz-adv-x="1262" >
  <font-face 
    font-family="Kabrio ExtBd"
    font-weight="800"
    font-style="italic"
    font-stretch="normal"
    units-per-em="2048"
    panose-1="2 0 5 5 4 0 0 2 0 4"
    ascent="1500"
    descent="-548"
    x-height="1028"
    cap-height="1396"
    bbox="-313 -828 2671.59 2037"
    underline-thickness="102"
    underline-position="-205"
    unicode-range="U+000D-F739"
  />
<missing-glyph horiz-adv-x="782" 
 />
    <glyph glyph-name=".notdef" horiz-adv-x="782" 
 />
    <glyph glyph-name=".null" horiz-adv-x="0" 
 />
    <glyph glyph-name=".null" horiz-adv-x="0" 
 />
    <glyph glyph-name="nonmarkingreturn" unicode="&#xd;" horiz-adv-x="630" 
 />
    <glyph glyph-name="space" unicode=" " horiz-adv-x="630" 
 />
    <glyph glyph-name="numbersign" unicode="#" horiz-adv-x="1622" 
d="M351 1111h215l92 285h341l-92 -285h321l92 285h341l-92 -285h203l-96 -311h-206l-73 -223h207l-98 -311h-209l-84 -266h-341l84 266h-321l-84 -266h-341l84 266h-209l97 311h212l73 223h-212zM735 577h321l73 223h-321z" />
    <glyph glyph-name="percent" unicode="%" horiz-adv-x="2050" 
d="M584 0l732 1396h372l-731 -1396h-373zM258 1003q20 114 63 193.5t102 129.5t129.5 72.5t146.5 22.5t139 -22.5t104.5 -72.5t56 -129.5t-5.5 -193.5t-63 -194t-101.5 -129.5t-129.5 -72t-147 -22.5t-138.5 22.5t-104 72t-56.5 129.5t5 194zM526 1003q-18 -102 -3.5 -143.5
t70.5 -41.5q28 0 49 10t37 31.5t27 57t20 86.5t10.5 86.5t-6.5 57.5t-26 31.5t-46 9.5q-29 0 -49.5 -9.5t-35.5 -31.5t-26.5 -57.5t-20.5 -86.5zM1300 391q20 114 63 193.5t102 129.5t129.5 73t146.5 23t139 -23t104.5 -73t56 -129.5t-5.5 -193.5t-63 -194t-101.5 -129.5
t-129.5 -72t-147 -22.5t-138.5 22.5t-104 72t-56.5 129.5t5 194zM1569 392q-9 -51 -10.5 -86.5t6 -57.5t25 -32t45.5 -10t49 10t37 32t27.5 57.5t20.5 86.5q18 102 3 143.5t-72 41.5q-29 0 -49.5 -10t-35.5 -31.5t-26 -57t-20 -86.5z" />
    <glyph glyph-name="ampersand" unicode="&#x26;" horiz-adv-x="1612" 
d="M1085 1077q-15 6 -29.5 11.5t-33 9t-43 6t-59.5 2.5q-48 0 -89.5 -7.5t-74 -23t-53 -38t-25.5 -52.5q-6 -36 -4 -62t23 -43.5t65 -25.5t122 -8h697l-46 -261h-213l-36 -204q-5 -25 -4.5 -45t7.5 -34.5t22.5 -22t41.5 -7.5q39 0 72.5 10t70.5 21l40 -242
q-43 -20 -83 -35.5t-81.5 -26.5t-86.5 -17t-98 -6q-78 0 -141.5 22.5t-102.5 73.5q-76 -43 -169 -70.5t-196 -25.5q-50 1 -103.5 12.5t-103.5 33.5t-93.5 56t-73 80.5t-41 106t1.5 133.5q13 76 42 131t69 94.5t89.5 66.5t105.5 48q-101 45 -141.5 125t-20.5 194
q15 82 60.5 149.5t120 115t176.5 73.5t229 26q59 0 105 -4.5t85.5 -14t76.5 -25t78 -36.5zM744 290q51 0 89.5 12t70.5 34l40 227h-121q-73 0 -122.5 -9t-80.5 -26t-47 -41t-21 -54q-8 -47 7 -75t43.5 -43t66 -20t75.5 -5z" />
    <glyph glyph-name="quotesingle" unicode="'" horiz-adv-x="599" 
d="M395 1433h357l-195 -476h-246z" />
    <glyph glyph-name="parenleft" unicode="(" horiz-adv-x="795" 
d="M224 617q19 111 53.5 214t75.5 195t86 171.5t86 143.5t74.5 110t52.5 72l350 -39q-13 -21 -41.5 -63.5t-66 -103.5t-79.5 -138.5t-82 -169.5t-74 -197t-54 -220q-23 -129 -23 -252t15 -234t41 -208t54 -173l-363 -37q-41 93 -72 195.5t-47 217t-14 243t28 273.5z" />
    <glyph glyph-name="parenright" unicode=")" horiz-adv-x="806" 
d="M786 617q-26 -145 -69 -273.5t-99 -243t-123.5 -217t-141.5 -195.5l-349 37q55 76 115 173t114 208t97.5 234t66.5 252q20 115 23.5 220t-4 197t-22.5 169.5t-31 138.5t-29.5 103.5t-18.5 63.5l363 39q10 -25 27.5 -71.5t36 -110.5t35 -143.5t25 -171.5t6 -195
t-21.5 -214z" />
    <glyph glyph-name="asterisk" unicode="*" horiz-adv-x="1067" 
d="M909 1246l249 62l31 -299l-230 -57l140 -161l-270 -219l-170 197l-240 -197l-191 219l198 162l-205 56l137 299l227 -61l41 232h324z" />
    <glyph glyph-name="plus" unicode="+" horiz-adv-x="1115" 
d="M475 432h-288l54 310h288l49 276h324l-49 -276h288l-54 -310h-288l-49 -278h-324z" />
    <glyph glyph-name="comma" unicode="," horiz-adv-x="645" 
d="M364 297q115 0 161 -45.5t32 -126.5l-2 -8q-12 -77 -44 -152t-75 -143t-94.5 -126t-102.5 -100l-144 73q24 34 47.5 73t44.5 78t37.5 74.5t25.5 64.5q-44 5 -73 19t-45 36t-19.5 51t2.5 65q14 80 75.5 123.5t173.5 43.5z" />
    <glyph glyph-name="hyphen" unicode="-" horiz-adv-x="914" 
d="M158 422l55 310h746l-55 -310h-746z" />
    <glyph glyph-name="period" unicode="." horiz-adv-x="647" 
d="M366 287q115 0 161 -45.5t32 -126.5q-14 -80 -74.5 -125t-172.5 -45q-62 0 -103 12t-63.5 34.5t-29 55t1.5 73.5q14 80 75 123.5t173 43.5z" />
    <glyph glyph-name="slash" unicode="/" horiz-adv-x="1047" 
d="M68 -90l863 1649l327 -106l-864 -1650z" />
    <glyph glyph-name="zero" unicode="0" horiz-adv-x="1416" 
d="M1457 708q-29 -164 -87.5 -299t-150.5 -231.5t-218.5 -149.5t-291.5 -52q-305 1 -430 179.5t-61 537.5q27 156 84.5 289t149 230.5t218.5 152.5t294 56q162 1 270 -51t167 -146.5t71.5 -226t-15.5 -289.5zM1084 699q36 208 -4.5 315.5t-169.5 107.5q-53 0 -95 -19
t-75 -51.5t-57.5 -75t-42 -89.5t-29 -95.5t-19.5 -92.5q-8 -45 -13.5 -93.5t-4.5 -95.5t10.5 -89.5t30.5 -75t56.5 -51.5t89.5 -19q129 0 207.5 108t115.5 316z" />
    <glyph glyph-name="one" unicode="1" horiz-adv-x="872" 
d="M242 1080l56 316h644l-246 -1396h-392l190 1080h-252z" />
    <glyph glyph-name="two" unicode="2" horiz-adv-x="1206" 
d="M113 0l52 295q71 50 148.5 104t153 109.5t145 111.5t124 110.5t90 106t44.5 99.5q5 30 -0.5 60.5t-24.5 55t-52 39.5t-83 15q-52 0 -98 -8t-87 -20.5t-77 -28t-67 -31.5l-68 251q112 70 245 111t298 41q121 0 206.5 -27t136 -77.5t67.5 -122t1 -160.5q-15 -85 -47.5 -159
t-77 -140t-99 -124t-114 -109.5t-122 -98t-122.5 -88.5h474l-55 -315h-991z" />
    <glyph glyph-name="three" unicode="3" horiz-adv-x="1209" 
d="M293 1295q48 28 107 51t124.5 39.5t137 26t145.5 9.5q135 0 232.5 -26t157.5 -73.5t83 -115t8 -149.5q-20 -114 -89 -194t-185 -125q48 -21 88.5 -48t66.5 -66.5t35 -94.5t-4 -131q-14 -80 -47.5 -142.5t-81 -109t-107 -78.5t-127 -52t-140 -29.5t-145.5 -10.5
q-63 -1 -127.5 6t-126.5 22t-119 38t-105 53l158 265q39 -18 71.5 -31t69.5 -21.5t81.5 -12.5t107.5 -4q43 0 86.5 6.5t80.5 22.5t62.5 43.5t33.5 69.5q5 28 -13.5 52t-56.5 41t-95 27t-130 10h-139l50 283h129q156 0 233 33.5t90 105.5q5 30 -7.5 52.5t-39 38t-65.5 23
t-86 7.5q-37 0 -75 -2.5t-79 -10t-86.5 -22t-97.5 -38.5z" />
    <glyph glyph-name="four" unicode="4" horiz-adv-x="1267" 
d="M712 0l40 229h-652l53 300l560 867h406l-533 -849h222l36 207h366l-36 -207h119l-56 -318h-119l-40 -229h-366z" />
    <glyph glyph-name="five" unicode="5" horiz-adv-x="1237" 
d="M229 389q101 -42 194 -70t189 -28q100 0 159 42t72 115q8 43 -6 72.5t-43 48t-70 27t-87 8.5h-355l140 792h880l-53 -299h-507l-37 -212h87q117 0 206 -32.5t145 -90.5t77 -139t4 -179q-15 -86 -50 -154.5t-84 -120.5t-110.5 -88.5t-129.5 -60t-140.5 -34t-144.5 -10.5
q-71 0 -137.5 12t-128.5 32.5t-118.5 47t-105.5 56.5z" />
    <glyph glyph-name="six" unicode="6" horiz-adv-x="1275" 
d="M204 657q25 142 70 254.5t104.5 197t130.5 144t148 97t157 54.5t158 17q84 0 149 -9.5t115 -23.5t86.5 -31t62.5 -33l-161 -265q-21 7 -42 15.5t-48 15.5t-63 11.5t-85 4.5q-75 0 -133 -17.5t-101 -48.5t-71 -74t-43 -93q73 31 139.5 44.5t140.5 13.5q112 0 188 -35.5
t119.5 -97.5t55 -146.5t-5.5 -181.5q-20 -111 -70 -202t-130 -156t-189 -100.5t-245 -35.5q-155 0 -253.5 46t-148.5 133.5t-56.5 214t21.5 287.5zM570 570q-33 -140 -2 -208.5t121 -68.5q81 0 134.5 42.5t67.5 120.5q14 76 -17.5 120t-98.5 44q-60 0 -112.5 -14.5
t-92.5 -35.5z" />
    <glyph glyph-name="seven" unicode="7" horiz-adv-x="1136" 
d="M281 1080l56 316h966l-57 -324q-47 -46 -103.5 -120t-117 -165.5t-121 -194.5t-115 -206.5t-99.5 -203t-74 -182.5h-417q67 154 141 302t152 286t158 262t159 230h-528z" />
    <glyph glyph-name="eight" unicode="8" horiz-adv-x="1288" 
d="M156 365q11 63 40 114.5t68.5 93.5t86 76.5t93.5 64.5q-30 24 -61 55.5t-53.5 72t-32.5 92.5t2 117q15 86 61 154.5t119 116.5t171.5 74t218.5 26q157 0 256 -32t153 -84.5t68.5 -118.5t2.5 -134q-11 -60 -40 -112.5t-69 -96t-86.5 -78t-91.5 -60.5q52 -32 92 -68.5
t64.5 -78.5t33.5 -89t0 -101q-16 -87 -63 -159.5t-124.5 -124.5t-186 -80.5t-247.5 -28.5q-140 0 -237 29.5t-154.5 81.5t-78 123.5t-5.5 154.5zM544 403q-13 -72 23.5 -107.5t113.5 -35.5q83 0 132 34.5t60 97.5q6 34 -4.5 62t-34 52.5t-57.5 46.5t-75 44
q-23 -15 -48.5 -36t-48 -46t-39.5 -53.5t-22 -58.5zM676 1023q-5 -27 6 -51.5t32 -46t50 -40.5t61 -35q23 14 45.5 31.5t41.5 38t32 44.5t18 51q5 26 1.5 49t-17.5 40t-39 27t-63 10q-148 0 -168 -118z" />
    <glyph glyph-name="nine" unicode="9" horiz-adv-x="1275" 
d="M1297 740q-25 -142 -70 -254.5t-104.5 -197t-130.5 -144t-148 -97t-157 -54.5t-158 -17q-84 0 -149.5 9t-115.5 23t-86.5 31t-62.5 33l162 266l42 -16t48.5 -15t63 -11.5t84.5 -4.5q78 0 137 19.5t101.5 52.5t69.5 76t41 90q-71 -32 -138.5 -47.5t-141.5 -15.5
q-112 0 -188.5 35.5t-120 97.5t-55 146t5.5 181q19 111 69.5 202t130.5 156t189 101t245 36q155 0 253.5 -46t148.5 -133.5t56.5 -214t-21.5 -287.5zM932 833q29 138 -0.5 204.5t-120.5 66.5q-81 0 -134 -42.5t-67 -120.5q-13 -76 18 -120t99 -44q60 0 112 16.5t93 39.5z
" />
    <glyph glyph-name="colon" unicode=":" horiz-adv-x="647" 
d="M366 287q115 0 161 -45.5t32 -126.5q-14 -80 -74.5 -125t-172.5 -45q-62 0 -103 12t-63.5 34.5t-29 55t1.5 73.5q14 80 75 123.5t173 43.5zM500 1044q115 0 160.5 -45t31.5 -127q-14 -80 -74.5 -125t-172.5 -45q-62 0 -103 12t-63.5 34.5t-28.5 55t1 73.5
q14 80 75.5 123.5t173.5 43.5z" />
    <glyph glyph-name="semicolon" unicode=";" horiz-adv-x="647" 
d="M364 297q115 0 161 -45.5t32 -126.5l-2 -8q-12 -77 -44 -152t-75 -143t-94.5 -126t-102.5 -100l-144 73q24 34 47.5 73t44.5 78t37.5 74.5t25.5 64.5q-44 5 -73 19t-45 36t-19.5 51t2.5 65q14 80 75.5 123.5t173.5 43.5zM518 1092q115 0 161 -45.5t32 -126.5
q-14 -80 -74.5 -125t-172.5 -45q-62 0 -103 12t-63.5 34.5t-29 55t1.5 73.5q14 80 75 123.5t173 43.5z" />
    <glyph glyph-name="less" unicode="&#x3c;" horiz-adv-x="875" 
d="M561 541l286 -295l-251 -205l-435 501l611 498l180 -205z" />
    <glyph glyph-name="equal" unicode="=" horiz-adv-x="1118" 
d="M139 164l51 288h900l-51 -288h-900zM216 596l50 288h900l-50 -288h-900z" />
    <glyph glyph-name="greater" unicode="&#x3e;" horiz-adv-x="875" 
d="M219 835l252 205l434 -498l-610 -501l-180 205l392 295z" />
    <glyph glyph-name="question" unicode="?" horiz-adv-x="1017" 
d="M303 1301q30 23 76 45t100 39t112 27t112 10q245 0 347 -90.5t77 -262.5q-11 -73 -35.5 -129.5t-59.5 -101t-79.5 -80.5t-94.5 -69q-39 -26 -72.5 -56.5t-60 -68.5t-43.5 -86t-22 -109h-304q-5 59 3 121.5t31 122.5t62 114t98 96q43 31 75.5 53.5t55.5 41t36 37.5t18 45
q10 56 -30.5 81.5t-118.5 25.5q-56 0 -116.5 -11t-141.5 -38zM482 251q91 0 127.5 -36t24.5 -102q-11 -65 -59 -100.5t-138 -35.5q-93 0 -130 36.5t-25 102.5q11 66 60.5 100.5t139.5 34.5z" />
    <glyph glyph-name="at" unicode="@" horiz-adv-x="2253" 
d="M661 487q26 149 85.5 257t148.5 178.5t206 104.5t260 34q62 0 124 -9.5t119 -25t107 -35.5t88 -42l-118 -669q-4 -21 15.5 -31t51.5 -10q42 0 77 29t63.5 83.5t51.5 133t40 177.5q27 154 -0.5 261.5t-106.5 175t-207 98t-300 30.5q-200 0 -352.5 -44.5t-262 -139
t-179.5 -240.5t-106 -348q-29 -166 -13 -284t80.5 -194.5t179.5 -113.5t283 -40q127 -2 238.5 12.5t215.5 41.5l-28 -244q-120 -46 -243 -60t-251 -14q-237 5 -398.5 65t-253 173.5t-115.5 281.5t15 389q47 266 147 458t256.5 316t372 183t493.5 59q232 0 405.5 -52
t281.5 -154.5t147.5 -254t4.5 -349.5q-33 -190 -92.5 -323t-136.5 -217t-166.5 -122.5t-183.5 -38.5q-72 0 -124 6t-89 17t-62 27t-42 36l-8 11q-21 -18 -58 -35t-84 -30t-101 -21t-111 -8q-116 0 -195.5 36t-124 102.5t-55.5 161t10 211.5zM1030 509q-11 -65 -5.5 -110
t24.5 -73.5t48 -41t64 -12.5q41 0 82.5 15.5t72.5 36.5l74 419q-14 5 -44.5 13t-82.5 8q-87 0 -148 -59.5t-85 -195.5z" />
    <glyph glyph-name="A" unicode="A" horiz-adv-x="1510" 
d="M1060 -10q-2 60 -4.5 124.5t-6.5 133.5h-501q-32 -76 -58 -142t-45 -116l-404 10q22 58 56 137.5t76 171.5t90 193.5t99 204t103.5 202.5t102.5 190t96 166.5t85 130.5h504q18 -48 37 -120t37 -159.5t35 -187t32 -202.5t28 -206.5t22.5 -198t15.5 -177.5t8 -145z
M933 1081q-29 -53 -60.5 -115t-64 -130t-65.5 -140t-65 -144h349q-13 137 -30 270.5t-40 258.5h-24z" />
    <glyph glyph-name="B" unicode="B" horiz-adv-x="1309" 
d="M150 0l246 1396h553q106 0 192 -23.5t144 -70t83 -115.5t9 -160q-11 -61 -39.5 -109t-66 -83.5t-80.5 -59.5t-83 -37l-2 -9q54 -17 96.5 -48t69.5 -74t37 -98t-2 -120q-16 -91 -59 -163t-113 -122.5t-167 -77t-221 -26.5h-597zM588 277h148q94 0 146 37t66 115
q13 70 -23.5 111.5t-126.5 41.5h-156zM689 847h143q81 0 132.5 40.5t63.5 107.5t-26.5 103t-122.5 36h-140z" />
    <glyph glyph-name="C" unicode="C" horiz-adv-x="1317" 
d="M570 689q-19 -108 -7.5 -183.5t50 -123t101.5 -69.5t147 -22q48 0 94 7.5t89 20t83 28t75 31.5l66 -262q-50 -29 -115 -54.5t-136 -44.5t-143.5 -30t-136.5 -11q-91 0 -174 14t-152 46.5t-122 85.5t-83.5 131.5t-36.5 185t19 245.5q25 141 69 250.5t103 191.5t131 138.5
t153 91t169 50t179 15.5q72 0 142 -11.5t133 -31t116 -45t90 -53.5l-156 -262q-62 34 -139 61t-173 27q-86 0 -157.5 -22.5t-126.5 -72.5t-93 -129.5t-58 -192.5z" />
    <glyph glyph-name="D" unicode="D" horiz-adv-x="1474" 
d="M150 0l246 1396h531q91 0 178.5 -13.5t163.5 -45t137 -82.5t99.5 -125t50 -173.5t-11.5 -227.5q-35 -196 -107.5 -334.5t-180.5 -226t-251 -128t-318 -40.5h-537zM596 315h162q75 0 140.5 22.5t117 70t88.5 122t55 178.5q32 180 -31 276.5t-212 96.5h-185z" />
    <glyph glyph-name="E" unicode="E" horiz-adv-x="1217" 
d="M150 0l246 1396h963l-56 -315h-573l-40 -230h488l-52 -293h-488l-43 -243h596l-55 -315h-986z" />
    <glyph glyph-name="F" unicode="F" horiz-adv-x="1194" 
d="M150 0l246 1396h961l-56 -315h-571l-50 -283h494l-51 -292h-494l-89 -506h-390z" />
    <glyph glyph-name="G" unicode="G" horiz-adv-x="1398" 
d="M191 699q64 364 272 543t550 179q76 0 146.5 -10.5t131.5 -26.5t110 -35.5t83 -38.5l-157 -270q-35 15 -77.5 27t-88.5 21t-93 13.5t-90 4.5q-75 0 -141.5 -25.5t-119 -75t-89.5 -123.5t-54 -171q-18 -104 -10.5 -182t38 -131t83 -79.5t124.5 -26.5q38 0 75.5 3t63.5 10
l68 386h366l-113 -640q-57 -19 -123.5 -33t-136 -23.5t-139 -14t-132.5 -4.5q-166 0 -284.5 43t-188 131.5t-88.5 225t14 323.5z" />
    <glyph glyph-name="H" unicode="H" horiz-adv-x="1577" 
d="M150 0l246 1396h390l-95 -534h491l95 534h393l-246 -1396h-393l96 546h-491l-96 -546h-390z" />
    <glyph glyph-name="I" unicode="I" horiz-adv-x="692" 
d="M150 0l246 1396h390l-246 -1396h-390z" />
    <glyph glyph-name="J" unicode="J" horiz-adv-x="897" 
d="M824 441q-20 -115 -57 -202t-94 -145.5t-136.5 -88t-184.5 -29.5q-89 0 -173 20t-145 47l107 281q15 -6 34 -12t39.5 -10.5t41.5 -7.5t40 -3q33 0 56.5 10.5t39.5 30t26 48t16 63.5l168 953h391z" />
    <glyph glyph-name="K" unicode="K" horiz-adv-x="1418" 
d="M150 0l246 1396h390l-90 -509q76 58 142.5 116.5t125 120.5t109.5 129.5t96 142.5h421q-44 -80 -101 -161.5t-123 -160.5t-139 -154.5t-150 -142.5q25 -74 64.5 -162t89 -178t107 -176t118.5 -158l-322 -193q-53 53 -107.5 128.5t-104 161.5t-91 176.5t-68.5 173.5
q-35 -20 -69.5 -37.5t-69.5 -31.5l-84 -481h-390z" />
    <glyph glyph-name="L" unicode="L" horiz-adv-x="1182" 
d="M150 0l246 1396h390l-191 -1081h558l-55 -315h-948z" />
    <glyph glyph-name="M" unicode="M" horiz-adv-x="1982" 
d="M97 0q18 89 35.5 168.5t35.5 157t37.5 156t42.5 165.5q28 110 57 215t57 200.5t54.5 180t48.5 152.5h526l86 -865h15l389 865h527q-4 -139 -13.5 -326t-31.5 -422q-10 -100 -19.5 -187.5t-19 -166t-19 -151t-19.5 -142.5h-399q11 66 22.5 143.5t23.5 160.5t23.5 168
t20.5 165.5t14.5 153t7.5 130.5h-14l-422 -920h-343l-99 920h-14q-32 -100 -61.5 -218.5t-56 -241t-50.5 -241.5t-43 -220h-399z" />
    <glyph glyph-name="N" unicode="N" horiz-adv-x="1612" 
d="M150 0l246 1396h407q33 -47 64.5 -110t62 -133.5t60.5 -145.5t60 -146.5t61.5 -136t64.5 -114.5h10l132 786h390l-246 -1396h-400q-38 51 -73 113.5t-67.5 131t-63 139.5t-60.5 137.5t-60.5 126t-62.5 105.5h-11l-124 -753h-390z" />
    <glyph glyph-name="O" unicode="O" horiz-adv-x="1575" 
d="M1629 695q-31 -168 -104 -302t-181.5 -227t-248.5 -142t-305 -48q-172 1 -299 51.5t-204.5 144t-103 226t5.5 297.5q32 168 104.5 302t181.5 228t252.5 144.5t317.5 51.5q168 1 291.5 -51t198.5 -147.5t99.5 -230t-5.5 -297.5zM988 1106q-86 0 -155.5 -32.5t-122 -88.5
t-88 -131t-52.5 -159q-16 -81 -7 -154.5t43 -129t93.5 -88t145.5 -32.5q77 0 144.5 30.5t120 84.5t89 128t51.5 161q15 83 5.5 157.5t-42 131t-89 89.5t-136.5 33z" />
    <glyph glyph-name="P" unicode="P" horiz-adv-x="1331" 
d="M150 0l246 1396h555q134 0 234 -30t162 -90.5t84 -151.5t0 -214q-24 -137 -86.5 -235t-150.5 -160.5t-196.5 -92t-225.5 -29.5h-163l-69 -393h-390zM661 688h150q48 0 87.5 14.5t70 41.5t50.5 65t28 84q17 97 -26 148t-147 51h-142z" />
    <glyph glyph-name="Q" unicode="Q" horiz-adv-x="1575" 
d="M1629 695q-21 -117 -63.5 -218t-103.5 -183.5t-139.5 -145t-171.5 -102.5q39 -37 85.5 -74t96 -71.5t101 -65t100.5 -54.5l-255 -204q-75 31 -149 77t-142.5 100t-128.5 111.5t-108 111.5q-163 6 -282.5 59t-191.5 146t-95 222.5t7 290.5q32 168 104.5 302t181.5 228
t252.5 144.5t317.5 51.5q168 1 291.5 -51t198.5 -147.5t99.5 -230t-5.5 -297.5zM988 1106q-86 0 -155.5 -32.5t-122 -88.5t-88 -131t-52.5 -159q-16 -81 -7 -154.5t43 -129t93.5 -88t145.5 -32.5q77 0 144.5 30.5t120 84.5t89 128t51.5 161q15 83 5.5 157.5t-42 131
t-89 89.5t-136.5 33z" />
    <glyph glyph-name="S" unicode="S" horiz-adv-x="1194" 
d="M224 392q60 -27 111 -46.5t97.5 -31.5t90 -17.5t89.5 -5.5q96 0 147.5 30.5t60.5 81.5q9 54 -42 89t-148 61q-97 25 -175 57.5t-129.5 79.5t-72.5 114t-4 163q19 106 67.5 190.5t127.5 143t189 89.5t253 31q52 0 112.5 -7.5t122 -23t120 -39t107.5 -54.5l-158 -263
q-71 32 -154 52t-164 20q-209 0 -227 -106q-5 -29 5 -50t35.5 -37t66 -30t94.5 -30q105 -29 180.5 -67.5t121.5 -90t62.5 -117t1.5 -147.5q-18 -106 -66 -190t-125 -143t-185 -90.5t-246 -31.5q-87 0 -160 9t-137 26.5t-121.5 42.5t-112.5 57z" />
    <glyph glyph-name="T" unicode="T" horiz-adv-x="1168" 
d="M215 1081l56 315h1116l-56 -315h-363l-190 -1081h-390l190 1081h-363z" />
    <glyph glyph-name="U" unicode="U" horiz-adv-x="1511" 
d="M756 -24q-138 -2 -250 26.5t-186.5 96t-104 178t-0.5 272.5l150 847h390l-144 -814q-12 -69 -11 -123.5t22 -91.5t66.5 -56.5t122.5 -19.5q69 0 118.5 19.5t84 56.5t56 91t33.5 122l144 816h390l-150 -847q-28 -160 -95.5 -269t-164 -176.5t-217 -97t-254.5 -30.5z" />
    <glyph glyph-name="V" unicode="V" horiz-adv-x="1477" 
d="M477 0q-32 90 -60.5 205.5t-52 242.5t-42.5 259t-33.5 257t-23.5 236t-12 196l415 10q-2 -64 1.5 -146t10.5 -173.5t18 -188.5t25 -191.5t30.5 -181.5t35.5 -159h26q40 67 85.5 151.5t91.5 177t91 190t85.5 190.5t74 177.5t57.5 153.5l414 -10q-30 -79 -75.5 -185.5
t-102 -228t-122 -253t-134.5 -260.5t-140 -249.5t-139 -219.5h-524z" />
    <glyph glyph-name="W" unicode="W" horiz-adv-x="2075" 
d="M1460 1396q-1 -52 0.5 -128t5 -164t9 -181t12 -180t15 -161.5t18.5 -124.5h19q26 53 55 129.5t59 165.5t59 183.5t54 182t44.5 163t30.5 125.5l410 -10q-26 -104 -65.5 -225.5t-86.5 -249.5t-99.5 -257.5t-105.5 -250t-104.5 -226.5t-95.5 -187h-470q-10 41 -18.5 95
t-16 114.5t-13 125t-10 126t-6.5 117t-2 98.5h-4q-16 -47 -37 -102t-45.5 -114t-52 -120.5t-56 -121.5t-57.5 -115.5t-57 -102.5h-470q-14 66 -27 165t-24 218t-18.5 251t-10 265t1 260.5t14.5 236.5l414 10q-7 -50 -14 -127.5t-13 -168.5t-10 -188t-5.5 -186t0 -162.5
t7.5 -116.5h19q28 48 64 124.5t74.5 166t77.5 185.5t73 184t61 161.5t42 117.5h355z" />
    <glyph glyph-name="X" unicode="X" horiz-adv-x="1384" 
d="M20 0q57 96 118.5 185.5t125.5 179.5q26 37 55.5 75.5t58.5 75t56 70t50 60.5t39.5 46t23.5 26q-18 36 -34 67.5t-32.5 67t-35 78.5t-42.5 103q-32 83 -57 174t-47 188l444 10q5 -36 15 -91.5t27 -136.5q18 -66 33.5 -122t32.5 -101h17q12 18 27 39t33 49.5t40.5 66
t51.5 87.5q19 32 33.5 58.5t27.5 50.5t25.5 48.5t27.5 51.5l441 -10q-23 -39 -49 -82.5t-56.5 -92t-67 -102.5t-81.5 -114q-78 -101 -136 -173t-96 -114q34 -66 72 -148t83 -200q16 -42 30.5 -82.5t29 -84.5t29 -93.5t30.5 -109.5l-449 -10q-9 50 -19.5 106.5t-33.5 131.5
q-14 48 -25.5 85t-21 64.5t-17.5 48t-15 35.5h-18q-15 -18 -34 -43t-40 -55.5t-44 -64.5t-45 -69q-19 -29 -38.5 -62t-37.5 -65.5t-34 -61.5t-27 -50z" />
    <glyph glyph-name="Y" unicode="Y" horiz-adv-x="1364" 
d="M374 936q-24 61 -46.5 127t-42 128t-34.5 115.5t-23 89.5l436 10q11 -60 29 -137.5t40 -152.5q11 -37 23 -75t23.5 -72.5t23 -63.5t20.5 -48h20q15 21 36 49.5t44.5 62.5t48 70.5t47.5 73.5q53 85 96 157.5t75 135.5l437 -10q-60 -100 -139.5 -217t-171.5 -244
q-42 -58 -83.5 -110.5t-84.5 -103t-88 -102t-94 -106.5l-90 -513h-391l90 513q-21 40 -46.5 88t-52 102t-52.5 112.5t-50 120.5z" />
    <glyph glyph-name="Z" unicode="Z" horiz-adv-x="1269" 
d="M82 0l48 273q49 62 111 128t131 134.5t142 137t143 136t134.5 132.5t116.5 125l3 15h-613l56 315h1084l-54 -302q-42 -56 -101.5 -119.5t-127.5 -130.5t-140 -135.5t-139 -135t-125.5 -128.5t-98.5 -115l-3 -15h581l-55 -315h-1093z" />
    <glyph glyph-name="bracketleft" unicode="[" horiz-adv-x="801" 
d="M104 -328l328 1864h575l-50 -285h-207l-228 -1294h207l-50 -285h-575z" />
    <glyph glyph-name="backslash" unicode="\" horiz-adv-x="1038" 
d="M615 -197l-282 1650l363 106l283 -1649z" />
    <glyph glyph-name="bracketright" unicode="]" horiz-adv-x="804" 
d="M34 -328l50 285h206l228 1294h-206l50 285h575l-328 -1864h-575z" />
    <glyph glyph-name="asciicircum" unicode="^" horiz-adv-x="1265" 
d="M561 1022l-325 87l420 371l460 -1l284 -370l-357 -88l-201 231z" />
    <glyph glyph-name="underscore" unicode="_" horiz-adv-x="1407" 
d="M126 -14h1151l-45 -256h-1151z" />
    <glyph glyph-name="grave" unicode="`" horiz-adv-x="750" 
d="M652 1129l-258 318l300 149l153 -363z" />
    <glyph glyph-name="a" unicode="a" horiz-adv-x="1215" 
d="M130 487q26 149 85.5 257t148.5 178.5t206 104.5t260 34q62 0 124.5 -9.5t119.5 -25t107 -35.5t88 -42l-167 -949h-329l-21 110q-22 -18 -54 -41t-72 -44t-88 -35t-101 -14q-95 0 -162.5 36t-106.5 102.5t-49 161t11 211.5zM499 509q-11 -65 -5 -110t24.5 -73.5t47 -41
t63.5 -12.5q42 0 83.5 15.5t73.5 36.5l74 420q-14 5 -45.5 12.5t-81.5 7.5q-44 0 -81.5 -14.5t-67.5 -45t-51.5 -79t-33.5 -116.5z" />
    <glyph glyph-name="b" unicode="b" horiz-adv-x="1245" 
d="M371 1456h373l-85 -482q26 15 57.5 30t67.5 28t75.5 21t81.5 8q111 0 183 -40.5t109.5 -110t44 -163t-12.5 -199.5q-24 -134 -77.5 -240.5t-137 -180t-196 -112.5t-254.5 -39q-70 0 -137 9t-127.5 23t-113 32t-94.5 35zM539 291q24 -8 54.5 -13.5t68.5 -5.5q46 0 84 13.5
t67.5 44t50.5 79.5t34 121q22 123 -15 178.5t-119 55.5q-20 0 -42.5 -4.5t-42.5 -11t-37 -14t-27 -13.5z" />
    <glyph glyph-name="c" unicode="c" horiz-adv-x="1058" 
d="M170 523q22 123 74 222.5t130.5 169.5t181 108t225.5 38q100 0 193 -24t178 -78l-138 -240q-23 10 -44 18.5t-44.5 14.5t-50 9t-59.5 3q-238 0 -283 -250q-12 -67 -0.5 -113.5t39 -75t67 -41.5t84.5 -13q61 0 115 13t104 33l55 -240q-43 -21 -88 -39t-96 -32t-108.5 -22
t-126.5 -8q-94 0 -164 21.5t-119.5 59.5t-79.5 90t-44 113t-13.5 128t12.5 135z" />
    <glyph glyph-name="d" unicode="d" horiz-adv-x="1250" 
d="M806 0l-21 110q-21 -18 -53 -41t-73 -44t-91 -35t-107 -14q-92 0 -157.5 35.5t-103.5 102.5t-47.5 163t11.5 216q18 100 54 181t84.5 144.5t106 109t119 75.5t123 44t118.5 14q38 0 63.5 -2.5t44 -6t33 -9t30.5 -11.5l75 424h375l-256 -1456h-328zM533 511
q-12 -66 -5.5 -111.5t25 -74t47.5 -41t63 -12.5q78 0 154 46l74 422q-14 8 -46.5 16t-70.5 8q-52 0 -92.5 -18t-70 -51t-49 -80t-29.5 -104z" />
    <glyph glyph-name="e" unicode="e" horiz-adv-x="1170" 
d="M520 375q8 -22 21 -42t37 -35.5t63.5 -25t101.5 -9.5q77 0 149.5 21t135.5 50l57 -242q-97 -54 -210.5 -85t-232.5 -31q-136 0 -236 32.5t-161 99t-81 168t4 238.5q25 139 84 242t144 171t193 101t230 33q111 0 191.5 -30.5t130 -81t68 -115t6.5 -132.5q-10 -57 -37 -115
t-79 -105.5t-133 -77t-199 -29.5h-247zM748 766q-35 0 -65 -11.5t-54 -32t-42 -47.5t-28 -57h185q42 0 69.5 15.5t33.5 47.5q4 23 -2.5 39.5t-20 26.5t-33.5 14.5t-43 4.5z" />
    <glyph glyph-name="f" unicode="f" horiz-adv-x="767" 
d="M214 997l109 30l9 51q15 87 52 159t94.5 123.5t133.5 80t169 28.5q82 0 145 -14.5t123 -46.5l-121 -250q-15 5 -41 10t-61 5q-31 0 -52.5 -7t-35.5 -20.5t-22 -33.5t-13 -47l-6 -37h190l-47 -268h-190l-134 -760h-374l134 760h-103z" />
    <glyph glyph-name="g" unicode="g" horiz-adv-x="1249" 
d="M163 487q26 146 84.5 254t148 179t208 106t263.5 35q59 0 120.5 -9.5t119 -25t108 -36t86.5 -41.5l-162 -915q-23 -128 -79 -220t-139 -151t-189 -86.5t-228 -27.5q-94 0 -193 27.5t-183 74.5l132 235q41 -23 103 -39.5t131 -16.5q59 0 107.5 11t85 37.5t61.5 69
t36 104.5l4 23q-23 -17 -55.5 -34.5t-71.5 -31.5t-84.5 -23.5t-94.5 -9.5q-105 0 -175 38t-108.5 105.5t-47 161.5t11.5 206zM532 509q-11 -63 -5.5 -108t24 -73.5t48 -42t66.5 -13.5q19 0 40 4.5t41.5 11.5t39 16.5t31.5 18.5l75 422q-14 6 -46 12.5t-75 6.5t-81 -13
t-68.5 -43t-53.5 -78.5t-36 -120.5z" />
    <glyph glyph-name="h" unicode="h" 
d="M371 1456h373l-83 -474q19 9 48 22t65.5 26t80 22t93.5 9q81 0 147 -26t110 -76.5t61 -125.5t0 -173l-116 -660h-372l106 605q3 19 5.5 46t-4.5 52t-28 42.5t-63 17.5q-22 0 -47.5 -5.5t-51 -14t-47.5 -18.5t-36 -18l-124 -707h-373z" />
    <glyph glyph-name="i" unicode="i" horiz-adv-x="604" 
d="M115 0l181 1028h374l-181 -1028h-374zM564 1494q111 0 155 -44t30 -123q-14 -78 -72.5 -121.5t-167.5 -43.5q-112 0 -157 44.5t-31 123.5q14 80 74 122t169 42z" />
    <glyph glyph-name="j" unicode="j" horiz-adv-x="604" 
d="M-208 -131q56 -16 97.5 -25t81.5 -8q34 0 59 14t42 35t26.5 47t14.5 52l184 1044h373l-185 -1050q-14 -79 -50 -156t-97.5 -138t-151 -98.5t-209.5 -37.5q-87 0 -161.5 20.5t-128.5 41.5zM566 1494q111 0 155.5 -44t30.5 -123q-14 -78 -73 -121.5t-168 -43.5
q-112 0 -156.5 44.5t-30.5 123.5q14 80 73.5 122t168.5 42z" />
    <glyph glyph-name="k" unicode="k" horiz-adv-x="1257" 
d="M1347 1028q-39 -73 -85 -137t-96.5 -120.5t-104.5 -105t-108 -90.5q19 -65 55 -134.5t78 -136t85.5 -125t78.5 -99.5l-301 -174q-41 33 -87 88t-89.5 120t-80 135t-57.5 134q-24 -11 -45.5 -20.5t-41.5 -17.5l-60 -345h-373l256 1456h373l-135 -766q112 56 200 146
t151 192h387v0z" />
    <glyph glyph-name="l" unicode="l" horiz-adv-x="604" 
d="M115 0l256 1456h373l-256 -1456h-373z" />
    <glyph glyph-name="m" unicode="m" horiz-adv-x="1881" 
d="M267 882q51 29 122.5 60.5t155 58t174.5 43.5t180 17q91 0 157 -21t111 -61q93 38 181.5 60t176.5 22q86 0 148 -15.5t104.5 -43t67 -65.5t35.5 -82t10 -92.5t-10 -98.5l-117 -664h-374l108 616q5 28 7.5 55t-4 47.5t-25.5 33t-57 12.5q-18 0 -41 -4.5t-46 -11.5t-45 -16
t-40 -18q-2 -26 -6 -53l-116 -661h-373l110 627q4 24 6 48.5t-4.5 44t-24.5 32t-53 12.5q-23 0 -48 -4.5t-48 -11.5t-43 -15t-33 -15l-126 -718h-375z" />
    <glyph glyph-name="n" unicode="n" 
d="M270 881q49 30 119 61.5t153 58t175.5 43.5t187.5 17q122 0 199.5 -32t119 -86t51 -126t-4.5 -153l-117 -664h-374l110 629q4 22 3 45t-10.5 41.5t-28.5 30t-51 11.5q-23 0 -49.5 -4.5t-52 -12t-48.5 -16.5t-40 -17l-124 -707h-373z" />
    <glyph glyph-name="o" unicode="o" horiz-adv-x="1255" 
d="M169 518q22 124 77 224t138.5 171t192 109.5t236.5 38.5q124 0 219.5 -36.5t155.5 -106t81.5 -170t-0.5 -229.5q-23 -128 -78.5 -229t-139 -171t-192 -106.5t-236.5 -36.5t-223.5 36t-154.5 105.5t-79 170.5t3 230zM534 519q-12 -69 -6.5 -116.5t25 -76.5t51.5 -41.5
t73 -12.5q40 0 76.5 13t65.5 42t51 76.5t34 116.5q12 67 6.5 113.5t-25 75.5t-51 42t-71.5 13q-41 0 -77 -13.5t-66 -43t-52 -76t-34 -112.5z" />
    <glyph glyph-name="p" unicode="p" horiz-adv-x="1249" 
d="M271 888q38 26 102.5 56t141.5 55.5t159.5 42.5t156.5 17q145 0 238.5 -33.5t142.5 -100.5t58 -167.5t-15 -233.5q-12 -67 -34 -134t-54 -128t-75 -113t-97.5 -90.5t-120.5 -60.5t-145 -22q-44 0 -78.5 3.5t-63 9t-52.5 12.5t-45 14l-74 -422h-373zM538 288q20 -6 48 -11
t76 -5q94 0 153.5 61.5t80.5 182.5q12 68 9 114t-19.5 74.5t-47 40.5t-72.5 12q-43 0 -84.5 -14t-67.5 -28z" />
    <glyph glyph-name="q" unicode="q" horiz-adv-x="1249" 
d="M164 489q26 150 86.5 258t151 177.5t208.5 103t260 33.5q58 0 117 -9t115 -24t106.5 -35.5t92.5 -43.5l-238 -1349h-373l81 459q-21 -13 -50.5 -27.5t-64.5 -27t-76.5 -20.5t-86.5 -8q-100 0 -171.5 36.5t-113.5 103.5t-53.5 162t9.5 211zM533 512q-12 -65 -6.5 -110.5
t24 -74t48.5 -42t69 -13.5q35 0 74.5 9t71.5 23l78 444q-33 16 -129 16q-39 0 -75 -13.5t-66.5 -43.5t-53.5 -78t-35 -117z" />
    <glyph glyph-name="r" unicode="r" horiz-adv-x="938" 
d="M296 890q102 60 206.5 99t206.5 55t198 10t181 -36l-99 -277q-40 7 -83.5 9.5t-88.5 -2.5t-91 -19.5t-92 -42.5l-120 -686h-374z" />
    <glyph glyph-name="s" unicode="s" horiz-adv-x="1015" 
d="M200 347q72 -39 148 -60t151 -21q28 0 53 4.5t45 12t32.5 18.5t14.5 23q2 13 -11.5 21.5t-40 17t-65 19t-86.5 26.5q-58 19 -107 45t-82 63.5t-46 91t0 128.5q16 90 66 152t119 100.5t150 55.5t159 17q71 0 130.5 -7.5t109 -21t89 -31t71.5 -36.5l-135 -250
q-69 27 -129.5 39.5t-111.5 12.5q-30 0 -57 -3t-48.5 -9.5t-35 -16.5t-16.5 -24q-2 -15 15 -24.5t44.5 -17.5t62.5 -15.5t69 -18.5q147 -47 206 -127t36 -205q-16 -90 -64 -153t-116 -102t-149.5 -57t-164.5 -18q-89 0 -161.5 11t-128.5 27.5t-95.5 35.5t-61.5 34z" />
    <glyph glyph-name="t" unicode="t" horiz-adv-x="908" 
d="M239 998l117 30l92 264h328l-47 -264h215l-47 -268h-215l-67 -379q-9 -50 4 -79.5t65 -29.5q39 0 72 10t71 21l40 -242q-43 -20 -83.5 -35.5t-82 -26.5t-86.5 -17t-98 -6q-70 0 -130 18.5t-100 60t-56 109t2 165.5l76 431h-111z" />
    <glyph glyph-name="u" unicode="u" 
d="M290 1028h374l-104 -587q-9 -53 -3 -86t23 -51.5t41.5 -25t51.5 -6.5q45 0 85.5 13t71.5 33l125 710h374l-181 -1028h-329l-20 107q-27 -26 -61.5 -49.5t-74 -41.5t-83 -29t-88.5 -11q-101 0 -168 36t-103.5 97.5t-45 142t7.5 169.5z" />
    <glyph glyph-name="v" unicode="v" horiz-adv-x="1219" 
d="M383 0q-51 129 -85.5 258.5t-54.5 259t-26.5 257.5t-3.5 253l404 10q-6 -44 -8.5 -102t-2.5 -123t3.5 -132.5t9.5 -131.5t15.5 -121.5t22.5 -100.5h20q26 40 55 95t58 117.5t56 129.5t51 132.5t42.5 126t30.5 110.5l400 -10q-46 -140 -100.5 -271.5t-119.5 -257.5
t-142.5 -250t-168.5 -249h-456z" />
    <glyph glyph-name="w" unicode="w" horiz-adv-x="1881" 
d="M2000 1028q-30 -120 -79 -254.5t-109.5 -269.5t-127.5 -264t-132 -240h-457q-28 121 -46.5 244.5t-20.5 255.5h-2q-50 -141 -115 -267t-128 -233h-455q-17 63 -32.5 145.5t-28.5 175t-22.5 189.5t-13.5 190.5t-2 177.5t12 150l393 10q-13 -79 -22 -168t-13 -179.5
t-1.5 -178.5t12.5 -166h13q29 51 58.5 111t58 123.5t54 127.5t47 122.5t38 109.5t25.5 88h433q-7 -77 -7 -163t6 -174.5t16.5 -176t25.5 -168.5h13q21 45 44 103.5t46 123.5t44 132t38.5 129t30 115t17.5 89z" />
    <glyph glyph-name="x" unicode="x" horiz-adv-x="1197" 
d="M41 0q18 38 36 73t39 70.5t46 72.5t56 79q33 46 62.5 80.5t56.5 61.5t52 48.5t49 42.5q-19 30 -38 58t-37 56t-33.5 57t-27.5 62q-29 81 -43.5 144t-18.5 123l405 7q1 -38 3.5 -78.5t13.5 -82.5q11 -53 26.5 -86t32.5 -60h9q31 33 56 66.5t53 78.5q25 40 43.5 83t30.5 79
l403 -7q-15 -34 -29 -64t-31.5 -60.5t-40.5 -65t-55 -78.5t-61 -76t-55.5 -57.5t-52 -48.5t-50.5 -48q32 -40 70 -99t64 -125q20 -53 32.5 -91t20.5 -71.5t13.5 -67t11.5 -76.5l-405 -7q-1 37 -5.5 77t-20.5 97q-6 22 -13 47.5t-15.5 49t-17 43t-15.5 30.5h-8
q-11 -11 -26 -30t-32 -41.5t-34 -48t-32 -49.5q-20 -34 -34 -59.5t-23.5 -45.5t-16.5 -37t-13 -33z" />
    <glyph glyph-name="y" unicode="y" horiz-adv-x="1221" 
d="M118 -349q90 86 169 169t150 180h-45q-50 113 -85.5 246t-57 270t-30 269t-2.5 243l401 10q-8 -86 -11 -180.5t1 -189t16 -186t33 -170.5h20q33 48 65 110.5t61.5 131.5t56 139.5t48 135t37 119t24.5 90.5l398 -10q-18 -70 -51.5 -157.5t-77.5 -183.5t-95.5 -194
t-104.5 -189t-105.5 -169.5t-98.5 -134.5q-36 -50 -86.5 -116t-106.5 -136.5t-113.5 -138.5t-107.5 -121z" />
    <glyph glyph-name="z" unicode="z" horiz-adv-x="1068" 
d="M240 732l52 296h851l-45 -256q-55 -63 -120.5 -121.5t-133 -115.5t-133.5 -115t-122 -120v-4h434l-52 -296h-895l48 275q54 60 118.5 116t131 110.5t130.5 110.5t118 116l1 4h-383z" />
    <glyph glyph-name="braceleft" unicode="{" horiz-adv-x="860" 
d="M239 733q53 10 87.5 33.5t56 57t32.5 76t17 90.5l19 161q16 118 61.5 194t116 120.5t164 62t206.5 18.5h85l-53 -284q-13 0 -31.5 -0.5t-53.5 -3.5q-57 -2 -84.5 -32t-38.5 -90q-15 -87 -22.5 -157.5t-24.5 -128.5q-15 -60 -36 -100.5t-48.5 -67.5t-60 -44.5t-69.5 -32.5
q33 -16 61.5 -35t46.5 -50t24 -77.5t-6 -118.5q-5 -26 -10 -50t-11.5 -51.5t-14 -62t-16.5 -82.5q-11 -64 5 -93t72 -33q19 -4 42.5 -4t43.5 -1l-47 -284q-20 -1 -41.5 0t-41.5 1q-150 2 -240 28t-134.5 76.5t-49 127t16.5 180.5l37 177q10 49 10.5 86t-11.5 64t-38 44
t-67 28z" />
    <glyph glyph-name="bar" unicode="|" horiz-adv-x="614" 
d="M54 -420l338 1917h358l-338 -1917h-358z" />
    <glyph glyph-name="braceright" unicode="}" horiz-adv-x="891" 
d="M849 475q-45 -11 -77 -28t-53.5 -44t-34.5 -64t-20 -86l-25 -177q-15 -104 -47 -180.5t-94 -127t-161.5 -76.5t-249.5 -28q-21 0 -42 -1t-42 0l53 284q21 1 45 1t44 4q57 4 83 33t37 93q9 48 13.5 82.5t8 62t6.5 51.5t8 50q13 72 35.5 118.5t52 77.5t64.5 50t73 35
q-32 15 -58.5 32.5t-44 44.5t-25 67.5t-1.5 100.5q5 58 22.5 128.5t32.5 157.5q11 60 -6.5 90t-73.5 32q-34 3 -52.5 3.5t-31.5 0.5l47 284h86q112 -1 199.5 -18.5t142.5 -62t73 -120.5t-8 -194l-36 -161q-11 -48 -15 -90.5t6 -76t36.5 -57t75.5 -33.5z" />
    <glyph glyph-name="asciitilde" unicode="~" horiz-adv-x="1292" 
d="M141 518q38 63 86 112t103.5 82t116.5 50t126 17q64 0 114.5 -16t94.5 -34.5t84.5 -34.5t85.5 -16q30 0 53.5 4.5t43.5 15t40 27.5t43 43l196 -124q-42 -74 -96 -123.5t-111 -79.5t-112.5 -42.5t-100.5 -12.5q-63 0 -114 16t-95.5 34.5t-86.5 34.5t-88 16q-35 0 -60 -6.5
t-46 -18.5t-40 -29.5t-41 -38.5z" />
    <glyph glyph-name="exclamdown" unicode="&#xa1;" horiz-adv-x="666" 
d="M293 731h341l-134 -918h-396zM500 913q-112 0 -157.5 43.5t-31.5 123.5q14 82 77 128.5t179 46.5q112 0 156.5 -45t30.5 -125q-14 -82 -76.5 -127t-177.5 -45z" />
    <glyph glyph-name="sterling" unicode="&#xa3;" horiz-adv-x="1274" 
d="M252 739h93q-7 25 -14.5 51t-11.5 57.5t-3 70.5t10 92q13 73 49 146t100.5 132t159 96t223.5 37q88 0 158.5 -11t128 -29.5t105.5 -43t91 -51.5l-151 -265q-23 12 -52.5 27t-66.5 28t-81 22t-94 9q-35 0 -67.5 -11.5t-58 -32.5t-43.5 -50.5t-25 -66.5q-6 -34 -4.5 -61.5
t7.5 -51.5t14.5 -47t15.5 -47h263l-34 -192h-227q-9 -37 -23 -76t-33 -75t-41 -66.5t-47 -51.5q35 0 62.5 -3t55 -7t60.5 -7t79 -3t83.5 4.5t70.5 12t63 18t61 23.5l63 -249q-37 -23 -84.5 -40.5t-98.5 -28.5t-102 -16.5t-95 -5.5q-54 0 -107.5 4t-110 9t-118 9t-130.5 4
q-38 0 -76.5 -4t-70.5 -9q-38 -5 -73 -12l50 280q41 17 70.5 48.5t50.5 70.5t34.5 83.5t21.5 87.5h-134z" />
    <glyph glyph-name="yen" unicode="&#xa5;" horiz-adv-x="1395" 
d="M1191 153h-897l41 232h897zM1247 469h-897l41 231h897zM401 936q-24 61 -46.5 127t-42 128t-34.5 115.5t-23 89.5l436 10q11 -60 29 -137.5t40 -152.5q11 -37 23 -75t23.5 -72.5t23 -63.5t20.5 -48h20q15 21 36 49.5t44.5 62.5t48 70.5t47.5 73.5q53 85 96 157.5
t75 135.5l437 -10q-60 -100 -139.5 -217t-171.5 -244q-42 -58 -83.5 -110.5t-84.5 -103t-88 -102t-94 -106.5l-90 -513h-391l90 513q-21 40 -46.5 88t-52 102t-52.5 112.5t-50 120.5z" />
    <glyph glyph-name="brokenbar" unicode="&#xa6;" horiz-adv-x="616" 
d="M56 -410l140 791h360l-140 -791h-360zM252 700l143 809h360l-143 -809h-360z" />
    <glyph glyph-name="section" unicode="&#xa7;" horiz-adv-x="1097" 
d="M181 307q165 -61 314 -61q67 0 104.5 19t42.5 50q3 17 -13 31.5t-44.5 27t-65.5 25t-75 24.5q-56 16 -104 39.5t-81 60t-47 90t-1 128.5q9 52 29.5 95t50.5 77.5t67.5 61t80.5 46.5q-28 42 -38.5 95t0.5 116q16 90 65 152.5t117.5 100.5t150 55t162.5 17q137 0 233 -28
t161 -68l-127 -228q-31 11 -63.5 20.5t-64.5 16t-62 10.5t-55 4q-27 0 -53.5 -4t-48 -11.5t-36 -20t-17.5 -28.5q-3 -19 12 -32t41.5 -23.5t61 -20t69.5 -21.5q69 -25 121 -52.5t84.5 -64.5t43.5 -86.5t-1 -118.5q-10 -55 -31.5 -99t-53 -79t-70.5 -61t-83 -44
q32 -44 45 -96.5t2 -116.5q-16 -91 -64 -153.5t-116 -101.5t-150.5 -56.5t-167.5 -17.5q-89 0 -165 13t-134.5 31t-97.5 36t-53 28zM541 774q-3 -15 5.5 -26.5t24.5 -21t38 -17.5t48 -16q27 -7 56 -7q67 0 105 19.5t43 49.5q3 15 -8.5 27.5t-33 24t-50.5 22t-61 20.5h-5
q-26 0 -53.5 -5.5t-50.5 -15.5t-39 -24t-19 -30z" />
    <glyph glyph-name="dieresis" unicode="&#xa8;" horiz-adv-x="1046" 
d="M658 1423q92 0 128.5 -36t25.5 -102q-11 -65 -59 -101t-137 -36q-94 0 -130.5 37t-24.5 103q11 65 59.5 100t137.5 35zM1109 1423q91 0 128 -36t26 -102q-11 -65 -60 -101t-137 -36q-94 0 -130.5 37t-24.5 103q11 65 59.5 100t138.5 35z" />
    <glyph glyph-name="copyright" unicode="&#xa9;" horiz-adv-x="1551" 
d="M177 696q28 156 107 289t194.5 230t260.5 151.5t304 54.5q162 0 287.5 -55.5t206.5 -153t112.5 -230t4.5 -287.5q-18 -103 -59.5 -197t-101.5 -174t-137 -145t-167 -110.5t-190.5 -70.5t-207.5 -25q-109 0 -201.5 25t-167 71t-129 111t-86.5 145t-40 174t10 197zM393 696
q-20 -112 2 -207.5t79 -166t145.5 -110.5t202.5 -40q76 0 147 18.5t135 52t119 80.5t98.5 105t73 125.5t42.5 141.5q20 112 -2.5 209.5t-80 169.5t-146 113t-200.5 41q-102 0 -202.5 -36t-185 -104t-145 -167t-82.5 -225zM531 697q19 105 59 182t99 128t135 76t167 25
q74 0 144.5 -18t133.5 -60l-100 -175q-36 17 -70.5 27t-84.5 10q-96 0 -148.5 -46.5t-72.5 -155.5q-10 -57 -2.5 -94.5t28 -60.5t52 -32.5t69.5 -9.5q47 0 89 10.5t83 25.5l38 -174q-32 -16 -66.5 -30t-72.5 -24t-81 -16t-92 -6q-106 0 -173 32t-102 88t-41 132.5t9 165.5z
" />
    <glyph glyph-name="ordfeminine" unicode="&#xaa;" horiz-adv-x="972" 
d="M391 1457q28 13 62.5 27.5t77.5 27t96 20.5t119 8q44 0 88 -5t83 -18.5t71 -38.5t51.5 -64.5t25 -96t-8.5 -133.5l-89 -505h-238l-8 85q-15 -13 -42.5 -31t-63 -34.5t-76.5 -28t-82 -11.5q-59 0 -105 15t-75.5 47.5t-40 84t2.5 124.5q9 49 30.5 86t51 64t65.5 45
t72.5 29.5t72.5 18t67 9.5l192 17l4 21q3 18 -1 35t-20 29.5t-47 20t-81 7.5q-24 0 -51 -4.5t-55.5 -11.5t-56 -16t-52.5 -17zM760 1032l-158 -18q-32 -3 -58 -19.5t-33 -54.5q-7 -39 15 -52.5t64 -13.5q18 0 40.5 3.5t44 9t39 12t25.5 12.5z" />
    <glyph glyph-name="guillemotleft" unicode="&#xab;" horiz-adv-x="1387" 
d="M554 541l183 -340l-305 -160l-248 501l424 498l248 -160zM1140 541l182 -340l-304 -160l-249 501l425 498l248 -160z" />
    <glyph glyph-name="logicalnot" unicode="&#xac;" horiz-adv-x="1221" 
d="M177 636l49 282h1026l-99 -566h-302l50 284h-724z" />
    <glyph glyph-name="registered" unicode="&#xae;" horiz-adv-x="1511" 
d="M183 698q18 104 60 198.5t102.5 175t138.5 145.5t168 111t190.5 70.5t206.5 24.5q161 0 287 -55.5t207 -153t112.5 -230t4.5 -287.5q-18 -103 -59.5 -197t-101.5 -174t-137.5 -145t-167.5 -110.5t-190.5 -70.5t-207.5 -25q-163 0 -289.5 55t-207.5 151.5t-112 229
t-4 287.5zM389 698q-20 -114 2 -212.5t79.5 -171.5t147.5 -115t206 -42q115 0 220 42t189 115t141.5 171t77.5 211q20 115 -2.5 214t-81 172.5t-149 115.5t-204.5 42q-104 0 -206 -36.5t-188 -106t-148 -170.5t-84 -229zM1039 275q-25 24 -48.5 61t-43 78.5t-35 84
t-24.5 77.5q-11 -1 -20 -0.5t-14 0.5h-31l-46 -260h-239l143 811h290q82 0 144.5 -15t103 -47.5t56 -83.5t2.5 -124q-8 -47 -26.5 -83.5t-43 -65t-54.5 -49t-61 -35.5q24 -60 63.5 -124t89.5 -124zM859 747h109q36 0 65.5 23.5t37.5 68.5q4 24 -0.5 41.5t-15 28t-25.5 15.5
t-30 5h-109z" />
    <glyph glyph-name="degree" unicode="&#xb0;" horiz-adv-x="838" 
d="M639 1265q-62 0 -100 -25.5t-48 -81.5q-21 -113 112 -113q68 0 102 30.5t42 78.5q11 58 -17 84.5t-91 26.5zM666 1421q167 0 236.5 -68t46.5 -199q-11 -60 -38.5 -109t-73 -83.5t-110 -53.5t-148.5 -19q-170 0 -240 70t-47 201q47 261 374 261z" />
    <glyph glyph-name="plusminus" unicode="&#xb1;" horiz-adv-x="1118" 
d="M524 709h-288l52 296h288l48 276h324l-48 -276h288l-52 -296h-288l-52 -292h-324zM111 2l51 288h900l-51 -288h-900z" />
    <glyph glyph-name="acute" unicode="&#xb4;" horiz-adv-x="750" 
d="M356 1233l282 363l247 -149l-370 -318z" />
    <glyph glyph-name="paragraph" unicode="&#xb6;" horiz-adv-x="1686" 
d="M544 -227l129 729h-52q-117 0 -199.5 29t-131 84t-63.5 134t3 179q17 94 55.5 179t104.5 149.5t163 102t230 37.5h439l-287 -1623h-391zM1105 -227l287 1623h390l-287 -1623h-390z" />
    <glyph glyph-name="cedilla" unicode="&#xb8;" horiz-adv-x="670" 
d="M43 -278q22 -6 47 -8.5t48 -2.5q19 0 38.5 3.5t35.5 11t27.5 20t14.5 30.5q3 20 -2.5 32.5t-19 19.5t-33.5 9.5t-45 2.5q-14 0 -33.5 -1.5t-39.5 -5.5l99 163h233l-51 -76q63 -11 97.5 -54.5t21.5 -117.5q-17 -97 -96 -149.5t-213 -52.5q-57 0 -107 7.5t-88 23.5z" />
    <glyph glyph-name="guillemotright" unicode="&#xbb;" horiz-adv-x="1399" 
d="M830 880l304 160l248 -498l-424 -501l-249 160l303 340zM244 880l303 160l250 -498l-426 -501l-247 160l301 340z" />
    <glyph glyph-name="questiondown" unicode="&#xbf;" horiz-adv-x="1001" 
d="M930 -92q-29 -23 -75 -44.5t-100.5 -38.5t-112.5 -27.5t-111 -10.5q-245 0 -347 90.5t-77 262.5q11 73 35.5 129.5t59.5 101t79 80.5t94 69q39 26 73 56t60 68.5t43 86.5t23 109h305q4 -59 -4 -121.5t-31 -122.5t-62 -114t-97 -96q-44 -32 -76.5 -54t-55.5 -40.5
t-36.5 -38t-17.5 -44.5q-10 -56 30 -81.5t118 -25.5q57 0 117 11t141 38zM752 958q-91 0 -127.5 36t-24.5 102q11 65 59 101t138 36q93 0 129.5 -37t24.5 -103q-11 -66 -60.5 -100.5t-138.5 -34.5z" />
    <glyph glyph-name="AE" unicode="&#xc6;" horiz-adv-x="2011" 
d="M932 0l44 255h-432q-42 -86 -72 -150.5t-43 -104.5h-422q21 57 56.5 136.5t83 178t107 213.5t129.5 242q63 114 123 211.5t113 177t97 139.5t75 98h1341l-56 -315h-578l-40 -230h493l-52 -293h-493l-43 -243h601l-55 -315h-977zM984 1080q-27 -42 -62 -103.5t-74 -133
t-80 -148.5t-79 -150h339l94 535h-138z" />
    <glyph glyph-name="Eth" unicode="&#xd0;" horiz-adv-x="1474" 
d="M758 579h-686l41 232h686zM150 0l246 1396h531q91 0 178.5 -13.5t163.5 -45t137 -82.5t99.5 -125t50 -173.5t-11.5 -227.5q-35 -196 -107.5 -334.5t-180.5 -226t-251 -128t-318 -40.5h-537zM596 315h162q75 0 140.5 22.5t117 70t88.5 122t55 178.5q32 180 -31 276.5
t-212 96.5h-185z" />
    <glyph glyph-name="multiply" unicode="&#xd7;" horiz-adv-x="1115" 
d="M437 597l-170 196l269 219l169 -195l237 195l191 -220l-238 -196l169 -195l-267 -219l-169 195l-239 -196l-191 219z" />
    <glyph glyph-name="Thorn" unicode="&#xde;" horiz-adv-x="1340" 
d="M772 1396l-34 -190h171q136 0 237.5 -29t164.5 -89t85.5 -151.5t0.5 -215.5q-24 -138 -86.5 -236t-150.5 -160.5t-196.5 -91t-225.5 -28.5h-176l-36 -205h-391l246 1396h391zM613 499h161q97 0 159.5 55t79.5 150q17 97 -27 148t-153 51h-148z" />
    <glyph glyph-name="germandbls" unicode="&#xdf;" horiz-adv-x="1474" 
d="M123 0l215 1224q105 107 257 167t348 60q123 0 210 -32.5t140 -83.5t73 -113.5t10 -122.5q-9 -52 -21.5 -89.5t-31.5 -67.5t-47.5 -56.5t-68.5 -57.5q-49 -36 -77.5 -58t-33.5 -46q-2 -14 5 -25t23 -22t41 -23.5t58 -29.5q37 -19 76.5 -44.5t69.5 -61.5t44.5 -85
t2.5 -116q-29 -165 -153.5 -253t-337.5 -88q-104 0 -195 21t-186 58l123 238q21 -8 49 -16t59.5 -15t66.5 -11.5t70 -4.5q19 0 42 3.5t43.5 12t36 22t18.5 33.5q4 21 -8 35t-34.5 25.5t-52.5 22.5t-62 25q-50 21 -87.5 44.5t-61 53.5t-32 67.5t0.5 85.5q6 33 16 63
t29.5 59.5t49 58t74.5 58.5q27 18 48.5 30.5t37.5 24t26 24t13 30.5q8 47 -29.5 76t-109.5 29q-60 0 -105 -14t-78 -37l-190 -1078h-374z" />
    <glyph glyph-name="ae" unicode="&#xe6;" horiz-adv-x="1836" 
d="M133 487q26 149 85.5 257t148.5 178.5t206.5 104.5t259.5 34q91 0 179 -19t162 -47q138 66 313 66q111 0 191.5 -30.5t130 -81t68 -115t6.5 -132.5q-10 -57 -38 -120t-81 -115.5t-135 -87t-200 -34.5h-222q24 -42 75.5 -62t138.5 -20q38 0 74 7.5t70.5 19t67.5 26
t65 28.5l55 -252q-97 -54 -210.5 -85t-232.5 -31q-117 0 -205 24h-329l-20 110q-22 -18 -54 -41t-72.5 -44t-88.5 -35t-101 -14q-95 0 -162.5 36t-106.5 102.5t-49 161t11 211.5zM503 509q-11 -65 -5.5 -110t24 -73.5t47.5 -41t64 -12.5q42 0 83.5 15.5t72.5 36.5l74 420
q-14 5 -45 12.5t-82 7.5q-87 0 -148 -59.5t-85 -195.5zM1416 766q-35 0 -63.5 -11.5t-51.5 -31t-41 -44t-31 -51.5h185q42 0 68.5 10.5t32.5 42.5q4 23 -2.5 39.5t-20 26.5t-33.5 14.5t-43 4.5z" />
    <glyph glyph-name="eth" unicode="&#xf0;" horiz-adv-x="1251" 
d="M642 1178l78 74q-34 16 -66.5 27t-60.5 16l133 238q57 -12 112 -29t107 -40l115 110l194 -163l-98 -92q49 -52 85.5 -118.5t55.5 -150t19.5 -185t-20.5 -222.5q-32 -179 -92.5 -305.5t-148.5 -207t-203 -117.5t-254 -37q-129 0 -225 33t-155.5 97t-80 156.5t0.5 212.5
q22 122 77 214.5t131 154.5t167 93t185 31q109 0 178.5 -23.5t104.5 -51.5q8 60 -9.5 111.5t-50.5 95.5l-99 -92zM502 468q-10 -57 -1.5 -98t30 -67.5t54.5 -39.5t71 -13q76 0 124 31.5t78 85t46.5 123.5t29.5 147q-45 33 -85.5 48t-91.5 15q-54 0 -97.5 -17.5t-75.5 -49
t-52.5 -74t-29.5 -91.5z" />
    <glyph glyph-name="divide" unicode="&#xf7;" horiz-adv-x="1115" 
d="M185 421l51 288h900l-51 -288h-900zM614 330q91 0 128 -36.5t25 -102.5q-11 -64 -59.5 -100t-137.5 -36q-94 0 -130.5 37t-24.5 103q11 65 60 100t139 35zM743 1066q91 0 128 -36.5t26 -102.5q-11 -64 -59.5 -100t-137.5 -36q-94 0 -130.5 37t-24.5 103q11 65 59.5 100
t138.5 35z" />
    <glyph glyph-name="thorn" unicode="&#xfe;" horiz-adv-x="1224" 
d="M740 1434l-68 -388q37 6 75.5 9.5t76.5 3.5q262 0 372.5 -141t63.5 -408q-12 -67 -34 -133t-56 -125.5t-81 -110t-109.5 -87t-140.5 -57.5t-174 -21q-71 0 -114 9.5t-63 18.5l-17 -97l-373 1l269 1526h373zM541 304q14 -8 27 -14t28 -10t33 -6t42 -2q88 0 146 61.5
t79 182.5q12 68 8 115t-22.5 76.5t-50.5 43t-76 13.5q-35 0 -72 -8t-66 -19zM471 -93l-64 -362h-373l64 363z" />
    <glyph glyph-name="OE" unicode="&#x152;" horiz-adv-x="1976" 
d="M1028 0q-55 -12 -113 -18.5t-121 -5.5q-175 1 -303 47t-205 137t-101.5 225t8.5 310q34 179 105.5 314.5t179.5 226.5t251.5 137.5t319.5 47.5q121 0 217 -24l-1 -1h834l-56 -315h-578l-40 -230h493l-52 -293h-493l-43 -243h601l-55 -315h-848zM849 291q27 0 53 4t51 12
l136 773q-18 11 -43 18.5t-54 7.5q-86 0 -155 -29.5t-121 -83t-87.5 -129.5t-53.5 -169q-16 -89 -7 -163.5t43 -128t93.5 -83t144.5 -29.5z" />
    <glyph glyph-name="oe" unicode="&#x153;" horiz-adv-x="1921" 
d="M178 518q22 124 77 224t138.5 171t192 109.5t236.5 38.5q124 0 219.5 -36.5t155.5 -106t81.5 -170t-0.5 -229.5q-23 -128 -78.5 -229t-139 -171t-192 -106.5t-236.5 -36.5t-223.5 36t-154.5 105.5t-79 170.5t3 230zM543 519q-12 -69 -6.5 -116.5t25 -76.5t51.5 -41.5
t73 -12.5q40 0 76.5 13t65.5 42t51 76.5t34 116.5q12 67 6.5 113.5t-25 75.5t-51 42t-71.5 13q-41 0 -77 -13.5t-66 -43t-52 -76t-34 -112.5zM1274 375q8 -22 21 -42t37 -35.5t63.5 -25t101.5 -9.5q77 0 149.5 21t135.5 50l57 -242q-97 -54 -210.5 -85t-232.5 -31
q-136 0 -236 32.5t-161 99t-81 168t4 238.5q25 139 84 242t144 171t193 101t230 33q111 0 191.5 -30.5t130 -81t68 -115t6.5 -132.5q-10 -57 -37 -115t-79 -105.5t-133 -77t-199 -29.5h-247zM1502 766q-35 0 -65 -11.5t-54 -32t-42 -47.5t-28 -57h185q42 0 69.5 15.5
t33.5 47.5q4 23 -2.5 39.5t-20 26.5t-33.5 14.5t-43 4.5z" />
    <glyph glyph-name="circumflex" unicode="&#x2c6;" horiz-adv-x="947" 
d="M480 1147l-226 61l277 272h363l178 -272l-250 -62l-143 162z" />
    <glyph glyph-name="tilde" unicode="&#x2dc;" horiz-adv-x="1016" 
d="M299 1268q30 50 68 90.5t82 69t92.5 44t99.5 15.5q50 0 89.5 -12t73 -27t65 -27t66.5 -12q24 0 40 3t29.5 10.5t27 20t31.5 32.5l163 -109q-33 -58 -75.5 -99.5t-87.5 -67.5t-89 -38.5t-79 -12.5q-50 0 -89 12t-73.5 27t-67 27t-68.5 12q-27 0 -44.5 -4t-32 -12.5
t-27.5 -21t-29 -28.5z" />
    <glyph glyph-name="endash" unicode="&#x2013;" horiz-adv-x="1303" 
d="M142 422l55 310h1161l-55 -310h-1161z" />
    <glyph glyph-name="emdash" unicode="&#x2014;" horiz-adv-x="2327" 
d="M137 422l55 310h2194l-55 -310h-2194z" />
    <glyph glyph-name="quoteleft" unicode="&#x2018;" horiz-adv-x="622" 
d="M439 756q-114 0 -160 45.5t-32 126.5q12 78 43 154.5t74.5 145.5t95 128t103.5 101l146 -73q-24 -35 -48 -73.5t-45 -77.5t-37.5 -75t-26.5 -64q89 -11 119 -55.5t17 -115.5q-14 -80 -75 -123.5t-174 -43.5z" />
    <glyph glyph-name="quoteright" unicode="&#x2019;" horiz-adv-x="620" 
d="M549 1407q115 0 161 -45.5t32 -126.5l-2 -8q-12 -77 -44 -152t-75 -143t-94.5 -126t-102.5 -100l-144 73q24 34 47.5 73t44.5 78t37.5 74.5t25.5 64.5q-44 5 -73 19t-45 36t-19.5 51t2.5 65q14 80 75.5 123.5t173.5 43.5z" />
    <glyph glyph-name="quotesinglbase" unicode="&#x201a;" horiz-adv-x="626" 
d="M357 297q115 0 161 -45.5t32 -126.5l-2 -8q-12 -77 -44 -152t-75 -143t-94.5 -126t-102.5 -100l-144 73q24 34 47.5 73t44.5 78t37.5 74.5t25.5 64.5q-44 5 -73 19t-45 36t-19.5 51t2.5 65q14 80 75.5 123.5t173.5 43.5z" />
    <glyph glyph-name="quotedblleft" unicode="&#x201c;" horiz-adv-x="1072" 
d="M924 745q-114 0 -160 45.5t-32 126.5q12 78 43 154.5t74.5 145.5t95 128t103.5 101l146 -73q-24 -35 -48 -73.5t-45 -77.5t-37.5 -75t-26.5 -64q89 -11 119 -55.5t17 -115.5q-14 -80 -75 -123.5t-174 -43.5zM415 745q-114 0 -160 45.5t-32 126.5q12 78 43 154.5
t74.5 145.5t95 128t103.5 101l146 -73q-24 -35 -48 -73.5t-45 -77.5t-37.5 -75t-26.5 -64q89 -11 119 -55.5t17 -115.5q-14 -80 -75 -123.5t-174 -43.5z" />
    <glyph glyph-name="quotedblright" unicode="&#x201d;" horiz-adv-x="1049" 
d="M522 1444q115 0 161 -45.5t32 -126.5l-2 -8q-12 -77 -44 -152t-75 -143t-94.5 -126t-102.5 -100l-144 73q24 34 47.5 73t44.5 78t37.5 74.5t25.5 64.5q-44 5 -73 19t-45 36t-19.5 51t2.5 65q14 80 75.5 123.5t173.5 43.5zM1021 1444q115 0 161 -45.5t32 -126.5l-2 -8
q-12 -77 -44 -152t-75 -143t-94.5 -126t-102.5 -100l-144 73q24 34 47.5 73t44.5 78t37.5 74.5t25.5 64.5q-44 5 -73 19t-45 36t-19.5 51t2.5 65q14 80 75.5 123.5t173.5 43.5z" />
    <glyph glyph-name="quotedblbase" unicode="&#x201e;" horiz-adv-x="1095" 
d="M344 297q115 0 161 -45.5t32 -126.5l-2 -8q-12 -77 -44 -152t-75 -143t-94.5 -126t-102.5 -100l-144 73q24 34 47.5 73t44.5 78t37.5 74.5t25.5 64.5q-44 5 -73 19t-45 36t-19.5 51t2.5 65q14 80 75.5 123.5t173.5 43.5zM850 297q115 0 161 -45.5t32 -126.5l-2 -8
q-12 -77 -44 -152t-75 -143t-94.5 -126t-102.5 -100l-144 73q24 34 47.5 73t44.5 78t37.5 74.5t25.5 64.5q-44 5 -73 19t-45 36t-19.5 51t2.5 65q14 80 75.5 123.5t173.5 43.5z" />
    <glyph glyph-name="bullet" unicode="&#x2022;" horiz-adv-x="568" 
d="M409 793q115 0 161 -45.5t32 -126.5q-14 -80 -74.5 -125t-172.5 -45q-62 0 -103 12t-63.5 34.5t-29 55t1.5 73.5q14 80 75 123.5t173 43.5z" />
    <glyph glyph-name="ellipsis" unicode="&#x2026;" horiz-adv-x="1555" 
d="M321 251q92 0 128.5 -36t24.5 -102q-11 -65 -59 -100.5t-138 -35.5q-94 0 -130.5 36.5t-24.5 102.5q11 66 60 100.5t139 34.5zM814 251q92 0 128.5 -36t24.5 -102q-11 -65 -59.5 -100.5t-137.5 -35.5q-94 0 -130.5 36.5t-24.5 102.5q11 66 60 100.5t139 34.5zM1316 251
q91 0 127.5 -36t24.5 -102q-11 -65 -59 -100.5t-138 -35.5q-93 0 -129.5 36.5t-24.5 102.5q11 66 60 100.5t139 34.5z" />
    <glyph glyph-name="guilsinglleft" unicode="&#x2039;" horiz-adv-x="766" 
d="M539 541l183 -340l-305 -160l-248 501l424 498l248 -160z" />
    <glyph glyph-name="guilsinglright" unicode="&#x203a;" horiz-adv-x="766" 
d="M231 880l304 160l249 -498l-425 -501l-248 160l302 340z" />
    <glyph glyph-name="Euro" unicode="&#x20ac;" horiz-adv-x="1495" 
d="M1155 634l-31 -175h-970l31 175h970zM208 762l31 175h970l-31 -175h-970zM756 689q-19 -108 -7.5 -183.5t50 -123t101.5 -69.5t147 -22q48 0 94 7.5t89 20t83 28t75 31.5l66 -262q-50 -29 -115 -54.5t-136 -44.5t-143.5 -30t-136.5 -11q-91 0 -174 14t-152 46.5
t-122 85.5t-83.5 131.5t-36.5 185t19 245.5q25 141 69 250.5t103 191.5t131 138.5t153 91t169 50t179 15.5q72 0 142 -11.5t133 -31t116 -45t90 -53.5l-156 -262q-62 34 -139 61t-173 27q-86 0 -157.5 -22.5t-126.5 -72.5t-93 -129.5t-58 -192.5z" />
    <glyph glyph-name="trademark" unicode="&#x2122;" horiz-adv-x="1747" 
d="M314 1267l30 172h573l-30 -172h-173l-93 -528h-197l93 528h-203zM856 739l154 700h272l44 -458l209 458h270l-93 -700h-198l70 469l-194 -446h-204l-42 445l-95 -468h-193z" />
    <glyph glyph-name="dagger" unicode="&#x2020;" horiz-adv-x="958" 
d="M212 1030h269l82 467h358l-82 -467h271l-60 -342h-271l-196 -1108h-358l196 1108h-269z" />
    <glyph glyph-name="daggerdbl" unicode="&#x2021;" horiz-adv-x="958" 
d="M212 1030h269l82 467h358l-82 -467h271l-60 -342h-271l-31 -177h271l-61 -342h-271l-104 -589h-358l104 589h-269l61 342h269l31 177h-269z" />
    <glyph glyph-name="perthousand" unicode="&#x2030;" horiz-adv-x="2673" 
d="M1300 391q20 114 63 193.5t102 129.5t129.5 73t146.5 23q49 0 93.5 -9.5t81.5 -30t64.5 -52t44.5 -75.5q65 89 153.5 128t188.5 39q76 0 138.5 -23t104 -73t56 -129.5t-5.5 -193.5t-63 -194t-101.5 -129.5t-129 -72t-146.5 -22.5q-50 0 -94 9.5t-81 29.5t-65 51t-44 75
q-65 -88 -153.5 -126.5t-188.5 -38.5q-76 0 -138.5 22.5t-104 72t-56.5 129.5t5 194zM584 0l732 1396h372l-731 -1396h-373zM258 1003q20 114 63 193.5t102 129.5t129.5 72.5t146.5 22.5t139 -22.5t104.5 -72.5t56 -129.5t-5.5 -193.5t-63 -194t-101.5 -129.5t-129.5 -72
t-147 -22.5t-138.5 22.5t-104 72t-56.5 129.5t5 194zM2194 392q-9 -51 -10.5 -86.5t6 -57.5t25 -32t46.5 -10q28 0 49 10t36.5 32t27 57.5t20.5 86.5q18 102 3.5 143.5t-71.5 41.5q-29 0 -50 -10t-36 -31.5t-26 -57t-20 -86.5zM1569 392q-9 -51 -10.5 -86.5t6 -57.5t25 -32
t45.5 -10t49 10t37 32t27.5 57.5t20.5 86.5q18 102 3 143.5t-72 41.5q-29 0 -49.5 -10t-35.5 -31.5t-26 -57t-20 -86.5zM526 1003q-18 -102 -3.5 -143.5t70.5 -41.5q28 0 49 10t37 31.5t27 57t20 86.5t10.5 86.5t-6.5 57.5t-26 31.5t-46 9.5q-29 0 -49.5 -9.5t-35.5 -31.5
t-26.5 -57.5t-20.5 -86.5z" />
    <glyph glyph-name="hungarumlaut" unicode="&#x2dd;" horiz-adv-x="750" 
d="M203 1140l281 363l245 -145l-371 -319zM657 1140l282 363l245 -145l-371 -319z" />
    <glyph glyph-name=".Dot" horiz-adv-x="79" 
d="M158 1006q7 38 28 72t51.5 59t68.5 39.5t78 14.5t73 -14.5t55.5 -39.5t32.5 -59t3 -72t-29 -71.5t-53.5 -58.5t-69.5 -39.5t-78 -14.5t-72.5 14.5t-54.5 39.5t-31 58.5t-2 71.5zM659 991q7 38 28 72t52 59t68.5 39.5t77.5 14.5t72 -14.5t52.5 -39.5t29 -59t1.5 -72
t-25.5 -63t-46.5 -40t-63.5 -21.5t-75.5 -6.5t-74 6.5t-57.5 21.5t-34.5 40t-4 63z" />
    <glyph glyph-name=".dot" horiz-adv-x="5" 
d="M200 566q7 37 27.5 69.5t49.5 56.5t65.5 38t74.5 14t70 -14t53.5 -38t31 -56.5t2.5 -69.5q-6 -36 -27 -68t-51 -56t-67 -38t-75 -14t-69.5 14t-52.5 38t-29.5 56t-2.5 68zM701 545q7 38 28 71.5t51.5 58.5t68 39.5t77.5 14.5t69.5 -14.5t47.5 -39.5t24 -58.5t-1 -71.5
t-22.5 -60.5t-40 -34t-57 -14.5t-72.5 -3t-74.5 3t-58.5 14.5t-35.5 34t-4.5 60.5z" />
    <glyph glyph-name="breve" unicode="&#x2d8;" horiz-adv-x="1792" 
d="M857 1148q-76 0 -127.5 14.5t-84.5 38t-51 53.5t-26.5 60.5t-10.5 59t-4 49.5l222 41q2 -23 5.5 -45t15 -38.5t34 -26.5t62.5 -10t65.5 10t42 26.5t27 38t21.5 44.5l208 -40q-9 -21 -21 -49.5t-31 -59t-47.5 -60.5t-70 -53.5t-98 -38t-131.5 -14.5z" />
    <glyph glyph-name="caron" unicode="&#x2c7;" horiz-adv-x="947" 
d="M686 1338l139 142l286 -71l-273 -242h-363l-187 246l313 66z" />
    <glyph glyph-name="dotaccent" unicode="&#x2d9;" horiz-adv-x="1046" 
d="M658 1423q92 0 128.5 -36t25.5 -102q-11 -65 -59 -101t-137 -36q-94 0 -130.5 37t-24.5 103q11 65 59.5 100t137.5 35z" />
    <glyph glyph-name="ogonek" unicode="&#x2db;" horiz-adv-x="670" 
d="M454 -418q-45 -16 -97.5 -23t-109.5 -7q-134 0 -199 55t-48 152q7 40 26 75t46 64.5t59.5 53.5t65.5 44h210q-34 -27 -61.5 -49t-47.5 -43t-32.5 -43.5t-17.5 -50.5q-5 -27 1.5 -44.5t20.5 -28.5t32.5 -15.5t37.5 -4.5q23 0 48.5 2t48.5 8z" />
    <glyph glyph-name="ring" unicode="&#x2da;" horiz-adv-x="1046" 
d="M875 1388q-70 0 -81 -56q-11 -59 64 -59q36 0 54.5 15.5t23.5 41.5q10 58 -61 58zM896 1510q117 0 164 -46.5t32 -133.5q-15 -84 -77 -131.5t-177 -47.5q-118 0 -166 47.5t-32 135.5q15 86 79 131t177 45z" />
    <glyph glyph-name="aacute" unicode="&#xe1;" horiz-adv-x="1215" 
d="M130 487q26 149 85.5 257t148.5 178.5t206 104.5t260 34q62 0 124.5 -9.5t119.5 -25t107 -35.5t88 -42l-167 -949h-329l-21 110q-22 -18 -54 -41t-72 -44t-88 -35t-101 -14q-95 0 -162.5 36t-106.5 102.5t-49 161t11 211.5zM499 509q-11 -65 -5 -110t24.5 -73.5t47 -41
t63.5 -12.5q42 0 83.5 15.5t73.5 36.5l74 420q-14 5 -45.5 12.5t-81.5 7.5q-44 0 -81.5 -14.5t-67.5 -45t-51.5 -79t-33.5 -116.5zM753 1255l282 363l247 -149l-370 -318z" />
    <glyph glyph-name="Aacute" unicode="&#xc1;" horiz-adv-x="1510" 
d="M1060 -10q-2 60 -4.5 124.5t-6.5 133.5h-501q-32 -76 -58 -142t-45 -116l-404 10q22 58 56 137.5t76 171.5t90 193.5t99 204t103.5 202.5t102.5 190t96 166.5t85 130.5h504q18 -48 37 -120t37 -159.5t35 -187t32 -202.5t28 -206.5t22.5 -198t15.5 -177.5t8 -145z
M933 1081q-29 -53 -60.5 -115t-64 -130t-65.5 -140t-65 -144h349q-13 137 -30 270.5t-40 258.5h-24zM934 1609l282 363l247 -149l-370 -318z" />
    <glyph glyph-name="Abreve" unicode="&#x102;" horiz-adv-x="1510" 
d="M1060 -10q-2 60 -4.5 124.5t-6.5 133.5h-501q-32 -76 -58 -142t-45 -116l-404 10q22 58 56 137.5t76 171.5t90 193.5t99 204t103.5 202.5t102.5 190t96 166.5t85 130.5h504q18 -48 37 -120t37 -159.5t35 -187t32 -202.5t28 -206.5t22.5 -198t15.5 -177.5t8 -145z
M933 1081q-29 -53 -60.5 -115t-64 -130t-65.5 -140t-65 -144h349q-13 137 -30 270.5t-40 258.5h-24zM1067 1577q-76 0 -127.5 14.5t-84.5 38t-51 53.5t-26.5 60.5t-10.5 59t-4 49.5l222 41q2 -23 5.5 -45t15 -38.5t34 -26.5t62.5 -10t65.5 10t42 26.5t27 38t21.5 44.5
l208 -40q-9 -21 -21 -49.5t-31 -59t-47.5 -60.5t-70 -53.5t-98 -38t-131.5 -14.5z" />
    <glyph glyph-name="Acircumflex" unicode="&#xc2;" horiz-adv-x="1510" 
d="M1060 -10q-2 60 -4.5 124.5t-6.5 133.5h-501q-32 -76 -58 -142t-45 -116l-404 10q22 58 56 137.5t76 171.5t90 193.5t99 204t103.5 202.5t102.5 190t96 166.5t85 130.5h504q18 -48 37 -120t37 -159.5t35 -187t32 -202.5t28 -206.5t22.5 -198t15.5 -177.5t8 -145z
M933 1081q-29 -53 -60.5 -115t-64 -130t-65.5 -140t-65 -144h349q-13 137 -30 270.5t-40 258.5h-24zM842 1520l-226 61l277 272h363l178 -272l-250 -62l-143 162z" />
    <glyph glyph-name="Agrave" unicode="&#xc0;" horiz-adv-x="1510" 
d="M1060 -10q-2 60 -4.5 124.5t-6.5 133.5h-501q-32 -76 -58 -142t-45 -116l-404 10q22 58 56 137.5t76 171.5t90 193.5t99 204t103.5 202.5t102.5 190t96 166.5t85 130.5h504q18 -48 37 -120t37 -159.5t35 -187t32 -202.5t28 -206.5t22.5 -198t15.5 -177.5t8 -145z
M933 1081q-29 -53 -60.5 -115t-64 -130t-65.5 -140t-65 -144h349q-13 137 -30 270.5t-40 258.5h-24zM974 1497l-258 318l300 149l153 -363z" />
    <glyph glyph-name="Adieresis" unicode="&#xc4;" horiz-adv-x="1510" 
d="M1060 -10q-2 60 -4.5 124.5t-6.5 133.5h-501q-32 -76 -58 -142t-45 -116l-404 10q22 58 56 137.5t76 171.5t90 193.5t99 204t103.5 202.5t102.5 190t96 166.5t85 130.5h504q18 -48 37 -120t37 -159.5t35 -187t32 -202.5t28 -206.5t22.5 -198t15.5 -177.5t8 -145z
M933 1081q-29 -53 -60.5 -115t-64 -130t-65.5 -140t-65 -144h349q-13 137 -30 270.5t-40 258.5h-24zM855 1807q92 0 128.5 -36t25.5 -102q-11 -65 -59 -101t-137 -36q-94 0 -130.5 37t-24.5 103q11 65 59.5 100t137.5 35zM1306 1807q91 0 128 -36t26 -102q-11 -65 -60 -101
t-137 -36q-94 0 -130.5 37t-24.5 103q11 65 59.5 100t138.5 35z" />
    <glyph glyph-name="Amacron" unicode="&#x100;" horiz-adv-x="1510" 
d="M1060 -10q-2 60 -4.5 124.5t-6.5 133.5h-501q-32 -76 -58 -142t-45 -116l-404 10q22 58 56 137.5t76 171.5t90 193.5t99 204t103.5 202.5t102.5 190t96 166.5t85 130.5h504q18 -48 37 -120t37 -159.5t35 -187t32 -202.5t28 -206.5t22.5 -198t15.5 -177.5t8 -145z
M933 1081q-29 -53 -60.5 -115t-64 -130t-65.5 -140t-65 -144h349q-13 137 -30 270.5t-40 258.5h-24zM1380 1535h-713l41 232h713z" />
    <glyph glyph-name="Aogonek" unicode="&#x104;" horiz-adv-x="1510" 
d="M1060 -10q-2 60 -4.5 124.5t-6.5 133.5h-501q-32 -76 -58 -142t-45 -116l-404 10q22 58 56 137.5t76 171.5t90 193.5t99 204t103.5 202.5t102.5 190t96 166.5t85 130.5h504q18 -48 37 -120t37 -159.5t35 -187t32 -202.5t28 -206.5t22.5 -198t15.5 -177.5t8 -145z
M933 1081q-29 -53 -60.5 -115t-64 -130t-65.5 -140t-65 -144h349q-13 137 -30 270.5t-40 258.5h-24zM1521 -414q-45 -16 -97.5 -23t-109.5 -7q-134 0 -199 55t-48 152q7 40 26 75t46 64.5t59.5 53.5t65.5 44h210q-34 -27 -61.5 -49t-47.5 -43t-32.5 -43.5t-17.5 -50.5
q-5 -27 1.5 -44.5t20.5 -28.5t32.5 -15.5t37.5 -4.5q23 0 48.5 2t48.5 8z" />
    <glyph glyph-name="Aring" unicode="&#xc5;" horiz-adv-x="1510" 
d="M1060 -10q-2 60 -4.5 124.5t-6.5 133.5h-501q-32 -76 -58 -142t-45 -116l-404 10q22 58 56 137.5t76 171.5t90 193.5t99 204t103.5 202.5t102.5 190t96 166.5t85 130.5h504q18 -48 37 -120t37 -159.5t35 -187t32 -202.5t28 -206.5t22.5 -198t15.5 -177.5t8 -145z
M933 1081q-29 -53 -60.5 -115t-64 -130t-65.5 -140t-65 -144h349q-13 137 -30 270.5t-40 258.5h-24zM1065 1755q-70 0 -81 -56q-11 -59 64 -59q36 0 54.5 15.5t23.5 41.5q10 58 -61 58zM1086 1877q117 0 164 -46.5t32 -133.5q-15 -84 -77 -131.5t-177 -47.5
q-118 0 -166 47.5t-32 135.5q15 86 79 131t177 45z" />
    <glyph glyph-name="Atilde" unicode="&#xc3;" horiz-adv-x="1510" 
d="M1060 -10q-2 60 -4.5 124.5t-6.5 133.5h-501q-32 -76 -58 -142t-45 -116l-404 10q22 58 56 137.5t76 171.5t90 193.5t99 204t103.5 202.5t102.5 190t96 166.5t85 130.5h504q18 -48 37 -120t37 -159.5t35 -187t32 -202.5t28 -206.5t22.5 -198t15.5 -177.5t8 -145z
M933 1081q-29 -53 -60.5 -115t-64 -130t-65.5 -140t-65 -144h349q-13 137 -30 270.5t-40 258.5h-24zM578 1657q30 50 68 90.5t82 69t92.5 44t99.5 15.5q50 0 89.5 -12t73 -27t65 -27t66.5 -12q24 0 40 3t29.5 10.5t27 20t31.5 32.5l163 -109q-33 -58 -75.5 -99.5
t-87.5 -67.5t-89 -38.5t-79 -12.5q-50 0 -89 12t-73.5 27t-67 27t-68.5 12q-27 0 -44.5 -4t-32 -12.5t-27.5 -21t-29 -28.5z" />
    <glyph glyph-name="Cacute" unicode="&#x106;" horiz-adv-x="1317" 
d="M570 689q-19 -108 -7.5 -183.5t50 -123t101.5 -69.5t147 -22q48 0 94 7.5t89 20t83 28t75 31.5l66 -262q-50 -29 -115 -54.5t-136 -44.5t-143.5 -30t-136.5 -11q-91 0 -174 14t-152 46.5t-122 85.5t-83.5 131.5t-36.5 185t19 245.5q25 141 69 250.5t103 191.5t131 138.5
t153 91t169 50t179 15.5q72 0 142 -11.5t133 -31t116 -45t90 -53.5l-156 -262q-62 34 -139 61t-173 27q-86 0 -157.5 -22.5t-126.5 -72.5t-93 -129.5t-58 -192.5zM916 1621l282 363l247 -149l-370 -318z" />
    <glyph glyph-name="Ccaron" unicode="&#x10c;" horiz-adv-x="1317" 
d="M570 689q-19 -108 -7.5 -183.5t50 -123t101.5 -69.5t147 -22q48 0 94 7.5t89 20t83 28t75 31.5l66 -262q-50 -29 -115 -54.5t-136 -44.5t-143.5 -30t-136.5 -11q-91 0 -174 14t-152 46.5t-122 85.5t-83.5 131.5t-36.5 185t19 245.5q25 141 69 250.5t103 191.5t131 138.5
t153 91t169 50t179 15.5q72 0 142 -11.5t133 -31t116 -45t90 -53.5l-156 -262q-62 34 -139 61t-173 27q-86 0 -157.5 -22.5t-126.5 -72.5t-93 -129.5t-58 -192.5zM1035 1700l139 142l286 -71l-273 -242h-363l-187 246l313 66z" />
    <glyph glyph-name="Ccedilla" unicode="&#xc7;" horiz-adv-x="1317" 
d="M570 689q-19 -108 -7.5 -183.5t50 -123t101.5 -69.5t147 -22q48 0 94 7.5t89 20t83 28t75 31.5l66 -262q-50 -29 -115 -54.5t-136 -44.5t-143.5 -30t-136.5 -11q-91 0 -174 14t-152 46.5t-122 85.5t-83.5 131.5t-36.5 185t19 245.5q25 141 69 250.5t103 191.5t131 138.5
t153 91t169 50t179 15.5q72 0 142 -11.5t133 -31t116 -45t90 -53.5l-156 -262q-62 34 -139 61t-173 27q-86 0 -157.5 -22.5t-126.5 -72.5t-93 -129.5t-58 -192.5zM493 -274q22 -6 47 -8.5t48 -2.5q19 0 38.5 3.5t35.5 11t27.5 20t14.5 30.5q3 20 -2.5 32.5t-19 19.5
t-33.5 9.5t-45 2.5q-14 0 -33.5 -1.5t-39.5 -5.5l99 163h233l-51 -76q63 -11 97.5 -54.5t21.5 -117.5q-17 -97 -96 -149.5t-213 -52.5q-57 0 -107 7.5t-88 23.5z" />
    <glyph glyph-name="Ccircumflex" unicode="&#x108;" horiz-adv-x="1317" 
d="M570 689q-19 -108 -7.5 -183.5t50 -123t101.5 -69.5t147 -22q48 0 94 7.5t89 20t83 28t75 31.5l66 -262q-50 -29 -115 -54.5t-136 -44.5t-143.5 -30t-136.5 -11q-91 0 -174 14t-152 46.5t-122 85.5t-83.5 131.5t-36.5 185t19 245.5q25 141 69 250.5t103 191.5t131 138.5
t153 91t169 50t179 15.5q72 0 142 -11.5t133 -31t116 -45t90 -53.5l-156 -262q-62 34 -139 61t-173 27q-86 0 -157.5 -22.5t-126.5 -72.5t-93 -129.5t-58 -192.5zM819 1490l-226 61l277 272h363l178 -272l-250 -62l-143 162z" />
    <glyph glyph-name="Cdotaccent" unicode="&#x10a;" horiz-adv-x="1317" 
d="M570 689q-19 -108 -7.5 -183.5t50 -123t101.5 -69.5t147 -22q48 0 94 7.5t89 20t83 28t75 31.5l66 -262q-50 -29 -115 -54.5t-136 -44.5t-143.5 -30t-136.5 -11q-91 0 -174 14t-152 46.5t-122 85.5t-83.5 131.5t-36.5 185t19 245.5q25 141 69 250.5t103 191.5t131 138.5
t153 91t169 50t179 15.5q72 0 142 -11.5t133 -31t116 -45t90 -53.5l-156 -262q-62 34 -139 61t-173 27q-86 0 -157.5 -22.5t-126.5 -72.5t-93 -129.5t-58 -192.5zM1084 1827q92 0 128.5 -36t25.5 -102q-11 -65 -59 -101t-137 -36q-94 0 -130.5 37t-24.5 103q11 65 59.5 100
t137.5 35z" />
    <glyph glyph-name="Dcaron" unicode="&#x10e;" horiz-adv-x="1474" 
d="M150 0l246 1396h531q91 0 178.5 -13.5t163.5 -45t137 -82.5t99.5 -125t50 -173.5t-11.5 -227.5q-35 -196 -107.5 -334.5t-180.5 -226t-251 -128t-318 -40.5h-537zM596 315h162q75 0 140.5 22.5t117 70t88.5 122t55 178.5q32 180 -31 276.5t-212 96.5h-185zM905 1685
l139 142l286 -71l-273 -242h-363l-187 246l313 66z" />
    <glyph glyph-name="Dcroat" unicode="&#x110;" horiz-adv-x="1474" 
d="M758 579h-686l41 232h686zM150 0l246 1396h531q91 0 178.5 -13.5t163.5 -45t137 -82.5t99.5 -125t50 -173.5t-11.5 -227.5q-35 -196 -107.5 -334.5t-180.5 -226t-251 -128t-318 -40.5h-537zM596 315h162q75 0 140.5 22.5t117 70t88.5 122t55 178.5q32 180 -31 276.5
t-212 96.5h-185z" />
    <glyph glyph-name="Eacute" unicode="&#xc9;" horiz-adv-x="1217" 
d="M150 0l246 1396h963l-56 -315h-573l-40 -230h488l-52 -293h-488l-43 -243h596l-55 -315h-986zM791 1586l282 363l247 -149l-370 -318z" />
    <glyph glyph-name="Ebreve" unicode="&#x114;" horiz-adv-x="1217" 
d="M150 0l246 1396h963l-56 -315h-573l-40 -230h488l-52 -293h-488l-43 -243h596l-55 -315h-986zM918 1525q-76 0 -127.5 14.5t-84.5 38t-51 53.5t-26.5 60.5t-10.5 59t-4 49.5l222 41q2 -23 5.5 -45t15 -38.5t34 -26.5t62.5 -10t65.5 10t42 26.5t27 38t21.5 44.5l208 -40
q-9 -21 -21 -49.5t-31 -59t-47.5 -60.5t-70 -53.5t-98 -38t-131.5 -14.5z" />
    <glyph glyph-name="Ecaron" unicode="&#x11a;" horiz-adv-x="1217" 
d="M150 0l246 1396h963l-56 -315h-573l-40 -230h488l-52 -293h-488l-43 -243h596l-55 -315h-986zM943 1698l139 142l286 -71l-273 -242h-363l-187 246l313 66z" />
    <glyph glyph-name="Ecircumflex" unicode="&#xca;" horiz-adv-x="1217" 
d="M150 0l246 1396h963l-56 -315h-573l-40 -230h488l-52 -293h-488l-43 -243h596l-55 -315h-986zM731 1500l-226 61l277 272h363l178 -272l-250 -62l-143 162z" />
    <glyph glyph-name="Edieresis" unicode="&#xcb;" horiz-adv-x="1217" 
d="M150 0l246 1396h963l-56 -315h-573l-40 -230h488l-52 -293h-488l-43 -243h596l-55 -315h-986zM751 1820q92 0 128.5 -36t25.5 -102q-11 -65 -59 -101t-137 -36q-94 0 -130.5 37t-24.5 103q11 65 59.5 100t137.5 35zM1202 1820q91 0 128 -36t26 -102q-11 -65 -60 -101
t-137 -36q-94 0 -130.5 37t-24.5 103q11 65 59.5 100t138.5 35z" />
    <glyph glyph-name="Edotaccent" unicode="&#x116;" horiz-adv-x="1217" 
d="M150 0l246 1396h963l-56 -315h-573l-40 -230h488l-52 -293h-488l-43 -243h596l-55 -315h-986zM975 1811q92 0 128.5 -36t25.5 -102q-11 -65 -59 -101t-137 -36q-94 0 -130.5 37t-24.5 103q11 65 59.5 100t137.5 35z" />
    <glyph glyph-name="Egrave" unicode="&#xc8;" horiz-adv-x="1217" 
d="M150 0l246 1396h963l-56 -315h-573l-40 -230h488l-52 -293h-488l-43 -243h596l-55 -315h-986zM827 1487l-258 318l300 149l153 -363z" />
    <glyph glyph-name="Emacron" unicode="&#x112;" horiz-adv-x="1217" 
d="M150 0l246 1396h963l-56 -315h-573l-40 -230h488l-52 -293h-488l-43 -243h596l-55 -315h-986zM1283 1542h-713l41 232h713z" />
    <glyph glyph-name="Eogonek" unicode="&#x118;" horiz-adv-x="1217" 
d="M150 0l246 1396h963l-56 -315h-573l-40 -230h488l-52 -293h-488l-43 -243h596l-55 -315h-986zM1181 -414q-45 -16 -97.5 -23t-109.5 -7q-134 0 -199 55t-48 152q7 40 26 75t46 64.5t59.5 53.5t65.5 44h210q-34 -27 -61.5 -49t-47.5 -43t-32.5 -43.5t-17.5 -50.5
q-5 -27 1.5 -44.5t20.5 -28.5t32.5 -15.5t37.5 -4.5q23 0 48.5 2t48.5 8z" />
    <glyph glyph-name="Gbreve" unicode="&#x11e;" horiz-adv-x="1398" 
d="M191 699q64 364 272 543t550 179q76 0 146.5 -10.5t131.5 -26.5t110 -35.5t83 -38.5l-157 -270q-35 15 -77.5 27t-88.5 21t-93 13.5t-90 4.5q-75 0 -141.5 -25.5t-119 -75t-89.5 -123.5t-54 -171q-18 -104 -10.5 -182t38 -131t83 -79.5t124.5 -26.5q38 0 75.5 3t63.5 10
l68 386h366l-113 -640q-57 -19 -123.5 -33t-136 -23.5t-139 -14t-132.5 -4.5q-166 0 -284.5 43t-188 131.5t-88.5 225t14 323.5zM1029 1530q-76 0 -127.5 14.5t-84.5 38t-51 53.5t-26.5 60.5t-10.5 59t-4 49.5l222 41q2 -23 5.5 -45t15 -38.5t34 -26.5t62.5 -10t65.5 10
t42 26.5t27 38t21.5 44.5l208 -40q-9 -21 -21 -49.5t-31 -59t-47.5 -60.5t-70 -53.5t-98 -38t-131.5 -14.5z" />
    <glyph glyph-name="Gcircumflex" unicode="&#x11c;" horiz-adv-x="1398" 
d="M191 699q64 364 272 543t550 179q76 0 146.5 -10.5t131.5 -26.5t110 -35.5t83 -38.5l-157 -270q-35 15 -77.5 27t-88.5 21t-93 13.5t-90 4.5q-75 0 -141.5 -25.5t-119 -75t-89.5 -123.5t-54 -171q-18 -104 -10.5 -182t38 -131t83 -79.5t124.5 -26.5q38 0 75.5 3t63.5 10
l68 386h366l-113 -640q-57 -19 -123.5 -33t-136 -23.5t-139 -14t-132.5 -4.5q-166 0 -284.5 43t-188 131.5t-88.5 225t14 323.5zM831 1487l-226 61l277 272h363l178 -272l-250 -62l-143 162z" />
    <glyph glyph-name="Gcommaaccent" unicode="&#x122;" horiz-adv-x="1398" 
d="M191 699q64 364 272 543t550 179q76 0 146.5 -10.5t131.5 -26.5t110 -35.5t83 -38.5l-157 -270q-35 15 -77.5 27t-88.5 21t-93 13.5t-90 4.5q-75 0 -141.5 -25.5t-119 -75t-89.5 -123.5t-54 -171q-18 -104 -10.5 -182t38 -131t83 -79.5t124.5 -26.5q38 0 75.5 3t63.5 10
l68 386h366l-113 -640q-57 -19 -123.5 -33t-136 -23.5t-139 -14t-132.5 -4.5q-166 0 -284.5 43t-188 131.5t-88.5 225t14 323.5zM686 -127q115 0 161 -45.5t32 -126.5l-2 -8q-12 -77 -44 -152t-75 -143t-94.5 -126t-102.5 -100l-144 73q24 34 47.5 73t44.5 78t37.5 74.5
t25.5 64.5q-44 5 -73 19t-45 36t-19.5 51t2.5 65q14 80 75.5 123.5t173.5 43.5z" />
    <glyph glyph-name="Gdotaccent" unicode="&#x120;" horiz-adv-x="1398" 
d="M191 699q64 364 272 543t550 179q76 0 146.5 -10.5t131.5 -26.5t110 -35.5t83 -38.5l-157 -270q-35 15 -77.5 27t-88.5 21t-93 13.5t-90 4.5q-75 0 -141.5 -25.5t-119 -75t-89.5 -123.5t-54 -171q-18 -104 -10.5 -182t38 -131t83 -79.5t124.5 -26.5q38 0 75.5 3t63.5 10
l68 386h366l-113 -640q-57 -19 -123.5 -33t-136 -23.5t-139 -14t-132.5 -4.5q-166 0 -284.5 43t-188 131.5t-88.5 225t14 323.5zM1071 1826q92 0 128.5 -36t25.5 -102q-11 -65 -59 -101t-137 -36q-94 0 -130.5 37t-24.5 103q11 65 59.5 100t137.5 35z" />
    <glyph glyph-name="Hbar" unicode="&#x126;" horiz-adv-x="1577" 
d="M150 0l246 1396h390l-19 -105h491l19 105h393l-246 -1396h-393l96 546h-491l-96 -546h-390zM1182 862l30 168h-491l-30 -168h491z" />
    <glyph glyph-name="Hcircumflex" unicode="&#x124;" horiz-adv-x="1577" 
d="M150 0l246 1396h390l-95 -534h491l95 534h393l-246 -1396h-393l96 546h-491l-96 -546h-390zM863 1484l-226 61l277 272h363l178 -272l-250 -62l-143 162z" />
    <glyph glyph-name="Iacute" unicode="&#xcd;" horiz-adv-x="692" 
d="M150 0l246 1396h390l-246 -1396h-390zM516 1599l282 363l247 -149l-370 -318z" />
    <glyph glyph-name="Ibreve" unicode="&#x12c;" horiz-adv-x="692" 
d="M150 0l246 1396h390l-246 -1396h-390zM630 1546q-76 0 -127.5 14.5t-84.5 38t-51 53.5t-26.5 60.5t-10.5 59t-4 49.5l222 41q2 -23 5.5 -45t15 -38.5t34 -26.5t62.5 -10t65.5 10t42 26.5t27 38t21.5 44.5l208 -40q-9 -21 -21 -49.5t-31 -59t-47.5 -60.5t-70 -53.5
t-98 -38t-131.5 -14.5z" />
    <glyph glyph-name="Icircumflex" unicode="&#xce;" horiz-adv-x="692" 
d="M150 0l246 1396h390l-246 -1396h-390zM444 1521l-226 61l277 272h363l178 -272l-250 -62l-143 162z" />
    <glyph glyph-name="Idieresis" unicode="&#xcf;" horiz-adv-x="692" 
d="M150 0l246 1396h390l-246 -1396h-390zM451 1845q92 0 128.5 -36t25.5 -102q-11 -65 -59 -101t-137 -36q-94 0 -130.5 37t-24.5 103q11 65 59.5 100t137.5 35zM902 1845q91 0 128 -36t26 -102q-11 -65 -60 -101t-137 -36q-94 0 -130.5 37t-24.5 103q11 65 59.5 100
t138.5 35z" />
    <glyph glyph-name="Idotaccent" unicode="&#x130;" horiz-adv-x="692" 
d="M150 0l246 1396h390l-246 -1396h-390zM662 1822q92 0 128.5 -36t25.5 -102q-11 -65 -59 -101t-137 -36q-94 0 -130.5 37t-24.5 103q11 65 59.5 100t137.5 35z" />
    <glyph glyph-name="Igrave" unicode="&#xcc;" horiz-adv-x="692" 
d="M150 0l246 1396h390l-246 -1396h-390zM539 1498l-258 318l300 149l153 -363z" />
    <glyph glyph-name="Imacron" unicode="&#x12a;" horiz-adv-x="692" 
d="M150 0l246 1396h390l-246 -1396h-390zM970 1553h-713l41 232h713z" />
    <glyph glyph-name="Iogonek" unicode="&#x12e;" horiz-adv-x="692" 
d="M150 0l246 1396h390l-246 -1396h-390zM498 -414q-45 -16 -97.5 -23t-109.5 -7q-134 0 -199 55t-48 152q7 40 26 75t46 64.5t59.5 53.5t65.5 44h210q-34 -27 -61.5 -49t-47.5 -43t-32.5 -43.5t-17.5 -50.5q-5 -27 1.5 -44.5t20.5 -28.5t32.5 -15.5t37.5 -4.5q23 0 48.5 2
t48.5 8z" />
    <glyph glyph-name="Itilde" unicode="&#x128;" horiz-adv-x="692" 
d="M150 0l246 1396h390l-246 -1396h-390zM183 1643q30 50 68 90.5t82 69t92.5 44t99.5 15.5q50 0 89.5 -12t73 -27t65 -27t66.5 -12q24 0 40 3t29.5 10.5t27 20t31.5 32.5l163 -109q-33 -58 -75.5 -99.5t-87.5 -67.5t-89 -38.5t-79 -12.5q-50 0 -89 12t-73.5 27t-67 27
t-68.5 12q-27 0 -44.5 -4t-32 -12.5t-27.5 -21t-29 -28.5z" />
    <glyph glyph-name="Jcircumflex" unicode="&#x134;" horiz-adv-x="897" 
d="M824 441q-20 -115 -57 -202t-94 -145.5t-136.5 -88t-184.5 -29.5q-89 0 -173 20t-145 47l107 281q15 -6 34 -12t39.5 -10.5t41.5 -7.5t40 -3q33 0 56.5 10.5t39.5 30t26 48t16 63.5l168 953h391zM643 1468l-226 61l277 272h363l178 -272l-250 -62l-143 162z" />
    <glyph glyph-name="Kcommaaccent" unicode="&#x136;" horiz-adv-x="1410" 
d="M150 0l246 1396h390l-90 -509q76 58 142.5 116.5t125 120.5t109.5 129.5t96 142.5h421q-44 -80 -101 -161.5t-123 -160.5t-139 -154.5t-150 -142.5q25 -74 64.5 -162t89 -178t107 -176t118.5 -158l-322 -193q-53 53 -107.5 128.5t-104 161.5t-91 176.5t-68.5 173.5
q-35 -20 -69.5 -37.5t-69.5 -31.5l-84 -481h-390zM622 -51q115 0 161 -45.5t32 -126.5l-2 -8q-12 -77 -44 -152t-75 -143t-94.5 -126t-102.5 -100l-144 73q24 34 47.5 73t44.5 78t37.5 74.5t25.5 64.5q-44 5 -73 19t-45 36t-19.5 51t2.5 65q14 80 75.5 123.5t173.5 43.5z
" />
    <glyph glyph-name="Lacute" unicode="&#x139;" horiz-adv-x="1182" 
d="M150 0l246 1396h390l-191 -1081h558l-55 -315h-948zM514 1564l282 363l247 -149l-370 -318z" />
    <glyph glyph-name="Lcaron" unicode="&#x13d;" horiz-adv-x="1252" 
d="M150 0l246 1396h390l-191 -1081h558l-55 -315h-948zM1227 1397q115 0 161 -45.5t32 -126.5l-2 -8q-12 -77 -44 -152t-75 -143t-94.5 -126t-102.5 -100l-144 73q24 34 47.5 73t44.5 78t37.5 74.5t25.5 64.5q-44 5 -73 19t-45 36t-19.5 51t2.5 65q14 80 75.5 123.5
t173.5 43.5z" />
    <glyph glyph-name="Lcommaaccent" unicode="&#x13b;" horiz-adv-x="1182" 
d="M150 0l246 1396h390l-191 -1081h558l-55 -315h-948zM519 -74q115 0 161 -45.5t32 -126.5l-2 -8q-12 -77 -44 -152t-75 -143t-94.5 -126t-102.5 -100l-144 73q24 34 47.5 73t44.5 78t37.5 74.5t25.5 64.5q-44 5 -73 19t-45 36t-19.5 51t2.5 65q14 80 75.5 123.5
t173.5 43.5z" />
    <glyph glyph-name="Ldot" unicode="&#x13f;" horiz-adv-x="1182" 
d="M150 0l246 1396h390l-191 -1081h558l-55 -315h-948zM1080 902q92 0 128.5 -36t25.5 -102q-11 -65 -59 -101t-137 -36q-94 0 -130.5 37t-24.5 103q11 65 59.5 100t137.5 35z" />
    <glyph glyph-name="Lslash" unicode="&#x141;" horiz-adv-x="1182" 
d="M847 747l-699 -278l-54 214l697 277zM150 0l246 1396h390l-191 -1081h558l-55 -315h-948z" />
    <glyph glyph-name="Nacute" unicode="&#x143;" horiz-adv-x="1612" 
d="M939 1571l282 363l247 -149l-370 -318zM150 0l246 1396h407q33 -47 64.5 -110t62 -133.5t60.5 -145.5t60 -146.5t61.5 -136t64.5 -114.5h10l132 786h390l-246 -1396h-400q-38 51 -73 113.5t-67.5 131t-63 139.5t-60.5 137.5t-60.5 126t-62.5 105.5h-11l-124 -753h-390z
" />
    <glyph glyph-name="Ncaron" unicode="&#x147;" horiz-adv-x="1612" 
d="M1091 1701l139 142l286 -71l-273 -242h-363l-187 246l313 66zM150 0l246 1396h407q33 -47 64.5 -110t62 -133.5t60.5 -145.5t60 -146.5t61.5 -136t64.5 -114.5h10l132 786h390l-246 -1396h-400q-38 51 -73 113.5t-67.5 131t-63 139.5t-60.5 137.5t-60.5 126t-62.5 105.5
h-11l-124 -753h-390z" />
    <glyph glyph-name="Ncommaaccent" unicode="&#x145;" horiz-adv-x="1612" 
d="M150 0l246 1396h407q33 -47 64.5 -110t62 -133.5t60.5 -145.5t60 -146.5t61.5 -136t64.5 -114.5h10l132 786h390l-246 -1396h-400q-38 51 -73 113.5t-67.5 131t-63 139.5t-60.5 137.5t-60.5 126t-62.5 105.5h-11l-124 -753h-390zM716 -51q115 0 161 -45.5t32 -126.5
l-2 -8q-12 -77 -44 -152t-75 -143t-94.5 -126t-102.5 -100l-144 73q24 34 47.5 73t44.5 78t37.5 74.5t25.5 64.5q-44 5 -73 19t-45 36t-19.5 51t2.5 65q14 80 75.5 123.5t173.5 43.5z" />
    <glyph glyph-name="Ntilde" unicode="&#xd1;" horiz-adv-x="1612" 
d="M633 1641q30 50 68 90.5t82 69t92.5 44t99.5 15.5q50 0 89.5 -12t73 -27t65 -27t66.5 -12q24 0 40 3t29.5 10.5t27 20t31.5 32.5l163 -109q-33 -58 -75.5 -99.5t-87.5 -67.5t-89 -38.5t-79 -12.5q-50 0 -89 12t-73.5 27t-67 27t-68.5 12q-27 0 -44.5 -4t-32 -12.5
t-27.5 -21t-29 -28.5zM150 0l246 1396h407q33 -47 64.5 -110t62 -133.5t60.5 -145.5t60 -146.5t61.5 -136t64.5 -114.5h10l132 786h390l-246 -1396h-400q-38 51 -73 113.5t-67.5 131t-63 139.5t-60.5 137.5t-60.5 126t-62.5 105.5h-11l-124 -753h-390z" />
    <glyph glyph-name="Oacute" unicode="&#xd3;" horiz-adv-x="1575" 
d="M1629 695q-31 -168 -104 -302t-181.5 -227t-248.5 -142t-305 -48q-172 1 -299 51.5t-204.5 144t-103 226t5.5 297.5q32 168 104.5 302t181.5 228t252.5 144.5t317.5 51.5q168 1 291.5 -51t198.5 -147.5t99.5 -230t-5.5 -297.5zM988 1106q-86 0 -155.5 -32.5t-122 -88.5
t-88 -131t-52.5 -159q-16 -81 -7 -154.5t43 -129t93.5 -88t145.5 -32.5q77 0 144.5 30.5t120 84.5t89 128t51.5 161q15 83 5.5 157.5t-42 131t-89 89.5t-136.5 33zM987 1597l282 363l247 -149l-370 -318z" />
    <glyph glyph-name="Obreve" unicode="&#x14e;" horiz-adv-x="1575" 
d="M1629 695q-31 -168 -104 -302t-181.5 -227t-248.5 -142t-305 -48q-172 1 -299 51.5t-204.5 144t-103 226t5.5 297.5q32 168 104.5 302t181.5 228t252.5 144.5t317.5 51.5q168 1 291.5 -51t198.5 -147.5t99.5 -230t-5.5 -297.5zM988 1106q-86 0 -155.5 -32.5t-122 -88.5
t-88 -131t-52.5 -159q-16 -81 -7 -154.5t43 -129t93.5 -88t145.5 -32.5q77 0 144.5 30.5t120 84.5t89 128t51.5 161q15 83 5.5 157.5t-42 131t-89 89.5t-136.5 33zM1051 1517q-76 0 -127.5 14.5t-84.5 38t-51 53.5t-26.5 60.5t-10.5 59t-4 49.5l222 41q2 -23 5.5 -45
t15 -38.5t34 -26.5t62.5 -10t65.5 10t42 26.5t27 38t21.5 44.5l208 -40q-9 -21 -21 -49.5t-31 -59t-47.5 -60.5t-70 -53.5t-98 -38t-131.5 -14.5z" />
    <glyph glyph-name="Ocircumflex" unicode="&#xd4;" horiz-adv-x="1575" 
d="M1629 695q-31 -168 -104 -302t-181.5 -227t-248.5 -142t-305 -48q-172 1 -299 51.5t-204.5 144t-103 226t5.5 297.5q32 168 104.5 302t181.5 228t252.5 144.5t317.5 51.5q168 1 291.5 -51t198.5 -147.5t99.5 -230t-5.5 -297.5zM988 1106q-86 0 -155.5 -32.5t-122 -88.5
t-88 -131t-52.5 -159q-16 -81 -7 -154.5t43 -129t93.5 -88t145.5 -32.5q77 0 144.5 30.5t120 84.5t89 128t51.5 161q15 83 5.5 157.5t-42 131t-89 89.5t-136.5 33zM899 1491l-226 61l277 272h363l178 -272l-250 -62l-143 162z" />
    <glyph glyph-name="Odieresis" unicode="&#xd6;" horiz-adv-x="1575" 
d="M1629 695q-31 -168 -104 -302t-181.5 -227t-248.5 -142t-305 -48q-172 1 -299 51.5t-204.5 144t-103 226t5.5 297.5q32 168 104.5 302t181.5 228t252.5 144.5t317.5 51.5q168 1 291.5 -51t198.5 -147.5t99.5 -230t-5.5 -297.5zM988 1106q-86 0 -155.5 -32.5t-122 -88.5
t-88 -131t-52.5 -159q-16 -81 -7 -154.5t43 -129t93.5 -88t145.5 -32.5q77 0 144.5 30.5t120 84.5t89 128t51.5 161q15 83 5.5 157.5t-42 131t-89 89.5t-136.5 33zM871 1831q92 0 128.5 -36t25.5 -102q-11 -65 -59 -101t-137 -36q-94 0 -130.5 37t-24.5 103q11 65 59.5 100
t137.5 35zM1322 1831q91 0 128 -36t26 -102q-11 -65 -60 -101t-137 -36q-94 0 -130.5 37t-24.5 103q11 65 59.5 100t138.5 35z" />
    <glyph glyph-name="Ograve" unicode="&#xd2;" horiz-adv-x="1575" 
d="M1629 695q-31 -168 -104 -302t-181.5 -227t-248.5 -142t-305 -48q-172 1 -299 51.5t-204.5 144t-103 226t5.5 297.5q32 168 104.5 302t181.5 228t252.5 144.5t317.5 51.5q168 1 291.5 -51t198.5 -147.5t99.5 -230t-5.5 -297.5zM988 1106q-86 0 -155.5 -32.5t-122 -88.5
t-88 -131t-52.5 -159q-16 -81 -7 -154.5t43 -129t93.5 -88t145.5 -32.5q77 0 144.5 30.5t120 84.5t89 128t51.5 161q15 83 5.5 157.5t-42 131t-89 89.5t-136.5 33zM973 1504l-258 318l300 149l153 -363z" />
    <glyph glyph-name="Ohungarumlaut" unicode="&#x150;" horiz-adv-x="1575" 
d="M1629 695q-31 -168 -104 -302t-181.5 -227t-248.5 -142t-305 -48q-172 1 -299 51.5t-204.5 144t-103 226t5.5 297.5q32 168 104.5 302t181.5 228t252.5 144.5t317.5 51.5q168 1 291.5 -51t198.5 -147.5t99.5 -230t-5.5 -297.5zM988 1106q-86 0 -155.5 -32.5t-122 -88.5
t-88 -131t-52.5 -159q-16 -81 -7 -154.5t43 -129t93.5 -88t145.5 -32.5q77 0 144.5 30.5t120 84.5t89 128t51.5 161q15 83 5.5 157.5t-42 131t-89 89.5t-136.5 33zM732 1617l281 363l245 -145l-371 -319zM1186 1617l282 363l245 -145l-371 -319z" />
    <glyph glyph-name="Omacron" unicode="&#x14c;" horiz-adv-x="1575" 
d="M1629 695q-31 -168 -104 -302t-181.5 -227t-248.5 -142t-305 -48q-172 1 -299 51.5t-204.5 144t-103 226t5.5 297.5q32 168 104.5 302t181.5 228t252.5 144.5t317.5 51.5q168 1 291.5 -51t198.5 -147.5t99.5 -230t-5.5 -297.5zM988 1106q-86 0 -155.5 -32.5t-122 -88.5
t-88 -131t-52.5 -159q-16 -81 -7 -154.5t43 -129t93.5 -88t145.5 -32.5q77 0 144.5 30.5t120 84.5t89 128t51.5 161q15 83 5.5 157.5t-42 131t-89 89.5t-136.5 33zM1425 1560h-713l41 232h713z" />
    <glyph glyph-name="Otilde" unicode="&#xd5;" horiz-adv-x="1575" 
d="M1629 695q-31 -168 -104 -302t-181.5 -227t-248.5 -142t-305 -48q-172 1 -299 51.5t-204.5 144t-103 226t5.5 297.5q32 168 104.5 302t181.5 228t252.5 144.5t317.5 51.5q168 1 291.5 -51t198.5 -147.5t99.5 -230t-5.5 -297.5zM988 1106q-86 0 -155.5 -32.5t-122 -88.5
t-88 -131t-52.5 -159q-16 -81 -7 -154.5t43 -129t93.5 -88t145.5 -32.5q77 0 144.5 30.5t120 84.5t89 128t51.5 161q15 83 5.5 157.5t-42 131t-89 89.5t-136.5 33zM628 1652q30 50 68 90.5t82 69t92.5 44t99.5 15.5q50 0 89.5 -12t73 -27t65 -27t66.5 -12q24 0 40 3
t29.5 10.5t27 20t31.5 32.5l163 -109q-33 -58 -75.5 -99.5t-87.5 -67.5t-89 -38.5t-79 -12.5q-50 0 -89 12t-73.5 27t-67 27t-68.5 12q-27 0 -44.5 -4t-32 -12.5t-27.5 -21t-29 -28.5z" />
    <glyph glyph-name="R" unicode="R" horiz-adv-x="1373" 
d="M1036 -109q-45 47 -91 110t-88 132t-77.5 140.5t-59.5 135.5q-4 -1 -7.5 -1h-5.5h-96l-71 -408h-390l246 1396h561q101 0 196.5 -25t165.5 -78.5t104.5 -138t13.5 -203.5q-14 -82 -48 -148.5t-81.5 -119.5t-104 -94t-116.5 -71q48 -105 121 -218t161 -216zM665 712h132
q54 0 98 15.5t76 42.5t52 62.5t27 75.5q8 48 -2 82.5t-33 57t-56 33.5t-71 11h-156z" />
    <glyph glyph-name="Racute" unicode="&#x154;" horiz-adv-x="1373" 
d="M1036 -109q-45 47 -91 110t-88 132t-77.5 140.5t-59.5 135.5q-4 -1 -7.5 -1h-5.5h-96l-71 -408h-390l246 1396h561q101 0 196.5 -25t165.5 -78.5t104.5 -138t13.5 -203.5q-14 -82 -48 -148.5t-81.5 -119.5t-104 -94t-116.5 -71q48 -105 121 -218t161 -216zM665 712h132
q54 0 98 15.5t76 42.5t52 62.5t27 75.5q8 48 -2 82.5t-33 57t-56 33.5t-71 11h-156zM736 1586l282 363l247 -149l-370 -318z" />
    <glyph glyph-name="Rcaron" unicode="&#x158;" horiz-adv-x="1373" 
d="M1036 -109q-45 47 -91 110t-88 132t-77.5 140.5t-59.5 135.5q-4 -1 -7.5 -1h-5.5h-96l-71 -408h-390l246 1396h561q101 0 196.5 -25t165.5 -78.5t104.5 -138t13.5 -203.5q-14 -82 -48 -148.5t-81.5 -119.5t-104 -94t-116.5 -71q48 -105 121 -218t161 -216zM665 712h132
q54 0 98 15.5t76 42.5t52 62.5t27 75.5q8 48 -2 82.5t-33 57t-56 33.5t-71 11h-156zM917 1706l139 142l286 -71l-273 -242h-363l-187 246l313 66z" />
    <glyph glyph-name="Rcommaaccent" unicode="&#x156;" horiz-adv-x="1373" 
d="M1036 -109q-45 47 -91 110t-88 132t-77.5 140.5t-59.5 135.5q-4 -1 -7.5 -1h-5.5h-96l-71 -408h-390l246 1396h561q101 0 196.5 -25t165.5 -78.5t104.5 -138t13.5 -203.5q-14 -82 -48 -148.5t-81.5 -119.5t-104 -94t-116.5 -71q48 -105 121 -218t161 -216zM665 712h132
q54 0 98 15.5t76 42.5t52 62.5t27 75.5q8 48 -2 82.5t-33 57t-56 33.5t-71 11h-156zM612 -76q115 0 161 -45.5t32 -126.5l-2 -8q-12 -77 -44 -152t-75 -143t-94.5 -126t-102.5 -100l-144 73q24 34 47.5 73t44.5 78t37.5 74.5t25.5 64.5q-44 5 -73 19t-45 36t-19.5 51t2.5 65
q14 80 75.5 123.5t173.5 43.5z" />
    <glyph glyph-name="Sacute" unicode="&#x15a;" horiz-adv-x="1194" 
d="M224 392q60 -27 111 -46.5t97.5 -31.5t90 -17.5t89.5 -5.5q96 0 147.5 30.5t60.5 81.5q9 54 -42 89t-148 61q-97 25 -175 57.5t-129.5 79.5t-72.5 114t-4 163q19 106 67.5 190.5t127.5 143t189 89.5t253 31q52 0 112.5 -7.5t122 -23t120 -39t107.5 -54.5l-158 -263
q-71 32 -154 52t-164 20q-209 0 -227 -106q-5 -29 5 -50t35.5 -37t66 -30t94.5 -30q105 -29 180.5 -67.5t121.5 -90t62.5 -117t1.5 -147.5q-18 -106 -66 -190t-125 -143t-185 -90.5t-246 -31.5q-87 0 -160 9t-137 26.5t-121.5 42.5t-112.5 57zM886 1596l282 363l247 -149
l-370 -318z" />
    <glyph glyph-name="Scaron" unicode="&#x160;" horiz-adv-x="1194" 
d="M224 392q60 -27 111 -46.5t97.5 -31.5t90 -17.5t89.5 -5.5q96 0 147.5 30.5t60.5 81.5q9 54 -42 89t-148 61q-97 25 -175 57.5t-129.5 79.5t-72.5 114t-4 163q19 106 67.5 190.5t127.5 143t189 89.5t253 31q52 0 112.5 -7.5t122 -23t120 -39t107.5 -54.5l-158 -263
q-71 32 -154 52t-164 20q-209 0 -227 -106q-5 -29 5 -50t35.5 -37t66 -30t94.5 -30q105 -29 180.5 -67.5t121.5 -90t62.5 -117t1.5 -147.5q-18 -106 -66 -190t-125 -143t-185 -90.5t-246 -31.5q-87 0 -160 9t-137 26.5t-121.5 42.5t-112.5 57zM920 1693l139 142l286 -71
l-273 -242h-363l-187 246l313 66z" />
    <glyph glyph-name="Scedilla" unicode="&#x15e;" horiz-adv-x="1194" 
d="M224 392q60 -27 111 -46.5t97.5 -31.5t90 -17.5t89.5 -5.5q96 0 147.5 30.5t60.5 81.5q9 54 -42 89t-148 61q-97 25 -175 57.5t-129.5 79.5t-72.5 114t-4 163q19 106 67.5 190.5t127.5 143t189 89.5t253 31q52 0 112.5 -7.5t122 -23t120 -39t107.5 -54.5l-158 -263
q-71 32 -154 52t-164 20q-209 0 -227 -106q-5 -29 5 -50t35.5 -37t66 -30t94.5 -30q105 -29 180.5 -67.5t121.5 -90t62.5 -117t1.5 -147.5q-18 -106 -66 -190t-125 -143t-185 -90.5t-246 -31.5q-87 0 -160 9t-137 26.5t-121.5 42.5t-112.5 57zM364 -272q22 -6 47 -8.5
t48 -2.5q19 0 38.5 3.5t35.5 11t27.5 20t14.5 30.5q3 20 -2.5 32.5t-19 19.5t-33.5 9.5t-45 2.5q-14 0 -33.5 -1.5t-39.5 -5.5l99 163h233l-51 -76q63 -11 97.5 -54.5t21.5 -117.5q-17 -97 -96 -149.5t-213 -52.5q-57 0 -107 7.5t-88 23.5z" />
    <glyph glyph-name="Scircumflex" unicode="&#x15c;" horiz-adv-x="1194" 
d="M224 392q60 -27 111 -46.5t97.5 -31.5t90 -17.5t89.5 -5.5q96 0 147.5 30.5t60.5 81.5q9 54 -42 89t-148 61q-97 25 -175 57.5t-129.5 79.5t-72.5 114t-4 163q19 106 67.5 190.5t127.5 143t189 89.5t253 31q52 0 112.5 -7.5t122 -23t120 -39t107.5 -54.5l-158 -263
q-71 32 -154 52t-164 20q-209 0 -227 -106q-5 -29 5 -50t35.5 -37t66 -30t94.5 -30q105 -29 180.5 -67.5t121.5 -90t62.5 -117t1.5 -147.5q-18 -106 -66 -190t-125 -143t-185 -90.5t-246 -31.5q-87 0 -160 9t-137 26.5t-121.5 42.5t-112.5 57zM722 1498l-226 61l277 272h363
l178 -272l-250 -62l-143 162z" />
    <glyph glyph-name="Scommaaccent" unicode="&#x218;" horiz-adv-x="1194" 
d="M224 392q60 -27 111 -46.5t97.5 -31.5t90 -17.5t89.5 -5.5q96 0 147.5 30.5t60.5 81.5q9 54 -42 89t-148 61q-97 25 -175 57.5t-129.5 79.5t-72.5 114t-4 163q19 106 67.5 190.5t127.5 143t189 89.5t253 31q52 0 112.5 -7.5t122 -23t120 -39t107.5 -54.5l-158 -263
q-71 32 -154 52t-164 20q-209 0 -227 -106q-5 -29 5 -50t35.5 -37t66 -30t94.5 -30q105 -29 180.5 -67.5t121.5 -90t62.5 -117t1.5 -147.5q-18 -106 -66 -190t-125 -143t-185 -90.5t-246 -31.5q-87 0 -160 9t-137 26.5t-121.5 42.5t-112.5 57zM521 -84q115 0 161 -45.5
t32 -126.5l-2 -8q-12 -77 -44 -152t-75 -143t-94.5 -126t-102.5 -100l-144 73q24 34 47.5 73t44.5 78t37.5 74.5t25.5 64.5q-44 5 -73 19t-45 36t-19.5 51t2.5 65q14 80 75.5 123.5t173.5 43.5z" />
    <glyph glyph-name="Tbar" unicode="&#x166;" horiz-adv-x="1165" 
d="M215 1081l56 315h1116l-56 -315h-363l-190 -1081h-390l190 1081h-363zM1039 545h-713l41 232h713z" />
    <glyph glyph-name="Tcaron" unicode="&#x164;" horiz-adv-x="1168" 
d="M215 1081l56 315h1116l-56 -315h-363l-190 -1081h-390l190 1081h-363zM871 1696l139 142l286 -71l-273 -242h-363l-187 246l313 66z" />
    <glyph glyph-name="Tcommaaccent" unicode="&#x162;" horiz-adv-x="1168" 
d="M215 1081l56 315h1116l-56 -315h-363l-190 -1081h-390l190 1081h-363zM547 -49q115 0 161 -45.5t32 -126.5l-2 -8q-12 -77 -44 -152t-75 -143t-94.5 -126t-102.5 -100l-144 73q24 34 47.5 73t44.5 78t37.5 74.5t25.5 64.5q-44 5 -73 19t-45 36t-19.5 51t2.5 65
q14 80 75.5 123.5t173.5 43.5z" />
    <glyph glyph-name="Uacute" unicode="&#xda;" horiz-adv-x="1511" 
d="M756 -24q-138 -2 -250 26.5t-186.5 96t-104 178t-0.5 272.5l150 847h390l-144 -814q-12 -69 -11 -123.5t22 -91.5t66.5 -56.5t122.5 -19.5q69 0 118.5 19.5t84 56.5t56 91t33.5 122l144 816h390l-150 -847q-28 -160 -95.5 -269t-164 -176.5t-217 -97t-254.5 -30.5z
M908 1557l282 363l247 -149l-370 -318z" />
    <glyph glyph-name="Ubreve" unicode="&#x16c;" horiz-adv-x="1511" 
d="M756 -24q-138 -2 -250 26.5t-186.5 96t-104 178t-0.5 272.5l150 847h390l-144 -814q-12 -69 -11 -123.5t22 -91.5t66.5 -56.5t122.5 -19.5q69 0 118.5 19.5t84 56.5t56 91t33.5 122l144 816h390l-150 -847q-28 -160 -95.5 -269t-164 -176.5t-217 -97t-254.5 -30.5z
M1031 1503q-76 0 -127.5 14.5t-84.5 38t-51 53.5t-26.5 60.5t-10.5 59t-4 49.5l222 41q2 -23 5.5 -45t15 -38.5t34 -26.5t62.5 -10t65.5 10t42 26.5t27 38t21.5 44.5l208 -40q-9 -21 -21 -49.5t-31 -59t-47.5 -60.5t-70 -53.5t-98 -38t-131.5 -14.5z" />
    <glyph glyph-name="Ucircumflex" unicode="&#xdb;" horiz-adv-x="1511" 
d="M756 -24q-138 -2 -250 26.5t-186.5 96t-104 178t-0.5 272.5l150 847h390l-144 -814q-12 -69 -11 -123.5t22 -91.5t66.5 -56.5t122.5 -19.5q69 0 118.5 19.5t84 56.5t56 91t33.5 122l144 816h390l-150 -847q-28 -160 -95.5 -269t-164 -176.5t-217 -97t-254.5 -30.5z
M851 1485l-226 61l277 272h363l178 -272l-250 -62l-143 162z" />
    <glyph glyph-name="Udieresis" unicode="&#xdc;" horiz-adv-x="1511" 
d="M756 -24q-138 -2 -250 26.5t-186.5 96t-104 178t-0.5 272.5l150 847h390l-144 -814q-12 -69 -11 -123.5t22 -91.5t66.5 -56.5t122.5 -19.5q69 0 118.5 19.5t84 56.5t56 91t33.5 122l144 816h390l-150 -847q-28 -160 -95.5 -269t-164 -176.5t-217 -97t-254.5 -30.5z
M842 1813q92 0 128.5 -36t25.5 -102q-11 -65 -59 -101t-137 -36q-94 0 -130.5 37t-24.5 103q11 65 59.5 100t137.5 35zM1293 1813q91 0 128 -36t26 -102q-11 -65 -60 -101t-137 -36q-94 0 -130.5 37t-24.5 103q11 65 59.5 100t138.5 35z" />
    <glyph glyph-name="Ugrave" unicode="&#xd9;" horiz-adv-x="1511" 
d="M756 -24q-138 -2 -250 26.5t-186.5 96t-104 178t-0.5 272.5l150 847h390l-144 -814q-12 -69 -11 -123.5t22 -91.5t66.5 -56.5t122.5 -19.5q69 0 118.5 19.5t84 56.5t56 91t33.5 122l144 816h390l-150 -847q-28 -160 -95.5 -269t-164 -176.5t-217 -97t-254.5 -30.5z
M985 1496l-258 318l300 149l153 -363z" />
    <glyph glyph-name="Uhungarumlaut" unicode="&#x170;" horiz-adv-x="1511" 
d="M756 -24q-138 -2 -250 26.5t-186.5 96t-104 178t-0.5 272.5l150 847h390l-144 -814q-12 -69 -11 -123.5t22 -91.5t66.5 -56.5t122.5 -19.5q69 0 118.5 19.5t84 56.5t56 91t33.5 122l144 816h390l-150 -847q-28 -160 -95.5 -269t-164 -176.5t-217 -97t-254.5 -30.5z
M689 1601l281 363l245 -145l-371 -319zM1143 1601l282 363l245 -145l-371 -319z" />
    <glyph glyph-name="Umacron" unicode="&#x16a;" horiz-adv-x="1511" 
d="M756 -24q-138 -2 -250 26.5t-186.5 96t-104 178t-0.5 272.5l150 847h390l-144 -814q-12 -69 -11 -123.5t22 -91.5t66.5 -56.5t122.5 -19.5q69 0 118.5 19.5t84 56.5t56 91t33.5 122l144 816h390l-150 -847q-28 -160 -95.5 -269t-164 -176.5t-217 -97t-254.5 -30.5z
M1392 1545h-713l41 232h713z" />
    <glyph glyph-name="Uogonek" unicode="&#x172;" horiz-adv-x="1511" 
d="M756 -24q-138 -2 -250 26.5t-186.5 96t-104 178t-0.5 272.5l150 847h390l-144 -814q-12 -69 -11 -123.5t22 -91.5t66.5 -56.5t122.5 -19.5q69 0 118.5 19.5t84 56.5t56 91t33.5 122l144 816h390l-150 -847q-28 -160 -95.5 -269t-164 -176.5t-217 -97t-254.5 -30.5z
M1015 -398q-45 -16 -97.5 -23t-109.5 -7q-134 0 -199 55t-48 152q7 40 26 75t46 64.5t59.5 53.5t65.5 44h210q-34 -27 -61.5 -49t-47.5 -43t-32.5 -43.5t-17.5 -50.5q-5 -27 1.5 -44.5t20.5 -28.5t32.5 -15.5t37.5 -4.5q23 0 48.5 2t48.5 8z" />
    <glyph glyph-name="Uring" unicode="&#x16e;" horiz-adv-x="1511" 
d="M756 -24q-138 -2 -250 26.5t-186.5 96t-104 178t-0.5 272.5l150 847h390l-144 -814q-12 -69 -11 -123.5t22 -91.5t66.5 -56.5t122.5 -19.5q69 0 118.5 19.5t84 56.5t56 91t33.5 122l144 816h390l-150 -847q-28 -160 -95.5 -269t-164 -176.5t-217 -97t-254.5 -30.5z
M1083 1770q-70 0 -81 -56q-11 -59 64 -59q36 0 54.5 15.5t23.5 41.5q10 58 -61 58zM1104 1892q117 0 164 -46.5t32 -133.5q-15 -84 -77 -131.5t-177 -47.5q-118 0 -166 47.5t-32 135.5q15 86 79 131t177 45z" />
    <glyph glyph-name="Utilde" unicode="&#x168;" horiz-adv-x="1511" 
d="M756 -24q-138 -2 -250 26.5t-186.5 96t-104 178t-0.5 272.5l150 847h390l-144 -814q-12 -69 -11 -123.5t22 -91.5t66.5 -56.5t122.5 -19.5q69 0 118.5 19.5t84 56.5t56 91t33.5 122l144 816h390l-150 -847q-28 -160 -95.5 -269t-164 -176.5t-217 -97t-254.5 -30.5z
M612 1646q30 50 68 90.5t82 69t92.5 44t99.5 15.5q50 0 89.5 -12t73 -27t65 -27t66.5 -12q24 0 40 3t29.5 10.5t27 20t31.5 32.5l163 -109q-33 -58 -75.5 -99.5t-87.5 -67.5t-89 -38.5t-79 -12.5q-50 0 -89 12t-73.5 27t-67 27t-68.5 12q-27 0 -44.5 -4t-32 -12.5t-27.5 -21
t-29 -28.5z" />
    <glyph glyph-name="Wacute" unicode="&#x1e82;" horiz-adv-x="2075" 
d="M1460 1396q-1 -52 0.5 -128t5 -164t9 -181t12 -180t15 -161.5t18.5 -124.5h19q26 53 55 129.5t59 165.5t59 183.5t54 182t44.5 163t30.5 125.5l410 -10q-26 -104 -65.5 -225.5t-86.5 -249.5t-99.5 -257.5t-105.5 -250t-104.5 -226.5t-95.5 -187h-470q-10 41 -18.5 95
t-16 114.5t-13 125t-10 126t-6.5 117t-2 98.5h-4q-16 -47 -37 -102t-45.5 -114t-52 -120.5t-56 -121.5t-57.5 -115.5t-57 -102.5h-470q-14 66 -27 165t-24 218t-18.5 251t-10 265t1 260.5t14.5 236.5l414 10q-7 -50 -14 -127.5t-13 -168.5t-10 -188t-5.5 -186t0 -162.5
t7.5 -116.5h19q28 48 64 124.5t74.5 166t77.5 185.5t73 184t61 161.5t42 117.5h355zM1260 1604l282 363l247 -149l-370 -318z" />
    <glyph glyph-name="Wcircumflex" unicode="&#x174;" horiz-adv-x="2075" 
d="M1460 1396q-1 -52 0.5 -128t5 -164t9 -181t12 -180t15 -161.5t18.5 -124.5h19q26 53 55 129.5t59 165.5t59 183.5t54 182t44.5 163t30.5 125.5l410 -10q-26 -104 -65.5 -225.5t-86.5 -249.5t-99.5 -257.5t-105.5 -250t-104.5 -226.5t-95.5 -187h-470q-10 41 -18.5 95
t-16 114.5t-13 125t-10 126t-6.5 117t-2 98.5h-4q-16 -47 -37 -102t-45.5 -114t-52 -120.5t-56 -121.5t-57.5 -115.5t-57 -102.5h-470q-14 66 -27 165t-24 218t-18.5 251t-10 265t1 260.5t14.5 236.5l414 10q-7 -50 -14 -127.5t-13 -168.5t-10 -188t-5.5 -186t0 -162.5
t7.5 -116.5h19q28 48 64 124.5t74.5 166t77.5 185.5t73 184t61 161.5t42 117.5h355zM1122 1511l-226 61l277 272h363l178 -272l-250 -62l-143 162z" />
    <glyph glyph-name="Wdieresis" unicode="&#x1e84;" horiz-adv-x="2075" 
d="M1460 1396q-1 -52 0.5 -128t5 -164t9 -181t12 -180t15 -161.5t18.5 -124.5h19q26 53 55 129.5t59 165.5t59 183.5t54 182t44.5 163t30.5 125.5l410 -10q-26 -104 -65.5 -225.5t-86.5 -249.5t-99.5 -257.5t-105.5 -250t-104.5 -226.5t-95.5 -187h-470q-10 41 -18.5 95
t-16 114.5t-13 125t-10 126t-6.5 117t-2 98.5h-4q-16 -47 -37 -102t-45.5 -114t-52 -120.5t-56 -121.5t-57.5 -115.5t-57 -102.5h-470q-14 66 -27 165t-24 218t-18.5 251t-10 265t1 260.5t14.5 236.5l414 10q-7 -50 -14 -127.5t-13 -168.5t-10 -188t-5.5 -186t0 -162.5
t7.5 -116.5h19q28 48 64 124.5t74.5 166t77.5 185.5t73 184t61 161.5t42 117.5h355zM1135 1818q92 0 128.5 -36t25.5 -102q-11 -65 -59 -101t-137 -36q-94 0 -130.5 37t-24.5 103q11 65 59.5 100t137.5 35zM1586 1818q91 0 128 -36t26 -102q-11 -65 -60 -101t-137 -36
q-94 0 -130.5 37t-24.5 103q11 65 59.5 100t138.5 35z" />
    <glyph glyph-name="Wgrave" unicode="&#x1e80;" horiz-adv-x="2075" 
d="M1460 1396q-1 -52 0.5 -128t5 -164t9 -181t12 -180t15 -161.5t18.5 -124.5h19q26 53 55 129.5t59 165.5t59 183.5t54 182t44.5 163t30.5 125.5l410 -10q-26 -104 -65.5 -225.5t-86.5 -249.5t-99.5 -257.5t-105.5 -250t-104.5 -226.5t-95.5 -187h-470q-10 41 -18.5 95
t-16 114.5t-13 125t-10 126t-6.5 117t-2 98.5h-4q-16 -47 -37 -102t-45.5 -114t-52 -120.5t-56 -121.5t-57.5 -115.5t-57 -102.5h-470q-14 66 -27 165t-24 218t-18.5 251t-10 265t1 260.5t14.5 236.5l414 10q-7 -50 -14 -127.5t-13 -168.5t-10 -188t-5.5 -186t0 -162.5
t7.5 -116.5h19q28 48 64 124.5t74.5 166t77.5 185.5t73 184t61 161.5t42 117.5h355zM1271 1505l-258 318l300 149l153 -363z" />
    <glyph glyph-name="Yacute" unicode="&#xdd;" horiz-adv-x="1364" 
d="M374 936q-24 61 -46.5 127t-42 128t-34.5 115.5t-23 89.5l436 10q11 -60 29 -137.5t40 -152.5q11 -37 23 -75t23.5 -72.5t23 -63.5t20.5 -48h20q15 21 36 49.5t44.5 62.5t48 70.5t47.5 73.5q53 85 96 157.5t75 135.5l437 -10q-60 -100 -139.5 -217t-171.5 -244
q-42 -58 -83.5 -110.5t-84.5 -103t-88 -102t-94 -106.5l-90 -513h-391l90 513q-21 40 -46.5 88t-52 102t-52.5 112.5t-50 120.5zM884 1604l282 363l247 -149l-370 -318z" />
    <glyph glyph-name="Ycircumflex" unicode="&#x176;" horiz-adv-x="1364" 
d="M374 936q-24 61 -46.5 127t-42 128t-34.5 115.5t-23 89.5l436 10q11 -60 29 -137.5t40 -152.5q11 -37 23 -75t23.5 -72.5t23 -63.5t20.5 -48h20q15 21 36 49.5t44.5 62.5t48 70.5t47.5 73.5q53 85 96 157.5t75 135.5l437 -10q-60 -100 -139.5 -217t-171.5 -244
q-42 -58 -83.5 -110.5t-84.5 -103t-88 -102t-94 -106.5l-90 -513h-391l90 513q-21 40 -46.5 88t-52 102t-52.5 112.5t-50 120.5zM804 1515l-226 61l277 272h363l178 -272l-250 -62l-143 162z" />
    <glyph glyph-name="Ydieresis" unicode="&#x178;" horiz-adv-x="1364" 
d="M374 936q-24 61 -46.5 127t-42 128t-34.5 115.5t-23 89.5l436 10q11 -60 29 -137.5t40 -152.5q11 -37 23 -75t23.5 -72.5t23 -63.5t20.5 -48h20q15 21 36 49.5t44.5 62.5t48 70.5t47.5 73.5q53 85 96 157.5t75 135.5l437 -10q-60 -100 -139.5 -217t-171.5 -244
q-42 -58 -83.5 -110.5t-84.5 -103t-88 -102t-94 -106.5l-90 -513h-391l90 513q-21 40 -46.5 88t-52 102t-52.5 112.5t-50 120.5zM789 1846q92 0 128.5 -36t25.5 -102q-11 -65 -59 -101t-137 -36q-94 0 -130.5 37t-24.5 103q11 65 59.5 100t137.5 35zM1240 1846q91 0 128 -36
t26 -102q-11 -65 -60 -101t-137 -36q-94 0 -130.5 37t-24.5 103q11 65 59.5 100t138.5 35z" />
    <glyph glyph-name="Ygrave" unicode="&#x1ef2;" horiz-adv-x="1364" 
d="M374 936q-24 61 -46.5 127t-42 128t-34.5 115.5t-23 89.5l436 10q11 -60 29 -137.5t40 -152.5q11 -37 23 -75t23.5 -72.5t23 -63.5t20.5 -48h20q15 21 36 49.5t44.5 62.5t48 70.5t47.5 73.5q53 85 96 157.5t75 135.5l437 -10q-60 -100 -139.5 -217t-171.5 -244
q-42 -58 -83.5 -110.5t-84.5 -103t-88 -102t-94 -106.5l-90 -513h-391l90 513q-21 40 -46.5 88t-52 102t-52.5 112.5t-50 120.5zM938 1508l-258 318l300 149l153 -363z" />
    <glyph glyph-name="Zacute" unicode="&#x179;" horiz-adv-x="1269" 
d="M82 0l48 273q49 62 111 128t131 134.5t142 137t143 136t134.5 132.5t116.5 125l3 15h-613l56 315h1084l-54 -302q-42 -56 -101.5 -119.5t-127.5 -130.5t-140 -135.5t-139 -135t-125.5 -128.5t-98.5 -115l-3 -15h581l-55 -315h-1093zM854 1597l282 363l247 -149l-370 -318
z" />
    <glyph glyph-name="Zcaron" unicode="&#x17d;" horiz-adv-x="1269" 
d="M82 0l48 273q49 62 111 128t131 134.5t142 137t143 136t134.5 132.5t116.5 125l3 15h-613l56 315h1084l-54 -302q-42 -56 -101.5 -119.5t-127.5 -130.5t-140 -135.5t-139 -135t-125.5 -128.5t-98.5 -115l-3 -15h581l-55 -315h-1093zM980 1707l139 142l286 -71l-273 -242
h-363l-187 246l313 66z" />
    <glyph glyph-name="Zdotaccent" unicode="&#x17b;" horiz-adv-x="1269" 
d="M82 0l48 273q49 62 111 128t131 134.5t142 137t143 136t134.5 132.5t116.5 125l3 15h-613l56 315h1084l-54 -302q-42 -56 -101.5 -119.5t-127.5 -130.5t-140 -135.5t-139 -135t-125.5 -128.5t-98.5 -115l-3 -15h581l-55 -315h-1093zM1009 1804q92 0 128.5 -36t25.5 -102
q-11 -65 -59 -101t-137 -36q-94 0 -130.5 37t-24.5 103q11 65 59.5 100t137.5 35z" />
    <glyph glyph-name="abreve" unicode="&#x103;" horiz-adv-x="1215" 
d="M130 487q26 149 85.5 257t148.5 178.5t206 104.5t260 34q62 0 124.5 -9.5t119.5 -25t107 -35.5t88 -42l-167 -949h-329l-21 110q-22 -18 -54 -41t-72 -44t-88 -35t-101 -14q-95 0 -162.5 36t-106.5 102.5t-49 161t11 211.5zM499 509q-11 -65 -5 -110t24.5 -73.5t47 -41
t63.5 -12.5q42 0 83.5 15.5t73.5 36.5l74 420q-14 5 -45.5 12.5t-81.5 7.5q-44 0 -81.5 -14.5t-67.5 -45t-51.5 -79t-33.5 -116.5zM876 1187q-76 0 -127.5 14.5t-84.5 38t-51 53.5t-26.5 60.5t-10.5 59t-4 49.5l222 41q2 -23 5.5 -45t15 -38.5t34 -26.5t62.5 -10t65.5 10
t42 26.5t27 38t21.5 44.5l208 -40q-9 -21 -21 -49.5t-31 -59t-47.5 -60.5t-70 -53.5t-98 -38t-131.5 -14.5z" />
    <glyph glyph-name="acircumflex" unicode="&#xe2;" horiz-adv-x="1215" 
d="M130 487q26 149 85.5 257t148.5 178.5t206 104.5t260 34q62 0 124.5 -9.5t119.5 -25t107 -35.5t88 -42l-167 -949h-329l-21 110q-22 -18 -54 -41t-72 -44t-88 -35t-101 -14q-95 0 -162.5 36t-106.5 102.5t-49 161t11 211.5zM499 509q-11 -65 -5 -110t24.5 -73.5t47 -41
t63.5 -12.5q42 0 83.5 15.5t73.5 36.5l74 420q-14 5 -45.5 12.5t-81.5 7.5q-44 0 -81.5 -14.5t-67.5 -45t-51.5 -79t-33.5 -116.5zM661 1177l-226 61l277 272h363l178 -272l-250 -62l-143 162z" />
    <glyph glyph-name="adieresis" unicode="&#xe4;" horiz-adv-x="1215" 
d="M130 487q26 149 85.5 257t148.5 178.5t206 104.5t260 34q62 0 124.5 -9.5t119.5 -25t107 -35.5t88 -42l-167 -949h-329l-21 110q-22 -18 -54 -41t-72 -44t-88 -35t-101 -14q-95 0 -162.5 36t-106.5 102.5t-49 161t11 211.5zM499 509q-11 -65 -5 -110t24.5 -73.5t47 -41
t63.5 -12.5q42 0 83.5 15.5t73.5 36.5l74 420q-14 5 -45.5 12.5t-81.5 7.5q-44 0 -81.5 -14.5t-67.5 -45t-51.5 -79t-33.5 -116.5zM655 1463q92 0 128.5 -36t25.5 -102q-11 -65 -59 -101t-137 -36q-94 0 -130.5 37t-24.5 103q11 65 59.5 100t137.5 35zM1106 1463
q91 0 128 -36t26 -102q-11 -65 -60 -101t-137 -36q-94 0 -130.5 37t-24.5 103q11 65 59.5 100t138.5 35z" />
    <glyph glyph-name="agrave" unicode="&#xe0;" horiz-adv-x="1215" 
d="M130 487q26 149 85.5 257t148.5 178.5t206 104.5t260 34q62 0 124.5 -9.5t119.5 -25t107 -35.5t88 -42l-167 -949h-329l-21 110q-22 -18 -54 -41t-72 -44t-88 -35t-101 -14q-95 0 -162.5 36t-106.5 102.5t-49 161t11 211.5zM499 509q-11 -65 -5 -110t24.5 -73.5t47 -41
t63.5 -12.5q42 0 83.5 15.5t73.5 36.5l74 420q-14 5 -45.5 12.5t-81.5 7.5q-44 0 -81.5 -14.5t-67.5 -45t-51.5 -79t-33.5 -116.5zM774 1154l-258 318l300 149l153 -363z" />
    <glyph glyph-name="amacron" unicode="&#x101;" horiz-adv-x="1215" 
d="M130 487q26 149 85.5 257t148.5 178.5t206 104.5t260 34q62 0 124.5 -9.5t119.5 -25t107 -35.5t88 -42l-167 -949h-329l-21 110q-22 -18 -54 -41t-72 -44t-88 -35t-101 -14q-95 0 -162.5 36t-106.5 102.5t-49 161t11 211.5zM499 509q-11 -65 -5 -110t24.5 -73.5t47 -41
t63.5 -12.5q42 0 83.5 15.5t73.5 36.5l74 420q-14 5 -45.5 12.5t-81.5 7.5q-44 0 -81.5 -14.5t-67.5 -45t-51.5 -79t-33.5 -116.5zM1216 1183h-713l41 232h713z" />
    <glyph glyph-name="aogonek" unicode="&#x105;" horiz-adv-x="1215" 
d="M130 487q26 149 85.5 257t148.5 178.5t206 104.5t260 34q62 0 124.5 -9.5t119.5 -25t107 -35.5t88 -42l-167 -949h-329l-21 110q-22 -18 -54 -41t-72 -44t-88 -35t-101 -14q-95 0 -162.5 36t-106.5 102.5t-49 161t11 211.5zM499 509q-11 -65 -5 -110t24.5 -73.5t47 -41
t63.5 -12.5q42 0 83.5 15.5t73.5 36.5l74 420q-14 5 -45.5 12.5t-81.5 7.5q-44 0 -81.5 -14.5t-67.5 -45t-51.5 -79t-33.5 -116.5zM1151 -413q-45 -16 -97.5 -23t-109.5 -7q-134 0 -199 55t-48 152q7 40 26 75t46 64.5t59.5 53.5t65.5 44h210q-34 -27 -61.5 -49t-47.5 -43
t-32.5 -43.5t-17.5 -50.5q-5 -27 1.5 -44.5t20.5 -28.5t32.5 -15.5t37.5 -4.5q23 0 48.5 2t48.5 8z" />
    <glyph glyph-name="aring" unicode="&#xe5;" horiz-adv-x="1215" 
d="M130 487q26 149 85.5 257t148.5 178.5t206 104.5t260 34q62 0 124.5 -9.5t119.5 -25t107 -35.5t88 -42l-167 -949h-329l-21 110q-22 -18 -54 -41t-72 -44t-88 -35t-101 -14q-95 0 -162.5 36t-106.5 102.5t-49 161t11 211.5zM499 509q-11 -65 -5 -110t24.5 -73.5t47 -41
t63.5 -12.5q42 0 83.5 15.5t73.5 36.5l74 420q-14 5 -45.5 12.5t-81.5 7.5q-44 0 -81.5 -14.5t-67.5 -45t-51.5 -79t-33.5 -116.5zM898 1407q-70 0 -81 -56q-11 -59 64 -59q36 0 54.5 15.5t23.5 41.5q10 58 -61 58zM919 1529q117 0 164 -46.5t32 -133.5q-15 -84 -77 -131.5
t-177 -47.5q-118 0 -166 47.5t-32 135.5q15 86 79 131t177 45z" />
    <glyph glyph-name="atilde" unicode="&#xe3;" horiz-adv-x="1215" 
d="M130 487q26 149 85.5 257t148.5 178.5t206 104.5t260 34q62 0 124.5 -9.5t119.5 -25t107 -35.5t88 -42l-167 -949h-329l-21 110q-22 -18 -54 -41t-72 -44t-88 -35t-101 -14q-95 0 -162.5 36t-106.5 102.5t-49 161t11 211.5zM499 509q-11 -65 -5 -110t24.5 -73.5t47 -41
t63.5 -12.5q42 0 83.5 15.5t73.5 36.5l74 420q-14 5 -45.5 12.5t-81.5 7.5q-44 0 -81.5 -14.5t-67.5 -45t-51.5 -79t-33.5 -116.5zM391 1291q30 50 68 90.5t82 69t92.5 44t99.5 15.5q50 0 89.5 -12t73 -27t65 -27t66.5 -12q24 0 40 3t29.5 10.5t27 20t31.5 32.5l163 -109
q-33 -58 -75.5 -99.5t-87.5 -67.5t-89 -38.5t-79 -12.5q-50 0 -89 12t-73.5 27t-67 27t-68.5 12q-27 0 -44.5 -4t-32 -12.5t-27.5 -21t-29 -28.5z" />
    <glyph glyph-name="cacute" unicode="&#x107;" horiz-adv-x="1058" 
d="M725 1244l282 363l247 -149l-370 -318zM170 523q22 123 74 222.5t130.5 169.5t181 108t225.5 38q100 0 193 -24t178 -78l-138 -240q-23 10 -44 18.5t-44.5 14.5t-50 9t-59.5 3q-238 0 -283 -250q-12 -67 -0.5 -113.5t39 -75t67 -41.5t84.5 -13q61 0 115 13t104 33
l55 -240q-43 -21 -88 -39t-96 -32t-108.5 -22t-126.5 -8q-94 0 -164 21.5t-119.5 59.5t-79.5 90t-44 113t-13.5 128t12.5 135z" />
    <glyph glyph-name="ccaron" unicode="&#x10d;" horiz-adv-x="1058" 
d="M857 1348l139 142l286 -71l-273 -242h-363l-187 246l313 66zM172 523q22 123 74 222.5t130.5 169.5t181 108t225.5 38q100 0 193 -24t178 -78l-138 -240q-23 10 -44 18.5t-44.5 14.5t-50 9t-59.5 3q-238 0 -283 -250q-12 -67 -0.5 -113.5t39 -75t67 -41.5t84.5 -13
q61 0 115 13t104 33l55 -240q-43 -21 -88 -39t-96 -32t-108.5 -22t-126.5 -8q-94 0 -164 21.5t-119.5 59.5t-79.5 90t-44 113t-13.5 128t12.5 135z" />
    <glyph glyph-name="ccedilla" unicode="&#xe7;" horiz-adv-x="1058" 
d="M340 -275q22 -6 47 -8.5t48 -2.5q19 0 38.5 3.5t35.5 11t27.5 20t14.5 30.5q3 20 -2.5 32.5t-19 19.5t-33.5 9.5t-45 2.5q-14 0 -33.5 -1.5t-39.5 -5.5l99 163h233l-51 -76q63 -11 97.5 -54.5t21.5 -117.5q-17 -97 -96 -149.5t-213 -52.5q-57 0 -107 7.5t-88 23.5z
M170 523q22 123 74 222.5t130.5 169.5t181 108t225.5 38q100 0 193 -24t178 -78l-138 -240q-23 10 -44 18.5t-44.5 14.5t-50 9t-59.5 3q-238 0 -283 -250q-12 -67 -0.5 -113.5t39 -75t67 -41.5t84.5 -13q61 0 115 13t104 33l55 -240q-43 -21 -88 -39t-96 -32t-108.5 -22
t-126.5 -8q-94 0 -164 21.5t-119.5 59.5t-79.5 90t-44 113t-13.5 128t12.5 135z" />
    <glyph glyph-name="ccircumflex" unicode="&#x109;" horiz-adv-x="1058" 
d="M170 523q22 123 74 222.5t130.5 169.5t181 108t225.5 38q100 0 193 -24t178 -78l-138 -240q-23 10 -44 18.5t-44.5 14.5t-50 9t-59.5 3q-238 0 -283 -250q-12 -67 -0.5 -113.5t39 -75t67 -41.5t84.5 -13q61 0 115 13t104 33l55 -240q-43 -21 -88 -39t-96 -32t-108.5 -22
t-126.5 -8q-94 0 -164 21.5t-119.5 59.5t-79.5 90t-44 113t-13.5 128t12.5 135zM603 1122l-226 61l277 272h363l178 -272l-250 -62l-143 162z" />
    <glyph glyph-name="cdotaccent" unicode="&#x10b;" horiz-adv-x="1058" 
d="M872 1432q92 0 128.5 -36t25.5 -102q-11 -65 -59 -101t-137 -36q-94 0 -130.5 37t-24.5 103q11 65 59.5 100t137.5 35zM170 523q22 123 74 222.5t130.5 169.5t181 108t225.5 38q100 0 193 -24t178 -78l-138 -240q-23 10 -44 18.5t-44.5 14.5t-50 9t-59.5 3
q-238 0 -283 -250q-12 -67 -0.5 -113.5t39 -75t67 -41.5t84.5 -13q61 0 115 13t104 33l55 -240q-43 -21 -88 -39t-96 -32t-108.5 -22t-126.5 -8q-94 0 -164 21.5t-119.5 59.5t-79.5 90t-44 113t-13.5 128t12.5 135z" />
    <glyph glyph-name="dcaron" unicode="&#x10f;" horiz-adv-x="1592" 
d="M806 0l-21 110q-21 -18 -53 -41t-73 -44t-91 -35t-107 -14q-92 0 -157.5 35.5t-103.5 102.5t-47.5 163t11.5 216q18 100 54 181t84.5 144.5t106 109t119 75.5t123 44t118.5 14q38 0 63.5 -2.5t44 -6t33 -9t30.5 -11.5l75 424h375l-256 -1456h-328zM533 511
q-12 -66 -5.5 -111.5t25 -74t47.5 -41t63 -12.5q78 0 154 46l74 422q-14 8 -46.5 16t-70.5 8q-52 0 -92.5 -18t-70 -51t-49 -80t-29.5 -104zM1656 1492q115 0 161 -45.5t32 -126.5l-2 -8q-12 -77 -44 -152t-75 -143t-94.5 -126t-102.5 -100l-144 73q24 34 47.5 73t44.5 78
t37.5 74.5t25.5 64.5q-44 5 -73 19t-45 36t-19.5 51t2.5 65q14 80 75.5 123.5t173.5 43.5z" />
    <glyph glyph-name="dcroat" unicode="&#x111;" horiz-adv-x="1250" 
d="M1383 1160h-713l37 209h713zM806 0l-21 110q-21 -18 -53 -41t-73 -44t-91 -35t-107 -14q-92 0 -157.5 35.5t-103.5 102.5t-47.5 163t11.5 216q18 100 54 181t84.5 144.5t106 109t119 75.5t123 44t118.5 14q38 0 63.5 -2.5t44 -6t33 -9t30.5 -11.5l75 424h375l-256 -1456
h-328zM533 511q-12 -66 -5.5 -111.5t25 -74t47.5 -41t63 -12.5q78 0 154 46l74 422q-14 8 -46.5 16t-70.5 8q-52 0 -92.5 -18t-70 -51t-49 -80t-29.5 -104z" />
    <glyph glyph-name="eacute" unicode="&#xe9;" horiz-adv-x="1170" 
d="M520 375q8 -22 21 -42t37 -35.5t63.5 -25t101.5 -9.5q77 0 149.5 21t135.5 50l57 -242q-97 -54 -210.5 -85t-232.5 -31q-136 0 -236 32.5t-161 99t-81 168t4 238.5q25 139 84 242t144 171t193 101t230 33q111 0 191.5 -30.5t130 -81t68 -115t6.5 -132.5q-10 -57 -37 -115
t-79 -105.5t-133 -77t-199 -29.5h-247zM748 766q-35 0 -65 -11.5t-54 -32t-42 -47.5t-28 -57h185q42 0 69.5 15.5t33.5 47.5q4 23 -2.5 39.5t-20 26.5t-33.5 14.5t-43 4.5zM776 1238l282 363l247 -149l-370 -318z" />
    <glyph glyph-name="ebreve" unicode="&#x115;" horiz-adv-x="1170" 
d="M520 375q8 -22 21 -42t37 -35.5t63.5 -25t101.5 -9.5q77 0 149.5 21t135.5 50l57 -242q-97 -54 -210.5 -85t-232.5 -31q-136 0 -236 32.5t-161 99t-81 168t4 238.5q25 139 84 242t144 171t193 101t230 33q111 0 191.5 -30.5t130 -81t68 -115t6.5 -132.5q-10 -57 -37 -115
t-79 -105.5t-133 -77t-199 -29.5h-247zM748 766q-35 0 -65 -11.5t-54 -32t-42 -47.5t-28 -57h185q42 0 69.5 15.5t33.5 47.5q4 23 -2.5 39.5t-20 26.5t-33.5 14.5t-43 4.5zM857 1161q-76 0 -127.5 14.5t-84.5 38t-51 53.5t-26.5 60.5t-10.5 59t-4 49.5l222 41q2 -23 5.5 -45
t15 -38.5t34 -26.5t62.5 -10t65.5 10t42 26.5t27 38t21.5 44.5l208 -40q-9 -21 -21 -49.5t-31 -59t-47.5 -60.5t-70 -53.5t-98 -38t-131.5 -14.5z" />
    <glyph glyph-name="ecaron" unicode="&#x11b;" horiz-adv-x="1170" 
d="M520 375q8 -22 21 -42t37 -35.5t63.5 -25t101.5 -9.5q77 0 149.5 21t135.5 50l57 -242q-97 -54 -210.5 -85t-232.5 -31q-136 0 -236 32.5t-161 99t-81 168t4 238.5q25 139 84 242t144 171t193 101t230 33q111 0 191.5 -30.5t130 -81t68 -115t6.5 -132.5q-10 -57 -37 -115
t-79 -105.5t-133 -77t-199 -29.5h-247zM748 766q-35 0 -65 -11.5t-54 -32t-42 -47.5t-28 -57h185q42 0 69.5 15.5t33.5 47.5q4 23 -2.5 39.5t-20 26.5t-33.5 14.5t-43 4.5zM883 1345l139 142l286 -71l-273 -242h-363l-187 246l313 66z" />
    <glyph glyph-name="ecircumflex" unicode="&#xea;" horiz-adv-x="1170" 
d="M520 375q8 -22 21 -42t37 -35.5t63.5 -25t101.5 -9.5q77 0 149.5 21t135.5 50l57 -242q-97 -54 -210.5 -85t-232.5 -31q-136 0 -236 32.5t-161 99t-81 168t4 238.5q25 139 84 242t144 171t193 101t230 33q111 0 191.5 -30.5t130 -81t68 -115t6.5 -132.5q-10 -57 -37 -115
t-79 -105.5t-133 -77t-199 -29.5h-247zM748 766q-35 0 -65 -11.5t-54 -32t-42 -47.5t-28 -57h185q42 0 69.5 15.5t33.5 47.5q4 23 -2.5 39.5t-20 26.5t-33.5 14.5t-43 4.5zM649 1147l-226 61l277 272h363l178 -272l-250 -62l-143 162z" />
    <glyph glyph-name="edieresis" unicode="&#xeb;" horiz-adv-x="1170" 
d="M520 375q8 -22 21 -42t37 -35.5t63.5 -25t101.5 -9.5q77 0 149.5 21t135.5 50l57 -242q-97 -54 -210.5 -85t-232.5 -31q-136 0 -236 32.5t-161 99t-81 168t4 238.5q25 139 84 242t144 171t193 101t230 33q111 0 191.5 -30.5t130 -81t68 -115t6.5 -132.5q-10 -57 -37 -115
t-79 -105.5t-133 -77t-199 -29.5h-247zM748 766q-35 0 -65 -11.5t-54 -32t-42 -47.5t-28 -57h185q42 0 69.5 15.5t33.5 47.5q4 23 -2.5 39.5t-20 26.5t-33.5 14.5t-43 4.5zM661 1438q92 0 128.5 -36t25.5 -102q-11 -65 -59 -101t-137 -36q-94 0 -130.5 37t-24.5 103
q11 65 59.5 100t137.5 35zM1112 1438q91 0 128 -36t26 -102q-11 -65 -60 -101t-137 -36q-94 0 -130.5 37t-24.5 103q11 65 59.5 100t138.5 35z" />
    <glyph glyph-name="edotaccent" unicode="&#x117;" horiz-adv-x="1170" 
d="M520 375q8 -22 21 -42t37 -35.5t63.5 -25t101.5 -9.5q77 0 149.5 21t135.5 50l57 -242q-97 -54 -210.5 -85t-232.5 -31q-136 0 -236 32.5t-161 99t-81 168t4 238.5q25 139 84 242t144 171t193 101t230 33q111 0 191.5 -30.5t130 -81t68 -115t6.5 -132.5q-10 -57 -37 -115
t-79 -105.5t-133 -77t-199 -29.5h-247zM748 766q-35 0 -65 -11.5t-54 -32t-42 -47.5t-28 -57h185q42 0 69.5 15.5t33.5 47.5q4 23 -2.5 39.5t-20 26.5t-33.5 14.5t-43 4.5zM878 1435q92 0 128.5 -36t25.5 -102q-11 -65 -59 -101t-137 -36q-94 0 -130.5 37t-24.5 103
q11 65 59.5 100t137.5 35z" />
    <glyph glyph-name="egrave" unicode="&#xe8;" horiz-adv-x="1170" 
d="M520 375q8 -22 21 -42t37 -35.5t63.5 -25t101.5 -9.5q77 0 149.5 21t135.5 50l57 -242q-97 -54 -210.5 -85t-232.5 -31q-136 0 -236 32.5t-161 99t-81 168t4 238.5q25 139 84 242t144 171t193 101t230 33q111 0 191.5 -30.5t130 -81t68 -115t6.5 -132.5q-10 -57 -37 -115
t-79 -105.5t-133 -77t-199 -29.5h-247zM748 766q-35 0 -65 -11.5t-54 -32t-42 -47.5t-28 -57h185q42 0 69.5 15.5t33.5 47.5q4 23 -2.5 39.5t-20 26.5t-33.5 14.5t-43 4.5zM762 1141l-258 318l300 149l153 -363z" />
    <glyph glyph-name="emacron" unicode="&#x113;" horiz-adv-x="1170" 
d="M520 375q8 -22 21 -42t37 -35.5t63.5 -25t101.5 -9.5q77 0 149.5 21t135.5 50l57 -242q-97 -54 -210.5 -85t-232.5 -31q-136 0 -236 32.5t-161 99t-81 168t4 238.5q25 139 84 242t144 171t193 101t230 33q111 0 191.5 -30.5t130 -81t68 -115t6.5 -132.5q-10 -57 -37 -115
t-79 -105.5t-133 -77t-199 -29.5h-247zM748 766q-35 0 -65 -11.5t-54 -32t-42 -47.5t-28 -57h185q42 0 69.5 15.5t33.5 47.5q4 23 -2.5 39.5t-20 26.5t-33.5 14.5t-43 4.5zM1191 1165h-713l41 232h713z" />
    <glyph glyph-name="eogonek" unicode="&#x119;" horiz-adv-x="1170" 
d="M520 375q8 -22 21 -42t37 -35.5t63.5 -25t101.5 -9.5q77 0 149.5 21t135.5 50l57 -242q-97 -54 -210.5 -85t-232.5 -31q-136 0 -236 32.5t-161 99t-81 168t4 238.5q25 139 84 242t144 171t193 101t230 33q111 0 191.5 -30.5t130 -81t68 -115t6.5 -132.5q-10 -57 -37 -115
t-79 -105.5t-133 -77t-199 -29.5h-247zM748 766q-35 0 -65 -11.5t-54 -32t-42 -47.5t-28 -57h185q42 0 69.5 15.5t33.5 47.5q4 23 -2.5 39.5t-20 26.5t-33.5 14.5t-43 4.5zM983 -368q-45 -16 -97.5 -23t-109.5 -7q-134 0 -199 55t-48 152q7 40 26 75t46 64.5t59.5 53.5
t65.5 44h210q-34 -27 -61.5 -49t-47.5 -43t-32.5 -43.5t-17.5 -50.5q-5 -27 1.5 -44.5t20.5 -28.5t32.5 -15.5t37.5 -4.5q23 0 48.5 2t48.5 8z" />
    <glyph glyph-name="gbreve" unicode="&#x11f;" horiz-adv-x="1249" 
d="M895 1151q-76 0 -127.5 14.5t-84.5 38t-51 53.5t-26.5 60.5t-10.5 59t-4 49.5l222 41q2 -23 5.5 -45t15 -38.5t34 -26.5t62.5 -10t65.5 10t42 26.5t27 38t21.5 44.5l208 -40q-9 -21 -21 -49.5t-31 -59t-47.5 -60.5t-70 -53.5t-98 -38t-131.5 -14.5zM163 487
q26 146 84.5 254t148 179t208 106t263.5 35q59 0 120.5 -9.5t119 -25t108 -36t86.5 -41.5l-162 -915q-23 -128 -79 -220t-139 -151t-189 -86.5t-228 -27.5q-94 0 -193 27.5t-183 74.5l132 235q41 -23 103 -39.5t131 -16.5q59 0 107.5 11t85 37.5t61.5 69t36 104.5l4 23
q-23 -17 -55.5 -34.5t-71.5 -31.5t-84.5 -23.5t-94.5 -9.5q-105 0 -175 38t-108.5 105.5t-47 161.5t11.5 206zM532 509q-11 -63 -5.5 -108t24 -73.5t48 -42t66.5 -13.5q19 0 40 4.5t41.5 11.5t39 16.5t31.5 18.5l75 422q-14 6 -46 12.5t-75 6.5t-81 -13t-68.5 -43
t-53.5 -78.5t-36 -120.5z" />
    <glyph glyph-name="gcircumflex" unicode="&#x11d;" horiz-adv-x="1249" 
d="M694 1157l-226 61l277 272h363l178 -272l-250 -62l-143 162zM163 487q26 146 84.5 254t148 179t208 106t263.5 35q59 0 120.5 -9.5t119 -25t108 -36t86.5 -41.5l-162 -915q-23 -128 -79 -220t-139 -151t-189 -86.5t-228 -27.5q-94 0 -193 27.5t-183 74.5l132 235
q41 -23 103 -39.5t131 -16.5q59 0 107.5 11t85 37.5t61.5 69t36 104.5l4 23q-23 -17 -55.5 -34.5t-71.5 -31.5t-84.5 -23.5t-94.5 -9.5q-105 0 -175 38t-108.5 105.5t-47 161.5t11.5 206zM532 509q-11 -63 -5.5 -108t24 -73.5t48 -42t66.5 -13.5q19 0 40 4.5t41.5 11.5
t39 16.5t31.5 18.5l75 422q-14 6 -46 12.5t-75 6.5t-81 -13t-68.5 -43t-53.5 -78.5t-36 -120.5z" />
    <glyph glyph-name="gcommaaccent" unicode="&#x123;" horiz-adv-x="1249" 
d="M881 1199q-115 0 -161 45t-32 126q12 78 43.5 154.5t75 146t95 128t103.5 100.5l146 -72q-24 -35 -48.5 -74t-45.5 -77.5t-37.5 -75t-26.5 -64.5q89 -11 119 -55t17 -115q-14 -81 -75 -124t-173 -43zM163 487q26 146 84.5 254t148 179t208 106t263.5 35q59 0 120.5 -9.5
t119 -25t108 -36t86.5 -41.5l-162 -915q-23 -128 -79 -220t-139 -151t-189 -86.5t-228 -27.5q-94 0 -193 27.5t-183 74.5l132 235q41 -23 103 -39.5t131 -16.5q59 0 107.5 11t85 37.5t61.5 69t36 104.5l4 23q-23 -17 -55.5 -34.5t-71.5 -31.5t-84.5 -23.5t-94.5 -9.5
q-105 0 -175 38t-108.5 105.5t-47 161.5t11.5 206zM532 509q-11 -63 -5.5 -108t24 -73.5t48 -42t66.5 -13.5q19 0 40 4.5t41.5 11.5t39 16.5t31.5 18.5l75 422q-14 6 -46 12.5t-75 6.5t-81 -13t-68.5 -43t-53.5 -78.5t-36 -120.5z" />
    <glyph glyph-name="gdotaccent" unicode="&#x121;" horiz-adv-x="1249" 
d="M933 1442q92 0 128.5 -36t25.5 -102q-11 -65 -59 -101t-137 -36q-94 0 -130.5 37t-24.5 103q11 65 59.5 100t137.5 35zM163 487q26 146 84.5 254t148 179t208 106t263.5 35q59 0 120.5 -9.5t119 -25t108 -36t86.5 -41.5l-162 -915q-23 -128 -79 -220t-139 -151
t-189 -86.5t-228 -27.5q-94 0 -193 27.5t-183 74.5l132 235q41 -23 103 -39.5t131 -16.5q59 0 107.5 11t85 37.5t61.5 69t36 104.5l4 23q-23 -17 -55.5 -34.5t-71.5 -31.5t-84.5 -23.5t-94.5 -9.5q-105 0 -175 38t-108.5 105.5t-47 161.5t11.5 206zM532 509
q-11 -63 -5.5 -108t24 -73.5t48 -42t66.5 -13.5q19 0 40 4.5t41.5 11.5t39 16.5t31.5 18.5l75 422q-14 6 -46 12.5t-75 6.5t-81 -13t-68.5 -43t-53.5 -78.5t-36 -120.5z" />
    <glyph glyph-name="hbar" unicode="&#x127;" 
d="M371 1456h373l-83 -474q19 9 48 22t65.5 26t80 22t93.5 9q81 0 147 -26t110 -76.5t61 -125.5t0 -173l-116 -660h-372l106 605q3 19 5.5 46t-4.5 52t-28 42.5t-63 17.5q-22 0 -47.5 -5.5t-51 -14t-47.5 -18.5t-36 -18l-124 -707h-373zM918 1141h-713l41 232h713z" />
    <glyph glyph-name="hcircumflex" unicode="&#x125;" 
d="M371 1456h373l-83 -474q19 9 48 22t65.5 26t80 22t93.5 9q81 0 147 -26t110 -76.5t61 -125.5t0 -173l-116 -660h-372l106 605q3 19 5.5 46t-4.5 52t-28 42.5t-63 17.5q-22 0 -47.5 -5.5t-51 -14t-47.5 -18.5t-36 -18l-124 -707h-373zM407 1495l-226 61l277 272h363
l178 -272l-250 -62l-143 162z" />
    <glyph glyph-name="iacute" unicode="&#xed;" horiz-adv-x="604" 
d="M115 0l181 1028h374l-181 -1028h-374zM420 1219l282 363l247 -149l-370 -318z" />
    <glyph glyph-name="ibreve" unicode="&#x12d;" horiz-adv-x="604" 
d="M115 0l181 1028h374l-181 -1028h-374zM508 1157q-76 0 -127.5 14.5t-84.5 38t-51 53.5t-26.5 60.5t-10.5 59t-4 49.5l222 41q2 -23 5.5 -45t15 -38.5t34 -26.5t62.5 -10t65.5 10t42 26.5t27 38t21.5 44.5l208 -40q-9 -21 -21 -49.5t-31 -59t-47.5 -60.5t-70 -53.5
t-98 -38t-131.5 -14.5z" />
    <glyph glyph-name="icircumflex" unicode="&#xee;" horiz-adv-x="604" 
d="M115 0l181 1028h374l-181 -1028h-374zM333 1132l-226 61l277 272h363l178 -272l-250 -62l-143 162z" />
    <glyph glyph-name="idieresis" unicode="&#xef;" horiz-adv-x="604" 
d="M115 0l181 1028h374l-181 -1028h-374zM342 1447q92 0 128.5 -36t25.5 -102q-11 -65 -59 -101t-137 -36q-94 0 -130.5 37t-24.5 103q11 65 59.5 100t137.5 35zM793 1447q91 0 128 -36t26 -102q-11 -65 -60 -101t-137 -36q-94 0 -130.5 37t-24.5 103q11 65 59.5 100
t138.5 35z" />
    <glyph glyph-name="igrave" unicode="&#xec;" horiz-adv-x="604" 
d="M115 0l181 1028h374l-181 -1028h-374zM439 1129l-258 318l300 149l153 -363z" />
    <glyph glyph-name="imacron" unicode="&#x12b;" horiz-adv-x="604" 
d="M115 0l181 1028h374l-181 -1028h-374zM869 1160h-713l41 232h713z" />
    <glyph glyph-name="iogonek" unicode="&#x12f;" horiz-adv-x="604" 
d="M115 0l181 1028h374l-181 -1028h-374zM564 1494q111 0 155 -44t30 -123q-14 -78 -72.5 -121.5t-167.5 -43.5q-112 0 -157 44.5t-31 123.5q14 80 74 122t169 42zM441 -414q-45 -16 -97.5 -23t-109.5 -7q-134 0 -199 55t-48 152q7 40 26 75t46 64.5t59.5 53.5t65.5 44h210
q-34 -27 -61.5 -49t-47.5 -43t-32.5 -43.5t-17.5 -50.5q-5 -27 1.5 -44.5t20.5 -28.5t32.5 -15.5t37.5 -4.5q23 0 48.5 2t48.5 8z" />
    <glyph glyph-name="itilde" unicode="&#x129;" horiz-adv-x="604" 
d="M115 0l181 1028h374l-181 -1028h-374zM36 1275q30 50 68 90.5t82 69t92.5 44t99.5 15.5q50 0 89.5 -12t73 -27t65 -27t66.5 -12q24 0 40 3t29.5 10.5t27 20t31.5 32.5l163 -109q-33 -58 -75.5 -99.5t-87.5 -67.5t-89 -38.5t-79 -12.5q-50 0 -89 12t-73.5 27t-67 27
t-68.5 12q-27 0 -44.5 -4t-32 -12.5t-27.5 -21t-29 -28.5z" />
    <glyph glyph-name="jcircumflex" unicode="&#x135;" horiz-adv-x="604" 
d="M-203 -105q55 -16 96 -25t81 -9q34 0 59 14t42 35t26.5 47.5t14.5 52.5l180 1018h373l-181 -1025q-14 -79 -50 -156t-97.5 -137.5t-150.5 -98t-209 -37.5q-88 0 -163 20t-129 42zM317 1147l-226 61l277 272h363l178 -272l-250 -62l-143 162z" />
    <glyph glyph-name="kcommaaccent" unicode="&#x137;" horiz-adv-x="1257" 
d="M1347 1028q-39 -73 -85 -137t-96.5 -120.5t-104.5 -105t-108 -90.5q19 -65 55 -134.5t78 -136t85.5 -125t78.5 -99.5l-301 -174q-41 33 -87 88t-89.5 120t-80 135t-57.5 134q-24 -11 -45.5 -20.5t-41.5 -17.5l-60 -345h-373l256 1456h373l-135 -766q112 56 200 146
t151 192h387v0zM540 -39q115 0 161 -45.5t32 -126.5l-2 -8q-12 -77 -44 -152t-75 -143t-94.5 -126t-102.5 -100l-144 73q24 34 47.5 73t44.5 78t37.5 74.5t25.5 64.5q-44 5 -73 19t-45 36t-19.5 51t2.5 65q14 80 75.5 123.5t173.5 43.5z" />
    <glyph glyph-name="lacute" unicode="&#x13a;" horiz-adv-x="604" 
d="M115 0l256 1456h373l-256 -1456h-373zM502 1638l282 363l247 -149l-370 -318z" />
    <glyph glyph-name="lcaron" unicode="&#x13e;" horiz-adv-x="1022" 
d="M115 0l256 1456h373l-256 -1456h-373zM1051 1493q115 0 161 -45.5t32 -126.5l-2 -8q-12 -77 -44 -152t-75 -143t-94.5 -126t-102.5 -100l-144 73q24 34 47.5 73t44.5 78t37.5 74.5t25.5 64.5q-44 5 -73 19t-45 36t-19.5 51t2.5 65q14 80 75.5 123.5t173.5 43.5z" />
    <glyph glyph-name="ldot" unicode="&#x140;" horiz-adv-x="915" 
d="M915 871q92 0 128.5 -36t25.5 -102q-11 -65 -59 -101t-137 -36q-94 0 -130.5 37t-24.5 103q11 65 59.5 100t137.5 35zM115 0l256 1456h373l-256 -1456h-373z" />
    <glyph glyph-name="lslash" unicode="&#x142;" horiz-adv-x="604" 
d="M783 688l-679 -259l-53 215l679 258zM115 0l256 1456h373l-256 -1456h-373z" />
    <glyph glyph-name="nacute" unicode="&#x144;" 
d="M270 881q49 30 119 61.5t153 58t175.5 43.5t187.5 17q122 0 199.5 -32t119 -86t51 -126t-4.5 -153l-117 -664h-374l110 629q4 22 3 45t-10.5 41.5t-28.5 30t-51 11.5q-23 0 -49.5 -4.5t-52 -12t-48.5 -16.5t-40 -17l-124 -707h-373zM746 1239l282 363l247 -149l-370 -318
z" />
    <glyph glyph-name="ncaron" unicode="&#x148;" 
d="M272 881q49 30 119 61.5t153 58t175.5 43.5t187.5 17q122 0 199.5 -32t119 -86t51 -126t-4.5 -153l-117 -664h-374l110 629q4 22 3 45t-10.5 41.5t-28.5 30t-51 11.5q-23 0 -49.5 -4.5t-52 -12t-48.5 -16.5t-40 -17l-124 -707h-373zM872 1344l139 142l286 -71l-273 -242
h-363l-187 246l313 66z" />
    <glyph glyph-name="ncommaaccent" unicode="&#x146;" 
d="M270 881q49 30 119 61.5t153 58t175.5 43.5t187.5 17q122 0 199.5 -32t119 -86t51 -126t-4.5 -153l-117 -664h-374l110 629q4 22 3 45t-10.5 41.5t-28.5 30t-51 11.5q-23 0 -49.5 -4.5t-52 -12t-48.5 -16.5t-40 -17l-124 -707h-373zM568 -52q115 0 161 -45.5t32 -126.5
l-2 -8q-12 -77 -44 -152t-75 -143t-94.5 -126t-102.5 -100l-144 73q24 34 47.5 73t44.5 78t37.5 74.5t25.5 64.5q-44 5 -73 19t-45 36t-19.5 51t2.5 65q14 80 75.5 123.5t173.5 43.5z" />
    <glyph glyph-name="ntilde" unicode="&#xf1;" 
d="M280 881q49 30 119 61.5t153 58t175.5 43.5t187.5 17q122 0 199.5 -32t119 -86t51 -126t-4.5 -153l-117 -664h-374l110 629q4 22 3 45t-10.5 41.5t-28.5 30t-51 11.5q-23 0 -49.5 -4.5t-52 -12t-48.5 -16.5t-40 -17l-124 -707h-373zM422 1292q30 50 68 90.5t82 69
t92.5 44t99.5 15.5q50 0 89.5 -12t73 -27t65 -27t66.5 -12q24 0 40 3t29.5 10.5t27 20t31.5 32.5l163 -109q-33 -58 -75.5 -99.5t-87.5 -67.5t-89 -38.5t-79 -12.5q-50 0 -89 12t-73.5 27t-67 27t-68.5 12q-27 0 -44.5 -4t-32 -12.5t-27.5 -21t-29 -28.5z" />
    <glyph glyph-name="oacute" unicode="&#xf3;" horiz-adv-x="1255" 
d="M169 518q22 124 77 224t138.5 171t192 109.5t236.5 38.5q124 0 219.5 -36.5t155.5 -106t81.5 -170t-0.5 -229.5q-23 -128 -78.5 -229t-139 -171t-192 -106.5t-236.5 -36.5t-223.5 36t-154.5 105.5t-79 170.5t3 230zM534 519q-12 -69 -6.5 -116.5t25 -76.5t51.5 -41.5
t73 -12.5q40 0 76.5 13t65.5 42t51 76.5t34 116.5q12 67 6.5 113.5t-25 75.5t-51 42t-71.5 13q-41 0 -77 -13.5t-66 -43t-52 -76t-34 -112.5zM754 1245l282 363l247 -149l-370 -318z" />
    <glyph glyph-name="obreve" unicode="&#x14f;" horiz-adv-x="1255" 
d="M169 518q22 124 77 224t138.5 171t192 109.5t236.5 38.5q124 0 219.5 -36.5t155.5 -106t81.5 -170t-0.5 -229.5q-23 -128 -78.5 -229t-139 -171t-192 -106.5t-236.5 -36.5t-223.5 36t-154.5 105.5t-79 170.5t3 230zM534 519q-12 -69 -6.5 -116.5t25 -76.5t51.5 -41.5
t73 -12.5q40 0 76.5 13t65.5 42t51 76.5t34 116.5q12 67 6.5 113.5t-25 75.5t-51 42t-71.5 13q-41 0 -77 -13.5t-66 -43t-52 -76t-34 -112.5zM840 1169q-76 0 -127.5 14.5t-84.5 38t-51 53.5t-26.5 60.5t-10.5 59t-4 49.5l222 41q2 -23 5.5 -45t15 -38.5t34 -26.5t62.5 -10
t65.5 10t42 26.5t27 38t21.5 44.5l208 -40q-9 -21 -21 -49.5t-31 -59t-47.5 -60.5t-70 -53.5t-98 -38t-131.5 -14.5z" />
    <glyph glyph-name="ocircumflex" unicode="&#xf4;" horiz-adv-x="1255" 
d="M169 518q22 124 77 224t138.5 171t192 109.5t236.5 38.5q124 0 219.5 -36.5t155.5 -106t81.5 -170t-0.5 -229.5q-23 -128 -78.5 -229t-139 -171t-192 -106.5t-236.5 -36.5t-223.5 36t-154.5 105.5t-79 170.5t3 230zM534 519q-12 -69 -6.5 -116.5t25 -76.5t51.5 -41.5
t73 -12.5q40 0 76.5 13t65.5 42t51 76.5t34 116.5q12 67 6.5 113.5t-25 75.5t-51 42t-71.5 13q-41 0 -77 -13.5t-66 -43t-52 -76t-34 -112.5zM661 1147l-226 61l277 272h363l178 -272l-250 -62l-143 162z" />
    <glyph glyph-name="odieresis" unicode="&#xf6;" horiz-adv-x="1255" 
d="M169 518q22 124 77 224t138.5 171t192 109.5t236.5 38.5q124 0 219.5 -36.5t155.5 -106t81.5 -170t-0.5 -229.5q-23 -128 -78.5 -229t-139 -171t-192 -106.5t-236.5 -36.5t-223.5 36t-154.5 105.5t-79 170.5t3 230zM534 519q-12 -69 -6.5 -116.5t25 -76.5t51.5 -41.5
t73 -12.5q40 0 76.5 13t65.5 42t51 76.5t34 116.5q12 67 6.5 113.5t-25 75.5t-51 42t-71.5 13q-41 0 -77 -13.5t-66 -43t-52 -76t-34 -112.5zM646 1455q92 0 128.5 -36t25.5 -102q-11 -65 -59 -101t-137 -36q-94 0 -130.5 37t-24.5 103q11 65 59.5 100t137.5 35zM1097 1455
q91 0 128 -36t26 -102q-11 -65 -60 -101t-137 -36q-94 0 -130.5 37t-24.5 103q11 65 59.5 100t138.5 35z" />
    <glyph glyph-name="ograve" unicode="&#xf2;" horiz-adv-x="1255" 
d="M169 518q22 124 77 224t138.5 171t192 109.5t236.5 38.5q124 0 219.5 -36.5t155.5 -106t81.5 -170t-0.5 -229.5q-23 -128 -78.5 -229t-139 -171t-192 -106.5t-236.5 -36.5t-223.5 36t-154.5 105.5t-79 170.5t3 230zM534 519q-12 -69 -6.5 -116.5t25 -76.5t51.5 -41.5
t73 -12.5q40 0 76.5 13t65.5 42t51 76.5t34 116.5q12 67 6.5 113.5t-25 75.5t-51 42t-71.5 13q-41 0 -77 -13.5t-66 -43t-52 -76t-34 -112.5zM750 1140l-258 318l300 149l153 -363z" />
    <glyph glyph-name="ohungarumlaut" unicode="&#x151;" horiz-adv-x="1255" 
d="M169 518q22 124 77 224t138.5 171t192 109.5t236.5 38.5q124 0 219.5 -36.5t155.5 -106t81.5 -170t-0.5 -229.5q-23 -128 -78.5 -229t-139 -171t-192 -106.5t-236.5 -36.5t-223.5 36t-154.5 105.5t-79 170.5t3 230zM534 519q-12 -69 -6.5 -116.5t25 -76.5t51.5 -41.5
t73 -12.5q40 0 76.5 13t65.5 42t51 76.5t34 116.5q12 67 6.5 113.5t-25 75.5t-51 42t-71.5 13q-41 0 -77 -13.5t-66 -43t-52 -76t-34 -112.5zM517 1247l281 363l245 -145l-371 -319zM971 1247l282 363l245 -145l-371 -319z" />
    <glyph glyph-name="omacron" unicode="&#x14d;" horiz-adv-x="1255" 
d="M169 518q22 124 77 224t138.5 171t192 109.5t236.5 38.5q124 0 219.5 -36.5t155.5 -106t81.5 -170t-0.5 -229.5q-23 -128 -78.5 -229t-139 -171t-192 -106.5t-236.5 -36.5t-223.5 36t-154.5 105.5t-79 170.5t3 230zM534 519q-12 -69 -6.5 -116.5t25 -76.5t51.5 -41.5
t73 -12.5q40 0 76.5 13t65.5 42t51 76.5t34 116.5q12 67 6.5 113.5t-25 75.5t-51 42t-71.5 13q-41 0 -77 -13.5t-66 -43t-52 -76t-34 -112.5zM1198 1187h-713l41 232h713z" />
    <glyph glyph-name="otilde" unicode="&#xf5;" horiz-adv-x="1255" 
d="M169 518q22 124 77 224t138.5 171t192 109.5t236.5 38.5q124 0 219.5 -36.5t155.5 -106t81.5 -170t-0.5 -229.5q-23 -128 -78.5 -229t-139 -171t-192 -106.5t-236.5 -36.5t-223.5 36t-154.5 105.5t-79 170.5t3 230zM534 519q-12 -69 -6.5 -116.5t25 -76.5t51.5 -41.5
t73 -12.5q40 0 76.5 13t65.5 42t51 76.5t34 116.5q12 67 6.5 113.5t-25 75.5t-51 42t-71.5 13q-41 0 -77 -13.5t-66 -43t-52 -76t-34 -112.5zM394 1286q30 50 68 90.5t82 69t92.5 44t99.5 15.5q50 0 89.5 -12t73 -27t65 -27t66.5 -12q24 0 40 3t29.5 10.5t27 20t31.5 32.5
l163 -109q-33 -58 -75.5 -99.5t-87.5 -67.5t-89 -38.5t-79 -12.5q-50 0 -89 12t-73.5 27t-67 27t-68.5 12q-27 0 -44.5 -4t-32 -12.5t-27.5 -21t-29 -28.5z" />
    <glyph glyph-name="racute" unicode="&#x155;" horiz-adv-x="941" 
d="M296 890q102 60 206.5 99t206.5 55t198 10t181 -36l-99 -277q-40 7 -83.5 9.5t-88.5 -2.5t-91 -19.5t-92 -42.5l-120 -686h-374zM626 1241l282 363l247 -149l-370 -318z" />
    <glyph glyph-name="rcaron" unicode="&#x159;" horiz-adv-x="941" 
d="M296 890q102 60 206.5 99t206.5 55t198 10t181 -36l-99 -277q-40 7 -83.5 9.5t-88.5 -2.5t-91 -19.5t-92 -42.5l-120 -686h-374zM783 1343l139 142l286 -71l-273 -242h-363l-187 246l313 66z" />
    <glyph glyph-name="rcommaaccent" unicode="&#x157;" horiz-adv-x="941" 
d="M296 890q102 60 206.5 99t206.5 55t198 10t181 -36l-99 -277q-40 7 -83.5 9.5t-88.5 -2.5t-91 -19.5t-92 -42.5l-120 -686h-374zM269 -63q115 0 161 -45.5t32 -126.5l-2 -8q-12 -77 -44 -152t-75 -143t-94.5 -126t-102.5 -100l-144 73q24 34 47.5 73t44.5 78t37.5 74.5
t25.5 64.5q-44 5 -73 19t-45 36t-19.5 51t2.5 65q14 80 75.5 123.5t173.5 43.5z" />
    <glyph glyph-name="sacute" unicode="&#x15b;" horiz-adv-x="1015" 
d="M200 347q72 -39 148 -60t151 -21q28 0 53 4.5t45 12t32.5 18.5t14.5 23q2 13 -11.5 21.5t-40 17t-65 19t-86.5 26.5q-58 19 -107 45t-82 63.5t-46 91t0 128.5q16 90 66 152t119 100.5t150 55.5t159 17q71 0 130.5 -7.5t109 -21t89 -31t71.5 -36.5l-135 -250
q-69 27 -129.5 39.5t-111.5 12.5q-30 0 -57 -3t-48.5 -9.5t-35 -16.5t-16.5 -24q-2 -15 15 -24.5t44.5 -17.5t62.5 -15.5t69 -18.5q147 -47 206 -127t36 -205q-16 -90 -64 -153t-116 -102t-149.5 -57t-164.5 -18q-89 0 -161.5 11t-128.5 27.5t-95.5 35.5t-61.5 34zM695 1237
l282 363l247 -149l-370 -318z" />
    <glyph glyph-name="scaron" unicode="&#x161;" horiz-adv-x="1015" 
d="M200 347q72 -39 148 -60t151 -21q28 0 53 4.5t45 12t32.5 18.5t14.5 23q2 13 -11.5 21.5t-40 17t-65 19t-86.5 26.5q-58 19 -107 45t-82 63.5t-46 91t0 128.5q16 90 66 152t119 100.5t150 55.5t159 17q71 0 130.5 -7.5t109 -21t89 -31t71.5 -36.5l-135 -250
q-69 27 -129.5 39.5t-111.5 12.5q-30 0 -57 -3t-48.5 -9.5t-35 -16.5t-16.5 -24q-2 -15 15 -24.5t44.5 -17.5t62.5 -15.5t69 -18.5q147 -47 206 -127t36 -205q-16 -90 -64 -153t-116 -102t-149.5 -57t-164.5 -18q-89 0 -161.5 11t-128.5 27.5t-95.5 35.5t-61.5 34zM743 1328
l139 142l286 -71l-273 -242h-363l-187 246l313 66z" />
    <glyph glyph-name="scedilla" unicode="&#x15f;" horiz-adv-x="1015" 
d="M200 347q72 -39 148 -60t151 -21q28 0 53 4.5t45 12t32.5 18.5t14.5 23q2 13 -11.5 21.5t-40 17t-65 19t-86.5 26.5q-58 19 -107 45t-82 63.5t-46 91t0 128.5q16 90 66 152t119 100.5t150 55.5t159 17q71 0 130.5 -7.5t109 -21t89 -31t71.5 -36.5l-135 -250
q-69 27 -129.5 39.5t-111.5 12.5q-30 0 -57 -3t-48.5 -9.5t-35 -16.5t-16.5 -24q-2 -15 15 -24.5t44.5 -17.5t62.5 -15.5t69 -18.5q147 -47 206 -127t36 -205q-16 -90 -64 -153t-116 -102t-149.5 -57t-164.5 -18q-89 0 -161.5 11t-128.5 27.5t-95.5 35.5t-61.5 34zM258 -278
q22 -6 47 -8.5t48 -2.5q19 0 38.5 3.5t35.5 11t27.5 20t14.5 30.5q3 20 -2.5 32.5t-19 19.5t-33.5 9.5t-45 2.5q-14 0 -33.5 -1.5t-39.5 -5.5l99 163h233l-51 -76q63 -11 97.5 -54.5t21.5 -117.5q-17 -97 -96 -149.5t-213 -52.5q-57 0 -107 7.5t-88 23.5z" />
    <glyph glyph-name="scircumflex" unicode="&#x15d;" horiz-adv-x="1015" 
d="M200 347q72 -39 148 -60t151 -21q28 0 53 4.5t45 12t32.5 18.5t14.5 23q2 13 -11.5 21.5t-40 17t-65 19t-86.5 26.5q-58 19 -107 45t-82 63.5t-46 91t0 128.5q16 90 66 152t119 100.5t150 55.5t159 17q71 0 130.5 -7.5t109 -21t89 -31t71.5 -36.5l-135 -250
q-69 27 -129.5 39.5t-111.5 12.5q-30 0 -57 -3t-48.5 -9.5t-35 -16.5t-16.5 -24q-2 -15 15 -24.5t44.5 -17.5t62.5 -15.5t69 -18.5q147 -47 206 -127t36 -205q-16 -90 -64 -153t-116 -102t-149.5 -57t-164.5 -18q-89 0 -161.5 11t-128.5 27.5t-95.5 35.5t-61.5 34zM545 1120
l-226 61l277 272h363l178 -272l-250 -62l-143 162z" />
    <glyph glyph-name="scommaaccent" unicode="&#x219;" horiz-adv-x="1015" 
d="M200 347q72 -39 148 -60t151 -21q28 0 53 4.5t45 12t32.5 18.5t14.5 23q2 13 -11.5 21.5t-40 17t-65 19t-86.5 26.5q-58 19 -107 45t-82 63.5t-46 91t0 128.5q16 90 66 152t119 100.5t150 55.5t159 17q71 0 130.5 -7.5t109 -21t89 -31t71.5 -36.5l-135 -250
q-69 27 -129.5 39.5t-111.5 12.5q-30 0 -57 -3t-48.5 -9.5t-35 -16.5t-16.5 -24q-2 -15 15 -24.5t44.5 -17.5t62.5 -15.5t69 -18.5q147 -47 206 -127t36 -205q-16 -90 -64 -153t-116 -102t-149.5 -57t-164.5 -18q-89 0 -161.5 11t-128.5 27.5t-95.5 35.5t-61.5 34zM443 -95
q115 0 161 -45.5t32 -126.5l-2 -8q-12 -77 -44 -152t-75 -143t-94.5 -126t-102.5 -100l-144 73q24 34 47.5 73t44.5 78t37.5 74.5t25.5 64.5q-44 5 -73 19t-45 36t-19.5 51t2.5 65q14 80 75.5 123.5t173.5 43.5z" />
    <glyph glyph-name="tbar" unicode="&#x167;" horiz-adv-x="911" 
d="M714 427h-580l37 210h580zM239 998l117 30l92 264h328l-47 -264h215l-47 -268h-215l-67 -379q-9 -50 4 -79.5t65 -29.5q39 0 72 10t71 21l40 -242q-43 -20 -83.5 -35.5t-82 -26.5t-86.5 -17t-98 -6q-70 0 -130 18.5t-100 60t-56 109t2 165.5l76 431h-111z" />
    <glyph glyph-name="tcaron" unicode="&#x165;" horiz-adv-x="1222" 
d="M239 998l117 30l92 264h328l-47 -264h215l-47 -268h-215l-67 -379q-9 -50 4 -79.5t65 -29.5q39 0 72 10t71 21l40 -242q-43 -20 -83.5 -35.5t-82 -26.5t-86.5 -17t-98 -6q-70 0 -130 18.5t-100 60t-56 109t2 165.5l76 431h-111zM1241 1479q115 0 161 -45.5t32 -126.5
l-2 -8q-12 -77 -44 -152t-75 -143t-94.5 -126t-102.5 -100l-144 73q24 34 47.5 73t44.5 78t37.5 74.5t25.5 64.5q-44 5 -73 19t-45 36t-19.5 51t2.5 65q14 80 75.5 123.5t173.5 43.5z" />
    <glyph glyph-name="tcommaaccent" unicode="&#x163;" horiz-adv-x="911" 
d="M239 998l117 30l92 264h328l-47 -264h215l-47 -268h-215l-67 -379q-9 -50 4 -79.5t65 -29.5q39 0 72 10t71 21l40 -242q-43 -20 -83.5 -35.5t-82 -26.5t-86.5 -17t-98 -6q-70 0 -130 18.5t-100 60t-56 109t2 165.5l76 431h-111zM483 -82q115 0 161 -45.5t32 -126.5l-2 -8
q-12 -77 -44 -152t-75 -143t-94.5 -126t-102.5 -100l-144 73q24 34 47.5 73t44.5 78t37.5 74.5t25.5 64.5q-44 5 -73 19t-45 36t-19.5 51t2.5 65q14 80 75.5 123.5t173.5 43.5z" />
    <glyph glyph-name="uacute" unicode="&#xfa;" 
d="M290 1028h374l-104 -587q-9 -53 -3 -86t23 -51.5t41.5 -25t51.5 -6.5q45 0 85.5 13t71.5 33l125 710h374l-181 -1028h-329l-20 107q-27 -26 -61.5 -49.5t-74 -41.5t-83 -29t-88.5 -11q-101 0 -168 36t-103.5 97.5t-45 142t7.5 169.5zM746 1226l282 363l247 -149
l-370 -318z" />
    <glyph glyph-name="ubreve" unicode="&#x16d;" 
d="M290 1028h374l-104 -587q-9 -53 -3 -86t23 -51.5t41.5 -25t51.5 -6.5q45 0 85.5 13t71.5 33l125 710h374l-181 -1028h-329l-20 107q-27 -26 -61.5 -49.5t-74 -41.5t-83 -29t-88.5 -11q-101 0 -168 36t-103.5 97.5t-45 142t7.5 169.5zM857 1175q-76 0 -127.5 14.5
t-84.5 38t-51 53.5t-26.5 60.5t-10.5 59t-4 49.5l222 41q2 -23 5.5 -45t15 -38.5t34 -26.5t62.5 -10t65.5 10t42 26.5t27 38t21.5 44.5l208 -40q-9 -21 -21 -49.5t-31 -59t-47.5 -60.5t-70 -53.5t-98 -38t-131.5 -14.5z" />
    <glyph glyph-name="ucircumflex" unicode="&#xfb;" 
d="M290 1028h374l-104 -587q-9 -53 -3 -86t23 -51.5t41.5 -25t51.5 -6.5q45 0 85.5 13t71.5 33l125 710h374l-181 -1028h-329l-20 107q-27 -26 -61.5 -49.5t-74 -41.5t-83 -29t-88.5 -11q-101 0 -168 36t-103.5 97.5t-45 142t7.5 169.5zM670 1147l-226 61l277 272h363
l178 -272l-250 -62l-143 162z" />
    <glyph glyph-name="udieresis" unicode="&#xfc;" 
d="M290 1028h374l-104 -587q-9 -53 -3 -86t23 -51.5t41.5 -25t51.5 -6.5q45 0 85.5 13t71.5 33l125 710h374l-181 -1028h-329l-20 107q-27 -26 -61.5 -49.5t-74 -41.5t-83 -29t-88.5 -11q-101 0 -168 36t-103.5 97.5t-45 142t7.5 169.5zM674 1451q92 0 128.5 -36t25.5 -102
q-11 -65 -59 -101t-137 -36q-94 0 -130.5 37t-24.5 103q11 65 59.5 100t137.5 35zM1125 1451q91 0 128 -36t26 -102q-11 -65 -60 -101t-137 -36q-94 0 -130.5 37t-24.5 103q11 65 59.5 100t138.5 35z" />
    <glyph glyph-name="uhungarumlaut" unicode="&#x171;" 
d="M302 1028h374l-104 -587q-9 -53 -3 -86t23 -51.5t41.5 -25t51.5 -6.5q45 0 85.5 13t71.5 33l125 710h374l-181 -1028h-329l-20 107q-27 -26 -61.5 -49.5t-74 -41.5t-83 -29t-88.5 -11q-101 0 -168 36t-103.5 97.5t-45 142t7.5 169.5zM512 1223l281 363l245 -145
l-371 -319zM966 1223l282 363l245 -145l-371 -319z" />
    <glyph glyph-name="ugrave" unicode="&#xf9;" 
d="M290 1028h374l-104 -587q-9 -53 -3 -86t23 -51.5t41.5 -25t51.5 -6.5q45 0 85.5 13t71.5 33l125 710h374l-181 -1028h-329l-20 107q-27 -26 -61.5 -49.5t-74 -41.5t-83 -29t-88.5 -11q-101 0 -168 36t-103.5 97.5t-45 142t7.5 169.5zM808 1134l-258 318l300 149l153 -363
z" />
    <glyph glyph-name="umacron" unicode="&#x16b;" 
d="M294 1028h374l-104 -587q-9 -53 -3 -86t23 -51.5t41.5 -25t51.5 -6.5q45 0 85.5 13t71.5 33l125 710h374l-181 -1028h-329l-20 107q-27 -26 -61.5 -49.5t-74 -41.5t-83 -29t-88.5 -11q-101 0 -168 36t-103.5 97.5t-45 142t7.5 169.5zM1221 1160h-713l41 232h713z" />
    <glyph glyph-name="uogonek" unicode="&#x173;" 
d="M290 1028h374l-104 -587q-9 -53 -3 -86t23 -51.5t41.5 -25t51.5 -6.5q45 0 85.5 13t71.5 33l125 710h374l-181 -1028h-329l-20 107q-27 -26 -61.5 -49.5t-74 -41.5t-83 -29t-88.5 -11q-101 0 -168 36t-103.5 97.5t-45 142t7.5 169.5zM1178 -414q-45 -16 -97.5 -23
t-109.5 -7q-134 0 -199 55t-48 152q7 40 26 75t46 64.5t59.5 53.5t65.5 44h210q-34 -27 -61.5 -49t-47.5 -43t-32.5 -43.5t-17.5 -50.5q-5 -27 1.5 -44.5t20.5 -28.5t32.5 -15.5t37.5 -4.5q23 0 48.5 2t48.5 8z" />
    <glyph glyph-name="uring" unicode="&#x16f;" 
d="M290 1028h374l-104 -587q-9 -53 -3 -86t23 -51.5t41.5 -25t51.5 -6.5q45 0 85.5 13t71.5 33l125 710h374l-181 -1028h-329l-20 107q-27 -26 -61.5 -49.5t-74 -41.5t-83 -29t-88.5 -11q-101 0 -168 36t-103.5 97.5t-45 142t7.5 169.5zM899 1397q-70 0 -81 -56
q-11 -59 64 -59q36 0 54.5 15.5t23.5 41.5q10 58 -61 58zM920 1519q117 0 164 -46.5t32 -133.5q-15 -84 -77 -131.5t-177 -47.5q-118 0 -166 47.5t-32 135.5q15 86 79 131t177 45z" />
    <glyph glyph-name="utilde" unicode="&#x169;" 
d="M294 1028h374l-104 -587q-9 -53 -3 -86t23 -51.5t41.5 -25t51.5 -6.5q45 0 85.5 13t71.5 33l125 710h374l-181 -1028h-329l-20 107q-27 -26 -61.5 -49.5t-74 -41.5t-83 -29t-88.5 -11q-101 0 -168 36t-103.5 97.5t-45 142t7.5 169.5zM385 1271q30 50 68 90.5t82 69
t92.5 44t99.5 15.5q50 0 89.5 -12t73 -27t65 -27t66.5 -12q24 0 40 3t29.5 10.5t27 20t31.5 32.5l163 -109q-33 -58 -75.5 -99.5t-87.5 -67.5t-89 -38.5t-79 -12.5q-50 0 -89 12t-73.5 27t-67 27t-68.5 12q-27 0 -44.5 -4t-32 -12.5t-27.5 -21t-29 -28.5z" />
    <glyph glyph-name="wacute" unicode="&#x1e83;" horiz-adv-x="1881" 
d="M2000 1028q-30 -120 -79 -254.5t-109.5 -269.5t-127.5 -264t-132 -240h-457q-28 121 -46.5 244.5t-20.5 255.5h-2q-50 -141 -115 -267t-128 -233h-455q-17 63 -32.5 145.5t-28.5 175t-22.5 189.5t-13.5 190.5t-2 177.5t12 150l393 10q-13 -79 -22 -168t-13 -179.5
t-1.5 -178.5t12.5 -166h13q29 51 58.5 111t58 123.5t54 127.5t47 122.5t38 109.5t25.5 88h433q-7 -77 -7 -163t6 -174.5t16.5 -176t25.5 -168.5h13q21 45 44 103.5t46 123.5t44 132t38.5 129t30 115t17.5 89zM1082 1244l282 363l247 -149l-370 -318z" />
    <glyph glyph-name="wcircumflex" unicode="&#x175;" horiz-adv-x="1881" 
d="M2000 1028q-30 -120 -79 -254.5t-109.5 -269.5t-127.5 -264t-132 -240h-457q-28 121 -46.5 244.5t-20.5 255.5h-2q-50 -141 -115 -267t-128 -233h-455q-17 63 -32.5 145.5t-28.5 175t-22.5 189.5t-13.5 190.5t-2 177.5t12 150l393 10q-13 -79 -22 -168t-13 -179.5
t-1.5 -178.5t12.5 -166h13q29 51 58.5 111t58 123.5t54 127.5t47 122.5t38 109.5t25.5 88h433q-7 -77 -7 -163t6 -174.5t16.5 -176t25.5 -168.5h13q21 45 44 103.5t46 123.5t44 132t38.5 129t30 115t17.5 89zM969 1153l-226 61l277 272h363l178 -272l-250 -62l-143 162z" />
    <glyph glyph-name="wdieresis" unicode="&#x1e85;" horiz-adv-x="1881" 
d="M2000 1028q-30 -120 -79 -254.5t-109.5 -269.5t-127.5 -264t-132 -240h-457q-28 121 -46.5 244.5t-20.5 255.5h-2q-50 -141 -115 -267t-128 -233h-455q-17 63 -32.5 145.5t-28.5 175t-22.5 189.5t-13.5 190.5t-2 177.5t12 150l393 10q-13 -79 -22 -168t-13 -179.5
t-1.5 -178.5t12.5 -166h13q29 51 58.5 111t58 123.5t54 127.5t47 122.5t38 109.5t25.5 88h433q-7 -77 -7 -163t6 -174.5t16.5 -176t25.5 -168.5h13q21 45 44 103.5t46 123.5t44 132t38.5 129t30 115t17.5 89zM951 1437q92 0 128.5 -36t25.5 -102q-11 -65 -59 -101t-137 -36
q-94 0 -130.5 37t-24.5 103q11 65 59.5 100t137.5 35zM1402 1437q91 0 128 -36t26 -102q-11 -65 -60 -101t-137 -36q-94 0 -130.5 37t-24.5 103q11 65 59.5 100t138.5 35z" />
    <glyph glyph-name="wgrave" unicode="&#x1e81;" horiz-adv-x="1881" 
d="M2000 1028q-30 -120 -79 -254.5t-109.5 -269.5t-127.5 -264t-132 -240h-457q-28 121 -46.5 244.5t-20.5 255.5h-2q-50 -141 -115 -267t-128 -233h-455q-17 63 -32.5 145.5t-28.5 175t-22.5 189.5t-13.5 190.5t-2 177.5t12 150l393 10q-13 -79 -22 -168t-13 -179.5
t-1.5 -178.5t12.5 -166h13q29 51 58.5 111t58 123.5t54 127.5t47 122.5t38 109.5t25.5 88h433q-7 -77 -7 -163t6 -174.5t16.5 -176t25.5 -168.5h13q21 45 44 103.5t46 123.5t44 132t38.5 129t30 115t17.5 89zM1077 1133l-258 318l300 149l153 -363z" />
    <glyph glyph-name="yacute" unicode="&#xfd;" horiz-adv-x="1221" 
d="M118 -349q90 86 169 169t150 180h-45q-50 113 -85.5 246t-57 270t-30 269t-2.5 243l401 10q-8 -86 -11 -180.5t1 -189t16 -186t33 -170.5h20q33 48 65 110.5t61.5 131.5t56 139.5t48 135t37 119t24.5 90.5l398 -10q-18 -70 -51.5 -157.5t-77.5 -183.5t-95.5 -194
t-104.5 -189t-105.5 -169.5t-98.5 -134.5q-36 -50 -86.5 -116t-106.5 -136.5t-113.5 -138.5t-107.5 -121zM761 1242l282 363l247 -149l-370 -318z" />
    <glyph glyph-name="ycircumflex" unicode="&#x177;" horiz-adv-x="1221" 
d="M118 -349q90 86 169 169t150 180h-45q-50 113 -85.5 246t-57 270t-30 269t-2.5 243l401 10q-8 -86 -11 -180.5t1 -189t16 -186t33 -170.5h20q33 48 65 110.5t61.5 131.5t56 139.5t48 135t37 119t24.5 90.5l398 -10q-18 -70 -51.5 -157.5t-77.5 -183.5t-95.5 -194
t-104.5 -189t-105.5 -169.5t-98.5 -134.5q-36 -50 -86.5 -116t-106.5 -136.5t-113.5 -138.5t-107.5 -121zM631 1151l-226 61l277 272h363l178 -272l-250 -62l-143 162z" />
    <glyph glyph-name="ydieresis" unicode="&#xff;" horiz-adv-x="1221" 
d="M118 -349q90 86 169 169t150 180h-45q-50 113 -85.5 246t-57 270t-30 269t-2.5 243l401 10q-8 -86 -11 -180.5t1 -189t16 -186t33 -170.5h20q33 48 65 110.5t61.5 131.5t56 139.5t48 135t37 119t24.5 90.5l398 -10q-18 -70 -51.5 -157.5t-77.5 -183.5t-95.5 -194
t-104.5 -189t-105.5 -169.5t-98.5 -134.5q-36 -50 -86.5 -116t-106.5 -136.5t-113.5 -138.5t-107.5 -121zM634 1423q92 0 128.5 -36t25.5 -102q-11 -65 -59 -101t-137 -36q-94 0 -130.5 37t-24.5 103q11 65 59.5 100t137.5 35zM1085 1423q91 0 128 -36t26 -102
q-11 -65 -60 -101t-137 -36q-94 0 -130.5 37t-24.5 103q11 65 59.5 100t138.5 35z" />
    <glyph glyph-name="ygrave" unicode="&#x1ef3;" horiz-adv-x="1221" 
d="M118 -349q90 86 169 169t150 180h-45q-50 113 -85.5 246t-57 270t-30 269t-2.5 243l401 10q-8 -86 -11 -180.5t1 -189t16 -186t33 -170.5h20q33 48 65 110.5t61.5 131.5t56 139.5t48 135t37 119t24.5 90.5l398 -10q-18 -70 -51.5 -157.5t-77.5 -183.5t-95.5 -194
t-104.5 -189t-105.5 -169.5t-98.5 -134.5q-36 -50 -86.5 -116t-106.5 -136.5t-113.5 -138.5t-107.5 -121zM787 1133l-258 318l300 149l153 -363z" />
    <glyph glyph-name="zacute" unicode="&#x17a;" horiz-adv-x="1068" 
d="M240 732l52 296h851l-45 -256q-55 -63 -120.5 -121.5t-133 -115.5t-133.5 -115t-122 -120v-4h434l-52 -296h-895l48 275q54 60 118.5 116t131 110.5t130.5 110.5t118 116l1 4h-383zM672 1238l282 363l247 -149l-370 -318z" />
    <glyph glyph-name="zcaron" unicode="&#x17e;" horiz-adv-x="1068" 
d="M240 732l52 296h851l-45 -256q-55 -63 -120.5 -121.5t-133 -115.5t-133.5 -115t-122 -120v-4h434l-52 -296h-895l48 275q54 60 118.5 116t131 110.5t130.5 110.5t118 116l1 4h-383zM763 1344l139 142l286 -71l-273 -242h-363l-187 246l313 66z" />
    <glyph glyph-name="zdotaccent" unicode="&#x17c;" horiz-adv-x="1068" 
d="M240 732l52 296h851l-45 -256q-55 -63 -120.5 -121.5t-133 -115.5t-133.5 -115t-122 -120v-4h434l-52 -296h-895l48 275q54 60 118.5 116t131 110.5t130.5 110.5t118 116l1 4h-383zM812 1427q92 0 128.5 -36t25.5 -102q-11 -65 -59 -101t-137 -36q-94 0 -130.5 37
t-24.5 103q11 65 59.5 100t137.5 35z" />
    <glyph glyph-name="macron" unicode="&#xaf;" horiz-adv-x="1212" 
d="M1225 1160h-713l41 232h713z" />
    <glyph glyph-name="dotlessi" unicode="&#x131;" horiz-adv-x="604" 
d="M115 0l181 1028h374l-181 -1028h-374z" />
    <glyph glyph-name="dotlessj" unicode="&#x237;" horiz-adv-x="604" 
d="M-203 -105q55 -16 96 -25t81 -9q34 0 59 14t42 35t26.5 47.5t14.5 52.5l180 1018h373l-181 -1025q-14 -79 -50 -156t-97.5 -137.5t-150.5 -98t-209 -37.5q-88 0 -163 20t-129 42z" />
    <glyph glyph-name="cent" unicode="&#xa2;" horiz-adv-x="1034" 
d="M578 984l40 224h335l-39 -217zM747 41l-35 -196h-335l35 196h335zM148 523q22 123 74 222.5t130.5 169.5t181 108t225.5 38q100 0 193 -24t178 -78l-138 -240q-23 10 -44 18.5t-44.5 14.5t-50 9t-59.5 3q-238 0 -283 -250q-12 -67 -0.5 -113.5t39 -75t67 -41.5t84.5 -13
q61 0 115 13t104 33l55 -240q-43 -21 -88 -39t-96 -32t-108.5 -22t-126.5 -8q-94 0 -164 21.5t-119.5 59.5t-79.5 90t-44 113t-13.5 128t12.5 135z" />
    <glyph glyph-name="dollar" unicode="$" horiz-adv-x="1196" 
d="M673 1378l29 163h334l-29 -163h-334zM770 33l-33 -188h-334l33 188h334zM208 392q60 -27 111 -46.5t97.5 -31.5t90 -17.5t89.5 -5.5q96 0 147.5 30.5t60.5 81.5q9 54 -42 89t-148 61q-97 25 -175 57.5t-129.5 79.5t-72.5 114t-4 163q19 106 67.5 190.5t127.5 143
t189 89.5t253 31q52 0 112.5 -7.5t122 -23t120 -39t107.5 -54.5l-158 -263q-71 32 -154 52t-164 20q-209 0 -227 -106q-5 -29 5 -50t35.5 -37t66 -30t94.5 -30q105 -29 180.5 -67.5t121.5 -90t62.5 -117t1.5 -147.5q-18 -106 -66 -190t-125 -143t-185 -90.5t-246 -31.5
q-87 0 -160 9t-137 26.5t-121.5 42.5t-112.5 57z" />
    <glyph glyph-name="currency" unicode="&#xa4;" horiz-adv-x="1128" 
d="M734 1039q98 0 173 -20l168 147l142 -164l-137 -103q44 -82 23 -206q-11 -57 -32 -105.5t-56 -88.5l95 -98l-200 -163l-107 135q-80 -21 -180 -21q-103 0 -181 20l-155 -135l-143 163l125 95q-45 80 -22 206q22 124 96 204l-93 98l201 163l113 -144q38 8 80 12.5t90 4.5z
M699 835q-80 0 -129 -32.5t-61 -103.5q-26 -144 144 -144q87 0 130.5 38t54.5 100q13 75 -22.5 108.5t-116.5 33.5z" />
    <glyph glyph-name="AEacute" unicode="&#x1fc;" horiz-adv-x="1973" 
d="M932 0l44 255h-432q-42 -86 -72 -150.5t-43 -104.5h-422q21 57 56.5 136.5t83 178t107 213.5t129.5 242q63 114 123 211.5t113 177t97 139.5t75 98h1341l-56 -315h-578l-40 -230h493l-52 -293h-493l-43 -243h601l-55 -315h-977zM984 1080q-27 -42 -62 -103.5t-74 -133
t-80 -148.5t-79 -150h339l94 535h-138zM1355 1577l282 363l247 -149l-370 -318z" />
    <glyph glyph-name="commaaccent" unicode="&#xf6c3;" horiz-adv-x="0" 
 />
    <glyph glyph-name="Oslash" unicode="&#xd8;" horiz-adv-x="1575" 
d="M1629 695q-31 -168 -104 -302t-181.5 -227t-248.5 -142t-305 -48q-39 0 -75 3l-87 -159l-332 81l97 176q-138 89 -191 246.5t-13 371.5q32 168 104.5 302t181.5 228t252.5 144.5t317.5 51.5q40 0 78 -3l74 134l336 -82l-90 -161q128 -93 176 -250.5t10 -363.5zM988 1106
q-86 0 -155.5 -32.5t-122 -88.5t-88 -131t-52.5 -159q-16 -81 -7 -154.5t43 -129t93.5 -88t145.5 -32.5q77 0 144.5 30.5t120 84.5t89 128t51.5 161q15 83 5.5 157.5t-42 131t-89 89.5t-136.5 33z" />
    <glyph glyph-name="Oslashacute" unicode="&#x1fe;" horiz-adv-x="1575" 
d="M1629 695q-31 -168 -104 -302t-181.5 -227t-248.5 -142t-305 -48q-39 0 -75 3l-87 -159l-332 81l97 176q-138 89 -191 246.5t-13 371.5q32 168 104.5 302t181.5 228t252.5 144.5t317.5 51.5q40 0 78 -3l74 134l336 -82l-90 -161q128 -93 176 -250.5t10 -363.5zM988 1106
q-86 0 -155.5 -32.5t-122 -88.5t-88 -131t-52.5 -159q-16 -81 -7 -154.5t43 -129t93.5 -88t145.5 -32.5q77 0 144.5 30.5t120 84.5t89 128t51.5 161q15 83 5.5 157.5t-42 131t-89 89.5t-136.5 33zM944 1674l282 363l247 -149l-370 -318z" />
    <glyph glyph-name="aeacute" unicode="&#x1fd;" horiz-adv-x="1836" 
d="M133 487q26 149 85.5 257t148.5 178.5t206.5 104.5t259.5 34q91 0 179 -19t162 -47q138 66 313 66q111 0 191.5 -30.5t130 -81t68 -115t6.5 -132.5q-10 -57 -38 -120t-81 -115.5t-135 -87t-200 -34.5h-222q24 -42 75.5 -62t138.5 -20q38 0 74 7.5t70.5 19t67.5 26
t65 28.5l55 -252q-97 -54 -210.5 -85t-232.5 -31q-117 0 -205 24h-329l-20 110q-22 -18 -54 -41t-72.5 -44t-88.5 -35t-101 -14q-95 0 -162.5 36t-106.5 102.5t-49 161t11 211.5zM503 509q-11 -65 -5.5 -110t24 -73.5t47.5 -41t64 -12.5q42 0 83.5 15.5t72.5 36.5l74 420
q-14 5 -45 12.5t-82 7.5q-87 0 -148 -59.5t-85 -195.5zM1416 766q-35 0 -63.5 -11.5t-51.5 -31t-41 -44t-31 -51.5h185q42 0 68.5 10.5t32.5 42.5q4 23 -2.5 39.5t-20 26.5t-33.5 14.5t-43 4.5zM1121 1268l282 363l247 -149l-370 -318z" />
    <glyph glyph-name="kgreenlandic" unicode="&#x138;" horiz-adv-x="1257" 
d="M1347 1028q-39 -73 -85 -137t-96.5 -120.5t-104.5 -105t-108 -90.5q19 -65 55 -134.5t78 -136t85.5 -125t78.5 -99.5l-301 -174q-41 33 -87 88t-89.5 120t-80 135t-57.5 134q-24 -11 -45.5 -20.5t-41.5 -17.5l-60 -345h-373l181 1028h373l-60 -338q112 56 200 146
t151 192h387v0z" />
    <glyph glyph-name="oslash" unicode="&#xf8;" horiz-adv-x="1255" 
d="M169 518q22 124 77 224t138.5 171t192 109.5t236.5 38.5q10 0 19 -0.5t19 -0.5l80 143l273 -88l-77 -141q93 -68 131.5 -182.5t10.5 -272.5q-23 -128 -78.5 -229t-139 -171t-192 -106.5t-236.5 -36.5q-11 0 -22 0.5t-22 1.5l-67 -121l-277 81l69 125q-93 68 -128 182.5
t-7 272.5zM534 519q-12 -69 -6.5 -116.5t25 -76.5t51.5 -41.5t73 -12.5q40 0 76.5 13t65.5 42t51 76.5t34 116.5q12 67 6.5 113.5t-25 75.5t-51 42t-71.5 13q-41 0 -77 -13.5t-66 -43t-52 -76t-34 -112.5z" />
    <glyph glyph-name="oslashacute" unicode="&#x1ff;" horiz-adv-x="1255" 
d="M169 518q22 124 77 224t138.5 171t192 109.5t236.5 38.5q10 0 19 -0.5t19 -0.5l80 143l273 -88l-77 -141q93 -68 131.5 -182.5t10.5 -272.5q-23 -128 -78.5 -229t-139 -171t-192 -106.5t-236.5 -36.5q-11 0 -22 0.5t-22 1.5l-67 -121l-277 81l69 125q-93 68 -128 182.5
t-7 272.5zM534 519q-12 -69 -6.5 -116.5t25 -76.5t51.5 -41.5t73 -12.5q40 0 76.5 13t65.5 42t51 76.5t34 116.5q12 67 6.5 113.5t-25 75.5t-51 42t-71.5 13q-41 0 -77 -13.5t-66 -43t-52 -76t-34 -112.5zM692 1305l282 363l247 -149l-370 -318z" />
    <glyph glyph-name="Eng" unicode="&#x14a;" horiz-adv-x="1612" 
d="M1461 -2q-20 -115 -57 -202.5t-94 -146t-136.5 -88t-185.5 -29.5q-44 0 -87.5 5.5t-84.5 15t-77.5 21.5t-66.5 25l106 282q31 -13 74 -23t81 -10q33 0 56.5 10.5t39.5 30t26 47.5t16 63l49 278h390zM150 0l246 1396h407q33 -47 64.5 -110t62 -133.5t60.5 -145.5
t60 -146.5t61.5 -136t64.5 -114.5h10l132 786h390l-246 -1396h-400q-38 51 -73 113.5t-67.5 131t-63 139.5t-60.5 137.5t-60.5 126t-62.5 105.5h-11l-124 -753h-390z" />
    <glyph glyph-name="eng" unicode="&#x14b;" 
d="M270 881q49 30 121 61.5t156.5 58t176.5 43.5t181 17q122 0 199 -32t118 -86t50 -126t-5 -153l-117 -664q-14 -78 -50.5 -154.5t-98 -137t-150.5 -97.5t-209 -37q-88 0 -163 20t-129 42l108 259q54 -16 95.5 -25t81.5 -9q34 0 59 14t42.5 35t27 47.5t14.5 52.5l108 611
q4 23 3 46t-10 41.5t-27.5 30t-50.5 11.5q-23 0 -49.5 -5t-52.5 -13t-49 -17.5t-40 -18.5l-122 -696h-373z" />
    <glyph glyph-name="fraction" unicode="&#x2044;" horiz-adv-x="1030" 
d="M114 0l732 1396h313l-731 -1396h-314z" />
    <glyph glyph-name="afii10017" unicode="&#x410;" horiz-adv-x="1510" 
d="M1060 -10q-2 60 -4.5 124.5t-6.5 133.5h-501q-32 -76 -58 -142t-45 -116l-404 10q22 58 56 137.5t76 171.5t90 193.5t99 204t103.5 202.5t102.5 190t96 166.5t85 130.5h504q18 -48 37 -120t37 -159.5t35 -187t32 -202.5t28 -206.5t22.5 -198t15.5 -177.5t8 -145z
M933 1081q-29 -53 -60.5 -115t-64 -130t-65.5 -140t-65 -144h349q-13 137 -30 270.5t-40 258.5h-24z" />
    <glyph glyph-name="afii10018" unicode="&#x411;" horiz-adv-x="1309" 
d="M573 277h147q94 0 146.5 37t66.5 115q13 70 -23.5 111.5t-126.5 41.5h-156zM1295 1134h-571l-50 -287h154q146 0 243.5 -34.5t152.5 -93.5t71.5 -137t1.5 -164q-36 -203 -177 -310.5t-388 -107.5h-582l246 1396h946z" />
    <glyph glyph-name="afii10019" unicode="&#x412;" horiz-adv-x="1309" 
d="M150 0l246 1396h553q106 0 192 -23.5t144 -70t83 -115.5t9 -160q-11 -61 -39.5 -109t-66 -83.5t-80.5 -59.5t-83 -37l-2 -9q54 -17 96.5 -48t69.5 -74t37 -98t-2 -120q-16 -91 -59 -163t-113 -122.5t-167 -77t-221 -26.5h-597zM588 277h148q94 0 146 37t66 115
q13 70 -23.5 111.5t-126.5 41.5h-156zM689 847h143q81 0 132.5 40.5t63.5 107.5t-26.5 103t-122.5 36h-140z" />
    <glyph glyph-name="afii10020" unicode="&#x413;" horiz-adv-x="1129" 
d="M1338 1396l-56 -315h-546l-190 -1081h-390l246 1396h936z" />
    <glyph glyph-name="afii10022" unicode="&#x415;" horiz-adv-x="1217" 
d="M150 0l246 1396h949l-57 -315h-573l-40 -230h489l-52 -293h-489l-43 -243h597l-55 -315h-972z" />
    <glyph glyph-name="afii10023" unicode="&#x401;" horiz-adv-x="1217" 
d="M150 0l246 1396h963l-56 -315h-573l-40 -230h488l-52 -293h-488l-43 -243h596l-55 -315h-986zM772 1772q92 0 128.5 -36t25.5 -102q-11 -65 -59 -101t-137 -36q-94 0 -130.5 37t-24.5 103q11 65 59.5 100t137.5 35zM1223 1772q91 0 128 -36t26 -102q-11 -65 -60 -101
t-137 -36q-94 0 -130.5 37t-24.5 103q11 65 59.5 100t138.5 35z" />
    <glyph glyph-name="afii10026" unicode="&#x418;" horiz-adv-x="1612" 
d="M1072 0l139 753h-10q-48 -46 -99 -105.5t-105 -126t-109.5 -137.5t-112 -139.5t-113.5 -131t-113 -113.5h-399l246 1396h390l-146 -786h10q51 50 105 114.5t109.5 136t111.5 146.5t111.5 145.5t109 133.5t104.5 110h407l-246 -1396h-390z" />
    <glyph glyph-name="afii10027" unicode="&#x419;" horiz-adv-x="1612" 
d="M1072 0l139 753h-10q-48 -46 -99 -105.5t-105 -126t-109.5 -137.5t-112 -139.5t-113.5 -131t-113 -113.5h-399l246 1396h390l-146 -786h10q51 50 105 114.5t109.5 136t111.5 146.5t111.5 145.5t109 133.5t104.5 110h407l-246 -1396h-390zM1125 1519q-76 0 -127.5 14.5
t-84.5 38t-51 53.5t-26.5 60.5t-10.5 59t-4 49.5l222 41q2 -23 5.5 -45t15 -38.5t34 -26.5t62.5 -10t65.5 10t42 26.5t27 38t21.5 44.5l208 -40q-9 -21 -21 -49.5t-31 -59t-47.5 -60.5t-70 -53.5t-98 -38t-131.5 -14.5z" />
    <glyph glyph-name="afii10028" unicode="&#x41a;" horiz-adv-x="1444" 
d="M150 0l246 1396h390l-90 -509q76 58 142.5 116.5t125 120.5t109.5 129.5t96 142.5h421q-44 -80 -101 -161.5t-123 -160.5t-139 -154.5t-150 -142.5q25 -74 64.5 -162t89 -178t107 -176t118.5 -158l-322 -193q-53 53 -107.5 128.5t-104 161.5t-91 176.5t-68.5 173.5
q-35 -20 -69.5 -37.5t-69.5 -31.5l-84 -481h-390z" />
    <glyph glyph-name="afii10029" unicode="&#x41b;" horiz-adv-x="1607" 
d="M1253 1081h-385l-39 -219q-13 -76 -34.5 -171.5t-54 -194t-77 -192t-104 -166.5t-135 -117.5t-169.5 -44.5q-31 0 -64 2.5t-61 5.5t-47 5.5t-20 2.5l42 276q20 2 43.5 1t50.5 4q35 6 65.5 44.5t55.5 95t45.5 124t35.5 131.5t25.5 118t15.5 83l93 527h1167l-246 -1396
h-393z" />
    <glyph glyph-name="afii10030" unicode="&#x41c;" horiz-adv-x="1925" 
d="M76 0q18 89 35.5 168.5t35.5 157t37.5 156t42.5 165.5q28 110 57 215t57 200.5t54.5 180t48.5 152.5h526l86 -865h15l389 865h527q-4 -139 -13.5 -326t-31.5 -422q-10 -100 -19.5 -187.5t-19 -166t-19 -151t-19.5 -142.5h-399q11 66 22.5 143.5t23.5 160.5t23.5 168
t20.5 165.5t14.5 153t7.5 130.5h-14l-422 -920h-343l-99 920h-14q-32 -100 -61.5 -218.5t-56 -241t-50.5 -241.5t-43 -220h-399z" />
    <glyph glyph-name="afii10031" unicode="&#x41d;" horiz-adv-x="1577" 
d="M150 0l246 1396h390l-95 -534h491l95 534h393l-246 -1396h-393l96 546h-491l-96 -546h-390z" />
    <glyph glyph-name="afii10032" unicode="&#x41e;" horiz-adv-x="1575" 
d="M1629 695q-31 -168 -104 -302t-181.5 -227t-248.5 -142t-305 -48q-172 1 -299 51.5t-204.5 144t-103 226t5.5 297.5q32 168 104.5 302t181.5 228t252.5 144.5t317.5 51.5q168 1 291.5 -51t198.5 -147.5t99.5 -230t-5.5 -297.5zM988 1106q-86 0 -155.5 -32.5t-122 -88.5
t-88 -131t-52.5 -159q-16 -81 -7 -154.5t43 -129t93.5 -88t145.5 -32.5q77 0 144.5 30.5t120 84.5t89 128t51.5 161q15 83 5.5 157.5t-42 131t-89 89.5t-136.5 33z" />
    <glyph glyph-name="afii10033" unicode="&#x41f;" horiz-adv-x="1577" 
d="M1424 0h-393l190 1081h-491l-190 -1081h-390l246 1396h1274z" />
    <glyph glyph-name="afii10034" unicode="&#x420;" horiz-adv-x="1323" 
d="M150 0l246 1396h555q134 0 234 -30t162 -90.5t84 -151.5t0 -214q-24 -137 -86.5 -235t-150.5 -160.5t-196.5 -92t-225.5 -29.5h-163l-69 -393h-390zM661 688h150q48 0 87.5 14.5t70 41.5t50.5 65t28 84q17 97 -26 148t-147 51h-142z" />
    <glyph glyph-name="afii10035" unicode="&#x421;" horiz-adv-x="1317" 
d="M570 689q-19 -108 -7.5 -183.5t50 -123t101.5 -69.5t147 -22q48 0 94 7.5t89 20t83 28t75 31.5l66 -262q-50 -29 -115 -54.5t-136 -44.5t-143.5 -30t-136.5 -11q-91 0 -174 14t-152 46.5t-122 85.5t-83.5 131.5t-36.5 185t19 245.5q25 141 69 250.5t103 191.5t131 138.5
t153 91t169 50t179 15.5q72 0 142 -11.5t133 -31t116 -45t90 -53.5l-156 -262q-62 34 -139 61t-173 27q-86 0 -157.5 -22.5t-126.5 -72.5t-93 -129.5t-58 -192.5z" />
    <glyph glyph-name="afii10036" unicode="&#x422;" horiz-adv-x="1168" 
d="M215 1081l56 315h1116l-56 -315h-363l-190 -1081h-390l190 1081h-363z" />
    <glyph glyph-name="afii10037" unicode="&#x423;" horiz-adv-x="1417" 
d="M231 19q90 86 171.5 169t151.5 180h-4q-30 66 -58 130t-52 129.5t-43.5 133.5t-33.5 141q-33 164 -50.5 284t-16.5 210h422q-9 -90 -5.5 -187t17.5 -212q12 -85 37 -160.5t50 -148.5h20q26 36 51 70.5t49 70.5t46.5 75t43.5 83q63 138 100.5 242.5t56.5 166.5h423
q-32 -95 -93 -224.5t-158 -291.5q-49 -82 -96.5 -152.5t-93 -133t-89 -118.5t-85.5 -108q-24 -33 -55 -74t-66.5 -86.5t-74 -92.5t-77 -93t-75.5 -88.5t-70 -77.5z" />
    <glyph glyph-name="afii10039" unicode="&#x425;" horiz-adv-x="1384" 
d="M27 0q57 96 118.5 185.5t125.5 179.5q26 37 55.5 75.5t58.5 75t56 70t50 60.5t39.5 46t23.5 26q-18 36 -34 67.5t-32.5 67t-35 78.5t-42.5 103q-32 83 -57 174t-47 188l444 10q5 -36 15 -91.5t27 -136.5q18 -66 33.5 -122t32.5 -101h17q12 18 27 39t33 49.5t40.5 66
t51.5 87.5q19 32 33.5 58.5t27.5 50.5t25.5 48.5t27.5 51.5l441 -10q-23 -39 -49 -82.5t-56.5 -92t-67 -102.5t-81.5 -114q-78 -101 -136 -173t-96 -114q34 -66 72 -148t83 -200q16 -42 30.5 -82.5t29 -84.5t29 -93.5t30.5 -109.5l-449 -10q-9 50 -19.5 106.5t-33.5 131.5
q-14 48 -25.5 85t-21 64.5t-17.5 48t-15 35.5h-18q-15 -18 -34 -43t-40 -55.5t-44 -64.5t-45 -69q-19 -29 -38.5 -62t-37.5 -65.5t-34 -61.5t-27 -50z" />
    <glyph glyph-name="afii10021" unicode="&#x414;" horiz-adv-x="1673" 
d="M410 -222h-390l95 537h100q76 69 133 166.5t99 209.5t71 232.5t50 237.5l42 235h1089l-191 -1081h140l-95 -537h-393l40 222h-750zM917 957q-12 -68 -36 -148.5t-59.5 -165t-82 -168.5t-103.5 -160h479l135 766h-311z" />
    <glyph glyph-name="afii10024" unicode="&#x416;" horiz-adv-x="2200" 
d="M723 1396q13 -85 40 -160t65.5 -142.5t88.5 -128.5t109 -118l97 549h389l-97 -547q157 112 282.5 245t212.5 302h422q-45 -85 -106.5 -171.5t-134 -170.5t-154 -163t-166.5 -148q24 -74 61.5 -158t84 -167.5t101 -162t113.5 -141.5l-334 -188q-42 40 -88.5 110.5t-91 155
t-84 175t-66.5 170.5q-60 -33 -117 -57l-84 -480h-389l84 479q-25 12 -50 26.5t-50 31.5q-37 -53 -81.5 -112t-92.5 -118t-98 -116t-98 -107t-93 -90.5t-82 -67.5l-266 188q81 64 163 142.5t158 161.5t143 167t118 158q-61 69 -114.5 148t-97 163t-74 170.5t-45.5 171.5h422
z" />
    <glyph glyph-name="afii10025" unicode="&#x417;" horiz-adv-x="1184" 
d="M290 1295q48 28 107 51t124.5 39.5t137 26t145.5 9.5q135 0 232.5 -26t157.5 -73.5t83 -115t8 -149.5q-20 -114 -89 -194t-185 -125q48 -21 88.5 -48t66.5 -66.5t35 -94.5t-4 -131q-14 -80 -47.5 -142.5t-81 -109t-107 -78.5t-127 -52t-140 -29.5t-145.5 -10.5
q-63 -1 -127.5 6t-126.5 22t-119 38t-105 53l158 265q39 -18 71.5 -31t69.5 -21.5t81.5 -12.5t107.5 -4q43 0 86.5 6.5t80.5 22.5t62.5 43.5t33.5 69.5q5 28 -13.5 52t-56.5 41t-95 27t-130 10h-139l50 283h129q156 0 233 33.5t90 105.5q5 30 -7.5 52.5t-39 38t-65.5 23
t-86 7.5q-37 0 -75 -2.5t-79 -10t-86.5 -22t-97.5 -38.5z" />
    <glyph glyph-name="afii10038" unicode="&#x424;" horiz-adv-x="1962" 
d="M766 -107l24 138q-168 3 -294.5 46t-205 126t-106 206t3.5 286q31 165 102.5 289.5t178 208t246.5 127t310 46.5l26 143h389l-26 -143h8q166 -1 290.5 -45t202 -129.5t104.5 -210t-3 -286.5q-30 -167 -102 -291t-178.5 -206.5t-244.5 -124t-300 -42.5h-12l-24 -138h-389z
M1358 1049l-123 -702l11 -1q75 3 139.5 26t115 66.5t85.5 107.5t50 149q14 81 3 145t-44.5 109.5t-89.5 71t-131 29.5zM569 695q-15 -79 -4 -142.5t46.5 -108.5t94.5 -70.5t140 -27.5l124 705q-166 -5 -267 -97.5t-134 -258.5z" />
    <glyph glyph-name="afii10040" unicode="&#x426;" horiz-adv-x="1605" 
d="M595 315h491l191 1081h393l-191 -1081h147l-95 -537h-393l40 222h-1028l246 1396h390z" />
    <glyph glyph-name="afii10041" unicode="&#x427;" horiz-adv-x="1379" 
d="M841 0l86 490q-22 -14 -57.5 -30t-81 -29.5t-100 -23t-114.5 -9.5q-95 0 -165 32t-112.5 90.5t-57 140.5t3.5 182l98 553h390l-91 -514q-9 -53 6 -86t43 -51t61 -24.5t60 -6.5q21 0 44 4t45.5 11t42 16.5t33.5 19.5l112 631h390l-246 -1396h-390z" />
    <glyph glyph-name="afii10042" unicode="&#x428;" horiz-adv-x="2099" 
d="M595 315h316l191 1081h393l-191 -1081h305l191 1081h393l-246 -1396h-1797l246 1396h390z" />
    <glyph glyph-name="afii10043" unicode="&#x429;" horiz-adv-x="2124" 
d="M595 315h316l191 1081h393l-191 -1081h305l191 1081h393l-191 -1081h146l-95 -537h-393l40 222h-1550l246 1396h390z" />
    <glyph glyph-name="afii10044" unicode="&#x42a;" horiz-adv-x="1392" 
d="M265 1396h628l-97 -549h155q146 0 243 -36t152.5 -94t73 -130t5.5 -144q-21 -116 -66 -199.5t-116 -137.5t-168 -80t-221 -26h-581l199 1134h-254zM695 277h148q94 0 146 37t66 115q13 70 -23 111.5t-127 41.5h-156z" />
    <glyph glyph-name="afii10046" unicode="&#x42c;" horiz-adv-x="1280" 
d="M573 277h147q94 0 146.5 37t66.5 115q13 70 -23.5 111.5t-126.5 41.5h-156zM771 1396l-97 -549h154q146 0 243 -36t152.5 -94t73 -130t5.5 -144q-21 -116 -66 -199.5t-116 -137.5t-167.5 -80t-220.5 -26h-582l246 1396h375z" />
    <glyph glyph-name="afii10045" unicode="&#x42b;" horiz-adv-x="1947" 
d="M573 277h147q94 0 146.5 37t66.5 115q13 70 -23.5 111.5t-126.5 41.5h-156zM771 1396l-97 -549h154q146 0 243 -36t152.5 -94t73 -130t5.5 -144q-21 -116 -66 -199.5t-116 -137.5t-167.5 -80t-220.5 -26h-582l246 1396h375zM1405 0l246 1396h390l-246 -1396h-390z" />
    <glyph glyph-name="afii10048" unicode="&#x42e;" horiz-adv-x="2202" 
d="M150 0l246 1396h390l-95 -535h167q47 130 123 234t179 176t231 110.5t279 39.5q168 1 291.5 -51t199 -147.5t100 -230t-5.5 -297.5q-31 -168 -104 -302t-181.5 -227t-249 -142t-305.5 -48q-150 1 -265.5 39.5t-194.5 110.5t-119 175t-39 232h-164l-93 -533h-390z
M1613 1106q-86 0 -155.5 -32.5t-122 -88.5t-87.5 -131t-52 -159q-16 -81 -7 -154.5t43 -129t93.5 -88t144.5 -32.5q77 0 144.5 30.5t120 84.5t89 128t51.5 161q15 83 5.5 157.5t-42 131t-89 89.5t-136.5 33z" />
    <glyph glyph-name="afii10049" unicode="&#x42f;" horiz-adv-x="1373" 
d="M34 84q61 51 121 105.5t116 110t106.5 111t92.5 107.5q-49 30 -91.5 71t-71 94t-39 119.5t3.5 148.5q14 79 48 143t82.5 113.5t108.5 85t126.5 58.5t136 34t136.5 11h561l-246 -1396h-390l71 408h-96h-5.5t-5.5 1q-47 -64 -108 -135.5t-127.5 -140.5t-135 -132
t-129.5 -110zM1027 1092h-156q-38 0 -75 -11t-67.5 -33.5t-53 -57t-30.5 -82.5q-7 -40 0 -75.5t29.5 -62.5t61 -42.5t92.5 -15.5h132z" />
    <glyph glyph-name="afii10050" unicode="&#x490;" horiz-adv-x="1131" 
d="M939 1396l39 222h393l-95 -537h-546l-190 -1081h-390l246 1396h543z" />
    <glyph glyph-name="afii10051" unicode="&#x402;" horiz-adv-x="1530" 
d="M171 1081l56 315h1123l-56 -315h-362l-34 -196q71 27 150.5 43t172.5 16q123 0 202 -29.5t121.5 -81t53 -121t-3.5 -150.5l-29 -160q-14 -78 -50.5 -154.5t-97 -137t-145.5 -97.5t-194 -37q-75 0 -124.5 11t-79.5 24l93 263l76 -11q34 0 59 11.5t41.5 30.5t26 42.5
t14.5 49.5l19 108q4 25 -0.5 47.5t-19.5 39.5t-42.5 27t-69.5 10q-29 0 -61.5 -6t-64 -16t-59 -23t-46.5 -26l-98 -558h-391l190 1081h-370z" />
    <glyph glyph-name="afii10052" unicode="&#x403;" horiz-adv-x="1109" 
d="M1332 1396l-56 -315h-546l-190 -1081h-390l246 1396h936zM770 1613l282 363l247 -149l-370 -318z" />
    <glyph glyph-name="afii10054" unicode="&#x405;" horiz-adv-x="1204" 
d="M214 392q60 -27 111 -46.5t97.5 -31.5t90 -17.5t89.5 -5.5q96 0 147.5 30.5t60.5 81.5q9 54 -42 89t-148 61q-97 25 -175 57.5t-129.5 79.5t-72.5 114t-4 163q19 106 67.5 190.5t127.5 143t189 89.5t253 31q52 0 112.5 -7.5t122 -23t120 -39t107.5 -54.5l-158 -263
q-71 32 -154 52t-164 20q-209 0 -227 -106q-5 -29 5 -50t35.5 -37t66 -30t94.5 -30q105 -29 180.5 -67.5t121.5 -90t62.5 -117t1.5 -147.5q-18 -106 -66 -190t-125 -143t-185 -90.5t-246 -31.5q-87 0 -160 9t-137 26.5t-121.5 42.5t-112.5 57z" />
    <glyph glyph-name="afii10055" unicode="&#x406;" horiz-adv-x="692" 
d="M150 0l246 1396h390l-246 -1396h-390z" />
    <glyph glyph-name="afii10056" unicode="&#x407;" horiz-adv-x="692" 
d="M150 0l246 1396h390l-246 -1396h-390zM457 1845q92 0 128.5 -36t25.5 -102q-11 -65 -59 -101t-137 -36q-94 0 -130.5 37t-24.5 103q11 65 59.5 100t137.5 35zM908 1845q91 0 128 -36t26 -102q-11 -65 -60 -101t-137 -36q-94 0 -130.5 37t-24.5 103q11 65 59.5 100
t138.5 35z" />
    <glyph glyph-name="afii10057" unicode="&#x408;" horiz-adv-x="897" 
d="M824 441q-20 -115 -57 -202t-94 -145.5t-136.5 -88t-184.5 -29.5q-89 0 -173 20t-145 47l107 281q15 -6 34 -12t39.5 -10.5t41.5 -7.5t40 -3q33 0 56.5 10.5t39.5 30t26 48t16 63.5l168 953h391z" />
    <glyph glyph-name="afii10058" unicode="&#x409;" horiz-adv-x="2189" 
d="M1759 847q146 0 242.5 -36t152 -94t73 -130t5.5 -144q-21 -116 -66 -199.5t-116 -137.5t-167.5 -80t-220.5 -26h-599l190 1081h-387l-39 -219q-13 -76 -34.5 -171.5t-54 -194t-77 -192t-103.5 -166.5t-134.5 -117.5t-169.5 -44.5q-31 0 -64 2.5t-61 5.5t-47 5.5t-20 2.5
l42 276q20 2 43.5 2.5t49.5 2.5q34 3 64.5 40t55.5 93.5t45.5 125t36.5 133.5t26.5 120t15.5 84l93 527h1167l-97 -549h155zM1503 277h148q94 0 146 37t66 115q13 70 -23.5 111.5t-126.5 41.5h-156z" />
    <glyph glyph-name="afii10059" unicode="&#x40a;" horiz-adv-x="2179" 
d="M1680 1396l-97 -549h154q146 0 243 -36t152.5 -94t73 -130t5.5 -144q-21 -116 -66 -199.5t-116 -137.5t-167.5 -80t-220.5 -26h-597l99 563h-504l-99 -561h-390l246 1396h390l-97 -549h504l97 547h390zM1482 277h148q94 0 146 37t66 115q13 70 -23.5 111.5t-126.5 41.5
h-156z" />
    <glyph glyph-name="afii10060" unicode="&#x40b;" horiz-adv-x="1629" 
d="M677 752q54 40 115 75t130.5 61t148 41t167.5 15q123 0 202 -29.5t121.5 -81t53 -121t-3.5 -150.5l-99 -562h-381l89 505q4 25 -0.5 47.5t-19.5 39.5t-42.5 27t-69.5 10q-31 0 -66 -7t-68.5 -18.5t-62 -25.5t-45.5 -28zM186 1081l56 315h1116l-56 -315h-363l-190 -1081
h-390l190 1081h-363z" />
    <glyph glyph-name="afii10061" unicode="&#x40c;" horiz-adv-x="1444" 
d="M150 0l246 1396h390l-90 -509q76 58 142.5 116.5t125 120.5t109.5 129.5t96 142.5h421q-44 -80 -101 -161.5t-123 -160.5t-139 -154.5t-150 -142.5q25 -74 64.5 -162t89 -178t107 -176t118.5 -158l-322 -193q-53 53 -107.5 128.5t-104 161.5t-91 176.5t-68.5 173.5
q-35 -20 -69.5 -37.5t-69.5 -31.5l-84 -481h-390zM855 1589l282 363l247 -149l-370 -318z" />
    <glyph glyph-name="afii10062" unicode="&#x40e;" horiz-adv-x="1417" 
d="M231 19q90 86 171.5 169t151.5 180h-4q-30 66 -58 130t-52 129.5t-43.5 133.5t-33.5 141q-33 164 -50.5 284t-16.5 210h422q-9 -90 -5.5 -187t17.5 -212q12 -85 37 -160.5t50 -148.5h20q26 36 51 70.5t49 70.5t46.5 75t43.5 83q63 138 100.5 242.5t56.5 166.5h423
q-32 -95 -93 -224.5t-158 -291.5q-49 -82 -96.5 -152.5t-93 -133t-89 -118.5t-85.5 -108q-24 -33 -55 -74t-66.5 -86.5t-74 -92.5t-77 -93t-75.5 -88.5t-70 -77.5zM986 1510q-76 0 -127.5 14.5t-84.5 38t-51 53.5t-26.5 60.5t-10.5 59t-4 49.5l222 41q2 -23 5.5 -45
t15 -38.5t34 -26.5t62.5 -10t65.5 10t42 26.5t27 38t21.5 44.5l208 -40q-9 -21 -21 -49.5t-31 -59t-47.5 -60.5t-70 -53.5t-98 -38t-131.5 -14.5z" />
    <glyph glyph-name="afii10065" unicode="&#x430;" horiz-adv-x="1215" 
d="M130 487q26 149 85.5 257t148.5 178.5t206 104.5t260 34q62 0 124.5 -9.5t119.5 -25t107 -35.5t88 -42l-167 -949h-329l-21 110q-22 -18 -54 -41t-72 -44t-88 -35t-101 -14q-95 0 -162.5 36t-106.5 102.5t-49 161t11 211.5zM499 509q-11 -65 -5 -110t24.5 -73.5t47 -41
t63.5 -12.5q42 0 83.5 15.5t73.5 36.5l74 420q-14 5 -45.5 12.5t-81.5 7.5q-44 0 -81.5 -14.5t-67.5 -45t-51.5 -79t-33.5 -116.5z" />
    <glyph glyph-name="afii10066" unicode="&#x431;" horiz-adv-x="1208" 
d="M163 657q38 217 115 368t178.5 245.5t220.5 138.5t242 48q70 2 120.5 5t89.5 9t72 16.5t68 27.5l58 -275q-74 -43 -174 -66t-233 -30q-67 -5 -117 -22.5t-87 -47t-63 -69t-44 -87.5q66 41 134 57t142 16q112 0 187 -42t116.5 -112.5t51.5 -163.5t-8 -194
q-20 -111 -70.5 -203.5t-131 -159t-190 -103.5t-245.5 -37q-153 0 -250.5 46t-147 134t-56 214t21.5 287zM540 611q-2 -7 -5 -18t-6 -23t-6 -23.5t-4 -19.5q-21 -121 12.5 -188t122.5 -67q42 0 77.5 14.5t63 40.5t46 61t25.5 76q7 42 3.5 81t-20 69t-46 48.5t-72.5 18.5
q-29 0 -53 -4.5t-46 -13.5t-44.5 -22t-47.5 -30z" />
    <glyph glyph-name="afii10067" unicode="&#x432;" horiz-adv-x="1193" 
d="M115 0l181 1028h606q78 0 141.5 -17.5t106 -51.5t61 -85t6.5 -118q-8 -45 -28.5 -79.5t-47.5 -60t-58 -43.5t-59 -29l-1 -7q39 -12 70.5 -35t51.5 -55t27.5 -72.5t-0.5 -88.5q-12 -66 -44.5 -119t-85.5 -90t-125.5 -57t-163.5 -20h-638zM531 247h157q46 0 78.5 17
t41.5 65q4 23 -1.5 39t-17.5 25.5t-31 13.5t-42 4h-156zM601 642h139q22 0 42.5 4t37 13t28 24t15.5 38t-2.5 37t-20.5 21.5t-34 10t-43 2.5h-136z" />
    <glyph glyph-name="afii10068" unicode="&#x433;" horiz-adv-x="974" 
d="M1111 1028l-52 -296h-442l-129 -732h-373l181 1028h815z" />
    <glyph glyph-name="afii10070" unicode="&#x435;" horiz-adv-x="1170" 
d="M520 375q8 -22 21 -42t37 -35.5t63.5 -25t101.5 -9.5q77 0 149.5 21t135.5 50l57 -242q-97 -54 -210.5 -85t-232.5 -31q-136 0 -236 32.5t-161 99t-81 168t4 238.5q25 139 84 242t144 171t193 101t230 33q111 0 191.5 -30.5t130 -81t68 -115t6.5 -132.5q-10 -57 -37 -115
t-79 -105.5t-133 -77t-199 -29.5h-247zM748 766q-35 0 -65 -11.5t-54 -32t-42 -47.5t-28 -57h185q42 0 69.5 15.5t33.5 47.5q4 23 -2.5 39.5t-20 26.5t-33.5 14.5t-43 4.5z" />
    <glyph glyph-name="afii10071" unicode="&#x451;" horiz-adv-x="1170" 
d="M520 375q8 -22 21 -42t37 -35.5t63.5 -25t101.5 -9.5q77 0 149.5 21t135.5 50l57 -242q-97 -54 -210.5 -85t-232.5 -31q-136 0 -236 32.5t-161 99t-81 168t4 238.5q25 139 84 242t144 171t193 101t230 33q111 0 191.5 -30.5t130 -81t68 -115t6.5 -132.5q-10 -57 -37 -115
t-79 -105.5t-133 -77t-199 -29.5h-247zM748 766q-35 0 -65 -11.5t-54 -32t-42 -47.5t-28 -57h185q42 0 69.5 15.5t33.5 47.5q4 23 -2.5 39.5t-20 26.5t-33.5 14.5t-43 4.5zM650 1438q92 0 128.5 -36t25.5 -102q-11 -65 -59 -101t-137 -36q-94 0 -130.5 37t-24.5 103
q11 65 59.5 100t137.5 35zM1101 1438q91 0 128 -36t26 -102q-11 -65 -60 -101t-137 -36q-94 0 -130.5 37t-24.5 103q11 65 59.5 100t138.5 35z" />
    <glyph glyph-name="afii10072" unicode="&#x436;" horiz-adv-x="1954" 
d="M2022 1028q-39 -73 -85 -137.5t-97 -121t-105 -105t-108 -90.5q20 -64 56 -134t78 -136t85.5 -124.5t78.5 -99.5l-301 -174q-41 33 -87 88t-89.5 120t-80 135t-58.5 134q-23 -11 -44.5 -20.5t-41.5 -17.5l-60 -345h-374l60 345q-17 8 -35.5 17.5t-37.5 20.5
q-29 -43 -66.5 -88.5t-79.5 -91t-86.5 -89.5t-88.5 -82.5t-85 -71t-76 -54.5l-239 174q49 41 113 99.5t129.5 125t126 136t102.5 134.5q-41 42 -77.5 90.5t-67 105t-53.5 120.5t-36 137h387q13 -51 34 -99.5t49.5 -92.5t65 -81t82.5 -65l60 338h374l-60 -338q55 28 105 65
t94.5 81t82 92.5t69.5 99.5h387v0z" />
    <glyph glyph-name="afii10074" unicode="&#x438;" 
d="M784 0l83 429h-7q-46 -41 -96 -96t-102.5 -113.5t-107 -116t-111.5 -103.5h-329l181 1028h355l-89 -464h6q57 53 109.5 115t104 124t102 120.5t103.5 104.5h327l-181 -1028h-348z" />
    <glyph glyph-name="afii10075" unicode="&#x439;" horiz-adv-x="1278" 
d="M784 0l83 429h-7q-46 -41 -96 -96t-102.5 -113.5t-107 -116t-111.5 -103.5h-329l181 1028h355l-89 -464h6q57 53 109.5 115t104 124t102 120.5t103.5 104.5h327l-181 -1028h-348zM849 1126q-76 0 -127.5 14.5t-84.5 38t-51 53.5t-26.5 60.5t-10.5 59t-4 49.5l222 41
q2 -23 5.5 -45t15 -38.5t34 -26.5t62.5 -10t65.5 10t42 26.5t27 38t21.5 44.5l208 -40q-9 -21 -21 -49.5t-31 -59t-47.5 -60.5t-70 -53.5t-98 -38t-131.5 -14.5z" />
    <glyph glyph-name="afii10076" unicode="&#x43a;" horiz-adv-x="1257" 
d="M1347 1028q-39 -73 -85 -137t-96.5 -120.5t-104.5 -105t-108 -90.5q19 -65 55 -134.5t78 -136t85.5 -125t78.5 -99.5l-301 -174q-41 33 -87 88t-89.5 120t-80 135t-57.5 134q-24 -11 -45.5 -20.5t-41.5 -17.5l-60 -345h-373l181 1028h373l-60 -338q112 56 200 146
t151 192h387v0z" />
    <glyph glyph-name="afii10077" unicode="&#x43b;" horiz-adv-x="1361" 
d="M999 731h-261l-6 -38q-10 -58 -32 -134t-55 -155.5t-77 -156.5t-98.5 -137t-119.5 -97t-140 -37q-30 0 -63 2.5t-60 5.5t-45.5 5.5t-20.5 2.5l43 269q20 1 40.5 -0.5t47.5 2.5q35 6 65.5 46.5t56 100.5t46 131t36 138t26 122.5t16.5 84.5l25 142h1002l-181 -1028h-373z
" />
    <glyph glyph-name="afii10069" unicode="&#x434;" horiz-adv-x="1373" 
d="M140 296q60 43 101 111.5t69.5 147.5t46 161t30.5 153l28 159h953l-129 -732h111l-83 -467h-374l31 171h-528l-31 -171h-372l82 467h65zM714 682q-17 -95 -57.5 -196.5t-106.5 -189.5h316l76 435h-220z" />
    <glyph glyph-name="afii10080" unicode="&#x43e;" horiz-adv-x="1255" 
d="M169 518q22 124 77 224t138.5 171t192 109.5t236.5 38.5q124 0 219.5 -36.5t155.5 -106t81.5 -170t-0.5 -229.5q-23 -128 -78.5 -229t-139 -171t-192 -106.5t-236.5 -36.5t-223.5 36t-154.5 105.5t-79 170.5t3 230zM534 519q-12 -69 -6.5 -116.5t25 -76.5t51.5 -41.5
t73 -12.5q40 0 76.5 13t65.5 42t51 76.5t34 116.5q12 67 6.5 113.5t-25 75.5t-51 42t-71.5 13q-41 0 -77 -13.5t-66 -43t-52 -76t-34 -112.5z" />
    <glyph glyph-name="afii10082" unicode="&#x440;" horiz-adv-x="1249" 
d="M271 888q38 26 102.5 56t141.5 55.5t159.5 42.5t156.5 17q145 0 238.5 -33.5t142.5 -100.5t58 -167.5t-15 -233.5q-12 -67 -34 -134t-54 -128t-75 -113t-97.5 -90.5t-120.5 -60.5t-145 -22q-44 0 -78.5 3.5t-63 9t-52.5 12.5t-45 14l-74 -422h-373zM538 288q20 -6 48 -11
t76 -5q94 0 153.5 61.5t80.5 182.5q12 68 9 114t-19.5 74.5t-47 40.5t-72.5 12q-43 0 -84.5 -14t-67.5 -28z" />
    <glyph glyph-name="afii10083" unicode="&#x441;" horiz-adv-x="1058" 
d="M170 523q22 123 74 222.5t130.5 169.5t181 108t225.5 38q100 0 193 -24t178 -78l-138 -240q-23 10 -44 18.5t-44.5 14.5t-50 9t-59.5 3q-238 0 -283 -250q-12 -67 -0.5 -113.5t39 -75t67 -41.5t84.5 -13q61 0 115 13t104 33l55 -240q-43 -21 -88 -39t-96 -32t-108.5 -22
t-126.5 -8q-94 0 -164 21.5t-119.5 59.5t-79.5 90t-44 113t-13.5 128t12.5 135z" />
    <glyph glyph-name="afii10084" unicode="&#x442;" horiz-adv-x="1054" 
d="M133 732l52 296h1038l-52 -296h-329l-129 -732h-373l129 732h-336z" />
    <glyph glyph-name="afii10085" unicode="&#x443;" horiz-adv-x="1221" 
d="M118 -349q90 86 169 169t150 180h-45q-50 113 -85.5 246t-57 270t-30 269t-2.5 243l401 10q-8 -86 -11 -180.5t1 -189t16 -186t33 -170.5h20q33 48 65 110.5t61.5 131.5t56 139.5t48 135t37 119t24.5 90.5l398 -10q-18 -70 -51.5 -157.5t-77.5 -183.5t-95.5 -194
t-104.5 -189t-105.5 -169.5t-98.5 -134.5q-36 -50 -86.5 -116t-106.5 -136.5t-113.5 -138.5t-107.5 -121z" />
    <glyph glyph-name="afii10087" unicode="&#x445;" horiz-adv-x="1208" 
d="M46 0q18 38 36 73t39 70.5t46 72.5t56 79q33 46 62.5 80.5t56.5 61.5t52 48.5t49 42.5q-19 30 -38 58t-37 56t-33.5 57t-27.5 62q-29 81 -43.5 144t-18.5 123l405 7q1 -38 3.5 -78.5t13.5 -82.5q11 -53 26.5 -86t32.5 -60h9q31 33 56 66.5t53 78.5q25 40 43.5 83t30.5 79
l403 -7q-15 -34 -29 -64t-31.5 -60.5t-40.5 -65t-55 -78.5t-61 -76t-55.5 -57.5t-52 -48.5t-50.5 -48q32 -40 70 -99t64 -125q20 -53 32.5 -91t20.5 -71.5t13.5 -67t11.5 -76.5l-405 -7q-1 37 -5.5 77t-20.5 97q-6 22 -13 47.5t-15.5 49t-17 43t-15.5 30.5h-8
q-11 -11 -26 -30t-32 -41.5t-34 -48t-32 -49.5q-20 -34 -34 -59.5t-23.5 -45.5t-16.5 -37t-13 -33z" />
    <glyph glyph-name="afii10078" unicode="&#x43c;" horiz-adv-x="1606" 
d="M79 0q13 66 26 124.5t26.5 115.5t27.5 115t31 122q21 81 42.5 158.5t42.5 148t40 132.5t35 112h478l58 -497h21l233 497h480q-4 -103 -11 -240.5t-24 -310.5q-7 -74 -14 -138t-14 -122.5t-14 -112t-14 -104.5h-382q6 38 14 103t19 148q12 103 17.5 178t5.5 108h-15
l-255 -521h-255l-71 521h-16q-6 -17 -15 -47.5t-19.5 -69t-21 -82t-20.5 -85.5q-11 -48 -19 -84.5t-14.5 -66t-11.5 -54t-10 -48.5h-381z" />
    <glyph glyph-name="afii10079" unicode="&#x43d;" horiz-adv-x="1358" 
d="M115 0l181 1028h374l-65 -365h381l65 365h373l-181 -1028h-373l64 367h-381l-64 -367h-374z" />
    <glyph glyph-name="afii10081" unicode="&#x43f;" horiz-adv-x="1358" 
d="M1243 0h-373l129 732h-381l-129 -732h-374l181 1028h1128z" />
    <glyph glyph-name="afii10086" unicode="&#x444;" horiz-adv-x="1634" 
d="M549 -455l78 442q-64 -11 -134 -11q-95 0 -167.5 43t-118.5 117t-61.5 172.5t4.5 210.5q19 109 67.5 207.5t120 172.5t162 118t192.5 44q36 0 66.5 -3t56.5 -8l67 383h374l-67 -383q26 5 58 8t68 3q102 0 177 -44t119.5 -118t58.5 -172.5t-5 -207.5
q-20 -112 -70.5 -210.5t-122 -172.5t-159.5 -117t-182 -43q-36 0 -68.5 3t-61.5 8l-78 -442h-374zM615 276q34 0 64 3l84 479q-30 3 -64 3q-30 0 -61 -15.5t-58 -45.5t-48.5 -75t-31.5 -105q-11 -60 -6.5 -106t20.5 -76.5t42 -46t59 -15.5zM1202 761q-34 0 -65 -3l-84 -479
q25 -3 61 -3q33 0 65 15.5t59 46t47 76.5t31 106q10 60 5 105t-21.5 75t-42 45.5t-55.5 15.5z" />
    <glyph glyph-name="afii10088" unicode="&#x446;" horiz-adv-x="1368" 
d="M541 296h366l129 732h373l-129 -730h106l-82 -468h-373l30 170h-846l181 1028h374z" />
    <glyph glyph-name="afii10089" unicode="&#x447;" horiz-adv-x="1204" 
d="M714 0l64 364q-50 -40 -123.5 -68.5t-162.5 -28.5q-101 0 -167 36t-102 97.5t-43.5 142t8.5 169.5l56 316h373l-52 -296q-9 -53 -3.5 -86t21 -51.5t39 -25t50.5 -6.5q45 0 84 15.5t66 35.5l73 414h373l-181 -1028h-373z" />
    <glyph glyph-name="afii10090" unicode="&#x448;" horiz-adv-x="1739" 
d="M539 288h202l131 740h365l-131 -740h194l131 740h374l-181 -1028h-1509l181 1028h374z" />
    <glyph glyph-name="afii10091" unicode="&#x449;" horiz-adv-x="1774" 
d="M1700 -170h-374l30 170h-1241l181 1028h374l-131 -740h201l131 740h366l-131 -740h194l131 740h374l-131 -740h106z" />
    <glyph glyph-name="afii10092" unicode="&#x44a;" horiz-adv-x="1260" 
d="M219 1028h598l-63 -354h184q105 0 173.5 -32t106 -83t47.5 -115t-1 -127q-13 -75 -49.5 -134t-93 -99.5t-131.5 -62t-164 -21.5h-563l129 732h-225zM677 233h103q57 0 89 25t42 81q10 54 -12 83t-85 29h-99z" />
    <glyph glyph-name="afii10094" unicode="&#x44c;" horiz-adv-x="1123" 
d="M529 233h98q63 0 94 25t41 82q10 54 -12.5 82.5t-89.5 28.5h-93zM669 1028l-63 -354h193q94 0 160 -29.5t105 -78.5t52 -112.5t1 -132.5q-14 -78 -52.5 -138t-96 -100.5t-131.5 -61.5t-158 -21h-564l181 1028h373z" />
    <glyph glyph-name="afii10093" unicode="&#x44b;" horiz-adv-x="1704" 
d="M529 233h98q63 0 94 25t41 82q10 54 -12.5 82.5t-89.5 28.5h-93zM669 1028l-63 -354h193q94 0 160 -29.5t105 -78.5t52 -112.5t1 -132.5q-14 -78 -52.5 -138t-96 -100.5t-131.5 -61.5t-158 -21h-564l181 1028h373zM1215 0l181 1028h374l-181 -1028h-374z" />
    <glyph glyph-name="afii10096" unicode="&#x44e;" horiz-adv-x="1763" 
d="M115 0l181 1028h373l-62 -350h173q33 81 84.5 150.5t121 121.5t156 81.5t190.5 29.5q124 0 218.5 -38.5t154.5 -109t82 -170.5t0 -224q-22 -125 -77 -225.5t-137.5 -171t-190 -108.5t-235.5 -38q-103 0 -180 27.5t-129.5 77t-80.5 118.5t-34 151h-174l-61 -350h-373z
M1053 519q-11 -65 -5.5 -111.5t25 -76.5t50.5 -44.5t72 -14.5q83 0 144 60t84 188q11 61 5.5 107t-25 76.5t-50.5 45.5t-71 15q-41 0 -77.5 -15.5t-66.5 -46t-52 -76.5t-33 -107z" />
    <glyph glyph-name="afii10098" unicode="&#x491;" horiz-adv-x="968" 
d="M738 1028l30 172h373l-82 -468h-442l-129 -732h-373l181 1028h442z" />
    <glyph glyph-name="afii10102" unicode="&#x455;" horiz-adv-x="1015" 
d="M200 347q72 -39 148 -60t151 -21q28 0 53 4.5t45 12t32.5 18.5t14.5 23q2 13 -11.5 21.5t-40 17t-65 19t-86.5 26.5q-58 19 -107 45t-82 63.5t-46 91t0 128.5q16 90 66 152t119 100.5t150 55.5t159 17q71 0 130.5 -7.5t109 -21t89 -31t71.5 -36.5l-135 -250
q-69 27 -129.5 39.5t-111.5 12.5q-30 0 -57 -3t-48.5 -9.5t-35 -16.5t-16.5 -24q-2 -15 15 -24.5t44.5 -17.5t62.5 -15.5t69 -18.5q147 -47 206 -127t36 -205q-16 -90 -64 -153t-116 -102t-149.5 -57t-164.5 -18q-89 0 -161.5 11t-128.5 27.5t-95.5 35.5t-61.5 34z" />
    <glyph glyph-name="afii10103" unicode="&#x456;" horiz-adv-x="604" 
d="M115 0l181 1028h374l-181 -1028h-374zM564 1494q111 0 155 -44t30 -123q-14 -78 -72.5 -121.5t-167.5 -43.5q-112 0 -157 44.5t-31 123.5q14 80 74 122t169 42z" />
    <glyph glyph-name="afii10104" unicode="&#x457;" horiz-adv-x="604" 
d="M115 0l181 1028h374l-181 -1028h-374zM333 1447q92 0 128.5 -36t25.5 -102q-11 -65 -59 -101t-137 -36q-94 0 -130.5 37t-24.5 103q11 65 59.5 100t137.5 35zM784 1447q91 0 128 -36t26 -102q-11 -65 -60 -101t-137 -36q-94 0 -130.5 37t-24.5 103q11 65 59.5 100
t138.5 35z" />
    <glyph glyph-name="afii10105" unicode="&#x458;" horiz-adv-x="604" 
d="M-208 -131q56 -16 97.5 -25t81.5 -8q34 0 59 14t42 35t26.5 47t14.5 52l184 1044h373l-185 -1050q-14 -79 -50 -156t-97.5 -138t-151 -98.5t-209.5 -37.5q-87 0 -161.5 20.5t-128.5 41.5zM566 1494q111 0 155.5 -44t30.5 -123q-14 -78 -73 -121.5t-168 -43.5
q-112 0 -156.5 44.5t-30.5 123.5q14 80 73.5 122t168.5 42z" />
    <glyph glyph-name="afii10100" unicode="&#x453;" horiz-adv-x="977" 
d="M1111 1028l-52 -296h-442l-129 -732h-373l181 1028h815zM598 1238l282 363l247 -149l-370 -318z" />
    <glyph glyph-name="afii10099" unicode="&#x452;" 
d="M888 1127h-203l-16 -94q58 13 117.5 20.5t117.5 7.5q123 0 200 -32t117.5 -86t49.5 -126t-5 -153l-117 -664q-14 -78 -50.5 -154.5t-98 -137t-150.5 -97.5t-209 -37q-88 0 -163 20t-129 42l108 259q55 -16 96 -25t81 -9q35 0 60 14t42 35t26.5 47.5t14.5 52.5l108 611
q4 23 3.5 46t-9.5 41.5t-27.5 30t-50.5 11.5q-24 0 -50.5 -5t-52 -13t-49 -17.5t-40.5 -18.5l-122 -696h-373l198 1127h-136l41 232h136l13 74h373l-13 -74h203z" />
    <glyph glyph-name="afii10108" unicode="&#x45b;" horiz-adv-x="1260" 
d="M381 1456h373l-83 -474q19 9 48 22t65.5 26t80 22t93.5 9q81 0 147 -26t110 -76.5t61 -125.5t0 -173l-116 -660h-372l106 605q3 19 5.5 46t-4.5 52t-28 42.5t-63 17.5q-22 0 -47.5 -5.5t-51 -14t-47.5 -18.5t-36 -18l-124 -707h-373zM974 1127h-713l41 232h713z" />
    <glyph glyph-name="afii10106" unicode="&#x459;" horiz-adv-x="1902" 
d="M1583 674q94 0 160 -29.5t105 -78.5t52 -112.5t1 -132.5q-14 -78 -52.5 -138t-96.5 -100.5t-132 -61.5t-158 -21h-564l128 731h-276l-6 -38q-10 -58 -31 -134t-52.5 -155.5t-73.5 -156.5t-94.5 -137t-116.5 -97t-138 -37q-31 0 -63.5 2.5t-60 5.5t-46 5.5t-19.5 2.5
l43 269q20 1 40.5 -0.5t46.5 2.5q36 6 66.5 46.5t56 100.5t46 131t36 138t26 122.5t16.5 84.5l25 142h1002l-63 -354h193zM1313 233h96q64 0 95.5 25t41.5 82q10 54 -12.5 82.5t-90.5 28.5h-92z" />
    <glyph glyph-name="afii10107" unicode="&#x45a;" horiz-adv-x="1868" 
d="M1424 1028l-63 -354h193q94 0 160 -29.5t105 -78.5t52 -112.5t1 -132.5q-14 -78 -52.5 -138t-96 -100.5t-131 -61.5t-158.5 -21h-564l64 367h-381l-64 -367h-374l181 1028h374l-65 -365h381l65 365h373zM1284 233h97q64 0 95.5 25t41.5 82q10 54 -13 82.5t-90 28.5h-93z
" />
    <glyph glyph-name="afii10109" unicode="&#x45c;" horiz-adv-x="1250" 
d="M1347 1028q-39 -73 -85 -137t-96.5 -120.5t-104.5 -105t-108 -90.5q19 -65 55 -134.5t78 -136t85.5 -125t78.5 -99.5l-301 -174q-41 33 -87 88t-89.5 120t-80 135t-57.5 134q-24 -11 -45.5 -20.5t-41.5 -17.5l-60 -345h-373l181 1028h373l-60 -338q112 56 200 146
t151 192h387v0zM738 1221l282 363l247 -149l-370 -318z" />
    <glyph glyph-name="afii10110" unicode="&#x45e;" horiz-adv-x="1221" 
d="M118 -349q90 86 169 169t150 180h-45q-50 113 -85.5 246t-57 270t-30 269t-2.5 243l401 10q-8 -86 -11 -180.5t1 -189t16 -186t33 -170.5h20q33 48 65 110.5t61.5 131.5t56 139.5t48 135t37 119t24.5 90.5l398 -10q-18 -70 -51.5 -157.5t-77.5 -183.5t-95.5 -194
t-104.5 -189t-105.5 -169.5t-98.5 -134.5q-36 -50 -86.5 -116t-106.5 -136.5t-113.5 -138.5t-107.5 -121zM827 1158q-76 0 -127.5 14.5t-84.5 38t-51 53.5t-26.5 60.5t-10.5 59t-4 49.5l222 41q2 -23 5.5 -45t15 -38.5t34 -26.5t62.5 -10t65.5 10t42 26.5t27 38t21.5 44.5
l208 -40q-9 -21 -21 -49.5t-31 -59t-47.5 -60.5t-70 -53.5t-98 -38t-131.5 -14.5z" />
    <glyph glyph-name="afii10053" unicode="&#x404;" horiz-adv-x="1303" 
d="M558 558q1 -72 22.5 -122.5t60.5 -82.5t94.5 -47t125.5 -15q48 0 94 7.5t89 20t83 28t75 31.5l66 -262q-50 -29 -115 -54.5t-136 -44.5t-143.5 -30t-136.5 -11q-91 0 -174 14t-152 46.5t-122 85.5t-83.5 131.5t-36.5 185t19 245.5q25 141 69 250.5t103 191.5t131 138.5
t153 91t169 50t179 15.5q72 0 142 -11.5t133 -31t116 -45t90 -53.5l-156 -262q-62 34 -139 61t-173 27q-137 0 -236 -59.5t-154 -195.5h458l-52 -293h-463z" />
    <glyph glyph-name="afii10047" unicode="&#x42d;" horiz-adv-x="1314" 
d="M543 851h457q-4 68 -25.5 116.5t-59.5 79t-92 45t-123 14.5q-97 0 -183 -27t-160 -61l-65 262q46 28 108 53.5t132 45t144.5 31t146.5 11.5q91 0 174 -15.5t152 -50t121 -91t82 -138.5t35 -191.5t-20 -250.5q-25 -139 -68 -245.5t-101.5 -185t-129.5 -131.5t-152 -85.5
t-169 -46.5t-179 -14q-65 0 -133 11t-132 30t-120 44.5t-96 54.5l158 262q30 -16 64.5 -31.5t73.5 -28t82 -20t91 -7.5q70 0 130.5 15t110.5 47t89 82.5t66 122.5h-461z" />
    <glyph glyph-name="afii10097" unicode="&#x44f;" horiz-adv-x="1141" 
d="M222 654q13 76 43.5 133t73 98.5t94 69t106.5 44t111 23t107 6.5h449l-181 -1028h-358l47 272h16q-12 -1 -42.5 0t-72.5 6t-90.5 15.5t-96.5 29t-90.5 46.5t-72.5 68.5t-42.5 94t-0.5 122.5zM800 755h-124q-56 0 -86 -27.5t-37 -69.5q-3 -15 -1 -33t11 -33.5t26.5 -25.5
t44.5 -10h131zM68 81q60 46 112.5 90.5t101.5 91t94.5 96.5t91.5 108l253 -124q-15 -27 -42 -64t-62 -78.5t-75.5 -84.5t-80.5 -83t-78.5 -73.5t-69.5 -54.5z" />
    <glyph glyph-name="afii10101" unicode="&#x454;" horiz-adv-x="1027" 
d="M151 523q24 135 76 235.5t130 168t180 101t225 33.5q100 0 192.5 -15t168.5 -58l-129 -269q-32 12 -81 25t-108 13q-96 0 -153 -26.5t-93 -75.5h315l-47 -269h-312q23 -54 75 -77t130 -23q62 0 114 13t91 26l33 -277q-69 -35 -165.5 -53.5t-233.5 -18.5q-141 0 -230 43
t-135.5 117t-54.5 173.5t12 213.5z" />
    <glyph glyph-name="afii10095" unicode="&#x44d;" horiz-adv-x="1009" 
d="M1042 523q-20 -114 -63.5 -213.5t-116 -173.5t-177 -117t-245.5 -43q-137 0 -226.5 18.5t-146.5 53.5l131 277q35 -13 82 -26t109 -13q78 0 138 23t103 77h-312l47 269h315q-10 24 -26 43t-41 32t-60 20t-83 7q-59 0 -112.5 -13t-90.5 -25l-33 269q91 43 189 58t198 15
q123 0 213 -33.5t144 -101t71 -168t-7 -235.5z" />
    <glyph glyph-name="afii10073" unicode="&#x437;" horiz-adv-x="916" 
d="M212 973q74 42 175 65.5t213 23.5q102 0 175 -20t118 -56.5t62 -88t6 -114.5q-32 -172 -203 -234q36 -16 65.5 -36.5t49 -49.5t26 -70.5t-3.5 -99.5q-15 -89 -63 -149t-115.5 -97t-148 -53.5t-161.5 -17.5q-49 -1 -98.5 4.5t-96 16.5t-89.5 28t-79 39l131 257
q28 -12 52 -21.5t49.5 -16t55.5 -9.5t71 -3q23 0 45.5 2.5t41 9t31 17t15.5 27.5q2 9 -1 19.5t-13 18.5t-28 13.5t-45 5.5h-170l47 264h153q47 0 73 11.5t33 49.5q2 13 -1 23.5t-14.5 18t-31.5 11.5t-51 4q-21 0 -45.5 -1.5t-53 -7t-62 -15.5t-74.5 -27z" />
    <glyph glyph-name="napostrophe" unicode="&#x149;" horiz-adv-x="1646" 
d="M667 881q49 30 119 61.5t153 58t175.5 43.5t187.5 17q122 0 199.5 -32t119 -86t51 -126t-4.5 -153l-117 -664h-374l110 629q4 22 3 45t-10.5 41.5t-28.5 30t-51 11.5q-23 0 -49.5 -4.5t-52 -12t-48.5 -16.5t-40 -17l-124 -707h-373zM374 1095q115 0 161 -45.5t32 -126.5
l-2 -8q-12 -77 -44 -152t-75 -143t-94.5 -126t-102.5 -100l-144 73q24 34 47.5 73t44.5 78t37.5 74.5t25.5 64.5q-44 5 -73 19t-45 36t-19.5 51t2.5 65q14 80 75.5 123.5t173.5 43.5z" />
    <glyph glyph-name="lcommaaccent" unicode="&#x13c;" horiz-adv-x="604" 
d="M115 0l256 1456h373l-256 -1456h-373zM247 -39q115 0 161 -45.5t32 -126.5l-2 -8q-12 -77 -44 -152t-75 -143t-94.5 -126t-102.5 -100l-144 73q24 34 47.5 73t44.5 78t37.5 74.5t25.5 64.5q-44 5 -73 19t-45 36t-19.5 51t2.5 65q14 80 75.5 123.5t173.5 43.5z" />
    <glyph glyph-name="g.end" horiz-adv-x="1227" 
d="M142 487q27 152 88 260.5t151.5 178.5t207.5 102.5t257 32.5q59 0 120.5 -9.5t119 -25t108 -36t86.5 -41.5l-161 -913q-20 -112 -67 -203.5t-121 -156t-175.5 -100t-229.5 -35.5q-127 0 -238.5 24.5t-202.5 73.5l122 230q69 -25 135.5 -36t142.5 -11q57 0 101 11t76 36
t52.5 65.5t30.5 98.5l12 65q-20 -16 -49 -34.5t-64.5 -35t-76 -27.5t-82.5 -11q-99 0 -173 34t-118.5 97.5t-58.5 156t7 209.5zM511 509q-11 -65 -4.5 -107.5t26 -68t50 -36t67.5 -10.5q42 0 82.5 14.5t65.5 32.5l73 409q-14 6 -46 13.5t-75 7.5q-42 0 -80 -13t-69 -43
t-54 -78.5t-36 -120.5z" />
    <glyph glyph-name="a.alt1000" horiz-adv-x="1129" 
d="M299 959q34 16 76 34t94.5 33t117 25t144.5 10q54 0 108.5 -6t103.5 -23t89 -47t65.5 -78.5t32.5 -117t-9 -162.5l-104 -627h-342l-5 94q-18 -16 -49 -36.5t-70.5 -38.5t-84.5 -30.5t-90 -12.5q-72 0 -129 20.5t-94 60.5t-51.5 98.5t-0.5 134.5q11 64 38 111.5t64.5 81.5
t82 56.5t90 36.5t90 21t82.5 11l206 21l8 42q8 45 -32 69t-128 24q-57 0 -123.5 -14t-127.5 -34zM723 451l-132 -14q-21 -2 -43 -10t-41 -21.5t-32.5 -33t-17.5 -44.5q-6 -32 -1 -53.5t17.5 -35t32 -19t43.5 -5.5q22 0 44 6t41 15t34 18.5t23 16.5z" />
    <glyph glyph-name="ae.alt1000" horiz-adv-x="1564" 
d="M299 959q34 16 76 34t94.5 33t117 25t144.5 10q42 0 84 -3.5t82 -12.5t76 -25t66 -41q76 42 164.5 62t186.5 20q111 0 193 -30.5t133 -81t71 -115t8 -132.5q-10 -57 -37.5 -107.5t-78 -88t-125.5 -59.5t-181 -22h-286l-4 -25q2 -35 13.5 -62t36 -45t63 -27.5t94.5 -9.5
q45 0 85 4.5t77 12.5t73 18.5t72 22.5l46 -222q-48 -27 -104.5 -48.5t-116.5 -36.5t-121.5 -23t-120.5 -8q-110 0 -194 24h-311l-5 94q-18 -16 -49 -36.5t-70.5 -38.5t-84.5 -30.5t-90 -12.5q-72 0 -129 20.5t-94 60.5t-51.5 98.5t-0.5 134.5q11 64 38 111.5t64.5 81.5
t82 56.5t90 36.5t90 21t82.5 11l206 21l8 42q8 45 -32 69t-128 24q-57 0 -123.5 -14t-127.5 -34zM1335 802q-46 0 -81 -16t-61 -41.5t-43.5 -58.5t-29.5 -66l-3 -14h212q56 0 88.5 20t40.5 63q9 53 -23 83t-100 30zM723 451l-132 -14q-21 -2 -43 -10t-41 -21.5t-32.5 -33
t-17.5 -44.5q-6 -32 -1 -53.5t17.5 -35t32 -19t43.5 -5.5q22 0 44 6t41 15t34 18.5t23 16.5z" />
    <glyph glyph-name="e.1000" horiz-adv-x="1170" 
d="M515 425q-1 -41 8.5 -72.5t33.5 -53t64.5 -32.5t100.5 -11q45 0 85 4.5t77 12.5t72.5 18.5t72.5 22.5l45 -222q-48 -27 -104 -48.5t-116 -36.5t-121.5 -23t-120.5 -8q-136 0 -230.5 36t-149.5 104.5t-71 168.5t7 229q25 143 84.5 246.5t145 170t193.5 98.5t230 32
q112 0 194 -30.5t133 -81t71 -115t8 -132.5q-10 -57 -37.5 -107.5t-78 -88t-125.5 -59.5t-181 -22h-290zM767 802q-49 0 -85.5 -17.5t-62.5 -46t-44 -63.5t-29 -69h215q56 0 88.5 20t40.5 63q9 53 -23 83t-100 30z" />
    <glyph glyph-name="afii10067.1000" horiz-adv-x="1193" 
d="M115 0l181 1028h606q78 0 141.5 -17.5t106 -51.5t61 -85t6.5 -118q-8 -45 -28.5 -79.5t-47.5 -60t-58 -43.5t-59 -29l-1 -7q39 -12 70.5 -35t51.5 -55t27.5 -72.5t-0.5 -88.5q-12 -66 -44.5 -119t-85.5 -90t-125.5 -57t-163.5 -20h-638zM530 240h149q46 0 75.5 21
t38.5 69q8 46 -14.5 67.5t-69.5 21.5h-148zM599 634h132q45 0 76.5 21.5t39.5 64.5q8 45 -18.5 62t-71.5 17h-129z" />
    <glyph glyph-name="afii10073.1000" horiz-adv-x="916" 
d="M212 973q74 42 175 65.5t213 23.5q102 0 175 -20t118 -56.5t62 -88t6 -114.5q-32 -172 -203 -234q36 -16 65.5 -36.5t49 -49.5t26 -70.5t-3.5 -99.5q-15 -89 -63 -149t-115.5 -97t-148 -53.5t-161.5 -17.5q-49 -1 -98.5 4.5t-96 16.5t-89.5 28t-79 39l126 228
q28 -13 52 -22.5t49.5 -15.5t55.5 -9t71 -3q23 0 47 4.5t45 15t35.5 27t19.5 40.5q5 33 -15.5 58.5t-75.5 25.5h-170l36 205l154 1q47 0 77.5 17t38.5 62q6 37 -16.5 60t-84.5 23q-21 0 -45.5 -1.5t-53 -7t-62 -15.5t-74.5 -27z" />
    <glyph glyph-name="afii10095.1000" horiz-adv-x="1009" 
d="M1042 523q-20 -114 -63.5 -213.5t-116 -173.5t-177 -117t-245.5 -43q-137 0 -226.5 18.5t-146.5 53.5l125 244q17 -6 34.5 -13t37.5 -13t44 -9.5t55 -3.5q46 0 90 7t82.5 25t70 49t53.5 78h-337l38 216h339q-2 46 -18 77t-46 50t-74.5 27t-104.5 8q-59 0 -102.5 -13
t-80.5 -26l-39 237q91 43 189 58t198 15q123 0 213 -33.5t144 -101t71 -168t-7 -235.5z" />
    <glyph glyph-name="g.alt1000" horiz-adv-x="1139" 
d="M220 633q18 100 68.5 179t123.5 134.5t163 85t188 29.5t178 -30q41 27 94 49.5t117 22.5q39 0 69 -4t52 -9.5t37 -12t23 -12.5l-76 -196q-15 3 -32.5 5.5t-46.5 2.5q-24 0 -48 -8q23 -48 31 -106.5t-5 -128.5q-18 -104 -68 -180.5t-121.5 -126.5t-160 -74.5t-185.5 -24.5
q-32 0 -62.5 2.5t-59.5 7.5q-2 -4 -2.5 -8t-2.5 -9q-5 -29 9.5 -40.5t52.5 -13.5l183 -11q99 -3 162 -29t97 -67.5t42.5 -94.5t-1.5 -109q-13 -72 -54 -136t-113.5 -112t-176.5 -76.5t-243 -28.5q-101 0 -182 16.5t-136 51t-80 87t-12 125.5q7 38 22.5 66.5t24.5 48.5
l284 -25q-3 -5 -9 -14.5t-9 -23.5q-7 -39 29 -61.5t117 -22.5q84 0 124 26.5t48 71.5q2 11 2.5 25t-7 27t-25.5 23t-53 13l-198 11q-81 3 -131 21.5t-76 47t-32.5 65t1.5 77.5q9 54 44 101.5t82 88.5q-43 50 -60 120t0 164zM548 633q-6 -33 0 -60.5t22 -47t40 -30t53 -10.5
t56.5 11t50 31.5t38.5 48t22 60.5q5 31 -0.5 58t-20.5 46.5t-39 31t-54 11.5t-58 -11t-50.5 -31t-38 -47.5t-21.5 -60.5z" />
    <glyph glyph-name="ij" unicode="&#x133;" horiz-adv-x="1222" 
d="M126 0l181 1028h374l-181 -1028h-374zM575 1494q111 0 155 -44t30 -123q-14 -78 -72.5 -121.5t-167.5 -43.5q-112 0 -157 44.5t-31 123.5q14 80 74 122t169 42zM393 -131q56 -16 97.5 -25t81.5 -8q34 0 59 14t42 35t26.5 47t14.5 52l184 1044h373l-185 -1050
q-14 -79 -50 -156t-97.5 -138t-151 -98.5t-209.5 -37.5q-87 0 -161.5 20.5t-128.5 41.5zM1167 1494q111 0 155.5 -44t30.5 -123q-14 -78 -73 -121.5t-168 -43.5q-112 0 -156.5 44.5t-30.5 123.5q14 80 73.5 122t168.5 42z" />
    <glyph glyph-name="IJ" unicode="&#x132;" horiz-adv-x="1504" 
d="M159 0l246 1396h390l-246 -1396h-390zM1428 441q-20 -115 -57 -202t-94 -145.5t-136.5 -88t-184.5 -29.5q-89 0 -173 20t-145 47l107 281q15 -6 34 -12t39.5 -10.5t41.5 -7.5t40 -3q33 0 56.5 10.5t39.5 30t26 48t16 63.5l168 953h391z" />
    <glyph glyph-name="g.alt" horiz-adv-x="1167" 
d="M220 633q18 100 68.5 179t123.5 134.5t163 85t188 29.5t178 -30q41 27 94 49.5t117 22.5q39 0 69 -4t52 -9.5t37 -12t23 -12.5l-76 -196q-15 3 -32.5 5.5t-46.5 2.5q-24 0 -48 -8q23 -48 31 -106.5t-5 -128.5q-18 -104 -68 -181.5t-122 -129t-161 -77t-186 -25.5
q-29 0 -56 2t-53 6q-6 -23 9.5 -38t59.5 -17l223 -11q75 -3 125.5 -30t78.5 -70t35.5 -97t-2.5 -110q-13 -72 -54 -136t-113.5 -112t-176.5 -76.5t-243 -28.5q-101 0 -182 16.5t-136 51t-80 87t-12 125.5q7 38 22.5 66.5t24.5 48.5l313 -25q-3 -5 -9 -14.5t-9 -23.5
q-2 -12 4 -22t21 -17.5t41 -11.5t64 -4q78 0 115.5 16.5t42.5 49.5q1 8 0.5 16.5t-9 16.5t-28 14.5t-56.5 9.5l-192 14q-77 3 -126 26.5t-74.5 60.5t-31 85t3.5 99q10 57 38 99.5t68 77.5q-35 50 -47.5 116.5t2.5 151.5zM569 635q-5 -29 0.5 -52.5t19 -40.5t33.5 -26t45 -9
t48 9.5t42.5 27t33 41t18.5 51.5q4 26 -0.5 48.5t-17.5 39.5t-33 26.5t-46 9.5t-49.5 -9.5t-43 -26.5t-32.5 -39.5t-18 -49.5z" />
    <glyph glyph-name="s.1000" horiz-adv-x="1015" 
d="M193 333q67 -35 148 -57.5t169 -22.5q62 0 93 19.5t36 48.5q3 19 -9 32t-37.5 24.5t-64 23t-87.5 26.5q-59 17 -108 39t-81.5 57t-45.5 86t0 127q16 91 65.5 153t118 100t150 55t162.5 17q137 0 233 -28t161 -68l-130 -242q-70 29 -131.5 43.5t-124.5 14.5
q-58 0 -97.5 -14.5t-45.5 -50.5q-4 -21 10 -33t40.5 -20t61.5 -15t74 -18q73 -21 125 -49t83.5 -66t41 -89.5t-2.5 -120.5q-16 -91 -64 -153.5t-116.5 -101.5t-151 -56.5t-166.5 -17.5q-89 0 -161.5 11.5t-128 28t-94 35t-59.5 33.5z" />
    <glyph glyph-name="oe.1000" horiz-adv-x="1932" 
d="M169 518q22 124 77 224t138.5 171t192 109.5t236.5 38.5q124 0 219.5 -36.5t155.5 -106t81.5 -170t-0.5 -229.5q-23 -128 -78.5 -229t-139 -171t-192 -106.5t-236.5 -36.5t-223.5 36t-154.5 105.5t-79 170.5t3 230zM534 519q-12 -69 -6.5 -116.5t25 -76.5t51.5 -41.5
t73 -12.5q40 0 76.5 13t65.5 42t51 76.5t34 116.5q12 67 6.5 113.5t-25 75.5t-51 42t-71.5 13q-41 0 -77 -13.5t-66 -43t-52 -76t-34 -112.5zM1264 425q-1 -41 8.5 -72.5t33.5 -53t64.5 -32.5t100.5 -11q45 0 85 4.5t77 12.5t72.5 18.5t72.5 22.5l45 -222
q-48 -27 -104 -48.5t-116 -36.5t-121.5 -23t-120.5 -8q-136 0 -230.5 36t-149.5 104.5t-71 168.5t7 229q25 143 84.5 246.5t145 170t193.5 98.5t230 32q112 0 194 -30.5t133 -81t71 -115t8 -132.5q-10 -57 -37.5 -107.5t-78 -88t-125.5 -59.5t-181 -22h-290zM1516 802
q-49 0 -85.5 -17.5t-62.5 -46t-44 -63.5t-29 -69h215q56 0 88.5 20t40.5 63q9 53 -23 83t-100 30z" />
    <glyph glyph-name="a.alt" horiz-adv-x="1152" 
d="M320 959q34 16 76 34t94.5 33t116.5 25t144 10q54 0 109 -6t103.5 -23t89 -47t66 -78.5t32.5 -117t-9 -162.5l-110 -627h-329l-20 109q-18 -16 -46.5 -39t-65 -44t-80.5 -35.5t-94 -14.5q-72 0 -128 18t-92 58t-48.5 102.5t2.5 151.5q11 60 37 105t62.5 77.5t80 54.5
t88.5 35.5t89 21t81 11.5l199 20l7 40q8 45 -28.5 69t-124.5 24q-56 0 -122.5 -14t-127.5 -34zM730 417l-120 -13q-40 -5 -71.5 -23t-39.5 -60t13 -57.5t56 -15.5q22 0 43.5 4.5t39.5 11t33 14.5t24 15z" />
    <glyph glyph-name="zero.fitted" horiz-adv-x="1416" 
d="M1457 708q-29 -164 -87.5 -299t-150.5 -231.5t-218.5 -149.5t-291.5 -52q-305 1 -430 179.5t-61 537.5q27 156 84.5 289t149 230.5t218.5 152.5t294 56q162 1 270 -51t167 -146.5t71.5 -226t-15.5 -289.5zM1084 699q36 208 -4.5 315.5t-169.5 107.5q-53 0 -95 -19
t-75 -51.5t-57.5 -75t-42 -89.5t-29 -95.5t-19.5 -92.5q-8 -45 -13.5 -93.5t-4.5 -95.5t10.5 -89.5t30.5 -75t56.5 -51.5t89.5 -19q129 0 207.5 108t115.5 316z" />
    <glyph glyph-name="one.fitted" horiz-adv-x="1416" 
d="M462 1080l56 316h644l-246 -1396h-392l190 1080h-252zM387 362h792l-63 -362h-792z" />
    <glyph glyph-name="two.fitted" horiz-adv-x="1416" 
d="M213 0l52 295q71 50 148.5 104t153 109.5t145 111.5t124 110.5t90 106t44.5 99.5q5 30 -0.5 60.5t-24.5 55t-52 39.5t-83 15q-52 0 -98 -8t-87 -20.5t-77 -28t-67 -31.5l-68 251q112 70 245 111t298 41q121 0 206.5 -27t136 -77.5t67.5 -122t1 -160.5q-15 -85 -47.5 -159
t-77 -140t-99 -124t-114 -109.5t-122 -98t-122.5 -88.5h474l-55 -315h-991z" />
    <glyph glyph-name="three.fitted" horiz-adv-x="1416" 
d="M403 1295q48 28 107 51t124.5 39.5t137 26t145.5 9.5q135 0 232.5 -26t157.5 -73.5t83 -115t8 -149.5q-20 -114 -89 -194t-185 -125q48 -21 88.5 -48t66.5 -66.5t35 -94.5t-4 -131q-14 -80 -47.5 -142.5t-81 -109t-107 -78.5t-127 -52t-140 -29.5t-145.5 -10.5
q-63 -1 -127.5 6t-126.5 22t-119 38t-105 53l158 265q39 -18 71.5 -31t69.5 -21.5t81.5 -12.5t107.5 -4q43 0 86.5 6.5t80.5 22.5t62.5 43.5t33.5 69.5q5 28 -13.5 52t-56.5 41t-95 27t-130 10h-139l50 283h129q156 0 233 33.5t90 105.5q5 30 -7.5 52.5t-39 38t-65.5 23
t-86 7.5q-37 0 -75 -2.5t-79 -10t-86.5 -22t-97.5 -38.5z" />
    <glyph glyph-name="four.fitted" horiz-adv-x="1416" 
d="M782 0l40 229h-652l53 300l560 867h406l-533 -849h222l36 207h366l-36 -207h119l-56 -318h-119l-40 -229h-366z" />
    <glyph glyph-name="five.fitted" horiz-adv-x="1416" 
d="M329 389q101 -42 194 -70t189 -28q100 0 159 42t72 115q8 43 -6 72.5t-43 48t-70 27t-87 8.5h-355l140 792h880l-53 -299h-507l-37 -212h87q117 0 206 -32.5t145 -90.5t77 -139t4 -179q-15 -86 -50 -154.5t-84 -120.5t-110.5 -88.5t-129.5 -60t-140.5 -34t-144.5 -10.5
q-71 0 -137.5 12t-128.5 32.5t-118.5 47t-105.5 56.5z" />
    <glyph glyph-name="six.fitted" horiz-adv-x="1416" 
d="M274 657q25 142 70 254.5t104.5 197t130.5 144t148 97t157 54.5t158 17q84 0 149 -9.5t115 -23.5t86.5 -31t62.5 -33l-161 -265q-21 7 -42 15.5t-48 15.5t-63 11.5t-85 4.5q-75 0 -133 -17.5t-101 -48.5t-71 -74t-43 -93q73 31 139.5 44.5t140.5 13.5q112 0 188 -35.5
t119.5 -97.5t55 -146.5t-5.5 -181.5q-20 -111 -70 -202t-130 -156t-189 -100.5t-245 -35.5q-155 0 -253.5 46t-148.5 133.5t-56.5 214t21.5 287.5zM640 570q-33 -140 -2 -208.5t121 -68.5q81 0 134.5 42.5t67.5 120.5q14 76 -17.5 120t-98.5 44q-60 0 -112.5 -14.5
t-92.5 -35.5z" />
    <glyph glyph-name="seven.fitted" horiz-adv-x="1416" 
d="M411 1080l56 316h966l-57 -324q-47 -46 -103.5 -120t-117 -165.5t-121 -194.5t-115 -206.5t-99.5 -203t-74 -182.5h-417q67 154 141 302t152 286t158 262t159 230h-528z" />
    <glyph glyph-name="eight.fitted" horiz-adv-x="1416" 
d="M216 365q11 63 40 114.5t68.5 93.5t86 76.5t93.5 64.5q-30 24 -61 55.5t-53.5 72t-32.5 92.5t2 117q15 86 61 154.5t119 116.5t171.5 74t218.5 26q157 0 256 -32t153 -84.5t68.5 -118.5t2.5 -134q-11 -60 -40 -112.5t-69 -96t-86.5 -78t-91.5 -60.5q52 -32 92 -68.5
t64.5 -78.5t33.5 -89t0 -101q-16 -87 -63 -159.5t-124.5 -124.5t-186 -80.5t-247.5 -28.5q-140 0 -237 29.5t-154.5 81.5t-78 123.5t-5.5 154.5zM604 403q-13 -72 23.5 -107.5t113.5 -35.5q83 0 132 34.5t60 97.5q6 34 -4.5 62t-34 52.5t-57.5 46.5t-75 44
q-23 -15 -48.5 -36t-48 -46t-39.5 -53.5t-22 -58.5zM736 1023q-5 -27 6 -51.5t32 -46t50 -40.5t61 -35q23 14 45.5 31.5t41.5 38t32 44.5t18 51q5 26 1.5 49t-17.5 40t-39 27t-63 10q-148 0 -168 -118z" />
    <glyph glyph-name="nine.fitted" horiz-adv-x="1416" 
d="M1377 740q-25 -142 -70 -254.5t-104.5 -197t-130.5 -144t-148 -97t-157 -54.5t-158 -17q-84 0 -149.5 9t-115.5 23t-86.5 31t-62.5 33l162 266l42 -16t48.5 -15t63 -11.5t84.5 -4.5q78 0 137 19.5t101.5 52.5t69.5 76t41 90q-71 -32 -138.5 -47.5t-141.5 -15.5
q-112 0 -188.5 35.5t-120 97.5t-55 146t5.5 181q19 111 69.5 202t130.5 156t189 101t245 36q155 0 253.5 -46t148.5 -133.5t56.5 -214t-21.5 -287.5zM1012 833q29 138 -0.5 204.5t-120.5 66.5q-81 0 -134 -42.5t-67 -120.5q-13 -76 18 -120t99 -44q60 0 112 16.5t93 39.5z
" />
    <glyph glyph-name="zerooldstyle" unicode="&#xf730;" horiz-adv-x="1128" 
d="M175 517q26 148 81.5 251.5t132 168.5t168.5 94.5t190 29.5q99 0 180.5 -29.5t135 -94.5t73 -168.5t-6.5 -251.5q-26 -149 -82 -252t-132.5 -168t-168.5 -94t-191 -29q-98 0 -179.5 29t-135 94t-72.5 168t7 252zM514 517q-12 -66 -13 -113t10.5 -76.5t35 -43t60.5 -13.5
t65.5 13.5t50 43t37.5 76.5t28 113q12 67 12.5 114t-10.5 76.5t-35 43t-61 13.5t-65.5 -13.5t-50 -43t-37 -76.5t-27.5 -114z" />
    <glyph glyph-name="oneoldstyle" unicode="&#xf731;" horiz-adv-x="849" 
d="M177 712l56 316h624l-181 -1028h-372l125 712h-252z" />
    <glyph glyph-name="twooldstyle" unicode="&#xf732;" horiz-adv-x="1067" 
d="M105 0l47 270q49 33 107.5 69.5t118 73.5t116 74.5t101 72t73.5 66t34 58.5q3 16 -1.5 31t-19 26.5t-40 18.5t-63.5 7t-70 -6t-60 -16t-54 -23.5t-51 -27.5l-86 245q54 29 115 51.5t125.5 38.5t129.5 24t127 8q91 0 158 -20.5t108.5 -58t57 -91.5t3.5 -120
q-11 -60 -35.5 -111.5t-57.5 -96.5t-72 -83.5t-78 -71t-74.5 -60t-62.5 -50.5h320l-52 -298h-864z" />
    <glyph glyph-name="threeoldstyle" unicode="&#xf733;" horiz-adv-x="1148" 
d="M224 930q92 55 207.5 90.5t263.5 35.5q136 0 229.5 -26t149 -73t74 -114.5t4.5 -149.5q-20 -115 -88 -192.5t-188 -126.5q49 -21 89 -51t66 -71.5t35 -95.5t-3 -123q-21 -121 -80 -201t-143 -128.5t-187 -69.5t-213 -23q-127 -2 -233.5 27t-202.5 90l155 260
q31 -16 63 -30t68 -25t78 -17.5t93 -6.5q45 0 85 6.5t72.5 23t54 43.5t28.5 68q13 71 -46 105.5t-205 34.5h-139l52 295l129 1q78 0 129 8t83 26t48 47t24 72q6 31 -5 53.5t-35 37.5t-59 22t-77 7q-35 0 -69 -5t-70.5 -16t-78 -28.5t-92.5 -41.5z" />
    <glyph glyph-name="fouroldstyle" unicode="&#xf734;" horiz-adv-x="1246" 
d="M621 -389l44 251h-630l53 297l560 870l398 -1l-544 -868h216l36 205h374l-36 -205h104l-53 -298h-104l-44 -251h-374z" />
    <glyph glyph-name="fiveoldstyle" unicode="&#xf735;" horiz-adv-x="1237" 
d="M190 7q40 -21 77.5 -39.5t73 -32t71 -21.5t73.5 -8q61 0 105 12.5t74 35t47 53t23 66.5q7 41 -5 69t-39.5 45.5t-67 25t-85.5 7.5h-322l143 808h820l-53 -299h-478l-37 -211h63q118 0 205.5 -32.5t142.5 -91t75 -139.5t3 -179q-23 -129 -83.5 -218t-143 -144t-180.5 -79
t-196 -24q-78 0 -143 11t-121 29.5t-104.5 42t-92.5 48.5z" />
    <glyph glyph-name="sixoldstyle" unicode="&#xf736;" horiz-adv-x="1254" 
d="M208 657q38 214 113.5 360t174.5 236t213.5 129t231.5 39q84 0 148 -9t112.5 -23t83.5 -31t61 -33l-152 -258q-20 8 -41 18t-48 19t-62.5 15t-83.5 6q-76 0 -130.5 -21t-93 -55.5t-62.5 -80t-39 -95.5q36 15 65.5 26t58 18t58 10.5t66.5 3.5q112 0 188 -35.5t119.5 -97.5
t55 -146.5t-5.5 -181.5q-20 -111 -66.5 -202t-122.5 -156t-181 -100.5t-241 -35.5q-155 0 -250.5 46t-142.5 133.5t-51 214t24 287.5zM561 578q-30 -152 -5.5 -228.5t117.5 -76.5q45 0 79 13.5t58 38t39.5 58t22.5 73.5q16 91 -16.5 135t-100.5 44q-60 0 -107 -18t-87 -39z
" />
    <glyph glyph-name="sevenoldstyle" unicode="&#xf737;" horiz-adv-x="1136" 
d="M216 712l56 316h966l-57 -324q-48 -49 -105 -124t-117 -166t-120.5 -193t-114.5 -205t-99 -201.5t-74 -181.5h-394q67 154 141.5 302t152.5 285.5t158.5 261.5t159.5 230h-553z" />
    <glyph glyph-name="eightoldstyle" unicode="&#xf738;" horiz-adv-x="1288" 
d="M156 365q11 63 41.5 116t71.5 96.5t89 79t95 65.5q-30 24 -62.5 54t-56.5 69.5t-35.5 90t0.5 115.5q14 79 59.5 147t119 118t172.5 78t219 28q157 0 256 -32t153 -84.5t68.5 -118.5t2.5 -134q-11 -60 -41.5 -112.5t-72 -96t-89 -78.5t-91.5 -61q52 -32 92.5 -68.5t67 -78
t36.5 -88.5t1 -101q-16 -87 -63 -159.5t-124.5 -124.5t-186 -80.5t-247.5 -28.5q-140 0 -237 29.5t-154.5 81.5t-78 123.5t-5.5 154.5zM529 414q-6 -36 3 -62.5t30 -44.5t52 -26.5t69 -8.5q83 0 140.5 34.5t68.5 94.5q6 34 -8 61t-41.5 49.5t-64.5 41.5t-77 37
q-23 -15 -51 -33t-53 -39.5t-43.5 -47.5t-24.5 -56zM659 1017q-5 -30 7 -55t35.5 -46t55.5 -39t67 -35q20 12 44.5 29.5t47 39.5t39.5 48t22 55q10 54 -24 82.5t-112 28.5q-73 0 -122.5 -26t-59.5 -82z" />
    <glyph glyph-name="nineoldstyle" unicode="&#xf739;" horiz-adv-x="1254" 
d="M1223 379q-38 -213 -113 -359t-174 -236t-213.5 -129t-231.5 -39q-84 0 -148 9t-113 23t-84 31t-61 33l153 257q20 -8 41 -18t48 -19t62.5 -14.5t83.5 -5.5q75 0 129.5 20.5t93 55t62.5 80t39 95.5q-36 -15 -65 -26t-57.5 -18t-58 -10t-66.5 -3q-112 0 -188 35.5
t-119.5 97.5t-55.5 146t5 181q19 111 66.5 202t123 156t181 101t241.5 36q155 0 250.5 -46t142.5 -133.5t50.5 -214.5t-24.5 -288zM870 459q31 151 6.5 228t-117.5 77q-45 0 -79 -13.5t-58 -38t-39.5 -58t-22.5 -73.5q-16 -91 16 -135t99 -44q60 0 107.5 17.5t87.5 39.5z
" />
    <glyph glyph-name="zero.taboldstyle" horiz-adv-x="1128" 
d="M175 517q26 148 81.5 251.5t132 168.5t168.5 94.5t190 29.5q99 0 180.5 -29.5t135 -94.5t73 -168.5t-6.5 -251.5q-26 -149 -82 -252t-132.5 -168t-168.5 -94t-191 -29q-98 0 -179.5 29t-135 94t-72.5 168t7 252zM514 517q-12 -66 -13 -113t10.5 -76.5t35 -43t60.5 -13.5
t65.5 13.5t50 43t37.5 76.5t28 113q12 67 12.5 114t-10.5 76.5t-35 43t-61 13.5t-65.5 -13.5t-50 -43t-37 -76.5t-27.5 -114z" />
    <glyph glyph-name="one.taboldstyle" horiz-adv-x="849" 
d="M177 712l56 316h624l-181 -1028h-372l125 712h-252z" />
    <glyph glyph-name="two.taboldstyle" horiz-adv-x="1067" 
d="M105 0l47 270q49 33 107.5 69.5t118 73.5t116 74.5t101 72t73.5 66t34 58.5q3 16 -1.5 31t-19 26.5t-40 18.5t-63.5 7t-70 -6t-60 -16t-54 -23.5t-51 -27.5l-86 245q54 29 115 51.5t125.5 38.5t129.5 24t127 8q91 0 158 -20.5t108.5 -58t57 -91.5t3.5 -120
q-11 -60 -35.5 -111.5t-57.5 -96.5t-72 -83.5t-78 -71t-74.5 -60t-62.5 -50.5h320l-52 -298h-864z" />
    <glyph glyph-name="three.taboldstyle" horiz-adv-x="1148" 
d="M224 930q92 55 207.5 90.5t263.5 35.5q136 0 229.5 -26t149 -73t74 -114.5t4.5 -149.5q-20 -115 -88 -192.5t-188 -126.5q49 -21 89 -51t66 -71.5t35 -95.5t-3 -123q-21 -121 -80 -201t-143 -128.5t-187 -69.5t-213 -23q-127 -2 -233.5 27t-202.5 90l155 260
q31 -16 63 -30t68 -25t78 -17.5t93 -6.5q45 0 85 6.5t72.5 23t54 43.5t28.5 68q13 71 -46 105.5t-205 34.5h-139l52 295l129 1q78 0 129 8t83 26t48 47t24 72q6 31 -5 53.5t-35 37.5t-59 22t-77 7q-35 0 -69 -5t-70.5 -16t-78 -28.5t-92.5 -41.5z" />
    <glyph glyph-name="four.taboldstyle" horiz-adv-x="1246" 
d="M621 -389l44 251h-630l53 297l560 870l398 -1l-544 -868h216l36 205h374l-36 -205h104l-53 -298h-104l-44 -251h-374z" />
    <glyph glyph-name="five.taboldstyle" horiz-adv-x="1237" 
d="M190 7q40 -21 77.5 -39.5t73 -32t71 -21.5t73.5 -8q61 0 105 12.5t74 35t47 53t23 66.5q7 41 -5 69t-39.5 45.5t-67 25t-85.5 7.5h-322l143 808h820l-53 -299h-478l-37 -211h63q118 0 205.5 -32.5t142.5 -91t75 -139.5t3 -179q-23 -129 -83.5 -218t-143 -144t-180.5 -79
t-196 -24q-78 0 -143 11t-121 29.5t-104.5 42t-92.5 48.5z" />
    <glyph glyph-name="six.taboldstyle" horiz-adv-x="1254" 
d="M208 657q38 214 113.5 360t174.5 236t213.5 129t231.5 39q84 0 148 -9t112.5 -23t83.5 -31t61 -33l-152 -258q-20 8 -41 18t-48 19t-62.5 15t-83.5 6q-76 0 -130.5 -21t-93 -55.5t-62.5 -80t-39 -95.5q36 15 65.5 26t58 18t58 10.5t66.5 3.5q112 0 188 -35.5t119.5 -97.5
t55 -146.5t-5.5 -181.5q-20 -111 -66.5 -202t-122.5 -156t-181 -100.5t-241 -35.5q-155 0 -250.5 46t-142.5 133.5t-51 214t24 287.5zM561 578q-30 -152 -5.5 -228.5t117.5 -76.5q45 0 79 13.5t58 38t39.5 58t22.5 73.5q16 91 -16.5 135t-100.5 44q-60 0 -107 -18t-87 -39z
" />
    <glyph glyph-name="seven.taboldstyle" horiz-adv-x="1136" 
d="M216 712l56 316h966l-57 -324q-48 -49 -105 -124t-117 -166t-120.5 -193t-114.5 -205t-99 -201.5t-74 -181.5h-394q67 154 141.5 302t152.5 285.5t158.5 261.5t159.5 230h-553z" />
    </font>
</defs>
</svg>
