<?xml version="1.0" standalone="no"?>
<!DOCTYPE svg PUBLIC "-//W3C//DTD SVG 1.1//EN" "http://www.w3.org/Graphics/SVG/1.1/DTD/svg11.dtd" >
<svg xmlns="http://www.w3.org/2000/svg" xmlns:xlink="http://www.w3.org/1999/xlink" version="1.1">
<metadata>
Created by FontForge 20170910 at Mon Dec 18 10:55:42 2017
 By Jimmy Wärting
Copyright (c) 2017 by studio kmzero. All rights reserved.
</metadata>
<defs>
<font id="Kabrio-ExtraBold" horiz-adv-x="1262" >
  <font-face 
    font-family="Kabrio ExtBd"
    font-weight="800"
    font-stretch="normal"
    units-per-em="2048"
    panose-1="2 0 5 5 4 0 0 2 0 4"
    ascent="1500"
    descent="-548"
    x-height="1028"
    cap-height="1396"
    bbox="-247 -828 2592 2037"
    underline-thickness="102"
    underline-position="-205"
    unicode-range="U+000D-F739"
  />
<missing-glyph horiz-adv-x="782" 
 />
    <glyph glyph-name=".notdef" horiz-adv-x="782" 
 />
    <glyph glyph-name=".null" horiz-adv-x="0" 
 />
    <glyph glyph-name=".null" horiz-adv-x="0" 
 />
    <glyph glyph-name="nonmarkingreturn" unicode="&#xd;" horiz-adv-x="630" 
 />
    <glyph glyph-name="space" unicode=" " horiz-adv-x="630" 
 />
    <glyph glyph-name="numbersign" unicode="#" horiz-adv-x="1622" 
d="M156 1111h215l41 285h341l-41 -285h321l41 285h341l-41 -285h203l-42 -311h-206l-33 -223h207l-43 -311h-209l-38 -266h-341l38 266h-321l-38 -266h-341l38 266h-209l42 311h212l33 223h-212zM634 577h321l33 223h-321z" />
    <glyph glyph-name="percent" unicode="%" horiz-adv-x="2050" 
d="M584 0l486 1396h372l-485 -1396h-373zM82 1003q0 114 29 193.5t79 129.5t116.5 72.5t142.5 22.5t143 -22.5t117 -72.5t79 -129.5t29 -193.5t-29 -194t-79 -129.5t-117 -72t-143 -22.5t-142.5 22.5t-116.5 72t-79 129.5t-29 194zM350 1003q0 -51 5 -86.5t16.5 -57
t30.5 -31.5t47 -10t47.5 10t31.5 31.5t17 57t5 86.5t-5 86.5t-17 57.5t-31.5 31.5t-47.5 9.5q-29 0 -48 -9.5t-30 -31.5t-16 -57.5t-5 -86.5zM1232 391q0 114 29 193.5t79 129.5t116.5 73t142.5 23t143 -23t117 -73t79 -129.5t29 -193.5t-29 -194t-79 -129.5t-117 -72
t-143 -22.5t-142.5 22.5t-116.5 72t-79 129.5t-29 194zM1500 392q0 -51 5 -86.5t16.5 -57.5t30.5 -32t47 -10t47.5 10t31.5 32t17 57.5t5 86.5t-5 86.5t-17 57t-31.5 31.5t-47.5 10q-29 0 -48 -10t-30 -31.5t-16 -57t-5 -86.5z" />
    <glyph glyph-name="ampersand" unicode="&#x26;" horiz-adv-x="1612" 
d="M896 1077q-16 6 -31.5 11.5t-35 9t-44.5 6t-60 2.5q-48 0 -88 -7.5t-69.5 -23t-46 -38t-16.5 -52.5q0 -36 7 -62t30.5 -43.5t69 -25.5t123.5 -8h697v-261h-213v-204q0 -50 17.5 -79.5t69.5 -29.5q39 0 70.5 10t66.5 21l83 -242q-40 -20 -77 -35.5t-76.5 -26.5t-83.5 -17
t-97 -6q-78 0 -145.5 22.5t-115.5 73.5q-69 -43 -157 -70.5t-191 -25.5q-50 1 -105.5 12.5t-110 33.5t-103.5 56t-86.5 80.5t-60 106t-22.5 133.5q0 76 19 131t52 94.5t78 66.5t97 48q-109 45 -163.5 125t-54.5 194q0 82 34 149.5t100 115t163.5 73.5t224.5 26
q59 0 105.5 -4.5t88 -14t81 -25t84.5 -36.5zM693 290q51 0 87.5 12t64.5 34v227h-121q-73 0 -120.5 -9t-76 -26t-40 -41t-11.5 -54q0 -47 20 -75t51 -43t69.5 -20t76.5 -5z" />
    <glyph glyph-name="quotesingle" unicode="'" horiz-adv-x="599" 
d="M143 1433h357l-111 -476h-246v476z" />
    <glyph glyph-name="parenleft" unicode="(" horiz-adv-x="795" 
d="M116 617q0 111 16 214t41 195t55.5 171.5t60.5 143.5t55 110t40 72l357 -39q-9 -21 -30 -63.5t-47.5 -103.5t-55.5 -138.5t-52.5 -169.5t-39 -197t-15.5 -220q0 -129 22 -252t56.5 -234t77 -208t84.5 -173l-356 -37q-57 93 -106.5 195.5t-85.5 217t-56.5 243t-20.5 273.5
z" />
    <glyph glyph-name="parenright" unicode=")" horiz-adv-x="806" 
d="M678 617q0 -145 -20.5 -273.5t-56.5 -243t-85.5 -217t-106.5 -195.5l-356 37q42 76 84.5 173t77 208t56.5 234t22 252q0 115 -15.5 220t-39 197t-52 169.5t-55 138.5t-47.5 103.5t-30 63.5l356 39q14 -25 39.5 -71.5t55.5 -110.5t60.5 -143.5t55.5 -171.5t41 -195
t16 -214z" />
    <glyph glyph-name="asterisk" unicode="*" horiz-adv-x="1067" 
d="M690 1246l238 62l84 -299l-220 -57l168 -161l-231 -219l-205 197l-205 -197l-230 219l169 162l-214 56l84 299l238 -61v232h324v-233z" />
    <glyph glyph-name="plus" unicode="+" horiz-adv-x="1115" 
d="M399 432h-288v310h288v276h324v-276h288v-310h-288v-278h-324v278z" />
    <glyph glyph-name="comma" unicode="," horiz-adv-x="645" 
d="M312 297q115 0 169 -45.5t54 -126.5v-8q1 -77 -17.5 -152t-49.5 -143t-72 -126t-85 -100l-157 73q18 34 34.5 73t31 78t24.5 74.5t14 64.5q-91 11 -128 55t-37 116q0 80 53.5 123.5t165.5 43.5z" />
    <glyph glyph-name="hyphen" unicode="-" horiz-adv-x="914" 
d="M84 422v310h746v-310h-746z" />
    <glyph glyph-name="period" unicode="." horiz-adv-x="647" 
d="M316 287q115 0 169 -45.5t54 -126.5q0 -80 -52.5 -125t-164.5 -45q-62 0 -105 12t-69.5 34.5t-38.5 55t-12 73.5q0 80 53.5 123.5t165.5 43.5z" />
    <glyph glyph-name="slash" unicode="/" horiz-adv-x="1047" 
d="M84 -90l573 1649l345 -106l-573 -1650z" />
    <glyph glyph-name="zero" unicode="0" horiz-adv-x="1416" 
d="M1333 708q0 -164 -35 -299t-110 -231.5t-192 -149.5t-282 -52q-305 1 -461.5 179.5t-156.5 537.5q0 156 34 289t108.5 230.5t191.5 152.5t284 56q162 1 279 -51t192.5 -146.5t111.5 -226t36 -289.5zM961 699q-1 208 -60 315.5t-188 107.5q-53 0 -92 -19t-66 -51.5
t-44 -75t-26 -89.5t-12.5 -95.5t-3.5 -92.5q0 -45 3 -93.5t12.5 -95.5t26.5 -89.5t44 -75t65.5 -51.5t92.5 -19q129 0 188.5 108t59.5 316z" />
    <glyph glyph-name="one" unicode="1" horiz-adv-x="872" 
d="M52 1080v316h644v-1396h-392v1080h-252z" />
    <glyph glyph-name="two" unicode="2" horiz-adv-x="1206" 
d="M113 0v295q62 50 130 104t134 109.5t125.5 111.5t104.5 110.5t71.5 106t26.5 99.5q0 30 -11 60.5t-34 55t-59 39.5t-86 15q-52 0 -96.5 -8t-83 -20.5t-71.5 -28t-62 -31.5l-112 251q99 70 225 111t291 41q121 0 211.5 -27t149.5 -77.5t88.5 -122t29.5 -160.5
q0 -85 -19 -159t-52 -140t-77.5 -124t-95 -109.5t-105 -98t-106.5 -88.5h474v-315h-991z" />
    <glyph glyph-name="three" unicode="3" horiz-adv-x="1209" 
d="M65 1295q88 56 215.5 91t276.5 35q135 0 237.5 -26t170.5 -73.5t102.5 -115t34.5 -149.5q0 -114 -54.5 -194t-163.5 -125q52 -21 97 -48t78 -66.5t52 -94.5t19 -131q0 -80 -22 -142.5t-61.5 -109t-93.5 -78.5t-117.5 -52t-134.5 -29.5t-144 -10.5q-63 -1 -129 6
t-130.5 22t-125.5 38t-114 53l111 265q42 -18 77 -31t73 -21.5t83.5 -12.5t108.5 -4q43 0 85.5 6.5t76.5 22.5t55 43.5t21 69.5q0 28 -22.5 52t-64 41t-100 27t-131.5 10h-139v283h129q156 0 227.5 33.5t71.5 105.5q0 30 -16.5 52.5t-46 38t-70 23t-87.5 7.5
q-37 0 -74.5 -2.5t-77 -10t-82.5 -22t-91 -38.5z" />
    <glyph glyph-name="four" unicode="4" horiz-adv-x="1267" 
d="M712 0v229h-652v300l407 867h406l-383 -849h222v207h366v-207h119v-318h-119v-229h-366z" />
    <glyph glyph-name="five" unicode="5" horiz-adv-x="1237" 
d="M161 389q109 -42 206.5 -70t193.5 -28q100 0 152 42t52 115q0 43 -19 72.5t-51.5 48t-75 27t-88.5 8.5h-355v792h880v-299h-507v-212h87q118 0 212.5 -32.5t160.5 -90.5t101.5 -139t35.5 -179q0 -129 -49.5 -218.5t-130.5 -145t-184.5 -80t-211.5 -24.5q-71 0 -139.5 12
t-134 32.5t-126.5 47t-116 56.5z" />
    <glyph glyph-name="six" unicode="6" horiz-adv-x="1275" 
d="M89 657q0 142 25 254.5t69.5 197t105 144t131 97t147.5 54.5t155 17q84 0 151 -9.5t119.5 -23.5t91.5 -31t68 -33l-114 -265q-22 7 -45 15.5t-51.5 15.5t-65 11.5t-85.5 4.5q-75 0 -130 -17.5t-92 -48.5t-57.5 -74t-26.5 -93q67 31 131 44.5t138 13.5q112 0 194.5 -35.5
t137 -97.5t81 -146.5t26.5 -181.5q0 -111 -34.5 -202t-103 -156t-171 -100.5t-238.5 -35.5q-155 0 -261.5 46t-172 133.5t-94.5 214t-29 287.5zM470 570q-8 -140 35 -208.5t133 -68.5q81 0 127 42.5t46 120.5q0 76 -39 120t-106 44q-60 0 -110 -14.5t-86 -35.5z" />
    <glyph glyph-name="seven" unicode="7" horiz-adv-x="1136" 
d="M91 1080v316h966v-324q-38 -46 -81.5 -120t-88 -165.5t-87 -194.5t-79 -206.5t-64 -203t-41.5 -182.5h-417q40 154 88 302t102 286t112 262t118 230h-528z" />
    <glyph glyph-name="eight" unicode="8" horiz-adv-x="1288" 
d="M92 365q0 63 20 114.5t52 93.5t72.5 76.5t82.5 64.5q-35 24 -71 55.5t-66 72t-49 92.5t-19 117q0 86 34 154.5t98.5 116.5t158.5 74t214 26q157 0 262 -32t168 -84.5t89 -118.5t26 -134q0 -60 -20.5 -112.5t-52.5 -96t-72.5 -78t-80.5 -60.5q58 -32 104 -68.5t78 -78.5
t49.5 -89t17.5 -101q0 -87 -34 -159.5t-102.5 -124.5t-172 -80.5t-242.5 -28.5q-140 0 -242 29.5t-169.5 81.5t-100 123.5t-32.5 154.5zM473 403q0 -72 43 -107.5t120 -35.5q83 0 125.5 34.5t42.5 97.5q0 34 -15.5 62t-43 52.5t-65.5 46.5t-83 44q-20 -15 -42 -36t-40 -46
t-30 -53.5t-12 -58.5zM496 1023q0 -27 15 -51.5t40 -46t57.5 -40.5t67.5 -35q21 14 40.5 31.5t34.5 38t24 44.5t9 51q0 26 -7.5 49t-24.5 40t-44 27t-65 10q-147 0 -147 -118z" />
    <glyph glyph-name="nine" unicode="9" horiz-adv-x="1275" 
d="M1167 740q0 -142 -25.5 -254.5t-69.5 -197t-104.5 -144t-131 -97t-147.5 -54.5t-155 -17q-84 0 -151.5 9t-120 23t-91.5 31t-68 33l115 266q22 -8 44.5 -16t51 -15t65 -11.5t85.5 -4.5q78 0 133.5 19.5t92 52.5t56 76t25.5 90q-65 -32 -130 -47.5t-139 -15.5
q-112 0 -194.5 35.5t-137 97.5t-81 146t-26.5 181q0 111 34.5 202t103 156t171 101t238.5 36q155 0 261.5 -46t172 -133.5t94.5 -214t29 -287.5zM786 833q5 138 -36.5 204.5t-132.5 66.5q-81 0 -126.5 -42.5t-45.5 -120.5q0 -76 38.5 -120t106.5 -44q60 0 109.5 16.5
t86.5 39.5z" />
    <glyph glyph-name="colon" unicode=":" horiz-adv-x="647" 
d="M316 287q115 0 169 -45.5t54 -126.5q0 -80 -52.5 -125t-164.5 -45q-62 0 -105 12t-69.5 34.5t-38.5 55t-12 73.5q0 80 53.5 123.5t165.5 43.5zM316 1044q115 0 169 -45t54 -127q0 -80 -52.5 -125t-164.5 -45q-62 0 -105 12t-69.5 34.5t-38.5 55t-12 73.5q0 80 53.5 123.5
t165.5 43.5z" />
    <glyph glyph-name="semicolon" unicode=";" horiz-adv-x="647" 
d="M312 297q115 0 169 -45.5t54 -126.5v-8q1 -77 -17.5 -152t-49.5 -143t-72 -126t-85 -100l-157 73q18 34 34.5 73t31 78t24.5 74.5t14 64.5q-91 11 -128 55t-37 116q0 80 53.5 123.5t165.5 43.5zM327 1092q115 0 169 -45.5t54 -126.5q0 -80 -52.5 -125t-164.5 -45
q-62 0 -105 12t-69.5 34.5t-38.5 55t-12 73.5q0 80 53.5 123.5t165.5 43.5z" />
    <glyph glyph-name="less" unicode="&#x3c;" horiz-adv-x="875" 
d="M466 541l338 -295l-215 -205l-523 501l523 498l216 -205z" />
    <glyph glyph-name="equal" unicode="=" horiz-adv-x="1118" 
d="M111 164v288h900v-288h-900zM111 596v288h900v-288h-900z" />
    <glyph glyph-name="greater" unicode="&#x3e;" horiz-adv-x="875" 
d="M72 835l216 205l522 -498l-522 -501l-216 205l340 295z" />
    <glyph glyph-name="question" unicode="?" horiz-adv-x="1017" 
d="M74 1301q26 23 68.5 45t93.5 39t107 27t110 10q245 0 363 -90.5t123 -262.5q2 -73 -12.5 -129.5t-41.5 -101t-65 -80.5t-83 -69q-34 -26 -62.5 -56.5t-48 -68.5t-28 -86t-3.5 -109h-304q-15 59 -18 121.5t9 122.5t42 114t81 96q38 31 66.5 53.5t48 41t29.5 37.5t10 45
q0 56 -45 81.5t-123 25.5q-56 0 -114.5 -11t-134.5 -38zM438 251q91 0 134 -36t43 -102q0 -65 -41.5 -100.5t-131.5 -35.5q-93 0 -136.5 36.5t-43.5 102.5t43 100.5t133 34.5z" />
    <glyph glyph-name="at" unicode="@" horiz-adv-x="2253" 
d="M576 487q0 149 40 257t116.5 178.5t187.5 104.5t254 34q62 0 126 -9.5t124 -25t113 -35.5t95 -42v-669q0 -21 21 -31t53 -10q42 0 72 29t49 83.5t28 133t9 177.5q0 154 -47 261.5t-137.5 175t-224 98t-305.5 30.5q-200 0 -344.5 -44.5t-237.5 -139t-137.5 -240.5
t-44.5 -348q0 -166 37 -284t115 -194.5t199.5 -113.5t290.5 -40q127 -2 236 12.5t208 41.5l15 -244q-112 -46 -232 -60t-249 -14q-237 5 -409.5 65t-284 173.5t-165 281.5t-53.5 389q0 266 66 458t201 316t340 183t483 59q232 0 414.5 -52t308.5 -154.5t192.5 -254
t66.5 -349.5q0 -190 -36 -323t-98 -217t-145 -122.5t-177 -38.5q-72 0 -125 6t-92 17t-66.5 27t-48.5 36l-10 11q-18 -18 -51.5 -35t-78 -30t-97.5 -21t-110 -8q-116 0 -202 36t-142 102.5t-83.5 161t-27.5 211.5zM941 509q0 -65 14 -110t37.5 -73.5t55 -41t66.5 -12.5
q41 0 79.5 15.5t65.5 36.5v419q-15 5 -46.5 13t-83.5 8q-44 0 -78.5 -14.5t-59 -45t-37.5 -79t-13 -116.5z" />
    <glyph glyph-name="A" unicode="A" horiz-adv-x="1510" 
d="M1062 -10q-13 60 -26.5 124.5t-29.5 133.5h-501q-18 -76 -32.5 -142t-25.5 -116l-406 10q12 58 32 137.5t45.5 171.5t56 193.5t63.5 204t67.5 202.5t68.5 190t67 166.5t62 130.5h504q27 -48 58.5 -120t65 -159.5t68 -187t68 -202.5t64.5 -206.5t57.5 -198t47 -177.5
t32.5 -145zM743 1081q-40 -106 -82 -244.5t-80 -284.5h349q-37 137 -77.5 270.5t-85.5 258.5h-24z" />
    <glyph glyph-name="B" unicode="B" horiz-adv-x="1309" 
d="M150 0v1396h553q106 0 196.5 -23.5t156.5 -70t103 -115.5t37 -160q0 -61 -20 -109t-51.5 -83.5t-70 -59.5t-76.5 -37v-9q57 -17 104.5 -48t82.5 -74t54.5 -98t19.5 -120q0 -91 -30.5 -163t-92 -122.5t-153.5 -77t-216 -26.5h-597zM540 277h148q94 0 139.5 37t45.5 115
q0 70 -43 111.5t-134 41.5h-156v-305zM540 847h143q81 0 125.5 40.5t44.5 107.5t-44.5 103t-128.5 36h-140v-287z" />
    <glyph glyph-name="C" unicode="C" horiz-adv-x="1317" 
d="M449 689q0 -108 25 -183.5t72 -123t113.5 -69.5t150.5 -22q48 0 92.5 7.5t85.5 20t78 28t70 31.5l112 -262q-45 -29 -105.5 -54.5t-128 -44.5t-138 -30t-134.5 -11q-91 0 -176.5 14t-160.5 46.5t-137 85.5t-106.5 131.5t-69 185t-24.5 245.5q0 141 24.5 250.5t69 191.5
t106.5 138.5t137 91t160.5 50t176.5 15.5q72 0 144 -11.5t139 -31t124 -45t99 -53.5l-110 -262q-68 34 -150 61t-178 27q-86 0 -153.5 -22.5t-113.5 -72.5t-70 -129.5t-24 -192.5z" />
    <glyph glyph-name="D" unicode="D" horiz-adv-x="1474" 
d="M150 0v1396h531q91 0 181 -13.5t171.5 -45t151.5 -82.5t121.5 -125t80.5 -173.5t29 -227.5q0 -196 -48 -334.5t-141 -226t-229 -128t-311 -40.5h-537zM541 315h162q75 0 136.5 22.5t105 70t67 122t23.5 178.5q0 180 -80 276.5t-229 96.5h-185v-766z" />
    <glyph glyph-name="E" unicode="E" horiz-adv-x="1217" 
d="M150 0v1396h963v-315h-573v-230h488v-293h-488v-243h596v-315h-986z" />
    <glyph glyph-name="F" unicode="F" horiz-adv-x="1194" 
d="M150 0v1396h961v-315h-571v-283h494v-292h-494v-506h-390z" />
    <glyph glyph-name="G" unicode="G" horiz-adv-x="1398" 
d="M68 699q0 364 176.5 543t518.5 179q76 0 148.5 -10.5t136 -26.5t116.5 -35.5t90 -38.5l-110 -270q-38 15 -82.5 27t-92 21t-95.5 13.5t-91 4.5q-75 0 -137 -25.5t-105.5 -75t-67.5 -123.5t-24 -171q0 -104 21.5 -182t61.5 -131t97 -79.5t129 -26.5q38 0 75 3t62 10v386
h366v-640q-54 -19 -118 -33t-132 -23.5t-136.5 -14t-131.5 -4.5q-166 0 -292 43t-211 131.5t-128.5 225t-43.5 323.5z" />
    <glyph glyph-name="H" unicode="H" horiz-adv-x="1577" 
d="M150 0v1396h390v-534h491v534h393v-1396h-393v546h-491v-546h-390z" />
    <glyph glyph-name="I" unicode="I" horiz-adv-x="692" 
d="M150 0v1396h390v-1396h-390z" />
    <glyph glyph-name="J" unicode="J" horiz-adv-x="897" 
d="M747 441q0 -115 -21.5 -202t-68 -145.5t-121 -88t-179.5 -29.5q-44 0 -89 5.5t-87.5 14.5t-81.5 21t-72 26l57 281q16 -6 36 -12t41.5 -10.5t43 -7.5t40.5 -3q33 0 54.5 10.5t34 30t17.5 48t5 63.5v953h391v-955z" />
    <glyph glyph-name="K" unicode="K" horiz-adv-x="1418" 
d="M150 0v1396h390v-509q66 58 122.5 116.5t103.5 120.5t86 129.5t71 142.5h421q-30 -80 -72 -161.5t-94 -160.5t-112.5 -154.5t-125.5 -142.5q38 -74 93 -162t120.5 -178t138 -176t146.5 -158l-288 -193q-63 53 -130.5 128.5t-132 161.5t-122 176.5t-98.5 173.5
q-32 -20 -63.5 -37.5t-63.5 -31.5v-481h-390z" />
    <glyph glyph-name="L" unicode="L" horiz-adv-x="1182" 
d="M150 0v1396h390v-1081h558v-315h-948z" />
    <glyph glyph-name="M" unicode="M" horiz-adv-x="1982" 
d="M97 0q3 89 6 168.5t7.5 157t10.5 156t13 165.5q9 110 19.5 215t22 200.5t23 180t21.5 152.5h526l238 -865h15l237 865h527q20 -139 43.5 -326t42.5 -422q8 -100 14 -187.5t10.5 -166t7.5 -151t5 -142.5h-399q-1 66 -2.5 143.5t-4.5 160.5t-6.5 168t-9 165.5t-12 153
t-15.5 130.5h-14l-260 -920h-343l-261 920h-14q-14 -100 -22.5 -218.5t-14 -241t-8 -241.5t-4.5 -220h-399z" />
    <glyph glyph-name="N" unicode="N" horiz-adv-x="1612" 
d="M150 0v1396h407q42 -47 84.5 -110t85.5 -133.5t86 -145.5t86 -146.5t85.5 -136t84.5 -114.5h10l-7 786h390v-1396h-400q-47 51 -92.5 113.5t-90 131t-88 139.5t-85.5 137.5t-82.5 126t-80.5 105.5h-11l8 -753h-390z" />
    <glyph glyph-name="O" unicode="O" horiz-adv-x="1575" 
d="M1507 695q-1 -168 -50.5 -302t-141.5 -227t-223.5 -142t-296.5 -48q-173 1 -309 51.5t-229.5 144t-142.5 226t-47 297.5q2 168 51 302t141.5 228t227 144.5t308.5 51.5q167 1 299.5 -51t224.5 -147.5t140.5 -230t47.5 -297.5zM793 1106q-86 0 -149.5 -32.5t-106.5 -88.5
t-65 -131t-24 -159q-2 -81 20 -154.5t66 -129t109 -88t151 -32.5q77 0 139 30.5t105.5 84.5t66.5 128t23 161q0 83 -22.5 157.5t-65 131t-105 89.5t-142.5 33z" />
    <glyph glyph-name="P" unicode="P" horiz-adv-x="1331" 
d="M150 0v1396h555q134 0 239 -30t178 -90.5t111 -151.5t38 -214q0 -137 -45 -235t-122 -160.5t-180.5 -92t-220.5 -29.5h-163v-393h-390zM540 688h150q48 0 85 14.5t62.5 41.5t39 65t13.5 84q0 97 -52 148t-156 51h-142v-404z" />
    <glyph glyph-name="Q" unicode="Q" horiz-adv-x="1575" 
d="M1507 695q-2 -236 -96 -402t-268 -247q46 -37 99 -74t108.5 -71.5t112.5 -65t110 -54.5l-219 -204q-81 31 -163 77t-159.5 100t-148 111.5t-127.5 111.5q-164 6 -293 59t-217.5 146t-134.5 222.5t-44 290.5q2 168 51 302t141.5 228t227 144.5t308.5 51.5q167 1 299.5 -51
t224.5 -147.5t140.5 -230t47.5 -297.5zM793 1106q-86 0 -149.5 -32.5t-106.5 -88.5t-65 -131t-24 -159q-2 -81 20 -154.5t66 -129t109 -88t151 -32.5q77 0 139 30.5t105.5 84.5t66.5 128t23 161q0 83 -22.5 157.5t-65 131t-105 89.5t-142.5 33z" />
    <glyph glyph-name="S" unicode="S" horiz-adv-x="1194" 
d="M155 392q65 -27 119.5 -46.5t103 -31.5t93 -17.5t90.5 -5.5q96 0 142 30.5t46 81.5q0 54 -57 89t-159 61q-101 25 -184.5 57.5t-143.5 79.5t-93 114t-33 163q0 106 33.5 190.5t102.5 143t173.5 89.5t247.5 31q52 0 114 -7.5t126 -23t127 -39t117 -54.5l-112 -263
q-76 32 -163 52t-168 20q-208 0 -208 -106q0 -29 14 -50t42.5 -37t71 -30t99.5 -30q219 -57 330 -157.5t111 -264.5q0 -106 -33 -190t-100 -143t-169 -90.5t-240 -31.5q-87 0 -161.5 9t-141.5 26.5t-129 42.5t-123 57z" />
    <glyph glyph-name="T" unicode="T" horiz-adv-x="1168" 
d="M25 1081v315h1116v-315h-363v-1081h-390v1081h-363z" />
    <glyph glyph-name="U" unicode="U" horiz-adv-x="1511" 
d="M761 -24q-137 -2 -254.5 26.5t-203.5 96t-135 178t-49 272.5v847h390v-814q0 -69 10 -123.5t38 -91.5t77 -56.5t126 -19.5q69 0 115 19.5t74 56.5t40 91t12 122v816h390v-847q0 -160 -48.5 -269t-133 -176.5t-200 -97t-248.5 -30.5z" />
    <glyph glyph-name="V" unicode="V" horiz-adv-x="1477" 
d="M477 0q-48 90 -96.5 205.5t-94.5 242.5t-88.5 259t-78.5 257t-65 236t-47 196l414 10q9 -64 27 -146t41 -173.5t51 -188.5t59 -191.5t63 -181.5t63 -159h26q28 67 58.5 151.5t60 177t58 190t52.5 190.5t42.5 177.5t30.5 153.5l415 -10q-16 -79 -43 -185.5t-62 -228
t-77 -253t-88.5 -260.5t-96 -249.5t-100.5 -219.5h-524z" />
    <glyph glyph-name="W" unicode="W" horiz-adv-x="2075" 
d="M1214 1396q8 -52 23 -128t34 -164t41 -181t44 -180t43.5 -161.5t40.5 -124.5h19q16 53 32 129.5t30 165.5t26.5 183.5t22 182t15.5 163t9 125.5l411 -10q-8 -104 -25.5 -225.5t-42 -249.5t-54.5 -257.5t-62 -250t-64.5 -226.5t-62.5 -187h-470q-17 41 -35 95t-36 114.5
t-35 125t-32 126t-27 117t-20 98.5h-4q-11 -70 -30.5 -157.5t-44.5 -179t-53.5 -180t-57.5 -159.5h-470q-25 66 -56 165t-62.5 218t-62.5 251t-57 265t-45 260.5t-27 236.5l413 10q1 -50 8 -127.5t17 -168.5t23 -188t27 -186t28.5 -162.5t28.5 -116.5h19q20 48 42.5 124.5
t45.5 166t44.5 185.5t40 184t32.5 161.5t21 117.5h355z" />
    <glyph glyph-name="X" unicode="X" horiz-adv-x="1384" 
d="M20 0q41 96 86.5 185.5t93.5 179.5q30 55 64.5 113t66.5 107.5t56.5 85.5t33.5 47q-24 36 -45.5 67.5t-44.5 67t-49.5 78.5t-60.5 103q-47 83 -88 174t-80 188l443 10q11 -36 30.5 -91.5t51.5 -136.5q29 -66 55 -122t50 -101h17q9 18 20 39t24.5 49.5t29 66t35.5 87.5
q13 32 23 58.5t19 50.5t17 48.5t19 51.5l442 -10q-32 -78 -74 -174.5t-111 -216.5q-60 -101 -105.5 -173t-75.5 -114q45 -66 98 -148t118 -200q23 -42 45 -82.5t44 -84.5t45.5 -93.5t49.5 -109.5l-447 -10q-17 49 -37.5 106.5t-57.5 131.5q-23 48 -40.5 85t-32 64.5t-26 48
t-21.5 35.5h-18q-12 -18 -26.5 -43t-30 -55.5t-32.5 -64.5t-33 -69q-14 -29 -27.5 -62t-26 -65.5t-23.5 -61.5t-18 -50z" />
    <glyph glyph-name="Y" unicode="Y" horiz-adv-x="1364" 
d="M209 936q-34 61 -68.5 127t-65 128t-55 115.5t-38.5 89.5l435 10q21 -60 53 -137.5t67 -152.5q17 -37 35.5 -75t36.5 -72.5t34 -63.5t29 -48h20q12 21 28 49.5t33.5 62.5t35.5 70.5t34 73.5q38 85 68.5 157.5t51.5 135.5l438 -10q-42 -100 -101 -217t-128 -244
q-32 -58 -64.5 -110.5t-66 -103t-70 -102t-75.5 -106.5v-513h-391v513q-29 40 -62.5 88t-69.5 102t-73 112.5t-71 120.5z" />
    <glyph glyph-name="Z" unicode="Z" horiz-adv-x="1269" 
d="M82 0v273q38 62 88.5 128t107.5 134.5t118 137t119.5 136t111 132.5t94.5 125v15h-613v315h1084v-302q-33 -56 -81 -119.5t-104 -130.5t-116 -135.5t-115.5 -135t-103 -128.5t-78.5 -115v-15h581v-315h-1093z" />
    <glyph glyph-name="bracketleft" unicode="[" horiz-adv-x="801" 
d="M162 -328v1864h575v-285h-207v-1294h207v-285h-575z" />
    <glyph glyph-name="backslash" unicode="\" horiz-adv-x="1038" 
d="M650 -197l-573 1650l345 106l573 -1649z" />
    <glyph glyph-name="bracketright" unicode="]" horiz-adv-x="804" 
d="M92 -328v285h206v1294h-206v285h575v-1864h-575z" />
    <glyph glyph-name="asciicircum" unicode="^" horiz-adv-x="1265" 
d="M381 1022l-340 87l355 371l460 -1l349 -370l-342 -88l-241 231z" />
    <glyph glyph-name="underscore" unicode="_" horiz-adv-x="1407" 
d="M129 -14h1151v-256h-1151v256z" />
    <glyph glyph-name="grave" unicode="`" horiz-adv-x="750" 
d="M453 1129l-314 318l274 149l217 -363z" />
    <glyph glyph-name="a" unicode="a" horiz-adv-x="1215" 
d="M45 487q0 149 40 257t116.5 178.5t187.5 104.5t254 34q62 0 126 -9.5t124 -25t113.5 -35.5t95.5 -42v-949h-329l-40 110q-18 -18 -46 -41t-64.5 -44t-82 -35t-98.5 -14q-95 0 -168.5 36t-124.5 102.5t-77.5 161t-26.5 211.5zM410 509q0 -65 14 -110t37.5 -73.5t54.5 -41
t66 -12.5q42 0 80.5 15.5t66.5 36.5v420q-14 5 -47 12.5t-83 7.5q-44 0 -78.5 -14.5t-59.5 -45t-38 -79t-13 -116.5z" />
    <glyph glyph-name="b" unicode="b" horiz-adv-x="1245" 
d="M115 1456h373v-482q24 15 52.5 30t62 28t71.5 21t80 8q111 0 190 -40.5t129 -110t73 -163t23 -199.5q0 -134 -35 -240.5t-105.5 -180t-176 -112.5t-247.5 -39q-70 0 -138.5 9t-132 23t-119 32t-100.5 35v1381zM488 291q26 -8 57.5 -13.5t69.5 -5.5q46 0 81.5 13.5
t59.5 44t36.5 79.5t12.5 121q0 123 -46.5 178.5t-128.5 55.5q-20 0 -41.5 -4.5t-41 -11t-35 -14t-24.5 -13.5v-430z" />
    <glyph glyph-name="c" unicode="c" horiz-adv-x="1058" 
d="M78 523q0 123 34.5 222.5t100.5 169.5t162 108t219 38q100 0 197.5 -24t191.5 -78l-95 -240q-24 10 -47 18.5t-47.5 14.5t-51.5 9t-60 3q-239 0 -239 -250q0 -67 19.5 -113.5t52 -75t74.5 -41.5t87 -13q61 0 112.5 13t98.5 33l97 -240q-39 -21 -81 -39t-90 -32
t-104.5 -22t-125.5 -8q-141 0 -237.5 47t-156 124t-85.5 175.5t-26 200.5z" />
    <glyph glyph-name="d" unicode="d" horiz-adv-x="1250" 
d="M806 0l-40 110q-17 -18 -45 -41t-65.5 -44t-85 -35t-104.5 -14q-92 0 -164 35.5t-121.5 102.5t-76 163t-26.5 216q0 100 21.5 181t59 144.5t87 109t105.5 75.5t115 44t116 14q38 0 64 -2.5t45.5 -6t35 -9t32.5 -11.5v424h375v-1456h-328zM443 511q0 -66 14.5 -111.5
t38.5 -74t55 -41t65 -12.5q78 0 145 46v422q-16 8 -49.5 16t-71.5 8q-52 0 -89.5 -18t-61.5 -51t-35 -80t-11 -104z" />
    <glyph glyph-name="e" unicode="e" horiz-adv-x="1170" 
d="M454 375q12 -22 28.5 -42t43.5 -35.5t68 -25t103 -9.5q77 0 145.5 21t127.5 50l99 -242q-87 -54 -195 -85t-227 -31q-136 0 -242 32.5t-178.5 99t-110.5 168t-38 238.5q0 139 40.5 242t114 171t175.5 101t224 33q111 0 197 -30.5t144.5 -81t88.5 -115t30 -132.5
q0 -57 -17 -115t-60.5 -105.5t-119.5 -77t-194 -29.5h-247zM613 766q-35 0 -63 -11.5t-48.5 -32t-33.5 -47.5t-17 -57h185q42 0 66.5 15.5t24.5 47.5q0 23 -9 39.5t-25 26.5t-36.5 14.5t-43.5 4.5z" />
    <glyph glyph-name="f" unicode="f" horiz-adv-x="767" 
d="M39 997l103 30v51q0 87 24.5 159t72.5 123.5t119 80t164 28.5q82 0 148 -15t131 -46l-77 -250q-16 5 -42.5 10t-61.5 5q-62 0 -83 -27t-21 -81v-37h190v-268h-190v-760h-374v760h-103v237z" />
    <glyph glyph-name="g" unicode="g" horiz-adv-x="1249" 
d="M78 487q0 146 39.5 254t116 179t189 106t257.5 35q59 0 122 -9.5t123.5 -25t114.5 -36t94 -41.5v-915q0 -128 -40 -220t-113 -151t-174 -86.5t-223 -27.5q-47 0 -97 7t-100.5 20.5t-100.5 32.5t-96 42l91 235q45 -23 109.5 -39.5t133.5 -16.5q59 0 105.5 11t79 37.5
t49.5 69t17 104.5v23q-20 -17 -49 -34.5t-66 -31.5t-80.5 -23.5t-92.5 -9.5q-105 0 -182 38t-127.5 105.5t-75 161.5t-24.5 206zM443 509q0 -63 13.5 -108t37 -73.5t55.5 -42t69 -13.5q19 0 39 4.5t39.5 11.5t36 16.5t28.5 18.5v422q-15 6 -48 12.5t-76 6.5t-78.5 -13
t-61 -43t-40 -78.5t-14.5 -120.5z" />
    <glyph glyph-name="h" unicode="h" 
d="M115 1456h373v-474l44 22t60.5 26t76.5 22t92 9q81 0 151.5 -26t123.5 -76.5t83.5 -125.5t30.5 -173v-660h-372v605q0 19 -2.5 46t-14 52t-35.5 42.5t-66 17.5q-22 0 -46.5 -5.5t-48.5 -14t-44 -18.5t-33 -18v-707h-373v1456z" />
    <glyph glyph-name="i" unicode="i" horiz-adv-x="604" 
d="M115 0v1028h374v-1028h-374zM301 1494q111 0 163 -44t52 -123q0 -78 -51 -121.5t-160 -43.5q-112 0 -165 44.5t-53 123.5q0 80 52.5 122t161.5 42z" />
    <glyph glyph-name="j" unicode="j" horiz-adv-x="604" 
d="M-185 -131q58 -16 101.5 -25t82.5 -8q35 0 57.5 14t36 35t18.5 47t5 52v1044h373v-1050q0 -79 -22.5 -156t-73.5 -138t-133.5 -98.5t-203.5 -37.5q-43 0 -85 5.5t-80.5 14.5t-73 20t-62.5 22zM303 1494q111 0 163.5 -44t52.5 -123q0 -78 -51.5 -121.5t-160.5 -43.5
q-112 0 -164.5 44.5t-52.5 123.5q0 80 52 122t161 42z" />
    <glyph glyph-name="k" unicode="k" horiz-adv-x="1257" 
d="M1166 1028q-52 -146 -135.5 -257.5t-178.5 -195.5q31 -65 79 -134.5t102 -136t107.5 -125t95.5 -99.5l-270 -174q-47 33 -102.5 88t-110.5 120t-103.5 135t-81.5 134q-22 -11 -42 -20.5t-38 -17.5v-345h-373v1456h373v-766q51 28 94.5 65t80 81t65.5 92.5t51 99.5h387v0z
" />
    <glyph glyph-name="l" unicode="l" horiz-adv-x="604" 
d="M115 0v1456h373v-1456h-373z" />
    <glyph glyph-name="m" unicode="m" horiz-adv-x="1881" 
d="M112 882q45 29 111 60.5t145 58t167 43.5t177 17q91 0 161.5 -21t121.5 -61q86 38 170.5 60t172.5 22q129 0 211.5 -34t130 -90t65.5 -127t18 -146v-664h-374v616q0 28 -2 55t-12.5 47.5t-31.5 33t-59 12.5q-18 0 -40 -4.5t-44 -11.5t-42.5 -16t-36.5 -18q3 -26 3 -53
v-661h-373v627q0 24 -2.5 48.5t-12.5 44t-30 32t-55 12.5q-23 0 -47 -4.5t-46 -11.5t-40.5 -15t-30.5 -15v-718h-375v882z" />
    <glyph glyph-name="n" unicode="n" 
d="M115 881q44 30 108 61.5t142.5 58t168 43.5t184.5 17q122 0 205.5 -32t134.5 -86t73 -126t22 -153v-664h-374v629q0 22 -5 45t-18 41.5t-34 30t-53 11.5q-23 0 -48.5 -4.5t-49.5 -12t-45.5 -16.5t-37.5 -17v-707h-373v881z" />
    <glyph glyph-name="o" unicode="o" horiz-adv-x="1255" 
d="M78 518q0 124 37.5 224t108 171t172.5 109.5t230 38.5q124 0 226 -36.5t174.5 -106t112 -170t39.5 -229.5q0 -128 -38 -229t-109 -171t-173 -106.5t-230 -36.5t-230 36t-173 105.5t-109 170.5t-38 230zM443 519q0 -69 14 -116.5t38.5 -76.5t59 -41.5t75.5 -12.5
q40 0 74 13t58 42t37.5 76.5t13.5 116.5q0 67 -13.5 113.5t-38 75.5t-58.5 42t-74 13q-41 0 -75 -13.5t-58.5 -43t-38.5 -76t-14 -112.5z" />
    <glyph glyph-name="p" unicode="p" horiz-adv-x="1249" 
d="M115 888q33 26 92.5 56t132 55.5t152 42.5t153.5 17q145 0 244 -33.5t160 -100.5t87.5 -167.5t26.5 -233.5q0 -67 -10 -134t-31.5 -128t-55 -113t-81 -90.5t-110 -60.5t-141.5 -22q-44 0 -79 3.5t-65 9t-55 12.5t-47 14v-422h-373v1295zM488 288q21 -6 50 -11t77 -5
q94 0 142.5 61.5t48.5 182.5q0 68 -11 114t-33 74.5t-54.5 40.5t-74.5 12q-43 0 -82 -14t-63 -28v-427z" />
    <glyph glyph-name="q" unicode="q" horiz-adv-x="1249" 
d="M78 489q0 150 41.5 258t119.5 177.5t190 103t254 33.5q58 0 118.5 -9t119 -24t113 -35.5t100.5 -43.5v-1349h-373v459q-19 -13 -45.5 -27.5t-59.5 -27t-73 -20.5t-85 -8q-100 0 -178 36.5t-132 103.5t-82 162t-28 211zM443 512q0 -65 13.5 -110.5t37 -74t56 -42
t71.5 -13.5q35 0 72.5 9t67.5 23v444q-36 16 -132 16q-39 0 -72.5 -13.5t-59 -43.5t-40 -78t-14.5 -117z" />
    <glyph glyph-name="r" unicode="r" horiz-adv-x="938" 
d="M140 890q91 60 188.5 99t196.5 55t196.5 10t187.5 -36l-50 -277q-41 7 -85 9.5t-88.5 -2.5t-88 -19.5t-83.5 -42.5v-686h-374v890z" />
    <glyph glyph-name="s" unicode="s" horiz-adv-x="1015" 
d="M139 347q78 -39 158.5 -60t155.5 -21q28 0 52.5 4.5t42.5 12t28.5 18.5t10.5 23q0 13 -15 21.5t-43 17t-68.5 19t-90.5 26.5q-62 19 -115.5 45t-93 63.5t-62 91t-22.5 128.5q0 90 38.5 152t101 100.5t140.5 55.5t156 17q143 0 244.5 -28.5t172.5 -67.5l-91 -250
q-73 27 -136 39.5t-114 12.5q-30 0 -56.5 -3t-46.5 -9.5t-32 -16.5t-12 -24q0 -15 18.5 -24.5t48 -17.5t65.5 -15.5t72 -18.5q155 -47 228 -127t73 -205q0 -90 -37 -153t-98 -102t-139.5 -57t-161.5 -18q-89 0 -163.5 11t-133.5 27.5t-101.5 35.5t-67.5 34z" />
    <glyph glyph-name="t" unicode="t" horiz-adv-x="908" 
d="M64 998l111 30l46 264h328l-1 -264h215v-268h-215v-379q0 -51 18.5 -80t70.5 -29q39 0 70.5 10t66.5 21l83 -242q-40 -20 -77.5 -35.5t-77 -26.5t-83.5 -17t-97 -6q-70 0 -133 18.5t-110.5 60t-75.5 109t-28 165.5v431h-111v238z" />
    <glyph glyph-name="u" unicode="u" 
d="M109 1028h374v-587q0 -53 12 -86t32.5 -51.5t46 -25t52.5 -6.5q45 0 83 13t65 33v710h374v-1028h-329l-38 107q-23 -26 -53 -49.5t-66 -41.5t-78 -29t-87 -11q-101 0 -174.5 36t-121 97.5t-70 142t-22.5 169.5v607z" />
    <glyph glyph-name="v" unicode="v" horiz-adv-x="1219" 
d="M383 0q-74 129 -131 258.5t-99.5 259t-72 257.5t-48.5 253l402 10q2 -44 10 -102t19.5 -123t26.5 -132.5t32.5 -131.5t37 -121.5t40.5 -100.5h20q19 40 38 95t37 117.5t33.5 129.5t27.5 132.5t20 126t11 110.5l402 -10q-21 -140 -52.5 -271.5t-74.5 -257.5t-98.5 -250
t-124.5 -249h-456z" />
    <glyph glyph-name="w" unicode="w" horiz-adv-x="1881" 
d="M1819 1028q-8 -120 -34 -254.5t-62.5 -269.5t-81 -264t-89.5 -240h-457q-49 121 -89 244.5t-66 255.5h-2q-25 -141 -68 -267t-87 -233h-455q-28 63 -58 145.5t-59 175t-55.5 189.5t-47 190.5t-33.5 177.5t-15 150l391 10q1 -79 8 -168t19 -179.5t29.5 -178.5t41.5 -166
h13q20 51 39 111t36.5 123.5t32 127.5t25.5 122.5t18 109.5t10 88h433q6 -77 21.5 -163t37 -174.5t47.5 -176t55 -168.5h13q13 45 26 103.5t24.5 123.5t21 132t16 129t9 115t1.5 89z" />
    <glyph glyph-name="x" unicode="x" horiz-adv-x="1197" 
d="M41 0q12 38 24 73t26.5 70.5t32.5 72.5t42 79q25 46 48.5 80.5t46 61.5t43.5 48.5t41 42.5q-48 60 -95 114t-82 119q-44 81 -69.5 144t-39.5 123l404 7q8 -38 18 -78.5t27 -82.5q20 -53 42 -86t43 -60h9q25 33 44.5 66.5t39.5 78.5q17 40 28 83t17 79l404 -7
q-9 -34 -18 -64t-21 -60.5t-29 -65t-41 -78.5t-47.5 -76t-45.5 -57.5t-43 -48.5t-42 -48q19 -20 41.5 -45t46 -54t45.5 -60.5t41 -64.5q29 -53 48 -91t33 -71.5t25 -67t25 -76.5l-403 -7q-8 37 -19.5 77t-37.5 97q-10 22 -22 47.5t-24 49t-24 43t-21 30.5h-8q-9 -11 -21 -30
t-24.5 -41.5t-25.5 -48t-23 -49.5q-14 -34 -23.5 -59.5t-15.5 -45.5t-10 -37t-7 -33z" />
    <glyph glyph-name="y" unicode="y" horiz-adv-x="1221" 
d="M180 -349q75 86 139 169t118 180h-45q-69 113 -128.5 246t-105 270t-77 269t-45.5 243l399 10q7 -86 21 -180.5t35 -189t48.5 -186t62.5 -170.5h20q25 48 46 110.5t38.5 131.5t31.5 139.5t24 135t16 119t8 90.5l400 -10q-6 -70 -24 -157.5t-45 -183.5t-61 -194t-71 -189
t-76 -169.5t-75 -134.5q-27 -50 -65.5 -116t-82.5 -136.5t-89.5 -138.5t-85.5 -121z" />
    <glyph glyph-name="z" unicode="z" horiz-adv-x="1068" 
d="M111 732v296h851v-256q-44 -63 -99 -121.5t-112.5 -115.5t-113 -115t-100.5 -120v-4h434v-296h-895v275q44 60 98.5 116t111.5 110.5t111 110.5t97 116v4h-383z" />
    <glyph glyph-name="braceleft" unicode="{" horiz-adv-x="860" 
d="M110 733q51 10 81.5 33.5t46 57t19.5 76t1 90.5l-9 161q-5 118 27 194t94.5 120.5t153 62t203.5 18.5h85l-3 -284q-13 0 -31 -0.5t-53 -3.5q-57 -2 -79.5 -32t-22.5 -90q0 -87 5 -157.5t-1 -128.5q-4 -60 -18.5 -100.5t-37 -67.5t-52 -44.5t-63.5 -32.5q36 -16 67.5 -35
t55.5 -50t38 -77.5t14 -118.5q0 -26 -1 -50t-2.5 -51.5t-3 -62t-1.5 -82.5q0 -64 21 -93t78 -33q20 -4 43.5 -4t43.5 -1l3 -284q-20 -1 -41.5 0t-41.5 1q-150 2 -245 28t-148 76.5t-71.5 127t-15.5 180.5l6 177q2 49 -4.5 86t-23 64t-45.5 44t-72 28v258z" />
    <glyph glyph-name="bar" unicode="|" horiz-adv-x="614" 
d="M129 -420v1917h358v-1917h-358z" />
    <glyph glyph-name="braceright" unicode="}" horiz-adv-x="891" 
d="M766 475q-44 -11 -72.5 -28t-45.5 -44t-23.5 -64t-4.5 -86l6 -177q3 -104 -15 -180.5t-71.5 -127t-148 -76.5t-244.5 -28q-21 0 -42 -1t-42 0l3 284q21 1 44.5 1t43.5 4q56 4 77 33t21 93q0 48 -1.5 82.5t-3 62t-2.5 51.5t-1 50q1 72 15 118.5t38 77.5t55.5 50t67.5 35
q-35 15 -64.5 32.5t-52 44.5t-37 67.5t-18.5 100.5q-5 58 -0.5 128.5t4.5 157.5q0 60 -22.5 90t-78.5 32q-35 3 -53.5 3.5t-31.5 0.5l-3 284h86q112 -1 203 -18.5t153.5 -62t94 -120.5t26.5 -194l-8 -161q-3 -48 1 -90.5t19.5 -76t46 -57t81.5 -33.5v-258z" />
    <glyph glyph-name="asciitilde" unicode="~" horiz-adv-x="1292" 
d="M50 518q54 128 155 194.5t231 66.5q64 0 117.5 -16t100.5 -34.5t90.5 -34.5t88.5 -16q30 0 52.5 4.5t41 15t35 27.5t35.5 43l218 -124q-29 -74 -74.5 -123.5t-97 -79.5t-105 -42.5t-98.5 -12.5q-63 0 -116.5 16t-101.5 34.5t-92.5 34.5t-90.5 16q-35 0 -59 -6.5
t-43 -18.5t-35 -29.5t-34 -38.5z" />
    <glyph glyph-name="exclamdown" unicode="&#xa1;" horiz-adv-x="666" 
d="M165 731h341l27 -918h-396zM340 913q-112 0 -165.5 43.5t-53.5 123.5q0 82 54.5 128.5t170.5 46.5q112 0 164.5 -45t52.5 -125q0 -82 -54 -127t-169 -45z" />
    <glyph glyph-name="sterling" unicode="&#xa3;" horiz-adv-x="1274" 
d="M122 739h93q-12 25 -23.5 51t-21.5 57.5t-16 70.5t-6 92q0 73 23.5 146t77.5 132t142 96t217 37q88 0 160.5 -11t133.5 -29.5t113 -43t100 -51.5l-105 -265q-24 12 -56.5 27t-72 28t-85 22t-95.5 9q-35 0 -65.5 -11.5t-52.5 -32.5t-34.5 -50.5t-12.5 -66.5
q0 -34 6.5 -61.5t16.5 -51.5t22.5 -47t23.5 -47h263v-192h-227q-2 -37 -9.5 -76t-20 -75t-29.5 -66.5t-38 -51.5q35 0 63 -3t56.5 -7t62 -7t79.5 -3t83 4.5t68.5 12t59.5 18t57 23.5l107 -249q-33 -23 -77.5 -40.5t-93.5 -28.5t-99 -16.5t-94 -5.5q-54 0 -108.5 4t-112 9
t-119.5 9t-131 4q-38 0 -76 -4t-69 -9q-36 -5 -70 -12v280q38 17 62 48.5t38.5 70.5t20 83.5t5.5 87.5h-134v192z" />
    <glyph glyph-name="yen" unicode="&#xa5;" horiz-adv-x="1395" 
d="M1165 153h-897v232h897v-232zM1165 469h-897v231h897v-231zM236 936q-34 61 -68.5 127t-65 128t-55 115.5t-38.5 89.5l435 10q21 -60 53 -137.5t67 -152.5q17 -37 35.5 -75t36.5 -72.5t34 -63.5t29 -48h20q12 21 28 49.5t33.5 62.5t35.5 70.5t34 73.5q38 85 68.5 157.5
t51.5 135.5l438 -10q-42 -100 -101 -217t-128 -244q-32 -58 -64.5 -110.5t-66 -103t-70 -102t-75.5 -106.5v-513h-391v513q-29 40 -62.5 88t-69.5 102t-73 112.5t-71 120.5z" />
    <glyph glyph-name="brokenbar" unicode="&#xa6;" horiz-adv-x="616" 
d="M129 -410v791h360v-791h-360zM129 700v809h360v-809h-360z" />
    <glyph glyph-name="section" unicode="&#xa7;" horiz-adv-x="1097" 
d="M127 307q177 -61 325 -61q67 0 101 19t34 50q0 17 -18.5 31.5t-49 27t-70 25t-79.5 24.5q-59 16 -111 39.5t-92 60t-63 90t-23 128.5q0 52 13 95t37 77.5t56.5 61t71.5 46.5q-35 42 -55 95t-20 116q0 90 38 152.5t100 100.5t140.5 55t159.5 17q138 0 238.5 -28t172.5 -68
l-87 -228q-33 11 -67 20.5t-67 16t-64 10.5t-56 4q-27 0 -52.5 -4t-46 -11.5t-33 -20t-12.5 -28.5q0 -19 17.5 -32t46 -23.5t64.5 -20t73 -21.5q74 -25 131 -52.5t95.5 -64.5t58.5 -86.5t20 -118.5q0 -55 -14 -99t-39 -79t-59.5 -61t-75.5 -44q40 -44 62.5 -96.5
t22.5 -116.5q0 -91 -37 -153.5t-98.5 -101.5t-140.5 -56.5t-164 -17.5q-89 0 -167 13t-140 31t-104 36t-58 28zM405 774q0 -15 10.5 -26.5t28 -21t41 -17.5t50.5 -16q15 -4 29.5 -5.5t28.5 -1.5q67 0 101 19.5t34 49.5q0 15 -13.5 27.5t-37 24t-54 22t-64.5 20.5h-5
q-26 0 -52.5 -5.5t-48 -15.5t-35 -24t-13.5 -30z" />
    <glyph glyph-name="dieresis" unicode="&#xa8;" horiz-adv-x="1046" 
d="M408 1423q92 0 135 -36t43 -102q0 -65 -41.5 -101t-130.5 -36q-94 0 -137 37t-43 103q0 65 42.5 100t131.5 35zM859 1423q91 0 134.5 -36t43.5 -102q0 -65 -42.5 -101t-130.5 -36q-94 0 -137 37t-43 103q0 65 42.5 100t132.5 35z" />
    <glyph glyph-name="copyright" unicode="&#xa9;" horiz-adv-x="1551" 
d="M55 696q0 156 55.5 289t154.5 230t234 151.5t294 54.5q162 0 297.5 -55.5t233.5 -153t153 -230t55 -287.5t-55 -287t-152.5 -229t-233 -151.5t-295.5 -54.5q-163 0 -299 55t-234.5 151.5t-153 229t-54.5 287.5zM271 696q0 -112 38.5 -207.5t108 -166t165 -110.5
t209.5 -40q113 0 209 40t165.5 110.5t109 166t39.5 206.5q0 112 -39.5 209.5t-109.5 169.5t-166 113t-208 41q-102 0 -196 -36t-166.5 -104t-115.5 -167t-43 -225zM409 697q0 105 26.5 182t76.5 128t121.5 76t162.5 25q74 0 147.5 -18t144.5 -60l-69 -175q-39 17 -75.5 27
t-86.5 10q-96 0 -140.5 -46.5t-44.5 -155.5q0 -57 14 -94.5t39 -60.5t58 -32.5t71 -9.5q47 0 87 10.5t78 25.5l69 -174q-59 -32 -129.5 -54t-169.5 -22q-106 0 -178.5 32t-117.5 88t-64.5 132.5t-19.5 165.5z" />
    <glyph glyph-name="ordfeminine" unicode="&#xaa;" horiz-adv-x="972" 
d="M135 1457q26 13 57.5 27.5t72.5 27t92.5 20.5t117.5 8q44 0 89 -5t86.5 -18.5t77.5 -38.5t62.5 -64.5t42 -96t15.5 -133.5v-505h-238l-23 85q-12 -13 -37 -31t-57.5 -34.5t-71.5 -28t-80 -11.5q-59 0 -107.5 15t-83.5 47.5t-54.5 84t-19.5 124.5q0 74 32 120.5t80 74.5
t102.5 40t99.5 17l189 17v21q0 18 -7 35t-25.5 29.5t-50.5 20t-82 7.5q-48 0 -103.5 -16t-102.5 -33zM579 1032l-155 -18q-32 -3 -55 -19.5t-23 -54.5q0 -39 24 -52.5t66 -13.5q18 0 40 3.5t42.5 9t37 12t23.5 12.5v121z" />
    <glyph glyph-name="guillemotleft" unicode="&#xab;" horiz-adv-x="1387" 
d="M459 541l243 -340l-277 -160l-336 501l336 498l276 -160zM1045 541l242 -340l-276 -160l-337 501l337 498l276 -160z" />
    <glyph glyph-name="logicalnot" unicode="&#xac;" horiz-adv-x="1221" 
d="M65 636v282h1026v-566h-302v284h-724z" />
    <glyph glyph-name="registered" unicode="&#xae;" horiz-adv-x="1511" 
d="M60 698q0 156 55.5 289t154.5 230t234.5 151.5t294.5 54.5q161 0 296.5 -55.5t234 -153t153.5 -230t55 -287.5q0 -103 -25 -197t-71 -174t-112 -145t-148 -110.5t-178 -70.5t-203 -25q-163 0 -299 55t-234.5 151.5t-153 229t-54.5 287.5zM266 698q0 -114 39.5 -212.5
t110 -171.5t168 -115t213.5 -42q115 0 212.5 42t169 115t111.5 171t40 211q0 115 -40.5 214t-111.5 172.5t-169 115.5t-212 42q-104 0 -199.5 -36.5t-169.5 -106t-118 -170.5t-44 -229zM991 275q-29 24 -59 61t-57 78.5t-50 84t-38 77.5q-11 -1 -20 -0.5t-14 0.5h-31v-260
h-239v811h290q82 0 147 -15t111 -47.5t70.5 -83.5t24.5 -124q0 -47 -11.5 -83.5t-31 -65t-46 -49t-55.5 -35.5q35 -60 86 -124t111 -124zM728 747h109q36 0 61.5 23.5t25.5 68.5q0 24 -8 41.5t-20.5 28t-28 15.5t-30.5 5h-109v-182z" />
    <glyph glyph-name="degree" unicode="&#xb0;" horiz-adv-x="838" 
d="M416 1265q-62 0 -95.5 -25.5t-33.5 -81.5q0 -113 132 -113q68 0 96.5 30.5t28.5 78.5q0 58 -32.5 84.5t-95.5 26.5zM416 1421q167 0 248.5 -68t81.5 -199q0 -60 -19 -109t-58.5 -83.5t-100.5 -53.5t-145 -19q-170 0 -252.5 70t-82.5 201q0 261 328 261z" />
    <glyph glyph-name="plusminus" unicode="&#xb1;" horiz-adv-x="1118" 
d="M399 709h-288v296h288v276h324v-276h288v-296h-288v-292h-324v292zM111 2v288h900v-288h-900z" />
    <glyph glyph-name="acute" unicode="&#xb4;" horiz-adv-x="750" 
d="M139 1233l218 363l273 -149l-314 -318z" />
    <glyph glyph-name="paragraph" unicode="&#xb6;" horiz-adv-x="1686" 
d="M585 -227v729h-52q-117 0 -204.5 29t-145.5 84t-87 134t-29 179q0 94 23.5 179t78.5 149.5t145 102t223 37.5h439v-1623h-391zM1146 -227v1623h390v-1623h-390z" />
    <glyph glyph-name="cedilla" unicode="&#xb8;" horiz-adv-x="670" 
d="M93 -278q23 -6 48 -8.5t48 -2.5q19 0 38 3.5t34 11t24 20t9 30.5q0 40 -30.5 52t-80.5 12q-14 0 -33.5 -1.5t-38.5 -5.5l70 163h233l-37 -76q65 -11 107 -54.5t42 -117.5q0 -97 -69.5 -149.5t-203.5 -52.5q-57 0 -108.5 7.5t-93.5 23.5z" />
    <glyph glyph-name="guillemotright" unicode="&#xbb;" horiz-adv-x="1399" 
d="M675 880l276 160l336 -498l-336 -501l-277 160l243 340zM89 880l275 160l338 -498l-338 -501l-275 160l241 340z" />
    <glyph glyph-name="questiondown" unicode="&#xbf;" horiz-adv-x="1001" 
d="M947 -92q-26 -23 -68 -44.5t-93 -38.5t-107.5 -27.5t-109.5 -10.5q-245 0 -363 90.5t-123 262.5q-2 73 12.5 129.5t41.5 101t64.5 80.5t82.5 69q34 26 62.5 56t48 68.5t28 86.5t3.5 109h305q15 -59 18 -121.5t-9.5 -122.5t-42 -114t-80.5 -96q-38 -32 -66.5 -54
t-48 -40.5t-29.5 -38t-10 -44.5q0 -56 44.5 -81.5t122.5 -25.5q56 0 114.5 11t134.5 38zM584 958q-91 0 -134 36t-43 102q0 65 41.5 101t131.5 36q93 0 136 -37t43 -103t-43 -100.5t-132 -34.5z" />
    <glyph glyph-name="AE" unicode="&#xc6;" horiz-adv-x="2011" 
d="M932 0v255h-432q-27 -86 -46 -150.5t-25 -104.5h-422q12 57 33 136.5t51 178t69.5 213.5t87.5 242q42 114 85 211.5t82 177t72.5 139.5t57.5 98h1341v-315h-578v-230h493v-293h-493v-243h601v-315h-977zM794 1080q-20 -42 -44 -103.5t-50.5 -133t-54 -148.5t-52.5 -150
h339v535h-138z" />
    <glyph glyph-name="Eth" unicode="&#xd0;" horiz-adv-x="1474" 
d="M656 579h-686v232h686v-232zM150 0v1396h531q91 0 181 -13.5t171.5 -45t151.5 -82.5t121.5 -125t80.5 -173.5t29 -227.5q0 -196 -48 -334.5t-141 -226t-229 -128t-311 -40.5h-537zM541 315h162q75 0 136.5 22.5t105 70t67 122t23.5 178.5q0 180 -80 276.5t-229 96.5h-185
v-766z" />
    <glyph glyph-name="multiply" unicode="&#xd7;" horiz-adv-x="1115" 
d="M332 597l-204 196l230 219l203 -195l203 195l230 -220l-204 -196l204 -195l-229 -219l-203 195l-204 -196l-230 219z" />
    <glyph glyph-name="Thorn" unicode="&#xde;" horiz-adv-x="1340" 
d="M526 1396v-190h171q136 0 243 -29t180 -89t111.5 -151.5t38.5 -215.5q0 -138 -45 -236t-122 -160.5t-180.5 -91t-220.5 -28.5h-176v-205h-391v1396h391zM526 499h161q97 0 149.5 55t52.5 150q0 97 -53 148t-162 51h-148v-404z" />
    <glyph glyph-name="germandbls" unicode="&#xdf;" horiz-adv-x="1474" 
d="M123 0v1224q86 107 227.5 167t337.5 60q123 0 215.5 -32.5t155 -83.5t93.5 -113.5t31 -122.5q0 -52 -6 -89.5t-20 -67.5t-37 -56.5t-58 -57.5q-43 -36 -68 -58t-25 -46q0 -14 9 -25t27 -22t45 -23.5t63 -29.5q40 -19 84 -44.5t80.5 -61.5t60 -85t23.5 -116
q0 -165 -109 -253t-322 -88q-104 0 -199 21t-196 58l81 238q22 -8 51.5 -16t62.5 -15t68.5 -11.5t70.5 -4.5q19 0 41.5 3.5t41.5 12t32 22t13 33.5q0 21 -14.5 35t-39 25.5t-56.5 22.5t-66 25q-53 21 -95 44.5t-71 53.5t-44 67.5t-15 85.5q0 33 5 63t19 59.5t39 58t64 58.5
q24 18 43.5 30.5t33.5 24t21.5 24t7.5 30.5q0 47 -43 76t-115 29q-60 0 -102.5 -14t-71.5 -37v-1078h-374z" />
    <glyph glyph-name="ae" unicode="&#xe6;" horiz-adv-x="1836" 
d="M48 487q0 149 40 257t116.5 178.5t188 104.5t253.5 34q91 0 183 -19t170 -47q126 66 301 66q111 0 197 -30.5t144.5 -81t88.5 -115t30 -132.5q0 -57 -17 -120t-60.5 -115.5t-119.5 -87t-194 -34.5h-222q31 -42 86 -62t142 -20q38 0 73 7.5t67.5 19t63 26t59.5 28.5
l99 -252q-87 -54 -195 -85t-227 -31q-117 0 -210 24h-329l-39 110q-19 -18 -47 -41t-64.5 -44t-82 -35t-98.5 -14q-95 0 -168.5 36t-124.5 102.5t-77.5 161t-26.5 211.5zM414 509q0 -65 14 -110t37.5 -73.5t54.5 -41t66 -12.5q42 0 80.5 15.5t65.5 36.5v420
q-14 5 -46.5 12.5t-83.5 7.5q-44 0 -78.5 -14.5t-59 -45t-37.5 -79t-13 -116.5zM1281 766q-35 0 -61.5 -11.5t-46 -31t-33 -44t-21.5 -51.5h185q42 0 66.5 10.5t24.5 42.5q0 23 -9 39.5t-25 26.5t-36.5 14.5t-43.5 4.5z" />
    <glyph glyph-name="eth" unicode="&#xf0;" horiz-adv-x="1251" 
d="M435 1178l65 74q-37 16 -71.5 27t-63.5 16l91 238q60 -12 117.5 -29t113.5 -40l96 110l223 -163l-82 -92q58 -52 106 -118.5t82 -150t52.5 -185t18.5 -222.5q0 -179 -38.5 -305.5t-112 -207t-182 -117.5t-247.5 -37q-129 0 -231 33t-172.5 97t-107.5 156.5t-37 212.5
q0 122 38.5 214.5t104 154.5t151 93t179.5 31q109 0 183 -23.5t113 -51.5q-3 60 -29 111.5t-67 95.5l-83 -92zM420 468q0 -57 15.5 -98t42 -67.5t61.5 -39.5t73 -13q76 0 118.5 31.5t63 85t25 123.5t3.5 147q-51 33 -94 48t-94 15q-54 0 -94.5 -17.5t-67 -49t-39.5 -74
t-13 -91.5z" />
    <glyph glyph-name="divide" unicode="&#xf7;" horiz-adv-x="1115" 
d="M111 421v288h900v-288h-900zM556 330q91 0 134.5 -36.5t43.5 -102.5q0 -64 -42 -100t-131 -36q-94 0 -137 37t-43 103q0 65 42.5 100t132.5 35zM556 1066q91 0 134.5 -36.5t43.5 -102.5q0 -64 -42 -100t-131 -36q-94 0 -137 37t-43 103q0 65 42.5 100t132.5 35z" />
    <glyph glyph-name="thorn" unicode="&#xfe;" horiz-adv-x="1224" 
d="M488 1434v-388q36 6 74 9.5t76 3.5q262 0 397.5 -141t135.5 -408q0 -67 -10.5 -133t-34 -125.5t-62 -110t-94 -87t-130 -57.5t-170.5 -21q-71 0 -115.5 9.5t-66.5 18.5v-97l-373 1v1526h373zM488 304q16 -8 30 -14t29.5 -10t34 -6t42.5 -2q88 0 135 61.5t47 182.5
q0 68 -12.5 115t-36 76.5t-58 43t-78.5 13.5q-35 0 -70.5 -8t-62.5 -19v-433zM488 -93v-362h-373v363z" />
    <glyph glyph-name="OE" unicode="&#x152;" horiz-adv-x="1976" 
d="M1028 0q-53 -12 -109.5 -18.5t-119.5 -5.5q-175 1 -311.5 47t-229.5 137t-141 225t-46 310q2 179 50 314.5t140 226.5t227 137.5t311 47.5q120 0 221 -24l-1 -1h834v-315h-578v-230h493v-293h-493v-243h601v-315h-848zM798 291q27 0 52.5 4t48.5 12v773
q-20 11 -46.5 18.5t-55.5 7.5q-86 0 -149.5 -29.5t-106.5 -83t-64.5 -129.5t-23.5 -169q0 -89 22 -163.5t65.5 -128t108 -83t149.5 -29.5z" />
    <glyph glyph-name="oe" unicode="&#x153;" horiz-adv-x="1921" 
d="M87 518q0 124 37.5 224t108 171t172.5 109.5t230 38.5q124 0 226 -36.5t174.5 -106t112 -170t39.5 -229.5q0 -128 -38 -229t-109 -171t-173 -106.5t-230 -36.5t-230 36t-173 105.5t-109 170.5t-38 230zM452 519q0 -69 14 -116.5t38.5 -76.5t59 -41.5t75.5 -12.5
q40 0 74 13t58 42t37.5 76.5t13.5 116.5q0 67 -13.5 113.5t-38 75.5t-58.5 42t-74 13q-41 0 -75 -13.5t-58.5 -43t-38.5 -76t-14 -112.5zM1208 375q12 -22 28.5 -42t43.5 -35.5t68 -25t103 -9.5q77 0 145.5 21t127.5 50l99 -242q-87 -54 -195 -85t-227 -31q-136 0 -242 32.5
t-178.5 99t-110.5 168t-38 238.5q0 139 40.5 242t114 171t175.5 101t224 33q111 0 197 -30.5t144.5 -81t88.5 -115t30 -132.5q0 -57 -17 -115t-60.5 -105.5t-119.5 -77t-194 -29.5h-247zM1367 766q-35 0 -63 -11.5t-48.5 -32t-33.5 -47.5t-17 -57h185q42 0 66.5 15.5
t24.5 47.5q0 23 -9 39.5t-25 26.5t-36.5 14.5t-43.5 4.5z" />
    <glyph glyph-name="circumflex" unicode="&#x2c6;" horiz-adv-x="947" 
d="M278 1147l-237 61l230 272h363l225 -272l-239 -62l-171 162z" />
    <glyph glyph-name="tilde" unicode="&#x2dc;" horiz-adv-x="1016" 
d="M76 1268q21 50 51.5 90.5t69.5 69t85 44t97 15.5q50 0 91.5 -12t78 -27t70 -27t68.5 -12q24 0 40 3t28 10.5t23 20t25 32.5l183 -109q-23 -58 -58 -99.5t-75.5 -67.5t-82.5 -38.5t-77 -12.5q-50 0 -91 12t-78.5 27t-72 27t-70.5 12q-27 0 -44 -4t-29.5 -12.5t-23.5 -21
t-24 -28.5z" />
    <glyph glyph-name="endash" unicode="&#x2013;" horiz-adv-x="1303" 
d="M68 422v310h1161v-310h-1161z" />
    <glyph glyph-name="emdash" unicode="&#x2014;" horiz-adv-x="2327" 
d="M63 422v310h2194v-310h-2194z" />
    <glyph glyph-name="quoteleft" unicode="&#x2018;" horiz-adv-x="622" 
d="M306 756q-114 0 -168 45.5t-54 126.5q-2 78 16 154.5t49 145.5t72.5 128t85.5 101l158 -73q-18 -35 -34.5 -73.5t-31 -77.5t-25 -75t-14.5 -64q91 -11 128.5 -55t37.5 -116q0 -80 -53.5 -123.5t-166.5 -43.5z" />
    <glyph glyph-name="quoteright" unicode="&#x2019;" horiz-adv-x="620" 
d="M302 1407q115 0 169 -45.5t54 -126.5v-8q1 -77 -17.5 -152t-49.5 -143t-72 -126t-85 -100l-157 73q18 34 34.5 73t31 78t24.5 74.5t14 64.5q-91 11 -128 55t-37 116q0 80 53.5 123.5t165.5 43.5z" />
    <glyph glyph-name="quotesinglbase" unicode="&#x201a;" horiz-adv-x="626" 
d="M305 297q115 0 169 -45.5t54 -126.5v-8q1 -77 -17.5 -152t-49.5 -143t-72 -126t-85 -100l-157 73q18 34 34.5 73t31 78t24.5 74.5t14 64.5q-91 11 -128 55t-37 116q0 80 53.5 123.5t165.5 43.5z" />
    <glyph glyph-name="quotedblleft" unicode="&#x201c;" horiz-adv-x="1072" 
d="M793 745q-114 0 -168 45.5t-54 126.5q-2 78 16 154.5t49 145.5t72.5 128t85.5 101l158 -73q-18 -35 -34.5 -73.5t-31 -77.5t-25 -75t-14.5 -64q91 -11 128.5 -55t37.5 -116q0 -80 -53.5 -123.5t-166.5 -43.5zM283 745q-114 0 -168 45.5t-54 126.5q-2 78 16 154.5
t49 145.5t72.5 128t85.5 101l158 -73q-18 -35 -34.5 -73.5t-31 -77.5t-25 -75t-14.5 -64q91 -11 128.5 -55t37.5 -116q0 -80 -53.5 -123.5t-166.5 -43.5z" />
    <glyph glyph-name="quotedblright" unicode="&#x201d;" horiz-adv-x="1049" 
d="M268 1444q115 0 169 -45.5t54 -126.5v-8q1 -77 -17.5 -152t-49.5 -143t-72 -126t-85 -100l-157 73q18 34 34.5 73t31 78t24.5 74.5t14 64.5q-91 11 -128 55t-37 116q0 80 53.5 123.5t165.5 43.5zM767 1444q115 0 169 -45.5t54 -126.5v-8q1 -77 -17.5 -152t-49.5 -143
t-72 -126t-85 -100l-157 73q18 34 34.5 73t31 78t24.5 74.5t14 64.5q-91 11 -128 55t-37 116q0 80 53.5 123.5t165.5 43.5z" />
    <glyph glyph-name="quotedblbase" unicode="&#x201e;" horiz-adv-x="1095" 
d="M292 297q115 0 169 -45.5t54 -126.5v-8q1 -77 -17.5 -152t-49.5 -143t-72 -126t-85 -100l-157 73q18 34 34.5 73t31 78t24.5 74.5t14 64.5q-91 11 -128 55t-37 116q0 80 53.5 123.5t165.5 43.5zM798 297q115 0 169 -45.5t54 -126.5v-8q1 -77 -17.5 -152t-49.5 -143
t-72 -126t-85 -100l-157 73q18 34 34.5 73t31 78t24.5 74.5t14 64.5q-91 11 -128 55t-37 116q0 80 53.5 123.5t165.5 43.5z" />
    <glyph glyph-name="bullet" unicode="&#x2022;" horiz-adv-x="568" 
d="M270 793q115 0 169 -45.5t54 -126.5q0 -80 -52.5 -125t-164.5 -45q-62 0 -105 12t-69.5 34.5t-38.5 55t-12 73.5q0 80 53.5 123.5t165.5 43.5z" />
    <glyph glyph-name="ellipsis" unicode="&#x2026;" horiz-adv-x="1555" 
d="M277 251q92 0 135 -36t43 -102q0 -65 -41.5 -100.5t-131.5 -35.5q-94 0 -137 36.5t-43 102.5t42.5 100.5t132.5 34.5zM770 251q92 0 135 -36t43 -102q0 -65 -42 -100.5t-131 -35.5q-94 0 -137 36.5t-43 102.5t42.5 100.5t132.5 34.5zM1272 251q91 0 134 -36t43 -102
q0 -65 -41.5 -100.5t-131.5 -35.5q-93 0 -136 36.5t-43 102.5t42.5 100.5t132.5 34.5z" />
    <glyph glyph-name="guilsinglleft" unicode="&#x2039;" horiz-adv-x="766" 
d="M444 541l243 -340l-277 -160l-336 501l336 498l276 -160z" />
    <glyph glyph-name="guilsinglright" unicode="&#x203a;" horiz-adv-x="766" 
d="M76 880l276 160l337 -498l-337 -501l-276 160l242 340z" />
    <glyph glyph-name="Euro" unicode="&#x20ac;" horiz-adv-x="1495" 
d="M1044 634v-175h-970v175h970zM74 762v175h970v-175h-970zM635 689q0 -108 25 -183.5t72 -123t113.5 -69.5t150.5 -22q48 0 92.5 7.5t85.5 20t78 28t70 31.5l112 -262q-45 -29 -105.5 -54.5t-128 -44.5t-138 -30t-134.5 -11q-91 0 -176.5 14t-160.5 46.5t-137 85.5
t-106.5 131.5t-69 185t-24.5 245.5q0 141 24.5 250.5t69 191.5t106.5 138.5t137 91t160.5 50t176.5 15.5q72 0 144 -11.5t139 -31t124 -45t99 -53.5l-110 -262q-68 34 -150 61t-178 27q-86 0 -153.5 -22.5t-113.5 -72.5t-70 -129.5t-24 -192.5z" />
    <glyph glyph-name="trademark" unicode="&#x2122;" horiz-adv-x="1747" 
d="M91 1267v172h573v-172h-173v-528h-197v528h-203zM726 739l31 700h272l125 -458l128 458h270l30 -700h-198l-13 469l-115 -446h-204l-120 445l-13 -468h-193z" />
    <glyph glyph-name="dagger" unicode="&#x2020;" horiz-adv-x="958" 
d="M31 1030h269v467h358v-467h271v-342h-271v-1108h-358v1108h-269v342z" />
    <glyph glyph-name="daggerdbl" unicode="&#x2021;" horiz-adv-x="958" 
d="M31 1030h269v467h358v-467h271v-342h-271v-177h271v-342h-271v-589h-358v589h-269v342h269v177h-269v342z" />
    <glyph glyph-name="perthousand" unicode="&#x2030;" horiz-adv-x="2673" 
d="M1232 391q0 114 29 193.5t79 129.5t116.5 73t142.5 23q99 0 181.5 -39.5t131.5 -127.5q49 88 131.5 127.5t181.5 39.5q76 0 142.5 -23t116.5 -73t79 -129.5t29 -193.5t-29 -194t-79 -129.5t-116.5 -72t-142.5 -22.5q-99 0 -181.5 38.5t-131.5 126.5
q-49 -88 -131.5 -126.5t-181.5 -38.5q-76 0 -142.5 22.5t-116.5 72t-79 129.5t-29 194zM584 0l486 1396h372l-485 -1396h-373zM82 1003q0 114 29 193.5t79 129.5t116.5 72.5t142.5 22.5t143 -22.5t117 -72.5t79 -129.5t29 -193.5t-29 -194t-79 -129.5t-117 -72t-143 -22.5
t-142.5 22.5t-116.5 72t-79 129.5t-29 194zM2125 392q0 -51 5 -86.5t16.5 -57.5t30.5 -32t48 -10q28 0 47.5 10t31 32t16.5 57.5t5 86.5t-5 86.5t-16.5 57t-31 31.5t-47.5 10q-29 0 -48 -10t-30.5 -31.5t-16.5 -57t-5 -86.5zM1500 392q0 -51 5 -86.5t16.5 -57.5t30.5 -32
t47 -10t47.5 10t31.5 32t17 57.5t5 86.5t-5 86.5t-17 57t-31.5 31.5t-47.5 10q-29 0 -48 -10t-30 -31.5t-16 -57t-5 -86.5zM350 1003q0 -51 5 -86.5t16.5 -57t30.5 -31.5t47 -10t47.5 10t31.5 31.5t17 57t5 86.5t-5 86.5t-17 57.5t-31.5 31.5t-47.5 9.5q-29 0 -48 -9.5
t-30 -31.5t-16 -57.5t-5 -86.5z" />
    <glyph glyph-name="hungarumlaut" unicode="&#x2dd;" horiz-adv-x="750" 
d="M2 1140l217 363l271 -145l-315 -319zM456 1140l218 363l271 -145l-315 -319z" />
    <glyph glyph-name=".Dot" horiz-adv-x="79" 
d="M-19 1006q0 38 15 72t41.5 59t61.5 39.5t75 14.5t75.5 -14.5t62.5 -39.5t43 -59t16 -72t-16 -71.5t-43 -58.5t-62.5 -39.5t-75.5 -14.5t-75 14.5t-61.5 39.5t-41.5 58.5t-15 71.5zM485 991q0 38 15 72t41.5 59t61.5 39.5t75 14.5t74.5 -14.5t59.5 -39.5t39.5 -59
t14.5 -72t-14.5 -63t-39.5 -40t-59.5 -21.5t-74.5 -6.5t-75 6.5t-61.5 21.5t-41.5 40t-15 63z" />
    <glyph glyph-name=".dot" horiz-adv-x="5" 
d="M101 566q0 37 14.5 69.5t39.5 56.5t59 38t72 14t72.5 -14t60.5 -38t41 -56.5t15 -69.5q0 -36 -15 -68t-41 -56t-60.5 -38t-72.5 -14t-72 14t-59 38t-39.5 56t-14.5 68zM605 545q0 38 15 71.5t41.5 58.5t61.5 39.5t75 14.5t72 -14.5t54 -39.5t34 -58.5t12 -71.5t-12 -60.5
t-34 -34t-54 -14.5t-72 -3t-75 3t-61.5 14.5t-41.5 34t-15 60.5z" />
    <glyph glyph-name="breve" unicode="&#x2d8;" horiz-adv-x="1792" 
d="M655 1148q-76 0 -130 14.5t-91.5 38t-60.5 53.5t-37 60.5t-21 59t-12 49.5l214 41q6 -23 13.5 -45t22 -38.5t39 -26.5t64.5 -10t63.5 10t37 26.5t20.5 38t14 44.5l215 -40q-5 -21 -12 -49.5t-21 -59t-37 -60.5t-60.5 -53.5t-91.5 -38t-129 -14.5z" />
    <glyph glyph-name="caron" unicode="&#x2c7;" horiz-adv-x="947" 
d="M451 1338l114 142l298 -71l-230 -242h-363l-231 246l302 66z" />
    <glyph glyph-name="dotaccent" unicode="&#x2d9;" horiz-adv-x="1046" 
d="M408 1423q92 0 135 -36t43 -102q0 -65 -41.5 -101t-130.5 -36q-94 0 -137 37t-43 103q0 65 42.5 100t131.5 35z" />
    <glyph glyph-name="ogonek" unicode="&#x2db;" horiz-adv-x="670" 
d="M528 -418q-42 -16 -93.5 -23t-108.5 -7q-134 0 -208.5 55t-74.5 152q0 40 13 75t34.5 64.5t49.5 53.5t58 44h210q-29 -27 -52.5 -49t-40 -43t-25 -43.5t-8.5 -50.5q0 -27 9.5 -44.5t25 -28.5t35 -15.5t38.5 -4.5q23 0 48 2t48 8z" />
    <glyph glyph-name="ring" unicode="&#x2da;" horiz-adv-x="1046" 
d="M631 1388q-71 0 -71 -56q0 -59 74 -59q36 0 52 15.5t16 41.5q0 58 -71 58zM630 1510q117 0 172.5 -46.5t55.5 -133.5q0 -84 -53.5 -131.5t-168.5 -47.5q-118 0 -174.5 47.5t-56.5 135.5q0 86 56 131t169 45z" />
    <glyph glyph-name="aacute" unicode="&#xe1;" horiz-adv-x="1215" 
d="M45 487q0 149 40 257t116.5 178.5t187.5 104.5t254 34q62 0 126 -9.5t124 -25t113.5 -35.5t95.5 -42v-949h-329l-40 110q-18 -18 -46 -41t-64.5 -44t-82 -35t-98.5 -14q-95 0 -168.5 36t-124.5 102.5t-77.5 161t-26.5 211.5zM410 509q0 -65 14 -110t37.5 -73.5t54.5 -41
t66 -12.5q42 0 80.5 15.5t66.5 36.5v420q-14 5 -47 12.5t-83 7.5q-44 0 -78.5 -14.5t-59.5 -45t-38 -79t-13 -116.5zM533 1255l218 363l273 -149l-314 -318z" />
    <glyph glyph-name="Aacute" unicode="&#xc1;" horiz-adv-x="1510" 
d="M1062 -10q-13 60 -26.5 124.5t-29.5 133.5h-501q-18 -76 -32.5 -142t-25.5 -116l-406 10q12 58 32 137.5t45.5 171.5t56 193.5t63.5 204t67.5 202.5t68.5 190t67 166.5t62 130.5h504q27 -48 58.5 -120t65 -159.5t68 -187t68 -202.5t64.5 -206.5t57.5 -198t47 -177.5
t32.5 -145zM743 1081q-40 -106 -82 -244.5t-80 -284.5h349q-37 137 -77.5 270.5t-85.5 258.5h-24zM651 1609l218 363l273 -149l-314 -318z" />
    <glyph glyph-name="Abreve" unicode="&#x102;" horiz-adv-x="1510" 
d="M1062 -10q-13 60 -26.5 124.5t-29.5 133.5h-501q-18 -76 -32.5 -142t-25.5 -116l-406 10q12 58 32 137.5t45.5 171.5t56 193.5t63.5 204t67.5 202.5t68.5 190t67 166.5t62 130.5h504q27 -48 58.5 -120t65 -159.5t68 -187t68 -202.5t64.5 -206.5t57.5 -198t47 -177.5
t32.5 -145zM743 1081q-40 -106 -82 -244.5t-80 -284.5h349q-37 137 -77.5 270.5t-85.5 258.5h-24zM790 1577q-76 0 -130 14.5t-91.5 38t-60.5 53.5t-37 60.5t-21 59t-12 49.5l214 41q6 -23 13.5 -45t22 -38.5t39 -26.5t64.5 -10t63.5 10t37 26.5t20.5 38t14 44.5l215 -40
q-5 -21 -12 -49.5t-21 -59t-37 -60.5t-60.5 -53.5t-91.5 -38t-129 -14.5z" />
    <glyph glyph-name="Acircumflex" unicode="&#xc2;" horiz-adv-x="1510" 
d="M1062 -10q-13 60 -26.5 124.5t-29.5 133.5h-501q-18 -76 -32.5 -142t-25.5 -116l-406 10q12 58 32 137.5t45.5 171.5t56 193.5t63.5 204t67.5 202.5t68.5 190t67 166.5t62 130.5h504q27 -48 58.5 -120t65 -159.5t68 -187t68 -202.5t64.5 -206.5t57.5 -198t47 -177.5
t32.5 -145zM743 1081q-40 -106 -82 -244.5t-80 -284.5h349q-37 137 -77.5 270.5t-85.5 258.5h-24zM575 1520l-237 61l230 272h363l225 -272l-239 -62l-171 162z" />
    <glyph glyph-name="Agrave" unicode="&#xc0;" horiz-adv-x="1510" 
d="M1062 -10q-13 60 -26.5 124.5t-29.5 133.5h-501q-18 -76 -32.5 -142t-25.5 -116l-406 10q12 58 32 137.5t45.5 171.5t56 193.5t63.5 204t67.5 202.5t68.5 190t67 166.5t62 130.5h504q27 -48 58.5 -120t65 -159.5t68 -187t68 -202.5t64.5 -206.5t57.5 -198t47 -177.5
t32.5 -145zM743 1081q-40 -106 -82 -244.5t-80 -284.5h349q-37 137 -77.5 270.5t-85.5 258.5h-24zM711 1497l-314 318l274 149l217 -363z" />
    <glyph glyph-name="Adieresis" unicode="&#xc4;" horiz-adv-x="1510" 
d="M1062 -10q-13 60 -26.5 124.5t-29.5 133.5h-501q-18 -76 -32.5 -142t-25.5 -116l-406 10q12 58 32 137.5t45.5 171.5t56 193.5t63.5 204t67.5 202.5t68.5 190t67 166.5t62 130.5h504q27 -48 58.5 -120t65 -159.5t68 -187t68 -202.5t64.5 -206.5t57.5 -198t47 -177.5
t32.5 -145zM743 1081q-40 -106 -82 -244.5t-80 -284.5h349q-37 137 -77.5 270.5t-85.5 258.5h-24zM538 1807q92 0 135 -36t43 -102q0 -65 -41.5 -101t-130.5 -36q-94 0 -137 37t-43 103q0 65 42.5 100t131.5 35zM989 1807q91 0 134.5 -36t43.5 -102q0 -65 -42.5 -101
t-130.5 -36q-94 0 -137 37t-43 103q0 65 42.5 100t132.5 35z" />
    <glyph glyph-name="Amacron" unicode="&#x100;" horiz-adv-x="1510" 
d="M1062 -10q-13 60 -26.5 124.5t-29.5 133.5h-501q-18 -76 -32.5 -142t-25.5 -116l-406 10q12 58 32 137.5t45.5 171.5t56 193.5t63.5 204t67.5 202.5t68.5 190t67 166.5t62 130.5h504q27 -48 58.5 -120t65 -159.5t68 -187t68 -202.5t64.5 -206.5t57.5 -198t47 -177.5
t32.5 -145zM743 1081q-40 -106 -82 -244.5t-80 -284.5h349q-37 137 -77.5 270.5t-85.5 258.5h-24zM1110 1535h-713v232h713v-232z" />
    <glyph glyph-name="Aogonek" unicode="&#x104;" horiz-adv-x="1510" 
d="M1062 -10q-13 60 -26.5 124.5t-29.5 133.5h-501q-18 -76 -32.5 -142t-25.5 -116l-406 10q12 58 32 137.5t45.5 171.5t56 193.5t63.5 204t67.5 202.5t68.5 190t67 166.5t62 130.5h504q27 -48 58.5 -120t65 -159.5t68 -187t68 -202.5t64.5 -206.5t57.5 -198t47 -177.5
t32.5 -145zM743 1081q-40 -106 -82 -244.5t-80 -284.5h349q-37 137 -77.5 270.5t-85.5 258.5h-24zM1595 -414q-42 -16 -93.5 -23t-108.5 -7q-134 0 -208.5 55t-74.5 152q0 40 13 75t34.5 64.5t49.5 53.5t58 44h210q-29 -27 -52.5 -49t-40 -43t-25 -43.5t-8.5 -50.5
q0 -27 9.5 -44.5t25 -28.5t35 -15.5t38.5 -4.5q23 0 48 2t48 8z" />
    <glyph glyph-name="Aring" unicode="&#xc5;" horiz-adv-x="1510" 
d="M1062 -10q-13 60 -26.5 124.5t-29.5 133.5h-501q-18 -76 -32.5 -142t-25.5 -116l-406 10q12 58 32 137.5t45.5 171.5t56 193.5t63.5 204t67.5 202.5t68.5 190t67 166.5t62 130.5h504q27 -48 58.5 -120t65 -159.5t68 -187t68 -202.5t64.5 -206.5t57.5 -198t47 -177.5
t32.5 -145zM743 1081q-40 -106 -82 -244.5t-80 -284.5h349q-37 137 -77.5 270.5t-85.5 258.5h-24zM757 1755q-71 0 -71 -56q0 -59 74 -59q36 0 52 15.5t16 41.5q0 58 -71 58zM756 1877q117 0 172.5 -46.5t55.5 -133.5q0 -84 -53.5 -131.5t-168.5 -47.5q-118 0 -174.5 47.5
t-56.5 135.5q0 86 56 131t169 45z" />
    <glyph glyph-name="Atilde" unicode="&#xc3;" horiz-adv-x="1510" 
d="M1062 -10q-13 60 -26.5 124.5t-29.5 133.5h-501q-18 -76 -32.5 -142t-25.5 -116l-406 10q12 58 32 137.5t45.5 171.5t56 193.5t63.5 204t67.5 202.5t68.5 190t67 166.5t62 130.5h504q27 -48 58.5 -120t65 -159.5t68 -187t68 -202.5t64.5 -206.5t57.5 -198t47 -177.5
t32.5 -145zM743 1081q-40 -106 -82 -244.5t-80 -284.5h349q-37 137 -77.5 270.5t-85.5 258.5h-24zM287 1657q21 50 51.5 90.5t69.5 69t85 44t97 15.5q50 0 91.5 -12t78 -27t70 -27t68.5 -12q24 0 40 3t28 10.5t23 20t25 32.5l183 -109q-23 -58 -58 -99.5t-75.5 -67.5
t-82.5 -38.5t-77 -12.5q-50 0 -91 12t-78.5 27t-72 27t-70.5 12q-27 0 -44 -4t-29.5 -12.5t-23.5 -21t-24 -28.5z" />
    <glyph glyph-name="Cacute" unicode="&#x106;" horiz-adv-x="1317" 
d="M449 689q0 -108 25 -183.5t72 -123t113.5 -69.5t150.5 -22q48 0 92.5 7.5t85.5 20t78 28t70 31.5l112 -262q-45 -29 -105.5 -54.5t-128 -44.5t-138 -30t-134.5 -11q-91 0 -176.5 14t-160.5 46.5t-137 85.5t-106.5 131.5t-69 185t-24.5 245.5q0 141 24.5 250.5t69 191.5
t106.5 138.5t137 91t160.5 50t176.5 15.5q72 0 144 -11.5t139 -31t124 -45t99 -53.5l-110 -262q-68 34 -150 61t-178 27q-86 0 -153.5 -22.5t-113.5 -72.5t-70 -129.5t-24 -192.5zM631 1621l218 363l273 -149l-314 -318z" />
    <glyph glyph-name="Ccaron" unicode="&#x10c;" horiz-adv-x="1317" 
d="M449 689q0 -108 25 -183.5t72 -123t113.5 -69.5t150.5 -22q48 0 92.5 7.5t85.5 20t78 28t70 31.5l112 -262q-45 -29 -105.5 -54.5t-128 -44.5t-138 -30t-134.5 -11q-91 0 -176.5 14t-160.5 46.5t-137 85.5t-106.5 131.5t-69 185t-24.5 245.5q0 141 24.5 250.5t69 191.5
t106.5 138.5t137 91t160.5 50t176.5 15.5q72 0 144 -11.5t139 -31t124 -45t99 -53.5l-110 -262q-68 34 -150 61t-178 27q-86 0 -153.5 -22.5t-113.5 -72.5t-70 -129.5t-24 -192.5zM737 1700l114 142l298 -71l-230 -242h-363l-231 246l302 66z" />
    <glyph glyph-name="Ccedilla" unicode="&#xc7;" horiz-adv-x="1317" 
d="M449 689q0 -108 25 -183.5t72 -123t113.5 -69.5t150.5 -22q48 0 92.5 7.5t85.5 20t78 28t70 31.5l112 -262q-45 -29 -105.5 -54.5t-128 -44.5t-138 -30t-134.5 -11q-91 0 -176.5 14t-160.5 46.5t-137 85.5t-106.5 131.5t-69 185t-24.5 245.5q0 141 24.5 250.5t69 191.5
t106.5 138.5t137 91t160.5 50t176.5 15.5q72 0 144 -11.5t139 -31t124 -45t99 -53.5l-110 -262q-68 34 -150 61t-178 27q-86 0 -153.5 -22.5t-113.5 -72.5t-70 -129.5t-24 -192.5zM543 -274q23 -6 48 -8.5t48 -2.5q19 0 38 3.5t34 11t24 20t9 30.5q0 40 -30.5 52t-80.5 12
q-14 0 -33.5 -1.5t-38.5 -5.5l70 163h233l-37 -76q65 -11 107 -54.5t42 -117.5q0 -97 -69.5 -149.5t-203.5 -52.5q-57 0 -108.5 7.5t-93.5 23.5z" />
    <glyph glyph-name="Ccircumflex" unicode="&#x108;" horiz-adv-x="1317" 
d="M449 689q0 -108 25 -183.5t72 -123t113.5 -69.5t150.5 -22q48 0 92.5 7.5t85.5 20t78 28t70 31.5l112 -262q-45 -29 -105.5 -54.5t-128 -44.5t-138 -30t-134.5 -11q-91 0 -176.5 14t-160.5 46.5t-137 85.5t-106.5 131.5t-69 185t-24.5 245.5q0 141 24.5 250.5t69 191.5
t106.5 138.5t137 91t160.5 50t176.5 15.5q72 0 144 -11.5t139 -31t124 -45t99 -53.5l-110 -262q-68 34 -150 61t-178 27q-86 0 -153.5 -22.5t-113.5 -72.5t-70 -129.5t-24 -192.5zM557 1490l-237 61l230 272h363l225 -272l-239 -62l-171 162z" />
    <glyph glyph-name="Cdotaccent" unicode="&#x10a;" horiz-adv-x="1317" 
d="M449 689q0 -108 25 -183.5t72 -123t113.5 -69.5t150.5 -22q48 0 92.5 7.5t85.5 20t78 28t70 31.5l112 -262q-45 -29 -105.5 -54.5t-128 -44.5t-138 -30t-134.5 -11q-91 0 -176.5 14t-160.5 46.5t-137 85.5t-106.5 131.5t-69 185t-24.5 245.5q0 141 24.5 250.5t69 191.5
t106.5 138.5t137 91t160.5 50t176.5 15.5q72 0 144 -11.5t139 -31t124 -45t99 -53.5l-110 -262q-68 34 -150 61t-178 27q-86 0 -153.5 -22.5t-113.5 -72.5t-70 -129.5t-24 -192.5zM763 1827q92 0 135 -36t43 -102q0 -65 -41.5 -101t-130.5 -36q-94 0 -137 37t-43 103
q0 65 42.5 100t131.5 35z" />
    <glyph glyph-name="Dcaron" unicode="&#x10e;" horiz-adv-x="1474" 
d="M150 0v1396h531q91 0 181 -13.5t171.5 -45t151.5 -82.5t121.5 -125t80.5 -173.5t29 -227.5q0 -196 -48 -334.5t-141 -226t-229 -128t-311 -40.5h-537zM541 315h162q75 0 136.5 22.5t105 70t67 122t23.5 178.5q0 180 -80 276.5t-229 96.5h-185v-766zM609 1685l114 142
l298 -71l-230 -242h-363l-231 246l302 66z" />
    <glyph glyph-name="Dcroat" unicode="&#x110;" horiz-adv-x="1474" 
d="M656 579h-686v232h686v-232zM150 0v1396h531q91 0 181 -13.5t171.5 -45t151.5 -82.5t121.5 -125t80.5 -173.5t29 -227.5q0 -196 -48 -334.5t-141 -226t-229 -128t-311 -40.5h-537zM541 315h162q75 0 136.5 22.5t105 70t67 122t23.5 178.5q0 180 -80 276.5t-229 96.5h-185
v-766z" />
    <glyph glyph-name="Eacute" unicode="&#xc9;" horiz-adv-x="1217" 
d="M150 0v1396h963v-315h-573v-230h488v-293h-488v-243h596v-315h-986zM512 1586l218 363l273 -149l-314 -318z" />
    <glyph glyph-name="Ebreve" unicode="&#x114;" horiz-adv-x="1217" 
d="M150 0v1396h963v-315h-573v-230h488v-293h-488v-243h596v-315h-986zM650 1525q-76 0 -130 14.5t-91.5 38t-60.5 53.5t-37 60.5t-21 59t-12 49.5l214 41q6 -23 13.5 -45t22 -38.5t39 -26.5t64.5 -10t63.5 10t37 26.5t20.5 38t14 44.5l215 -40q-5 -21 -12 -49.5t-21 -59
t-37 -60.5t-60.5 -53.5t-91.5 -38t-129 -14.5z" />
    <glyph glyph-name="Ecaron" unicode="&#x11a;" horiz-adv-x="1217" 
d="M150 0v1396h963v-315h-573v-230h488v-293h-488v-243h596v-315h-986zM645 1698l114 142l298 -71l-230 -242h-363l-231 246l302 66z" />
    <glyph glyph-name="Ecircumflex" unicode="&#xca;" horiz-adv-x="1217" 
d="M150 0v1396h963v-315h-573v-230h488v-293h-488v-243h596v-315h-986zM467 1500l-237 61l230 272h363l225 -272l-239 -62l-171 162z" />
    <glyph glyph-name="Edieresis" unicode="&#xcb;" horiz-adv-x="1217" 
d="M150 0v1396h963v-315h-573v-230h488v-293h-488v-243h596v-315h-986zM431 1820q92 0 135 -36t43 -102q0 -65 -41.5 -101t-130.5 -36q-94 0 -137 37t-43 103q0 65 42.5 100t131.5 35zM882 1820q91 0 134.5 -36t43.5 -102q0 -65 -42.5 -101t-130.5 -36q-94 0 -137 37
t-43 103q0 65 42.5 100t132.5 35z" />
    <glyph glyph-name="Edotaccent" unicode="&#x116;" horiz-adv-x="1217" 
d="M150 0v1396h963v-315h-573v-230h488v-293h-488v-243h596v-315h-986zM657 1811q92 0 135 -36t43 -102q0 -65 -41.5 -101t-130.5 -36q-94 0 -137 37t-43 103q0 65 42.5 100t131.5 35z" />
    <glyph glyph-name="Egrave" unicode="&#xc8;" horiz-adv-x="1217" 
d="M150 0v1396h963v-315h-573v-230h488v-293h-488v-243h596v-315h-986zM565 1487l-314 318l274 149l217 -363z" />
    <glyph glyph-name="Emacron" unicode="&#x112;" horiz-adv-x="1217" 
d="M150 0v1396h963v-315h-573v-230h488v-293h-488v-243h596v-315h-986zM1012 1542h-713v232h713v-232z" />
    <glyph glyph-name="Eogonek" unicode="&#x118;" horiz-adv-x="1217" 
d="M150 0v1396h963v-315h-573v-230h488v-293h-488v-243h596v-315h-986zM1255 -414q-42 -16 -93.5 -23t-108.5 -7q-134 0 -208.5 55t-74.5 152q0 40 13 75t34.5 64.5t49.5 53.5t58 44h210q-29 -27 -52.5 -49t-40 -43t-25 -43.5t-8.5 -50.5q0 -27 9.5 -44.5t25 -28.5t35 -15.5
t38.5 -4.5q23 0 48 2t48 8z" />
    <glyph glyph-name="Gbreve" unicode="&#x11e;" horiz-adv-x="1398" 
d="M68 699q0 364 176.5 543t518.5 179q76 0 148.5 -10.5t136 -26.5t116.5 -35.5t90 -38.5l-110 -270q-38 15 -82.5 27t-92 21t-95.5 13.5t-91 4.5q-75 0 -137 -25.5t-105.5 -75t-67.5 -123.5t-24 -171q0 -104 21.5 -182t61.5 -131t97 -79.5t129 -26.5q38 0 75 3t62 10v386
h366v-640q-54 -19 -118 -33t-132 -23.5t-136.5 -14t-131.5 -4.5q-166 0 -292 43t-211 131.5t-128.5 225t-43.5 323.5zM760 1530q-76 0 -130 14.5t-91.5 38t-60.5 53.5t-37 60.5t-21 59t-12 49.5l214 41q6 -23 13.5 -45t22 -38.5t39 -26.5t64.5 -10t63.5 10t37 26.5t20.5 38
t14 44.5l215 -40q-5 -21 -12 -49.5t-21 -59t-37 -60.5t-60.5 -53.5t-91.5 -38t-129 -14.5z" />
    <glyph glyph-name="Gcircumflex" unicode="&#x11c;" horiz-adv-x="1398" 
d="M68 699q0 364 176.5 543t518.5 179q76 0 148.5 -10.5t136 -26.5t116.5 -35.5t90 -38.5l-110 -270q-38 15 -82.5 27t-92 21t-95.5 13.5t-91 4.5q-75 0 -137 -25.5t-105.5 -75t-67.5 -123.5t-24 -171q0 -104 21.5 -182t61.5 -131t97 -79.5t129 -26.5q38 0 75 3t62 10v386
h366v-640q-54 -19 -118 -33t-132 -23.5t-136.5 -14t-131.5 -4.5q-166 0 -292 43t-211 131.5t-128.5 225t-43.5 323.5zM570 1487l-237 61l230 272h363l225 -272l-239 -62l-171 162z" />
    <glyph glyph-name="Gcommaaccent" unicode="&#x122;" horiz-adv-x="1398" 
d="M68 699q0 364 176.5 543t518.5 179q76 0 148.5 -10.5t136 -26.5t116.5 -35.5t90 -38.5l-110 -270q-38 15 -82.5 27t-92 21t-95.5 13.5t-91 4.5q-75 0 -137 -25.5t-105.5 -75t-67.5 -123.5t-24 -171q0 -104 21.5 -182t61.5 -131t97 -79.5t129 -26.5q38 0 75 3t62 10v386
h366v-640q-54 -19 -118 -33t-132 -23.5t-136.5 -14t-131.5 -4.5q-166 0 -292 43t-211 131.5t-128.5 225t-43.5 323.5zM709 -127q115 0 169 -45.5t54 -126.5v-8q1 -77 -17.5 -152t-49.5 -143t-72 -126t-85 -100l-157 73q18 34 34.5 73t31 78t24.5 74.5t14 64.5
q-91 11 -128 55t-37 116q0 80 53.5 123.5t165.5 43.5z" />
    <glyph glyph-name="Gdotaccent" unicode="&#x120;" horiz-adv-x="1398" 
d="M68 699q0 364 176.5 543t518.5 179q76 0 148.5 -10.5t136 -26.5t116.5 -35.5t90 -38.5l-110 -270q-38 15 -82.5 27t-92 21t-95.5 13.5t-91 4.5q-75 0 -137 -25.5t-105.5 -75t-67.5 -123.5t-24 -171q0 -104 21.5 -182t61.5 -131t97 -79.5t129 -26.5q38 0 75 3t62 10v386
h366v-640q-54 -19 -118 -33t-132 -23.5t-136.5 -14t-131.5 -4.5q-166 0 -292 43t-211 131.5t-128.5 225t-43.5 323.5zM750 1826q92 0 135 -36t43 -102q0 -65 -41.5 -101t-130.5 -36q-94 0 -137 37t-43 103q0 65 42.5 100t131.5 35z" />
    <glyph glyph-name="Hbar" unicode="&#x126;" horiz-adv-x="1577" 
d="M150 0v1396h390v-105h491v105h393v-1396h-393v546h-491v-546h-390zM1031 862v168h-491v-168h491z" />
    <glyph glyph-name="Hcircumflex" unicode="&#x124;" horiz-adv-x="1577" 
d="M150 0v1396h390v-534h491v534h393v-1396h-393v546h-491v-546h-390zM602 1484l-237 61l230 272h363l225 -272l-239 -62l-171 162z" />
    <glyph glyph-name="Iacute" unicode="&#xcd;" horiz-adv-x="692" 
d="M150 0v1396h390v-1396h-390zM235 1599l218 363l273 -149l-314 -318z" />
    <glyph glyph-name="Ibreve" unicode="&#x12c;" horiz-adv-x="692" 
d="M150 0v1396h390v-1396h-390zM357 1546q-76 0 -130 14.5t-91.5 38t-60.5 53.5t-37 60.5t-21 59t-12 49.5l214 41q6 -23 13.5 -45t22 -38.5t39 -26.5t64.5 -10t63.5 10t37 26.5t20.5 38t14 44.5l215 -40q-5 -21 -12 -49.5t-21 -59t-37 -60.5t-60.5 -53.5t-91.5 -38
t-129 -14.5z" />
    <glyph glyph-name="Icircumflex" unicode="&#xce;" horiz-adv-x="692" 
d="M150 0v1396h390v-1396h-390zM176 1521l-237 61l230 272h363l225 -272l-239 -62l-171 162z" />
    <glyph glyph-name="Idieresis" unicode="&#xcf;" horiz-adv-x="692" 
d="M150 0v1396h390v-1396h-390zM126 1845q92 0 135 -36t43 -102q0 -65 -41.5 -101t-130.5 -36q-94 0 -137 37t-43 103q0 65 42.5 100t131.5 35zM577 1845q91 0 134.5 -36t43.5 -102q0 -65 -42.5 -101t-130.5 -36q-94 0 -137 37t-43 103q0 65 42.5 100t132.5 35z" />
    <glyph glyph-name="Idotaccent" unicode="&#x130;" horiz-adv-x="692" 
d="M150 0v1396h390v-1396h-390zM342 1822q92 0 135 -36t43 -102q0 -65 -41.5 -101t-130.5 -36q-94 0 -137 37t-43 103q0 65 42.5 100t131.5 35z" />
    <glyph glyph-name="Igrave" unicode="&#xcc;" horiz-adv-x="692" 
d="M150 0v1396h390v-1396h-390zM274 1498l-314 318l274 149l217 -363z" />
    <glyph glyph-name="Imacron" unicode="&#x12a;" horiz-adv-x="692" 
d="M150 0v1396h390v-1396h-390zM696 1553h-713v232h713v-232z" />
    <glyph glyph-name="Iogonek" unicode="&#x12e;" horiz-adv-x="692" 
d="M150 0v1396h390v-1396h-390zM572 -414q-42 -16 -93.5 -23t-108.5 -7q-134 0 -208.5 55t-74.5 152q0 40 13 75t34.5 64.5t49.5 53.5t58 44h210q-29 -27 -52.5 -49t-40 -43t-25 -43.5t-8.5 -50.5q0 -27 9.5 -44.5t25 -28.5t35 -15.5t38.5 -4.5q23 0 48 2t48 8z" />
    <glyph glyph-name="Itilde" unicode="&#x128;" horiz-adv-x="692" 
d="M150 0v1396h390v-1396h-390zM-107 1643q21 50 51.5 90.5t69.5 69t85 44t97 15.5q50 0 91.5 -12t78 -27t70 -27t68.5 -12q24 0 40 3t28 10.5t23 20t25 32.5l183 -109q-23 -58 -58 -99.5t-75.5 -67.5t-82.5 -38.5t-77 -12.5q-50 0 -91 12t-78.5 27t-72 27t-70.5 12
q-27 0 -44 -4t-29.5 -12.5t-23.5 -21t-24 -28.5z" />
    <glyph glyph-name="Jcircumflex" unicode="&#x134;" horiz-adv-x="897" 
d="M747 441q0 -115 -21.5 -202t-68 -145.5t-121 -88t-179.5 -29.5q-44 0 -89 5.5t-87.5 14.5t-81.5 21t-72 26l57 281q16 -6 36 -12t41.5 -10.5t43 -7.5t40.5 -3q33 0 54.5 10.5t34 30t17.5 48t5 63.5v953h391v-955zM385 1468l-237 61l230 272h363l225 -272l-239 -62
l-171 162z" />
    <glyph glyph-name="Kcommaaccent" unicode="&#x136;" horiz-adv-x="1410" 
d="M150 0v1396h390v-509q66 58 122.5 116.5t103.5 120.5t86 129.5t71 142.5h421q-30 -80 -72 -161.5t-94 -160.5t-112.5 -154.5t-125.5 -142.5q38 -74 93 -162t120.5 -178t138 -176t146.5 -158l-288 -193q-63 53 -130.5 128.5t-132 161.5t-122 176.5t-98.5 173.5
q-32 -20 -63.5 -37.5t-63.5 -31.5v-481h-390zM632 -51q115 0 169 -45.5t54 -126.5v-8q1 -77 -17.5 -152t-49.5 -143t-72 -126t-85 -100l-157 73q18 34 34.5 73t31 78t24.5 74.5t14 64.5q-91 11 -128 55t-37 116q0 80 53.5 123.5t165.5 43.5z" />
    <glyph glyph-name="Lacute" unicode="&#x139;" horiz-adv-x="1182" 
d="M150 0v1396h390v-1081h558v-315h-948zM239 1564l218 363l273 -149l-314 -318z" />
    <glyph glyph-name="Lcaron" unicode="&#x13d;" horiz-adv-x="1252" 
d="M150 0v1396h390v-1081h558v-315h-948zM982 1397q115 0 169 -45.5t54 -126.5v-8q1 -77 -17.5 -152t-49.5 -143t-72 -126t-85 -100l-157 73q18 34 34.5 73t31 78t24.5 74.5t14 64.5q-91 11 -128 55t-37 116q0 80 53.5 123.5t165.5 43.5z" />
    <glyph glyph-name="Lcommaaccent" unicode="&#x13b;" horiz-adv-x="1182" 
d="M150 0v1396h390v-1081h558v-315h-948zM533 -74q115 0 169 -45.5t54 -126.5v-8q1 -77 -17.5 -152t-49.5 -143t-72 -126t-85 -100l-157 73q18 34 34.5 73t31 78t24.5 74.5t14 64.5q-91 11 -128 55t-37 116q0 80 53.5 123.5t165.5 43.5z" />
    <glyph glyph-name="Ldot" unicode="&#x13f;" horiz-adv-x="1182" 
d="M150 0v1396h390v-1081h558v-315h-948zM922 902q92 0 135 -36t43 -102q0 -65 -41.5 -101t-130.5 -36q-94 0 -137 37t-43 103q0 65 42.5 100t131.5 35z" />
    <glyph glyph-name="Lslash" unicode="&#x141;" horiz-adv-x="1182" 
d="M716 747l-650 -278l-92 214l648 277zM150 0v1396h390v-1081h558v-315h-948z" />
    <glyph glyph-name="Nacute" unicode="&#x143;" horiz-adv-x="1612" 
d="M663 1571l218 363l273 -149l-314 -318zM150 0v1396h407q42 -47 84.5 -110t85.5 -133.5t86 -145.5t86 -146.5t85.5 -136t84.5 -114.5h10l-7 786h390v-1396h-400q-47 51 -92.5 113.5t-90 131t-88 139.5t-85.5 137.5t-82.5 126t-80.5 105.5h-11l8 -753h-390z" />
    <glyph glyph-name="Ncaron" unicode="&#x147;" horiz-adv-x="1612" 
d="M792 1701l114 142l298 -71l-230 -242h-363l-231 246l302 66zM150 0v1396h407q42 -47 84.5 -110t85.5 -133.5t86 -145.5t86 -146.5t85.5 -136t84.5 -114.5h10l-7 786h390v-1396h-400q-47 51 -92.5 113.5t-90 131t-88 139.5t-85.5 137.5t-82.5 126t-80.5 105.5h-11l8 -753
h-390z" />
    <glyph glyph-name="Ncommaaccent" unicode="&#x145;" horiz-adv-x="1612" 
d="M150 0v1396h407q42 -47 84.5 -110t85.5 -133.5t86 -145.5t86 -146.5t85.5 -136t84.5 -114.5h10l-7 786h390v-1396h-400q-47 51 -92.5 113.5t-90 131t-88 139.5t-85.5 137.5t-82.5 126t-80.5 105.5h-11l8 -753h-390zM726 -51q115 0 169 -45.5t54 -126.5v-8
q1 -77 -17.5 -152t-49.5 -143t-72 -126t-85 -100l-157 73q18 34 34.5 73t31 78t24.5 74.5t14 64.5q-91 11 -128 55t-37 116q0 80 53.5 123.5t165.5 43.5z" />
    <glyph glyph-name="Ntilde" unicode="&#xd1;" horiz-adv-x="1612" 
d="M345 1641q21 50 51.5 90.5t69.5 69t85 44t97 15.5q50 0 91.5 -12t78 -27t70 -27t68.5 -12q24 0 40 3t28 10.5t23 20t25 32.5l183 -109q-23 -58 -58 -99.5t-75.5 -67.5t-82.5 -38.5t-77 -12.5q-50 0 -91 12t-78.5 27t-72 27t-70.5 12q-27 0 -44 -4t-29.5 -12.5t-23.5 -21
t-24 -28.5zM150 0v1396h407q42 -47 84.5 -110t85.5 -133.5t86 -145.5t86 -146.5t85.5 -136t84.5 -114.5h10l-7 786h390v-1396h-400q-47 51 -92.5 113.5t-90 131t-88 139.5t-85.5 137.5t-82.5 126t-80.5 105.5h-11l8 -753h-390z" />
    <glyph glyph-name="Oacute" unicode="&#xd3;" horiz-adv-x="1575" 
d="M1507 695q-1 -168 -50.5 -302t-141.5 -227t-223.5 -142t-296.5 -48q-173 1 -309 51.5t-229.5 144t-142.5 226t-47 297.5q2 168 51 302t141.5 228t227 144.5t308.5 51.5q167 1 299.5 -51t224.5 -147.5t140.5 -230t47.5 -297.5zM793 1106q-86 0 -149.5 -32.5t-106.5 -88.5
t-65 -131t-24 -159q-2 -81 20 -154.5t66 -129t109 -88t151 -32.5q77 0 139 30.5t105.5 84.5t66.5 128t23 161q0 83 -22.5 157.5t-65 131t-105 89.5t-142.5 33zM706 1597l218 363l273 -149l-314 -318z" />
    <glyph glyph-name="Obreve" unicode="&#x14e;" horiz-adv-x="1575" 
d="M1507 695q-1 -168 -50.5 -302t-141.5 -227t-223.5 -142t-296.5 -48q-173 1 -309 51.5t-229.5 144t-142.5 226t-47 297.5q2 168 51 302t141.5 228t227 144.5t308.5 51.5q167 1 299.5 -51t224.5 -147.5t140.5 -230t47.5 -297.5zM793 1106q-86 0 -149.5 -32.5t-106.5 -88.5
t-65 -131t-24 -159q-2 -81 20 -154.5t66 -129t109 -88t151 -32.5q77 0 139 30.5t105.5 84.5t66.5 128t23 161q0 83 -22.5 157.5t-65 131t-105 89.5t-142.5 33zM784 1517q-76 0 -130 14.5t-91.5 38t-60.5 53.5t-37 60.5t-21 59t-12 49.5l214 41q6 -23 13.5 -45t22 -38.5
t39 -26.5t64.5 -10t63.5 10t37 26.5t20.5 38t14 44.5l215 -40q-5 -21 -12 -49.5t-21 -59t-37 -60.5t-60.5 -53.5t-91.5 -38t-129 -14.5z" />
    <glyph glyph-name="Ocircumflex" unicode="&#xd4;" horiz-adv-x="1575" 
d="M1507 695q-1 -168 -50.5 -302t-141.5 -227t-223.5 -142t-296.5 -48q-173 1 -309 51.5t-229.5 144t-142.5 226t-47 297.5q2 168 51 302t141.5 228t227 144.5t308.5 51.5q167 1 299.5 -51t224.5 -147.5t140.5 -230t47.5 -297.5zM793 1106q-86 0 -149.5 -32.5t-106.5 -88.5
t-65 -131t-24 -159q-2 -81 20 -154.5t66 -129t109 -88t151 -32.5q77 0 139 30.5t105.5 84.5t66.5 128t23 161q0 83 -22.5 157.5t-65 131t-105 89.5t-142.5 33zM637 1491l-237 61l230 272h363l225 -272l-239 -62l-171 162z" />
    <glyph glyph-name="Odieresis" unicode="&#xd6;" horiz-adv-x="1575" 
d="M1507 695q-1 -168 -50.5 -302t-141.5 -227t-223.5 -142t-296.5 -48q-173 1 -309 51.5t-229.5 144t-142.5 226t-47 297.5q2 168 51 302t141.5 228t227 144.5t308.5 51.5q167 1 299.5 -51t224.5 -147.5t140.5 -230t47.5 -297.5zM793 1106q-86 0 -149.5 -32.5t-106.5 -88.5
t-65 -131t-24 -159q-2 -81 20 -154.5t66 -129t109 -88t151 -32.5q77 0 139 30.5t105.5 84.5t66.5 128t23 161q0 83 -22.5 157.5t-65 131t-105 89.5t-142.5 33zM550 1831q92 0 135 -36t43 -102q0 -65 -41.5 -101t-130.5 -36q-94 0 -137 37t-43 103q0 65 42.5 100t131.5 35z
M1001 1831q91 0 134.5 -36t43.5 -102q0 -65 -42.5 -101t-130.5 -36q-94 0 -137 37t-43 103q0 65 42.5 100t132.5 35z" />
    <glyph glyph-name="Ograve" unicode="&#xd2;" horiz-adv-x="1575" 
d="M1507 695q-1 -168 -50.5 -302t-141.5 -227t-223.5 -142t-296.5 -48q-173 1 -309 51.5t-229.5 144t-142.5 226t-47 297.5q2 168 51 302t141.5 228t227 144.5t308.5 51.5q167 1 299.5 -51t224.5 -147.5t140.5 -230t47.5 -297.5zM793 1106q-86 0 -149.5 -32.5t-106.5 -88.5
t-65 -131t-24 -159q-2 -81 20 -154.5t66 -129t109 -88t151 -32.5q77 0 139 30.5t105.5 84.5t66.5 128t23 161q0 83 -22.5 157.5t-65 131t-105 89.5t-142.5 33zM708 1504l-314 318l274 149l217 -363z" />
    <glyph glyph-name="Ohungarumlaut" unicode="&#x150;" horiz-adv-x="1575" 
d="M1507 695q-1 -168 -50.5 -302t-141.5 -227t-223.5 -142t-296.5 -48q-173 1 -309 51.5t-229.5 144t-142.5 226t-47 297.5q2 168 51 302t141.5 228t227 144.5t308.5 51.5q167 1 299.5 -51t224.5 -147.5t140.5 -230t47.5 -297.5zM793 1106q-86 0 -149.5 -32.5t-106.5 -88.5
t-65 -131t-24 -159q-2 -81 20 -154.5t66 -129t109 -88t151 -32.5q77 0 139 30.5t105.5 84.5t66.5 128t23 161q0 83 -22.5 157.5t-65 131t-105 89.5t-142.5 33zM447 1617l217 363l271 -145l-315 -319zM901 1617l218 363l271 -145l-315 -319z" />
    <glyph glyph-name="Omacron" unicode="&#x14c;" horiz-adv-x="1575" 
d="M1507 695q-1 -168 -50.5 -302t-141.5 -227t-223.5 -142t-296.5 -48q-173 1 -309 51.5t-229.5 144t-142.5 226t-47 297.5q2 168 51 302t141.5 228t227 144.5t308.5 51.5q167 1 299.5 -51t224.5 -147.5t140.5 -230t47.5 -297.5zM793 1106q-86 0 -149.5 -32.5t-106.5 -88.5
t-65 -131t-24 -159q-2 -81 20 -154.5t66 -129t109 -88t151 -32.5q77 0 139 30.5t105.5 84.5t66.5 128t23 161q0 83 -22.5 157.5t-65 131t-105 89.5t-142.5 33zM1151 1560h-713v232h713v-232z" />
    <glyph glyph-name="Otilde" unicode="&#xd5;" horiz-adv-x="1575" 
d="M1507 695q-1 -168 -50.5 -302t-141.5 -227t-223.5 -142t-296.5 -48q-173 1 -309 51.5t-229.5 144t-142.5 226t-47 297.5q2 168 51 302t141.5 228t227 144.5t308.5 51.5q167 1 299.5 -51t224.5 -147.5t140.5 -230t47.5 -297.5zM793 1106q-86 0 -149.5 -32.5t-106.5 -88.5
t-65 -131t-24 -159q-2 -81 20 -154.5t66 -129t109 -88t151 -32.5q77 0 139 30.5t105.5 84.5t66.5 128t23 161q0 83 -22.5 157.5t-65 131t-105 89.5t-142.5 33zM338 1652q21 50 51.5 90.5t69.5 69t85 44t97 15.5q50 0 91.5 -12t78 -27t70 -27t68.5 -12q24 0 40 3t28 10.5
t23 20t25 32.5l183 -109q-23 -58 -58 -99.5t-75.5 -67.5t-82.5 -38.5t-77 -12.5q-50 0 -91 12t-78.5 27t-72 27t-70.5 12q-27 0 -44 -4t-29.5 -12.5t-23.5 -21t-24 -28.5z" />
    <glyph glyph-name="R" unicode="R" horiz-adv-x="1373" 
d="M1056 -109q-53 47 -110 110t-111.5 132t-102.5 140.5t-84 135.5q-3 -1 -6.5 -1h-5.5h-96v-408h-390v1396h561q67 0 134.5 -11t130 -34t116 -58.5t93.5 -85t62.5 -113.5t22.5 -143q0 -82 -22.5 -148.5t-60 -119.5t-87.5 -94t-104 -71q33 -52 73.5 -107.5t86.5 -111
t96 -110t103 -105.5zM540 712h132q54 0 95 15.5t68.5 42.5t41 62.5t13.5 75.5q0 48 -16 82.5t-43 57t-62 33.5t-73 11h-156v-380z" />
    <glyph glyph-name="Racute" unicode="&#x154;" horiz-adv-x="1373" 
d="M1056 -109q-53 47 -110 110t-111.5 132t-102.5 140.5t-84 135.5q-3 -1 -6.5 -1h-5.5h-96v-408h-390v1396h561q67 0 134.5 -11t130 -34t116 -58.5t93.5 -85t62.5 -113.5t22.5 -143q0 -82 -22.5 -148.5t-60 -119.5t-87.5 -94t-104 -71q33 -52 73.5 -107.5t86.5 -111
t96 -110t103 -105.5zM540 712h132q54 0 95 15.5t68.5 42.5t41 62.5t13.5 75.5q0 48 -16 82.5t-43 57t-62 33.5t-73 11h-156v-380zM457 1586l218 363l273 -149l-314 -318z" />
    <glyph glyph-name="Rcaron" unicode="&#x158;" horiz-adv-x="1373" 
d="M1056 -109q-53 47 -110 110t-111.5 132t-102.5 140.5t-84 135.5q-3 -1 -6.5 -1h-5.5h-96v-408h-390v1396h561q67 0 134.5 -11t130 -34t116 -58.5t93.5 -85t62.5 -113.5t22.5 -143q0 -82 -22.5 -148.5t-60 -119.5t-87.5 -94t-104 -71q33 -52 73.5 -107.5t86.5 -111
t96 -110t103 -105.5zM540 712h132q54 0 95 15.5t68.5 42.5t41 62.5t13.5 75.5q0 48 -16 82.5t-43 57t-62 33.5t-73 11h-156v-380zM618 1706l114 142l298 -71l-230 -242h-363l-231 246l302 66z" />
    <glyph glyph-name="Rcommaaccent" unicode="&#x156;" horiz-adv-x="1373" 
d="M1056 -109q-53 47 -110 110t-111.5 132t-102.5 140.5t-84 135.5q-3 -1 -6.5 -1h-5.5h-96v-408h-390v1396h561q67 0 134.5 -11t130 -34t116 -58.5t93.5 -85t62.5 -113.5t22.5 -143q0 -82 -22.5 -148.5t-60 -119.5t-87.5 -94t-104 -71q33 -52 73.5 -107.5t86.5 -111
t96 -110t103 -105.5zM540 712h132q54 0 95 15.5t68.5 42.5t41 62.5t13.5 75.5q0 48 -16 82.5t-43 57t-62 33.5t-73 11h-156v-380zM626 -76q115 0 169 -45.5t54 -126.5v-8q1 -77 -17.5 -152t-49.5 -143t-72 -126t-85 -100l-157 73q18 34 34.5 73t31 78t24.5 74.5t14 64.5
q-91 11 -128 55t-37 116q0 80 53.5 123.5t165.5 43.5z" />
    <glyph glyph-name="Sacute" unicode="&#x15a;" horiz-adv-x="1194" 
d="M155 392q65 -27 119.5 -46.5t103 -31.5t93 -17.5t90.5 -5.5q96 0 142 30.5t46 81.5q0 54 -57 89t-159 61q-101 25 -184.5 57.5t-143.5 79.5t-93 114t-33 163q0 106 33.5 190.5t102.5 143t173.5 89.5t247.5 31q52 0 114 -7.5t126 -23t127 -39t117 -54.5l-112 -263
q-76 32 -163 52t-168 20q-208 0 -208 -106q0 -29 14 -50t42.5 -37t71 -30t99.5 -30q219 -57 330 -157.5t111 -264.5q0 -106 -33 -190t-100 -143t-169 -90.5t-240 -31.5q-87 0 -161.5 9t-141.5 26.5t-129 42.5t-123 57zM605 1596l218 363l273 -149l-314 -318z" />
    <glyph glyph-name="Scaron" unicode="&#x160;" horiz-adv-x="1194" 
d="M155 392q65 -27 119.5 -46.5t103 -31.5t93 -17.5t90.5 -5.5q96 0 142 30.5t46 81.5q0 54 -57 89t-159 61q-101 25 -184.5 57.5t-143.5 79.5t-93 114t-33 163q0 106 33.5 190.5t102.5 143t173.5 89.5t247.5 31q52 0 114 -7.5t126 -23t127 -39t117 -54.5l-112 -263
q-76 32 -163 52t-168 20q-208 0 -208 -106q0 -29 14 -50t42.5 -37t71 -30t99.5 -30q219 -57 330 -157.5t111 -264.5q0 -106 -33 -190t-100 -143t-169 -90.5t-240 -31.5q-87 0 -161.5 9t-141.5 26.5t-129 42.5t-123 57zM623 1693l114 142l298 -71l-230 -242h-363l-231 246
l302 66z" />
    <glyph glyph-name="Scedilla" unicode="&#x15e;" horiz-adv-x="1194" 
d="M155 392q65 -27 119.5 -46.5t103 -31.5t93 -17.5t90.5 -5.5q96 0 142 30.5t46 81.5q0 54 -57 89t-159 61q-101 25 -184.5 57.5t-143.5 79.5t-93 114t-33 163q0 106 33.5 190.5t102.5 143t173.5 89.5t247.5 31q52 0 114 -7.5t126 -23t127 -39t117 -54.5l-112 -263
q-76 32 -163 52t-168 20q-208 0 -208 -106q0 -29 14 -50t42.5 -37t71 -30t99.5 -30q219 -57 330 -157.5t111 -264.5q0 -106 -33 -190t-100 -143t-169 -90.5t-240 -31.5q-87 0 -161.5 9t-141.5 26.5t-129 42.5t-123 57zM413 -272q23 -6 48 -8.5t48 -2.5q19 0 38 3.5t34 11
t24 20t9 30.5q0 40 -30.5 52t-80.5 12q-14 0 -33.5 -1.5t-38.5 -5.5l70 163h233l-37 -76q65 -11 107 -54.5t42 -117.5q0 -97 -69.5 -149.5t-203.5 -52.5q-57 0 -108.5 7.5t-93.5 23.5z" />
    <glyph glyph-name="Scircumflex" unicode="&#x15c;" horiz-adv-x="1194" 
d="M155 392q65 -27 119.5 -46.5t103 -31.5t93 -17.5t90.5 -5.5q96 0 142 30.5t46 81.5q0 54 -57 89t-159 61q-101 25 -184.5 57.5t-143.5 79.5t-93 114t-33 163q0 106 33.5 190.5t102.5 143t173.5 89.5t247.5 31q52 0 114 -7.5t126 -23t127 -39t117 -54.5l-112 -263
q-76 32 -163 52t-168 20q-208 0 -208 -106q0 -29 14 -50t42.5 -37t71 -30t99.5 -30q219 -57 330 -157.5t111 -264.5q0 -106 -33 -190t-100 -143t-169 -90.5t-240 -31.5q-87 0 -161.5 9t-141.5 26.5t-129 42.5t-123 57zM459 1498l-237 61l230 272h363l225 -272l-239 -62
l-171 162z" />
    <glyph glyph-name="Scommaaccent" unicode="&#x218;" horiz-adv-x="1194" 
d="M155 392q65 -27 119.5 -46.5t103 -31.5t93 -17.5t90.5 -5.5q96 0 142 30.5t46 81.5q0 54 -57 89t-159 61q-101 25 -184.5 57.5t-143.5 79.5t-93 114t-33 163q0 106 33.5 190.5t102.5 143t173.5 89.5t247.5 31q52 0 114 -7.5t126 -23t127 -39t117 -54.5l-112 -263
q-76 32 -163 52t-168 20q-208 0 -208 -106q0 -29 14 -50t42.5 -37t71 -30t99.5 -30q219 -57 330 -157.5t111 -264.5q0 -106 -33 -190t-100 -143t-169 -90.5t-240 -31.5q-87 0 -161.5 9t-141.5 26.5t-129 42.5t-123 57zM537 -84q115 0 169 -45.5t54 -126.5v-8
q1 -77 -17.5 -152t-49.5 -143t-72 -126t-85 -100l-157 73q18 34 34.5 73t31 78t24.5 74.5t14 64.5q-91 11 -128 55t-37 116q0 80 53.5 123.5t165.5 43.5z" />
    <glyph glyph-name="Tbar" unicode="&#x166;" horiz-adv-x="1165" 
d="M25 1081v315h1116v-315h-363v-1081h-390v1081h-363zM943 545h-713v232h713v-232z" />
    <glyph glyph-name="Tcaron" unicode="&#x164;" horiz-adv-x="1168" 
d="M25 1081v315h1116v-315h-363v-1081h-390v1081h-363zM573 1696l114 142l298 -71l-230 -242h-363l-231 246l302 66z" />
    <glyph glyph-name="Tcommaaccent" unicode="&#x162;" horiz-adv-x="1168" 
d="M25 1081v315h1116v-315h-363v-1081h-390v1081h-363zM557 -49q115 0 169 -45.5t54 -126.5v-8q1 -77 -17.5 -152t-49.5 -143t-72 -126t-85 -100l-157 73q18 34 34.5 73t31 78t24.5 74.5t14 64.5q-91 11 -128 55t-37 116q0 80 53.5 123.5t165.5 43.5z" />
    <glyph glyph-name="Uacute" unicode="&#xda;" horiz-adv-x="1511" 
d="M761 -24q-137 -2 -254.5 26.5t-203.5 96t-135 178t-49 272.5v847h390v-814q0 -69 10 -123.5t38 -91.5t77 -56.5t126 -19.5q69 0 115 19.5t74 56.5t40 91t12 122v816h390v-847q0 -160 -48.5 -269t-133 -176.5t-200 -97t-248.5 -30.5zM634 1557l218 363l273 -149l-314 -318
z" />
    <glyph glyph-name="Ubreve" unicode="&#x16c;" horiz-adv-x="1511" 
d="M761 -24q-137 -2 -254.5 26.5t-203.5 96t-135 178t-49 272.5v847h390v-814q0 -69 10 -123.5t38 -91.5t77 -56.5t126 -19.5q69 0 115 19.5t74 56.5t40 91t12 122v816h390v-847q0 -160 -48.5 -269t-133 -176.5t-200 -97t-248.5 -30.5zM767 1503q-76 0 -130 14.5t-91.5 38
t-60.5 53.5t-37 60.5t-21 59t-12 49.5l214 41q6 -23 13.5 -45t22 -38.5t39 -26.5t64.5 -10t63.5 10t37 26.5t20.5 38t14 44.5l215 -40q-5 -21 -12 -49.5t-21 -59t-37 -60.5t-60.5 -53.5t-91.5 -38t-129 -14.5z" />
    <glyph glyph-name="Ucircumflex" unicode="&#xdb;" horiz-adv-x="1511" 
d="M761 -24q-137 -2 -254.5 26.5t-203.5 96t-135 178t-49 272.5v847h390v-814q0 -69 10 -123.5t38 -91.5t77 -56.5t126 -19.5q69 0 115 19.5t74 56.5t40 91t12 122v816h390v-847q0 -160 -48.5 -269t-133 -176.5t-200 -97t-248.5 -30.5zM590 1485l-237 61l230 272h363
l225 -272l-239 -62l-171 162z" />
    <glyph glyph-name="Udieresis" unicode="&#xdc;" horiz-adv-x="1511" 
d="M761 -24q-137 -2 -254.5 26.5t-203.5 96t-135 178t-49 272.5v847h390v-814q0 -69 10 -123.5t38 -91.5t77 -56.5t126 -19.5q69 0 115 19.5t74 56.5t40 91t12 122v816h390v-847q0 -160 -48.5 -269t-133 -176.5t-200 -97t-248.5 -30.5zM524 1813q92 0 135 -36t43 -102
q0 -65 -41.5 -101t-130.5 -36q-94 0 -137 37t-43 103q0 65 42.5 100t131.5 35zM975 1813q91 0 134.5 -36t43.5 -102q0 -65 -42.5 -101t-130.5 -36q-94 0 -137 37t-43 103q0 65 42.5 100t132.5 35z" />
    <glyph glyph-name="Ugrave" unicode="&#xd9;" horiz-adv-x="1511" 
d="M761 -24q-137 -2 -254.5 26.5t-203.5 96t-135 178t-49 272.5v847h390v-814q0 -69 10 -123.5t38 -91.5t77 -56.5t126 -19.5q69 0 115 19.5t74 56.5t40 91t12 122v816h390v-847q0 -160 -48.5 -269t-133 -176.5t-200 -97t-248.5 -30.5zM722 1496l-314 318l274 149l217 -363z
" />
    <glyph glyph-name="Uhungarumlaut" unicode="&#x170;" horiz-adv-x="1511" 
d="M761 -24q-137 -2 -254.5 26.5t-203.5 96t-135 178t-49 272.5v847h390v-814q0 -69 10 -123.5t38 -91.5t77 -56.5t126 -19.5q69 0 115 19.5t74 56.5t40 91t12 122v816h390v-847q0 -160 -48.5 -269t-133 -176.5t-200 -97t-248.5 -30.5zM407 1601l217 363l271 -145l-315 -319
zM861 1601l218 363l271 -145l-315 -319z" />
    <glyph glyph-name="Umacron" unicode="&#x16a;" horiz-adv-x="1511" 
d="M761 -24q-137 -2 -254.5 26.5t-203.5 96t-135 178t-49 272.5v847h390v-814q0 -69 10 -123.5t38 -91.5t77 -56.5t126 -19.5q69 0 115 19.5t74 56.5t40 91t12 122v816h390v-847q0 -160 -48.5 -269t-133 -176.5t-200 -97t-248.5 -30.5zM1121 1545h-713v232h713v-232z" />
    <glyph glyph-name="Uogonek" unicode="&#x172;" horiz-adv-x="1511" 
d="M761 -24q-137 -2 -254.5 26.5t-203.5 96t-135 178t-49 272.5v847h390v-814q0 -69 10 -123.5t38 -91.5t77 -56.5t126 -19.5q69 0 115 19.5t74 56.5t40 91t12 122v816h390v-847q0 -160 -48.5 -269t-133 -176.5t-200 -97t-248.5 -30.5zM1086 -398q-42 -16 -93.5 -23
t-108.5 -7q-134 0 -208.5 55t-74.5 152q0 40 13 75t34.5 64.5t49.5 53.5t58 44h210q-29 -27 -52.5 -49t-40 -43t-25 -43.5t-8.5 -50.5q0 -27 9.5 -44.5t25 -28.5t35 -15.5t38.5 -4.5q23 0 48 2t48 8z" />
    <glyph glyph-name="Uring" unicode="&#x16e;" horiz-adv-x="1511" 
d="M761 -24q-137 -2 -254.5 26.5t-203.5 96t-135 178t-49 272.5v847h390v-814q0 -69 10 -123.5t38 -91.5t77 -56.5t126 -19.5q69 0 115 19.5t74 56.5t40 91t12 122v816h390v-847q0 -160 -48.5 -269t-133 -176.5t-200 -97t-248.5 -30.5zM772 1770q-71 0 -71 -56q0 -59 74 -59
q36 0 52 15.5t16 41.5q0 58 -71 58zM771 1892q117 0 172.5 -46.5t55.5 -133.5q0 -84 -53.5 -131.5t-168.5 -47.5q-118 0 -174.5 47.5t-56.5 135.5q0 86 56 131t169 45z" />
    <glyph glyph-name="Utilde" unicode="&#x168;" horiz-adv-x="1511" 
d="M761 -24q-137 -2 -254.5 26.5t-203.5 96t-135 178t-49 272.5v847h390v-814q0 -69 10 -123.5t38 -91.5t77 -56.5t126 -19.5q69 0 115 19.5t74 56.5t40 91t12 122v816h390v-847q0 -160 -48.5 -269t-133 -176.5t-200 -97t-248.5 -30.5zM323 1646q21 50 51.5 90.5t69.5 69
t85 44t97 15.5q50 0 91.5 -12t78 -27t70 -27t68.5 -12q24 0 40 3t28 10.5t23 20t25 32.5l183 -109q-23 -58 -58 -99.5t-75.5 -67.5t-82.5 -38.5t-77 -12.5q-50 0 -91 12t-78.5 27t-72 27t-70.5 12q-27 0 -44 -4t-29.5 -12.5t-23.5 -21t-24 -28.5z" />
    <glyph glyph-name="Wacute" unicode="&#x1e82;" horiz-adv-x="2075" 
d="M1214 1396q8 -52 23 -128t34 -164t41 -181t44 -180t43.5 -161.5t40.5 -124.5h19q16 53 32 129.5t30 165.5t26.5 183.5t22 182t15.5 163t9 125.5l411 -10q-8 -104 -25.5 -225.5t-42 -249.5t-54.5 -257.5t-62 -250t-64.5 -226.5t-62.5 -187h-470q-17 41 -35 95t-36 114.5
t-35 125t-32 126t-27 117t-20 98.5h-4q-11 -70 -30.5 -157.5t-44.5 -179t-53.5 -180t-57.5 -159.5h-470q-25 66 -56 165t-62.5 218t-62.5 251t-57 265t-45 260.5t-27 236.5l413 10q1 -50 8 -127.5t17 -168.5t23 -188t27 -186t28.5 -162.5t28.5 -116.5h19q20 48 42.5 124.5
t45.5 166t44.5 185.5t40 184t32.5 161.5t21 117.5h355zM978 1604l218 363l273 -149l-314 -318z" />
    <glyph glyph-name="Wcircumflex" unicode="&#x174;" horiz-adv-x="2075" 
d="M1214 1396q8 -52 23 -128t34 -164t41 -181t44 -180t43.5 -161.5t40.5 -124.5h19q16 53 32 129.5t30 165.5t26.5 183.5t22 182t15.5 163t9 125.5l411 -10q-8 -104 -25.5 -225.5t-42 -249.5t-54.5 -257.5t-62 -250t-64.5 -226.5t-62.5 -187h-470q-17 41 -35 95t-36 114.5
t-35 125t-32 126t-27 117t-20 98.5h-4q-11 -70 -30.5 -157.5t-44.5 -179t-53.5 -180t-57.5 -159.5h-470q-25 66 -56 165t-62.5 218t-62.5 251t-57 265t-45 260.5t-27 236.5l413 10q1 -50 8 -127.5t17 -168.5t23 -188t27 -186t28.5 -162.5t28.5 -116.5h19q20 48 42.5 124.5
t45.5 166t44.5 185.5t40 184t32.5 161.5t21 117.5h355zM856 1511l-237 61l230 272h363l225 -272l-239 -62l-171 162z" />
    <glyph glyph-name="Wdieresis" unicode="&#x1e84;" horiz-adv-x="2075" 
d="M1214 1396q8 -52 23 -128t34 -164t41 -181t44 -180t43.5 -161.5t40.5 -124.5h19q16 53 32 129.5t30 165.5t26.5 183.5t22 182t15.5 163t9 125.5l411 -10q-8 -104 -25.5 -225.5t-42 -249.5t-54.5 -257.5t-62 -250t-64.5 -226.5t-62.5 -187h-470q-17 41 -35 95t-36 114.5
t-35 125t-32 126t-27 117t-20 98.5h-4q-11 -70 -30.5 -157.5t-44.5 -179t-53.5 -180t-57.5 -159.5h-470q-25 66 -56 165t-62.5 218t-62.5 251t-57 265t-45 260.5t-27 236.5l413 10q1 -50 8 -127.5t17 -168.5t23 -188t27 -186t28.5 -162.5t28.5 -116.5h19q20 48 42.5 124.5
t45.5 166t44.5 185.5t40 184t32.5 161.5t21 117.5h355zM816 1818q92 0 135 -36t43 -102q0 -65 -41.5 -101t-130.5 -36q-94 0 -137 37t-43 103q0 65 42.5 100t131.5 35zM1267 1818q91 0 134.5 -36t43.5 -102q0 -65 -42.5 -101t-130.5 -36q-94 0 -137 37t-43 103
q0 65 42.5 100t132.5 35z" />
    <glyph glyph-name="Wgrave" unicode="&#x1e80;" horiz-adv-x="2075" 
d="M1214 1396q8 -52 23 -128t34 -164t41 -181t44 -180t43.5 -161.5t40.5 -124.5h19q16 53 32 129.5t30 165.5t26.5 183.5t22 182t15.5 163t9 125.5l411 -10q-8 -104 -25.5 -225.5t-42 -249.5t-54.5 -257.5t-62 -250t-64.5 -226.5t-62.5 -187h-470q-17 41 -35 95t-36 114.5
t-35 125t-32 126t-27 117t-20 98.5h-4q-11 -70 -30.5 -157.5t-44.5 -179t-53.5 -180t-57.5 -159.5h-470q-25 66 -56 165t-62.5 218t-62.5 251t-57 265t-45 260.5t-27 236.5l413 10q1 -50 8 -127.5t17 -168.5t23 -188t27 -186t28.5 -162.5t28.5 -116.5h19q20 48 42.5 124.5
t45.5 166t44.5 185.5t40 184t32.5 161.5t21 117.5h355zM1006 1505l-314 318l274 149l217 -363z" />
    <glyph glyph-name="Yacute" unicode="&#xdd;" horiz-adv-x="1364" 
d="M209 936q-34 61 -68.5 127t-65 128t-55 115.5t-38.5 89.5l435 10q21 -60 53 -137.5t67 -152.5q17 -37 35.5 -75t36.5 -72.5t34 -63.5t29 -48h20q12 21 28 49.5t33.5 62.5t35.5 70.5t34 73.5q38 85 68.5 157.5t51.5 135.5l438 -10q-42 -100 -101 -217t-128 -244
q-32 -58 -64.5 -110.5t-66 -103t-70 -102t-75.5 -106.5v-513h-391v513q-29 40 -62.5 88t-69.5 102t-73 112.5t-71 120.5zM602 1604l218 363l273 -149l-314 -318z" />
    <glyph glyph-name="Ycircumflex" unicode="&#x176;" horiz-adv-x="1364" 
d="M209 936q-34 61 -68.5 127t-65 128t-55 115.5t-38.5 89.5l435 10q21 -60 53 -137.5t67 -152.5q17 -37 35.5 -75t36.5 -72.5t34 -63.5t29 -48h20q12 21 28 49.5t33.5 62.5t35.5 70.5t34 73.5q38 85 68.5 157.5t51.5 135.5l438 -10q-42 -100 -101 -217t-128 -244
q-32 -58 -64.5 -110.5t-66 -103t-70 -102t-75.5 -106.5v-513h-391v513q-29 40 -62.5 88t-69.5 102t-73 112.5t-71 120.5zM538 1515l-237 61l230 272h363l225 -272l-239 -62l-171 162z" />
    <glyph glyph-name="Ydieresis" unicode="&#x178;" horiz-adv-x="1364" 
d="M209 936q-34 61 -68.5 127t-65 128t-55 115.5t-38.5 89.5l435 10q21 -60 53 -137.5t67 -152.5q17 -37 35.5 -75t36.5 -72.5t34 -63.5t29 -48h20q12 21 28 49.5t33.5 62.5t35.5 70.5t34 73.5q38 85 68.5 157.5t51.5 135.5l438 -10q-42 -100 -101 -217t-128 -244
q-32 -58 -64.5 -110.5t-66 -103t-70 -102t-75.5 -106.5v-513h-391v513q-29 40 -62.5 88t-69.5 102t-73 112.5t-71 120.5zM465 1846q92 0 135 -36t43 -102q0 -65 -41.5 -101t-130.5 -36q-94 0 -137 37t-43 103q0 65 42.5 100t131.5 35zM916 1846q91 0 134.5 -36t43.5 -102
q0 -65 -42.5 -101t-130.5 -36q-94 0 -137 37t-43 103q0 65 42.5 100t132.5 35z" />
    <glyph glyph-name="Ygrave" unicode="&#x1ef2;" horiz-adv-x="1364" 
d="M209 936q-34 61 -68.5 127t-65 128t-55 115.5t-38.5 89.5l435 10q21 -60 53 -137.5t67 -152.5q17 -37 35.5 -75t36.5 -72.5t34 -63.5t29 -48h20q12 21 28 49.5t33.5 62.5t35.5 70.5t34 73.5q38 85 68.5 157.5t51.5 135.5l438 -10q-42 -100 -101 -217t-128 -244
q-32 -58 -64.5 -110.5t-66 -103t-70 -102t-75.5 -106.5v-513h-391v513q-29 40 -62.5 88t-69.5 102t-73 112.5t-71 120.5zM673 1508l-314 318l274 149l217 -363z" />
    <glyph glyph-name="Zacute" unicode="&#x179;" horiz-adv-x="1269" 
d="M82 0v273q38 62 88.5 128t107.5 134.5t118 137t119.5 136t111 132.5t94.5 125v15h-613v315h1084v-302q-33 -56 -81 -119.5t-104 -130.5t-116 -135.5t-115.5 -135t-103 -128.5t-78.5 -115v-15h581v-315h-1093zM573 1597l218 363l273 -149l-314 -318z" />
    <glyph glyph-name="Zcaron" unicode="&#x17d;" horiz-adv-x="1269" 
d="M82 0v273q38 62 88.5 128t107.5 134.5t118 137t119.5 136t111 132.5t94.5 125v15h-613v315h1084v-302q-33 -56 -81 -119.5t-104 -130.5t-116 -135.5t-115.5 -135t-103 -128.5t-78.5 -115v-15h581v-315h-1093zM680 1707l114 142l298 -71l-230 -242h-363l-231 246l302 66z
" />
    <glyph glyph-name="Zdotaccent" unicode="&#x17b;" horiz-adv-x="1269" 
d="M82 0v273q38 62 88.5 128t107.5 134.5t118 137t119.5 136t111 132.5t94.5 125v15h-613v315h1084v-302q-33 -56 -81 -119.5t-104 -130.5t-116 -135.5t-115.5 -135t-103 -128.5t-78.5 -115v-15h581v-315h-1093zM692 1804q92 0 135 -36t43 -102q0 -65 -41.5 -101t-130.5 -36
q-94 0 -137 37t-43 103q0 65 42.5 100t131.5 35z" />
    <glyph glyph-name="abreve" unicode="&#x103;" horiz-adv-x="1215" 
d="M45 487q0 149 40 257t116.5 178.5t187.5 104.5t254 34q62 0 126 -9.5t124 -25t113.5 -35.5t95.5 -42v-949h-329l-40 110q-18 -18 -46 -41t-64.5 -44t-82 -35t-98.5 -14q-95 0 -168.5 36t-124.5 102.5t-77.5 161t-26.5 211.5zM410 509q0 -65 14 -110t37.5 -73.5t54.5 -41
t66 -12.5q42 0 80.5 15.5t66.5 36.5v420q-14 5 -47 12.5t-83 7.5q-44 0 -78.5 -14.5t-59.5 -45t-38 -79t-13 -116.5zM668 1187q-76 0 -130 14.5t-91.5 38t-60.5 53.5t-37 60.5t-21 59t-12 49.5l214 41q6 -23 13.5 -45t22 -38.5t39 -26.5t64.5 -10t63.5 10t37 26.5t20.5 38
t14 44.5l215 -40q-5 -21 -12 -49.5t-21 -59t-37 -60.5t-60.5 -53.5t-91.5 -38t-129 -14.5z" />
    <glyph glyph-name="acircumflex" unicode="&#xe2;" horiz-adv-x="1215" 
d="M45 487q0 149 40 257t116.5 178.5t187.5 104.5t254 34q62 0 126 -9.5t124 -25t113.5 -35.5t95.5 -42v-949h-329l-40 110q-18 -18 -46 -41t-64.5 -44t-82 -35t-98.5 -14q-95 0 -168.5 36t-124.5 102.5t-77.5 161t-26.5 211.5zM410 509q0 -65 14 -110t37.5 -73.5t54.5 -41
t66 -12.5q42 0 80.5 15.5t66.5 36.5v420q-14 5 -47 12.5t-83 7.5q-44 0 -78.5 -14.5t-59.5 -45t-38 -79t-13 -116.5zM454 1177l-237 61l230 272h363l225 -272l-239 -62l-171 162z" />
    <glyph glyph-name="adieresis" unicode="&#xe4;" horiz-adv-x="1215" 
d="M45 487q0 149 40 257t116.5 178.5t187.5 104.5t254 34q62 0 126 -9.5t124 -25t113.5 -35.5t95.5 -42v-949h-329l-40 110q-18 -18 -46 -41t-64.5 -44t-82 -35t-98.5 -14q-95 0 -168.5 36t-124.5 102.5t-77.5 161t-26.5 211.5zM410 509q0 -65 14 -110t37.5 -73.5t54.5 -41
t66 -12.5q42 0 80.5 15.5t66.5 36.5v420q-14 5 -47 12.5t-83 7.5q-44 0 -78.5 -14.5t-59.5 -45t-38 -79t-13 -116.5zM397 1463q92 0 135 -36t43 -102q0 -65 -41.5 -101t-130.5 -36q-94 0 -137 37t-43 103q0 65 42.5 100t131.5 35zM848 1463q91 0 134.5 -36t43.5 -102
q0 -65 -42.5 -101t-130.5 -36q-94 0 -137 37t-43 103q0 65 42.5 100t132.5 35z" />
    <glyph glyph-name="agrave" unicode="&#xe0;" horiz-adv-x="1215" 
d="M45 487q0 149 40 257t116.5 178.5t187.5 104.5t254 34q62 0 126 -9.5t124 -25t113.5 -35.5t95.5 -42v-949h-329l-40 110q-18 -18 -46 -41t-64.5 -44t-82 -35t-98.5 -14q-95 0 -168.5 36t-124.5 102.5t-77.5 161t-26.5 211.5zM410 509q0 -65 14 -110t37.5 -73.5t54.5 -41
t66 -12.5q42 0 80.5 15.5t66.5 36.5v420q-14 5 -47 12.5t-83 7.5q-44 0 -78.5 -14.5t-59.5 -45t-38 -79t-13 -116.5zM571 1154l-314 318l274 149l217 -363z" />
    <glyph glyph-name="amacron" unicode="&#x101;" horiz-adv-x="1215" 
d="M45 487q0 149 40 257t116.5 178.5t187.5 104.5t254 34q62 0 126 -9.5t124 -25t113.5 -35.5t95.5 -42v-949h-329l-40 110q-18 -18 -46 -41t-64.5 -44t-82 -35t-98.5 -14q-95 0 -168.5 36t-124.5 102.5t-77.5 161t-26.5 211.5zM410 509q0 -65 14 -110t37.5 -73.5t54.5 -41
t66 -12.5q42 0 80.5 15.5t66.5 36.5v420q-14 5 -47 12.5t-83 7.5q-44 0 -78.5 -14.5t-59.5 -45t-38 -79t-13 -116.5zM1007 1183h-713v232h713v-232z" />
    <glyph glyph-name="aogonek" unicode="&#x105;" horiz-adv-x="1215" 
d="M45 487q0 149 40 257t116.5 178.5t187.5 104.5t254 34q62 0 126 -9.5t124 -25t113.5 -35.5t95.5 -42v-949h-329l-40 110q-18 -18 -46 -41t-64.5 -44t-82 -35t-98.5 -14q-95 0 -168.5 36t-124.5 102.5t-77.5 161t-26.5 211.5zM410 509q0 -65 14 -110t37.5 -73.5t54.5 -41
t66 -12.5q42 0 80.5 15.5t66.5 36.5v420q-14 5 -47 12.5t-83 7.5q-44 0 -78.5 -14.5t-59.5 -45t-38 -79t-13 -116.5zM1225 -413q-42 -16 -93.5 -23t-108.5 -7q-134 0 -208.5 55t-74.5 152q0 40 13 75t34.5 64.5t49.5 53.5t58 44h210q-29 -27 -52.5 -49t-40 -43t-25 -43.5
t-8.5 -50.5q0 -27 9.5 -44.5t25 -28.5t35 -15.5t38.5 -4.5q23 0 48 2t48 8z" />
    <glyph glyph-name="aring" unicode="&#xe5;" horiz-adv-x="1215" 
d="M45 487q0 149 40 257t116.5 178.5t187.5 104.5t254 34q62 0 126 -9.5t124 -25t113.5 -35.5t95.5 -42v-949h-329l-40 110q-18 -18 -46 -41t-64.5 -44t-82 -35t-98.5 -14q-95 0 -168.5 36t-124.5 102.5t-77.5 161t-26.5 211.5zM410 509q0 -65 14 -110t37.5 -73.5t54.5 -41
t66 -12.5q42 0 80.5 15.5t66.5 36.5v420q-14 5 -47 12.5t-83 7.5q-44 0 -78.5 -14.5t-59.5 -45t-38 -79t-13 -116.5zM651 1407q-71 0 -71 -56q0 -59 74 -59q36 0 52 15.5t16 41.5q0 58 -71 58zM650 1529q117 0 172.5 -46.5t55.5 -133.5q0 -84 -53.5 -131.5t-168.5 -47.5
q-118 0 -174.5 47.5t-56.5 135.5q0 86 56 131t169 45z" />
    <glyph glyph-name="atilde" unicode="&#xe3;" horiz-adv-x="1215" 
d="M45 487q0 149 40 257t116.5 178.5t187.5 104.5t254 34q62 0 126 -9.5t124 -25t113.5 -35.5t95.5 -42v-949h-329l-40 110q-18 -18 -46 -41t-64.5 -44t-82 -35t-98.5 -14q-95 0 -168.5 36t-124.5 102.5t-77.5 161t-26.5 211.5zM410 509q0 -65 14 -110t37.5 -73.5t54.5 -41
t66 -12.5q42 0 80.5 15.5t66.5 36.5v420q-14 5 -47 12.5t-83 7.5q-44 0 -78.5 -14.5t-59.5 -45t-38 -79t-13 -116.5zM164 1291q21 50 51.5 90.5t69.5 69t85 44t97 15.5q50 0 91.5 -12t78 -27t70 -27t68.5 -12q24 0 40 3t28 10.5t23 20t25 32.5l183 -109q-23 -58 -58 -99.5
t-75.5 -67.5t-82.5 -38.5t-77 -12.5q-50 0 -91 12t-78.5 27t-72 27t-70.5 12q-27 0 -44 -4t-29.5 -12.5t-23.5 -21t-24 -28.5z" />
    <glyph glyph-name="cacute" unicode="&#x107;" horiz-adv-x="1058" 
d="M507 1244l218 363l273 -149l-314 -318zM78 523q0 123 34.5 222.5t100.5 169.5t162 108t219 38q100 0 197.5 -24t191.5 -78l-95 -240q-24 10 -47 18.5t-47.5 14.5t-51.5 9t-60 3q-239 0 -239 -250q0 -67 19.5 -113.5t52 -75t74.5 -41.5t87 -13q61 0 112.5 13t98.5 33
l97 -240q-39 -21 -81 -39t-90 -32t-104.5 -22t-125.5 -8q-141 0 -237.5 47t-156 124t-85.5 175.5t-26 200.5z" />
    <glyph glyph-name="ccaron" unicode="&#x10d;" horiz-adv-x="1058" 
d="M621 1348l114 142l298 -71l-230 -242h-363l-231 246l302 66zM80 523q0 123 34.5 222.5t100.5 169.5t162 108t219 38q100 0 197.5 -24t191.5 -78l-95 -240q-24 10 -47 18.5t-47.5 14.5t-51.5 9t-60 3q-239 0 -239 -250q0 -67 19.5 -113.5t52 -75t74.5 -41.5t87 -13
q61 0 112.5 13t98.5 33l97 -240q-39 -21 -81 -39t-90 -32t-104.5 -22t-125.5 -8q-141 0 -237.5 47t-156 124t-85.5 175.5t-26 200.5z" />
    <glyph glyph-name="ccedilla" unicode="&#xe7;" horiz-adv-x="1058" 
d="M390 -275q23 -6 48 -8.5t48 -2.5q19 0 38 3.5t34 11t24 20t9 30.5q0 40 -30.5 52t-80.5 12q-14 0 -33.5 -1.5t-38.5 -5.5l70 163h233l-37 -76q65 -11 107 -54.5t42 -117.5q0 -97 -69.5 -149.5t-203.5 -52.5q-57 0 -108.5 7.5t-93.5 23.5zM78 523q0 123 34.5 222.5
t100.5 169.5t162 108t219 38q100 0 197.5 -24t191.5 -78l-95 -240q-24 10 -47 18.5t-47.5 14.5t-51.5 9t-60 3q-239 0 -239 -250q0 -67 19.5 -113.5t52 -75t74.5 -41.5t87 -13q61 0 112.5 13t98.5 33l97 -240q-39 -21 -81 -39t-90 -32t-104.5 -22t-125.5 -8
q-141 0 -237.5 47t-156 124t-85.5 175.5t-26 200.5z" />
    <glyph glyph-name="ccircumflex" unicode="&#x109;" horiz-adv-x="1058" 
d="M78 523q0 123 34.5 222.5t100.5 169.5t162 108t219 38q100 0 197.5 -24t191.5 -78l-95 -240q-24 10 -47 18.5t-47.5 14.5t-51.5 9t-60 3q-239 0 -239 -250q0 -67 19.5 -113.5t52 -75t74.5 -41.5t87 -13q61 0 112.5 13t98.5 33l97 -240q-39 -21 -81 -39t-90 -32
t-104.5 -22t-125.5 -8q-141 0 -237.5 47t-156 124t-85.5 175.5t-26 200.5zM406 1122l-237 61l230 272h363l225 -272l-239 -62l-171 162z" />
    <glyph glyph-name="cdotaccent" unicode="&#x10b;" horiz-adv-x="1058" 
d="M621 1432q92 0 135 -36t43 -102q0 -65 -41.5 -101t-130.5 -36q-94 0 -137 37t-43 103q0 65 42.5 100t131.5 35zM78 523q0 123 34.5 222.5t100.5 169.5t162 108t219 38q100 0 197.5 -24t191.5 -78l-95 -240q-24 10 -47 18.5t-47.5 14.5t-51.5 9t-60 3q-239 0 -239 -250
q0 -67 19.5 -113.5t52 -75t74.5 -41.5t87 -13q61 0 112.5 13t98.5 33l97 -240q-39 -21 -81 -39t-90 -32t-104.5 -22t-125.5 -8q-141 0 -237.5 47t-156 124t-85.5 175.5t-26 200.5z" />
    <glyph glyph-name="dcaron" unicode="&#x10f;" horiz-adv-x="1592" 
d="M806 0l-40 110q-17 -18 -45 -41t-65.5 -44t-85 -35t-104.5 -14q-92 0 -164 35.5t-121.5 102.5t-76 163t-26.5 216q0 100 21.5 181t59 144.5t87 109t105.5 75.5t115 44t116 14q38 0 64 -2.5t45.5 -6t35 -9t32.5 -11.5v424h375v-1456h-328zM443 511q0 -66 14.5 -111.5
t38.5 -74t55 -41t65 -12.5q78 0 145 46v422q-16 8 -49.5 16t-71.5 8q-52 0 -89.5 -18t-61.5 -51t-35 -80t-11 -104zM1394 1492q115 0 169 -45.5t54 -126.5v-8q1 -77 -17.5 -152t-49.5 -143t-72 -126t-85 -100l-157 73q18 34 34.5 73t31 78t24.5 74.5t14 64.5q-91 11 -128 55
t-37 116q0 80 53.5 123.5t165.5 43.5z" />
    <glyph glyph-name="dcroat" unicode="&#x111;" horiz-adv-x="1250" 
d="M1179 1160h-713v209h713v-209zM806 0l-40 110q-17 -18 -45 -41t-65.5 -44t-85 -35t-104.5 -14q-92 0 -164 35.5t-121.5 102.5t-76 163t-26.5 216q0 100 21.5 181t59 144.5t87 109t105.5 75.5t115 44t116 14q38 0 64 -2.5t45.5 -6t35 -9t32.5 -11.5v424h375v-1456h-328z
M443 511q0 -66 14.5 -111.5t38.5 -74t55 -41t65 -12.5q78 0 145 46v422q-16 8 -49.5 16t-71.5 8q-52 0 -89.5 -18t-61.5 -51t-35 -80t-11 -104z" />
    <glyph glyph-name="eacute" unicode="&#xe9;" horiz-adv-x="1170" 
d="M454 375q12 -22 28.5 -42t43.5 -35.5t68 -25t103 -9.5q77 0 145.5 21t127.5 50l99 -242q-87 -54 -195 -85t-227 -31q-136 0 -242 32.5t-178.5 99t-110.5 168t-38 238.5q0 139 40.5 242t114 171t175.5 101t224 33q111 0 197 -30.5t144.5 -81t88.5 -115t30 -132.5
q0 -57 -17 -115t-60.5 -105.5t-119.5 -77t-194 -29.5h-247zM613 766q-35 0 -63 -11.5t-48.5 -32t-33.5 -47.5t-17 -57h185q42 0 66.5 15.5t24.5 47.5q0 23 -9 39.5t-25 26.5t-36.5 14.5t-43.5 4.5zM559 1238l218 363l273 -149l-314 -318z" />
    <glyph glyph-name="ebreve" unicode="&#x115;" horiz-adv-x="1170" 
d="M454 375q12 -22 28.5 -42t43.5 -35.5t68 -25t103 -9.5q77 0 145.5 21t127.5 50l99 -242q-87 -54 -195 -85t-227 -31q-136 0 -242 32.5t-178.5 99t-110.5 168t-38 238.5q0 139 40.5 242t114 171t175.5 101t224 33q111 0 197 -30.5t144.5 -81t88.5 -115t30 -132.5
q0 -57 -17 -115t-60.5 -105.5t-119.5 -77t-194 -29.5h-247zM613 766q-35 0 -63 -11.5t-48.5 -32t-33.5 -47.5t-17 -57h185q42 0 66.5 15.5t24.5 47.5q0 23 -9 39.5t-25 26.5t-36.5 14.5t-43.5 4.5zM653 1161q-76 0 -130 14.5t-91.5 38t-60.5 53.5t-37 60.5t-21 59t-12 49.5
l214 41q6 -23 13.5 -45t22 -38.5t39 -26.5t64.5 -10t63.5 10t37 26.5t20.5 38t14 44.5l215 -40q-5 -21 -12 -49.5t-21 -59t-37 -60.5t-60.5 -53.5t-91.5 -38t-129 -14.5z" />
    <glyph glyph-name="ecaron" unicode="&#x11b;" horiz-adv-x="1170" 
d="M454 375q12 -22 28.5 -42t43.5 -35.5t68 -25t103 -9.5q77 0 145.5 21t127.5 50l99 -242q-87 -54 -195 -85t-227 -31q-136 0 -242 32.5t-178.5 99t-110.5 168t-38 238.5q0 139 40.5 242t114 171t175.5 101t224 33q111 0 197 -30.5t144.5 -81t88.5 -115t30 -132.5
q0 -57 -17 -115t-60.5 -105.5t-119.5 -77t-194 -29.5h-247zM613 766q-35 0 -63 -11.5t-48.5 -32t-33.5 -47.5t-17 -57h185q42 0 66.5 15.5t24.5 47.5q0 23 -9 39.5t-25 26.5t-36.5 14.5t-43.5 4.5zM647 1345l114 142l298 -71l-230 -242h-363l-231 246l302 66z" />
    <glyph glyph-name="ecircumflex" unicode="&#xea;" horiz-adv-x="1170" 
d="M454 375q12 -22 28.5 -42t43.5 -35.5t68 -25t103 -9.5q77 0 145.5 21t127.5 50l99 -242q-87 -54 -195 -85t-227 -31q-136 0 -242 32.5t-178.5 99t-110.5 168t-38 238.5q0 139 40.5 242t114 171t175.5 101t224 33q111 0 197 -30.5t144.5 -81t88.5 -115t30 -132.5
q0 -57 -17 -115t-60.5 -105.5t-119.5 -77t-194 -29.5h-247zM613 766q-35 0 -63 -11.5t-48.5 -32t-33.5 -47.5t-17 -57h185q42 0 66.5 15.5t24.5 47.5q0 23 -9 39.5t-25 26.5t-36.5 14.5t-43.5 4.5zM447 1147l-237 61l230 272h363l225 -272l-239 -62l-171 162z" />
    <glyph glyph-name="edieresis" unicode="&#xeb;" horiz-adv-x="1170" 
d="M454 375q12 -22 28.5 -42t43.5 -35.5t68 -25t103 -9.5q77 0 145.5 21t127.5 50l99 -242q-87 -54 -195 -85t-227 -31q-136 0 -242 32.5t-178.5 99t-110.5 168t-38 238.5q0 139 40.5 242t114 171t175.5 101t224 33q111 0 197 -30.5t144.5 -81t88.5 -115t30 -132.5
q0 -57 -17 -115t-60.5 -105.5t-119.5 -77t-194 -29.5h-247zM613 766q-35 0 -63 -11.5t-48.5 -32t-33.5 -47.5t-17 -57h185q42 0 66.5 15.5t24.5 47.5q0 23 -9 39.5t-25 26.5t-36.5 14.5t-43.5 4.5zM409 1438q92 0 135 -36t43 -102q0 -65 -41.5 -101t-130.5 -36
q-94 0 -137 37t-43 103q0 65 42.5 100t131.5 35zM860 1438q91 0 134.5 -36t43.5 -102q0 -65 -42.5 -101t-130.5 -36q-94 0 -137 37t-43 103q0 65 42.5 100t132.5 35z" />
    <glyph glyph-name="edotaccent" unicode="&#x117;" horiz-adv-x="1170" 
d="M454 375q12 -22 28.5 -42t43.5 -35.5t68 -25t103 -9.5q77 0 145.5 21t127.5 50l99 -242q-87 -54 -195 -85t-227 -31q-136 0 -242 32.5t-178.5 99t-110.5 168t-38 238.5q0 139 40.5 242t114 171t175.5 101t224 33q111 0 197 -30.5t144.5 -81t88.5 -115t30 -132.5
q0 -57 -17 -115t-60.5 -105.5t-119.5 -77t-194 -29.5h-247zM613 766q-35 0 -63 -11.5t-48.5 -32t-33.5 -47.5t-17 -57h185q42 0 66.5 15.5t24.5 47.5q0 23 -9 39.5t-25 26.5t-36.5 14.5t-43.5 4.5zM626 1435q92 0 135 -36t43 -102q0 -65 -41.5 -101t-130.5 -36
q-94 0 -137 37t-43 103q0 65 42.5 100t131.5 35z" />
    <glyph glyph-name="egrave" unicode="&#xe8;" horiz-adv-x="1170" 
d="M454 375q12 -22 28.5 -42t43.5 -35.5t68 -25t103 -9.5q77 0 145.5 21t127.5 50l99 -242q-87 -54 -195 -85t-227 -31q-136 0 -242 32.5t-178.5 99t-110.5 168t-38 238.5q0 139 40.5 242t114 171t175.5 101t224 33q111 0 197 -30.5t144.5 -81t88.5 -115t30 -132.5
q0 -57 -17 -115t-60.5 -105.5t-119.5 -77t-194 -29.5h-247zM613 766q-35 0 -63 -11.5t-48.5 -32t-33.5 -47.5t-17 -57h185q42 0 66.5 15.5t24.5 47.5q0 23 -9 39.5t-25 26.5t-36.5 14.5t-43.5 4.5zM561 1141l-314 318l274 149l217 -363z" />
    <glyph glyph-name="emacron" unicode="&#x113;" horiz-adv-x="1170" 
d="M454 375q12 -22 28.5 -42t43.5 -35.5t68 -25t103 -9.5q77 0 145.5 21t127.5 50l99 -242q-87 -54 -195 -85t-227 -31q-136 0 -242 32.5t-178.5 99t-110.5 168t-38 238.5q0 139 40.5 242t114 171t175.5 101t224 33q111 0 197 -30.5t144.5 -81t88.5 -115t30 -132.5
q0 -57 -17 -115t-60.5 -105.5t-119.5 -77t-194 -29.5h-247zM613 766q-35 0 -63 -11.5t-48.5 -32t-33.5 -47.5t-17 -57h185q42 0 66.5 15.5t24.5 47.5q0 23 -9 39.5t-25 26.5t-36.5 14.5t-43.5 4.5zM986 1165h-713v232h713v-232z" />
    <glyph glyph-name="eogonek" unicode="&#x119;" horiz-adv-x="1170" 
d="M454 375q12 -22 28.5 -42t43.5 -35.5t68 -25t103 -9.5q77 0 145.5 21t127.5 50l99 -242q-87 -54 -195 -85t-227 -31q-136 0 -242 32.5t-178.5 99t-110.5 168t-38 238.5q0 139 40.5 242t114 171t175.5 101t224 33q111 0 197 -30.5t144.5 -81t88.5 -115t30 -132.5
q0 -57 -17 -115t-60.5 -105.5t-119.5 -77t-194 -29.5h-247zM613 766q-35 0 -63 -11.5t-48.5 -32t-33.5 -47.5t-17 -57h185q42 0 66.5 15.5t24.5 47.5q0 23 -9 39.5t-25 26.5t-36.5 14.5t-43.5 4.5zM1049 -368q-42 -16 -93.5 -23t-108.5 -7q-134 0 -208.5 55t-74.5 152
q0 40 13 75t34.5 64.5t49.5 53.5t58 44h210q-29 -27 -52.5 -49t-40 -43t-25 -43.5t-8.5 -50.5q0 -27 9.5 -44.5t25 -28.5t35 -15.5t38.5 -4.5q23 0 48 2t48 8z" />
    <glyph glyph-name="gbreve" unicode="&#x11f;" horiz-adv-x="1249" 
d="M693 1151q-76 0 -130 14.5t-91.5 38t-60.5 53.5t-37 60.5t-21 59t-12 49.5l214 41q6 -23 13.5 -45t22 -38.5t39 -26.5t64.5 -10t63.5 10t37 26.5t20.5 38t14 44.5l215 -40q-5 -21 -12 -49.5t-21 -59t-37 -60.5t-60.5 -53.5t-91.5 -38t-129 -14.5zM78 487q0 146 39.5 254
t116 179t189 106t257.5 35q59 0 122 -9.5t123.5 -25t114.5 -36t94 -41.5v-915q0 -128 -40 -220t-113 -151t-174 -86.5t-223 -27.5q-47 0 -97 7t-100.5 20.5t-100.5 32.5t-96 42l91 235q45 -23 109.5 -39.5t133.5 -16.5q59 0 105.5 11t79 37.5t49.5 69t17 104.5v23
q-20 -17 -49 -34.5t-66 -31.5t-80.5 -23.5t-92.5 -9.5q-105 0 -182 38t-127.5 105.5t-75 161.5t-24.5 206zM443 509q0 -63 13.5 -108t37 -73.5t55.5 -42t69 -13.5q19 0 39 4.5t39.5 11.5t36 16.5t28.5 18.5v422q-15 6 -48 12.5t-76 6.5t-78.5 -13t-61 -43t-40 -78.5
t-14.5 -120.5z" />
    <glyph glyph-name="gcircumflex" unicode="&#x11d;" horiz-adv-x="1249" 
d="M491 1157l-237 61l230 272h363l225 -272l-239 -62l-171 162zM78 487q0 146 39.5 254t116 179t189 106t257.5 35q59 0 122 -9.5t123.5 -25t114.5 -36t94 -41.5v-915q0 -128 -40 -220t-113 -151t-174 -86.5t-223 -27.5q-47 0 -97 7t-100.5 20.5t-100.5 32.5t-96 42l91 235
q45 -23 109.5 -39.5t133.5 -16.5q59 0 105.5 11t79 37.5t49.5 69t17 104.5v23q-20 -17 -49 -34.5t-66 -31.5t-80.5 -23.5t-92.5 -9.5q-105 0 -182 38t-127.5 105.5t-75 161.5t-24.5 206zM443 509q0 -63 13.5 -108t37 -73.5t55.5 -42t69 -13.5q19 0 39 4.5t39.5 11.5t36 16.5
t28.5 18.5v422q-15 6 -48 12.5t-76 6.5t-78.5 -13t-61 -43t-40 -78.5t-14.5 -120.5z" />
    <glyph glyph-name="gcommaaccent" unicode="&#x123;" horiz-adv-x="1249" 
d="M670 1199q-115 0 -169 45t-54 126q-2 78 16 154.5t49.5 146t72.5 128t86 100.5l158 -72q-18 -35 -35 -74t-31.5 -77.5t-25 -75t-14.5 -64.5q91 -11 128.5 -54.5t37.5 -115.5q0 -81 -53.5 -124t-165.5 -43zM78 487q0 146 39.5 254t116 179t189 106t257.5 35q59 0 122 -9.5
t123.5 -25t114.5 -36t94 -41.5v-915q0 -128 -40 -220t-113 -151t-174 -86.5t-223 -27.5q-47 0 -97 7t-100.5 20.5t-100.5 32.5t-96 42l91 235q45 -23 109.5 -39.5t133.5 -16.5q59 0 105.5 11t79 37.5t49.5 69t17 104.5v23q-20 -17 -49 -34.5t-66 -31.5t-80.5 -23.5
t-92.5 -9.5q-105 0 -182 38t-127.5 105.5t-75 161.5t-24.5 206zM443 509q0 -63 13.5 -108t37 -73.5t55.5 -42t69 -13.5q19 0 39 4.5t39.5 11.5t36 16.5t28.5 18.5v422q-15 6 -48 12.5t-76 6.5t-78.5 -13t-61 -43t-40 -78.5t-14.5 -120.5z" />
    <glyph glyph-name="gdotaccent" unicode="&#x121;" horiz-adv-x="1249" 
d="M680 1442q92 0 135 -36t43 -102q0 -65 -41.5 -101t-130.5 -36q-94 0 -137 37t-43 103q0 65 42.5 100t131.5 35zM78 487q0 146 39.5 254t116 179t189 106t257.5 35q59 0 122 -9.5t123.5 -25t114.5 -36t94 -41.5v-915q0 -128 -40 -220t-113 -151t-174 -86.5t-223 -27.5
q-47 0 -97 7t-100.5 20.5t-100.5 32.5t-96 42l91 235q45 -23 109.5 -39.5t133.5 -16.5q59 0 105.5 11t79 37.5t49.5 69t17 104.5v23q-20 -17 -49 -34.5t-66 -31.5t-80.5 -23.5t-92.5 -9.5q-105 0 -182 38t-127.5 105.5t-75 161.5t-24.5 206zM443 509q0 -63 13.5 -108
t37 -73.5t55.5 -42t69 -13.5q19 0 39 4.5t39.5 11.5t36 16.5t28.5 18.5v422q-15 6 -48 12.5t-76 6.5t-78.5 -13t-61 -43t-40 -78.5t-14.5 -120.5z" />
    <glyph glyph-name="hbar" unicode="&#x127;" 
d="M115 1456h373v-474l44 22t60.5 26t76.5 22t92 9q81 0 151.5 -26t123.5 -76.5t83.5 -125.5t30.5 -173v-660h-372v605q0 19 -2.5 46t-14 52t-35.5 42.5t-66 17.5q-22 0 -46.5 -5.5t-48.5 -14t-44 -18.5t-33 -18v-707h-373v1456zM717 1141h-713v232h713v-232z" />
    <glyph glyph-name="hcircumflex" unicode="&#x125;" 
d="M115 1456h373v-474l44 22t60.5 26t76.5 22t92 9q81 0 151.5 -26t123.5 -76.5t83.5 -125.5t30.5 -173v-660h-372v605q0 19 -2.5 46t-14 52t-35.5 42.5t-66 17.5q-22 0 -46.5 -5.5t-48.5 -14t-44 -18.5t-33 -18v-707h-373v1456zM143 1495l-237 61l230 272h363l225 -272
l-239 -62l-171 162z" />
    <glyph glyph-name="iacute" unicode="&#xed;" horiz-adv-x="604" 
d="M115 0v1028h374v-1028h-374zM206 1219l218 363l273 -149l-314 -318z" />
    <glyph glyph-name="ibreve" unicode="&#x12d;" horiz-adv-x="604" 
d="M115 0v1028h374v-1028h-374zM304 1157q-76 0 -130 14.5t-91.5 38t-60.5 53.5t-37 60.5t-21 59t-12 49.5l214 41q6 -23 13.5 -45t22 -38.5t39 -26.5t64.5 -10t63.5 10t37 26.5t20.5 38t14 44.5l215 -40q-5 -21 -12 -49.5t-21 -59t-37 -60.5t-60.5 -53.5t-91.5 -38
t-129 -14.5z" />
    <glyph glyph-name="icircumflex" unicode="&#xee;" horiz-adv-x="604" 
d="M115 0v1028h374v-1028h-374zM133 1132l-237 61l230 272h363l225 -272l-239 -62l-171 162z" />
    <glyph glyph-name="idieresis" unicode="&#xef;" horiz-adv-x="604" 
d="M115 0v1028h374v-1028h-374zM87 1447q92 0 135 -36t43 -102q0 -65 -41.5 -101t-130.5 -36q-94 0 -137 37t-43 103q0 65 42.5 100t131.5 35zM538 1447q91 0 134.5 -36t43.5 -102q0 -65 -42.5 -101t-130.5 -36q-94 0 -137 37t-43 103q0 65 42.5 100t132.5 35z" />
    <glyph glyph-name="igrave" unicode="&#xec;" horiz-adv-x="604" 
d="M115 0v1028h374v-1028h-374zM240 1129l-314 318l274 149l217 -363z" />
    <glyph glyph-name="imacron" unicode="&#x12b;" horiz-adv-x="604" 
d="M115 0v1028h374v-1028h-374zM665 1160h-713v232h713v-232z" />
    <glyph glyph-name="iogonek" unicode="&#x12f;" horiz-adv-x="604" 
d="M115 0v1028h374v-1028h-374zM301 1494q111 0 163 -44t52 -123q0 -78 -51 -121.5t-160 -43.5q-112 0 -165 44.5t-53 123.5q0 80 52.5 122t161.5 42zM514 -414q-42 -16 -93.5 -23t-108.5 -7q-134 0 -208.5 55t-74.5 152q0 40 13 75t34.5 64.5t49.5 53.5t58 44h210
q-29 -27 -52.5 -49t-40 -43t-25 -43.5t-8.5 -50.5q0 -27 9.5 -44.5t25 -28.5t35 -15.5t38.5 -4.5q23 0 48 2t48 8z" />
    <glyph glyph-name="itilde" unicode="&#x129;" horiz-adv-x="604" 
d="M115 0v1028h374v-1028h-374zM-189 1275q21 50 51.5 90.5t69.5 69t85 44t97 15.5q50 0 91.5 -12t78 -27t70 -27t68.5 -12q24 0 40 3t28 10.5t23 20t25 32.5l183 -109q-23 -58 -58 -99.5t-75.5 -67.5t-82.5 -38.5t-77 -12.5q-50 0 -91 12t-78.5 27t-72 27t-70.5 12
q-27 0 -44 -4t-29.5 -12.5t-23.5 -21t-24 -28.5z" />
    <glyph glyph-name="jcircumflex" unicode="&#x135;" horiz-adv-x="604" 
d="M-185 -105q58 -16 100.5 -25t82.5 -9q35 0 57.5 14t36 35t18.5 47.5t5 52.5v1018h373v-1025q0 -52 -9.5 -104.5t-31 -100t-55 -88.5t-81.5 -71.5t-111.5 -47.5t-143.5 -17q-44 0 -86 5.5t-80.5 14.5t-73.5 20t-63 22zM115 1147l-237 61l230 272h363l225 -272l-239 -62
l-171 162z" />
    <glyph glyph-name="kcommaaccent" unicode="&#x137;" horiz-adv-x="1257" 
d="M1166 1028q-52 -146 -135.5 -257.5t-178.5 -195.5q31 -65 79 -134.5t102 -136t107.5 -125t95.5 -99.5l-270 -174q-47 33 -102.5 88t-110.5 120t-103.5 135t-81.5 134q-22 -11 -42 -20.5t-38 -17.5v-345h-373v1456h373v-766q51 28 94.5 65t80 81t65.5 92.5t51 99.5h387v0z
M548 -39q115 0 169 -45.5t54 -126.5v-8q1 -77 -17.5 -152t-49.5 -143t-72 -126t-85 -100l-157 73q18 34 34.5 73t31 78t24.5 74.5t14 64.5q-91 11 -128 55t-37 116q0 80 53.5 123.5t165.5 43.5z" />
    <glyph glyph-name="lacute" unicode="&#x13a;" horiz-adv-x="604" 
d="M115 0v1456h373v-1456h-373zM214 1638l218 363l273 -149l-314 -318z" />
    <glyph glyph-name="lcaron" unicode="&#x13e;" horiz-adv-x="1022" 
d="M115 0v1456h373v-1456h-373zM789 1493q115 0 169 -45.5t54 -126.5v-8q1 -77 -17.5 -152t-49.5 -143t-72 -126t-85 -100l-157 73q18 34 34.5 73t31 78t24.5 74.5t14 64.5q-91 11 -128 55t-37 116q0 80 53.5 123.5t165.5 43.5z" />
    <glyph glyph-name="ldot" unicode="&#x140;" horiz-adv-x="915" 
d="M763 871q92 0 135 -36t43 -102q0 -65 -41.5 -101t-130.5 -36q-94 0 -137 37t-43 103q0 65 42.5 100t131.5 35zM115 0v1456h373v-1456h-373z" />
    <glyph glyph-name="lslash" unicode="&#x142;" horiz-adv-x="604" 
d="M662 688l-633 -259l-91 215l633 258zM115 0v1456h373v-1456h-373z" />
    <glyph glyph-name="nacute" unicode="&#x144;" 
d="M115 881q44 30 108 61.5t142.5 58t168 43.5t184.5 17q122 0 205.5 -32t134.5 -86t73 -126t22 -153v-664h-374v629q0 22 -5 45t-18 41.5t-34 30t-53 11.5q-23 0 -48.5 -4.5t-49.5 -12t-45.5 -16.5t-37.5 -17v-707h-373v881zM528 1239l218 363l273 -149l-314 -318z" />
    <glyph glyph-name="ncaron" unicode="&#x148;" 
d="M117 881q44 30 108 61.5t142.5 58t168 43.5t184.5 17q122 0 205.5 -32t134.5 -86t73 -126t22 -153v-664h-374v629q0 22 -5 45t-18 41.5t-34 30t-53 11.5q-23 0 -48.5 -4.5t-49.5 -12t-45.5 -16.5t-37.5 -17v-707h-373v881zM636 1344l114 142l298 -71l-230 -242h-363
l-231 246l302 66z" />
    <glyph glyph-name="ncommaaccent" unicode="&#x146;" 
d="M115 881q44 30 108 61.5t142.5 58t168 43.5t184.5 17q122 0 205.5 -32t134.5 -86t73 -126t22 -153v-664h-374v629q0 22 -5 45t-18 41.5t-34 30t-53 11.5q-23 0 -48.5 -4.5t-49.5 -12t-45.5 -16.5t-37.5 -17v-707h-373v881zM578 -52q115 0 169 -45.5t54 -126.5v-8
q1 -77 -17.5 -152t-49.5 -143t-72 -126t-85 -100l-157 73q18 34 34.5 73t31 78t24.5 74.5t14 64.5q-91 11 -128 55t-37 116q0 80 53.5 123.5t165.5 43.5z" />
    <glyph glyph-name="ntilde" unicode="&#xf1;" 
d="M125 881q44 30 108 61.5t142.5 58t168 43.5t184.5 17q122 0 205.5 -32t134.5 -86t73 -126t22 -153v-664h-374v629q0 22 -5 45t-18 41.5t-34 30t-53 11.5q-23 0 -48.5 -4.5t-49.5 -12t-45.5 -16.5t-37.5 -17v-707h-373v881zM195 1292q21 50 51.5 90.5t69.5 69t85 44
t97 15.5q50 0 91.5 -12t78 -27t70 -27t68.5 -12q24 0 40 3t28 10.5t23 20t25 32.5l183 -109q-23 -58 -58 -99.5t-75.5 -67.5t-82.5 -38.5t-77 -12.5q-50 0 -91 12t-78.5 27t-72 27t-70.5 12q-27 0 -44 -4t-29.5 -12.5t-23.5 -21t-24 -28.5z" />
    <glyph glyph-name="oacute" unicode="&#xf3;" horiz-adv-x="1255" 
d="M78 518q0 124 37.5 224t108 171t172.5 109.5t230 38.5q124 0 226 -36.5t174.5 -106t112 -170t39.5 -229.5q0 -128 -38 -229t-109 -171t-173 -106.5t-230 -36.5t-230 36t-173 105.5t-109 170.5t-38 230zM443 519q0 -69 14 -116.5t38.5 -76.5t59 -41.5t75.5 -12.5
q40 0 74 13t58 42t37.5 76.5t13.5 116.5q0 67 -13.5 113.5t-38 75.5t-58.5 42t-74 13q-41 0 -75 -13.5t-58.5 -43t-38.5 -76t-14 -112.5zM535 1245l218 363l273 -149l-314 -318z" />
    <glyph glyph-name="obreve" unicode="&#x14f;" horiz-adv-x="1255" 
d="M78 518q0 124 37.5 224t108 171t172.5 109.5t230 38.5q124 0 226 -36.5t174.5 -106t112 -170t39.5 -229.5q0 -128 -38 -229t-109 -171t-173 -106.5t-230 -36.5t-230 36t-173 105.5t-109 170.5t-38 230zM443 519q0 -69 14 -116.5t38.5 -76.5t59 -41.5t75.5 -12.5
q40 0 74 13t58 42t37.5 76.5t13.5 116.5q0 67 -13.5 113.5t-38 75.5t-58.5 42t-74 13q-41 0 -75 -13.5t-58.5 -43t-38.5 -76t-14 -112.5zM634 1169q-76 0 -130 14.5t-91.5 38t-60.5 53.5t-37 60.5t-21 59t-12 49.5l214 41q6 -23 13.5 -45t22 -38.5t39 -26.5t64.5 -10
t63.5 10t37 26.5t20.5 38t14 44.5l215 -40q-5 -21 -12 -49.5t-21 -59t-37 -60.5t-60.5 -53.5t-91.5 -38t-129 -14.5z" />
    <glyph glyph-name="ocircumflex" unicode="&#xf4;" horiz-adv-x="1255" 
d="M78 518q0 124 37.5 224t108 171t172.5 109.5t230 38.5q124 0 226 -36.5t174.5 -106t112 -170t39.5 -229.5q0 -128 -38 -229t-109 -171t-173 -106.5t-230 -36.5t-230 36t-173 105.5t-109 170.5t-38 230zM443 519q0 -69 14 -116.5t38.5 -76.5t59 -41.5t75.5 -12.5
q40 0 74 13t58 42t37.5 76.5t13.5 116.5q0 67 -13.5 113.5t-38 75.5t-58.5 42t-74 13q-41 0 -75 -13.5t-58.5 -43t-38.5 -76t-14 -112.5zM459 1147l-237 61l230 272h363l225 -272l-239 -62l-171 162z" />
    <glyph glyph-name="odieresis" unicode="&#xf6;" horiz-adv-x="1255" 
d="M78 518q0 124 37.5 224t108 171t172.5 109.5t230 38.5q124 0 226 -36.5t174.5 -106t112 -170t39.5 -229.5q0 -128 -38 -229t-109 -171t-173 -106.5t-230 -36.5t-230 36t-173 105.5t-109 170.5t-38 230zM443 519q0 -69 14 -116.5t38.5 -76.5t59 -41.5t75.5 -12.5
q40 0 74 13t58 42t37.5 76.5t13.5 116.5q0 67 -13.5 113.5t-38 75.5t-58.5 42t-74 13q-41 0 -75 -13.5t-58.5 -43t-38.5 -76t-14 -112.5zM390 1455q92 0 135 -36t43 -102q0 -65 -41.5 -101t-130.5 -36q-94 0 -137 37t-43 103q0 65 42.5 100t131.5 35zM841 1455
q91 0 134.5 -36t43.5 -102q0 -65 -42.5 -101t-130.5 -36q-94 0 -137 37t-43 103q0 65 42.5 100t132.5 35z" />
    <glyph glyph-name="ograve" unicode="&#xf2;" horiz-adv-x="1255" 
d="M78 518q0 124 37.5 224t108 171t172.5 109.5t230 38.5q124 0 226 -36.5t174.5 -106t112 -170t39.5 -229.5q0 -128 -38 -229t-109 -171t-173 -106.5t-230 -36.5t-230 36t-173 105.5t-109 170.5t-38 230zM443 519q0 -69 14 -116.5t38.5 -76.5t59 -41.5t75.5 -12.5
q40 0 74 13t58 42t37.5 76.5t13.5 116.5q0 67 -13.5 113.5t-38 75.5t-58.5 42t-74 13q-41 0 -75 -13.5t-58.5 -43t-38.5 -76t-14 -112.5zM550 1140l-314 318l274 149l217 -363z" />
    <glyph glyph-name="ohungarumlaut" unicode="&#x151;" horiz-adv-x="1255" 
d="M78 518q0 124 37.5 224t108 171t172.5 109.5t230 38.5q124 0 226 -36.5t174.5 -106t112 -170t39.5 -229.5q0 -128 -38 -229t-109 -171t-173 -106.5t-230 -36.5t-230 36t-173 105.5t-109 170.5t-38 230zM443 519q0 -69 14 -116.5t38.5 -76.5t59 -41.5t75.5 -12.5
q40 0 74 13t58 42t37.5 76.5t13.5 116.5q0 67 -13.5 113.5t-38 75.5t-58.5 42t-74 13q-41 0 -75 -13.5t-58.5 -43t-38.5 -76t-14 -112.5zM298 1247l217 363l271 -145l-315 -319zM752 1247l218 363l271 -145l-315 -319z" />
    <glyph glyph-name="omacron" unicode="&#x14d;" horiz-adv-x="1255" 
d="M78 518q0 124 37.5 224t108 171t172.5 109.5t230 38.5q124 0 226 -36.5t174.5 -106t112 -170t39.5 -229.5q0 -128 -38 -229t-109 -171t-173 -106.5t-230 -36.5t-230 36t-173 105.5t-109 170.5t-38 230zM443 519q0 -69 14 -116.5t38.5 -76.5t59 -41.5t75.5 -12.5
q40 0 74 13t58 42t37.5 76.5t13.5 116.5q0 67 -13.5 113.5t-38 75.5t-58.5 42t-74 13q-41 0 -75 -13.5t-58.5 -43t-38.5 -76t-14 -112.5zM989 1187h-713v232h713v-232z" />
    <glyph glyph-name="otilde" unicode="&#xf5;" horiz-adv-x="1255" 
d="M78 518q0 124 37.5 224t108 171t172.5 109.5t230 38.5q124 0 226 -36.5t174.5 -106t112 -170t39.5 -229.5q0 -128 -38 -229t-109 -171t-173 -106.5t-230 -36.5t-230 36t-173 105.5t-109 170.5t-38 230zM443 519q0 -69 14 -116.5t38.5 -76.5t59 -41.5t75.5 -12.5
q40 0 74 13t58 42t37.5 76.5t13.5 116.5q0 67 -13.5 113.5t-38 75.5t-58.5 42t-74 13q-41 0 -75 -13.5t-58.5 -43t-38.5 -76t-14 -112.5zM168 1286q21 50 51.5 90.5t69.5 69t85 44t97 15.5q50 0 91.5 -12t78 -27t70 -27t68.5 -12q24 0 40 3t28 10.5t23 20t25 32.5l183 -109
q-23 -58 -58 -99.5t-75.5 -67.5t-82.5 -38.5t-77 -12.5q-50 0 -91 12t-78.5 27t-72 27t-70.5 12q-27 0 -44 -4t-29.5 -12.5t-23.5 -21t-24 -28.5z" />
    <glyph glyph-name="racute" unicode="&#x155;" horiz-adv-x="941" 
d="M140 890q91 60 188.5 99t196.5 55t196.5 10t187.5 -36l-50 -277q-41 7 -85 9.5t-88.5 -2.5t-88 -19.5t-83.5 -42.5v-686h-374v890zM408 1241l218 363l273 -149l-314 -318z" />
    <glyph glyph-name="rcaron" unicode="&#x159;" horiz-adv-x="941" 
d="M140 890q91 60 188.5 99t196.5 55t196.5 10t187.5 -36l-50 -277q-41 7 -85 9.5t-88.5 -2.5t-88 -19.5t-83.5 -42.5v-686h-374v890zM548 1343l114 142l298 -71l-230 -242h-363l-231 246l302 66z" />
    <glyph glyph-name="rcommaaccent" unicode="&#x157;" horiz-adv-x="941" 
d="M140 890q91 60 188.5 99t196.5 55t196.5 10t187.5 -36l-50 -277q-41 7 -85 9.5t-88.5 -2.5t-88 -19.5t-83.5 -42.5v-686h-374v890zM280 -63q115 0 169 -45.5t54 -126.5v-8q1 -77 -17.5 -152t-49.5 -143t-72 -126t-85 -100l-157 73q18 34 34.5 73t31 78t24.5 74.5t14 64.5
q-91 11 -128 55t-37 116q0 80 53.5 123.5t165.5 43.5z" />
    <glyph glyph-name="sacute" unicode="&#x15b;" horiz-adv-x="1015" 
d="M139 347q78 -39 158.5 -60t155.5 -21q28 0 52.5 4.5t42.5 12t28.5 18.5t10.5 23q0 13 -15 21.5t-43 17t-68.5 19t-90.5 26.5q-62 19 -115.5 45t-93 63.5t-62 91t-22.5 128.5q0 90 38.5 152t101 100.5t140.5 55.5t156 17q143 0 244.5 -28.5t172.5 -67.5l-91 -250
q-73 27 -136 39.5t-114 12.5q-30 0 -56.5 -3t-46.5 -9.5t-32 -16.5t-12 -24q0 -15 18.5 -24.5t48 -17.5t65.5 -15.5t72 -18.5q155 -47 228 -127t73 -205q0 -90 -37 -153t-98 -102t-139.5 -57t-161.5 -18q-89 0 -163.5 11t-133.5 27.5t-101.5 35.5t-67.5 34zM478 1237
l218 363l273 -149l-314 -318z" />
    <glyph glyph-name="scaron" unicode="&#x161;" horiz-adv-x="1015" 
d="M139 347q78 -39 158.5 -60t155.5 -21q28 0 52.5 4.5t42.5 12t28.5 18.5t10.5 23q0 13 -15 21.5t-43 17t-68.5 19t-90.5 26.5q-62 19 -115.5 45t-93 63.5t-62 91t-22.5 128.5q0 90 38.5 152t101 100.5t140.5 55.5t156 17q143 0 244.5 -28.5t172.5 -67.5l-91 -250
q-73 27 -136 39.5t-114 12.5q-30 0 -56.5 -3t-46.5 -9.5t-32 -16.5t-12 -24q0 -15 18.5 -24.5t48 -17.5t65.5 -15.5t72 -18.5q155 -47 228 -127t73 -205q0 -90 -37 -153t-98 -102t-139.5 -57t-161.5 -18q-89 0 -163.5 11t-133.5 27.5t-101.5 35.5t-67.5 34zM510 1328
l114 142l298 -71l-230 -242h-363l-231 246l302 66z" />
    <glyph glyph-name="scedilla" unicode="&#x15f;" horiz-adv-x="1015" 
d="M139 347q78 -39 158.5 -60t155.5 -21q28 0 52.5 4.5t42.5 12t28.5 18.5t10.5 23q0 13 -15 21.5t-43 17t-68.5 19t-90.5 26.5q-62 19 -115.5 45t-93 63.5t-62 91t-22.5 128.5q0 90 38.5 152t101 100.5t140.5 55.5t156 17q143 0 244.5 -28.5t172.5 -67.5l-91 -250
q-73 27 -136 39.5t-114 12.5q-30 0 -56.5 -3t-46.5 -9.5t-32 -16.5t-12 -24q0 -15 18.5 -24.5t48 -17.5t65.5 -15.5t72 -18.5q155 -47 228 -127t73 -205q0 -90 -37 -153t-98 -102t-139.5 -57t-161.5 -18q-89 0 -163.5 11t-133.5 27.5t-101.5 35.5t-67.5 34zM308 -278
q23 -6 48 -8.5t48 -2.5q19 0 38 3.5t34 11t24 20t9 30.5q0 40 -30.5 52t-80.5 12q-14 0 -33.5 -1.5t-38.5 -5.5l70 163h233l-37 -76q65 -11 107 -54.5t42 -117.5q0 -97 -69.5 -149.5t-203.5 -52.5q-57 0 -108.5 7.5t-93.5 23.5z" />
    <glyph glyph-name="scircumflex" unicode="&#x15d;" horiz-adv-x="1015" 
d="M139 347q78 -39 158.5 -60t155.5 -21q28 0 52.5 4.5t42.5 12t28.5 18.5t10.5 23q0 13 -15 21.5t-43 17t-68.5 19t-90.5 26.5q-62 19 -115.5 45t-93 63.5t-62 91t-22.5 128.5q0 90 38.5 152t101 100.5t140.5 55.5t156 17q143 0 244.5 -28.5t172.5 -67.5l-91 -250
q-73 27 -136 39.5t-114 12.5q-30 0 -56.5 -3t-46.5 -9.5t-32 -16.5t-12 -24q0 -15 18.5 -24.5t48 -17.5t65.5 -15.5t72 -18.5q155 -47 228 -127t73 -205q0 -90 -37 -153t-98 -102t-139.5 -57t-161.5 -18q-89 0 -163.5 11t-133.5 27.5t-101.5 35.5t-67.5 34zM348 1120
l-237 61l230 272h363l225 -272l-239 -62l-171 162z" />
    <glyph glyph-name="scommaaccent" unicode="&#x219;" horiz-adv-x="1015" 
d="M139 347q78 -39 158.5 -60t155.5 -21q28 0 52.5 4.5t42.5 12t28.5 18.5t10.5 23q0 13 -15 21.5t-43 17t-68.5 19t-90.5 26.5q-62 19 -115.5 45t-93 63.5t-62 91t-22.5 128.5q0 90 38.5 152t101 100.5t140.5 55.5t156 17q143 0 244.5 -28.5t172.5 -67.5l-91 -250
q-73 27 -136 39.5t-114 12.5q-30 0 -56.5 -3t-46.5 -9.5t-32 -16.5t-12 -24q0 -15 18.5 -24.5t48 -17.5t65.5 -15.5t72 -18.5q155 -47 228 -127t73 -205q0 -90 -37 -153t-98 -102t-139.5 -57t-161.5 -18q-89 0 -163.5 11t-133.5 27.5t-101.5 35.5t-67.5 34zM461 -95
q115 0 169 -45.5t54 -126.5v-8q1 -77 -17.5 -152t-49.5 -143t-72 -126t-85 -100l-157 73q18 34 34.5 73t31 78t24.5 74.5t14 64.5q-91 11 -128 55t-37 116q0 80 53.5 123.5t165.5 43.5z" />
    <glyph glyph-name="tbar" unicode="&#x167;" horiz-adv-x="911" 
d="M639 427h-580v210h580v-210zM64 998l111 30l46 264h328l-1 -264h215v-268h-215v-379q0 -51 18.5 -80t70.5 -29q39 0 70.5 10t66.5 21l83 -242q-40 -20 -77.5 -35.5t-77 -26.5t-83.5 -17t-97 -6q-70 0 -133 18.5t-110.5 60t-75.5 109t-28 165.5v431h-111v238z" />
    <glyph glyph-name="tcaron" unicode="&#x165;" horiz-adv-x="1222" 
d="M64 998l111 30l46 264h328l-1 -264h215v-268h-215v-379q0 -51 18.5 -80t70.5 -29q39 0 70.5 10t66.5 21l83 -242q-40 -20 -77.5 -35.5t-77 -26.5t-83.5 -17t-97 -6q-70 0 -133 18.5t-110.5 60t-75.5 109t-28 165.5v431h-111v238zM981 1479q115 0 169 -45.5t54 -126.5v-8
q1 -77 -17.5 -152t-49.5 -143t-72 -126t-85 -100l-157 73q18 34 34.5 73t31 78t24.5 74.5t14 64.5q-91 11 -128 55t-37 116q0 80 53.5 123.5t165.5 43.5z" />
    <glyph glyph-name="tcommaaccent" unicode="&#x163;" horiz-adv-x="911" 
d="M64 998l111 30l46 264h328l-1 -264h215v-268h-215v-379q0 -51 18.5 -80t70.5 -29q39 0 70.5 10t66.5 21l83 -242q-40 -20 -77.5 -35.5t-77 -26.5t-83.5 -17t-97 -6q-70 0 -133 18.5t-110.5 60t-75.5 109t-28 165.5v431h-111v238zM498 -82q115 0 169 -45.5t54 -126.5v-8
q1 -77 -17.5 -152t-49.5 -143t-72 -126t-85 -100l-157 73q18 34 34.5 73t31 78t24.5 74.5t14 64.5q-91 11 -128 55t-37 116q0 80 53.5 123.5t165.5 43.5z" />
    <glyph glyph-name="uacute" unicode="&#xfa;" 
d="M109 1028h374v-587q0 -53 12 -86t32.5 -51.5t46 -25t52.5 -6.5q45 0 83 13t65 33v710h374v-1028h-329l-38 107q-23 -26 -53 -49.5t-66 -41.5t-78 -29t-87 -11q-101 0 -174.5 36t-121 97.5t-70 142t-22.5 169.5v607zM531 1226l218 363l273 -149l-314 -318z" />
    <glyph glyph-name="ubreve" unicode="&#x16d;" 
d="M109 1028h374v-587q0 -53 12 -86t32.5 -51.5t46 -25t52.5 -6.5q45 0 83 13t65 33v710h374v-1028h-329l-38 107q-23 -26 -53 -49.5t-66 -41.5t-78 -29t-87 -11q-101 0 -174.5 36t-121 97.5t-70 142t-22.5 169.5v607zM650 1175q-76 0 -130 14.5t-91.5 38t-60.5 53.5
t-37 60.5t-21 59t-12 49.5l214 41q6 -23 13.5 -45t22 -38.5t39 -26.5t64.5 -10t63.5 10t37 26.5t20.5 38t14 44.5l215 -40q-5 -21 -12 -49.5t-21 -59t-37 -60.5t-60.5 -53.5t-91.5 -38t-129 -14.5z" />
    <glyph glyph-name="ucircumflex" unicode="&#xfb;" 
d="M109 1028h374v-587q0 -53 12 -86t32.5 -51.5t46 -25t52.5 -6.5q45 0 83 13t65 33v710h374v-1028h-329l-38 107q-23 -26 -53 -49.5t-66 -41.5t-78 -29t-87 -11q-101 0 -174.5 36t-121 97.5t-70 142t-22.5 169.5v607zM468 1147l-237 61l230 272h363l225 -272l-239 -62
l-171 162z" />
    <glyph glyph-name="udieresis" unicode="&#xfc;" 
d="M109 1028h374v-587q0 -53 12 -86t32.5 -51.5t46 -25t52.5 -6.5q45 0 83 13t65 33v710h374v-1028h-329l-38 107q-23 -26 -53 -49.5t-66 -41.5t-78 -29t-87 -11q-101 0 -174.5 36t-121 97.5t-70 142t-22.5 169.5v607zM420 1451q92 0 135 -36t43 -102q0 -65 -41.5 -101
t-130.5 -36q-94 0 -137 37t-43 103q0 65 42.5 100t131.5 35zM871 1451q91 0 134.5 -36t43.5 -102q0 -65 -42.5 -101t-130.5 -36q-94 0 -137 37t-43 103q0 65 42.5 100t132.5 35z" />
    <glyph glyph-name="uhungarumlaut" unicode="&#x171;" 
d="M121 1028h374v-587q0 -53 12 -86t32.5 -51.5t46 -25t52.5 -6.5q45 0 83 13t65 33v710h374v-1028h-329l-38 107q-23 -26 -53 -49.5t-66 -41.5t-78 -29t-87 -11q-101 0 -174.5 36t-121 97.5t-70 142t-22.5 169.5v607zM297 1223l217 363l271 -145l-315 -319zM751 1223
l218 363l271 -145l-315 -319z" />
    <glyph glyph-name="ugrave" unicode="&#xf9;" 
d="M109 1028h374v-587q0 -53 12 -86t32.5 -51.5t46 -25t52.5 -6.5q45 0 83 13t65 33v710h374v-1028h-329l-38 107q-23 -26 -53 -49.5t-66 -41.5t-78 -29t-87 -11q-101 0 -174.5 36t-121 97.5t-70 142t-22.5 169.5v607zM609 1134l-314 318l274 149l217 -363z" />
    <glyph glyph-name="umacron" unicode="&#x16b;" 
d="M113 1028h374v-587q0 -53 12 -86t32.5 -51.5t46 -25t52.5 -6.5q45 0 83 13t65 33v710h374v-1028h-329l-38 107q-23 -26 -53 -49.5t-66 -41.5t-78 -29t-87 -11q-101 0 -174.5 36t-121 97.5t-70 142t-22.5 169.5v607zM1017 1160h-713v232h713v-232z" />
    <glyph glyph-name="uogonek" unicode="&#x173;" 
d="M109 1028h374v-587q0 -53 12 -86t32.5 -51.5t46 -25t52.5 -6.5q45 0 83 13t65 33v710h374v-1028h-329l-38 107q-23 -26 -53 -49.5t-66 -41.5t-78 -29t-87 -11q-101 0 -174.5 36t-121 97.5t-70 142t-22.5 169.5v607zM1252 -414q-42 -16 -93.5 -23t-108.5 -7
q-134 0 -208.5 55t-74.5 152q0 40 13 75t34.5 64.5t49.5 53.5t58 44h210q-29 -27 -52.5 -49t-40 -43t-25 -43.5t-8.5 -50.5q0 -27 9.5 -44.5t25 -28.5t35 -15.5t38.5 -4.5q23 0 48 2t48 8z" />
    <glyph glyph-name="uring" unicode="&#x16f;" 
d="M109 1028h374v-587q0 -53 12 -86t32.5 -51.5t46 -25t52.5 -6.5q45 0 83 13t65 33v710h374v-1028h-329l-38 107q-23 -26 -53 -49.5t-66 -41.5t-78 -29t-87 -11q-101 0 -174.5 36t-121 97.5t-70 142t-22.5 169.5v607zM654 1397q-71 0 -71 -56q0 -59 74 -59q36 0 52 15.5
t16 41.5q0 58 -71 58zM653 1519q117 0 172.5 -46.5t55.5 -133.5q0 -84 -53.5 -131.5t-168.5 -47.5q-118 0 -174.5 47.5t-56.5 135.5q0 86 56 131t169 45z" />
    <glyph glyph-name="utilde" unicode="&#x169;" 
d="M113 1028h374v-587q0 -53 12 -86t32.5 -51.5t46 -25t52.5 -6.5q45 0 83 13t65 33v710h374v-1028h-329l-38 107q-23 -26 -53 -49.5t-66 -41.5t-78 -29t-87 -11q-101 0 -174.5 36t-121 97.5t-70 142t-22.5 169.5v607zM162 1271q21 50 51.5 90.5t69.5 69t85 44t97 15.5
q50 0 91.5 -12t78 -27t70 -27t68.5 -12q24 0 40 3t28 10.5t23 20t25 32.5l183 -109q-23 -58 -58 -99.5t-75.5 -67.5t-82.5 -38.5t-77 -12.5q-50 0 -91 12t-78.5 27t-72 27t-70.5 12q-27 0 -44 -4t-29.5 -12.5t-23.5 -21t-24 -28.5z" />
    <glyph glyph-name="wacute" unicode="&#x1e83;" horiz-adv-x="1881" 
d="M1819 1028q-8 -120 -34 -254.5t-62.5 -269.5t-81 -264t-89.5 -240h-457q-49 121 -89 244.5t-66 255.5h-2q-25 -141 -68 -267t-87 -233h-455q-28 63 -58 145.5t-59 175t-55.5 189.5t-47 190.5t-33.5 177.5t-15 150l391 10q1 -79 8 -168t19 -179.5t29.5 -178.5t41.5 -166
h13q20 51 39 111t36.5 123.5t32 127.5t25.5 122.5t18 109.5t10 88h433q6 -77 21.5 -163t37 -174.5t47.5 -176t55 -168.5h13q13 45 26 103.5t24.5 123.5t21 132t16 129t9 115t1.5 89zM864 1244l218 363l273 -149l-314 -318z" />
    <glyph glyph-name="wcircumflex" unicode="&#x175;" horiz-adv-x="1881" 
d="M1819 1028q-8 -120 -34 -254.5t-62.5 -269.5t-81 -264t-89.5 -240h-457q-49 121 -89 244.5t-66 255.5h-2q-25 -141 -68 -267t-87 -233h-455q-28 63 -58 145.5t-59 175t-55.5 189.5t-47 190.5t-33.5 177.5t-15 150l391 10q1 -79 8 -168t19 -179.5t29.5 -178.5t41.5 -166
h13q20 51 39 111t36.5 123.5t32 127.5t25.5 122.5t18 109.5t10 88h433q6 -77 21.5 -163t37 -174.5t47.5 -176t55 -168.5h13q13 45 26 103.5t24.5 123.5t21 132t16 129t9 115t1.5 89zM766 1153l-237 61l230 272h363l225 -272l-239 -62l-171 162z" />
    <glyph glyph-name="wdieresis" unicode="&#x1e85;" horiz-adv-x="1881" 
d="M1819 1028q-8 -120 -34 -254.5t-62.5 -269.5t-81 -264t-89.5 -240h-457q-49 121 -89 244.5t-66 255.5h-2q-25 -141 -68 -267t-87 -233h-455q-28 63 -58 145.5t-59 175t-55.5 189.5t-47 190.5t-33.5 177.5t-15 150l391 10q1 -79 8 -168t19 -179.5t29.5 -178.5t41.5 -166
h13q20 51 39 111t36.5 123.5t32 127.5t25.5 122.5t18 109.5t10 88h433q6 -77 21.5 -163t37 -174.5t47.5 -176t55 -168.5h13q13 45 26 103.5t24.5 123.5t21 132t16 129t9 115t1.5 89zM699 1437q92 0 135 -36t43 -102q0 -65 -41.5 -101t-130.5 -36q-94 0 -137 37t-43 103
q0 65 42.5 100t131.5 35zM1150 1437q91 0 134.5 -36t43.5 -102q0 -65 -42.5 -101t-130.5 -36q-94 0 -137 37t-43 103q0 65 42.5 100t132.5 35z" />
    <glyph glyph-name="wgrave" unicode="&#x1e81;" horiz-adv-x="1881" 
d="M1819 1028q-8 -120 -34 -254.5t-62.5 -269.5t-81 -264t-89.5 -240h-457q-49 121 -89 244.5t-66 255.5h-2q-25 -141 -68 -267t-87 -233h-455q-28 63 -58 145.5t-59 175t-55.5 189.5t-47 190.5t-33.5 177.5t-15 150l391 10q1 -79 8 -168t19 -179.5t29.5 -178.5t41.5 -166
h13q20 51 39 111t36.5 123.5t32 127.5t25.5 122.5t18 109.5t10 88h433q6 -77 21.5 -163t37 -174.5t47.5 -176t55 -168.5h13q13 45 26 103.5t24.5 123.5t21 132t16 129t9 115t1.5 89zM878 1133l-314 318l274 149l217 -363z" />
    <glyph glyph-name="yacute" unicode="&#xfd;" horiz-adv-x="1221" 
d="M180 -349q75 86 139 169t118 180h-45q-69 113 -128.5 246t-105 270t-77 269t-45.5 243l399 10q7 -86 21 -180.5t35 -189t48.5 -186t62.5 -170.5h20q25 48 46 110.5t38.5 131.5t31.5 139.5t24 135t16 119t8 90.5l400 -10q-6 -70 -24 -157.5t-45 -183.5t-61 -194t-71 -189
t-76 -169.5t-75 -134.5q-27 -50 -65.5 -116t-82.5 -136.5t-89.5 -138.5t-85.5 -121zM543 1242l218 363l273 -149l-314 -318z" />
    <glyph glyph-name="ycircumflex" unicode="&#x177;" horiz-adv-x="1221" 
d="M180 -349q75 86 139 169t118 180h-45q-69 113 -128.5 246t-105 270t-77 269t-45.5 243l399 10q7 -86 21 -180.5t35 -189t48.5 -186t62.5 -170.5h20q25 48 46 110.5t38.5 131.5t31.5 139.5t24 135t16 119t8 90.5l400 -10q-6 -70 -24 -157.5t-45 -183.5t-61 -194t-71 -189
t-76 -169.5t-75 -134.5q-27 -50 -65.5 -116t-82.5 -136.5t-89.5 -138.5t-85.5 -121zM429 1151l-237 61l230 272h363l225 -272l-239 -62l-171 162z" />
    <glyph glyph-name="ydieresis" unicode="&#xff;" horiz-adv-x="1221" 
d="M180 -349q75 86 139 169t118 180h-45q-69 113 -128.5 246t-105 270t-77 269t-45.5 243l399 10q7 -86 21 -180.5t35 -189t48.5 -186t62.5 -170.5h20q25 48 46 110.5t38.5 131.5t31.5 139.5t24 135t16 119t8 90.5l400 -10q-6 -70 -24 -157.5t-45 -183.5t-61 -194t-71 -189
t-76 -169.5t-75 -134.5q-27 -50 -65.5 -116t-82.5 -136.5t-89.5 -138.5t-85.5 -121zM384 1423q92 0 135 -36t43 -102q0 -65 -41.5 -101t-130.5 -36q-94 0 -137 37t-43 103q0 65 42.5 100t131.5 35zM835 1423q91 0 134.5 -36t43.5 -102q0 -65 -42.5 -101t-130.5 -36
q-94 0 -137 37t-43 103q0 65 42.5 100t132.5 35z" />
    <glyph glyph-name="ygrave" unicode="&#x1ef3;" horiz-adv-x="1221" 
d="M180 -349q75 86 139 169t118 180h-45q-69 113 -128.5 246t-105 270t-77 269t-45.5 243l399 10q7 -86 21 -180.5t35 -189t48.5 -186t62.5 -170.5h20q25 48 46 110.5t38.5 131.5t31.5 139.5t24 135t16 119t8 90.5l400 -10q-6 -70 -24 -157.5t-45 -183.5t-61 -194t-71 -189
t-76 -169.5t-75 -134.5q-27 -50 -65.5 -116t-82.5 -136.5t-89.5 -138.5t-85.5 -121zM588 1133l-314 318l274 149l217 -363z" />
    <glyph glyph-name="zacute" unicode="&#x17a;" horiz-adv-x="1068" 
d="M111 732v296h851v-256q-44 -63 -99 -121.5t-112.5 -115.5t-113 -115t-100.5 -120v-4h434v-296h-895v275q44 60 98.5 116t111.5 110.5t111 110.5t97 116v4h-383zM455 1238l218 363l273 -149l-314 -318z" />
    <glyph glyph-name="zcaron" unicode="&#x17e;" horiz-adv-x="1068" 
d="M111 732v296h851v-256q-44 -63 -99 -121.5t-112.5 -115.5t-113 -115t-100.5 -120v-4h434v-296h-895v275q44 60 98.5 116t111.5 110.5t111 110.5t97 116v4h-383zM527 1344l114 142l298 -71l-230 -242h-363l-231 246l302 66z" />
    <glyph glyph-name="zdotaccent" unicode="&#x17c;" horiz-adv-x="1068" 
d="M111 732v296h851v-256q-44 -63 -99 -121.5t-112.5 -115.5t-113 -115t-100.5 -120v-4h434v-296h-895v275q44 60 98.5 116t111.5 110.5t111 110.5t97 116v4h-383zM562 1427q92 0 135 -36t43 -102q0 -65 -41.5 -101t-130.5 -36q-94 0 -137 37t-43 103q0 65 42.5 100
t131.5 35z" />
    <glyph glyph-name="macron" unicode="&#xaf;" horiz-adv-x="1212" 
d="M1021 1160h-713v232h713v-232z" />
    <glyph glyph-name="dotlessi" unicode="&#x131;" horiz-adv-x="604" 
d="M115 0v1028h374v-1028h-374z" />
    <glyph glyph-name="dotlessj" unicode="&#x237;" horiz-adv-x="604" 
d="M-185 -105q58 -16 100.5 -25t82.5 -9q35 0 57.5 14t36 35t18.5 47.5t5 52.5v1018h373v-1025q0 -52 -9.5 -104.5t-31 -100t-55 -88.5t-81.5 -71.5t-111.5 -47.5t-143.5 -17q-44 0 -86 5.5t-80.5 14.5t-73.5 20t-63 22z" />
    <glyph glyph-name="cent" unicode="&#xa2;" horiz-adv-x="1034" 
d="M405 984v224h335v-217zM740 41v-196h-335v196h335zM56 523q0 123 34.5 222.5t100.5 169.5t162 108t219 38q100 0 197.5 -24t191.5 -78l-95 -240q-24 10 -47 18.5t-47.5 14.5t-51.5 9t-60 3q-239 0 -239 -250q0 -67 19.5 -113.5t52 -75t74.5 -41.5t87 -13q61 0 112.5 13
t98.5 33l97 -240q-39 -21 -81 -39t-90 -32t-104.5 -22t-125.5 -8q-141 0 -237.5 47t-156 124t-85.5 175.5t-26 200.5z" />
    <glyph glyph-name="dollar" unicode="$" horiz-adv-x="1196" 
d="M431 1378v163h334v-163h-334zM765 33v-188h-334v188h334zM139 392q65 -27 119.5 -46.5t103 -31.5t93 -17.5t90.5 -5.5q96 0 142 30.5t46 81.5q0 54 -57 89t-159 61q-101 25 -184.5 57.5t-143.5 79.5t-93 114t-33 163q0 106 33.5 190.5t102.5 143t173.5 89.5t247.5 31
q52 0 114 -7.5t126 -23t127 -39t117 -54.5l-112 -263q-76 32 -163 52t-168 20q-208 0 -208 -106q0 -29 14 -50t42.5 -37t71 -30t99.5 -30q219 -57 330 -157.5t111 -264.5q0 -106 -33 -190t-100 -143t-169 -90.5t-240 -31.5q-87 0 -161.5 9t-141.5 26.5t-129 42.5t-123 57z
" />
    <glyph glyph-name="currency" unicode="&#xa4;" horiz-adv-x="1128" 
d="M551 1039q99 0 177 -20l142 147l171 -164l-119 -103q59 -82 59 -206q0 -116 -53 -194l112 -98l-171 -163l-131 135q-77 -21 -177 -21q-53 0 -98.5 5t-85.5 15l-131 -135l-172 163l108 95q-58 80 -58 206q0 124 60 204l-110 98l172 163l138 -144q37 8 78 12.5t89 4.5z
M552 835q-80 0 -123 -32.5t-43 -103.5q0 -144 170 -144q87 0 123.5 38t36.5 100q0 75 -41.5 108.5t-122.5 33.5z" />
    <glyph glyph-name="AEacute" unicode="&#x1fc;" horiz-adv-x="1973" 
d="M932 0v255h-432q-27 -86 -46 -150.5t-25 -104.5h-422q12 57 33 136.5t51 178t69.5 213.5t87.5 242q42 114 85 211.5t82 177t72.5 139.5t57.5 98h1341v-315h-578v-230h493v-293h-493v-243h601v-315h-977zM794 1080q-20 -42 -44 -103.5t-50.5 -133t-54 -148.5t-52.5 -150
h339v535h-138zM1078 1577l218 363l273 -149l-314 -318z" />
    <glyph glyph-name="commaaccent" unicode="&#xf6c3;" horiz-adv-x="0" 
 />
    <glyph glyph-name="Oslash" unicode="&#xd8;" horiz-adv-x="1575" 
d="M1507 695q-1 -168 -50.5 -302t-141.5 -227t-223.5 -142t-296.5 -48q-39 0 -76 3l-59 -159l-346 81l66 176q-154 89 -234.5 246.5t-78.5 371.5q2 168 51 302t141.5 228t227 144.5t308.5 51.5q40 0 78 -3l51 134l350 -82l-61 -161q143 -93 219.5 -250.5t74.5 -363.5z
M793 1106q-86 0 -149.5 -32.5t-106.5 -88.5t-65 -131t-24 -159q-2 -81 20 -154.5t66 -129t109 -88t151 -32.5q77 0 139 30.5t105.5 84.5t66.5 128t23 161q0 83 -22.5 157.5t-65 131t-105 89.5t-142.5 33z" />
    <glyph glyph-name="Oslashacute" unicode="&#x1fe;" horiz-adv-x="1575" 
d="M1507 695q-1 -168 -50.5 -302t-141.5 -227t-223.5 -142t-296.5 -48q-39 0 -76 3l-59 -159l-346 81l66 176q-154 89 -234.5 246.5t-78.5 371.5q2 168 51 302t141.5 228t227 144.5t308.5 51.5q40 0 78 -3l51 134l350 -82l-61 -161q143 -93 219.5 -250.5t74.5 -363.5z
M793 1106q-86 0 -149.5 -32.5t-106.5 -88.5t-65 -131t-24 -159q-2 -81 20 -154.5t66 -129t109 -88t151 -32.5q77 0 139 30.5t105.5 84.5t66.5 128t23 161q0 83 -22.5 157.5t-65 131t-105 89.5t-142.5 33zM650 1674l218 363l273 -149l-314 -318z" />
    <glyph glyph-name="aeacute" unicode="&#x1fd;" horiz-adv-x="1836" 
d="M48 487q0 149 40 257t116.5 178.5t188 104.5t253.5 34q91 0 183 -19t170 -47q126 66 301 66q111 0 197 -30.5t144.5 -81t88.5 -115t30 -132.5q0 -57 -17 -120t-60.5 -115.5t-119.5 -87t-194 -34.5h-222q31 -42 86 -62t142 -20q38 0 73 7.5t67.5 19t63 26t59.5 28.5
l99 -252q-87 -54 -195 -85t-227 -31q-117 0 -210 24h-329l-39 110q-19 -18 -47 -41t-64.5 -44t-82 -35t-98.5 -14q-95 0 -168.5 36t-124.5 102.5t-77.5 161t-26.5 211.5zM414 509q0 -65 14 -110t37.5 -73.5t54.5 -41t66 -12.5q42 0 80.5 15.5t65.5 36.5v420
q-14 5 -46.5 12.5t-83.5 7.5q-44 0 -78.5 -14.5t-59 -45t-37.5 -79t-13 -116.5zM1281 766q-35 0 -61.5 -11.5t-46 -31t-33 -44t-21.5 -51.5h185q42 0 66.5 10.5t24.5 42.5q0 23 -9 39.5t-25 26.5t-36.5 14.5t-43.5 4.5zM898 1268l218 363l273 -149l-314 -318z" />
    <glyph glyph-name="kgreenlandic" unicode="&#x138;" horiz-adv-x="1257" 
d="M1166 1028q-52 -146 -135.5 -257.5t-178.5 -195.5q31 -65 79 -134.5t102 -136t107.5 -125t95.5 -99.5l-270 -174q-47 33 -102.5 88t-110.5 120t-103.5 135t-81.5 134q-22 -11 -42 -20.5t-38 -17.5v-345h-373v1028h373v-338q51 28 94.5 65t80 81t65.5 92.5t51 99.5h387v0z
" />
    <glyph glyph-name="oslash" unicode="&#xf8;" horiz-adv-x="1255" 
d="M78 518q0 124 37.5 224t108 171t172.5 109.5t230 38.5q10 0 19.5 -0.5t19.5 -0.5l54 143l289 -88l-52 -141q105 -68 163.5 -182.5t58.5 -272.5q0 -128 -38 -229t-109 -171t-173 -106.5t-230 -36.5q-11 0 -22.5 0.5t-22.5 1.5l-45 -121l-292 81l47 125
q-104 68 -159.5 182.5t-55.5 272.5zM443 519q0 -69 14 -116.5t38.5 -76.5t59 -41.5t75.5 -12.5q40 0 74 13t58 42t37.5 76.5t13.5 116.5q0 67 -13.5 113.5t-38 75.5t-58.5 42t-74 13q-41 0 -75 -13.5t-58.5 -43t-38.5 -76t-14 -112.5z" />
    <glyph glyph-name="oslashacute" unicode="&#x1ff;" horiz-adv-x="1255" 
d="M78 518q0 124 37.5 224t108 171t172.5 109.5t230 38.5q10 0 19.5 -0.5t19.5 -0.5l54 143l289 -88l-52 -141q105 -68 163.5 -182.5t58.5 -272.5q0 -128 -38 -229t-109 -171t-173 -106.5t-230 -36.5q-11 0 -22.5 0.5t-22.5 1.5l-45 -121l-292 81l47 125
q-104 68 -159.5 182.5t-55.5 272.5zM443 519q0 -69 14 -116.5t38.5 -76.5t59 -41.5t75.5 -12.5q40 0 74 13t58 42t37.5 76.5t13.5 116.5q0 67 -13.5 113.5t-38 75.5t-58.5 42t-74 13q-41 0 -75 -13.5t-58.5 -43t-38.5 -76t-14 -112.5zM463 1305l218 363l273 -149l-314 -318z
" />
    <glyph glyph-name="Eng" unicode="&#x14a;" horiz-adv-x="1612" 
d="M1462 -2q0 -115 -21.5 -202.5t-68.5 -146t-121 -88t-180 -29.5q-44 0 -88.5 5.5t-87 15t-81.5 21.5t-71 25l56 282q33 -13 78 -23t83 -10q33 0 55 10.5t34.5 30t17.5 47.5t5 63v278h390v-279zM150 0v1396h407q42 -47 84.5 -110t85.5 -133.5t86 -145.5t86 -146.5
t85.5 -136t84.5 -114.5h10l-7 786h390v-1396h-400q-47 51 -92.5 113.5t-90 131t-88 139.5t-85.5 137.5t-82.5 126t-80.5 105.5h-11l8 -753h-390z" />
    <glyph glyph-name="eng" unicode="&#x14b;" 
d="M115 881q44 30 110 61.5t146 58t169 43.5t178 17q122 0 205 -32t133.5 -86t72 -126t21.5 -153v-664q0 -78 -22.5 -154.5t-73.5 -137t-133.5 -97.5t-202.5 -37q-44 0 -86 5.5t-80.5 14.5t-73.5 20t-63 22l62 259q57 -16 100 -25t83 -9q34 0 57 14t36 35t18.5 47.5
t5.5 52.5v611q0 23 -5 46t-17 41.5t-33 30t-53 11.5q-23 0 -48.5 -5t-50 -13t-46 -17.5t-36.5 -18.5v-696h-373v881z" />
    <glyph glyph-name="fraction" unicode="&#x2044;" horiz-adv-x="1030" 
d="M114 0l486 1396h313l-485 -1396h-314z" />
    <glyph glyph-name="afii10017" unicode="&#x410;" horiz-adv-x="1510" 
d="M1062 -10q-13 60 -26.5 124.5t-29.5 133.5h-501q-18 -76 -32.5 -142t-25.5 -116l-406 10q12 58 32 137.5t45.5 171.5t56 193.5t63.5 204t67.5 202.5t68.5 190t67 166.5t62 130.5h504q27 -48 58.5 -120t65 -159.5t68 -187t68 -202.5t64.5 -206.5t57.5 -198t47 -177.5
t32.5 -145zM743 1081q-40 -106 -82 -244.5t-80 -284.5h349q-37 137 -77.5 270.5t-85.5 258.5h-24z" />
    <glyph glyph-name="afii10018" unicode="&#x411;" horiz-adv-x="1309" 
d="M525 277h147q94 0 140 37t46 115q0 70 -43 111.5t-134 41.5h-156v-305zM1096 1134h-571v-287h154q146 0 249.5 -34.5t169 -93.5t96 -137t30.5 -164q0 -203 -122.5 -310.5t-369.5 -107.5h-582v1396h946v-262z" />
    <glyph glyph-name="afii10019" unicode="&#x412;" horiz-adv-x="1309" 
d="M150 0v1396h553q106 0 196.5 -23.5t156.5 -70t103 -115.5t37 -160q0 -61 -20 -109t-51.5 -83.5t-70 -59.5t-76.5 -37v-9q57 -17 104.5 -48t82.5 -74t54.5 -98t19.5 -120q0 -91 -30.5 -163t-92 -122.5t-153.5 -77t-216 -26.5h-597zM540 277h148q94 0 139.5 37t45.5 115
q0 70 -43 111.5t-134 41.5h-156v-305zM540 847h143q81 0 125.5 40.5t44.5 107.5t-44.5 103t-128.5 36h-140v-287z" />
    <glyph glyph-name="afii10020" unicode="&#x413;" horiz-adv-x="1129" 
d="M1092 1396v-315h-546v-1081h-390v1396h936z" />
    <glyph glyph-name="afii10022" unicode="&#x415;" horiz-adv-x="1217" 
d="M150 0v1396h949l-1 -315h-573v-230h489v-293h-489v-243h597v-315h-972z" />
    <glyph glyph-name="afii10023" unicode="&#x401;" horiz-adv-x="1217" 
d="M150 0v1396h963v-315h-573v-230h488v-293h-488v-243h596v-315h-986zM461 1772q92 0 135 -36t43 -102q0 -65 -41.5 -101t-130.5 -36q-94 0 -137 37t-43 103q0 65 42.5 100t131.5 35zM912 1772q91 0 134.5 -36t43.5 -102q0 -65 -42.5 -101t-130.5 -36q-94 0 -137 37
t-43 103q0 65 42.5 100t132.5 35z" />
    <glyph glyph-name="afii10026" unicode="&#x418;" horiz-adv-x="1612" 
d="M1072 0l7 753h-10q-40 -46 -80.5 -105.5t-83 -126t-85.5 -137.5t-87.5 -139.5t-90.5 -131t-93 -113.5h-399v1396h390l-7 -786h10q42 50 84.5 114.5t85.5 136t86 146.5t86 145.5t85.5 133.5t84.5 110h407v-1396h-390z" />
    <glyph glyph-name="afii10027" unicode="&#x419;" horiz-adv-x="1612" 
d="M1072 0l7 753h-10q-40 -46 -80.5 -105.5t-83 -126t-85.5 -137.5t-87.5 -139.5t-90.5 -131t-93 -113.5h-399v1396h390l-7 -786h10q42 50 84.5 114.5t85.5 136t86 146.5t86 145.5t85.5 133.5t84.5 110h407v-1396h-390zM858 1519q-76 0 -130 14.5t-91.5 38t-60.5 53.5
t-37 60.5t-21 59t-12 49.5l214 41q6 -23 13.5 -45t22 -38.5t39 -26.5t64.5 -10t63.5 10t37 26.5t20.5 38t14 44.5l215 -40q-5 -21 -12 -49.5t-21 -59t-37 -60.5t-60.5 -53.5t-91.5 -38t-129 -14.5z" />
    <glyph glyph-name="afii10028" unicode="&#x41a;" horiz-adv-x="1444" 
d="M150 0v1396h390v-509q66 58 122.5 116.5t103.5 120.5t86 129.5t71 142.5h421q-30 -80 -72 -161.5t-94 -160.5t-112.5 -154.5t-125.5 -142.5q38 -74 93 -162t120.5 -178t138 -176t146.5 -158l-288 -193q-63 53 -130.5 128.5t-132 161.5t-122 176.5t-98.5 173.5
q-32 -20 -63.5 -37.5t-63.5 -31.5v-481h-390z" />
    <glyph glyph-name="afii10029" unicode="&#x41b;" horiz-adv-x="1607" 
d="M1063 1081h-385v-219q0 -76 -5 -171.5t-20 -194t-43 -192t-74.5 -166.5t-114 -117.5t-161.5 -44.5q-31 0 -64.5 2.5t-62 5.5t-48 5.5t-20.5 2.5l-7 276q20 2 43.5 1t49.5 4q34 6 57.5 44.5t39 95t24 124t12.5 131.5t4.5 118t0.5 83v527h1167v-1396h-393v1081z" />
    <glyph glyph-name="afii10030" unicode="&#x41c;" horiz-adv-x="1925" 
d="M76 0q3 89 6 168.5t7.5 157t10.5 156t13 165.5q9 110 19.5 215t22 200.5t23 180t21.5 152.5h526l238 -865h15l237 865h527q20 -139 43.5 -326t42.5 -422q8 -100 14 -187.5t10.5 -166t7.5 -151t5 -142.5h-399q-1 66 -2.5 143.5t-4.5 160.5t-6.5 168t-9 165.5t-12 153
t-15.5 130.5h-14l-260 -920h-343l-261 920h-14q-14 -100 -22.5 -218.5t-14 -241t-8 -241.5t-4.5 -220h-399z" />
    <glyph glyph-name="afii10031" unicode="&#x41d;" horiz-adv-x="1577" 
d="M150 0v1396h390v-534h491v534h393v-1396h-393v546h-491v-546h-390z" />
    <glyph glyph-name="afii10032" unicode="&#x41e;" horiz-adv-x="1575" 
d="M1507 695q-1 -168 -50.5 -302t-141.5 -227t-223.5 -142t-296.5 -48q-173 1 -309 51.5t-229.5 144t-142.5 226t-47 297.5q2 168 51 302t141.5 228t227 144.5t308.5 51.5q167 1 299.5 -51t224.5 -147.5t140.5 -230t47.5 -297.5zM793 1106q-86 0 -149.5 -32.5t-106.5 -88.5
t-65 -131t-24 -159q-2 -81 20 -154.5t66 -129t109 -88t151 -32.5q77 0 139 30.5t105.5 84.5t66.5 128t23 161q0 83 -22.5 157.5t-65 131t-105 89.5t-142.5 33z" />
    <glyph glyph-name="afii10033" unicode="&#x41f;" horiz-adv-x="1577" 
d="M1424 0h-393v1081h-491v-1081h-390v1396h1274v-1396z" />
    <glyph glyph-name="afii10034" unicode="&#x420;" horiz-adv-x="1323" 
d="M150 0v1396h555q134 0 239 -30t178 -90.5t111 -151.5t38 -214q0 -137 -45 -235t-122 -160.5t-180.5 -92t-220.5 -29.5h-163v-393h-390zM540 688h150q48 0 85 14.5t62.5 41.5t39 65t13.5 84q0 97 -52 148t-156 51h-142v-404z" />
    <glyph glyph-name="afii10035" unicode="&#x421;" horiz-adv-x="1317" 
d="M449 689q0 -108 25 -183.5t72 -123t113.5 -69.5t150.5 -22q48 0 92.5 7.5t85.5 20t78 28t70 31.5l112 -262q-45 -29 -105.5 -54.5t-128 -44.5t-138 -30t-134.5 -11q-91 0 -176.5 14t-160.5 46.5t-137 85.5t-106.5 131.5t-69 185t-24.5 245.5q0 141 24.5 250.5t69 191.5
t106.5 138.5t137 91t160.5 50t176.5 15.5q72 0 144 -11.5t139 -31t124 -45t99 -53.5l-110 -262q-68 34 -150 61t-178 27q-86 0 -153.5 -22.5t-113.5 -72.5t-70 -129.5t-24 -192.5z" />
    <glyph glyph-name="afii10036" unicode="&#x422;" horiz-adv-x="1168" 
d="M25 1081v315h1116v-315h-363v-1081h-390v1081h-363z" />
    <glyph glyph-name="afii10037" unicode="&#x423;" horiz-adv-x="1417" 
d="M228 19q37 43 73 85t69 84.5t63 87t57 92.5h-4q-84 131 -155.5 259.5t-126.5 274.5q-62 164 -100 284t-54 210h422q7 -90 27.5 -187t55.5 -212q26 -84 64.5 -160t76.5 -149h20q20 36 39 70.5t36.5 70.5t33 75t28.5 83q39 138 58 242.5t27 166.5h423q-15 -95 -53.5 -224.5
t-106.5 -291.5q-35 -82 -69.5 -152.5t-69 -133t-68.5 -118.5t-66 -108q-18 -33 -42 -74t-51.5 -86.5t-57.5 -92.5t-60.5 -93t-60 -88.5t-56.5 -77.5z" />
    <glyph glyph-name="afii10039" unicode="&#x425;" horiz-adv-x="1384" 
d="M27 0q41 96 86.5 185.5t93.5 179.5q30 55 64.5 113t66.5 107.5t56.5 85.5t33.5 47q-24 36 -45.5 67.5t-44.5 67t-49.5 78.5t-60.5 103q-47 83 -88 174t-80 188l443 10q11 -36 30.5 -91.5t51.5 -136.5q29 -66 55 -122t50 -101h17q9 18 20 39t24.5 49.5t29 66t35.5 87.5
q13 32 23 58.5t19 50.5t17 48.5t19 51.5l442 -10q-32 -78 -74 -174.5t-111 -216.5q-60 -101 -105.5 -173t-75.5 -114q45 -66 98 -148t118 -200q23 -42 45 -82.5t44 -84.5t45.5 -93.5t49.5 -109.5l-447 -10q-17 49 -37.5 106.5t-57.5 131.5q-23 48 -40.5 85t-32 64.5t-26 48
t-21.5 35.5h-18q-12 -18 -26.5 -43t-30 -55.5t-32.5 -64.5t-33 -69q-14 -29 -27.5 -62t-26 -65.5t-23.5 -61.5t-18 -50z" />
    <glyph glyph-name="afii10021" unicode="&#x414;" horiz-adv-x="1673" 
d="M450 -222h-390v537h100q63 69 103 166.5t62.5 209.5t30.5 232.5t8 237.5v235h1089v-1081h140v-537h-393v222h-750v-222zM749 957q0 -68 -10 -148.5t-30.5 -165t-52.5 -168.5t-75 -160h479v766h-311v-124z" />
    <glyph glyph-name="afii10024" unicode="&#x416;" horiz-adv-x="2200" 
d="M477 1396q28 -85 68.5 -160t91 -142.5t111 -128.5t129.5 -118v549h389v-547q136 112 238.5 245t159.5 302h422q-30 -85 -76 -171.5t-104 -170.5t-125.5 -163t-140.5 -148q37 -74 89.5 -158t114 -167.5t129.5 -162t138 -141.5l-300 -188q-49 40 -108 110.5t-118.5 155
t-114.5 175t-97 170.5q-53 -32 -107 -57v-480h-389v479q-27 12 -54.5 26.5t-55.5 31.5q-27 -53 -61 -112t-72 -118t-78 -116t-79 -107t-76.5 -90.5t-70.5 -67.5l-300 188q69 64 137.5 142.5t130 161.5t113.5 167t90 158q-73 69 -140.5 148t-125.5 163t-104 170.5t-76 171.5
h422z" />
    <glyph glyph-name="afii10025" unicode="&#x417;" horiz-adv-x="1184" 
d="M62 1295q88 56 215.5 91t276.5 35q135 0 237.5 -26t170.5 -73.5t102.5 -115t34.5 -149.5q0 -114 -54.5 -194t-163.5 -125q52 -21 97 -48t78 -66.5t52 -94.5t19 -131q0 -80 -22 -142.5t-61.5 -109t-93.5 -78.5t-117.5 -52t-134.5 -29.5t-144 -10.5q-63 -1 -129 6
t-130.5 22t-125.5 38t-114 53l111 265q42 -18 77 -31t73 -21.5t83.5 -12.5t108.5 -4q43 0 85.5 6.5t76.5 22.5t55 43.5t21 69.5q0 28 -22.5 52t-64 41t-100 27t-131.5 10h-139v283h129q156 0 227.5 33.5t71.5 105.5q0 30 -16.5 52.5t-46 38t-70 23t-87.5 7.5
q-37 0 -74.5 -2.5t-77 -10t-82.5 -22t-91 -38.5z" />
    <glyph glyph-name="afii10038" unicode="&#x424;" horiz-adv-x="1962" 
d="M785 -107v138q-168 3 -302.5 46t-227.5 126t-142 206t-47 286q2 165 51 289.5t141 208t224.5 127t302.5 46.5v143h389v-143h8q166 -1 298.5 -45t224.5 -129.5t141 -210t48 -286.5q-1 -167 -51 -291t-142 -206.5t-222.5 -124t-292.5 -42.5h-12v-138h-389zM1174 1049v-702
l11 -1q74 3 135 26t104 66.5t66.5 107.5t23.5 149q0 81 -22 145t-64 109.5t-102.5 71t-136.5 29.5zM447 695q-2 -79 20.5 -142.5t66 -108.5t107 -70.5t144.5 -27.5v705q-165 -5 -249.5 -97.5t-88.5 -258.5z" />
    <glyph glyph-name="afii10040" unicode="&#x426;" horiz-adv-x="1605" 
d="M540 315h491v1081h393v-1081h147v-537h-393v222h-1028v1396h390v-1081z" />
    <glyph glyph-name="afii10041" unicode="&#x427;" horiz-adv-x="1379" 
d="M841 0v490q-20 -14 -52.5 -30t-75.5 -29.5t-96 -23t-113 -9.5q-95 0 -170.5 32t-128.5 90.5t-81.5 140.5t-28.5 182v553h390v-514q0 -53 21.5 -86t52 -51t65 -24.5t61.5 -6.5q21 0 43.5 4t43.5 11t39 16.5t30 19.5v631h390v-1396h-390z" />
    <glyph glyph-name="afii10042" unicode="&#x428;" horiz-adv-x="2099" 
d="M540 315h316v1081h393v-1081h305v1081h393v-1396h-1797v1396h390v-1081z" />
    <glyph glyph-name="afii10043" unicode="&#x429;" horiz-adv-x="2124" 
d="M540 315h316v1081h393v-1081h305v1081h393v-1081h146v-537h-393v222h-1550v1396h390v-1081z" />
    <glyph glyph-name="afii10044" unicode="&#x42a;" horiz-adv-x="1392" 
d="M19 1396h628v-549h155q146 0 249.5 -36t169 -94t96 -130t30.5 -144q0 -116 -30.5 -199.5t-92 -137.5t-154 -80t-216.5 -26h-581v1134h-254v262zM647 277h148q94 0 139.5 37t45.5 115q0 70 -43 111.5t-134 41.5h-156v-305z" />
    <glyph glyph-name="afii10046" unicode="&#x42c;" horiz-adv-x="1280" 
d="M525 277h147q94 0 140 37t46 115q0 70 -43 111.5t-134 41.5h-156v-305zM525 1396v-549h154q146 0 249.5 -36t169 -94t96 -130t30.5 -144q0 -116 -30.5 -199.5t-92 -137.5t-153.5 -80t-216 -26h-582v1396h375z" />
    <glyph glyph-name="afii10045" unicode="&#x42b;" horiz-adv-x="1947" 
d="M525 277h147q94 0 140 37t46 115q0 70 -43 111.5t-134 41.5h-156v-305zM525 1396v-549h154q146 0 249.5 -36t169 -94t96 -130t30.5 -144q0 -116 -30.5 -199.5t-92 -137.5t-153.5 -80t-216 -26h-582v1396h375zM1405 0v1396h390v-1396h-390z" />
    <glyph glyph-name="afii10048" unicode="&#x42e;" horiz-adv-x="2202" 
d="M150 0v1396h390v-535h167q24 130 81.5 234t147.5 176t211.5 110.5t272.5 39.5q168 1 300.5 -51t224.5 -147.5t140.5 -230t47.5 -297.5q-2 -168 -51.5 -302t-141.5 -227t-223.5 -142t-296.5 -48q-150 1 -272.5 39.5t-214 110.5t-150 175t-79.5 232h-164v-533h-390z
M1418 1106q-86 0 -149.5 -32.5t-106.5 -88.5t-64.5 -131t-23.5 -159q-2 -81 20 -154.5t66 -129t109 -88t150 -32.5q77 0 139 30.5t105.5 84.5t66.5 128t23 161q0 83 -22.5 157.5t-65 131t-105 89.5t-142.5 33z" />
    <glyph glyph-name="afii10049" unicode="&#x42f;" horiz-adv-x="1373" 
d="M20 84q52 51 102.5 105.5t96.5 110t86.5 111t73.5 107.5q-54 30 -104 71t-87.5 94t-60 119.5t-22.5 148.5q0 79 22.5 143t62.5 113.5t93.5 85t116 58.5t130 34t134.5 11h561v-1396h-390v408h-96h-5.5t-6.5 1q-36 -64 -84 -135.5t-102.5 -140.5t-111.5 -132t-110 -110z
M835 1092h-156q-38 0 -73 -11t-62 -33.5t-43 -57t-16 -82.5q0 -40 13.5 -75.5t41 -62.5t68.5 -42.5t95 -15.5h132v380z" />
    <glyph glyph-name="afii10050" unicode="&#x490;" horiz-adv-x="1131" 
d="M693 1396v222h393v-537h-546v-1081h-390v1396h543z" />
    <glyph glyph-name="afii10051" unicode="&#x402;" horiz-adv-x="1530" 
d="M-19 1081v315h1123v-315h-362v-196q66 27 143 43t170 16q123 0 207 -29.5t135.5 -81t74.5 -121t23 -150.5v-160q0 -78 -23.5 -154.5t-73.5 -137t-128 -97.5t-187 -37q-75 0 -126.5 11t-83.5 24l46 263l78 -11q34 0 57 11.5t36 30.5t18.5 42.5t5.5 49.5v108q0 25 -8 47.5
t-26.5 39.5t-47.5 27t-71 10q-29 0 -60.5 -6t-61 -16t-55.5 -23t-42 -26v-558h-391v1081h-370z" />
    <glyph glyph-name="afii10052" unicode="&#x403;" horiz-adv-x="1109" 
d="M1086 1396v-315h-546v-1081h-390v1396h936zM486 1613l218 363l273 -149l-314 -318z" />
    <glyph glyph-name="afii10054" unicode="&#x405;" horiz-adv-x="1204" 
d="M145 392q65 -27 119.5 -46.5t103 -31.5t93 -17.5t90.5 -5.5q96 0 142 30.5t46 81.5q0 54 -57 89t-159 61q-101 25 -184.5 57.5t-143.5 79.5t-93 114t-33 163q0 106 33.5 190.5t102.5 143t173.5 89.5t247.5 31q52 0 114 -7.5t126 -23t127 -39t117 -54.5l-112 -263
q-76 32 -163 52t-168 20q-208 0 -208 -106q0 -29 14 -50t42.5 -37t71 -30t99.5 -30q219 -57 330 -157.5t111 -264.5q0 -106 -33 -190t-100 -143t-169 -90.5t-240 -31.5q-87 0 -161.5 9t-141.5 26.5t-129 42.5t-123 57z" />
    <glyph glyph-name="afii10055" unicode="&#x406;" horiz-adv-x="692" 
d="M150 0v1396h390v-1396h-390z" />
    <glyph glyph-name="afii10056" unicode="&#x407;" horiz-adv-x="692" 
d="M150 0v1396h390v-1396h-390zM132 1845q92 0 135 -36t43 -102q0 -65 -41.5 -101t-130.5 -36q-94 0 -137 37t-43 103q0 65 42.5 100t131.5 35zM583 1845q91 0 134.5 -36t43.5 -102q0 -65 -42.5 -101t-130.5 -36q-94 0 -137 37t-43 103q0 65 42.5 100t132.5 35z" />
    <glyph glyph-name="afii10057" unicode="&#x408;" horiz-adv-x="897" 
d="M747 441q0 -115 -21.5 -202t-68 -145.5t-121 -88t-179.5 -29.5q-44 0 -89 5.5t-87.5 14.5t-81.5 21t-72 26l57 281q16 -6 36 -12t41.5 -10.5t43 -7.5t40.5 -3q33 0 54.5 10.5t34 30t17.5 48t5 63.5v953h391v-955z" />
    <glyph glyph-name="afii10058" unicode="&#x409;" horiz-adv-x="2189" 
d="M1610 847q146 0 249 -36t168.5 -94t96 -130t30.5 -144q0 -116 -30.5 -199.5t-92 -137.5t-153.5 -80t-216 -26h-599v1081h-387v-219q0 -76 -5 -171.5t-20 -194t-42.5 -192t-74 -166.5t-114 -117.5t-161.5 -44.5q-31 0 -64.5 2.5t-62 5.5t-48 5.5t-20.5 2.5l-7 276
q20 2 43 2.5t49 2.5q34 3 57.5 40t39 93.5t24 125t12.5 133.5t5 120t1 84v527h1167v-549h155zM1455 277h148q94 0 139.5 37t45.5 115q0 70 -43 111.5t-134 41.5h-156v-305z" />
    <glyph glyph-name="afii10059" unicode="&#x40a;" horiz-adv-x="2179" 
d="M1434 1396v-549h154q146 0 249.5 -36t169 -94t96 -130t30.5 -144q0 -116 -30.5 -199.5t-92 -137.5t-153.5 -80t-216 -26h-597v563h-504v-561h-390v1396h390v-549h504v547h390zM1434 277h148q94 0 139.5 37t45.5 115q0 70 -43 111.5t-134 41.5h-156v-305z" />
    <glyph glyph-name="afii10060" unicode="&#x40b;" horiz-adv-x="1629" 
d="M545 752q47 40 102 75t119.5 61t140.5 41t165 15q123 0 207 -29.5t135.5 -81t74.5 -121t23 -150.5v-562h-381v505q0 25 -8 47.5t-26.5 39.5t-47.5 27t-71 10q-31 0 -65 -7t-65.5 -18.5t-57.5 -25.5t-40 -28zM-4 1081v315h1116v-315h-363v-1081h-390v1081h-363z" />
    <glyph glyph-name="afii10061" unicode="&#x40c;" horiz-adv-x="1444" 
d="M150 0v1396h390v-509q66 58 122.5 116.5t103.5 120.5t86 129.5t71 142.5h421q-30 -80 -72 -161.5t-94 -160.5t-112.5 -154.5t-125.5 -142.5q38 -74 93 -162t120.5 -178t138 -176t146.5 -158l-288 -193q-63 53 -130.5 128.5t-132 161.5t-122 176.5t-98.5 173.5
q-32 -20 -63.5 -37.5t-63.5 -31.5v-481h-390zM576 1589l218 363l273 -149l-314 -318z" />
    <glyph glyph-name="afii10062" unicode="&#x40e;" horiz-adv-x="1417" 
d="M228 19q37 43 73 85t69 84.5t63 87t57 92.5h-4q-84 131 -155.5 259.5t-126.5 274.5q-62 164 -100 284t-54 210h422q7 -90 27.5 -187t55.5 -212q26 -84 64.5 -160t76.5 -149h20q20 36 39 70.5t36.5 70.5t33 75t28.5 83q39 138 58 242.5t27 166.5h423q-15 -95 -53.5 -224.5
t-106.5 -291.5q-35 -82 -69.5 -152.5t-69 -133t-68.5 -118.5t-66 -108q-18 -33 -42 -74t-51.5 -86.5t-57.5 -92.5t-60.5 -93t-60 -88.5t-56.5 -77.5zM721 1510q-76 0 -130 14.5t-91.5 38t-60.5 53.5t-37 60.5t-21 59t-12 49.5l214 41q6 -23 13.5 -45t22 -38.5t39 -26.5
t64.5 -10t63.5 10t37 26.5t20.5 38t14 44.5l215 -40q-5 -21 -12 -49.5t-21 -59t-37 -60.5t-60.5 -53.5t-91.5 -38t-129 -14.5z" />
    <glyph glyph-name="afii10065" unicode="&#x430;" horiz-adv-x="1215" 
d="M45 487q0 149 40 257t116.5 178.5t187.5 104.5t254 34q62 0 126 -9.5t124 -25t113.5 -35.5t95.5 -42v-949h-329l-40 110q-18 -18 -46 -41t-64.5 -44t-82 -35t-98.5 -14q-95 0 -168.5 36t-124.5 102.5t-77.5 161t-26.5 211.5zM410 509q0 -65 14 -110t37.5 -73.5t54.5 -41
t66 -12.5q42 0 80.5 15.5t66.5 36.5v420q-14 5 -47 12.5t-83 7.5q-44 0 -78.5 -14.5t-59.5 -45t-38 -79t-13 -116.5z" />
    <glyph glyph-name="afii10066" unicode="&#x431;" horiz-adv-x="1208" 
d="M48 657q0 217 50 368t135 245.5t196 138.5t234 48q70 2 119.5 5t87.5 9t69 16.5t63 27.5l107 -275q-66 -43 -162.5 -66t-227.5 -30q-66 -5 -113 -22.5t-79 -47t-51 -69t-28 -87.5q59 41 124 57t139 16q112 0 194 -42t136 -112.5t80.5 -163.5t26.5 -194
q0 -111 -34.5 -203.5t-103 -159t-171.5 -103.5t-239 -37q-153 0 -258.5 46t-171 134t-94 214t-28.5 287zM433 611q-1 -7 -2 -18t-2 -23t-1.5 -23.5t-0.5 -19.5q0 -121 45.5 -188t134.5 -67q42 0 75 14.5t56 40.5t35 61t12 76q0 42 -11 81t-32.5 69t-54.5 48.5t-76 18.5
q-29 0 -52 -4.5t-43.5 -13.5t-40.5 -22t-42 -30z" />
    <glyph glyph-name="afii10067" unicode="&#x432;" horiz-adv-x="1193" 
d="M115 0v1028h606q78 0 144.5 -17.5t115 -51.5t76 -85t27.5 -118q0 -45 -14.5 -79.5t-37 -60t-50 -43.5t-53.5 -29v-7q42 -12 77 -35t61 -55t40.5 -72.5t14.5 -88.5q0 -66 -23.5 -119t-70 -90t-115.5 -57t-160 -20h-638zM488 247h157q46 0 75.5 17t29.5 65q0 23 -8 39
t-22 25.5t-33.5 13.5t-42.5 4h-156v-164zM488 642h139q22 0 42 4t35 13t23.5 24t8.5 38t-9 37t-24 21.5t-35.5 10t-43.5 2.5h-136v-150z" />
    <glyph glyph-name="afii10068" unicode="&#x433;" horiz-adv-x="974" 
d="M930 1028v-296h-442v-732h-373v1028h815z" />
    <glyph glyph-name="afii10070" unicode="&#x435;" horiz-adv-x="1170" 
d="M454 375q12 -22 28.5 -42t43.5 -35.5t68 -25t103 -9.5q77 0 145.5 21t127.5 50l99 -242q-87 -54 -195 -85t-227 -31q-136 0 -242 32.5t-178.5 99t-110.5 168t-38 238.5q0 139 40.5 242t114 171t175.5 101t224 33q111 0 197 -30.5t144.5 -81t88.5 -115t30 -132.5
q0 -57 -17 -115t-60.5 -105.5t-119.5 -77t-194 -29.5h-247zM613 766q-35 0 -63 -11.5t-48.5 -32t-33.5 -47.5t-17 -57h185q42 0 66.5 15.5t24.5 47.5q0 23 -9 39.5t-25 26.5t-36.5 14.5t-43.5 4.5z" />
    <glyph glyph-name="afii10071" unicode="&#x451;" horiz-adv-x="1170" 
d="M454 375q12 -22 28.5 -42t43.5 -35.5t68 -25t103 -9.5q77 0 145.5 21t127.5 50l99 -242q-87 -54 -195 -85t-227 -31q-136 0 -242 32.5t-178.5 99t-110.5 168t-38 238.5q0 139 40.5 242t114 171t175.5 101t224 33q111 0 197 -30.5t144.5 -81t88.5 -115t30 -132.5
q0 -57 -17 -115t-60.5 -105.5t-119.5 -77t-194 -29.5h-247zM613 766q-35 0 -63 -11.5t-48.5 -32t-33.5 -47.5t-17 -57h185q42 0 66.5 15.5t24.5 47.5q0 23 -9 39.5t-25 26.5t-36.5 14.5t-43.5 4.5zM397 1438q92 0 135 -36t43 -102q0 -65 -41.5 -101t-130.5 -36
q-94 0 -137 37t-43 103q0 65 42.5 100t131.5 35zM848 1438q91 0 134.5 -36t43.5 -102q0 -65 -42.5 -101t-130.5 -36q-94 0 -137 37t-43 103q0 65 42.5 100t132.5 35z" />
    <glyph glyph-name="afii10072" unicode="&#x436;" horiz-adv-x="1954" 
d="M1841 1028q-52 -146 -136 -258t-179 -196q31 -64 79.5 -134t102.5 -136t107.5 -124.5t95.5 -99.5l-270 -174q-47 33 -102.5 88t-110.5 120t-104 135t-82 134q-43 -23 -79 -38v-345h-374v345q-19 8 -39 17.5t-41 20.5q-33 -64 -81.5 -134t-103.5 -135t-111 -120t-102 -88
l-270 174q42 41 95.5 99.5t107.5 125t102 136t79 134.5q-96 84 -179 195.5t-135 257.5h387q22 -51 51.5 -99.5t66 -92.5t79.5 -81t94 -65v338h374v-338q51 28 94 65t79.5 81t65.5 92.5t52 99.5h387v0z" />
    <glyph glyph-name="afii10074" unicode="&#x438;" 
d="M784 0l8 429h-7q-39 -41 -79 -96t-82 -113.5t-87 -116t-94 -103.5h-329v1028h355l-7 -464h6q47 53 89 115t82.5 124t81 120.5t84.5 104.5h327v-1028h-348z" />
    <glyph glyph-name="afii10075" unicode="&#x439;" horiz-adv-x="1278" 
d="M784 0l8 429h-7q-39 -41 -79 -96t-82 -113.5t-87 -116t-94 -103.5h-329v1028h355l-7 -464h6q47 53 89 115t82.5 124t81 120.5t84.5 104.5h327v-1028h-348zM650 1126q-76 0 -130 14.5t-91.5 38t-60.5 53.5t-37 60.5t-21 59t-12 49.5l214 41q6 -23 13.5 -45t22 -38.5
t39 -26.5t64.5 -10t63.5 10t37 26.5t20.5 38t14 44.5l215 -40q-5 -21 -12 -49.5t-21 -59t-37 -60.5t-60.5 -53.5t-91.5 -38t-129 -14.5z" />
    <glyph glyph-name="afii10076" unicode="&#x43a;" horiz-adv-x="1257" 
d="M1166 1028q-52 -146 -135.5 -257.5t-178.5 -195.5q31 -65 79 -134.5t102 -136t107.5 -125t95.5 -99.5l-270 -174q-47 33 -102.5 88t-110.5 120t-103.5 135t-81.5 134q-22 -11 -42 -20.5t-38 -17.5v-345h-373v1028h373v-338q51 28 94.5 65t80 81t65.5 92.5t51 99.5h387v0z
" />
    <glyph glyph-name="afii10077" unicode="&#x43b;" horiz-adv-x="1361" 
d="M871 731h-261v-38q0 -58 -8.5 -134t-27.5 -155.5t-49.5 -156.5t-74.5 -137t-102 -97t-133 -37q-30 0 -63.5 2.5t-61 5.5t-46.5 5.5t-21 2.5l-5 269q20 1 41 -0.5t47 2.5q34 6 57.5 46.5t38.5 100.5t22.5 131t11.5 138t4.5 122.5t1.5 84.5v142h1002v-1028h-373v731z" />
    <glyph glyph-name="afii10069" unicode="&#x434;" horiz-adv-x="1373" 
d="M88 296q52 43 81.5 111.5t43.5 147.5t17.5 161t3.5 153v159h953v-732h111v-467h-374v171h-528v-171h-373v467h65zM594 682q0 -95 -22.5 -196.5t-73.5 -189.5h316v435h-220v-49z" />
    <glyph glyph-name="afii10080" unicode="&#x43e;" horiz-adv-x="1255" 
d="M78 518q0 124 37.5 224t108 171t172.5 109.5t230 38.5q124 0 226 -36.5t174.5 -106t112 -170t39.5 -229.5q0 -128 -38 -229t-109 -171t-173 -106.5t-230 -36.5t-230 36t-173 105.5t-109 170.5t-38 230zM443 519q0 -69 14 -116.5t38.5 -76.5t59 -41.5t75.5 -12.5
q40 0 74 13t58 42t37.5 76.5t13.5 116.5q0 67 -13.5 113.5t-38 75.5t-58.5 42t-74 13q-41 0 -75 -13.5t-58.5 -43t-38.5 -76t-14 -112.5z" />
    <glyph glyph-name="afii10082" unicode="&#x440;" horiz-adv-x="1249" 
d="M115 888q33 26 92.5 56t132 55.5t152 42.5t153.5 17q145 0 244 -33.5t160 -100.5t87.5 -167.5t26.5 -233.5q0 -67 -10 -134t-31.5 -128t-55 -113t-81 -90.5t-110 -60.5t-141.5 -22q-44 0 -79 3.5t-65 9t-55 12.5t-47 14v-422h-373v1295zM488 288q21 -6 50 -11t77 -5
q94 0 142.5 61.5t48.5 182.5q0 68 -11 114t-33 74.5t-54.5 40.5t-74.5 12q-43 0 -82 -14t-63 -28v-427z" />
    <glyph glyph-name="afii10083" unicode="&#x441;" horiz-adv-x="1058" 
d="M78 523q0 123 34.5 222.5t100.5 169.5t162 108t219 38q100 0 197.5 -24t191.5 -78l-95 -240q-24 10 -47 18.5t-47.5 14.5t-51.5 9t-60 3q-239 0 -239 -250q0 -67 19.5 -113.5t52 -75t74.5 -41.5t87 -13q61 0 112.5 13t98.5 33l97 -240q-39 -21 -81 -39t-90 -32
t-104.5 -22t-125.5 -8q-141 0 -237.5 47t-156 124t-85.5 175.5t-26 200.5z" />
    <glyph glyph-name="afii10084" unicode="&#x442;" horiz-adv-x="1054" 
d="M4 732v296h1038v-296h-329v-732h-373v732h-336z" />
    <glyph glyph-name="afii10085" unicode="&#x443;" horiz-adv-x="1221" 
d="M180 -349q75 86 139 169t118 180h-45q-69 113 -128.5 246t-105 270t-77 269t-45.5 243l399 10q7 -86 21 -180.5t35 -189t48.5 -186t62.5 -170.5h20q25 48 46 110.5t38.5 131.5t31.5 139.5t24 135t16 119t8 90.5l400 -10q-6 -70 -24 -157.5t-45 -183.5t-61 -194t-71 -189
t-76 -169.5t-75 -134.5q-27 -50 -65.5 -116t-82.5 -136.5t-89.5 -138.5t-85.5 -121z" />
    <glyph glyph-name="afii10087" unicode="&#x445;" horiz-adv-x="1208" 
d="M46 0q12 38 24 73t26.5 70.5t32.5 72.5t42 79q25 46 48.5 80.5t46 61.5t43.5 48.5t41 42.5q-48 60 -95 114t-82 119q-44 81 -69.5 144t-39.5 123l404 7q8 -38 18 -78.5t27 -82.5q20 -53 42 -86t43 -60h9q25 33 44.5 66.5t39.5 78.5q17 40 28 83t17 79l404 -7
q-9 -34 -18 -64t-21 -60.5t-29 -65t-41 -78.5t-47.5 -76t-45.5 -57.5t-43 -48.5t-42 -48q19 -20 41.5 -45t46 -54t45.5 -60.5t41 -64.5q29 -53 48 -91t33 -71.5t25 -67t25 -76.5l-403 -7q-8 37 -19.5 77t-37.5 97q-10 22 -22 47.5t-24 49t-24 43t-21 30.5h-8q-9 -11 -21 -30
t-24.5 -41.5t-25.5 -48t-23 -49.5q-14 -34 -23.5 -59.5t-15.5 -45.5t-10 -37t-7 -33z" />
    <glyph glyph-name="afii10078" unicode="&#x43c;" horiz-adv-x="1606" 
d="M79 0q2 66 4.5 124.5t6 115.5t7.5 115t9 122q7 81 15 158.5t16 148t16.5 132.5t15.5 112h478l146 -497h21l145 497h480q14 -103 31.5 -240.5t30.5 -310.5q6 -74 10.5 -138t8 -122.5t5.5 -112t4 -104.5h-382q0 38 -3.5 103t-7.5 148q-6 103 -13.5 178t-13.5 108h-15
l-163 -521h-255l-163 521h-16q-3 -17 -6.5 -47.5t-7 -69t-7 -82t-5.5 -85.5q-2 -48 -4 -84.5t-3 -66t-2 -54t-2 -48.5h-381z" />
    <glyph glyph-name="afii10079" unicode="&#x43d;" horiz-adv-x="1358" 
d="M115 0v1028h374v-365h381v365h373v-1028h-373v367h-381v-367h-374z" />
    <glyph glyph-name="afii10081" unicode="&#x43f;" horiz-adv-x="1358" 
d="M1243 0h-373v732h-381v-732h-374v1028h1128v-1028z" />
    <glyph glyph-name="afii10086" unicode="&#x444;" horiz-adv-x="1634" 
d="M630 -455v442q-30 -5 -63.5 -8t-68.5 -3q-95 0 -175 43t-139 117t-92 172.5t-33 210.5q0 109 31.5 207.5t89.5 172.5t140.5 118t184.5 44q36 0 67.5 -3t57.5 -8v383h374v-383q26 5 57 8t67 3q102 0 184.5 -44t140.5 -118t89.5 -172.5t31.5 -207.5q0 -112 -33 -210.5
t-91.5 -172.5t-139 -117t-174.5 -43q-36 0 -69 3t-63 8v-442h-374zM567 276q34 0 63 3v479q-32 3 -65 3q-30 0 -58 -15.5t-50 -45.5t-35 -75t-13 -105t12.5 -106t33.5 -76.5t50 -46t62 -15.5zM1068 761q-34 0 -64 -3v-479q27 -3 62 -3q33 0 62 15.5t50.5 46t34 76.5
t12.5 106t-13.5 105t-35 75t-50 45.5t-58.5 15.5z" />
    <glyph glyph-name="afii10088" unicode="&#x446;" horiz-adv-x="1368" 
d="M489 296h366v732h373v-730h106v-468h-373v170h-846v1028h374v-732z" />
    <glyph glyph-name="afii10089" unicode="&#x447;" horiz-adv-x="1204" 
d="M714 0v364q-42 -40 -111 -68.5t-158 -28.5q-101 0 -173.5 36t-119 97.5t-68 142t-21.5 169.5v316h373v-296q0 -53 11.5 -86t30.5 -51.5t43.5 -25t51.5 -6.5q45 0 81.5 15.5t59.5 35.5v414h373v-1028h-373z" />
    <glyph glyph-name="afii10090" unicode="&#x448;" horiz-adv-x="1739" 
d="M489 288h202v740h365v-740h194v740h374v-1028h-1509v1028h374v-740z" />
    <glyph glyph-name="afii10091" unicode="&#x449;" horiz-adv-x="1774" 
d="M1730 -170h-374v170h-1241v1028h374v-740h201v740h366v-740h194v740h374v-740h106v-458z" />
    <glyph glyph-name="afii10092" unicode="&#x44a;" horiz-adv-x="1260" 
d="M38 1028h598v-354h184q105 0 179 -32t120.5 -83t68 -115t21.5 -127q0 -75 -26.5 -134t-76 -99.5t-120.5 -62t-160 -21.5h-563v732h-225v296zM636 233h103q57 0 85 25t28 81q0 54 -27 83t-90 29h-99v-218z" />
    <glyph glyph-name="afii10094" unicode="&#x44c;" horiz-adv-x="1123" 
d="M488 233h98q63 0 90 25t27 82q0 54 -27.5 82.5t-94.5 28.5h-93v-218zM488 1028v-354h193q94 0 165.5 -29.5t119 -78.5t71.5 -112.5t24 -132.5q0 -78 -28 -138t-78.5 -100.5t-121 -61.5t-154.5 -21h-564v1028h373z" />
    <glyph glyph-name="afii10093" unicode="&#x44b;" horiz-adv-x="1704" 
d="M488 233h98q63 0 90 25t27 82q0 54 -27.5 82.5t-94.5 28.5h-93v-218zM488 1028v-354h193q94 0 165.5 -29.5t119 -78.5t71.5 -112.5t24 -132.5q0 -78 -28 -138t-78.5 -100.5t-121 -61.5t-154.5 -21h-564v1028h373zM1215 0v1028h374v-1028h-374z" />
    <glyph glyph-name="afii10096" unicode="&#x44e;" horiz-adv-x="1763" 
d="M115 0v1028h373v-350h173q19 81 58 150.5t99 121.5t141.5 81.5t185.5 29.5q124 0 225.5 -38.5t174 -109t112 -170.5t39.5 -224q0 -125 -37 -225.5t-107 -171t-171 -108.5t-229 -38q-103 0 -185 27.5t-143 77t-101.5 118.5t-60.5 151h-174v-350h-373zM962 519
q0 -65 14 -111.5t38.5 -76.5t58.5 -44.5t75 -14.5t75 15t58 45.5t37.5 77t13.5 110.5q0 61 -13.5 107t-38 76.5t-58.5 45.5t-74 15q-41 0 -75 -15.5t-58.5 -46t-38.5 -76.5t-14 -107z" />
    <glyph glyph-name="afii10098" unicode="&#x491;" horiz-adv-x="968" 
d="M557 1028v172h373v-468h-442v-732h-373v1028h442z" />
    <glyph glyph-name="afii10102" unicode="&#x455;" horiz-adv-x="1015" 
d="M139 347q78 -39 158.5 -60t155.5 -21q28 0 52.5 4.5t42.5 12t28.5 18.5t10.5 23q0 13 -15 21.5t-43 17t-68.5 19t-90.5 26.5q-62 19 -115.5 45t-93 63.5t-62 91t-22.5 128.5q0 90 38.5 152t101 100.5t140.5 55.5t156 17q143 0 244.5 -28.5t172.5 -67.5l-91 -250
q-73 27 -136 39.5t-114 12.5q-30 0 -56.5 -3t-46.5 -9.5t-32 -16.5t-12 -24q0 -15 18.5 -24.5t48 -17.5t65.5 -15.5t72 -18.5q155 -47 228 -127t73 -205q0 -90 -37 -153t-98 -102t-139.5 -57t-161.5 -18q-89 0 -163.5 11t-133.5 27.5t-101.5 35.5t-67.5 34z" />
    <glyph glyph-name="afii10103" unicode="&#x456;" horiz-adv-x="604" 
d="M115 0v1028h374v-1028h-374zM301 1494q111 0 163 -44t52 -123q0 -78 -51 -121.5t-160 -43.5q-112 0 -165 44.5t-53 123.5q0 80 52.5 122t161.5 42z" />
    <glyph glyph-name="afii10104" unicode="&#x457;" horiz-adv-x="604" 
d="M115 0v1028h374v-1028h-374zM78 1447q92 0 135 -36t43 -102q0 -65 -41.5 -101t-130.5 -36q-94 0 -137 37t-43 103q0 65 42.5 100t131.5 35zM529 1447q91 0 134.5 -36t43.5 -102q0 -65 -42.5 -101t-130.5 -36q-94 0 -137 37t-43 103q0 65 42.5 100t132.5 35z" />
    <glyph glyph-name="afii10105" unicode="&#x458;" horiz-adv-x="604" 
d="M-185 -131q58 -16 101.5 -25t82.5 -8q35 0 57.5 14t36 35t18.5 47t5 52v1044h373v-1050q0 -79 -22.5 -156t-73.5 -138t-133.5 -98.5t-203.5 -37.5q-43 0 -85 5.5t-80.5 14.5t-73 20t-62.5 22zM303 1494q111 0 163.5 -44t52.5 -123q0 -78 -51.5 -121.5t-160.5 -43.5
q-112 0 -164.5 44.5t-52.5 123.5q0 80 52 122t161 42z" />
    <glyph glyph-name="afii10100" unicode="&#x453;" horiz-adv-x="977" 
d="M930 1028v-296h-442v-732h-373v1028h815zM381 1238l218 363l273 -149l-314 -318z" />
    <glyph glyph-name="afii10099" unicode="&#x452;" 
d="M690 1127h-203v-94q56 13 114 20.5t116 7.5q123 0 205.5 -32t133 -86t72 -126t21.5 -153v-664q0 -78 -22.5 -154.5t-73.5 -137t-133.5 -97.5t-202.5 -37q-44 0 -86 5.5t-80.5 14.5t-73.5 20t-63 22l62 259q58 -16 100.5 -25t82.5 -9q35 0 57.5 14t36 35t18.5 47.5t5 52.5
v611q0 23 -5 46t-17 41.5t-32.5 30t-52.5 11.5q-24 0 -49.5 -5t-49.5 -13t-45.5 -17.5t-37.5 -18.5v-696h-373v1127h-136v232h136v74h373v-74h203v-232z" />
    <glyph glyph-name="afii10108" unicode="&#x45b;" horiz-adv-x="1260" 
d="M125 1456h373v-474l44 22t60.5 26t76.5 22t92 9q81 0 151.5 -26t123.5 -76.5t83.5 -125.5t30.5 -173v-660h-372v605q0 19 -2.5 46t-14 52t-35.5 42.5t-66 17.5q-22 0 -46.5 -5.5t-48.5 -14t-44 -18.5t-33 -18v-707h-373v1456zM775 1127h-713v232h713v-232z" />
    <glyph glyph-name="afii10106" unicode="&#x459;" horiz-adv-x="1902" 
d="M1465 674q94 0 165 -29.5t119 -78.5t72 -112.5t24 -132.5q0 -78 -28 -138t-79 -100.5t-121.5 -61.5t-154.5 -21h-564v731h-276v-38q0 -58 -7.5 -134t-24.5 -155.5t-45.5 -156.5t-70.5 -137t-99.5 -97t-131.5 -37q-31 0 -64 2.5t-61 5.5t-47 5.5t-20 2.5l-5 269
q20 1 40.5 -0.5t46.5 2.5q35 6 58.5 46.5t38.5 100.5t22.5 131t11.5 138t4.5 122.5t1.5 84.5v142h1002v-354h193zM1272 233h96q64 0 91.5 25t27.5 82q0 54 -27.5 82.5t-95.5 28.5h-92v-218z" />
    <glyph glyph-name="afii10107" unicode="&#x45a;" horiz-adv-x="1868" 
d="M1243 1028v-354h193q94 0 165 -29.5t119 -78.5t72 -112.5t24 -132.5q0 -78 -28 -138t-78.5 -100.5t-120.5 -61.5t-155 -21h-564v367h-381v-367h-374v1028h374v-365h381v365h373zM1243 233h97q64 0 91.5 25t27.5 82q0 54 -28 82.5t-95 28.5h-93v-218z" />
    <glyph glyph-name="afii10109" unicode="&#x45c;" horiz-adv-x="1250" 
d="M1166 1028q-52 -146 -135.5 -257.5t-178.5 -195.5q31 -65 79 -134.5t102 -136t107.5 -125t95.5 -99.5l-270 -174q-47 33 -102.5 88t-110.5 120t-103.5 135t-81.5 134q-22 -11 -42 -20.5t-38 -17.5v-345h-373v1028h373v-338q51 28 94.5 65t80 81t65.5 92.5t51 99.5h387v0z
M524 1221l218 363l273 -149l-314 -318z" />
    <glyph glyph-name="afii10110" unicode="&#x45e;" horiz-adv-x="1221" 
d="M180 -349q75 86 139 169t118 180h-45q-69 113 -128.5 246t-105 270t-77 269t-45.5 243l399 10q7 -86 21 -180.5t35 -189t48.5 -186t62.5 -170.5h20q25 48 46 110.5t38.5 131.5t31.5 139.5t24 135t16 119t8 90.5l400 -10q-6 -70 -24 -157.5t-45 -183.5t-61 -194t-71 -189
t-76 -169.5t-75 -134.5q-27 -50 -65.5 -116t-82.5 -136.5t-89.5 -138.5t-85.5 -121zM623 1158q-76 0 -130 14.5t-91.5 38t-60.5 53.5t-37 60.5t-21 59t-12 49.5l214 41q6 -23 13.5 -45t22 -38.5t39 -26.5t64.5 -10t63.5 10t37 26.5t20.5 38t14 44.5l215 -40
q-5 -21 -12 -49.5t-21 -59t-37 -60.5t-60.5 -53.5t-91.5 -38t-129 -14.5z" />
    <glyph glyph-name="afii10053" unicode="&#x404;" horiz-adv-x="1303" 
d="M460 558q14 -72 44.5 -122.5t75 -82.5t102.5 -47t128 -15q48 0 92.5 7.5t85.5 20t78 28t70 31.5l112 -262q-45 -29 -105.5 -54.5t-128 -44.5t-138 -30t-134.5 -11q-91 0 -176.5 14t-160.5 46.5t-137 85.5t-106.5 131.5t-69 185t-24.5 245.5q0 141 24.5 250.5t69 191.5
t106.5 138.5t137 91t160.5 50t176.5 15.5q72 0 144 -11.5t139 -31t124 -45t99 -53.5l-110 -262q-68 34 -150 61t-178 27q-69 0 -125.5 -14.5t-100 -45t-74 -79t-45.5 -116.5h458v-293h-463z" />
    <glyph glyph-name="afii10047" unicode="&#x42d;" horiz-adv-x="1314" 
d="M393 851h457q-16 68 -46 116.5t-73.5 79t-100 45t-125.5 14.5q-96 0 -178 -27t-149 -61l-111 262q42 28 99 53.5t124 45t139 31t144 11.5q91 0 177 -15.5t160.5 -50t136.5 -91t106.5 -138.5t69 -191.5t24.5 -250.5q0 -139 -24.5 -245.5t-69 -185t-106.5 -131.5
t-136.5 -85.5t-160.5 -46.5t-177 -14q-65 0 -135 11t-137.5 30t-128 44.5t-105.5 54.5l112 262q33 -16 70 -31.5t78 -28t85.5 -20t92.5 -7.5q70 0 128 15t102.5 47t74.5 82.5t44 122.5h-461v293z" />
    <glyph glyph-name="afii10097" unicode="&#x44f;" horiz-adv-x="1141" 
d="M107 654q0 76 20.5 133t55.5 98.5t82 69t99 44t106.5 23t105.5 6.5h449v-1028h-358v272h16q-12 -1 -43 0t-73.5 6t-93.5 15.5t-102 29t-98.5 46.5t-84.5 68.5t-59 94t-22 122.5zM667 755h-124q-56 0 -81 -27.5t-25 -69.5q0 -15 5 -33t17 -33.5t31 -25.5t46 -10h131v199z
M54 81q51 46 96 90.5t85.5 91t77.5 96.5t73 108l275 -124q-10 -27 -30.5 -64t-48.5 -78.5t-60.5 -84.5t-66 -83t-66 -73.5t-59.5 -54.5z" />
    <glyph glyph-name="afii10101" unicode="&#x454;" horiz-adv-x="1027" 
d="M59 523q0 135 34.5 235.5t100.5 168t162 101t219 33.5q100 0 195 -15t179 -58l-81 -269q-35 12 -86 25t-110 13q-96 0 -148 -26.5t-80 -75.5h315v-269h-312q33 -54 89 -77t134 -23q62 0 111.5 13t86.5 26l82 -277q-63 -35 -156 -53.5t-230 -18.5q-141 0 -238 43t-156 117
t-85 173.5t-26 213.5z" />
    <glyph glyph-name="afii10095" unicode="&#x44d;" horiz-adv-x="1009" 
d="M950 523q0 -114 -26 -213.5t-85 -173.5t-156 -117t-238 -43q-137 0 -230 18.5t-156 53.5l82 277q37 -13 86.5 -26t111.5 -13q78 0 134 23t89 77h-312v269h315q-28 49 -80 75.5t-148 26.5q-59 0 -110 -13t-86 -25l-81 269q84 43 179 58t195 15q123 0 219 -33.5t162 -101
t100.5 -168t34.5 -235.5z" />
    <glyph glyph-name="afii10073" unicode="&#x437;" horiz-adv-x="916" 
d="M41 973q66 42 163 65.5t209 23.5q102 0 179 -20t128 -56.5t77 -88t26 -114.5q0 -86 -41 -144.5t-120 -89.5q38 -16 71.5 -36.5t58 -49.5t38.5 -70.5t14 -99.5q0 -89 -37.5 -149t-98 -97t-138 -53.5t-158.5 -17.5q-99 -2 -199 21t-180 67l86 257q31 -12 56.5 -21.5t52 -16
t57 -9.5t71.5 -3q23 0 45 2.5t39.5 9t28 17t10.5 27.5q0 9 -5 19.5t-16 18.5t-30 13.5t-46 5.5h-170v264h153q47 0 71 11.5t24 49.5q0 26 -23 41.5t-85 15.5q-21 0 -45 -1.5t-51.5 -7t-59.5 -15.5t-70 -27z" />
    <glyph glyph-name="napostrophe" unicode="&#x149;" horiz-adv-x="1646" 
d="M512 881q44 30 108 61.5t142.5 58t168 43.5t184.5 17q122 0 205.5 -32t134.5 -86t73 -126t22 -153v-664h-374v629q0 22 -5 45t-18 41.5t-34 30t-53 11.5q-23 0 -48.5 -4.5t-49.5 -12t-45.5 -16.5t-37.5 -17v-707h-373v881zM182 1095q115 0 169 -45.5t54 -126.5v-8
q1 -77 -17.5 -152t-49.5 -143t-72 -126t-85 -100l-157 73q18 34 34.5 73t31 78t24.5 74.5t14 64.5q-91 11 -128 55t-37 116q0 80 53.5 123.5t165.5 43.5z" />
    <glyph glyph-name="lcommaaccent" unicode="&#x13c;" horiz-adv-x="604" 
d="M115 0v1456h373v-1456h-373zM254 -39q115 0 169 -45.5t54 -126.5v-8q1 -77 -17.5 -152t-49.5 -143t-72 -126t-85 -100l-157 73q18 34 34.5 73t31 78t24.5 74.5t14 64.5q-91 11 -128 55t-37 116q0 80 53.5 123.5t165.5 43.5z" />
    <glyph glyph-name="g.end" horiz-adv-x="1227" 
d="M57 487q0 152 41.5 260.5t119.5 178.5t189.5 102.5t251.5 32.5q59 0 122 -9.5t123.5 -25t114.5 -36t94 -41.5v-913q0 -112 -31 -203.5t-94 -156t-158 -100t-223 -35.5q-127 0 -242.5 24.5t-215.5 73.5l82 230q72 -25 141 -36t145 -11q57 0 99 11t69.5 36t41 65.5
t13.5 98.5v65q-17 -16 -42.5 -34.5t-58.5 -35t-71.5 -27.5t-80.5 -11q-99 0 -179 34t-135.5 97.5t-85.5 156t-30 209.5zM422 509q0 -65 14 -107.5t38 -68t56.5 -36t69.5 -10.5q42 0 80 14.5t60 32.5v409q-14 6 -47.5 13.5t-76.5 7.5q-42 0 -78 -13t-61.5 -43t-40 -78.5
t-14.5 -120.5z" />
    <glyph glyph-name="a.alt1000" horiz-adv-x="1129" 
d="M130 959q31 16 70 34t88.5 33t112.5 25t143 10q54 0 109.5 -6t107.5 -23t97.5 -47t79.5 -78.5t53.5 -117t19.5 -162.5l6 -627h-342l-21 94q-15 -16 -42.5 -36.5t-63.5 -38.5t-79 -30.5t-88 -12.5q-72 0 -132.5 20.5t-104.5 60.5t-69 98.5t-25 134.5q0 64 19 111.5
t50 81.5t71.5 56.5t84 36.5t86.5 21t80 11l203 21v42q0 45 -44 69t-132 24q-57 0 -121.5 -14t-121.5 -34zM644 451l-130 -14q-21 -2 -41 -10t-36.5 -21.5t-26.5 -33t-10 -44.5q0 -32 8.5 -53.5t23.5 -35t35.5 -19t44.5 -5.5q22 0 43 6t38.5 15t30.5 18.5t20 16.5v180z" />
    <glyph glyph-name="ae.alt1000" horiz-adv-x="1564" 
d="M130 959q31 16 70 34t88.5 33t112.5 25t143 10q42 0 84.5 -3.5t84.5 -12.5t81 -25t73 -41q69 42 153.5 62t182.5 20q111 0 198.5 -30.5t147.5 -81t91.5 -115t31.5 -132.5q0 -57 -18.5 -107.5t-62 -88t-115 -59.5t-177.5 -22h-286v-25q8 -35 24.5 -62t44 -45t67.5 -27.5
t96 -9.5q45 0 84 4.5t75 12.5t70 18.5t68 22.5l85 -222q-44 -27 -96 -48.5t-109 -36.5t-117.5 -23t-119.5 -8q-111 0 -199 24h-311l-21 94q-15 -16 -42.5 -36.5t-63.5 -38.5t-79 -30.5t-88 -12.5q-72 0 -132.5 20.5t-104.5 60.5t-69 98.5t-25 134.5q0 64 19 111.5t50 81.5
t71.5 56.5t84 36.5t86.5 21t80 11l203 21v42q0 45 -44 69t-132 24q-57 0 -121.5 -14t-121.5 -34zM1194 802q-46 0 -78.5 -16t-53.5 -41.5t-33 -58.5t-18 -66v-14h212q56 0 85 20t29 63q0 53 -37.5 83t-105.5 30zM644 451l-130 -14q-21 -2 -41 -10t-36.5 -21.5t-26.5 -33
t-10 -44.5q0 -32 8.5 -53.5t23.5 -35t35.5 -19t44.5 -5.5q22 0 43 6t38.5 15t30.5 18.5t20 16.5v180z" />
    <glyph glyph-name="e.1000" horiz-adv-x="1170" 
d="M441 425q6 -41 21 -72.5t43 -53t70 -32.5t102 -11q45 0 84 4.5t75 12.5t69.5 18.5t68.5 22.5l84 -222q-43 -27 -95 -48.5t-109 -36.5t-117.5 -23t-119.5 -8q-136 0 -237 36t-168 104.5t-100.5 168.5t-33.5 229q0 143 41 246.5t115 170t176 98.5t224 32q112 0 199.5 -30.5
t147.5 -81t91.5 -115t31.5 -132.5q0 -57 -18.5 -107.5t-62 -88t-115 -59.5t-177.5 -22h-290zM626 802q-49 0 -82 -17.5t-54.5 -46t-33 -63.5t-16.5 -69h215q56 0 85 20t29 63q0 53 -37.5 83t-105.5 30z" />
    <glyph glyph-name="afii10067.1000" horiz-adv-x="1193" 
d="M115 0v1028h606q78 0 144.5 -17.5t115 -51.5t76 -85t27.5 -118q0 -45 -14.5 -79.5t-37 -60t-50 -43.5t-53.5 -29v-7q42 -12 77 -35t61 -55t40.5 -72.5t14.5 -88.5q0 -66 -23.5 -119t-70 -90t-115.5 -57t-160 -20h-638zM488 240h149q46 0 72 21t26 69q0 46 -26 67.5
t-73 21.5h-148v-179zM488 634h132q45 0 73 21.5t28 64.5q0 45 -29.5 62t-74.5 17h-129v-165z" />
    <glyph glyph-name="afii10073.1000" horiz-adv-x="916" 
d="M41 973q66 42 163 65.5t209 23.5q102 0 179 -20t128 -56.5t77 -88t26 -114.5q0 -86 -41 -144.5t-120 -89.5q38 -16 71.5 -36.5t58 -49.5t38.5 -70.5t14 -99.5q0 -89 -37.5 -149t-98 -97t-138 -53.5t-158.5 -17.5q-99 -2 -199 21t-180 67l86 228q31 -13 56.5 -22.5
t52 -15.5t57 -9t71.5 -3q23 0 46.5 4.5t42 15t30.5 27t12 40.5q0 33 -25 58.5t-80 25.5h-170v205l153 1q47 0 74.5 17t27.5 62q0 37 -26 60t-89 23q-21 0 -45 -1.5t-51.5 -7t-59.5 -15.5t-70 -27z" />
    <glyph glyph-name="afii10095.1000" horiz-adv-x="1009" 
d="M950 523q0 -114 -26 -213.5t-85 -173.5t-156 -117t-238 -43q-137 0 -230 18.5t-156 53.5l82 244q18 -6 37 -13t40 -13t45.5 -9.5t55.5 -3.5q46 0 88.5 7t78 25t61.5 49t40 78h-337v216h339q-11 46 -32 77t-54.5 50t-79.5 27t-106 8q-59 0 -100 -13t-76 -26l-81 237
q84 43 179 58t195 15q123 0 219 -33.5t162 -101t100.5 -168t34.5 -235.5z" />
    <glyph glyph-name="g.alt1000" horiz-adv-x="1139" 
d="M109 633q0 100 36.5 179t99.5 134.5t148 85t183 29.5t184 -30q35 27 84.5 49.5t113.5 22.5q78 0 123.5 -13.5t64.5 -24.5l-42 -196q-15 3 -33 5.5t-47 2.5q-25 0 -47 -8q32 -48 50 -106.5t18 -128.5q0 -104 -36 -180.5t-99 -126.5t-147.5 -74.5t-181.5 -24.5
q-67 0 -123 10q-2 -4 -2 -8v-9q0 -29 16.5 -40.5t54.5 -13.5l185 -11q99 -3 166.5 -29t109 -67.5t59.5 -94.5t18 -109q0 -72 -30 -136t-94 -112t-163 -76.5t-238 -28.5q-101 0 -185 16.5t-145 51t-95 87t-34 125.5q0 38 10.5 66.5t15.5 48.5l289 -25q-2 -5 -6.5 -14.5
t-4.5 -23.5q0 -39 39.5 -61.5t120.5 -22.5q84 0 119.5 26.5t35.5 71.5q0 11 -2 25t-11.5 27t-29.5 23t-55 13l-200 11q-81 3 -134.5 21.5t-85 47t-44 65t-12.5 77.5q0 54 26.5 101.5t66.5 88.5q-52 50 -81 120t-29 164zM437 633q0 -33 11 -60.5t30 -47t45 -30t55 -10.5
t54.5 11t44.5 31.5t30 48t11 60.5q0 31 -10.5 58t-29 46.5t-44.5 31t-56 11.5t-56 -11t-45 -31t-29.5 -47.5t-10.5 -60.5z" />
    <glyph glyph-name="ij" unicode="&#x133;" horiz-adv-x="1222" 
d="M126 0v1028h374v-1028h-374zM312 1494q111 0 163 -44t52 -123q0 -78 -51 -121.5t-160 -43.5q-112 0 -165 44.5t-53 123.5q0 80 52.5 122t161.5 42zM416 -131q58 -16 101.5 -25t82.5 -8q35 0 57.5 14t36 35t18.5 47t5 52v1044h373v-1050q0 -79 -22.5 -156t-73.5 -138
t-133.5 -98.5t-203.5 -37.5q-43 0 -85 5.5t-80.5 14.5t-73 20t-62.5 22zM904 1494q111 0 163.5 -44t52.5 -123q0 -78 -51.5 -121.5t-160.5 -43.5q-112 0 -164.5 44.5t-52.5 123.5q0 80 52 122t161 42z" />
    <glyph glyph-name="IJ" unicode="&#x132;" horiz-adv-x="1504" 
d="M159 0v1396h390v-1396h-390zM1351 441q0 -115 -21.5 -202t-68 -145.5t-121 -88t-179.5 -29.5q-44 0 -89 5.5t-87.5 14.5t-81.5 21t-72 26l57 281q16 -6 36 -12t41.5 -10.5t43 -7.5t40.5 -3q33 0 54.5 10.5t34 30t17.5 48t5 63.5v953h391v-955z" />
    <glyph glyph-name="g.alt" horiz-adv-x="1167" 
d="M109 633q0 100 36.5 179t99.5 134.5t148 85t183 29.5t184 -30q35 27 84.5 49.5t113.5 22.5q78 0 123.5 -13.5t64.5 -24.5l-42 -196q-15 3 -33 5.5t-47 2.5q-25 0 -47 -8q32 -48 50 -106.5t18 -128.5q0 -104 -36 -181.5t-99 -129t-147.5 -77t-181.5 -25.5q-29 0 -57 2
t-54 6q-2 -23 16 -38t63 -17l225 -11q76 -3 131 -30t90.5 -70t52.5 -97t17 -110q0 -72 -30 -136t-94 -112t-163 -76.5t-238 -28.5q-101 0 -185 16.5t-145 51t-95 87t-34 125.5q0 38 10.5 66.5t15.5 48.5l318 -25q-2 -5 -6.5 -14.5t-4.5 -23.5q0 -23 31 -39t108 -16
q78 0 112.5 16.5t34.5 49.5q0 8 -2 16.5t-12 16.5t-31 14.5t-58 9.5l-195 14q-78 3 -130.5 26.5t-85 60.5t-46.5 85t-14 99q0 57 20.5 99.5t54.5 77.5q-44 50 -68 116.5t-24 151.5zM458 635q0 -29 9.5 -52.5t26 -40.5t38 -26t46.5 -9t46.5 9.5t37.5 27t25.5 41t9.5 51.5
q0 26 -9 48.5t-24.5 39.5t-37.5 26.5t-48 9.5t-48 -9.5t-38 -26.5t-25 -39.5t-9 -49.5z" />
    <glyph glyph-name="s.1000" horiz-adv-x="1015" 
d="M135 333q73 -35 158 -57.5t173 -22.5q62 0 89.5 19.5t27.5 48.5q0 19 -14.5 32t-42 24.5t-68 23t-92.5 26.5q-62 17 -115 39t-91.5 57t-60.5 86t-22 127q0 91 38 153t100 100t140.5 55t159.5 17q138 0 238.5 -28t172.5 -68l-87 -242q-75 29 -139 43.5t-127 14.5
q-58 0 -95 -14.5t-37 -50.5q0 -21 16 -33t44 -20t64 -15t77 -18q76 -21 133.5 -49t95.5 -66t57 -89.5t19 -120.5q0 -91 -37 -153.5t-98.5 -101.5t-141 -56.5t-163.5 -17.5q-89 0 -163.5 11.5t-133 28t-100.5 35t-65 33.5z" />
    <glyph glyph-name="oe.1000" horiz-adv-x="1932" 
d="M78 518q0 124 37.5 224t108 171t172.5 109.5t230 38.5q124 0 226 -36.5t174.5 -106t112 -170t39.5 -229.5q0 -128 -38 -229t-109 -171t-173 -106.5t-230 -36.5t-230 36t-173 105.5t-109 170.5t-38 230zM443 519q0 -69 14 -116.5t38.5 -76.5t59 -41.5t75.5 -12.5
q40 0 74 13t58 42t37.5 76.5t13.5 116.5q0 67 -13.5 113.5t-38 75.5t-58.5 42t-74 13q-41 0 -75 -13.5t-58.5 -43t-38.5 -76t-14 -112.5zM1190 425q6 -41 21 -72.5t43 -53t70 -32.5t102 -11q45 0 84 4.5t75 12.5t69.5 18.5t68.5 22.5l84 -222q-43 -27 -95 -48.5t-109 -36.5
t-117.5 -23t-119.5 -8q-136 0 -237 36t-168 104.5t-100.5 168.5t-33.5 229q0 143 41 246.5t115 170t176 98.5t224 32q112 0 199.5 -30.5t147.5 -81t91.5 -115t31.5 -132.5q0 -57 -18.5 -107.5t-62 -88t-115 -59.5t-177.5 -22h-290zM1375 802q-49 0 -82 -17.5t-54.5 -46
t-33 -63.5t-16.5 -69h215q56 0 85 20t29 63q0 53 -37.5 83t-105.5 30z" />
    <glyph glyph-name="a.alt" horiz-adv-x="1152" 
d="M151 959q31 16 70 34t88.5 33t112 25t142.5 10q54 0 110 -6t108 -23t97.5 -47t79.5 -78.5t53.5 -117t19.5 -162.5v-627h-329l-39 109q-15 -16 -39 -39t-57 -44t-74.5 -35.5t-91.5 -14.5q-72 0 -131.5 18t-102 58t-66.5 102.5t-24 151.5q0 60 18 105t48.5 77.5t70 54.5
t82.5 35.5t85.5 21t79.5 11.5l195 20v40q0 45 -40.5 69t-128.5 24q-56 0 -120.5 -14t-121.5 -34zM657 417l-118 -13q-20 -2 -37 -7.5t-30.5 -15.5t-21 -24.5t-7.5 -35.5q0 -42 23.5 -57.5t58.5 -15.5q22 0 42.5 4.5t37.5 11t30.5 14.5t21.5 15v124z" />
    <glyph glyph-name="zero.fitted" horiz-adv-x="1416" 
d="M1333 708q0 -164 -35 -299t-110 -231.5t-192 -149.5t-282 -52q-305 1 -461.5 179.5t-156.5 537.5q0 156 34 289t108.5 230.5t191.5 152.5t284 56q162 1 279 -51t192.5 -146.5t111.5 -226t36 -289.5zM961 699q-1 208 -60 315.5t-188 107.5q-53 0 -92 -19t-66 -51.5
t-44 -75t-26 -89.5t-12.5 -95.5t-3.5 -92.5q0 -45 3 -93.5t12.5 -95.5t26.5 -89.5t44 -75t65.5 -51.5t92.5 -19q129 0 188.5 108t59.5 316z" />
    <glyph glyph-name="one.fitted" horiz-adv-x="1416" 
d="M272 1080v316h644v-1396h-392v1080h-252zM324 362h792v-362h-792v362z" />
    <glyph glyph-name="two.fitted" horiz-adv-x="1416" 
d="M213 0v295q62 50 130 104t134 109.5t125.5 111.5t104.5 110.5t71.5 106t26.5 99.5q0 30 -11 60.5t-34 55t-59 39.5t-86 15q-52 0 -96.5 -8t-83 -20.5t-71.5 -28t-62 -31.5l-112 251q99 70 225 111t291 41q121 0 211.5 -27t149.5 -77.5t88.5 -122t29.5 -160.5
q0 -85 -19 -159t-52 -140t-77.5 -124t-95 -109.5t-105 -98t-106.5 -88.5h474v-315h-991z" />
    <glyph glyph-name="three.fitted" horiz-adv-x="1416" 
d="M175 1295q88 56 215.5 91t276.5 35q135 0 237.5 -26t170.5 -73.5t102.5 -115t34.5 -149.5q0 -114 -54.5 -194t-163.5 -125q52 -21 97 -48t78 -66.5t52 -94.5t19 -131q0 -80 -22 -142.5t-61.5 -109t-93.5 -78.5t-117.5 -52t-134.5 -29.5t-144 -10.5q-63 -1 -129 6
t-130.5 22t-125.5 38t-114 53l111 265q42 -18 77 -31t73 -21.5t83.5 -12.5t108.5 -4q43 0 85.5 6.5t76.5 22.5t55 43.5t21 69.5q0 28 -22.5 52t-64 41t-100 27t-131.5 10h-139v283h129q156 0 227.5 33.5t71.5 105.5q0 30 -16.5 52.5t-46 38t-70 23t-87.5 7.5
q-37 0 -74.5 -2.5t-77 -10t-82.5 -22t-91 -38.5z" />
    <glyph glyph-name="four.fitted" horiz-adv-x="1416" 
d="M782 0v229h-652v300l407 867h406l-383 -849h222v207h366v-207h119v-318h-119v-229h-366z" />
    <glyph glyph-name="five.fitted" horiz-adv-x="1416" 
d="M261 389q109 -42 206.5 -70t193.5 -28q100 0 152 42t52 115q0 43 -19 72.5t-51.5 48t-75 27t-88.5 8.5h-355v792h880v-299h-507v-212h87q118 0 212.5 -32.5t160.5 -90.5t101.5 -139t35.5 -179q0 -129 -49.5 -218.5t-130.5 -145t-184.5 -80t-211.5 -24.5q-71 0 -139.5 12
t-134 32.5t-126.5 47t-116 56.5z" />
    <glyph glyph-name="six.fitted" horiz-adv-x="1416" 
d="M159 657q0 142 25 254.5t69.5 197t105 144t131 97t147.5 54.5t155 17q84 0 151 -9.5t119.5 -23.5t91.5 -31t68 -33l-114 -265q-22 7 -45 15.5t-51.5 15.5t-65 11.5t-85.5 4.5q-75 0 -130 -17.5t-92 -48.5t-57.5 -74t-26.5 -93q67 31 131 44.5t138 13.5q112 0 194.5 -35.5
t137 -97.5t81 -146.5t26.5 -181.5q0 -111 -34.5 -202t-103 -156t-171 -100.5t-238.5 -35.5q-155 0 -261.5 46t-172 133.5t-94.5 214t-29 287.5zM540 570q-8 -140 35 -208.5t133 -68.5q81 0 127 42.5t46 120.5q0 76 -39 120t-106 44q-60 0 -110 -14.5t-86 -35.5z" />
    <glyph glyph-name="seven.fitted" horiz-adv-x="1416" 
d="M221 1080v316h966v-324q-38 -46 -81.5 -120t-88 -165.5t-87 -194.5t-79 -206.5t-64 -203t-41.5 -182.5h-417q40 154 88 302t102 286t112 262t118 230h-528z" />
    <glyph glyph-name="eight.fitted" horiz-adv-x="1416" 
d="M152 365q0 63 20 114.5t52 93.5t72.5 76.5t82.5 64.5q-35 24 -71 55.5t-66 72t-49 92.5t-19 117q0 86 34 154.5t98.5 116.5t158.5 74t214 26q157 0 262 -32t168 -84.5t89 -118.5t26 -134q0 -60 -20.5 -112.5t-52.5 -96t-72.5 -78t-80.5 -60.5q58 -32 104 -68.5t78 -78.5
t49.5 -89t17.5 -101q0 -87 -34 -159.5t-102.5 -124.5t-172 -80.5t-242.5 -28.5q-140 0 -242 29.5t-169.5 81.5t-100 123.5t-32.5 154.5zM533 403q0 -72 43 -107.5t120 -35.5q83 0 125.5 34.5t42.5 97.5q0 34 -15.5 62t-43 52.5t-65.5 46.5t-83 44q-20 -15 -42 -36t-40 -46
t-30 -53.5t-12 -58.5zM556 1023q0 -27 15 -51.5t40 -46t57.5 -40.5t67.5 -35q21 14 40.5 31.5t34.5 38t24 44.5t9 51q0 26 -7.5 49t-24.5 40t-44 27t-65 10q-147 0 -147 -118z" />
    <glyph glyph-name="nine.fitted" horiz-adv-x="1416" 
d="M1247 740q0 -142 -25.5 -254.5t-69.5 -197t-104.5 -144t-131 -97t-147.5 -54.5t-155 -17q-84 0 -151.5 9t-120 23t-91.5 31t-68 33l115 266q22 -8 44.5 -16t51 -15t65 -11.5t85.5 -4.5q78 0 133.5 19.5t92 52.5t56 76t25.5 90q-65 -32 -130 -47.5t-139 -15.5
q-112 0 -194.5 35.5t-137 97.5t-81 146t-26.5 181q0 111 34.5 202t103 156t171 101t238.5 36q155 0 261.5 -46t172 -133.5t94.5 -214t29 -287.5zM866 833q5 138 -36.5 204.5t-132.5 66.5q-81 0 -126.5 -42.5t-45.5 -120.5q0 -76 38.5 -120t106.5 -44q60 0 109.5 16.5
t86.5 39.5z" />
    <glyph glyph-name="zerooldstyle" unicode="&#xf730;" horiz-adv-x="1128" 
d="M84 517q0 148 37.5 251.5t102 168.5t151.5 94.5t185 29.5q99 0 186 -29.5t152 -94.5t102.5 -168.5t37.5 -251.5q0 -149 -37.5 -252t-102.5 -168t-152 -94t-186 -29q-98 0 -185 29t-151.5 94t-102 168t-37.5 252zM423 517q0 -66 7.5 -113t24 -76.5t42.5 -43t63 -13.5
t63 13.5t42.5 43t24 76.5t7.5 113q0 67 -7.5 114t-23.5 76.5t-42.5 43t-63.5 13.5t-63 -13.5t-42.5 -43t-24 -76.5t-7.5 -114z" />
    <glyph glyph-name="oneoldstyle" unicode="&#xf731;" horiz-adv-x="849" 
d="M52 712v316h624v-1028h-372v712h-252z" />
    <glyph glyph-name="twooldstyle" unicode="&#xf732;" horiz-adv-x="1067" 
d="M105 0v270q43 33 95.5 69.5t105.5 73.5t102.5 74.5t88 72t62 66t23.5 58.5q0 16 -7.5 31t-24 26.5t-43 18.5t-64.5 7t-69 -6t-57.5 -16t-49.5 -23.5t-46 -27.5l-129 245q48 29 105.5 51.5t119 38.5t125 24t125.5 8q91 0 161.5 -20.5t119 -58t73.5 -91.5t25 -120
q0 -60 -15.5 -111.5t-41 -96.5t-57.5 -83.5t-65 -71t-64 -60t-54 -50.5h320v-298h-864z" />
    <glyph glyph-name="threeoldstyle" unicode="&#xf733;" horiz-adv-x="1148" 
d="M61 930q41 27 88.5 50.5t103 40t119 26t137.5 9.5q136 0 234 -26t162 -73t94.5 -114.5t30.5 -149.5q0 -115 -54 -192.5t-165 -126.5q52 -21 97.5 -51t78.5 -71.5t52 -95.5t19 -123q0 -80 -20.5 -142.5t-57 -109t-87.5 -78.5t-112 -52t-130 -29.5t-142 -10.5
q-127 -2 -238.5 27t-218.5 90l110 260q34 -16 68.5 -30t72.5 -25t81 -17.5t94 -6.5q45 0 84 6.5t68 23t46 43.5t17 68q0 71 -65 105.5t-211 34.5h-139v295l129 1q78 0 127.5 8t78.5 26t40 47t11 72q0 31 -15 53.5t-41.5 37.5t-62.5 22t-78 7q-36 0 -69 -5t-67.5 -16
t-73 -28.5t-84.5 -41.5z" />
    <glyph glyph-name="fouroldstyle" unicode="&#xf734;" horiz-adv-x="1246" 
d="M690 -389v251h-630v297l407 870l398 -1l-391 -868h216v205h374v-205h104v-298h-104v-251h-374z" />
    <glyph glyph-name="fiveoldstyle" unicode="&#xf735;" horiz-adv-x="1237" 
d="M189 7q44 -21 84.5 -39.5t78.5 -32t75 -21.5t75 -8q61 0 103 12.5t68 35t37.5 53t11.5 66.5q0 41 -17.5 69t-47.5 45.5t-71 25t-87 7.5h-322v808h820v-299h-478v-211h63q118 0 211.5 -32.5t158.5 -91t99.5 -139.5t34.5 -179q0 -129 -44.5 -218t-118 -144t-167 -79
t-191.5 -24q-78 0 -145 11t-126.5 29.5t-112 42t-100.5 48.5z" />
    <glyph glyph-name="sixoldstyle" unicode="&#xf736;" horiz-adv-x="1254" 
d="M93 657q0 142 22.5 254.5t63 197t96.5 144t122.5 97t141 54.5t152.5 17q84 0 149.5 -9t116.5 -23t89 -31t67 -33l-107 -258q-21 8 -44 18t-51.5 19t-65 15t-84.5 6q-76 0 -127 -21t-83 -55.5t-48 -80t-22 -95.5q33 15 60.5 26t54.5 18t56 10.5t66 3.5q112 0 194.5 -35.5
t137 -97.5t81 -146.5t26.5 -181.5q0 -111 -31 -202t-95 -156t-163 -100.5t-235 -35.5q-155 0 -259 46t-166.5 133.5t-88.5 214t-26 287.5zM460 578q-4 -152 34 -228.5t131 -76.5q45 0 76.5 13.5t51.5 38t29.5 58t9.5 73.5q0 91 -40 135t-108 44q-60 0 -104 -18t-80 -39z" />
    <glyph glyph-name="sevenoldstyle" unicode="&#xf737;" horiz-adv-x="1136" 
d="M91 712v316h966v-324q-39 -49 -82.5 -124t-88 -166t-87 -193t-78.5 -205t-63.5 -201.5t-41.5 -181.5h-394q40 154 88.5 302t102.5 285.5t112.5 261.5t118.5 230h-553z" />
    <glyph glyph-name="eightoldstyle" unicode="&#xf738;" horiz-adv-x="1288" 
d="M92 365q0 63 21 116t54.5 96.5t75.5 79t83 65.5q-35 24 -72 54t-68.5 69.5t-51.5 90t-20 115.5q0 79 34 147t98.5 118t158.5 78t214 28q157 0 262 -32t168 -84.5t89 -118.5t26 -134q0 -60 -21.5 -112.5t-55.5 -96t-75 -78.5t-81 -61q57 -32 104.5 -68.5t81 -78t52 -88.5
t18.5 -101q0 -87 -34 -159.5t-102.5 -124.5t-172 -80.5t-242.5 -28.5q-140 0 -242 29.5t-169.5 81.5t-100 123.5t-32.5 154.5zM457 414q0 -36 13.5 -62.5t37.5 -44.5t57 -26.5t71 -8.5q41 0 75.5 9t59 25.5t38 40.5t13.5 54q0 34 -19 61t-50 49.5t-72 41.5t-84 37
q-20 -15 -44.5 -33t-45.5 -39.5t-35.5 -47.5t-14.5 -56zM480 1017q0 -30 16.5 -55t43.5 -46t62.5 -39t73.5 -35q18 12 39.5 29.5t40 39.5t31 48t12.5 55q0 54 -39 82.5t-117 28.5q-73 0 -118 -26t-45 -82z" />
    <glyph glyph-name="nineoldstyle" unicode="&#xf739;" horiz-adv-x="1254" 
d="M1157 379q0 -142 -22.5 -254t-63 -196.5t-96.5 -144t-122.5 -97t-141 -54.5t-152.5 -17q-84 0 -150 9t-117 23t-89 31t-67 33l108 257q21 -8 44 -18t51.5 -19t65 -14.5t84.5 -5.5q75 0 126 20.5t83 55t48.5 80t22.5 95.5q-33 -15 -60.5 -26t-54.5 -18t-56 -10t-66 -3
q-112 0 -194.5 35.5t-137 97.5t-81 146t-26.5 181q0 111 31 202t95 156t163 101t235 36q155 0 259 -46t166.5 -133.5t88.5 -214.5t26 -288zM790 459q4 151 -34 228t-131 77q-45 0 -76.5 -13.5t-51.5 -38t-29.5 -58t-9.5 -73.5q0 -91 40 -135t107 -44q60 0 104.5 17.5
t80.5 39.5z" />
    <glyph glyph-name="zero.taboldstyle" horiz-adv-x="1128" 
d="M84 517q0 148 37.5 251.5t102 168.5t151.5 94.5t185 29.5q99 0 186 -29.5t152 -94.5t102.5 -168.5t37.5 -251.5q0 -149 -37.5 -252t-102.5 -168t-152 -94t-186 -29q-98 0 -185 29t-151.5 94t-102 168t-37.5 252zM423 517q0 -66 7.5 -113t24 -76.5t42.5 -43t63 -13.5
t63 13.5t42.5 43t24 76.5t7.5 113q0 67 -7.5 114t-23.5 76.5t-42.5 43t-63.5 13.5t-63 -13.5t-42.5 -43t-24 -76.5t-7.5 -114z" />
    <glyph glyph-name="one.taboldstyle" horiz-adv-x="849" 
d="M52 712v316h624v-1028h-372v712h-252z" />
    <glyph glyph-name="two.taboldstyle" horiz-adv-x="1067" 
d="M105 0v270q43 33 95.5 69.5t105.5 73.5t102.5 74.5t88 72t62 66t23.5 58.5q0 16 -7.5 31t-24 26.5t-43 18.5t-64.5 7t-69 -6t-57.5 -16t-49.5 -23.5t-46 -27.5l-129 245q48 29 105.5 51.5t119 38.5t125 24t125.5 8q91 0 161.5 -20.5t119 -58t73.5 -91.5t25 -120
q0 -60 -15.5 -111.5t-41 -96.5t-57.5 -83.5t-65 -71t-64 -60t-54 -50.5h320v-298h-864z" />
    <glyph glyph-name="three.taboldstyle" horiz-adv-x="1148" 
d="M61 930q41 27 88.5 50.5t103 40t119 26t137.5 9.5q136 0 234 -26t162 -73t94.5 -114.5t30.5 -149.5q0 -115 -54 -192.5t-165 -126.5q52 -21 97.5 -51t78.5 -71.5t52 -95.5t19 -123q0 -80 -20.5 -142.5t-57 -109t-87.5 -78.5t-112 -52t-130 -29.5t-142 -10.5
q-127 -2 -238.5 27t-218.5 90l110 260q34 -16 68.5 -30t72.5 -25t81 -17.5t94 -6.5q45 0 84 6.5t68 23t46 43.5t17 68q0 71 -65 105.5t-211 34.5h-139v295l129 1q78 0 127.5 8t78.5 26t40 47t11 72q0 31 -15 53.5t-41.5 37.5t-62.5 22t-78 7q-36 0 -69 -5t-67.5 -16
t-73 -28.5t-84.5 -41.5z" />
    <glyph glyph-name="four.taboldstyle" horiz-adv-x="1246" 
d="M690 -389v251h-630v297l407 870l398 -1l-391 -868h216v205h374v-205h104v-298h-104v-251h-374z" />
    <glyph glyph-name="five.taboldstyle" horiz-adv-x="1237" 
d="M189 7q44 -21 84.5 -39.5t78.5 -32t75 -21.5t75 -8q61 0 103 12.5t68 35t37.5 53t11.5 66.5q0 41 -17.5 69t-47.5 45.5t-71 25t-87 7.5h-322v808h820v-299h-478v-211h63q118 0 211.5 -32.5t158.5 -91t99.5 -139.5t34.5 -179q0 -129 -44.5 -218t-118 -144t-167 -79
t-191.5 -24q-78 0 -145 11t-126.5 29.5t-112 42t-100.5 48.5z" />
    <glyph glyph-name="six.taboldstyle" horiz-adv-x="1254" 
d="M93 657q0 142 22.5 254.5t63 197t96.5 144t122.5 97t141 54.5t152.5 17q84 0 149.5 -9t116.5 -23t89 -31t67 -33l-107 -258q-21 8 -44 18t-51.5 19t-65 15t-84.5 6q-76 0 -127 -21t-83 -55.5t-48 -80t-22 -95.5q33 15 60.5 26t54.5 18t56 10.5t66 3.5q112 0 194.5 -35.5
t137 -97.5t81 -146.5t26.5 -181.5q0 -111 -31 -202t-95 -156t-163 -100.5t-235 -35.5q-155 0 -259 46t-166.5 133.5t-88.5 214t-26 287.5zM460 578q-4 -152 34 -228.5t131 -76.5q45 0 76.5 13.5t51.5 38t29.5 58t9.5 73.5q0 91 -40 135t-108 44q-60 0 -104 -18t-80 -39z" />
    <glyph glyph-name="seven.taboldstyle" horiz-adv-x="1136" 
d="M91 712v316h966v-324q-39 -49 -82.5 -124t-88 -166t-87 -193t-78.5 -205t-63.5 -201.5t-41.5 -181.5h-394q40 154 88.5 302t102.5 285.5t112.5 261.5t118.5 230h-553z" />
    <glyph glyph-name="eight.taboldstyle" horiz-adv-x="1288" 
d="M92 365q0 63 21 116t54.5 96.5t75.5 79t83 65.5q-35 24 -72 54t-68.5 69.5t-51.5 90t-20 115.5q0 79 34 147t98.5 118t158.5 78t214 28q157 0 262 -32t168 -84.5t89 -118.5t26 -134q0 -60 -21.5 -112.5t-55.5 -96t-75 -78.5t-81 -61q57 -32 104.5 -68.5t81 -78t52 -88.5
t18.5 -101q0 -87 -34 -159.5t-102.5 -124.5t-172 -80.5t-242.5 -28.5q-140 0 -242 29.5t-169.5 81.5t-100 123.5t-32.5 154.5zM457 414q0 -36 13.5 -62.5t37.5 -44.5t57 -26.5t71 -8.5q41 0 75.5 9t59 25.5t38 40.5t13.5 54q0 34 -19 61t-50 49.5t-72 41.5t-84 37
q-20 -15 -44.5 -33t-45.5 -39.5t-35.5 -47.5t-14.5 -56zM480 1017q0 -30 16.5 -55t43.5 -46t62.5 -39t73.5 -35q18 12 39.5 29.5t40 39.5t31 48t12.5 55q0 54 -39 82.5t-117 28.5q-73 0 -118 -26t-45 -82z" />
    <glyph glyph-name="nine.taboldstyle" horiz-adv-x="1254" 
d="M1157 379q0 -142 -22.5 -254t-63 -196.5t-96.5 -144t-122.5 -97t-141 -54.5t-152.5 -17q-84 0 -150 9t-117 23t-89 31t-67 33l108 257q21 -8 44 -18t51.5 -19t65 -14.5t84.5 -5.5q75 0 126 20.5t83 55t48.5 80t22.5 95.5q-33 -15 -60.5 -26t-54.5 -18t-56 -10t-66 -3
q-112 0 -194.5 35.5t-137 97.5t-81 146t-26.5 181q0 111 31 202t95 156t163 101t235 36q155 0 259 -46t166.5 -133.5t88.5 -214.5t26 -288zM790 459q4 151 -34 228t-131 77q-45 0 -76.5 -13.5t-51.5 -38t-29.5 -58t-9.5 -73.5q0 -91 40 -135t107 -44q60 0 104.5 17.5
t80.5 39.5z" />
    <glyph glyph-name="zerosuperior" unicode="&#x2070;" horiz-adv-x="820" 
d="M41 1121q0 114 29 193.5t79 130t116.5 73t142.5 22.5t143 -22.5t117 -73t79 -130t29 -193.5t-29 -193.5t-79 -129t-117 -72t-143 -22.5t-142.5 22.5t-116.5 72t-79 129t-29 193.5zM309 1122q0 -51 5 -86.5t16.5 -57.5t30.5 -31.5t47 -9.5t47.5 9.5t31.5 31.5t17 57.5
t5 86.5t-5 86.5t-17 57.5t-31.5 31.5t-47.5 9.5q-29 0 -48 -9.5t-30 -31.5t-16 -57.5t-5 -86.5z" />
    <glyph glyph-name="onesuperior" unicode="&#xb9;" horiz-adv-x="656" 
d="M40 1272v249h472v-792h-278v543h-194z" />
    <glyph glyph-name="twosuperior" unicode="&#xb2;" horiz-adv-x="824" 
d="M80 721v214q33 26 73 54t80.5 56t78.5 55.5t67.5 53t47 48.5t17.5 41q0 28 -21.5 45.5t-69.5 17.5q-46 0 -91 -18.5t-80 -42.5l-102 189q37 23 75 42.5t80.5 33t92 21t109.5 7.5q141 0 213.5 -63t72.5 -184q0 -62 -23 -111.5t-57.5 -90t-73.5 -73.5t-72 -61h244v-234
h-661z" />
    <glyph glyph-name="threesuperior" unicode="&#xb3;" horiz-adv-x="681" 
d="M35 1468q48 32 118 52.5t160 20.5q76 0 132 -15t92.5 -42.5t54 -66.5t17.5 -86q0 -132 -126 -184q30 -12 56 -29.5t45 -41.5t30 -55t11 -70q0 -70 -26 -117t-69.5 -75t-101 -40t-120.5 -13q-70 0 -143 16.5t-135 51.5l68 167q34 -12 72.5 -21.5t73.5 -9.5q47 0 79.5 13
t32.5 47q0 13 -11 23.5t-28 18.5t-38.5 12.5t-43.5 4.5h-60v195l56 1q48 0 79 12t31 42q0 23 -23 37.5t-63 14.5q-27 0 -60 -5.5t-84 -27.5z" />
    <glyph glyph-name="foursuperior" unicode="&#x2074;" horiz-adv-x="722" 
d="M420 725v137h-383v202l234 465h274l-224 -456h99v86h225v-86h53v-211h-53v-137h-225z" />
    <glyph glyph-name="fivesuperior" unicode="&#x2075;" horiz-adv-x="717" 
d="M118 960q39 -18 81.5 -26t77.5 -8q38 0 65.5 14.5t27.5 48.5q0 40 -23.5 56t-75.5 16h-168v474h473v-196h-267v-90h28q68 0 123.5 -18.5t95 -53t61 -83.5t21.5 -109q0 -75 -27 -128.5t-71 -88t-99 -50.5t-112 -16q-89 0 -159.5 24t-126.5 53z" />
    <glyph glyph-name="sixsuperior" unicode="&#x2076;" horiz-adv-x="726" 
d="M55 1099q0 123 30 207t78.5 135t110.5 73.5t126 22.5q94 0 155.5 -17.5t94.5 -35.5l-69 -171q-25 10 -57 20t-84 9q-73 -2 -109 -30t-41 -83q28 13 55.5 21t69.5 8q66 0 113.5 -20.5t78.5 -56.5t46 -85t15 -105q0 -64 -18 -116t-55 -89t-94 -57.5t-135 -20.5
q-91 0 -151 26t-95.5 76.5t-50 123t-14.5 165.5zM284 1043q-2 -77 14 -111t64 -34q42 0 60.5 21.5t18.5 63.5q0 47 -16.5 65.5t-53.5 18.5q-31 0 -50 -6.5t-37 -17.5z" />
    <glyph glyph-name="sevensuperior" unicode="&#x2077;" horiz-adv-x="657" 
d="M53 1339v190h558v-193q-22 -28 -47.5 -70.5t-51 -94t-50 -109t-45 -115.5t-37 -114t-24.5 -104h-237q46 178 110 333t133 277h-309z" />
    <glyph glyph-name="eightsuperior" unicode="&#x2078;" horiz-adv-x="747" 
d="M54 931q0 36 11.5 65.5t30.5 53.5t42 44t47 37q-19 15 -40 32t-38 39.5t-28.5 51t-11.5 66.5q0 46 19.5 85.5t57 68t92 45t123.5 16.5q91 0 151.5 -18.5t96.5 -48.5t51 -68.5t15 -78.5q0 -34 -12.5 -64t-32 -54.5t-43 -44.5t-45.5 -33q66 -36 106.5 -83t40.5 -109
q0 -51 -20 -93t-59.5 -72.5t-99.5 -47t-140 -16.5t-139 17.5t-98 48t-58 72t-19 89.5zM278 963q0 -35 24 -52t66 -17q47 0 70.5 16.5t23.5 45.5q0 19 -10 33t-26 25t-36 20t-41 18q-9 -7 -21.5 -16t-23.5 -20t-18.5 -24.5t-7.5 -28.5zM288 1296q0 -15 8 -27.5t21.5 -23.5
t31 -20.5t36.5 -17.5q9 5 20 13.5t21 19.5t16.5 24.5t6.5 29.5q0 26 -17.5 40t-60.5 14q-83 0 -83 -52z" />
    <glyph glyph-name="ninesuperior" unicode="&#x2079;" horiz-adv-x="742" 
d="M668 1146q0 -123 -30 -207t-78.5 -135t-110.5 -73.5t-126 -22.5q-94 0 -155.5 17.5t-94.5 35.5l69 171q13 -5 26.5 -10t30.5 -9.5t37.5 -7t46.5 -2.5q73 2 109 30t41 83q-28 -13 -55.5 -21t-69.5 -8q-66 0 -113.5 20.5t-78.5 56.5t-46 85t-15 105q0 64 18 116t55 89
t94 57.5t135 20.5q91 0 151 -26t95.5 -76.5t50 -123t14.5 -165.5zM439 1202q2 78 -13.5 111.5t-63.5 33.5q-43 0 -61 -21.5t-18 -63.5q0 -47 16 -65.5t53 -18.5q31 0 50 6.5t37 17.5z" />
    <glyph glyph-name="parenleftsuperior" unicode="&#x207d;" horiz-adv-x="660" 
d="M127 1116q0 74 10.5 143t27 130t37 114t40.5 95t36.5 72.5t26.5 46.5l246 -26q-8 -20 -34 -71.5t-54 -128.5t-50 -176.5t-22 -215.5q0 -86 14.5 -167.5t37.5 -155t51.5 -137.5t56.5 -114l-246 -25q-39 63 -71.5 130.5t-56 143.5t-37 161t-13.5 181z" />
    <glyph glyph-name="parenrightsuperior" unicode="&#x207e;" horiz-adv-x="660" 
d="M551 1116q0 -96 -13.5 -181t-37 -161t-56 -143.5t-71.5 -130.5l-246 25q28 50 56 114t51 137.5t37.5 155t14.5 167.5q0 77 -10.5 147.5t-26 131.5t-34.5 113t-37 92t-32 67.5t-19 40.5l246 26q9 -16 26 -46.5t37 -72.5t40.5 -95t37 -114t27 -130t10.5 -143z" />
    </font>
</defs>
</svg>
