<?xml version="1.0" standalone="no"?>
<!DOCTYPE svg PUBLIC "-//W3C//DTD SVG 1.1//EN" "http://www.w3.org/Graphics/SVG/1.1/DTD/svg11.dtd" >
<svg xmlns="http://www.w3.org/2000/svg" xmlns:xlink="http://www.w3.org/1999/xlink" version="1.1">
<metadata>
Created by FontForge 20170910 at Mon Dec 18 10:55:40 2017
 By Jimmy Wärting
Copyright (c) 2017 by studio kmzero. All rights reserved.
</metadata>
<defs>
<font id="Kabrio-Italic" horiz-adv-x="1160" >
  <font-face 
    font-family="Kabrio"
    font-weight="400"
    font-style="italic"
    font-stretch="normal"
    units-per-em="2048"
    panose-1="2 0 5 5 4 0 0 2 0 4"
    ascent="1500"
    descent="-548"
    x-height="1013"
    cap-height="1394"
    bbox="-274 -622 2375.43 1919"
    underline-thickness="102"
    underline-position="-205"
    unicode-range="U+000D-F739"
  />
<missing-glyph horiz-adv-x="680" 
 />
    <glyph glyph-name=".notdef" horiz-adv-x="680" 
 />
    <glyph glyph-name=".null" horiz-adv-x="0" 
 />
    <glyph glyph-name=".null" horiz-adv-x="0" 
 />
    <glyph glyph-name="nonmarkingreturn" unicode="&#xd;" horiz-adv-x="520" 
 />
    <glyph glyph-name="space" unicode=" " horiz-adv-x="520" 
 />
    <glyph glyph-name="numbersign" unicode="#" horiz-adv-x="1566" 
d="M390 1056h278l122 338h200l-122 -338h362l122 338h201l-122 -338h280l-66 -187h-281l-120 -333h280l-65 -186h-282l-125 -350h-200l125 350h-362l-125 -350h-200l125 350h-277l65 186h278l120 333h-277zM681 536h362l120 333h-362z" />
    <glyph glyph-name="percent" unicode="%" horiz-adv-x="1763" 
d="M509 0l807 1394h215l-807 -1394h-215zM313 1003q23 109 64.5 186.5t95 126.5t116 72t128.5 23t119.5 -23t86.5 -72t42 -126.5t-14 -186.5q-23 -110 -65 -187t-96 -125.5t-117 -71t-129 -22.5t-119 22.5t-85.5 71t-41 125.5t14.5 187zM478 1004q-15 -72 -16.5 -122
t11 -80.5t38.5 -44t65 -13.5q40 0 72 13.5t57.5 44t45.5 80.5t35 122t16.5 121t-11 80t-39 44.5t-66.5 13.5t-71.5 -13.5t-57 -44.5t-45 -80t-34.5 -121zM1107 383q23 109 64.5 186.5t95.5 126.5t117 72t129 23t119 -23t86 -72t41.5 -126.5t-14.5 -186.5
q-23 -110 -64.5 -187t-95.5 -126t-117 -71.5t-129 -22.5t-119 22.5t-86 71.5t-41.5 126t14.5 187zM1272 383q-15 -72 -16.5 -121.5t11 -80t38.5 -44t66 -13.5t72 13.5t57.5 44t45.5 80t35 121.5t16.5 121.5t-11.5 80.5t-39 44.5t-66 13.5t-71.5 -13.5t-57 -44.5t-45.5 -80.5
t-35 -121.5z" />
    <glyph glyph-name="ampersand" unicode="&#x26;" horiz-adv-x="1451" 
d="M1113 1186q-33 18 -80 29.5t-123 11.5q-59 0 -111 -11.5t-93 -35.5t-69 -60t-38 -84q-27 -127 25 -181t185 -54l215 -1h446l-35 -161h-234l-68 -322q-8 -36 -8.5 -65.5t8 -50.5t27 -32.5t50.5 -11.5q51 0 88 12t72 25l23 -145q-32 -15 -62.5 -27.5t-63 -21t-68.5 -13.5
t-78 -5q-75 0 -126.5 28t-74.5 88q-77 -54 -171 -85.5t-190 -29.5q-48 1 -97.5 10.5t-94 29t-81.5 50.5t-60 76.5t-29.5 105.5t10.5 138q15 70 44.5 125.5t70 97.5t89 71.5t102.5 46.5q-48 28 -78 63.5t-44 77t-14.5 90t11.5 102.5q17 80 61 144t111 108.5t156.5 68.5
t198.5 24q48 0 87.5 -4t74.5 -12.5t68 -22t68 -32.5zM987 629h-220q-89 0 -150 -20.5t-100.5 -53t-60.5 -72.5t-29 -78q-15 -70 -2 -116t46 -73.5t82.5 -38.5t108.5 -11q62 0 129 28.5t120 77.5l6 25z" />
    <glyph glyph-name="quotesingle" unicode="'" horiz-adv-x="482" 
d="M455 1417h205l-164 -456h-138z" />
    <glyph glyph-name="parenleft" unicode="(" horiz-adv-x="609" 
d="M252 602q30 142 83.5 275.5t115.5 250.5t124.5 213.5t112.5 164.5l190 -34q-50 -77 -109.5 -176t-116.5 -212.5t-105.5 -238.5t-75.5 -254q-23 -110 -28.5 -225.5t2 -227.5t25 -215t40.5 -187l-205 -34q-27 76 -49 177.5t-32 218.5t-5 245t33 259z" />
    <glyph glyph-name="parenright" unicode=")" horiz-adv-x="630" 
d="M622 602q-28 -131 -77 -259t-108.5 -245t-124.5 -218.5t-125 -177.5l-190 34q58 84 119.5 187t116.5 215t99 227.5t67 225.5q27 129 32 254t-4 238.5t-26.5 212.5t-34.5 176l206 34q20 -68 42 -164.5t34 -213.5t8 -250.5t-34 -275.5z" />
    <glyph glyph-name="asterisk" unicode="*" horiz-adv-x="928" 
d="M813 1235l257 64l11 -177l-247 -63l147 -182l-164 -130l-161 200l-246 -200l-108 130l227 183l-221 62l87 178l228 -64l51 241h190z" />
    <glyph glyph-name="plus" unicode="+" horiz-adv-x="961" 
d="M498 472h-272l39 185h272l57 267h191l-57 -267h273l-39 -185h-273l-57 -269h-191z" />
    <glyph glyph-name="comma" unicode="," horiz-adv-x="520" 
d="M302 211q65 0 92.5 -27t15.5 -82l-1 -5q-13 -63 -36.5 -118t-54.5 -103t-67 -88.5t-73 -74.5l-89 46q48 65 84.5 127.5t47.5 110.5q-49 7 -65.5 34t-6.5 74q11 54 50 80t103 26z" />
    <glyph glyph-name="hyphen" unicode="-" horiz-adv-x="877" 
d="M206 469l39 184h670l-39 -184h-670z" />
    <glyph glyph-name="period" unicode="." horiz-adv-x="535" 
d="M304 186q130 0 108 -109q-11 -48 -47 -78t-104 -30q-72 0 -97 28t-14 82q24 107 154 107z" />
    <glyph glyph-name="slash" unicode="/" horiz-adv-x="904" 
d="M54 -78l922 1589l184 -65l-922 -1589z" />
    <glyph glyph-name="zero" unicode="0" horiz-adv-x="1235" 
d="M1292 702q-20 -94 -50.5 -184t-73 -170.5t-97 -147.5t-123 -115.5t-151.5 -75.5t-181 -27q-122 0 -210 41.5t-137 128.5t-56 221.5t32 320.5q18 84 46.5 170t69.5 165.5t95 149.5t123 121.5t153.5 81.5t187.5 30q99 0 170.5 -27.5t119 -77t73.5 -117t34 -146.5t1 -166
t-26 -176zM1079 697q31 147 31.5 249t-26 165.5t-78.5 92.5t-126 29q-66 0 -119.5 -23.5t-96.5 -63.5t-76 -93t-57.5 -112t-42.5 -121t-30 -120q-13 -59 -22 -121.5t-9.5 -122.5t9.5 -113.5t36 -94t69.5 -64t110.5 -23.5q73 0 137.5 29t118.5 92.5t97 165.5t74 249z" />
    <glyph glyph-name="one" unicode="1" horiz-adv-x="759" 
d="M360 1209l40 185h441l-296 -1394h-222l256 1209h-219z" />
    <glyph glyph-name="two" unicode="2" horiz-adv-x="1157" 
d="M126 0l35 166q165 134 308 250.5t252.5 218.5t179 191t86.5 169q4 20 6 45t-2 51t-15 50.5t-33.5 43.5t-57 30.5t-85.5 11.5t-94.5 -6.5t-84.5 -19t-83 -32t-90 -44.5l-42 148q54 33 108.5 59t111.5 43.5t118.5 27t130.5 9.5q205 0 290.5 -94.5t47.5 -277.5
q-26 -121 -97.5 -229.5t-173 -212t-225 -205t-252.5 -208.5h611l-39 -185h-911z" />
    <glyph glyph-name="three" unicode="3" horiz-adv-x="1136" 
d="M379 1284q110 60 219 94t237 34q112 0 193.5 -24t130.5 -68.5t65.5 -108.5t-0.5 -144q-12 -54 -32 -102.5t-52 -90t-77 -77t-105 -63.5q46 -17 82.5 -46.5t58.5 -71.5t28 -97.5t-9 -125.5q-26 -121 -86 -199.5t-141 -125t-175 -65.5t-188 -21q-58 -2 -115.5 5.5
t-111.5 22.5t-102 37.5t-87 51.5l103 155q38 -22 72.5 -38.5t72.5 -27.5t82.5 -16.5t103.5 -5.5q61 0 119.5 12t106.5 39.5t82.5 73.5t49.5 114q8 37 -1 77t-40.5 72.5t-89 53.5t-145.5 21h-169l37 171l165 1q66 0 122 13t100 41t73.5 73t43.5 108q10 48 -2.5 84t-43.5 60
t-78.5 35.5t-106.5 11.5q-42 0 -83 -5.5t-83 -16.5t-87.5 -29.5t-96.5 -43.5z" />
    <glyph glyph-name="four" unicode="4" horiz-adv-x="1122" 
d="M680 0l61 289h-605l39 185l610 920h231l-602 -917h367l63 298h209l-63 -298h159l-40 -188h-159l-61 -289h-209z" />
    <glyph glyph-name="five" unicode="5" horiz-adv-x="1133" 
d="M207 282q44 -26 84.5 -47t82 -36.5t86 -24t97.5 -8.5q140 0 230.5 68t116.5 191q13 60 -0.5 105t-48.5 75t-90.5 45t-127.5 15h-323l155 729h763l-38 -178h-549l-81 -382h169q104 0 185.5 -27.5t133.5 -80t71 -128.5t-2 -173q-25 -117 -83 -201t-139 -138t-178.5 -79
t-202.5 -25q-67 0 -126.5 13t-110.5 34t-94.5 47t-79.5 52z" />
    <glyph glyph-name="six" unicode="6" horiz-adv-x="1201" 
d="M256 643q40 187 109.5 330.5t164 241t210.5 147.5t249 50q77 0 135 -10t101.5 -25t75 -32.5t54.5 -33.5l-109 -159q-20 11 -42.5 24t-53 24.5t-72.5 19t-99 7.5q-99 0 -173.5 -35t-128.5 -90.5t-90 -124.5t-58 -138q97 40 185.5 56t162.5 16q106 0 179.5 -33.5t114 -93.5
t50 -143t-11.5 -182q-23 -107 -73.5 -195t-126.5 -150.5t-175.5 -97t-220.5 -34.5q-137 0 -222 46.5t-125.5 132.5t-41 208t31.5 274zM478 653q-63 -243 -21 -364.5t193 -121.5q64 0 120 19.5t100 56t75 89t45 119.5q13 60 8.5 111t-28 88t-66 58t-104.5 21q-40 0 -85.5 -7
t-89.5 -18t-82.5 -24.5t-64.5 -26.5z" />
    <glyph glyph-name="seven" unicode="7" horiz-adv-x="1060" 
d="M364 1209l40 185h869l-41 -192q-61 -60 -128 -144.5t-135 -184.5t-135 -211.5t-127.5 -225t-112.5 -225t-91 -211.5h-236q74 170 161.5 340t180.5 327t187.5 295.5t181.5 246.5h-614z" />
    <glyph glyph-name="eight" unicode="8" horiz-adv-x="1229" 
d="M197 357q14 66 53 125t88.5 108t102 87.5t93.5 64.5q-29 19 -61.5 48.5t-58 70t-37.5 91t1 112.5q18 83 64 147.5t115 109t159 68t195 23.5q130 0 214.5 -29t130.5 -77.5t58 -111.5t-2 -130q-13 -61 -44 -112t-73 -94.5t-92.5 -81t-102.5 -72.5q54 -30 95.5 -66t67.5 -78
t34.5 -91t-3.5 -106q-18 -84 -63.5 -154.5t-118.5 -120.5t-173 -78t-227 -28q-122 0 -208.5 27t-138 76.5t-69 118.5t0.5 153zM418 372q-22 -103 37.5 -161t194.5 -58q66 0 121 15t97 42.5t69.5 66.5t38.5 88q12 57 -4.5 99t-56 76.5t-98.5 64.5t-132 63q-27 -18 -68 -47
t-81.5 -66.5t-73.5 -83.5t-44 -99zM592 1053q-11 -50 8.5 -88.5t58 -69.5t90.5 -56.5t106 -49.5q36 25 74 49.5t70.5 54.5t57 67.5t35.5 88.5q9 41 2 76t-31.5 61t-69 41t-110.5 15q-117 0 -193.5 -46t-97.5 -143z" />
    <glyph glyph-name="nine" unicode="9" horiz-adv-x="1201" 
d="M1238 751q-40 -187 -109.5 -330.5t-163.5 -241t-210 -147.5t-249 -50q-77 0 -135.5 9.5t-102 24.5t-75 32.5t-54.5 33.5l109 160q20 -11 42.5 -24.5t53.5 -25t72.5 -19t98.5 -7.5q71 0 128.5 18.5t104 50t82 72.5t62.5 86t46.5 90.5t32.5 86.5q-94 -46 -187 -67t-167 -21
q-107 0 -180 33.5t-113.5 94t-50 143.5t11.5 182q23 107 74 195t127 150.5t175.5 97t220.5 34.5q137 0 222 -46.5t125.5 -132.5t40.5 -208t-32 -274zM1021 756q52 235 12.5 352.5t-188.5 117.5q-64 0 -120 -19.5t-100.5 -56t-75.5 -89t-45 -118.5q-13 -61 -8 -112t28 -88
t65.5 -57.5t104.5 -20.5q40 0 85.5 8.5t90 21.5t84 29t67.5 32z" />
    <glyph glyph-name="colon" unicode=":" horiz-adv-x="535" 
d="M304 186q130 0 108 -109q-11 -48 -47 -78t-104 -30q-72 0 -97 28t-14 82q24 107 154 107zM482 1022q130 0 108 -109q-11 -48 -47 -78t-104 -30q-72 0 -97 28t-14 83q11 54 50 80t104 26z" />
    <glyph glyph-name="semicolon" unicode=";" horiz-adv-x="525" 
d="M302 211q65 0 92.5 -27t15.5 -82l-1 -5q-13 -63 -36.5 -118t-54.5 -103t-67 -88.5t-73 -74.5l-89 46q48 65 84.5 127.5t47.5 110.5q-49 7 -65.5 34t-6.5 74q11 54 50 80t103 26zM490 1042q130 0 108 -109q-11 -48 -47 -78t-104 -30q-72 0 -97 28t-14 82q24 107 154 107z
" />
    <glyph glyph-name="less" unicode="&#x3c;" horiz-adv-x="757" 
d="M430 528l292 -311l-158 -129l-385 442l572 435l103 -128z" />
    <glyph glyph-name="equal" unicode="=" horiz-adv-x="968" 
d="M181 260l37 175h736l-37 -175h-736zM257 618l37 174h736l-37 -174h-736z" />
    <glyph glyph-name="greater" unicode="&#x3e;" horiz-adv-x="757" 
d="M258 837l159 128l386 -435l-573 -442l-102 129l424 311z" />
    <glyph glyph-name="question" unicode="?" horiz-adv-x="931" 
d="M361 1318q35 19 79 36t91 30t94.5 20.5t89.5 7.5q118 0 191 -26t111.5 -70.5t46.5 -103.5t-5 -124q-15 -75 -42.5 -129.5t-64.5 -96.5t-81.5 -76t-94.5 -68q-54 -37 -93.5 -74t-68 -83t-48 -105.5t-34.5 -140.5h-180q8 70 21.5 136.5t41 128.5t75 120t124.5 110
q45 31 81.5 56.5t64.5 52.5t47 59.5t28 76.5q18 86 -30.5 129.5t-158.5 43.5q-60 0 -126.5 -17t-146.5 -46zM410 169q112 0 91 -94q-8 -42 -39 -67.5t-89 -25.5q-115 0 -94 95q10 48 43.5 70t87.5 22z" />
    <glyph glyph-name="at" unicode="@" horiz-adv-x="2083" 
d="M663 502q28 132 87.5 232t142.5 167t185 101t215 34q59 0 112 -8t100 -21t87.5 -30t73.5 -34l-164 -770q-5 -21 3.5 -34.5t23.5 -21t35 -10.5t38 -3q45 0 82 20t67.5 56t54.5 85t44 107t36.5 123t30.5 132q69 325 -74.5 483t-503.5 158q-386 0 -619.5 -199t-318.5 -600
q-40 -187 -24.5 -322.5t85.5 -223.5t195 -131t305 -44q103 -2 193.5 10t179.5 35l-14 -151q-103 -31 -203 -43.5t-199 -12.5q-445 3 -617.5 222.5t-77.5 662.5q52 248 153.5 428.5t248.5 298t339 174t427 56.5q213 0 366 -51.5t243 -152.5t115.5 -250.5t-16.5 -345.5
q-34 -159 -82 -286t-113.5 -215.5t-149 -135.5t-188.5 -47q-115 0 -178.5 30.5t-68.5 94.5l-1 13q-68 -45 -150.5 -72.5t-193.5 -27.5q-97 0 -168 32.5t-112.5 97t-50.5 162t19 228.5zM871 508q-19 -91 -14.5 -157.5t29 -109.5t66.5 -63.5t98 -20.5q71 0 139.5 25t115.5 62
l123 578q-8 4 -24 10.5t-38.5 13t-51.5 11t-64 4.5q-67 0 -128 -23t-110.5 -67.5t-86 -110.5t-54.5 -152z" />
    <glyph glyph-name="A" unicode="A" horiz-adv-x="1346" 
d="M1077 -10q-3 78 -7.5 170.5t-12.5 196.5h-617q-53 -108 -97.5 -201.5t-78.5 -165.5l-225 10q31 69 72.5 154.5t90 181.5t102.5 198t110 203.5t112 199t108 183t98.5 156t83.5 118.5h307q23 -71 46 -179t43.5 -236t37.5 -266t30 -269.5t20 -246.5t8 -197zM913 1209
q-46 -70 -94 -150.5t-96.5 -167t-96.5 -176.5t-94 -178h511q-16 168 -39 340.5t-58 331.5h-33z" />
    <glyph glyph-name="B" unicode="B" horiz-adv-x="1238" 
d="M172 0l296 1394h449q107 0 188.5 -22.5t132.5 -67t69 -111.5t-1 -157q-12 -58 -38 -105.5t-62 -85.5t-81 -65.5t-96 -45.5l-3 -10q56 -15 97.5 -44t66.5 -70.5t31.5 -95.5t-7.5 -119q-42 -199 -182 -297t-370 -98h-490zM429 168h242q136 0 222.5 58t112.5 181
q24 112 -36 171.5t-197 59.5h-244zM564 800h214q130 0 216 59t109 165q12 56 0 95.5t-44 64.5t-81 36.5t-112 11.5h-211z" />
    <glyph glyph-name="C" unicode="C" horiz-adv-x="1217" 
d="M438 691q-56 -266 23.5 -395.5t288.5 -129.5q89 0 177.5 26.5t188.5 74.5l41 -152q-114 -62 -238.5 -97.5t-236.5 -35.5q-139 0 -243.5 39t-167 123t-77.5 215.5t24 317.5q42 196 115 335.5t172 228t220.5 130t260.5 41.5q118 0 226.5 -37t191.5 -98l-103 -152
q-78 49 -158 75.5t-168 26.5q-422 0 -537 -536z" />
    <glyph glyph-name="D" unicode="D" horiz-adv-x="1345" 
d="M172 0l296 1394h449q83 0 160.5 -15t143.5 -48t116.5 -85.5t79.5 -127.5t33 -173.5t-22 -224.5q-42 -195 -121 -332t-184 -223t-230 -125.5t-257 -39.5h-464zM433 185h238q91 0 176 32t155.5 97.5t124 164t81.5 231.5q27 129 15 223t-56 155.5t-116.5 91t-166.5 29.5
h-234z" />
    <glyph glyph-name="E" unicode="E" horiz-adv-x="1117" 
d="M172 0l296 1394h837l-42 -185h-613l-87 -412h522l-38 -176h-522l-92 -436h632l-39 -185h-854z" />
    <glyph glyph-name="F" unicode="F" horiz-adv-x="1060" 
d="M172 1l296 1393h813l-40 -185h-591l-97 -459h514l-37 -174h-514l-122 -575h-222z" />
    <glyph glyph-name="G" unicode="G" horiz-adv-x="1312" 
d="M222 695q39 183 109 318t167 223.5t218.5 132t263.5 43.5q137 0 252 -31.5t196 -80.5l-100 -155q-41 21 -86.5 36t-94.5 25.5t-98.5 15.5t-97.5 5q-92 0 -172.5 -33t-146.5 -98.5t-114.5 -163.5t-76.5 -228q-30 -140 -25 -241.5t43.5 -167t109.5 -97t173 -31.5
q61 0 119.5 9t120.5 26l68 320h-267l42 194h478l-139 -652q-47 -18 -105.5 -33.5t-120.5 -26t-125.5 -16.5t-121.5 -6q-305 0 -425.5 177t-43.5 536z" />
    <glyph glyph-name="H" unicode="H" horiz-adv-x="1458" 
d="M172 0l296 1394h222l-126 -592h668l126 592h223l-296 -1394h-223l131 617h-668l-131 -617h-222z" />
    <glyph glyph-name="I" unicode="I" horiz-adv-x="568" 
d="M172 0l296 1394h222l-296 -1394h-222z" />
    <glyph glyph-name="J" unicode="J" horiz-adv-x="796" 
d="M704 379q-21 -98 -53 -172t-80.5 -124t-116 -75.5t-157.5 -25.5q-37 0 -72.5 5.5t-68.5 14.5t-61.5 20t-51.5 23l79 166q33 -16 76 -30.5t84 -14.5q51 0 84.5 14t55.5 40t34.5 61.5t21.5 79.5l220 1033h222z" />
    <glyph glyph-name="K" unicode="K" horiz-adv-x="1275" 
d="M172 1l296 1393h221l-143 -674q100 57 201.5 135t193 167t168 184.5t127.5 187.5h240q-46 -77 -102.5 -154.5t-122 -152.5t-138 -147t-150.5 -137q13 -82 46 -183.5t79.5 -204t103.5 -196t118 -159.5l-189 -119q-56 64 -110 150t-100 182t-80.5 196.5t-51.5 193.5
q-69 -48 -139 -87.5t-140 -70.5l-107 -504h-221z" />
    <glyph glyph-name="L" unicode="L" horiz-adv-x="1052" 
d="M172 0l296 1394h222l-257 -1209h576l-39 -185h-798z" />
    <glyph glyph-name="M" unicode="M" horiz-adv-x="1805" 
d="M108 0q40 164 85 323t91 310q32 106 66.5 212t67.5 204.5t64 186.5t57 157h323l93 -1118h12l567 1118h323q-8 -148 -23.5 -333t-43.5 -423q-11 -92 -22.5 -174t-22.5 -159t-23 -152t-25 -152h-226q13 70 28 165.5t30.5 203t29.5 220t25.5 215.5t19 190.5t8.5 144.5h-14
l-578 -1138h-234l-96 1138h-14q-27 -70 -58 -161t-63 -192t-63.5 -208.5t-60.5 -210.5t-54.5 -197.5t-43.5 -169.5h-225z" />
    <glyph glyph-name="N" unicode="N" horiz-adv-x="1488" 
d="M172 0l296 1394h263q25 -42 51.5 -101.5t54 -130.5t55 -150t55.5 -159.5t55 -159t53.5 -148.5t51 -128t46.5 -97h13l224 1074h222l-296 -1394h-256q-38 65 -75.5 152.5t-74 186.5t-72 202.5t-71 200t-70 180.5t-68.5 143h-13l-223 -1065h-221z" />
    <glyph glyph-name="O" unicode="O" horiz-adv-x="1443" 
d="M1517 696q-40 -185 -118.5 -320t-183.5 -222.5t-231 -130t-261 -41.5q-140 0 -250.5 44t-179.5 132.5t-90 222.5t18 314q39 179 116.5 313.5t183.5 223.5t235 134t271 46q138 1 246.5 -44.5t175 -136t86.5 -224.5t-18 -311zM987 1227q-111 0 -201 -42t-159 -114
t-116.5 -169t-72.5 -207q-24 -104 -19 -199.5t43.5 -169t112 -117t187.5 -43.5q102 0 189.5 38t156.5 107t117.5 166.5t74.5 217.5q24 113 17.5 210.5t-45 169t-109.5 112t-176 40.5z" />
    <glyph glyph-name="P" unicode="P" horiz-adv-x="1178" 
d="M172 0l296 1394h460q114 0 198 -29t135 -85.5t67 -140t-7 -191.5q-26 -124 -85 -214t-141 -149t-183 -87.5t-210 -28.5h-208l-99 -469h-223zM532 645h210q62 0 119.5 16.5t105 51t82.5 88.5t51 130q19 87 4.5 142.5t-51 86.5t-89.5 42.5t-110 11.5h-201z" />
    <glyph glyph-name="Q" unicode="Q" horiz-adv-x="1443" 
d="M1517 696q-30 -137 -81 -246t-118.5 -192t-149.5 -140.5t-173 -90.5q42 -45 93.5 -88.5t106 -83t109.5 -73t103 -57.5l-158 -122q-61 25 -127.5 67t-131 93.5t-123.5 108.5t-105 111q-10 0 -19.5 -0.5t-19.5 -0.5q-140 0 -250.5 44t-179.5 132.5t-90 222.5t18 314
q39 179 116.5 313.5t183.5 223.5t235 134t271 46q138 1 246.5 -44.5t175 -136t86.5 -224.5t-18 -311zM987 1227q-111 0 -201 -42t-159 -114t-116.5 -169t-72.5 -207q-24 -104 -19 -199.5t43.5 -169t112 -117t187.5 -43.5q102 0 189.5 38t156.5 107t117.5 166.5t74.5 217.5
q24 113 17.5 210.5t-45 169t-109.5 112t-176 40.5z" />
    <glyph glyph-name="S" unicode="S" horiz-adv-x="1059" 
d="M187 273q67 -35 117 -56t92 -32.5t80.5 -15t82.5 -3.5q66 0 118 17t90 46t61.5 68.5t33.5 84.5q9 45 1.5 81t-33 64.5t-70 51.5t-108.5 43q-97 30 -170 61t-118.5 75t-60.5 107t5 156q19 89 64 161t114.5 123t163.5 79t210 28q101 0 195 -25.5t189 -85.5l-106 -154
q-41 23 -78.5 38.5t-74.5 24.5t-74 13t-76 4q-61 0 -112.5 -13t-90.5 -37t-65 -59t-35 -79q-11 -51 -2.5 -85t38.5 -60t83 -47.5t131 -47.5q88 -28 153 -63.5t104.5 -83t52 -109t-4.5 -142.5q-20 -93 -64.5 -170.5t-113.5 -132.5t-163.5 -85.5t-213.5 -30.5q-65 0 -123 7.5
t-113 23t-107.5 40t-106.5 58.5z" />
    <glyph glyph-name="T" unicode="T" horiz-adv-x="1093" 
d="M289 1209l40 185h1027l-40 -185h-403l-256 -1209h-222l256 1209h-402z" />
    <glyph glyph-name="U" unicode="U" horiz-adv-x="1387" 
d="M694 -18q-131 -1 -227.5 30.5t-154 98t-73.5 169.5t14 244l185 870h222l-181 -851q-21 -97 -18.5 -168t32 -117.5t88.5 -69t152 -22.5q89 0 156.5 26t116.5 74t81 117t50 155l182 856h222l-185 -870q-30 -140 -88.5 -242.5t-142.5 -169t-192.5 -98.5t-238.5 -32z" />
    <glyph glyph-name="V" unicode="V" horiz-adv-x="1311" 
d="M499 0q-29 88 -53.5 202t-45.5 241t-37.5 260t-28 258.5t-18.5 237t-8 195.5l234 10q-1 -55 3 -140.5t12 -189t20.5 -218t28 -228t34 -220t40.5 -193.5h38q32 46 72.5 111.5t85.5 143t93 163.5t95.5 173.5t92 174t83.5 164.5t70.5 144.5t51.5 114.5l230 -10
q-32 -73 -82.5 -178t-113.5 -228t-136 -257t-149 -264.5t-153 -251t-148 -215.5h-311z" />
    <glyph glyph-name="W" unicode="W" horiz-adv-x="1948" 
d="M1387 1394q-2 -84 -2.5 -183.5t1 -204.5t5.5 -212.5t10 -206.5t14.5 -186.5t20.5 -153.5h17q40 73 84.5 170t90 204t89 219t82.5 216t71 194t53 154l231 -10q-30 -97 -73.5 -215t-95.5 -245t-110 -257.5t-116 -253t-114.5 -231t-104.5 -192.5h-287q-13 64 -23.5 149
t-17.5 179.5t-12 193t-7 191t-2 173.5t3 140h-6q-26 -67 -61 -149.5t-75 -172.5t-84.5 -184.5t-91 -186t-92.5 -177t-90 -156.5h-288q-12 66 -22 168t-16 224t-8.5 257t-0.5 268t8 256t18 221l236 10q-9 -65 -16 -161.5t-12 -208.5t-7.5 -229.5t-2.5 -224.5t3.5 -194.5
t10.5 -138.5h17q42 67 91 160.5t100 199t102 217.5t96.5 217t83.5 196.5t64 156.5h236z" />
    <glyph glyph-name="X" unicode="X" horiz-adv-x="1244" 
d="M37 0q67 105 131.5 193.5t130.5 171.5q36 46 80 99t89 104t85.5 95t68.5 71q-19 35 -36.5 68.5t-36 71t-38.5 82t-44 103.5q-29 75 -51.5 158t-43.5 177l251 10q3 -19 8.5 -47t13.5 -62t18.5 -72t23.5 -77q58 -165 116 -270h10q19 20 42 44.5t50 56t59 71.5t71 92
q32 42 54.5 73t42 60.5t39.5 60t46 70.5l247 -10l-63 -94.5t-64 -92.5t-69 -93t-77 -96q-88 -103 -153.5 -174.5t-103.5 -111.5q29 -51 72 -143t87 -210q18 -48 34 -94t30 -92t26 -93.5t24 -99.5l-253 -10q-6 30 -12.5 61t-15 66.5t-20.5 77.5t-30 93q-40 116 -72.5 186.5
t-52.5 106.5h-11q-26 -25 -57.5 -59t-65 -73.5t-68 -82.5t-65.5 -85q-60 -79 -110 -154t-89 -137z" />
    <glyph glyph-name="Y" unicode="Y" horiz-adv-x="1210" 
d="M427 951q-24 65 -45 129.5t-38.5 123t-30 108t-19.5 82.5l252 10q6 -29 15.5 -71t21.5 -89t26 -96t28 -91q13 -42 29.5 -87.5t33 -87.5t32 -76.5t27.5 -53.5h11q19 19 49 53t64 76t69.5 87t66.5 87q33 44 66 91t64.5 93t59.5 88t50 77l249 -10q-55 -84 -136.5 -196.5
t-180.5 -240.5q-89 -115 -178.5 -213.5t-182.5 -198.5l-115 -545h-221l115 545q-43 88 -92.5 191t-89.5 215z" />
    <glyph glyph-name="Z" unicode="Z" horiz-adv-x="1127" 
d="M88 0l37 178q59 77 135.5 161.5t161.5 172.5t174.5 178t175 177.5t162 171.5t136.5 161l1 9h-697l40 185h949l-41 -193q-59 -80 -133 -163.5t-156 -168.5t-168 -171t-168.5 -171t-158 -168.5t-136.5 -163.5l-2 -10h678l-39 -185h-951z" />
    <glyph glyph-name="bracketleft" unicode="[" horiz-adv-x="665" 
d="M95 -298l383 1800h454l-36 -169h-243l-311 -1462h243l-36 -169h-454z" />
    <glyph glyph-name="backslash" unicode="\" horiz-adv-x="883" 
d="M606 -143l-246 1589l213 65l245 -1589z" />
    <glyph glyph-name="bracketright" unicode="]" horiz-adv-x="667" 
d="M28 -298l36 169h243l311 1462h-243l36 169h454l-383 -1800h-454z" />
    <glyph glyph-name="asciicircum" unicode="^" horiz-adv-x="1099" 
d="M501 1012l-172 55l394 359h286l239 -359l-198 -57l-217 267z" />
    <glyph glyph-name="underscore" unicode="_" horiz-adv-x="1306" 
d="M142 -14h1017l-34 -158h-1017z" />
    <glyph glyph-name="grave" unicode="`" horiz-adv-x="676" 
d="M685 1116l-233 268l180 103l169 -301z" />
    <glyph glyph-name="a" unicode="a" horiz-adv-x="1130" 
d="M181 502q28 132 88 232t143 167t185 101t215 34q58 0 111.5 -8t100.5 -21t87.5 -30t73.5 -34l-200 -943h-184l-5 99q-34 -22 -69.5 -43t-75 -37.5t-84.5 -26.5t-99 -10q-87 0 -153 32.5t-105 97t-48 162t19 228.5zM390 508q-19 -91 -14.5 -157.5t29 -109.5t66.5 -63.5
t97 -20.5q35 0 71 6.5t69.5 18.5t63 28t53.5 34l124 580q-8 4 -25 10t-41 12t-53 10t-62 4q-67 0 -127.5 -23t-110 -67.5t-86 -110t-54.5 -151.5z" />
    <glyph glyph-name="b" unicode="b" horiz-adv-x="1142" 
d="M452 1444h212l-107 -507q25 14 61.5 31.5t79 32.5t89.5 25t94 10q96 0 161.5 -35.5t101.5 -100.5t41.5 -157.5t-18.5 -207.5q-56 -267 -212 -410t-411 -143q-54 0 -109 7t-105.5 18t-94.5 24.5t-77 27.5zM397 185q40 -13 89 -20.5t99 -7.5q150 0 242 91.5t131 274.5
q15 70 13.5 132t-22.5 107.5t-62 72t-104 26.5q-30 0 -68.5 -9t-76 -22t-69 -28t-47.5 -28z" />
    <glyph glyph-name="c" unicode="c" horiz-adv-x="955" 
d="M200 519q28 131 82.5 228t128.5 161.5t165 96t191 31.5q82 0 160.5 -20.5t153.5 -70.5l-93 -144q-102 60 -222 60q-142 0 -233 -90t-127 -261t16 -262t197 -91q64 0 125.5 17t118.5 42l33 -143q-88 -45 -175 -68t-180 -23q-123 0 -200.5 40.5t-117 112t-44 170
t20.5 214.5z" />
    <glyph glyph-name="d" unicode="d" horiz-adv-x="1146" 
d="M816 0l-5 99q-71 -49 -151 -83t-177 -34q-84 0 -150 30t-106 94t-49.5 162.5t19.5 236.5q19 92 55 167.5t83 134.5t102.5 102t113.5 71.5t116.5 42t112.5 13.5q45 0 77.5 -3.5t57.5 -9.5t43.5 -13t34.5 -13l95 447h217l-306 -1444h-183zM405 508q-19 -92 -14.5 -158
t29 -109t67 -63.5t98.5 -20.5q57 0 123.5 19t128.5 60l124 585q-26 17 -75 28.5t-104 11.5q-65 0 -125 -22t-109.5 -66t-86.5 -110.5t-56 -154.5z" />
    <glyph glyph-name="e" unicode="e" horiz-adv-x="1059" 
d="M387 412q-4 -62 9 -110t45 -81t84.5 -50.5t127.5 -17.5q72 0 142 23t129 52l33 -148q-92 -47 -182.5 -72.5t-195.5 -25.5q-240 0 -337.5 136t-41.5 400q27 126 82 222.5t131.5 162t172 99.5t203.5 34q88 0 157 -26t114 -71t63 -106t3 -131q-12 -58 -40 -110.5
t-76.5 -92.5t-120.5 -63.5t-172 -23.5h-330zM743 861q-58 0 -107.5 -20t-90 -55.5t-71 -84.5t-50.5 -107h298q40 0 72.5 2t57.5 11.5t41 28.5t23 52q10 46 -2.5 79t-38.5 54t-61 30.5t-71 9.5z" />
    <glyph glyph-name="f" unicode="f" horiz-adv-x="659" 
d="M283 991l101 22l22 106q13 59 41 118.5t73 107t109 77.5t149 30q69 0 124.5 -16.5t91.5 -37.5l-82 -148q-20 8 -50.5 17t-78.5 9q-30 0 -56.5 -9.5t-48 -30.5t-38 -55.5t-27.5 -85.5l-17 -82h223l-35 -163h-223l-180 -850h-212l180 850h-96z" />
    <glyph glyph-name="g" unicode="g" horiz-adv-x="1145" 
d="M196 502q29 138 92 238.5t147.5 166t185 97.5t205.5 32q53 0 105.5 -7.5t101 -20.5t91 -30t75.5 -35l-191 -900h-2l1 -1l-1 -8q-27 -126 -80.5 -211t-125.5 -137t-158.5 -74t-180.5 -22q-41 0 -87 8t-91.5 22.5t-87 33.5t-73.5 41l89 140q47 -29 115 -52t146 -25
q57 -1 109.5 13.5t96 48.5t75.5 88.5t49 133.5l9 42q-69 -44 -146.5 -73t-174.5 -29q-191 0 -269 133.5t-25 386.5zM405 508q-36 -173 13 -262t171 -89q30 0 63.5 7t67.5 19.5t64.5 28.5t54.5 34l123 581q-19 11 -67 22.5t-111 11.5q-57 0 -115.5 -19.5t-110 -61.5t-92 -109
t-61.5 -163z" />
    <glyph glyph-name="h" unicode="h" 
d="M452 1444h212l-107 -505q30 14 70 31t85.5 31.5t94.5 24.5t97 10q93 0 150 -34.5t85 -90t31 -124.5t-12 -139l-137 -648h-209l136 643q3 12 6 33t2.5 45.5t-6.5 49t-22.5 44.5t-45 32.5t-72.5 12.5q-30 0 -72 -9.5t-84 -23.5t-78 -29.5t-55 -28.5l-163 -769h-212z" />
    <glyph glyph-name="i" unicode="i" horiz-adv-x="504" 
d="M146 0l215 1013h212l-215 -1013h-212zM546 1390q130 0 107 -110q-11 -48 -46.5 -77.5t-104.5 -29.5q-133 0 -110 109q12 56 51 82t103 26z" />
    <glyph glyph-name="j" unicode="j" horiz-adv-x="504" 
d="M-197 -177q49 -17 91.5 -26t81.5 -7q60 2 103 48.5t62 134.5l221 1040h212l-224 -1053q-7 -34 -21 -73t-36 -77t-52.5 -73t-71.5 -61.5t-93 -42t-117 -15.5q-40 0 -75.5 6t-65.5 14.5t-53 18t-36 15.5zM548 1390q130 0 107 -110q-11 -48 -47 -77.5t-104 -29.5
q-134 0 -111 109q12 56 51.5 82t103.5 26z" />
    <glyph glyph-name="k" unicode="k" horiz-adv-x="1100" 
d="M1203 1013q-81 -136 -181 -244t-211 -190q15 -69 42 -143t61 -145t73 -135t80 -113l-172 -103q-41 34 -83 95.5t-79.5 135t-66.5 150t-43 139.5q-94 -48 -184 -78l-81 -382h-212l306 1444h212l-182 -859q84 32 155 76t131.5 99t113 118.5t99.5 134.5h222v0z" />
    <glyph glyph-name="l" unicode="l" horiz-adv-x="504" 
d="M146 0l306 1444h212l-306 -1444h-212z" />
    <glyph glyph-name="m" unicode="m" horiz-adv-x="1746" 
d="M323 866q35 20 92.5 49t129.5 56t156.5 46t173.5 19q83 0 137 -27t82 -78q42 20 87.5 39t94.5 33.5t100 23.5t104 9q68 0 115.5 -15t79 -41.5t48 -62t22.5 -77t2 -86.5t-13 -90l-141 -664h-212l129 607q5 26 11.5 55t8.5 57t-1.5 54t-16.5 45.5t-38.5 31t-67.5 11.5
q-35 0 -75 -9.5t-78 -24t-71.5 -31.5t-55.5 -32q-2 -26 -5 -54t-10 -57l-138 -653h-212l135 636q7 33 12.5 72.5t-2 73.5t-33.5 56.5t-82 22.5q-38 0 -77.5 -9t-76 -22t-67.5 -28.5t-52 -27.5l-164 -774h-215z" />
    <glyph glyph-name="n" unicode="n" 
d="M329 865q40 24 100 53.5t134 56t158.5 44t172.5 17.5q100 0 161 -31t91.5 -83t33.5 -120.5t-13 -143.5l-139 -658h-212l137 645q7 36 8 74t-12 69t-43.5 50.5t-85.5 19.5q-38 0 -80 -9.5t-82.5 -24t-76.5 -31t-61 -29.5l-162 -764h-212z" />
    <glyph glyph-name="o" unicode="o" horiz-adv-x="1157" 
d="M199 516q25 120 78.5 216t131 163.5t176 104t214.5 36.5q63 0 121 -12.5t106.5 -38.5t85.5 -67.5t58 -99.5t23.5 -133.5t-17.5 -169.5q-27 -129 -81.5 -228.5t-132 -167t-175.5 -102.5t-212 -35t-197 34t-132 101.5t-62 167.5t15 231zM407 515q-21 -98 -14.5 -166
t34.5 -110.5t75.5 -62t110.5 -19.5t119 20t102 63.5t80.5 111.5t54.5 163q19 90 12 155t-35 107.5t-75 63t-108 20.5q-63 0 -119.5 -21t-103 -64t-80.5 -108t-53 -153z" />
    <glyph glyph-name="p" unicode="p" horiz-adv-x="1145" 
d="M333 881q33 21 88 47.5t121 50t136.5 39.5t135.5 16q111 0 190 -27.5t124 -88.5t54 -159t-21 -238q-22 -103 -67.5 -200t-115.5 -172.5t-163.5 -121t-211.5 -45.5q-51 0 -87.5 4t-64 10t-49 13t-40.5 14l-87 -409h-212zM398 192q16 -6 34 -12t40.5 -11.5t51 -8.5t65.5 -3
q83 0 146 33.5t108 86.5t73.5 117.5t41.5 126.5q19 88 14 151.5t-29.5 104.5t-68 60t-101.5 19q-36 0 -73 -8.5t-70 -21t-61 -26.5t-47 -25z" />
    <glyph glyph-name="q" unicode="q" horiz-adv-x="1145" 
d="M197 504q28 135 90 235t146.5 166t188 98.5t215.5 32.5q51 0 101.5 -8t97 -20.5t88 -29.5t75.5 -35l-282 -1325h-212l98 458q-68 -41 -140 -67.5t-158 -26.5q-99 0 -170 34t-110.5 100t-47 163.5t19.5 224.5zM408 519q-38 -178 8 -270t179 -92q27 0 58.5 5.5t63 15.5
t62 23.5t56.5 28.5l128 599q-32 18 -81 25t-108 7q-51 0 -107.5 -20t-107.5 -61.5t-91.5 -106t-59.5 -154.5z" />
    <glyph glyph-name="r" unicode="r" horiz-adv-x="814" 
d="M345 886q185 111 351 137.5t312 -20.5l-67 -165q-45 9 -93.5 12.5t-99.5 -2.5t-105 -24t-110 -52l-164 -772h-212z" />
    <glyph glyph-name="s" unicode="s" horiz-adv-x="898" 
d="M173 233q80 -44 152 -61.5t142 -17.5q39 0 73.5 11.5t61.5 30.5t45.5 43t24.5 50q5 23 0 42.5t-25.5 38.5t-58 39t-97.5 44q-59 22 -110 45t-85.5 56t-49 80t0.5 117q15 71 54 124.5t96 89t128.5 53.5t150.5 18q102 0 178.5 -20t141.5 -58l-92 -149q-65 28 -118 40.5
t-107 12.5q-94 0 -153 -29.5t-73 -93.5q-7 -32 8.5 -51.5t44 -33.5t65.5 -25t73 -24q77 -28 127.5 -60t78 -71t33.5 -86t-6 -105q-14 -65 -53 -120.5t-96.5 -95.5t-130 -62.5t-153.5 -22.5q-68 0 -124.5 9t-102.5 22.5t-80.5 30.5t-58.5 32z" />
    <glyph glyph-name="t" unicode="t" horiz-adv-x="795" 
d="M300 992l123 21l79 248h186l-53 -248h234l-35 -163h-234l-113 -533q-8 -36 -8.5 -65.5t8.5 -50.5t27.5 -32.5t50.5 -11.5q51 0 87.5 12t71.5 25l23 -145q-32 -15 -62.5 -27.5t-63 -21t-68.5 -13.5t-78 -5q-60 0 -106 19t-73.5 57.5t-34.5 98t10 140.5l117 553h-118z" />
    <glyph glyph-name="u" unicode="u" 
d="M347 1013h212l-128 -601q-16 -74 -9 -123.5t30.5 -78.5t61.5 -41t85 -12q72 0 135 20.5t119 59.5l165 776h212l-215 -1013h-184l-5 98q-27 -21 -62 -42t-75.5 -37.5t-85.5 -26.5t-93 -10q-99 0 -165 30t-101 84t-42 129t12 165z" />
    <glyph glyph-name="v" unicode="v" horiz-adv-x="1063" 
d="M400 0q-87 238 -122 494t-24 519l231 10q-6 -55 -6.5 -124.5t2.5 -145.5t10.5 -154.5t18.5 -153t25 -140.5t31 -116h12q37 49 77.5 112.5t82 134.5t81 147.5t76 152.5t67 149t52.5 138l226 -10q-48 -131 -110.5 -261.5t-135.5 -259t-156 -252t-173 -240.5h-265z" />
    <glyph glyph-name="w" unicode="w" horiz-adv-x="1681" 
d="M1823 1013q-41 -128 -94 -256.5t-114.5 -255.5t-130 -252.5t-140.5 -248.5h-278q-35 181 -54.5 361.5t-14.5 368.5h-5q-83 -208 -180.5 -386.5t-198.5 -343.5h-276q-14 75 -26 159.5t-20.5 173t-13.5 179t-5.5 178t2.5 169.5t12 154l227 10q-12 -92 -18.5 -197.5
t-7 -213.5t5.5 -214.5t19 -200.5h8q70 110 131 223t112 220t90 202.5t66 170.5h272q-9 -82 -9 -185.5t7.5 -213t21 -218t30.5 -199.5h9q31 54 65.5 123.5t69.5 145.5t69 155.5t62.5 153t50.5 138t34 110.5z" />
    <glyph glyph-name="x" unicode="x" horiz-adv-x="1003" 
d="M34 0q18 34 37.5 67.5t43 69.5t52 75.5t63.5 84.5t67.5 79.5t62 62t56 49.5t50.5 43q-37 57 -73.5 112.5t-59.5 118.5q-26 75 -41 137t-19 114l231 3q3 -52 10.5 -93.5t22.5 -89.5q17 -56 42.5 -99t51.5 -77h9q22 19 43 38t41 39.5t41 44.5t45 54q35 46 61 89t48 94
l231 -3q-17 -33 -32.5 -61t-34.5 -57t-42.5 -61t-55.5 -71q-34 -42 -63.5 -73t-57.5 -57t-56 -50t-58 -51q13 -17 31.5 -42.5t38 -56.5t37 -65t29.5 -68q21 -61 33.5 -102t19.5 -73t11 -60.5t9 -64.5l-234 -3q-1 24 -3.5 47t-7 49t-12 55.5t-19.5 65.5q-9 26 -20.5 54.5
t-24 55t-26 49t-25.5 36.5h-8q-16 -14 -38 -35t-47 -47t-50.5 -56t-47.5 -60q-29 -39 -49 -69.5t-35 -55t-25.5 -46t-20.5 -43.5z" />
    <glyph glyph-name="y" unicode="y" horiz-adv-x="1072" 
d="M101 -377q37 36 80 80.5t87.5 94t88 101t81.5 101.5h-32q-94 259 -125.5 511t-15.5 502l229 10q-10 -109 -10 -222t9.5 -222t28 -210t46.5 -187h12q78 102 145.5 217t123 228t96.5 215.5t66 180.5l225 -10q-27 -81 -65.5 -170.5t-85 -182.5t-99 -185t-107 -178
t-109 -161.5t-104.5 -135.5q-33 -44 -82 -106.5t-103 -129t-108.5 -130.5t-97.5 -112z" />
    <glyph glyph-name="z" unicode="z" horiz-adv-x="992" 
d="M304 837l38 176h757l-32 -152q-73 -89 -161 -173.5t-179.5 -168t-180 -168t-163.5 -172.5l-1 -4h548l-37 -175h-810l34 160q73 87 161.5 169.5t179 165t178.5 166t160 172.5v4h-492z" />
    <glyph glyph-name="braceleft" unicode="{" horiz-adv-x="735" 
d="M261 676q103 21 153 81t64 162l30 213q15 100 48.5 171t87.5 116t130 66.5t175 21.5h34t34 -2l-42 -162q-6 0 -18 0.5t-27 -1.5q-47 0 -81 -8.5t-57.5 -28.5t-39 -52.5t-25.5 -81.5q-8 -36 -14 -77t-12 -81t-11 -75t-11 -60q-13 -63 -32 -108t-46.5 -76.5t-65 -53
t-87.5 -37.5q44 -18 73 -39.5t43.5 -54.5t13.5 -80.5t-17 -116.5q-13 -54 -34.5 -122t-38.5 -146q-10 -47 -11.5 -81t12 -56t43.5 -32.5t83 -10.5q10 -2 22 -1.5t23 0.5l-26 -163q-20 -2 -38 -1.5t-35 0.5q-116 1 -183 27.5t-96 77t-24.5 125t31.5 170.5l49 178
q14 50 20.5 89t-3.5 69.5t-39 53t-86 39.5z" />
    <glyph glyph-name="bar" unicode="|" horiz-adv-x="495" 
d="M70 -351l394 1853h206l-394 -1853h-206z" />
    <glyph glyph-name="braceright" unicode="}" horiz-adv-x="766" 
d="M754 528q-64 -17 -102.5 -39.5t-61 -53t-33.5 -69.5t-18 -89l-25 -178q-14 -96 -41.5 -170.5t-78 -125t-129 -77t-193.5 -27.5q-18 0 -36.5 -0.5t-35.5 1.5l40 163q12 0 24.5 -0.5t23.5 1.5q52 0 86.5 10.5t57 32.5t35.5 56t23 81q17 78 24.5 146t17.5 122
q13 69 32.5 116.5t48 80.5t67 54.5t89.5 39.5q-44 16 -72.5 37.5t-43 53t-14 76.5t14.5 108q5 25 14.5 60t20.5 75t21.5 81t18.5 77q10 49 9.5 81.5t-15.5 52.5t-45 28.5t-77 8.5q-16 2 -28 1.5t-18 -0.5l27 162q18 2 35 2h34q99 0 166 -21.5t102 -66.5t38.5 -116
t-24.5 -171l-61 -213q-29 -103 -5 -162.5t118 -80.5z" />
    <glyph glyph-name="asciitilde" unicode="~" horiz-adv-x="1190" 
d="M196 514q78 100 167.5 146.5t195.5 46.5q53 0 97 -16t83.5 -35t77 -35t78.5 -16q31 0 56 3t48 12t46.5 26t52.5 44l118 -76q-39 -53 -82.5 -88.5t-89 -57t-92 -31t-89.5 -9.5q-53 0 -98 16t-85.5 35t-79 35t-78.5 16q-35 0 -62 -5t-50.5 -16.5t-46 -29t-49.5 -41.5z" />
    <glyph glyph-name="exclamdown" unicode="&#xa1;" horiz-adv-x="521" 
d="M341 804h189l-191 -989h-226zM486 1020q-130 0 -108 106q23 110 157 110q68 0 92 -29.5t13 -77.5q-22 -109 -154 -109z" />
    <glyph glyph-name="sterling" unicode="&#xa3;" horiz-adv-x="1142" 
d="M292 680h111q-2 42 -8 81t-10 81t-3 89.5t13 106.5q16 75 51.5 142.5t92 119t134.5 82t178 30.5q73 0 130 -8.5t105.5 -24t91.5 -38t87 -49.5l-97 -154q-29 18 -60 34.5t-68.5 29t-82.5 19.5t-103 7q-45 0 -84.5 -15t-72 -43t-55.5 -68t-33 -89q-12 -54 -11.5 -96.5
t6 -81t12.5 -76t8 -79.5h281l-27 -126h-267q-11 -49 -27 -102.5t-38 -105t-49.5 -97.5t-61.5 -80q42 4 80 1.5t75.5 -7t76 -9t79.5 -4.5q82 0 153 14.5t117 32.5l28 -151q-29 -15 -68.5 -27t-84 -20.5t-90 -12.5t-85.5 -4q-45 0 -91 3.5t-93 7.5t-93.5 7.5t-92.5 3.5
q-32 0 -65 -3.5t-62 -7.5q-33 -5 -65 -11l35 166q34 23 65 64.5t56.5 95t46 116.5t35.5 130h-127z" />
    <glyph glyph-name="yen" unicode="&#xa5;" horiz-adv-x="1266" 
d="M1048 238h-700l32 148h700zM1098 471h-700l31 148h700zM462 951q-24 65 -45 129.5t-38.5 123t-30 108t-19.5 82.5l252 10q6 -29 15.5 -71t21.5 -89t26 -96t28 -91q13 -42 29.5 -87.5t33 -87.5t32 -76.5t27.5 -53.5h11q19 19 49 53t64 76t69.5 87t66.5 87q33 44 66 91
t64.5 93t59.5 88t50 77l249 -10q-55 -84 -136.5 -196.5t-180.5 -240.5q-89 -115 -178.5 -213.5t-182.5 -198.5l-115 -545h-221l115 545q-43 88 -92.5 191t-89.5 215z" />
    <glyph glyph-name="brokenbar" unicode="&#xa6;" horiz-adv-x="497" 
d="M75 -328l159 751h208l-159 -751h-208zM303 748l167 784h208l-167 -784h-208z" />
    <glyph glyph-name="section" unicode="&#xa7;" horiz-adv-x="963" 
d="M173 212q43 -21 82.5 -34.5t76 -20.5t72 -9.5t70.5 -2.5q43 0 78.5 11.5t62 30.5t43.5 44.5t23 53.5t0 51t-27 43.5t-58.5 40t-94.5 40.5q-57 20 -107.5 43t-85 57.5t-48.5 83.5t1 121q11 50 35 93.5t59 79.5t79.5 63t95.5 45q-39 37 -56.5 88t-1.5 125q15 72 54.5 125.5
t97 89t131.5 53t158 17.5q91 0 165 -19.5t140 -58.5l-87 -140q-64 27 -118.5 40t-108.5 13q-44 0 -82.5 -8t-68.5 -24.5t-49.5 -40.5t-26.5 -55q-7 -33 8 -54.5t42.5 -36.5t64.5 -27t74 -25q75 -27 126.5 -56t80 -65.5t35.5 -84.5t-7 -113q-21 -101 -92.5 -173t-178.5 -104
q45 -44 59 -100t-2 -131q-14 -68 -51.5 -123t-94 -94t-130 -60.5t-158.5 -21.5q-66 0 -125.5 10.5t-107.5 25t-82.5 30.5t-51.5 28zM452 776q-8 -38 11 -63t54 -44q48 -19 93.5 -29.5t88.5 -10.5t78.5 11t62 30t44 44.5t23.5 53.5q5 24 1.5 43.5t-17.5 37.5t-39 34.5
t-63 33.5q-24 7 -46.5 11t-43.5 4q-44 0 -85.5 -12.5t-75 -34t-56.5 -50t-30 -59.5z" />
    <glyph glyph-name="dieresis" unicode="&#xa8;" horiz-adv-x="884" 
d="M690 1328q110 0 91 -94q-9 -42 -40 -67.5t-89 -25.5q-113 0 -94 95q20 92 132 92zM1034 1328q110 0 91 -94q-9 -42 -40.5 -67.5t-88.5 -25.5q-113 0 -94 95q20 92 132 92z" />
    <glyph glyph-name="copyright" unicode="&#xa9;" horiz-adv-x="1560" 
d="M223 694q22 102 66 195t106 172.5t139.5 144t166 110.5t185.5 70.5t199 24.5q157 0 277 -55.5t195 -152t100.5 -226.5t-5.5 -280q-32 -152 -113.5 -283t-197.5 -227.5t-259.5 -151.5t-299.5 -55q-158 0 -277.5 54t-193 149.5t-97.5 226.5t9 284zM367 694
q-27 -125 -7 -231t79.5 -183.5t154 -121t216.5 -43.5t236 44.5t208 122.5t160 184t92 229t4.5 229.5t-82 185t-155.5 124t-216 45.5q-117 0 -229 -42.5t-205 -119.5t-160.5 -184.5t-95.5 -238.5zM548 702q27 126 74.5 213t111.5 140t140.5 76.5t161.5 23.5q69 0 136.5 -18
t132.5 -62l-76 -119q-46 28 -97.5 40.5t-103.5 12.5q-63 0 -113 -17t-88.5 -54.5t-66 -97.5t-45.5 -146q-18 -84 -16.5 -144.5t23.5 -98.5t66 -56t111 -18q57 0 111 14.5t107 37.5l26 -118q-155 -79 -304 -79q-105 0 -172.5 31t-102 90.5t-37.5 147t21 201.5z" />
    <glyph glyph-name="ordfeminine" unicode="&#xaa;" horiz-adv-x="924" 
d="M483 1440q29 15 62 29t70.5 25t80 17.5t92.5 6.5q66 0 122 -14t93.5 -47.5t51.5 -89t-4 -138.5l-114 -533h-146l1 78q-16 -12 -42.5 -28t-62 -30.5t-77.5 -24.5t-88 -10q-55 0 -99 13t-71.5 43t-36.5 78.5t6 118.5q13 62 46.5 107.5t80 76t103 47.5t116.5 22l213 18l7 34
q6 27 4.5 52.5t-17 45.5t-48 32t-89.5 12q-60 0 -117.5 -20t-110.5 -40zM854 1083l-198 -18q-26 -2 -52.5 -8.5t-49.5 -20.5t-40 -37.5t-25 -60.5q-8 -38 -3 -60.5t20 -34.5t39.5 -15.5t54.5 -3.5t61.5 5.5t60 14.5t52 20.5t38.5 22.5z" />
    <glyph glyph-name="guillemotleft" unicode="&#xab;" horiz-adv-x="1169" 
d="M448 529l193 -335l-185 -106l-236 442l423 435l138 -106zM923 529l193 -335l-184 -106l-236 442l423 435l138 -106z" />
    <glyph glyph-name="logicalnot" unicode="&#xac;" horiz-adv-x="1165" 
d="M228 636l36 172h926l-101 -474h-184l65 302h-742z" />
    <glyph glyph-name="registered" unicode="&#xae;" horiz-adv-x="1459" 
d="M236 695q33 153 114.5 284.5t197.5 227.5t257.5 150.5t294.5 54.5q157 0 277 -55.5t195 -152t100.5 -226.5t-6.5 -280q-22 -101 -65.5 -194t-106 -172.5t-140.5 -144t-167.5 -110.5t-188 -71t-202.5 -25q-158 0 -277.5 54t-193 149.5t-98 226.5t8.5 284zM380 695
q-27 -125 -7 -232t79 -185t153.5 -122t216.5 -44t237 45t208.5 124t160 185.5t92.5 229.5t4.5 229.5t-82 185t-155.5 124t-216 45.5q-117 0 -229 -42.5t-205.5 -119.5t-161 -184.5t-95.5 -238.5zM1108 241q-32 38 -58.5 82t-47.5 89.5t-36.5 92.5t-26.5 91q-3 -1 -9 -1h-139
l-70 -327h-157l192 903h291q73 0 129.5 -18.5t92 -53.5t48 -87t-1.5 -119q-11 -52 -35.5 -93.5t-57 -73t-70.5 -54.5t-76 -39q12 -37 28 -78t37 -82.5t47 -81.5t58 -75zM819 714h163q32 0 63 12.5t57 34.5t45 53t27 69q9 43 0.5 72.5t-28 48.5t-47.5 27.5t-58 8.5h-152z" />
    <glyph glyph-name="degree" unicode="&#xb0;" horiz-adv-x="793" 
d="M680 1304q-38 0 -71.5 -8t-60.5 -26.5t-46 -48.5t-28 -73q-19 -86 18.5 -123.5t121.5 -37.5q46 0 80 12.5t57.5 33.5t38 49.5t21.5 61.5q9 44 4 74.5t-22.5 49.5t-46 27.5t-66.5 8.5zM704 1412q69 0 120 -15.5t81.5 -48t39.5 -83t-6 -121.5q-12 -56 -38 -104t-68 -83
t-101 -55.5t-138 -20.5q-148 0 -213 64t-35 204q15 71 47 121t78 81.5t105 46t128 14.5z" />
    <glyph glyph-name="plusminus" unicode="&#xb1;" horiz-adv-x="968" 
d="M526 605h-272l38 178h272l57 268h191l-57 -268h273l-38 -178h-273l-58 -275h-191zM126 4l37 174h736l-37 -174h-736z" />
    <glyph glyph-name="acute" unicode="&#xb4;" horiz-adv-x="676" 
d="M410 1186l297 301l136 -103l-347 -268z" />
    <glyph glyph-name="paragraph" unicode="&#xb6;" horiz-adv-x="1344" 
d="M502 -268l182 859h-76q-109 0 -181.5 29t-111.5 82t-47.5 126.5t10.5 163.5q16 77 53 149.5t96.5 128.5t144 90t197.5 34h309l-353 -1662h-223zM895 -268l353 1662h221l-353 -1662h-221z" />
    <glyph glyph-name="cedilla" unicode="&#xb8;" horiz-adv-x="670" 
d="M17 -302q32 -9 58 -12t55 -3q45 0 74.5 18t37.5 54q10 43 -17 58.5t-83 15.5q-17 0 -38 -1t-42 -3l99 165h157l-52 -83q69 -6 104.5 -44.5t18.5 -118.5q-19 -91 -86 -135t-171 -44q-52 0 -92 8t-75 22z" />
    <glyph glyph-name="guillemotright" unicode="&#xbb;" horiz-adv-x="1200" 
d="M766 859l184 106l237 -435l-424 -442l-138 106l335 335zM290 859l184 106l238 -435l-425 -442l-138 106l335 335z" />
    <glyph glyph-name="questiondown" unicode="&#xbf;" horiz-adv-x="891" 
d="M816 -96q-35 -19 -79 -36t-91 -30t-94.5 -21t-89.5 -8q-118 0 -191 26t-111.5 70.5t-46.5 103.5t5 124q15 75 42 129.5t63.5 96.5t81.5 76t95 68q54 37 93 74.5t67.5 83.5t48.5 105t35 140h180q-8 -69 -21 -135.5t-41 -129t-75 -120t-124 -109.5q-45 -31 -81.5 -56.5
t-64.5 -53t-47 -60t-28 -76.5q-18 -86 30.5 -129t157.5 -43q60 0 126.5 16.5t147.5 46.5zM766 1052q-110 0 -91 95q9 42 40 67.5t89 25.5q114 0 94 -95q-11 -48 -44.5 -70.5t-87.5 -22.5z" />
    <glyph glyph-name="AE" unicode="&#xc6;" horiz-adv-x="1864" 
d="M914 0l76 360h-526q-39 -65 -72.5 -122t-59.5 -103.5t-44.5 -81t-26.5 -53.5h-237q25 53 65 129.5t95 172.5t124.5 210.5t153.5 244.5q67 105 134.5 200.5t129.5 177.5t116 147.5t94 111.5h1117l-41 -185h-627l-87 -412h536l-38 -176h-536l-92 -436h646l-39 -185h-861z
M570 534h457l143 674l-131 -1q-22 -30 -64 -85.5t-96.5 -129.5t-118 -165.5t-129.5 -193.5z" />
    <glyph glyph-name="Eth" unicode="&#xd0;" horiz-adv-x="1345" 
d="M667 619h-551l32 148h551zM172 0l296 1394h449q83 0 160.5 -15t143.5 -48t116.5 -85.5t79.5 -127.5t33 -173.5t-22 -224.5q-42 -195 -121 -332t-184 -223t-230 -125.5t-257 -39.5h-464zM433 185h238q91 0 176 32t155.5 97.5t124 164t81.5 231.5q27 129 15 223t-56 155.5
t-116.5 91t-166.5 29.5h-234z" />
    <glyph glyph-name="multiply" unicode="&#xd7;" horiz-adv-x="961" 
d="M484 591l-153 190l162 130l152 -189l233 189l107 -131l-234 -189l155 -190l-163 -130l-154 189l-233 -189l-106 130z" />
    <glyph glyph-name="Thorn" unicode="&#xde;" horiz-adv-x="1222" 
d="M685 1394l-47 -219h253q120 0 208.5 -28t141.5 -83.5t69 -139t-8 -195.5q-27 -126 -86 -216t-140.5 -147.5t-182 -85t-209.5 -27.5h-242l-53 -253h-223l296 1394h223zM479 427h240q63 0 121.5 15t106.5 49t83 88.5t52 132.5q19 88 4 143.5t-53.5 86.5t-95.5 42.5
t-121 11.5h-216z" />
    <glyph glyph-name="germandbls" unicode="&#xdf;" horiz-adv-x="1267" 
d="M142 0l269 1269q86 76 202 120t258 44q97 0 164.5 -26.5t107 -69.5t52.5 -96.5t1 -107.5q-11 -51 -26 -87.5t-36.5 -65.5t-51.5 -54.5t-70 -54.5q-50 -35 -85 -64.5t-42 -66.5q-4 -19 3.5 -34.5t26 -31.5t48 -34t69.5 -42q42 -26 78 -53t59.5 -62.5t32 -81t-4.5 -108.5
q-15 -70 -52 -127t-93 -98t-129 -63.5t-161 -22.5q-95 0 -179.5 23t-156.5 58l88 146q27 -12 55.5 -23.5t60.5 -20.5t69 -14.5t81 -5.5q34 0 68 10t63 29t49.5 46t28.5 62q7 35 0.5 58.5t-25 42.5t-48.5 36.5t-70 40.5q-49 26 -86.5 51t-60.5 54t-31.5 64.5t1.5 81.5
q8 39 22.5 68.5t36.5 55.5t53.5 51t73.5 54q25 17 46.5 32t38 32t28 37.5t17.5 47.5q7 34 -2 61.5t-31.5 46.5t-56.5 29.5t-76 10.5q-60 0 -110 -15t-104 -51l-251 -1181h-212z" />
    <glyph glyph-name="ae" unicode="&#xe6;" horiz-adv-x="1768" 
d="M190 502q28 132 87.5 232t142.5 167t185.5 101t215.5 34q55 0 105.5 -7t95.5 -19t84 -27.5t72 -31.5q137 85 309 85q88 0 157 -26t114 -71t63 -106t3 -131q-12 -58 -40 -110.5t-76.5 -92.5t-120.5 -63.5t-172 -23.5h-329q-4 -62 9 -110t45 -81t84 -50.5t127 -17.5
q72 0 142 23t130 52l33 -148q-92 -47 -182.5 -72.5t-196.5 -25.5q-173 0 -273 71l-11 -53h-183l-5 99q-34 -22 -69.5 -43t-75 -37.5t-85 -26.5t-99.5 -10q-87 0 -152.5 32.5t-104.5 97t-48 162t19 228.5zM398 508q-19 -91 -14 -157.5t29.5 -109.5t66.5 -63.5t97 -20.5
q35 0 71 6.5t69.5 18.5t63 28t53.5 34l124 580q-8 4 -25 10t-41 12t-53 10t-62 4q-68 0 -128.5 -23t-110 -67.5t-86 -110t-54.5 -151.5zM1442 861q-58 0 -108 -21.5t-91 -59t-72 -88t-51 -108.5h298q40 0 73.5 3.5t58 15t41 32t23.5 53.5q10 46 -2.5 79t-38.5 54t-61 30.5
t-70 9.5z" />
    <glyph glyph-name="eth" unicode="&#xf0;" horiz-adv-x="1119" 
d="M651 1151l128 109q-76 43 -166 73l87 147q130 -37 227 -94l142 120l105 -105l-127 -108q51 -51 86 -115.5t52 -144t14.5 -174.5t-26.5 -207q-35 -164 -88 -289t-129 -209.5t-178 -128t-235 -43.5q-114 0 -194.5 34.5t-127 97.5t-59 150.5t10.5 193.5q24 111 77.5 199.5
t125.5 150t157.5 94t172.5 32.5q94 0 169.5 -20.5t130.5 -54.5q6 101 -23 176.5t-83 132.5l-149 -126zM379 453q-14 -67 -8 -123t32 -96t70.5 -63t107.5 -24q93 -1 157 36.5t108.5 109t74.5 173.5t54 229q-34 20 -64.5 34.5t-60.5 23.5t-61.5 13.5t-68.5 4.5
q-61 0 -116.5 -23.5t-100.5 -66t-77 -101t-47 -127.5z" />
    <glyph glyph-name="divide" unicode="&#xf7;" horiz-adv-x="961" 
d="M230 490l37 175h736l-37 -175h-736zM574 367q110 0 91 -94q-9 -42 -40 -67.5t-89 -25.5q-115 0 -94 95q10 48 44 70t88 22zM701 965q111 0 90 -95q-8 -42 -39 -67t-89 -25q-115 0 -94 94q10 48 44 70.5t88 22.5z" />
    <glyph glyph-name="thorn" unicode="&#xfe;" horiz-adv-x="1128" 
d="M659 1418l-88 -415q54 14 109 23.5t106 9.5q108 0 191.5 -29t135 -91.5t66.5 -161.5t-15 -239q-22 -103 -66.5 -199t-114.5 -170.5t-166 -119t-220 -44.5q-47 0 -83.5 5t-64.5 12.5t-48.5 16.5t-35.5 17l-26 -121l-212 3l320 1503h212zM405 222q20 -14 41 -25.5t46 -20.5
t54 -14t66 -5q76 0 134.5 33.5t101 86.5t70 117.5t40.5 126.5q19 88 11 152.5t-37 106t-77 61.5t-109 20q-54 0 -111 -17t-106 -37zM339 -88l-76 -358h-212l76 361z" />
    <glyph glyph-name="OE" unicode="&#x152;" horiz-adv-x="1816" 
d="M925 0q-46 -9 -94 -14t-96 -4q-142 0 -253.5 40t-180.5 125.5t-89 220.5t21 327q41 190 118.5 326t182.5 222.5t233.5 127t271.5 41.5q93 0 173 -18h774l-42 -185h-627l-87 -412h536l-38 -176h-536l-92 -436h646l-39 -185h-782zM774 166q58 0 109 12l220 1032
q-22 8 -48.5 12.5t-55.5 4.5q-111 0 -200.5 -38t-158 -107.5t-116 -168t-74.5 -218.5q-24 -114 -19 -211t43 -167.5t112 -110.5t188 -40z" />
    <glyph glyph-name="oe" unicode="&#x153;" horiz-adv-x="1839" 
d="M209 516q25 120 78.5 216t131 163.5t176 104t214.5 36.5q63 0 121 -12.5t106.5 -38.5t85.5 -67.5t58 -99.5t23.5 -133.5t-17.5 -169.5q-27 -129 -81.5 -228.5t-132 -167t-175.5 -102.5t-212 -35t-197 34t-132 101.5t-62 167.5t15 231zM417 515q-21 -98 -14.5 -166
t34.5 -110.5t75.5 -62t110.5 -19.5t119 20t102 63.5t80.5 111.5t54.5 163q19 90 12 155t-35 107.5t-75 63t-108 20.5q-63 0 -119.5 -21t-103 -64t-80.5 -108t-53 -153zM1171 412q-4 -62 9 -110t45 -81t84.5 -50.5t127.5 -17.5q72 0 142 23t129 52l33 -148
q-92 -47 -182.5 -72.5t-195.5 -25.5q-240 0 -337.5 136t-41.5 400q27 126 82 222.5t131.5 162t172 99.5t203.5 34q88 0 157 -26t114 -71t63 -106t3 -131q-12 -58 -40 -110.5t-76.5 -92.5t-120.5 -63.5t-172 -23.5h-330zM1527 861q-58 0 -107.5 -20t-90 -55.5t-71 -84.5
t-50.5 -107h298q40 0 72.5 2t57.5 11.5t41 28.5t23 52q10 46 -2.5 79t-38.5 54t-61 30.5t-71 9.5z" />
    <glyph glyph-name="circumflex" unicode="&#x2c6;" horiz-adv-x="883" 
d="M470 1123l-121 39l269 264h237l155 -264l-140 -41l-159 189z" />
    <glyph glyph-name="tilde" unicode="&#x2dc;" horiz-adv-x="933" 
d="M412 1220q57 75 125 115t147 40q39 0 71 -11.5t61.5 -26t57 -26t57.5 -11.5q22 0 38 2.5t30.5 10t29.5 20t36 32.5l100 -71q-29 -39 -61.5 -68t-67 -48t-69 -28.5t-66.5 -9.5q-39 0 -72 11.5t-63 25.5t-58 25.5t-58 11.5q-26 0 -43 -3.5t-32 -11t-29.5 -19.5t-33.5 -30z
" />
    <glyph glyph-name="endash" unicode="&#x2013;" horiz-adv-x="1232" 
d="M167 469l39 184h1076l-39 -184h-1076z" />
    <glyph glyph-name="emdash" unicode="&#x2014;" horiz-adv-x="2227" 
d="M162 469l39 184h2093l-39 -184h-2093z" />
    <glyph glyph-name="quoteleft" unicode="&#x2018;" horiz-adv-x="471" 
d="M423 950q-131 0 -107 109q12 64 36 120t55 104t67 89t73 75l90 -45q-47 -65 -84 -127.5t-49 -110.5q49 -7 66 -34t7 -74q-11 -54 -50 -80t-104 -26z" />
    <glyph glyph-name="quoteright" unicode="&#x2019;" horiz-adv-x="471" 
d="M533 1405q65 0 92.5 -27t15.5 -82l-1 -5q-13 -63 -36.5 -118t-54.5 -103t-67 -88.5t-73 -74.5l-89 46q48 65 84.5 127.5t47.5 110.5q-49 7 -65.5 34t-6.5 74q11 54 50 80t103 26z" />
    <glyph glyph-name="quotesinglbase" unicode="&#x201a;" horiz-adv-x="473" 
d="M282 211q65 0 92.5 -27t15.5 -82l-1 -5q-13 -63 -36.5 -118t-54.5 -103t-67 -88.5t-73 -74.5l-89 46q48 65 84.5 127.5t47.5 110.5q-49 7 -65.5 34t-6.5 74q11 54 50 80t103 26z" />
    <glyph glyph-name="quotedblleft" unicode="&#x201c;" horiz-adv-x="752" 
d="M727 923q-131 0 -107 109q12 64 36 120t55 104t67 89t73 75l90 -45q-47 -65 -84 -127.5t-49 -110.5q49 -7 66 -34t7 -74q-11 -54 -50 -80t-104 -26zM397 923q-131 0 -107 109q12 64 36 120t55 104t67 89t73 75l90 -45q-47 -65 -84 -127.5t-49 -110.5q49 -7 66 -34t7 -74
q-11 -54 -50 -80t-104 -26z" />
    <glyph glyph-name="quotedblright" unicode="&#x201d;" horiz-adv-x="759" 
d="M505 1424q65 0 92.5 -27t15.5 -82l-1 -5q-13 -63 -36.5 -118t-54.5 -103t-67 -88.5t-73 -74.5l-89 46q48 65 84.5 127.5t47.5 110.5q-49 7 -65.5 34t-6.5 74q11 54 50 80t103 26zM851 1424q65 0 92.5 -27t15.5 -82l-1 -5q-13 -63 -36.5 -118t-54.5 -103t-67 -88.5
t-73 -74.5l-89 46q48 65 84.5 127.5t47.5 110.5q-49 7 -65.5 34t-6.5 74q11 54 50 80t103 26z" />
    <glyph glyph-name="quotedblbase" unicode="&#x201e;" horiz-adv-x="779" 
d="M259 211q65 0 92.5 -27t15.5 -82l-1 -5q-13 -63 -36.5 -118t-54.5 -103t-67 -88.5t-73 -74.5l-89 46q48 65 84.5 127.5t47.5 110.5q-49 7 -65.5 34t-6.5 74q11 54 50 80t103 26zM607 211q65 0 92.5 -27t15.5 -82l-1 -5q-13 -63 -36.5 -118t-54.5 -103t-67 -88.5
t-73 -74.5l-89 46q48 65 84.5 127.5t47.5 110.5q-49 7 -65.5 34t-6.5 74q11 54 50 80t103 26z" />
    <glyph glyph-name="bullet" unicode="&#x2022;" horiz-adv-x="473" 
d="M389 712q130 0 108 -109q-11 -48 -47 -78t-104 -30q-72 0 -97 28t-14 82q24 107 154 107z" />
    <glyph glyph-name="ellipsis" unicode="&#x2026;" horiz-adv-x="1254" 
d="M277 169q112 0 91 -94q-8 -42 -39 -67.5t-89 -25.5q-115 0 -94 95q19 92 131 92zM654 169q112 0 91 -94q-8 -42 -39 -67.5t-89 -25.5q-115 0 -94 95q10 48 43.5 70t87.5 22zM1042 169q112 0 91 -94q-8 -42 -38.5 -67.5t-89.5 -25.5q-115 0 -94 95q10 48 43.5 70t87.5 22z
" />
    <glyph glyph-name="guilsinglleft" unicode="&#x2039;" horiz-adv-x="666" 
d="M425 529l193 -335l-185 -106l-236 442l423 435l138 -106z" />
    <glyph glyph-name="guilsinglright" unicode="&#x203a;" horiz-adv-x="666" 
d="M273 859l184 106l237 -435l-424 -442l-139 106l336 335z" />
    <glyph glyph-name="Euro" unicode="&#x20ac;" horiz-adv-x="1368" 
d="M1071 590l-26 -122h-885l26 122h885zM228 786l26 123h885l-26 -123h-885zM622 691q-56 -266 23.5 -395.5t288.5 -129.5q89 0 177.5 26.5t188.5 74.5l41 -152q-114 -62 -238.5 -97.5t-236.5 -35.5q-139 0 -243.5 39t-167 123t-77.5 215.5t24 317.5q42 196 115 335.5
t172 228t220.5 130t260.5 41.5q118 0 226.5 -37t191.5 -98l-103 -152q-78 49 -158 75.5t-168 26.5q-422 0 -537 -536z" />
    <glyph glyph-name="trademark" unicode="&#x2122;" horiz-adv-x="1507" 
d="M358 1291l25 118h502l-25 -118h-179l-116 -544h-132l116 544h-191zM803 746l167 663h174l51 -473l260 473h172l-115 -663h-134l90 484l-243 -453h-126l-50 450l-117 -481h-129z" />
    <glyph glyph-name="dagger" unicode="&#x2020;" horiz-adv-x="796" 
d="M248 1012h263l104 490h207l-104 -490h263l-43 -199h-263l-247 -1164h-207l247 1164h-263z" />
    <glyph glyph-name="daggerdbl" unicode="&#x2021;" horiz-adv-x="796" 
d="M248 1012h263l104 490h207l-104 -490h263l-43 -199h-263l-42 -197h263l-42 -199h-263l-163 -768h-207l163 768h-263l42 199h263l42 197h-263z" />
    <glyph glyph-name="perthousand" unicode="&#x2030;" horiz-adv-x="2314" 
d="M1107 383q23 109 64.5 186.5t95.5 126.5t117 72t129 23q86 0 149.5 -39.5t86.5 -127.5q61 87 141.5 127t166.5 40q66 0 119.5 -23t86.5 -72t41.5 -126.5t-14.5 -186.5q-23 -110 -65 -187t-96 -126t-117 -71.5t-129 -22.5q-86 0 -149.5 39t-87.5 126q-60 -87 -140.5 -126
t-166.5 -39q-66 0 -119 22.5t-86 71.5t-41.5 126t14.5 187zM313 1003q23 109 64.5 186.5t95 126.5t116 72t128.5 23t119.5 -23t86.5 -72t42 -126.5t-14 -186.5q-23 -110 -65 -187t-96 -125.5t-117 -71t-129 -22.5t-119 22.5t-85.5 71t-41 125.5t14.5 187zM509 0l807 1394
h215l-807 -1394h-215zM1816 383q-15 -72 -16.5 -121.5t11 -80t38.5 -44t66 -13.5t72 13.5t57.5 44t45.5 80t35 121.5t16.5 121.5t-11.5 80.5t-39 44.5t-66 13.5t-71.5 -13.5t-57 -44.5t-45.5 -80.5t-35 -121.5zM1272 383q-15 -72 -16.5 -121.5t11 -80t38.5 -44t66 -13.5
t72 13.5t57.5 44t45.5 80t35 121.5t16.5 121.5t-11.5 80.5t-39 44.5t-66 13.5t-71.5 -13.5t-57 -44.5t-45.5 -80.5t-35 -121.5zM478 1004q-15 -72 -16.5 -122t11 -80.5t38.5 -44t65 -13.5q40 0 72 13.5t57.5 44t45.5 80.5t35 122t16.5 121t-11 80t-39 44.5t-66.5 13.5
t-71.5 -13.5t-57 -44.5t-45 -80t-34.5 -121z" />
    <glyph glyph-name="hungarumlaut" unicode="&#x2dd;" horiz-adv-x="676" 
d="M346 1139l298 301l130 -95l-350 -269zM710 1139l298 301l131 -95l-350 -269z" />
    <glyph glyph-name=".Dot" horiz-adv-x="133" 
d="M164 694q5 22 17.5 41.5t30.5 34t39.5 23t44.5 8.5t41.5 -8.5t30.5 -23t17 -34t0 -41.5t-18 -41t-31.5 -33.5t-40.5 -23t-45 -8.5t-40.5 8.5t-29.5 23t-16.5 33.5t0.5 41zM456 687q4 22 17 41.5t30.5 34t39 23t44.5 8.5t41 -8.5t29.5 -23t15.5 -34t0 -41.5
q-10 -44 -44.5 -61t-80.5 -17q-23 0 -42 4t-31.5 13t-18 24t-0.5 37z" />
    <glyph glyph-name=".dot" horiz-adv-x="14" 
d="M213 522q5 21 17 40t29.5 33t38 22t41.5 8q22 0 40 -8t30 -22t16.5 -33t-0.5 -40q-4 -21 -16.5 -39t-30 -32t-39 -22t-43.5 -8q-21 0 -38.5 8t-28.5 22t-15.5 32t-0.5 39zM505 514q4 22 17 41.5t30.5 34t39 23t44.5 8.5q46 0 65.5 -31t10.5 -76q-5 -22 -14.5 -35.5
t-24 -21t-33 -10t-41.5 -2.5t-42 2.5t-32.5 10t-19 21t-0.5 35.5z" />
    <glyph glyph-name="breve" unicode="&#x2d8;" horiz-adv-x="1792" 
d="M846 1127q-89 0 -138.5 24.5t-74 61t-31 79t-9.5 77.5l142 31q1 -23 4.5 -48.5t17 -46.5t40.5 -35t77 -14t83 14t55 35t36 46.5t26 48.5l128 -31q-18 -36 -42.5 -78.5t-64.5 -78.5t-100 -60.5t-149 -24.5z" />
    <glyph glyph-name="caron" unicode="&#x2c7;" horiz-adv-x="883" 
d="M698 1250l210 176l151 -40l-266 -251h-238l-158 253l168 37z" />
    <glyph glyph-name="dotaccent" unicode="&#x2d9;" horiz-adv-x="884" 
d="M690 1328q110 0 91 -94q-9 -42 -40 -67.5t-89 -25.5q-113 0 -94 95q20 92 132 92z" />
    <glyph glyph-name="ogonek" unicode="&#x2db;" horiz-adv-x="670" 
d="M362 -391q-41 -14 -84.5 -22t-95.5 -8t-91 13t-64 38t-33.5 60.5t1.5 80.5q7 38 30 70t53.5 59t65 49.5t64.5 40.5h132q-40 -30 -72 -53t-56 -44.5t-39.5 -44t-21.5 -51.5q-10 -48 14 -74t69 -26q29 0 56.5 3t62.5 11z" />
    <glyph glyph-name="ring" unicode="&#x2da;" horiz-adv-x="884" 
d="M867 1316q-29 0 -49 -13t-26 -42q-7 -30 6.5 -43.5t45.5 -13.5q34 0 50.5 15.5t21.5 39.5q7 31 -6.5 44t-42.5 13zM888 1407q81 0 116.5 -35.5t18.5 -112.5q-7 -32 -22 -58.5t-39 -46t-57.5 -30.5t-77.5 -11q-85 0 -121.5 36.5t-19.5 112.5q16 77 68.5 111t133.5 34z" />
    <glyph glyph-name="aacute" unicode="&#xe1;" horiz-adv-x="1130" 
d="M181 502q28 132 88 232t143 167t185 101t215 34q58 0 111.5 -8t100.5 -21t87.5 -30t73.5 -34l-200 -943h-184l-5 99q-34 -22 -69.5 -43t-75 -37.5t-84.5 -26.5t-99 -10q-87 0 -153 32.5t-105 97t-48 162t19 228.5zM390 508q-19 -91 -14.5 -157.5t29 -109.5t66.5 -63.5
t97 -20.5q35 0 71 6.5t69.5 18.5t63 28t53.5 34l124 580q-8 4 -25 10t-41 12t-53 10t-62 4q-67 0 -127.5 -23t-110 -67.5t-86 -110t-54.5 -151.5zM818 1220l297 301l136 -103l-347 -268z" />
    <glyph glyph-name="Aacute" unicode="&#xc1;" horiz-adv-x="1346" 
d="M1077 -10q-3 78 -7.5 170.5t-12.5 196.5h-617q-53 -108 -97.5 -201.5t-78.5 -165.5l-225 10q31 69 72.5 154.5t90 181.5t102.5 198t110 203.5t112 199t108 183t98.5 156t83.5 118.5h307q23 -71 46 -179t43.5 -236t37.5 -266t30 -269.5t20 -246.5t8 -197zM913 1209
q-46 -70 -94 -150.5t-96.5 -167t-96.5 -176.5t-94 -178h511q-16 168 -39 340.5t-58 331.5h-33zM951 1584l297 301l136 -103l-347 -268z" />
    <glyph glyph-name="Abreve" unicode="&#x102;" horiz-adv-x="1346" 
d="M1077 -10q-3 78 -7.5 170.5t-12.5 196.5h-617q-53 -108 -97.5 -201.5t-78.5 -165.5l-225 10q31 69 72.5 154.5t90 181.5t102.5 198t110 203.5t112 199t108 183t98.5 156t83.5 118.5h307q23 -71 46 -179t43.5 -236t37.5 -266t30 -269.5t20 -246.5t8 -197zM913 1209
q-46 -70 -94 -150.5t-96.5 -167t-96.5 -176.5t-94 -178h511q-16 168 -39 340.5t-58 331.5h-33zM1026 1578q-89 0 -138.5 24.5t-74 61t-31 79t-9.5 77.5l142 31q1 -23 4.5 -48.5t17 -46.5t40.5 -35t77 -14t83 14t55 35t36 46.5t26 48.5l128 -31q-18 -36 -42.5 -78.5
t-64.5 -78.5t-100 -60.5t-149 -24.5z" />
    <glyph glyph-name="Acircumflex" unicode="&#xc2;" horiz-adv-x="1346" 
d="M1077 -10q-3 78 -7.5 170.5t-12.5 196.5h-617q-53 -108 -97.5 -201.5t-78.5 -165.5l-225 10q31 69 72.5 154.5t90 181.5t102.5 198t110 203.5t112 199t108 183t98.5 156t83.5 118.5h307q23 -71 46 -179t43.5 -236t37.5 -266t30 -269.5t20 -246.5t8 -197zM913 1209
q-46 -70 -94 -150.5t-96.5 -167t-96.5 -176.5t-94 -178h511q-16 168 -39 340.5t-58 331.5h-33zM791 1517l-121 39l269 264h237l155 -264l-140 -41l-159 189z" />
    <glyph glyph-name="Agrave" unicode="&#xc0;" horiz-adv-x="1346" 
d="M1077 -10q-3 78 -7.5 170.5t-12.5 196.5h-617q-53 -108 -97.5 -201.5t-78.5 -165.5l-225 10q31 69 72.5 154.5t90 181.5t102.5 198t110 203.5t112 199t108 183t98.5 156t83.5 118.5h307q23 -71 46 -179t43.5 -236t37.5 -266t30 -269.5t20 -246.5t8 -197zM913 1209
q-46 -70 -94 -150.5t-96.5 -167t-96.5 -176.5t-94 -178h511q-16 168 -39 340.5t-58 331.5h-33zM981 1518l-233 268l180 103l169 -301z" />
    <glyph glyph-name="Adieresis" unicode="&#xc4;" horiz-adv-x="1346" 
d="M1077 -10q-3 78 -7.5 170.5t-12.5 196.5h-617q-53 -108 -97.5 -201.5t-78.5 -165.5l-225 10q31 69 72.5 154.5t90 181.5t102.5 198t110 203.5t112 199t108 183t98.5 156t83.5 118.5h307q23 -71 46 -179t43.5 -236t37.5 -266t30 -269.5t20 -246.5t8 -197zM913 1209
q-46 -70 -94 -150.5t-96.5 -167t-96.5 -176.5t-94 -178h511q-16 168 -39 340.5t-58 331.5h-33zM877 1751q110 0 91 -94q-9 -42 -40 -67.5t-89 -25.5q-113 0 -94 95q20 92 132 92zM1221 1751q110 0 91 -94q-9 -42 -40.5 -67.5t-88.5 -25.5q-113 0 -94 95q20 92 132 92z" />
    <glyph glyph-name="Amacron" unicode="&#x100;" horiz-adv-x="1346" 
d="M1077 -10q-3 78 -7.5 170.5t-12.5 196.5h-617q-53 -108 -97.5 -201.5t-78.5 -165.5l-225 10q31 69 72.5 154.5t90 181.5t102.5 198t110 203.5t112 199t108 183t98.5 156t83.5 118.5h307q23 -71 46 -179t43.5 -236t37.5 -266t30 -269.5t20 -246.5t8 -197zM913 1209
q-46 -70 -94 -150.5t-96.5 -167t-96.5 -176.5t-94 -178h511q-16 168 -39 340.5t-58 331.5h-33zM1306 1551h-619l31 148h619z" />
    <glyph glyph-name="Aogonek" unicode="&#x104;" horiz-adv-x="1346" 
d="M1077 -10q-3 78 -7.5 170.5t-12.5 196.5h-617q-53 -108 -97.5 -201.5t-78.5 -165.5l-225 10q31 69 72.5 154.5t90 181.5t102.5 198t110 203.5t112 199t108 183t98.5 156t83.5 118.5h307q23 -71 46 -179t43.5 -236t37.5 -266t30 -269.5t20 -246.5t8 -197zM913 1209
q-46 -70 -94 -150.5t-96.5 -167t-96.5 -176.5t-94 -178h511q-16 168 -39 340.5t-58 331.5h-33zM1341 -381q-41 -14 -84.5 -22t-95.5 -8t-91 13t-64 38t-33.5 60.5t1.5 80.5q7 38 30 70t53.5 59t65 49.5t64.5 40.5h132q-40 -30 -72 -53t-56 -44.5t-39.5 -44t-21.5 -51.5
q-10 -48 14 -74t69 -26q29 0 56.5 3t62.5 11z" />
    <glyph glyph-name="Aring" unicode="&#xc5;" horiz-adv-x="1346" 
d="M1077 -10q-3 78 -7.5 170.5t-12.5 196.5h-617q-53 -108 -97.5 -201.5t-78.5 -165.5l-225 10q31 69 72.5 154.5t90 181.5t102.5 198t110 203.5t112 199t108 183t98.5 156t83.5 118.5h307q23 -71 46 -179t43.5 -236t37.5 -266t30 -269.5t20 -246.5t8 -197zM913 1209
q-46 -70 -94 -150.5t-96.5 -167t-96.5 -176.5t-94 -178h511q-16 168 -39 340.5t-58 331.5h-33zM1047 1722q-29 0 -49 -13t-26 -42q-7 -30 6.5 -43.5t45.5 -13.5q34 0 50.5 15.5t21.5 39.5q7 31 -6.5 44t-42.5 13zM1068 1813q81 0 116.5 -35.5t18.5 -112.5q-7 -32 -22 -58.5
t-39 -46t-57.5 -30.5t-77.5 -11q-85 0 -121.5 36.5t-19.5 112.5q16 77 68.5 111t133.5 34z" />
    <glyph glyph-name="Atilde" unicode="&#xc3;" horiz-adv-x="1346" 
d="M1077 -10q-3 78 -7.5 170.5t-12.5 196.5h-617q-53 -108 -97.5 -201.5t-78.5 -165.5l-225 10q31 69 72.5 154.5t90 181.5t102.5 198t110 203.5t112 199t108 183t98.5 156t83.5 118.5h307q23 -71 46 -179t43.5 -236t37.5 -266t30 -269.5t20 -246.5t8 -197zM913 1209
q-46 -70 -94 -150.5t-96.5 -167t-96.5 -176.5t-94 -178h511q-16 168 -39 340.5t-58 331.5h-33zM641 1638q57 75 125 115t147 40q39 0 71 -11.5t61.5 -26t57 -26t57.5 -11.5q22 0 38 2.5t30.5 10t29.5 20t36 32.5l100 -71q-29 -39 -61.5 -68t-67 -48t-69 -28.5t-66.5 -9.5
q-39 0 -72 11.5t-63 25.5t-58 25.5t-58 11.5q-26 0 -43 -3.5t-32 -11t-29.5 -19.5t-33.5 -30z" />
    <glyph glyph-name="Cacute" unicode="&#x106;" horiz-adv-x="1217" 
d="M438 691q-56 -266 23.5 -395.5t288.5 -129.5q89 0 177.5 26.5t188.5 74.5l41 -152q-114 -62 -238.5 -97.5t-236.5 -35.5q-139 0 -243.5 39t-167 123t-77.5 215.5t24 317.5q42 196 115 335.5t172 228t220.5 130t260.5 41.5q118 0 226.5 -37t191.5 -98l-103 -152
q-78 49 -158 75.5t-168 26.5q-422 0 -537 -536zM987 1576l297 301l136 -103l-347 -268z" />
    <glyph glyph-name="Ccaron" unicode="&#x10c;" horiz-adv-x="1217" 
d="M438 691q-56 -266 23.5 -395.5t288.5 -129.5q89 0 177.5 26.5t188.5 74.5l41 -152q-114 -62 -238.5 -97.5t-236.5 -35.5q-139 0 -243.5 39t-167 123t-77.5 215.5t24 317.5q42 196 115 335.5t172 228t220.5 130t260.5 41.5q118 0 226.5 -37t191.5 -98l-103 -152
q-78 49 -158 75.5t-168 26.5q-422 0 -537 -536zM1034 1643l210 176l151 -40l-266 -251h-238l-158 253l168 37z" />
    <glyph glyph-name="Ccedilla" unicode="&#xc7;" horiz-adv-x="1217" 
d="M438 691q-56 -266 23.5 -395.5t288.5 -129.5q89 0 177.5 26.5t188.5 74.5l41 -152q-114 -62 -238.5 -97.5t-236.5 -35.5q-139 0 -243.5 39t-167 123t-77.5 215.5t24 317.5q42 196 115 335.5t172 228t220.5 130t260.5 41.5q118 0 226.5 -37t191.5 -98l-103 -152
q-78 49 -158 75.5t-168 26.5q-422 0 -537 -536zM455 -291q32 -9 58 -12t55 -3q45 0 74.5 18t37.5 54q10 43 -17 58.5t-83 15.5q-17 0 -38 -1t-42 -3l99 165h157l-52 -83q69 -6 104.5 -44.5t18.5 -118.5q-19 -91 -86 -135t-171 -44q-52 0 -92 8t-75 22z" />
    <glyph glyph-name="Ccircumflex" unicode="&#x108;" horiz-adv-x="1217" 
d="M438 691q-56 -266 23.5 -395.5t288.5 -129.5q89 0 177.5 26.5t188.5 74.5l41 -152q-114 -62 -238.5 -97.5t-236.5 -35.5q-139 0 -243.5 39t-167 123t-77.5 215.5t24 317.5q42 196 115 335.5t172 228t220.5 130t260.5 41.5q118 0 226.5 -37t191.5 -98l-103 -152
q-78 49 -158 75.5t-168 26.5q-422 0 -537 -536zM799 1500l-121 39l269 264h237l155 -264l-140 -41l-159 189z" />
    <glyph glyph-name="Cdotaccent" unicode="&#x10a;" horiz-adv-x="1217" 
d="M438 691q-56 -266 23.5 -395.5t288.5 -129.5q89 0 177.5 26.5t188.5 74.5l41 -152q-114 -62 -238.5 -97.5t-236.5 -35.5q-139 0 -243.5 39t-167 123t-77.5 215.5t24 317.5q42 196 115 335.5t172 228t220.5 130t260.5 41.5q118 0 226.5 -37t191.5 -98l-103 -152
q-78 49 -158 75.5t-168 26.5q-422 0 -537 -536zM1073 1751q110 0 91 -94q-9 -42 -40 -67.5t-89 -25.5q-113 0 -94 95q20 92 132 92z" />
    <glyph glyph-name="Dcaron" unicode="&#x10e;" horiz-adv-x="1345" 
d="M172 0l296 1394h449q83 0 160.5 -15t143.5 -48t116.5 -85.5t79.5 -127.5t33 -173.5t-22 -224.5q-42 -195 -121 -332t-184 -223t-230 -125.5t-257 -39.5h-464zM433 185h238q91 0 176 32t155.5 97.5t124 164t81.5 231.5q27 129 15 223t-56 155.5t-116.5 91t-166.5 29.5
h-234zM909 1636l210 176l151 -40l-266 -251h-238l-158 253l168 37z" />
    <glyph glyph-name="Dcroat" unicode="&#x110;" horiz-adv-x="1345" 
d="M667 619h-551l32 148h551zM172 0l296 1394h449q83 0 160.5 -15t143.5 -48t116.5 -85.5t79.5 -127.5t33 -173.5t-22 -224.5q-42 -195 -121 -332t-184 -223t-230 -125.5t-257 -39.5h-464zM433 185h238q91 0 176 32t155.5 97.5t124 164t81.5 231.5q27 129 15 223t-56 155.5
t-116.5 91t-166.5 29.5h-234z" />
    <glyph glyph-name="Eacute" unicode="&#xc9;" horiz-adv-x="1117" 
d="M172 0l296 1394h837l-42 -185h-613l-87 -412h522l-38 -176h-522l-92 -436h632l-39 -185h-854zM859 1567l297 301l136 -103l-347 -268z" />
    <glyph glyph-name="Ebreve" unicode="&#x114;" horiz-adv-x="1117" 
d="M172 0l296 1394h837l-42 -185h-613l-87 -412h522l-38 -176h-522l-92 -436h632l-39 -185h-854zM941 1533q-89 0 -138.5 24.5t-74 61t-31 79t-9.5 77.5l142 31q1 -23 4.5 -48.5t17 -46.5t40.5 -35t77 -14t83 14t55 35t36 46.5t26 48.5l128 -31q-18 -36 -42.5 -78.5
t-64.5 -78.5t-100 -60.5t-149 -24.5z" />
    <glyph glyph-name="Ecaron" unicode="&#x11a;" horiz-adv-x="1117" 
d="M172 0l296 1394h837l-42 -185h-613l-87 -412h522l-38 -176h-522l-92 -436h632l-39 -185h-854zM965 1645l210 176l151 -40l-266 -251h-238l-158 253l168 37z" />
    <glyph glyph-name="Ecircumflex" unicode="&#xca;" horiz-adv-x="1117" 
d="M172 0l296 1394h837l-42 -185h-613l-87 -412h522l-38 -176h-522l-92 -436h632l-39 -185h-854zM731 1512l-121 39l269 264h237l155 -264l-140 -41l-159 189z" />
    <glyph glyph-name="Edieresis" unicode="&#xcb;" horiz-adv-x="1117" 
d="M172 0l296 1394h837l-42 -185h-613l-87 -412h522l-38 -176h-522l-92 -436h632l-39 -185h-854zM823 1759q110 0 91 -94q-9 -42 -40 -67.5t-89 -25.5q-113 0 -94 95q20 92 132 92zM1167 1759q110 0 91 -94q-9 -42 -40.5 -67.5t-88.5 -25.5q-113 0 -94 95q20 92 132 92z" />
    <glyph glyph-name="Edotaccent" unicode="&#x116;" horiz-adv-x="1117" 
d="M172 0l296 1394h837l-42 -185h-613l-87 -412h522l-38 -176h-522l-92 -436h632l-39 -185h-854zM995 1748q110 0 91 -94q-9 -42 -40 -67.5t-89 -25.5q-113 0 -94 95q20 92 132 92z" />
    <glyph glyph-name="Egrave" unicode="&#xc8;" horiz-adv-x="1117" 
d="M172 0l296 1394h837l-42 -185h-613l-87 -412h522l-38 -176h-522l-92 -436h632l-39 -185h-854zM886 1505l-233 268l180 103l169 -301z" />
    <glyph glyph-name="Emacron" unicode="&#x112;" horiz-adv-x="1117" 
d="M172 0l296 1394h837l-42 -185h-613l-87 -412h522l-38 -176h-522l-92 -436h632l-39 -185h-854zM1253 1545h-619l31 148h619z" />
    <glyph glyph-name="Eogonek" unicode="&#x118;" horiz-adv-x="1117" 
d="M172 0l296 1394h837l-42 -185h-613l-87 -412h522l-38 -176h-522l-92 -436h632l-39 -185h-854zM1046 -381q-41 -14 -84.5 -22t-95.5 -8t-91 13t-64 38t-33.5 60.5t1.5 80.5q7 38 30 70t53.5 59t65 49.5t64.5 40.5h132q-40 -30 -72 -53t-56 -44.5t-39.5 -44t-21.5 -51.5
q-10 -48 14 -74t69 -26q29 0 56.5 3t62.5 11z" />
    <glyph glyph-name="Gbreve" unicode="&#x11e;" horiz-adv-x="1312" 
d="M222 695q39 183 109 318t167 223.5t218.5 132t263.5 43.5q137 0 252 -31.5t196 -80.5l-100 -155q-41 21 -86.5 36t-94.5 25.5t-98.5 15.5t-97.5 5q-92 0 -172.5 -33t-146.5 -98.5t-114.5 -163.5t-76.5 -228q-30 -140 -25 -241.5t43.5 -167t109.5 -97t173 -31.5
q61 0 119.5 9t120.5 26l68 320h-267l42 194h478l-139 -652q-47 -18 -105.5 -33.5t-120.5 -26t-125.5 -16.5t-121.5 -6q-305 0 -425.5 177t-43.5 536zM1022 1545q-89 0 -138.5 24.5t-74 61t-31 79t-9.5 77.5l142 31q1 -23 4.5 -48.5t17 -46.5t40.5 -35t77 -14t83 14t55 35
t36 46.5t26 48.5l128 -31q-18 -36 -42.5 -78.5t-64.5 -78.5t-100 -60.5t-149 -24.5z" />
    <glyph glyph-name="Gcircumflex" unicode="&#x11c;" horiz-adv-x="1312" 
d="M222 695q39 183 109 318t167 223.5t218.5 132t263.5 43.5q137 0 252 -31.5t196 -80.5l-100 -155q-41 21 -86.5 36t-94.5 25.5t-98.5 15.5t-97.5 5q-92 0 -172.5 -33t-146.5 -98.5t-114.5 -163.5t-76.5 -228q-30 -140 -25 -241.5t43.5 -167t109.5 -97t173 -31.5
q61 0 119.5 9t120.5 26l68 320h-267l42 194h478l-139 -652q-47 -18 -105.5 -33.5t-120.5 -26t-125.5 -16.5t-121.5 -6q-305 0 -425.5 177t-43.5 536zM812 1504l-121 39l269 264h237l155 -264l-140 -41l-159 189z" />
    <glyph glyph-name="Gcommaaccent" unicode="&#x122;" horiz-adv-x="1312" 
d="M222 695q39 183 109 318t167 223.5t218.5 132t263.5 43.5q137 0 252 -31.5t196 -80.5l-100 -155q-41 21 -86.5 36t-94.5 25.5t-98.5 15.5t-97.5 5q-92 0 -172.5 -33t-146.5 -98.5t-114.5 -163.5t-76.5 -228q-30 -140 -25 -241.5t43.5 -167t109.5 -97t173 -31.5
q61 0 119.5 9t120.5 26l68 320h-267l42 194h478l-139 -652q-47 -18 -105.5 -33.5t-120.5 -26t-125.5 -16.5t-121.5 -6q-305 0 -425.5 177t-43.5 536zM646 -124q65 0 92.5 -27t15.5 -82l-1 -5q-13 -63 -36.5 -118t-54.5 -103t-67 -88.5t-73 -74.5l-89 46q48 65 84.5 127.5
t47.5 110.5q-49 7 -65.5 34t-6.5 74q11 54 50 80t103 26z" />
    <glyph glyph-name="Gdotaccent" unicode="&#x120;" horiz-adv-x="1312" 
d="M222 695q39 183 109 318t167 223.5t218.5 132t263.5 43.5q137 0 252 -31.5t196 -80.5l-100 -155q-41 21 -86.5 36t-94.5 25.5t-98.5 15.5t-97.5 5q-92 0 -172.5 -33t-146.5 -98.5t-114.5 -163.5t-76.5 -228q-30 -140 -25 -241.5t43.5 -167t109.5 -97t173 -31.5
q61 0 119.5 9t120.5 26l68 320h-267l42 194h478l-139 -652q-47 -18 -105.5 -33.5t-120.5 -26t-125.5 -16.5t-121.5 -6q-305 0 -425.5 177t-43.5 536zM1070 1755q110 0 91 -94q-9 -42 -40 -67.5t-89 -25.5q-113 0 -94 95q20 92 132 92z" />
    <glyph glyph-name="Hbar" unicode="&#x126;" horiz-adv-x="1458" 
d="M172 0l296 1394h222l-28 -133h668l28 133h223l-296 -1394h-223l131 617h-668l-131 -617h-222zM1232 802l64 299h-668l-64 -299h668z" />
    <glyph glyph-name="Hcircumflex" unicode="&#x124;" horiz-adv-x="1458" 
d="M172 0l296 1394h222l-126 -592h668l126 592h223l-296 -1394h-223l131 617h-668l-131 -617h-222zM826 1479l-121 39l269 264h237l155 -264l-140 -41l-159 189z" />
    <glyph glyph-name="Iacute" unicode="&#xcd;" horiz-adv-x="568" 
d="M172 0l296 1394h222l-296 -1394h-222zM547 1571l297 301l136 -103l-347 -268z" />
    <glyph glyph-name="Ibreve" unicode="&#x12c;" horiz-adv-x="568" 
d="M172 0l296 1394h222l-296 -1394h-222zM620 1538q-89 0 -138.5 24.5t-74 61t-31 79t-9.5 77.5l142 31q1 -23 4.5 -48.5t17 -46.5t40.5 -35t77 -14t83 14t55 35t36 46.5t26 48.5l128 -31q-18 -36 -42.5 -78.5t-64.5 -78.5t-100 -60.5t-149 -24.5z" />
    <glyph glyph-name="Icircumflex" unicode="&#xce;" horiz-adv-x="568" 
d="M172 0l296 1394h222l-296 -1394h-222zM403 1509l-121 39l269 264h237l155 -264l-140 -41l-159 189z" />
    <glyph glyph-name="Idieresis" unicode="&#xcf;" horiz-adv-x="568" 
d="M172 0l296 1394h222l-296 -1394h-222zM495 1766q110 0 91 -94q-9 -42 -40 -67.5t-89 -25.5q-113 0 -94 95q20 92 132 92zM839 1766q110 0 91 -94q-9 -42 -40.5 -67.5t-88.5 -25.5q-113 0 -94 95q20 92 132 92z" />
    <glyph glyph-name="Idotaccent" unicode="&#x130;" horiz-adv-x="568" 
d="M172 0l296 1394h222l-296 -1394h-222zM658 1746q110 0 91 -94q-9 -42 -40 -67.5t-89 -25.5q-113 0 -94 95q20 92 132 92z" />
    <glyph glyph-name="Igrave" unicode="&#xcc;" horiz-adv-x="568" 
d="M172 0l296 1394h222l-296 -1394h-222zM565 1507l-233 268l180 103l169 -301z" />
    <glyph glyph-name="Imacron" unicode="&#x12a;" horiz-adv-x="568" 
d="M172 0l296 1394h222l-296 -1394h-222zM925 1565h-619l31 148h619z" />
    <glyph glyph-name="Iogonek" unicode="&#x12e;" horiz-adv-x="568" 
d="M172 0l296 1394h222l-296 -1394h-222zM372 -381q-41 -14 -84.5 -22t-95.5 -8t-91 13t-64 38t-33.5 60.5t1.5 80.5q7 38 30 70t53.5 59t65 49.5t64.5 40.5h132q-40 -30 -72 -53t-56 -44.5t-39.5 -44t-21.5 -51.5q-10 -48 14 -74t69 -26q29 0 56.5 3t62.5 11z" />
    <glyph glyph-name="Itilde" unicode="&#x128;" horiz-adv-x="568" 
d="M172 0l296 1394h222l-296 -1394h-222zM276 1620q57 75 125 115t147 40q39 0 71 -11.5t61.5 -26t57 -26t57.5 -11.5q22 0 38 2.5t30.5 10t29.5 20t36 32.5l100 -71q-29 -39 -61.5 -68t-67 -48t-69 -28.5t-66.5 -9.5q-39 0 -72 11.5t-63 25.5t-58 25.5t-58 11.5
q-26 0 -43 -3.5t-32 -11t-29.5 -19.5t-33.5 -30z" />
    <glyph glyph-name="Jcircumflex" unicode="&#x134;" horiz-adv-x="796" 
d="M704 379q-21 -98 -53 -172t-80.5 -124t-116 -75.5t-157.5 -25.5q-37 0 -72.5 5.5t-68.5 14.5t-61.5 20t-51.5 23l79 166q33 -16 76 -30.5t84 -14.5q51 0 84.5 14t55.5 40t34.5 61.5t21.5 79.5l220 1033h222zM620 1456l-121 39l269 264h237l155 -264l-140 -41l-159 189z
" />
    <glyph glyph-name="Kcommaaccent" unicode="&#x136;" horiz-adv-x="1271" 
d="M172 1l296 1393h221l-143 -674q100 57 201.5 135t193 167t168 184.5t127.5 187.5h240q-46 -77 -102.5 -154.5t-122 -152.5t-138 -147t-150.5 -137q13 -82 46 -183.5t79.5 -204t103.5 -196t118 -159.5l-189 -119q-56 64 -110 150t-100 182t-80.5 196.5t-51.5 193.5
q-69 -48 -139 -87.5t-140 -70.5l-107 -504h-221zM564 -59q65 0 92.5 -27t15.5 -82l-1 -5q-13 -63 -36.5 -118t-54.5 -103t-67 -88.5t-73 -74.5l-89 46q48 65 84.5 127.5t47.5 110.5q-49 7 -65.5 34t-6.5 74q11 54 50 80t103 26z" />
    <glyph glyph-name="Lacute" unicode="&#x139;" horiz-adv-x="1052" 
d="M172 0l296 1394h222l-257 -1209h576l-39 -185h-798zM537 1533l297 301l136 -103l-347 -268z" />
    <glyph glyph-name="Lcaron" unicode="&#x13d;" horiz-adv-x="1082" 
d="M172 0l296 1394h222l-257 -1209h576l-39 -185h-798zM1180 1393q65 0 92.5 -27t15.5 -82l-1 -5q-13 -63 -36.5 -118t-54.5 -103t-67 -88.5t-73 -74.5l-89 46q48 65 84.5 127.5t47.5 110.5q-49 7 -65.5 34t-6.5 74q11 54 50 80t103 26z" />
    <glyph glyph-name="Lcommaaccent" unicode="&#x13b;" horiz-adv-x="1052" 
d="M172 0l296 1394h222l-257 -1209h576l-39 -185h-798zM495 -94q65 0 92.5 -27t15.5 -82l-1 -5q-13 -63 -36.5 -118t-54.5 -103t-67 -88.5t-73 -74.5l-89 46q48 65 84.5 127.5t47.5 110.5q-49 7 -65.5 34t-6.5 74q11 54 50 80t103 26z" />
    <glyph glyph-name="Ldot" unicode="&#x13f;" horiz-adv-x="1052" 
d="M172 0l296 1394h222l-257 -1209h576l-39 -185h-798zM963 790q110 0 91 -94q-9 -42 -40 -67.5t-89 -25.5q-113 0 -94 95q20 92 132 92z" />
    <glyph glyph-name="Lslash" unicode="&#x141;" horiz-adv-x="1052" 
d="M747 770l-602 -291l-38 132l602 291zM172 0l296 1394h222l-257 -1209h576l-39 -185h-798z" />
    <glyph glyph-name="Nacute" unicode="&#x143;" horiz-adv-x="1488" 
d="M985 1537l297 301l136 -103l-347 -268zM172 0l296 1394h263q25 -42 51.5 -101.5t54 -130.5t55 -150t55.5 -159.5t55 -159t53.5 -148.5t51 -128t46.5 -97h13l224 1074h222l-296 -1394h-256q-38 65 -75.5 152.5t-74 186.5t-72 202.5t-71 200t-70 180.5t-68.5 143h-13
l-223 -1065h-221z" />
    <glyph glyph-name="Ncaron" unicode="&#x147;" horiz-adv-x="1488" 
d="M1084 1640l210 176l151 -40l-266 -251h-238l-158 253l168 37zM172 0l296 1394h263q25 -42 51.5 -101.5t54 -130.5t55 -150t55.5 -159.5t55 -159t53.5 -148.5t51 -128t46.5 -97h13l224 1074h222l-296 -1394h-256q-38 65 -75.5 152.5t-74 186.5t-72 202.5t-71 200
t-70 180.5t-68.5 143h-13l-223 -1065h-221z" />
    <glyph glyph-name="Ncommaaccent" unicode="&#x145;" horiz-adv-x="1488" 
d="M172 0l296 1394h263q25 -42 51.5 -101.5t54 -130.5t55 -150t55.5 -159.5t55 -159t53.5 -148.5t51 -128t46.5 -97h13l224 1074h222l-296 -1394h-256q-38 65 -75.5 152.5t-74 186.5t-72 202.5t-71 200t-70 180.5t-68.5 143h-13l-223 -1065h-221zM660 -72q65 0 92.5 -27
t15.5 -82l-1 -5q-13 -63 -36.5 -118t-54.5 -103t-67 -88.5t-73 -74.5l-89 46q48 65 84.5 127.5t47.5 110.5q-49 7 -65.5 34t-6.5 74q11 54 50 80t103 26z" />
    <glyph glyph-name="Ntilde" unicode="&#xd1;" horiz-adv-x="1488" 
d="M702 1616q57 75 125 115t147 40q39 0 71 -11.5t61.5 -26t57 -26t57.5 -11.5q22 0 38 2.5t30.5 10t29.5 20t36 32.5l100 -71q-29 -39 -61.5 -68t-67 -48t-69 -28.5t-66.5 -9.5q-39 0 -72 11.5t-63 25.5t-58 25.5t-58 11.5q-26 0 -43 -3.5t-32 -11t-29.5 -19.5t-33.5 -30z
M172 0l296 1394h263q25 -42 51.5 -101.5t54 -130.5t55 -150t55.5 -159.5t55 -159t53.5 -148.5t51 -128t46.5 -97h13l224 1074h222l-296 -1394h-256q-38 65 -75.5 152.5t-74 186.5t-72 202.5t-71 200t-70 180.5t-68.5 143h-13l-223 -1065h-221z" />
    <glyph glyph-name="Oacute" unicode="&#xd3;" horiz-adv-x="1443" 
d="M1517 696q-40 -185 -118.5 -320t-183.5 -222.5t-231 -130t-261 -41.5q-140 0 -250.5 44t-179.5 132.5t-90 222.5t18 314q39 179 116.5 313.5t183.5 223.5t235 134t271 46q138 1 246.5 -44.5t175 -136t86.5 -224.5t-18 -311zM987 1227q-111 0 -201 -42t-159 -114
t-116.5 -169t-72.5 -207q-24 -104 -19 -199.5t43.5 -169t112 -117t187.5 -43.5q102 0 189.5 38t156.5 107t117.5 166.5t74.5 217.5q24 113 17.5 210.5t-45 169t-109.5 112t-176 40.5zM1037 1584l297 301l136 -103l-347 -268z" />
    <glyph glyph-name="Obreve" unicode="&#x14e;" horiz-adv-x="1443" 
d="M1517 696q-40 -185 -118.5 -320t-183.5 -222.5t-231 -130t-261 -41.5q-140 0 -250.5 44t-179.5 132.5t-90 222.5t18 314q39 179 116.5 313.5t183.5 223.5t235 134t271 46q138 1 246.5 -44.5t175 -136t86.5 -224.5t-18 -311zM987 1227q-111 0 -201 -42t-159 -114
t-116.5 -169t-72.5 -207q-24 -104 -19 -199.5t43.5 -169t112 -117t187.5 -43.5q102 0 189.5 38t156.5 107t117.5 166.5t74.5 217.5q24 113 17.5 210.5t-45 169t-109.5 112t-176 40.5zM1050 1532q-89 0 -138.5 24.5t-74 61t-31 79t-9.5 77.5l142 31q1 -23 4.5 -48.5t17 -46.5
t40.5 -35t77 -14t83 14t55 35t36 46.5t26 48.5l128 -31q-18 -36 -42.5 -78.5t-64.5 -78.5t-100 -60.5t-149 -24.5z" />
    <glyph glyph-name="Ocircumflex" unicode="&#xd4;" horiz-adv-x="1443" 
d="M1517 696q-40 -185 -118.5 -320t-183.5 -222.5t-231 -130t-261 -41.5q-140 0 -250.5 44t-179.5 132.5t-90 222.5t18 314q39 179 116.5 313.5t183.5 223.5t235 134t271 46q138 1 246.5 -44.5t175 -136t86.5 -224.5t-18 -311zM987 1227q-111 0 -201 -42t-159 -114
t-116.5 -169t-72.5 -207q-24 -104 -19 -199.5t43.5 -169t112 -117t187.5 -43.5q102 0 189.5 38t156.5 107t117.5 166.5t74.5 217.5q24 113 17.5 210.5t-45 169t-109.5 112t-176 40.5zM853 1503l-121 39l269 264h237l155 -264l-140 -41l-159 189z" />
    <glyph glyph-name="Odieresis" unicode="&#xd6;" horiz-adv-x="1443" 
d="M1517 696q-40 -185 -118.5 -320t-183.5 -222.5t-231 -130t-261 -41.5q-140 0 -250.5 44t-179.5 132.5t-90 222.5t18 314q39 179 116.5 313.5t183.5 223.5t235 134t271 46q138 1 246.5 -44.5t175 -136t86.5 -224.5t-18 -311zM987 1227q-111 0 -201 -42t-159 -114
t-116.5 -169t-72.5 -207q-24 -104 -19 -199.5t43.5 -169t112 -117t187.5 -43.5q102 0 189.5 38t156.5 107t117.5 166.5t74.5 217.5q24 113 17.5 210.5t-45 169t-109.5 112t-176 40.5zM925 1762q110 0 91 -94q-9 -42 -40 -67.5t-89 -25.5q-113 0 -94 95q20 92 132 92z
M1269 1762q110 0 91 -94q-9 -42 -40.5 -67.5t-88.5 -25.5q-113 0 -94 95q20 92 132 92z" />
    <glyph glyph-name="Ograve" unicode="&#xd2;" horiz-adv-x="1443" 
d="M1517 696q-40 -185 -118.5 -320t-183.5 -222.5t-231 -130t-261 -41.5q-140 0 -250.5 44t-179.5 132.5t-90 222.5t18 314q39 179 116.5 313.5t183.5 223.5t235 134t271 46q138 1 246.5 -44.5t175 -136t86.5 -224.5t-18 -311zM987 1227q-111 0 -201 -42t-159 -114
t-116.5 -169t-72.5 -207q-24 -104 -19 -199.5t43.5 -169t112 -117t187.5 -43.5q102 0 189.5 38t156.5 107t117.5 166.5t74.5 217.5q24 113 17.5 210.5t-45 169t-109.5 112t-176 40.5zM1005 1512l-233 268l180 103l169 -301z" />
    <glyph glyph-name="Ohungarumlaut" unicode="&#x150;" horiz-adv-x="1443" 
d="M1517 696q-40 -185 -118.5 -320t-183.5 -222.5t-231 -130t-261 -41.5q-140 0 -250.5 44t-179.5 132.5t-90 222.5t18 314q39 179 116.5 313.5t183.5 223.5t235 134t271 46q138 1 246.5 -44.5t175 -136t86.5 -224.5t-18 -311zM987 1227q-111 0 -201 -42t-159 -114
t-116.5 -169t-72.5 -207q-24 -104 -19 -199.5t43.5 -169t112 -117t187.5 -43.5q102 0 189.5 38t156.5 107t117.5 166.5t74.5 217.5q24 113 17.5 210.5t-45 169t-109.5 112t-176 40.5zM819 1578l298 301l130 -95l-350 -269zM1183 1578l298 301l131 -95l-350 -269z" />
    <glyph glyph-name="Omacron" unicode="&#x14c;" horiz-adv-x="1443" 
d="M1517 696q-40 -185 -118.5 -320t-183.5 -222.5t-231 -130t-261 -41.5q-140 0 -250.5 44t-179.5 132.5t-90 222.5t18 314q39 179 116.5 313.5t183.5 223.5t235 134t271 46q138 1 246.5 -44.5t175 -136t86.5 -224.5t-18 -311zM987 1227q-111 0 -201 -42t-159 -114
t-116.5 -169t-72.5 -207q-24 -104 -19 -199.5t43.5 -169t112 -117t187.5 -43.5q102 0 189.5 38t156.5 107t117.5 166.5t74.5 217.5q24 113 17.5 210.5t-45 169t-109.5 112t-176 40.5zM1379 1566h-619l31 148h619z" />
    <glyph glyph-name="Otilde" unicode="&#xd5;" horiz-adv-x="1443" 
d="M1517 696q-40 -185 -118.5 -320t-183.5 -222.5t-231 -130t-261 -41.5q-140 0 -250.5 44t-179.5 132.5t-90 222.5t18 314q39 179 116.5 313.5t183.5 223.5t235 134t271 46q138 1 246.5 -44.5t175 -136t86.5 -224.5t-18 -311zM987 1227q-111 0 -201 -42t-159 -114
t-116.5 -169t-72.5 -207q-24 -104 -19 -199.5t43.5 -169t112 -117t187.5 -43.5q102 0 189.5 38t156.5 107t117.5 166.5t74.5 217.5q24 113 17.5 210.5t-45 169t-109.5 112t-176 40.5zM729 1629q57 75 125 115t147 40q39 0 71 -11.5t61.5 -26t57 -26t57.5 -11.5q22 0 38 2.5
t30.5 10t29.5 20t36 32.5l100 -71q-29 -39 -61.5 -68t-67 -48t-69 -28.5t-66.5 -9.5q-39 0 -72 11.5t-63 25.5t-58 25.5t-58 11.5q-26 0 -43 -3.5t-32 -11t-29.5 -19.5t-33.5 -30z" />
    <glyph glyph-name="R" unicode="R" horiz-adv-x="1256" 
d="M1030 -57q-102 126 -174.5 268.5t-110.5 282.5h-5h-240l-105 -494h-223l296 1394h468q97 0 178 -28.5t135 -82.5t75.5 -132t0.5 -178q-17 -78 -54 -142t-87.5 -115.5t-110 -91t-119.5 -66.5q19 -57 45 -120.5t59.5 -128t75 -127.5t91.5 -120zM538 674h236q60 0 115 21.5
t99 59.5t74.5 89.5t43.5 111.5q15 69 1 118t-47 80t-80 45.5t-99 14.5h-228z" />
    <glyph glyph-name="Racute" unicode="&#x154;" horiz-adv-x="1256" 
d="M1030 -57q-102 126 -174.5 268.5t-110.5 282.5h-5h-240l-105 -494h-223l296 1394h468q97 0 178 -28.5t135 -82.5t75.5 -132t0.5 -178q-17 -78 -54 -142t-87.5 -115.5t-110 -91t-119.5 -66.5q19 -57 45 -120.5t59.5 -128t75 -127.5t91.5 -120zM538 674h236q60 0 115 21.5
t99 59.5t74.5 89.5t43.5 111.5q15 69 1 118t-47 80t-80 45.5t-99 14.5h-228zM792 1557l297 301l136 -103l-347 -268z" />
    <glyph glyph-name="Rcaron" unicode="&#x158;" horiz-adv-x="1256" 
d="M1030 -57q-102 126 -174.5 268.5t-110.5 282.5h-5h-240l-105 -494h-223l296 1394h468q97 0 178 -28.5t135 -82.5t75.5 -132t0.5 -178q-17 -78 -54 -142t-87.5 -115.5t-110 -91t-119.5 -66.5q19 -57 45 -120.5t59.5 -128t75 -127.5t91.5 -120zM538 674h236q60 0 115 21.5
t99 59.5t74.5 89.5t43.5 111.5q15 69 1 118t-47 80t-80 45.5t-99 14.5h-228zM910 1646l210 176l151 -40l-266 -251h-238l-158 253l168 37z" />
    <glyph glyph-name="Rcommaaccent" unicode="&#x156;" horiz-adv-x="1256" 
d="M1030 -57q-102 126 -174.5 268.5t-110.5 282.5h-5h-240l-105 -494h-223l296 1394h468q97 0 178 -28.5t135 -82.5t75.5 -132t0.5 -178q-17 -78 -54 -142t-87.5 -115.5t-110 -91t-119.5 -66.5q19 -57 45 -120.5t59.5 -128t75 -127.5t91.5 -120zM538 674h236q60 0 115 21.5
t99 59.5t74.5 89.5t43.5 111.5q15 69 1 118t-47 80t-80 45.5t-99 14.5h-228zM569 -68q65 0 92.5 -27t15.5 -82l-1 -5q-13 -63 -36.5 -118t-54.5 -103t-67 -88.5t-73 -74.5l-89 46q48 65 84.5 127.5t47.5 110.5q-49 7 -65.5 34t-6.5 74q11 54 50 80t103 26z" />
    <glyph glyph-name="Sacute" unicode="&#x15a;" horiz-adv-x="1059" 
d="M187 273q67 -35 117 -56t92 -32.5t80.5 -15t82.5 -3.5q66 0 118 17t90 46t61.5 68.5t33.5 84.5q9 45 1.5 81t-33 64.5t-70 51.5t-108.5 43q-97 30 -170 61t-118.5 75t-60.5 107t5 156q19 89 64 161t114.5 123t163.5 79t210 28q101 0 195 -25.5t189 -85.5l-106 -154
q-41 23 -78.5 38.5t-74.5 24.5t-74 13t-76 4q-61 0 -112.5 -13t-90.5 -37t-65 -59t-35 -79q-11 -51 -2.5 -85t38.5 -60t83 -47.5t131 -47.5q88 -28 153 -63.5t104.5 -83t52 -109t-4.5 -142.5q-20 -93 -64.5 -170.5t-113.5 -132.5t-163.5 -85.5t-213.5 -30.5q-65 0 -123 7.5
t-113 23t-107.5 40t-106.5 58.5zM899 1574l297 301l136 -103l-347 -268z" />
    <glyph glyph-name="Scaron" unicode="&#x160;" horiz-adv-x="1059" 
d="M187 273q67 -35 117 -56t92 -32.5t80.5 -15t82.5 -3.5q66 0 118 17t90 46t61.5 68.5t33.5 84.5q9 45 1.5 81t-33 64.5t-70 51.5t-108.5 43q-97 30 -170 61t-118.5 75t-60.5 107t5 156q19 89 64 161t114.5 123t163.5 79t210 28q101 0 195 -25.5t189 -85.5l-106 -154
q-41 23 -78.5 38.5t-74.5 24.5t-74 13t-76 4q-61 0 -112.5 -13t-90.5 -37t-65 -59t-35 -79q-11 -51 -2.5 -85t38.5 -60t83 -47.5t131 -47.5q88 -28 153 -63.5t104.5 -83t52 -109t-4.5 -142.5q-20 -93 -64.5 -170.5t-113.5 -132.5t-163.5 -85.5t-213.5 -30.5q-65 0 -123 7.5
t-113 23t-107.5 40t-106.5 58.5zM908 1644l210 176l151 -40l-266 -251h-238l-158 253l168 37z" />
    <glyph glyph-name="Scedilla" unicode="&#x15e;" horiz-adv-x="1059" 
d="M187 273q67 -35 117 -56t92 -32.5t80.5 -15t82.5 -3.5q66 0 118 17t90 46t61.5 68.5t33.5 84.5q9 45 1.5 81t-33 64.5t-70 51.5t-108.5 43q-97 30 -170 61t-118.5 75t-60.5 107t5 156q19 89 64 161t114.5 123t163.5 79t210 28q101 0 195 -25.5t189 -85.5l-106 -154
q-41 23 -78.5 38.5t-74.5 24.5t-74 13t-76 4q-61 0 -112.5 -13t-90.5 -37t-65 -59t-35 -79q-11 -51 -2.5 -85t38.5 -60t83 -47.5t131 -47.5q88 -28 153 -63.5t104.5 -83t52 -109t-4.5 -142.5q-20 -93 -64.5 -170.5t-113.5 -132.5t-163.5 -85.5t-213.5 -30.5q-65 0 -123 7.5
t-113 23t-107.5 40t-106.5 58.5zM322 -288q32 -9 58 -12t55 -3q45 0 74.5 18t37.5 54q10 43 -17 58.5t-83 15.5q-17 0 -38 -1t-42 -3l99 165h157l-52 -83q69 -6 104.5 -44.5t18.5 -118.5q-19 -91 -86 -135t-171 -44q-52 0 -92 8t-75 22z" />
    <glyph glyph-name="Scircumflex" unicode="&#x15c;" horiz-adv-x="1059" 
d="M187 273q67 -35 117 -56t92 -32.5t80.5 -15t82.5 -3.5q66 0 118 17t90 46t61.5 68.5t33.5 84.5q9 45 1.5 81t-33 64.5t-70 51.5t-108.5 43q-97 30 -170 61t-118.5 75t-60.5 107t5 156q19 89 64 161t114.5 123t163.5 79t210 28q101 0 195 -25.5t189 -85.5l-106 -154
q-41 23 -78.5 38.5t-74.5 24.5t-74 13t-76 4q-61 0 -112.5 -13t-90.5 -37t-65 -59t-35 -79q-11 -51 -2.5 -85t38.5 -60t83 -47.5t131 -47.5q88 -28 153 -63.5t104.5 -83t52 -109t-4.5 -142.5q-20 -93 -64.5 -170.5t-113.5 -132.5t-163.5 -85.5t-213.5 -30.5q-65 0 -123 7.5
t-113 23t-107.5 40t-106.5 58.5zM681 1508l-121 39l269 264h237l155 -264l-140 -41l-159 189z" />
    <glyph glyph-name="Scommaaccent" unicode="&#x218;" horiz-adv-x="1059" 
d="M187 273q67 -35 117 -56t92 -32.5t80.5 -15t82.5 -3.5q66 0 118 17t90 46t61.5 68.5t33.5 84.5q9 45 1.5 81t-33 64.5t-70 51.5t-108.5 43q-97 30 -170 61t-118.5 75t-60.5 107t5 156q19 89 64 161t114.5 123t163.5 79t210 28q101 0 195 -25.5t189 -85.5l-106 -154
q-41 23 -78.5 38.5t-74.5 24.5t-74 13t-76 4q-61 0 -112.5 -13t-90.5 -37t-65 -59t-35 -79q-11 -51 -2.5 -85t38.5 -60t83 -47.5t131 -47.5q88 -28 153 -63.5t104.5 -83t52 -109t-4.5 -142.5q-20 -93 -64.5 -170.5t-113.5 -132.5t-163.5 -85.5t-213.5 -30.5q-65 0 -123 7.5
t-113 23t-107.5 40t-106.5 58.5zM467 -101q65 0 92.5 -27t15.5 -82l-1 -5q-13 -63 -36.5 -118t-54.5 -103t-67 -88.5t-73 -74.5l-89 46q48 65 84.5 127.5t47.5 110.5q-49 7 -65.5 34t-6.5 74q11 54 50 80t103 26z" />
    <glyph glyph-name="Tbar" unicode="&#x166;" horiz-adv-x="1092" 
d="M289 1209l40 185h1027l-40 -185h-403l-256 -1209h-222l256 1209h-402zM997 651h-619l31 148h619z" />
    <glyph glyph-name="Tcaron" unicode="&#x164;" horiz-adv-x="1093" 
d="M289 1209l40 185h1027l-40 -185h-403l-256 -1209h-222l256 1209h-402zM884 1631l210 176l151 -40l-266 -251h-238l-158 253l168 37z" />
    <glyph glyph-name="Tcommaaccent" unicode="&#x162;" horiz-adv-x="1093" 
d="M289 1209l40 185h1027l-40 -185h-403l-256 -1209h-222l256 1209h-402zM520 -88q65 0 92.5 -27t15.5 -82l-1 -5q-13 -63 -36.5 -118t-54.5 -103t-67 -88.5t-73 -74.5l-89 46q48 65 84.5 127.5t47.5 110.5q-49 7 -65.5 34t-6.5 74q11 54 50 80t103 26z" />
    <glyph glyph-name="Uacute" unicode="&#xda;" horiz-adv-x="1387" 
d="M694 -18q-131 -1 -227.5 30.5t-154 98t-73.5 169.5t14 244l185 870h222l-181 -851q-21 -97 -18.5 -168t32 -117.5t88.5 -69t152 -22.5q89 0 156.5 26t116.5 74t81 117t50 155l182 856h222l-185 -870q-30 -140 -88.5 -242.5t-142.5 -169t-192.5 -98.5t-238.5 -32z
M951 1528l297 301l136 -103l-347 -268z" />
    <glyph glyph-name="Ubreve" unicode="&#x16c;" horiz-adv-x="1387" 
d="M694 -18q-131 -1 -227.5 30.5t-154 98t-73.5 169.5t14 244l185 870h222l-181 -851q-21 -97 -18.5 -168t32 -117.5t88.5 -69t152 -22.5q89 0 156.5 26t116.5 74t81 117t50 155l182 856h222l-185 -870q-30 -140 -88.5 -242.5t-142.5 -169t-192.5 -98.5t-238.5 -32z
M1026 1503q-89 0 -138.5 24.5t-74 61t-31 79t-9.5 77.5l142 31q1 -23 4.5 -48.5t17 -46.5t40.5 -35t77 -14t83 14t55 35t36 46.5t26 48.5l128 -31q-18 -36 -42.5 -78.5t-64.5 -78.5t-100 -60.5t-149 -24.5z" />
    <glyph glyph-name="Ucircumflex" unicode="&#xdb;" horiz-adv-x="1387" 
d="M694 -18q-131 -1 -227.5 30.5t-154 98t-73.5 169.5t14 244l185 870h222l-181 -851q-21 -97 -18.5 -168t32 -117.5t88.5 -69t152 -22.5q89 0 156.5 26t116.5 74t81 117t50 155l182 856h222l-185 -870q-30 -140 -88.5 -242.5t-142.5 -169t-192.5 -98.5t-238.5 -32z
M808 1494l-121 39l269 264h237l155 -264l-140 -41l-159 189z" />
    <glyph glyph-name="Udieresis" unicode="&#xdc;" horiz-adv-x="1387" 
d="M694 -18q-131 -1 -227.5 30.5t-154 98t-73.5 169.5t14 244l185 870h222l-181 -851q-21 -97 -18.5 -168t32 -117.5t88.5 -69t152 -22.5q89 0 156.5 26t116.5 74t81 117t50 155l182 856h222l-185 -870q-30 -140 -88.5 -242.5t-142.5 -169t-192.5 -98.5t-238.5 -32z
M888 1736q110 0 91 -94q-9 -42 -40 -67.5t-89 -25.5q-113 0 -94 95q20 92 132 92zM1232 1736q110 0 91 -94q-9 -42 -40.5 -67.5t-88.5 -25.5q-113 0 -94 95q20 92 132 92z" />
    <glyph glyph-name="Ugrave" unicode="&#xd9;" horiz-adv-x="1387" 
d="M694 -18q-131 -1 -227.5 30.5t-154 98t-73.5 169.5t14 244l185 870h222l-181 -851q-21 -97 -18.5 -168t32 -117.5t88.5 -69t152 -22.5q89 0 156.5 26t116.5 74t81 117t50 155l182 856h222l-185 -870q-30 -140 -88.5 -242.5t-142.5 -169t-192.5 -98.5t-238.5 -32z
M1007 1485l-233 268l180 103l169 -301z" />
    <glyph glyph-name="Uhungarumlaut" unicode="&#x170;" horiz-adv-x="1387" 
d="M694 -18q-131 -1 -227.5 30.5t-154 98t-73.5 169.5t14 244l185 870h222l-181 -851q-21 -97 -18.5 -168t32 -117.5t88.5 -69t152 -22.5q89 0 156.5 26t116.5 74t81 117t50 155l182 856h222l-185 -870q-30 -140 -88.5 -242.5t-142.5 -169t-192.5 -98.5t-238.5 -32z
M745 1563l298 301l130 -95l-350 -269zM1109 1563l298 301l131 -95l-350 -269z" />
    <glyph glyph-name="Umacron" unicode="&#x16a;" horiz-adv-x="1387" 
d="M694 -18q-131 -1 -227.5 30.5t-154 98t-73.5 169.5t14 244l185 870h222l-181 -851q-21 -97 -18.5 -168t32 -117.5t88.5 -69t152 -22.5q89 0 156.5 26t116.5 74t81 117t50 155l182 856h222l-185 -870q-30 -140 -88.5 -242.5t-142.5 -169t-192.5 -98.5t-238.5 -32z
M1353 1560h-619l31 148h619z" />
    <glyph glyph-name="Uogonek" unicode="&#x172;" horiz-adv-x="1387" 
d="M694 -18q-131 -1 -227.5 30.5t-154 98t-73.5 169.5t14 244l185 870h222l-181 -851q-21 -97 -18.5 -168t32 -117.5t88.5 -69t152 -22.5q89 0 156.5 26t116.5 74t81 117t50 155l182 856h222l-185 -870q-30 -140 -88.5 -242.5t-142.5 -169t-192.5 -98.5t-238.5 -32z
M859 -372q-41 -14 -84.5 -22t-95.5 -8t-91 13t-64 38t-33.5 60.5t1.5 80.5q7 38 30 70t53.5 59t65 49.5t64.5 40.5h132q-40 -30 -72 -53t-56 -44.5t-39.5 -44t-21.5 -51.5q-10 -48 14 -74t69 -26q29 0 56.5 3t62.5 11z" />
    <glyph glyph-name="Uring" unicode="&#x16e;" horiz-adv-x="1387" 
d="M694 -18q-131 -1 -227.5 30.5t-154 98t-73.5 169.5t14 244l185 870h222l-181 -851q-21 -97 -18.5 -168t32 -117.5t88.5 -69t152 -22.5q89 0 156.5 26t116.5 74t81 117t50 155l182 856h222l-185 -870q-30 -140 -88.5 -242.5t-142.5 -169t-192.5 -98.5t-238.5 -32z
M1069 1722q-29 0 -49 -13t-26 -42q-7 -30 6.5 -43.5t45.5 -13.5q34 0 50.5 15.5t21.5 39.5q7 31 -6.5 44t-42.5 13zM1090 1813q81 0 116.5 -35.5t18.5 -112.5q-7 -32 -22 -58.5t-39 -46t-57.5 -30.5t-77.5 -11q-85 0 -121.5 36.5t-19.5 112.5q16 77 68.5 111t133.5 34z" />
    <glyph glyph-name="Utilde" unicode="&#x168;" horiz-adv-x="1387" 
d="M694 -18q-131 -1 -227.5 30.5t-154 98t-73.5 169.5t14 244l185 870h222l-181 -851q-21 -97 -18.5 -168t32 -117.5t88.5 -69t152 -22.5q89 0 156.5 26t116.5 74t81 117t50 155l182 856h222l-185 -870q-30 -140 -88.5 -242.5t-142.5 -169t-192.5 -98.5t-238.5 -32z
M687 1615q57 75 125 115t147 40q39 0 71 -11.5t61.5 -26t57 -26t57.5 -11.5q22 0 38 2.5t30.5 10t29.5 20t36 32.5l100 -71q-29 -39 -61.5 -68t-67 -48t-69 -28.5t-66.5 -9.5q-39 0 -72 11.5t-63 25.5t-58 25.5t-58 11.5q-26 0 -43 -3.5t-32 -11t-29.5 -19.5t-33.5 -30z" />
    <glyph glyph-name="Wacute" unicode="&#x1e82;" horiz-adv-x="1948" 
d="M1387 1394q-2 -84 -2.5 -183.5t1 -204.5t5.5 -212.5t10 -206.5t14.5 -186.5t20.5 -153.5h17q40 73 84.5 170t90 204t89 219t82.5 216t71 194t53 154l231 -10q-30 -97 -73.5 -215t-95.5 -245t-110 -257.5t-116 -253t-114.5 -231t-104.5 -192.5h-287q-13 64 -23.5 149
t-17.5 179.5t-12 193t-7 191t-2 173.5t3 140h-6q-26 -67 -61 -149.5t-75 -172.5t-84.5 -184.5t-91 -186t-92.5 -177t-90 -156.5h-288q-12 66 -22 168t-16 224t-8.5 257t-0.5 268t8 256t18 221l236 10q-9 -65 -16 -161.5t-12 -208.5t-7.5 -229.5t-2.5 -224.5t3.5 -194.5
t10.5 -138.5h17q42 67 91 160.5t100 199t102 217.5t96.5 217t83.5 196.5t64 156.5h236zM1278 1577l297 301l136 -103l-347 -268z" />
    <glyph glyph-name="Wcircumflex" unicode="&#x174;" horiz-adv-x="1948" 
d="M1387 1394q-2 -84 -2.5 -183.5t1 -204.5t5.5 -212.5t10 -206.5t14.5 -186.5t20.5 -153.5h17q40 73 84.5 170t90 204t89 219t82.5 216t71 194t53 154l231 -10q-30 -97 -73.5 -215t-95.5 -245t-110 -257.5t-116 -253t-114.5 -231t-104.5 -192.5h-287q-13 64 -23.5 149
t-17.5 179.5t-12 193t-7 191t-2 173.5t3 140h-6q-26 -67 -61 -149.5t-75 -172.5t-84.5 -184.5t-91 -186t-92.5 -177t-90 -156.5h-288q-12 66 -22 168t-16 224t-8.5 257t-0.5 268t8 256t18 221l236 10q-9 -65 -16 -161.5t-12 -208.5t-7.5 -229.5t-2.5 -224.5t3.5 -194.5
t10.5 -138.5h17q42 67 91 160.5t100 199t102 217.5t96.5 217t83.5 196.5t64 156.5h236zM1102 1509l-121 39l269 264h237l155 -264l-140 -41l-159 189z" />
    <glyph glyph-name="Wdieresis" unicode="&#x1e84;" horiz-adv-x="1948" 
d="M1387 1394q-2 -84 -2.5 -183.5t1 -204.5t5.5 -212.5t10 -206.5t14.5 -186.5t20.5 -153.5h17q40 73 84.5 170t90 204t89 219t82.5 216t71 194t53 154l231 -10q-30 -97 -73.5 -215t-95.5 -245t-110 -257.5t-116 -253t-114.5 -231t-104.5 -192.5h-287q-13 64 -23.5 149
t-17.5 179.5t-12 193t-7 191t-2 173.5t3 140h-6q-26 -67 -61 -149.5t-75 -172.5t-84.5 -184.5t-91 -186t-92.5 -177t-90 -156.5h-288q-12 66 -22 168t-16 224t-8.5 257t-0.5 268t8 256t18 221l236 10q-9 -65 -16 -161.5t-12 -208.5t-7.5 -229.5t-2.5 -224.5t3.5 -194.5
t10.5 -138.5h17q42 67 91 160.5t100 199t102 217.5t96.5 217t83.5 196.5t64 156.5h236zM1173 1754q110 0 91 -94q-9 -42 -40 -67.5t-89 -25.5q-113 0 -94 95q20 92 132 92zM1517 1754q110 0 91 -94q-9 -42 -40.5 -67.5t-88.5 -25.5q-113 0 -94 95q20 92 132 92z" />
    <glyph glyph-name="Wgrave" unicode="&#x1e80;" horiz-adv-x="1948" 
d="M1387 1394q-2 -84 -2.5 -183.5t1 -204.5t5.5 -212.5t10 -206.5t14.5 -186.5t20.5 -153.5h17q40 73 84.5 170t90 204t89 219t82.5 216t71 194t53 154l231 -10q-30 -97 -73.5 -215t-95.5 -245t-110 -257.5t-116 -253t-114.5 -231t-104.5 -192.5h-287q-13 64 -23.5 149
t-17.5 179.5t-12 193t-7 191t-2 173.5t3 140h-6q-26 -67 -61 -149.5t-75 -172.5t-84.5 -184.5t-91 -186t-92.5 -177t-90 -156.5h-288q-12 66 -22 168t-16 224t-8.5 257t-0.5 268t8 256t18 221l236 10q-9 -65 -16 -161.5t-12 -208.5t-7.5 -229.5t-2.5 -224.5t3.5 -194.5
t10.5 -138.5h17q42 67 91 160.5t100 199t102 217.5t96.5 217t83.5 196.5t64 156.5h236zM1293 1518l-233 268l180 103l169 -301z" />
    <glyph glyph-name="Yacute" unicode="&#xdd;" horiz-adv-x="1208" 
d="M427 951q-24 65 -45 129.5t-38.5 123t-30 108t-19.5 82.5l252 10q6 -29 15.5 -71t21.5 -89t26 -96t28 -91q13 -42 29.5 -87.5t33 -87.5t32 -76.5t27.5 -53.5h11q19 19 49 53t64 76t69.5 87t66.5 87q33 44 66 91t64.5 93t59.5 88t50 77l249 -10q-55 -84 -136.5 -196.5
t-180.5 -240.5q-89 -115 -178.5 -213.5t-182.5 -198.5l-115 -545h-221l115 545q-43 88 -92.5 191t-89.5 215zM888 1556l297 301l136 -103l-347 -268z" />
    <glyph glyph-name="Ycircumflex" unicode="&#x176;" horiz-adv-x="1208" 
d="M427 951q-24 65 -45 129.5t-38.5 123t-30 108t-19.5 82.5l252 10q6 -29 15.5 -71t21.5 -89t26 -96t28 -91q13 -42 29.5 -87.5t33 -87.5t32 -76.5t27.5 -53.5h11q19 19 49 53t64 76t69.5 87t66.5 87q33 44 66 91t64.5 93t59.5 88t50 77l249 -10q-55 -84 -136.5 -196.5
t-180.5 -240.5q-89 -115 -178.5 -213.5t-182.5 -198.5l-115 -545h-221l115 545q-43 88 -92.5 191t-89.5 215zM736 1507l-121 39l269 264h237l155 -264l-140 -41l-159 189z" />
    <glyph glyph-name="Ydieresis" unicode="&#x178;" horiz-adv-x="1208" 
d="M427 951q-24 65 -45 129.5t-38.5 123t-30 108t-19.5 82.5l252 10q6 -29 15.5 -71t21.5 -89t26 -96t28 -91q13 -42 29.5 -87.5t33 -87.5t32 -76.5t27.5 -53.5h11q19 19 49 53t64 76t69.5 87t66.5 87q33 44 66 91t64.5 93t59.5 88t50 77l249 -10q-55 -84 -136.5 -196.5
t-180.5 -240.5q-89 -115 -178.5 -213.5t-182.5 -198.5l-115 -545h-221l115 545q-43 88 -92.5 191t-89.5 215zM815 1762q110 0 91 -94q-9 -42 -40 -67.5t-89 -25.5q-113 0 -94 95q20 92 132 92zM1159 1762q110 0 91 -94q-9 -42 -40.5 -67.5t-88.5 -25.5q-113 0 -94 95
q20 92 132 92z" />
    <glyph glyph-name="Ygrave" unicode="&#x1ef2;" horiz-adv-x="1208" 
d="M427 951q-24 65 -45 129.5t-38.5 123t-30 108t-19.5 82.5l252 10q6 -29 15.5 -71t21.5 -89t26 -96t28 -91q13 -42 29.5 -87.5t33 -87.5t32 -76.5t27.5 -53.5h11q19 19 49 53t64 76t69.5 87t66.5 87q33 44 66 91t64.5 93t59.5 88t50 77l249 -10q-55 -84 -136.5 -196.5
t-180.5 -240.5q-89 -115 -178.5 -213.5t-182.5 -198.5l-115 -545h-221l115 545q-43 88 -92.5 191t-89.5 215zM930 1501l-233 268l180 103l169 -301z" />
    <glyph glyph-name="Zacute" unicode="&#x179;" horiz-adv-x="1127" 
d="M88 0l37 178q59 77 135.5 161.5t161.5 172.5t174.5 178t175 177.5t162 171.5t136.5 161l1 9h-697l40 185h949l-41 -193q-59 -80 -133 -163.5t-156 -168.5t-168 -171t-168.5 -171t-158 -168.5t-136.5 -163.5l-2 -10h678l-39 -185h-951zM898 1589l297 301l136 -103
l-347 -268z" />
    <glyph glyph-name="Zcaron" unicode="&#x17d;" horiz-adv-x="1127" 
d="M88 0l37 178q59 77 135.5 161.5t161.5 172.5t174.5 178t175 177.5t162 171.5t136.5 161l1 9h-697l40 185h949l-41 -193q-59 -80 -133 -163.5t-156 -168.5t-168 -171t-168.5 -171t-158 -168.5t-136.5 -163.5l-2 -10h678l-39 -185h-951zM979 1649l210 176l151 -40
l-266 -251h-238l-158 253l168 37z" />
    <glyph glyph-name="Zdotaccent" unicode="&#x17b;" horiz-adv-x="1127" 
d="M88 0l37 178q59 77 135.5 161.5t161.5 172.5t174.5 178t175 177.5t162 171.5t136.5 161l1 9h-697l40 185h949l-41 -193q-59 -80 -133 -163.5t-156 -168.5t-168 -171t-168.5 -171t-158 -168.5t-136.5 -163.5l-2 -10h678l-39 -185h-951zM986 1737q110 0 91 -94
q-9 -42 -40 -67.5t-89 -25.5q-113 0 -94 95q20 92 132 92z" />
    <glyph glyph-name="abreve" unicode="&#x103;" horiz-adv-x="1130" 
d="M181 502q28 132 88 232t143 167t185 101t215 34q58 0 111.5 -8t100.5 -21t87.5 -30t73.5 -34l-200 -943h-184l-5 99q-34 -22 -69.5 -43t-75 -37.5t-84.5 -26.5t-99 -10q-87 0 -153 32.5t-105 97t-48 162t19 228.5zM390 508q-19 -91 -14.5 -157.5t29 -109.5t66.5 -63.5
t97 -20.5q35 0 71 6.5t69.5 18.5t63 28t53.5 34l124 580q-8 4 -25 10t-41 12t-53 10t-62 4q-67 0 -127.5 -23t-110 -67.5t-86 -110t-54.5 -151.5zM886 1181q-89 0 -138.5 24.5t-74 61t-31 79t-9.5 77.5l142 31q1 -23 4.5 -48.5t17 -46.5t40.5 -35t77 -14t83 14t55 35
t36 46.5t26 48.5l128 -31q-18 -36 -42.5 -78.5t-64.5 -78.5t-100 -60.5t-149 -24.5z" />
    <glyph glyph-name="acircumflex" unicode="&#xe2;" horiz-adv-x="1130" 
d="M181 502q28 132 88 232t143 167t185 101t215 34q58 0 111.5 -8t100.5 -21t87.5 -30t73.5 -34l-200 -943h-184l-5 99q-34 -22 -69.5 -43t-75 -37.5t-84.5 -26.5t-99 -10q-87 0 -153 32.5t-105 97t-48 162t19 228.5zM390 508q-19 -91 -14.5 -157.5t29 -109.5t66.5 -63.5
t97 -20.5q35 0 71 6.5t69.5 18.5t63 28t53.5 34l124 580q-8 4 -25 10t-41 12t-53 10t-62 4q-67 0 -127.5 -23t-110 -67.5t-86 -110t-54.5 -151.5zM645 1160l-121 39l269 264h237l155 -264l-140 -41l-159 189z" />
    <glyph glyph-name="adieresis" unicode="&#xe4;" horiz-adv-x="1130" 
d="M181 502q28 132 88 232t143 167t185 101t215 34q58 0 111.5 -8t100.5 -21t87.5 -30t73.5 -34l-200 -943h-184l-5 99q-34 -22 -69.5 -43t-75 -37.5t-84.5 -26.5t-99 -10q-87 0 -153 32.5t-105 97t-48 162t19 228.5zM390 508q-19 -91 -14.5 -157.5t29 -109.5t66.5 -63.5
t97 -20.5q35 0 71 6.5t69.5 18.5t63 28t53.5 34l124 580q-8 4 -25 10t-41 12t-53 10t-62 4q-67 0 -127.5 -23t-110 -67.5t-86 -110t-54.5 -151.5zM730 1385q110 0 91 -94q-9 -42 -40 -67.5t-89 -25.5q-113 0 -94 95q20 92 132 92zM1074 1385q110 0 91 -94
q-9 -42 -40.5 -67.5t-88.5 -25.5q-113 0 -94 95q20 92 132 92z" />
    <glyph glyph-name="agrave" unicode="&#xe0;" horiz-adv-x="1130" 
d="M181 502q28 132 88 232t143 167t185 101t215 34q58 0 111.5 -8t100.5 -21t87.5 -30t73.5 -34l-200 -943h-184l-5 99q-34 -22 -69.5 -43t-75 -37.5t-84.5 -26.5t-99 -10q-87 0 -153 32.5t-105 97t-48 162t19 228.5zM390 508q-19 -91 -14.5 -157.5t29 -109.5t66.5 -63.5
t97 -20.5q35 0 71 6.5t69.5 18.5t63 28t53.5 34l124 580q-8 4 -25 10t-41 12t-53 10t-62 4q-67 0 -127.5 -23t-110 -67.5t-86 -110t-54.5 -151.5zM846 1154l-233 268l180 103l169 -301z" />
    <glyph glyph-name="amacron" unicode="&#x101;" horiz-adv-x="1130" 
d="M181 502q28 132 88 232t143 167t185 101t215 34q58 0 111.5 -8t100.5 -21t87.5 -30t73.5 -34l-200 -943h-184l-5 99q-34 -22 -69.5 -43t-75 -37.5t-84.5 -26.5t-99 -10q-87 0 -153 32.5t-105 97t-48 162t19 228.5zM390 508q-19 -91 -14.5 -157.5t29 -109.5t66.5 -63.5
t97 -20.5q35 0 71 6.5t69.5 18.5t63 28t53.5 34l124 580q-8 4 -25 10t-41 12t-53 10t-62 4q-67 0 -127.5 -23t-110 -67.5t-86 -110t-54.5 -151.5zM1171 1180h-619l31 148h619z" />
    <glyph glyph-name="aogonek" unicode="&#x105;" horiz-adv-x="1130" 
d="M181 502q28 132 88 232t143 167t185 101t215 34q58 0 111.5 -8t100.5 -21t87.5 -30t73.5 -34l-200 -943h-184l-5 99q-34 -22 -69.5 -43t-75 -37.5t-84.5 -26.5t-99 -10q-87 0 -153 32.5t-105 97t-48 162t19 228.5zM390 508q-19 -91 -14.5 -157.5t29 -109.5t66.5 -63.5
t97 -20.5q35 0 71 6.5t69.5 18.5t63 28t53.5 34l124 580q-8 4 -25 10t-41 12t-53 10t-62 4q-67 0 -127.5 -23t-110 -67.5t-86 -110t-54.5 -151.5zM1008 -381q-41 -14 -84.5 -22t-95.5 -8t-91 13t-64 38t-33.5 60.5t1.5 80.5q7 38 30 70t53.5 59t65 49.5t64.5 40.5h132
q-40 -30 -72 -53t-56 -44.5t-39.5 -44t-21.5 -51.5q-10 -48 14 -74t69 -26q29 0 56.5 3t62.5 11z" />
    <glyph glyph-name="aring" unicode="&#xe5;" horiz-adv-x="1130" 
d="M181 502q28 132 88 232t143 167t185 101t215 34q58 0 111.5 -8t100.5 -21t87.5 -30t73.5 -34l-200 -943h-184l-5 99q-34 -22 -69.5 -43t-75 -37.5t-84.5 -26.5t-99 -10q-87 0 -153 32.5t-105 97t-48 162t19 228.5zM390 508q-19 -91 -14.5 -157.5t29 -109.5t66.5 -63.5
t97 -20.5q35 0 71 6.5t69.5 18.5t63 28t53.5 34l124 580q-8 4 -25 10t-41 12t-53 10t-62 4q-67 0 -127.5 -23t-110 -67.5t-86 -110t-54.5 -151.5zM907 1346q-29 0 -49 -13t-26 -42q-7 -30 6.5 -43.5t45.5 -13.5q34 0 50.5 15.5t21.5 39.5q7 31 -6.5 44t-42.5 13zM928 1437
q81 0 116.5 -35.5t18.5 -112.5q-7 -32 -22 -58.5t-39 -46t-57.5 -30.5t-77.5 -11q-85 0 -121.5 36.5t-19.5 112.5q16 77 68.5 111t133.5 34z" />
    <glyph glyph-name="atilde" unicode="&#xe3;" horiz-adv-x="1130" 
d="M181 502q28 132 88 232t143 167t185 101t215 34q58 0 111.5 -8t100.5 -21t87.5 -30t73.5 -34l-200 -943h-184l-5 99q-34 -22 -69.5 -43t-75 -37.5t-84.5 -26.5t-99 -10q-87 0 -153 32.5t-105 97t-48 162t19 228.5zM390 508q-19 -91 -14.5 -157.5t29 -109.5t66.5 -63.5
t97 -20.5q35 0 71 6.5t69.5 18.5t63 28t53.5 34l124 580q-8 4 -25 10t-41 12t-53 10t-62 4q-67 0 -127.5 -23t-110 -67.5t-86 -110t-54.5 -151.5zM484 1224q57 75 125 115t147 40q39 0 71 -11.5t61.5 -26t57 -26t57.5 -11.5q22 0 38 2.5t30.5 10t29.5 20t36 32.5l100 -71
q-29 -39 -61.5 -68t-67 -48t-69 -28.5t-66.5 -9.5q-39 0 -72 11.5t-63 25.5t-58 25.5t-58 11.5q-26 0 -43 -3.5t-32 -11t-29.5 -19.5t-33.5 -30z" />
    <glyph glyph-name="cacute" unicode="&#x107;" horiz-adv-x="955" 
d="M765 1217l297 301l136 -103l-347 -268zM200 519q28 131 82.5 228t128.5 161.5t165 96t191 31.5q82 0 160.5 -20.5t153.5 -70.5l-93 -144q-102 60 -222 60q-142 0 -233 -90t-127 -261t16 -262t197 -91q64 0 125.5 17t118.5 42l33 -143q-88 -45 -175 -68t-180 -23
q-123 0 -200.5 40.5t-117 112t-44 170t20.5 214.5z" />
    <glyph glyph-name="ccaron" unicode="&#x10d;" horiz-adv-x="955" 
d="M851 1276l210 176l151 -40l-266 -251h-238l-158 253l168 37zM201 519q28 131 82.5 228t128.5 161.5t165 96t191 31.5q82 0 160.5 -20.5t153.5 -70.5l-93 -144q-102 60 -222 60q-142 0 -233 -90t-127 -261t16 -262t197 -91q64 0 125.5 17t118.5 42l33 -143
q-88 -45 -175 -68t-180 -23q-123 0 -200.5 40.5t-117 112t-44 170t20.5 214.5z" />
    <glyph glyph-name="ccedilla" unicode="&#xe7;" horiz-adv-x="955" 
d="M320 -295q32 -9 58 -12t55 -3q45 0 74.5 18t37.5 54q10 43 -17 58.5t-83 15.5q-17 0 -38 -1t-42 -3l99 165h157l-52 -83q69 -6 104.5 -44.5t18.5 -118.5q-19 -91 -86 -135t-171 -44q-52 0 -92 8t-75 22zM200 519q28 131 82.5 228t128.5 161.5t165 96t191 31.5
q82 0 160.5 -20.5t153.5 -70.5l-93 -144q-102 60 -222 60q-142 0 -233 -90t-127 -261t16 -262t197 -91q64 0 125.5 17t118.5 42l33 -143q-88 -45 -175 -68t-180 -23q-123 0 -200.5 40.5t-117 112t-44 170t20.5 214.5z" />
    <glyph glyph-name="ccircumflex" unicode="&#x109;" horiz-adv-x="955" 
d="M200 519q28 131 82.5 228t128.5 161.5t165 96t191 31.5q82 0 160.5 -20.5t153.5 -70.5l-93 -144q-102 60 -222 60q-142 0 -233 -90t-127 -261t16 -262t197 -91q64 0 125.5 17t118.5 42l33 -143q-88 -45 -175 -68t-180 -23q-123 0 -200.5 40.5t-117 112t-44 170
t20.5 214.5zM577 1118l-121 39l269 264h237l155 -264l-140 -41l-159 189z" />
    <glyph glyph-name="cdotaccent" unicode="&#x10b;" horiz-adv-x="955" 
d="M864 1350q110 0 91 -94q-9 -42 -40 -67.5t-89 -25.5q-113 0 -94 95q20 92 132 92zM200 519q28 131 82.5 228t128.5 161.5t165 96t191 31.5q82 0 160.5 -20.5t153.5 -70.5l-93 -144q-102 60 -222 60q-142 0 -233 -90t-127 -261t16 -262t197 -91q64 0 125.5 17t118.5 42
l33 -143q-88 -45 -175 -68t-180 -23q-123 0 -200.5 40.5t-117 112t-44 170t20.5 214.5z" />
    <glyph glyph-name="dcaron" unicode="&#x10f;" horiz-adv-x="1336" 
d="M816 0l-5 99q-71 -49 -151 -83t-177 -34q-84 0 -150 30t-106 94t-49.5 162.5t19.5 236.5q19 92 55 167.5t83 134.5t102.5 102t113.5 71.5t116.5 42t112.5 13.5q45 0 77.5 -3.5t57.5 -9.5t43.5 -13t34.5 -13l95 447h217l-306 -1444h-183zM405 508q-19 -92 -14.5 -158
t29 -109t67 -63.5t98.5 -20.5q57 0 123.5 19t128.5 60l124 585q-26 17 -75 28.5t-104 11.5q-65 0 -125 -22t-109.5 -66t-86.5 -110.5t-56 -154.5zM1544 1459q65 0 92.5 -27t15.5 -82l-1 -5q-13 -63 -36.5 -118t-54.5 -103t-67 -88.5t-73 -74.5l-89 46q48 65 84.5 127.5
t47.5 110.5q-49 7 -65.5 34t-6.5 74q11 54 50 80t103 26z" />
    <glyph glyph-name="dcroat" unicode="&#x111;" horiz-adv-x="1146" 
d="M1312 1185h-620l30 138h620zM816 0l-5 99q-71 -49 -151 -83t-177 -34q-84 0 -150 30t-106 94t-49.5 162.5t19.5 236.5q19 92 55 167.5t83 134.5t102.5 102t113.5 71.5t116.5 42t112.5 13.5q45 0 77.5 -3.5t57.5 -9.5t43.5 -13t34.5 -13l95 447h217l-306 -1444h-183z
M405 508q-19 -92 -14.5 -158t29 -109t67 -63.5t98.5 -20.5q57 0 123.5 19t128.5 60l124 585q-26 17 -75 28.5t-104 11.5q-65 0 -125 -22t-109.5 -66t-86.5 -110.5t-56 -154.5z" />
    <glyph glyph-name="eacute" unicode="&#xe9;" horiz-adv-x="1059" 
d="M387 412q-4 -62 9 -110t45 -81t84.5 -50.5t127.5 -17.5q72 0 142 23t129 52l33 -148q-92 -47 -182.5 -72.5t-195.5 -25.5q-240 0 -337.5 136t-41.5 400q27 126 82 222.5t131.5 162t172 99.5t203.5 34q88 0 157 -26t114 -71t63 -106t3 -131q-12 -58 -40 -110.5
t-76.5 -92.5t-120.5 -63.5t-172 -23.5h-330zM743 861q-58 0 -107.5 -20t-90 -55.5t-71 -84.5t-50.5 -107h298q40 0 72.5 2t57.5 11.5t41 28.5t23 52q10 46 -2.5 79t-38.5 54t-61 30.5t-71 9.5zM807 1198l297 301l136 -103l-347 -268z" />
    <glyph glyph-name="ebreve" unicode="&#x115;" horiz-adv-x="1059" 
d="M387 412q-4 -62 9 -110t45 -81t84.5 -50.5t127.5 -17.5q72 0 142 23t129 52l33 -148q-92 -47 -182.5 -72.5t-195.5 -25.5q-240 0 -337.5 136t-41.5 400q27 126 82 222.5t131.5 162t172 99.5t203.5 34q88 0 157 -26t114 -71t63 -106t3 -131q-12 -58 -40 -110.5
t-76.5 -92.5t-120.5 -63.5t-172 -23.5h-330zM743 861q-58 0 -107.5 -20t-90 -55.5t-71 -84.5t-50.5 -107h298q40 0 72.5 2t57.5 11.5t41 28.5t23 52q10 46 -2.5 79t-38.5 54t-61 30.5t-71 9.5zM834 1160q-89 0 -138.5 24.5t-74 61t-31 79t-9.5 77.5l142 31q1 -23 4.5 -48.5
t17 -46.5t40.5 -35t77 -14t83 14t55 35t36 46.5t26 48.5l128 -31q-18 -36 -42.5 -78.5t-64.5 -78.5t-100 -60.5t-149 -24.5z" />
    <glyph glyph-name="ecaron" unicode="&#x11b;" horiz-adv-x="1059" 
d="M387 412q-4 -62 9 -110t45 -81t84.5 -50.5t127.5 -17.5q72 0 142 23t129 52l33 -148q-92 -47 -182.5 -72.5t-195.5 -25.5q-240 0 -337.5 136t-41.5 400q27 126 82 222.5t131.5 162t172 99.5t203.5 34q88 0 157 -26t114 -71t63 -106t3 -131q-12 -58 -40 -110.5
t-76.5 -92.5t-120.5 -63.5t-172 -23.5h-330zM743 861q-58 0 -107.5 -20t-90 -55.5t-71 -84.5t-50.5 -107h298q40 0 72.5 2t57.5 11.5t41 28.5t23 52q10 46 -2.5 79t-38.5 54t-61 30.5t-71 9.5zM868 1268l210 176l151 -40l-266 -251h-238l-158 253l168 37z" />
    <glyph glyph-name="ecircumflex" unicode="&#xea;" horiz-adv-x="1059" 
d="M387 412q-4 -62 9 -110t45 -81t84.5 -50.5t127.5 -17.5q72 0 142 23t129 52l33 -148q-92 -47 -182.5 -72.5t-195.5 -25.5q-240 0 -337.5 136t-41.5 400q27 126 82 222.5t131.5 162t172 99.5t203.5 34q88 0 157 -26t114 -71t63 -106t3 -131q-12 -58 -40 -110.5
t-76.5 -92.5t-120.5 -63.5t-172 -23.5h-330zM743 861q-58 0 -107.5 -20t-90 -55.5t-71 -84.5t-50.5 -107h298q40 0 72.5 2t57.5 11.5t41 28.5t23 52q10 46 -2.5 79t-38.5 54t-61 30.5t-71 9.5zM614 1123l-121 39l269 264h237l155 -264l-140 -41l-159 189z" />
    <glyph glyph-name="edieresis" unicode="&#xeb;" horiz-adv-x="1059" 
d="M387 412q-4 -62 9 -110t45 -81t84.5 -50.5t127.5 -17.5q72 0 142 23t129 52l33 -148q-92 -47 -182.5 -72.5t-195.5 -25.5q-240 0 -337.5 136t-41.5 400q27 126 82 222.5t131.5 162t172 99.5t203.5 34q88 0 157 -26t114 -71t63 -106t3 -131q-12 -58 -40 -110.5
t-76.5 -92.5t-120.5 -63.5t-172 -23.5h-330zM743 861q-58 0 -107.5 -20t-90 -55.5t-71 -84.5t-50.5 -107h298q40 0 72.5 2t57.5 11.5t41 28.5t23 52q10 46 -2.5 79t-38.5 54t-61 30.5t-71 9.5zM694 1365q110 0 91 -94q-9 -42 -40 -67.5t-89 -25.5q-113 0 -94 95
q20 92 132 92zM1038 1365q110 0 91 -94q-9 -42 -40.5 -67.5t-88.5 -25.5q-113 0 -94 95q20 92 132 92z" />
    <glyph glyph-name="edotaccent" unicode="&#x117;" horiz-adv-x="1059" 
d="M387 412q-4 -62 9 -110t45 -81t84.5 -50.5t127.5 -17.5q72 0 142 23t129 52l33 -148q-92 -47 -182.5 -72.5t-195.5 -25.5q-240 0 -337.5 136t-41.5 400q27 126 82 222.5t131.5 162t172 99.5t203.5 34q88 0 157 -26t114 -71t63 -106t3 -131q-12 -58 -40 -110.5
t-76.5 -92.5t-120.5 -63.5t-172 -23.5h-330zM743 861q-58 0 -107.5 -20t-90 -55.5t-71 -84.5t-50.5 -107h298q40 0 72.5 2t57.5 11.5t41 28.5t23 52q10 46 -2.5 79t-38.5 54t-61 30.5t-71 9.5zM860 1357q110 0 91 -94q-9 -42 -40 -67.5t-89 -25.5q-113 0 -94 95
q20 92 132 92z" />
    <glyph glyph-name="egrave" unicode="&#xe8;" horiz-adv-x="1059" 
d="M387 412q-4 -62 9 -110t45 -81t84.5 -50.5t127.5 -17.5q72 0 142 23t129 52l33 -148q-92 -47 -182.5 -72.5t-195.5 -25.5q-240 0 -337.5 136t-41.5 400q27 126 82 222.5t131.5 162t172 99.5t203.5 34q88 0 157 -26t114 -71t63 -106t3 -131q-12 -58 -40 -110.5
t-76.5 -92.5t-120.5 -63.5t-172 -23.5h-330zM743 861q-58 0 -107.5 -20t-90 -55.5t-71 -84.5t-50.5 -107h298q40 0 72.5 2t57.5 11.5t41 28.5t23 52q10 46 -2.5 79t-38.5 54t-61 30.5t-71 9.5zM778 1139l-233 268l180 103l169 -301z" />
    <glyph glyph-name="emacron" unicode="&#x113;" horiz-adv-x="1059" 
d="M387 412q-4 -62 9 -110t45 -81t84.5 -50.5t127.5 -17.5q72 0 142 23t129 52l33 -148q-92 -47 -182.5 -72.5t-195.5 -25.5q-240 0 -337.5 136t-41.5 400q27 126 82 222.5t131.5 162t172 99.5t203.5 34q88 0 157 -26t114 -71t63 -106t3 -131q-12 -58 -40 -110.5
t-76.5 -92.5t-120.5 -63.5t-172 -23.5h-330zM743 861q-58 0 -107.5 -20t-90 -55.5t-71 -84.5t-50.5 -107h298q40 0 72.5 2t57.5 11.5t41 28.5t23 52q10 46 -2.5 79t-38.5 54t-61 30.5t-71 9.5zM1127 1160h-619l31 148h619z" />
    <glyph glyph-name="eogonek" unicode="&#x119;" horiz-adv-x="1059" 
d="M387 412q-4 -62 9 -110t45 -81t84.5 -50.5t127.5 -17.5q72 0 142 23t129 52l33 -148q-92 -47 -182.5 -72.5t-195.5 -25.5q-240 0 -337.5 136t-41.5 400q27 126 82 222.5t131.5 162t172 99.5t203.5 34q88 0 157 -26t114 -71t63 -106t3 -131q-12 -58 -40 -110.5
t-76.5 -92.5t-120.5 -63.5t-172 -23.5h-330zM743 861q-58 0 -107.5 -20t-90 -55.5t-71 -84.5t-50.5 -107h298q40 0 72.5 2t57.5 11.5t41 28.5t23 52q10 46 -2.5 79t-38.5 54t-61 30.5t-71 9.5zM875 -338q-41 -14 -84.5 -22t-95.5 -8t-91 13t-64 38t-33.5 60.5t1.5 80.5
q7 38 30 70t53.5 59t65 49.5t64.5 40.5h132q-40 -30 -72 -53t-56 -44.5t-39.5 -44t-21.5 -51.5q-10 -48 14 -74t69 -26q29 0 56.5 3t62.5 11z" />
    <glyph glyph-name="gbreve" unicode="&#x11f;" horiz-adv-x="1145" 
d="M871 1143q-89 0 -138.5 24.5t-74 61t-31 79t-9.5 77.5l142 31q1 -23 4.5 -48.5t17 -46.5t40.5 -35t77 -14t83 14t55 35t36 46.5t26 48.5l128 -31q-18 -36 -42.5 -78.5t-64.5 -78.5t-100 -60.5t-149 -24.5zM196 502q29 138 92 238.5t147.5 166t185 97.5t205.5 32
q53 0 105.5 -7.5t101 -20.5t91 -30t75.5 -35l-191 -900h-2l1 -1l-1 -8q-27 -126 -80.5 -211t-125.5 -137t-158.5 -74t-180.5 -22q-41 0 -87 8t-91.5 22.5t-87 33.5t-73.5 41l89 140q47 -29 115 -52t146 -25q57 -1 109.5 13.5t96 48.5t75.5 88.5t49 133.5l9 42
q-69 -44 -146.5 -73t-174.5 -29q-191 0 -269 133.5t-25 386.5zM405 508q-36 -173 13 -262t171 -89q30 0 63.5 7t67.5 19.5t64.5 28.5t54.5 34l123 581q-19 11 -67 22.5t-111 11.5q-57 0 -115.5 -19.5t-110 -61.5t-92 -109t-61.5 -163z" />
    <glyph glyph-name="gcircumflex" unicode="&#x11d;" horiz-adv-x="1145" 
d="M644 1127l-121 39l269 264h237l155 -264l-140 -41l-159 189zM196 502q29 138 92 238.5t147.5 166t185 97.5t205.5 32q53 0 105.5 -7.5t101 -20.5t91 -30t75.5 -35l-191 -900h-2l1 -1l-1 -8q-27 -126 -80.5 -211t-125.5 -137t-158.5 -74t-180.5 -22q-41 0 -87 8
t-91.5 22.5t-87 33.5t-73.5 41l89 140q47 -29 115 -52t146 -25q57 -1 109.5 13.5t96 48.5t75.5 88.5t49 133.5l9 42q-69 -44 -146.5 -73t-174.5 -29q-191 0 -269 133.5t-25 386.5zM405 508q-36 -173 13 -262t171 -89q30 0 63.5 7t67.5 19.5t64.5 28.5t54.5 34l123 581
q-19 11 -67 22.5t-111 11.5q-57 0 -115.5 -19.5t-110 -61.5t-92 -109t-61.5 -163z" />
    <glyph glyph-name="gcommaaccent" unicode="&#x123;" horiz-adv-x="1145" 
d="M869 1168q-65 0 -92.5 27t-15.5 82q12 64 36 120t55 104t67 89t73 75l90 -45q-23 -32 -44.5 -64.5t-39 -63t-30 -58.5t-18.5 -52q49 -7 66 -34t7 -74q-11 -54 -50 -80t-104 -26zM196 502q29 138 92 238.5t147.5 166t185 97.5t205.5 32q53 0 105.5 -7.5t101 -20.5t91 -30
t75.5 -35l-191 -900h-2l1 -1l-1 -8q-27 -126 -80.5 -211t-125.5 -137t-158.5 -74t-180.5 -22q-41 0 -87 8t-91.5 22.5t-87 33.5t-73.5 41l89 140q47 -29 115 -52t146 -25q57 -1 109.5 13.5t96 48.5t75.5 88.5t49 133.5l9 42q-69 -44 -146.5 -73t-174.5 -29
q-191 0 -269 133.5t-25 386.5zM405 508q-36 -173 13 -262t171 -89q30 0 63.5 7t67.5 19.5t64.5 28.5t54.5 34l123 581q-19 11 -67 22.5t-111 11.5q-57 0 -115.5 -19.5t-110 -61.5t-92 -109t-61.5 -163z" />
    <glyph glyph-name="gdotaccent" unicode="&#x121;" horiz-adv-x="1145" 
d="M918 1355q110 0 91 -94q-9 -42 -40 -67.5t-89 -25.5q-113 0 -94 95q20 92 132 92zM196 502q29 138 92 238.5t147.5 166t185 97.5t205.5 32q53 0 105.5 -7.5t101 -20.5t91 -30t75.5 -35l-191 -900h-2l1 -1l-1 -8q-27 -126 -80.5 -211t-125.5 -137t-158.5 -74t-180.5 -22
q-41 0 -87 8t-91.5 22.5t-87 33.5t-73.5 41l89 140q47 -29 115 -52t146 -25q57 -1 109.5 13.5t96 48.5t75.5 88.5t49 133.5l9 42q-69 -44 -146.5 -73t-174.5 -29q-191 0 -269 133.5t-25 386.5zM405 508q-36 -173 13 -262t171 -89q30 0 63.5 7t67.5 19.5t64.5 28.5t54.5 34
l123 581q-19 11 -67 22.5t-111 11.5q-57 0 -115.5 -19.5t-110 -61.5t-92 -109t-61.5 -163z" />
    <glyph glyph-name="hbar" unicode="&#x127;" 
d="M452 1444h212l-107 -505q30 14 70 31t85.5 31.5t94.5 24.5t97 10q93 0 150 -34.5t85 -90t31 -124.5t-12 -139l-137 -648h-209l136 643q3 12 6 33t2.5 45.5t-6.5 49t-22.5 44.5t-45 32.5t-72.5 12.5q-30 0 -72 -9.5t-84 -23.5t-78 -29.5t-55 -28.5l-163 -769h-212z
M912 1168h-619l31 148h619z" />
    <glyph glyph-name="hcircumflex" unicode="&#x125;" 
d="M452 1444h212l-107 -505q30 14 70 31t85.5 31.5t94.5 24.5t97 10q93 0 150 -34.5t85 -90t31 -124.5t-12 -139l-137 -648h-209l136 643q3 12 6 33t2.5 45.5t-6.5 49t-22.5 44.5t-45 32.5t-72.5 12.5q-30 0 -72 -9.5t-84 -23.5t-78 -29.5t-55 -28.5l-163 -769h-212z
M370 1479l-121 39l269 264h237l155 -264l-140 -41l-159 189z" />
    <glyph glyph-name="iacute" unicode="&#xed;" horiz-adv-x="504" 
d="M146 0l215 1013h212l-215 -1013h-212zM446 1202l297 301l136 -103l-347 -268z" />
    <glyph glyph-name="ibreve" unicode="&#x12d;" horiz-adv-x="504" 
d="M146 0l215 1013h212l-215 -1013h-212zM498 1149q-89 0 -138.5 24.5t-74 61t-31 79t-9.5 77.5l142 31q1 -23 4.5 -48.5t17 -46.5t40.5 -35t77 -14t83 14t55 35t36 46.5t26 48.5l128 -31q-18 -36 -42.5 -78.5t-64.5 -78.5t-100 -60.5t-149 -24.5z" />
    <glyph glyph-name="icircumflex" unicode="&#xee;" horiz-adv-x="504" 
d="M146 0l215 1013h212l-215 -1013h-212zM276 1116l-121 39l269 264h237l155 -264l-140 -41l-159 189z" />
    <glyph glyph-name="idieresis" unicode="&#xef;" horiz-adv-x="504" 
d="M146 0l215 1013h212l-215 -1013h-212zM374 1356q110 0 91 -94q-9 -42 -40 -67.5t-89 -25.5q-113 0 -94 95q20 92 132 92zM718 1356q110 0 91 -94q-9 -42 -40.5 -67.5t-88.5 -25.5q-113 0 -94 95q20 92 132 92z" />
    <glyph glyph-name="igrave" unicode="&#xec;" horiz-adv-x="504" 
d="M146 0l215 1013h212l-215 -1013h-212zM458 1116l-233 268l180 103l169 -301z" />
    <glyph glyph-name="imacron" unicode="&#x12b;" horiz-adv-x="504" 
d="M146 0l215 1013h212l-215 -1013h-212zM812 1158h-619l31 148h619z" />
    <glyph glyph-name="iogonek" unicode="&#x12f;" horiz-adv-x="504" 
d="M146 0l215 1013h212l-215 -1013h-212zM546 1390q130 0 107 -110q-11 -48 -46.5 -77.5t-104.5 -29.5q-133 0 -110 109q12 56 51 82t103 26zM334 -381q-41 -14 -84.5 -22t-95.5 -8t-91 13t-64 38t-33.5 60.5t1.5 80.5q7 38 30 70t53.5 59t65 49.5t64.5 40.5h132
q-40 -30 -72 -53t-56 -44.5t-39.5 -44t-21.5 -51.5q-10 -48 14 -74t69 -26q29 0 56.5 3t62.5 11z" />
    <glyph glyph-name="itilde" unicode="&#x129;" horiz-adv-x="504" 
d="M146 0l215 1013h212l-215 -1013h-212zM135 1238q57 75 125 115t147 40q39 0 71 -11.5t61.5 -26t57 -26t57.5 -11.5q22 0 38 2.5t30.5 10t29.5 20t36 32.5l100 -71q-29 -39 -61.5 -68t-67 -48t-69 -28.5t-66.5 -9.5q-39 0 -72 11.5t-63 25.5t-58 25.5t-58 11.5
q-26 0 -43 -3.5t-32 -11t-29.5 -19.5t-33.5 -30z" />
    <glyph glyph-name="jcircumflex" unicode="&#x135;" horiz-adv-x="504" 
d="M-190 -143q95 -36 172 -34q61 2 103.5 49t61.5 135l214 1006h212l-217 -1019q-11 -52 -36.5 -112t-71.5 -111t-115 -85t-166 -34q-40 0 -76 6t-66 14.5t-53 18t-37 15.5zM283 1123l-121 39l269 264h237l155 -264l-140 -41l-159 189z" />
    <glyph glyph-name="kcommaaccent" unicode="&#x137;" horiz-adv-x="1100" 
d="M1203 1013q-81 -136 -181 -244t-211 -190q15 -69 42 -143t61 -145t73 -135t80 -113l-172 -103q-41 34 -83 95.5t-79.5 135t-66.5 150t-43 139.5q-94 -48 -184 -78l-81 -382h-212l306 1444h212l-182 -859q84 32 155 76t131.5 99t113 118.5t99.5 134.5h222v0zM502 -54
q65 0 92.5 -27t15.5 -82l-1 -5q-13 -63 -36.5 -118t-54.5 -103t-67 -88.5t-73 -74.5l-89 46q48 65 84.5 127.5t47.5 110.5q-49 7 -65.5 34t-6.5 74q11 54 50 80t103 26z" />
    <glyph glyph-name="lacute" unicode="&#x13a;" horiz-adv-x="504" 
d="M146 0l306 1444h212l-306 -1444h-212zM535 1593l297 301l136 -103l-347 -268z" />
    <glyph glyph-name="lcaron" unicode="&#x13e;" horiz-adv-x="687" 
d="M146 0l306 1444h212l-306 -1444h-212zM901 1460q65 0 92.5 -27t15.5 -82l-1 -5q-13 -63 -36.5 -118t-54.5 -103t-67 -88.5t-73 -74.5l-89 46q48 65 84.5 127.5t47.5 110.5q-49 7 -65.5 34t-6.5 74q11 54 50 80t103 26z" />
    <glyph glyph-name="ldot" unicode="&#x140;" horiz-adv-x="640" 
d="M741 828q110 0 91 -94q-9 -42 -40 -67.5t-89 -25.5q-113 0 -94 95q20 92 132 92zM146 0l306 1444h212l-306 -1444h-212z" />
    <glyph glyph-name="lslash" unicode="&#x142;" horiz-adv-x="504" 
d="M687 740l-551 -245l-35 134l551 244zM146 0l306 1444h212l-306 -1444h-212z" />
    <glyph glyph-name="nacute" unicode="&#x144;" 
d="M329 865q40 24 100 53.5t134 56t158.5 44t172.5 17.5q100 0 161 -31t91.5 -83t33.5 -120.5t-13 -143.5l-139 -658h-212l137 645q7 36 8 74t-12 69t-43.5 50.5t-85.5 19.5q-38 0 -80 -9.5t-82.5 -24t-76.5 -31t-61 -29.5l-162 -764h-212zM778 1194l297 301l136 -103
l-347 -268z" />
    <glyph glyph-name="ncaron" unicode="&#x148;" 
d="M330 865q40 24 100 53.5t134 56t158.5 44t172.5 17.5q100 0 161 -31t91.5 -83t33.5 -120.5t-13 -143.5l-139 -658h-212l137 645q7 36 8 74t-12 69t-43.5 50.5t-85.5 19.5q-38 0 -80 -9.5t-82.5 -24t-76.5 -31t-61 -29.5l-162 -764h-212zM867 1266l210 176l151 -40
l-266 -251h-238l-158 253l168 37z" />
    <glyph glyph-name="ncommaaccent" unicode="&#x146;" 
d="M329 865q40 24 100 53.5t134 56t158.5 44t172.5 17.5q100 0 161 -31t91.5 -83t33.5 -120.5t-13 -143.5l-139 -658h-212l137 645q7 36 8 74t-12 69t-43.5 50.5t-85.5 19.5q-38 0 -80 -9.5t-82.5 -24t-76.5 -31t-61 -29.5l-162 -764h-212zM533 -38q65 0 92.5 -27t15.5 -82
l-1 -5q-13 -63 -36.5 -118t-54.5 -103t-67 -88.5t-73 -74.5l-89 46q48 65 84.5 127.5t47.5 110.5q-49 7 -65.5 34t-6.5 74q11 54 50 80t103 26z" />
    <glyph glyph-name="ntilde" unicode="&#xf1;" 
d="M333 865q40 24 100 53.5t134 56t158.5 44t172.5 17.5q100 0 161 -31t91.5 -83t33.5 -120.5t-13 -143.5l-139 -658h-212l137 645q7 36 8 74t-12 69t-43.5 50.5t-85.5 19.5q-38 0 -80 -9.5t-82.5 -24t-76.5 -31t-61 -29.5l-162 -764h-212zM508 1242q57 75 125 115t147 40
q39 0 71 -11.5t61.5 -26t57 -26t57.5 -11.5q22 0 38 2.5t30.5 10t29.5 20t36 32.5l100 -71q-29 -39 -61.5 -68t-67 -48t-69 -28.5t-66.5 -9.5q-39 0 -72 11.5t-63 25.5t-58 25.5t-58 11.5q-26 0 -43 -3.5t-32 -11t-29.5 -19.5t-33.5 -30z" />
    <glyph glyph-name="oacute" unicode="&#xf3;" horiz-adv-x="1157" 
d="M199 516q25 120 78.5 216t131 163.5t176 104t214.5 36.5q63 0 121 -12.5t106.5 -38.5t85.5 -67.5t58 -99.5t23.5 -133.5t-17.5 -169.5q-27 -129 -81.5 -228.5t-132 -167t-175.5 -102.5t-212 -35t-197 34t-132 101.5t-62 167.5t15 231zM407 515q-21 -98 -14.5 -166
t34.5 -110.5t75.5 -62t110.5 -19.5t119 20t102 63.5t80.5 111.5t54.5 163q19 90 12 155t-35 107.5t-75 63t-108 20.5q-63 0 -119.5 -21t-103 -64t-80.5 -108t-53 -153zM790 1191l297 301l136 -103l-347 -268z" />
    <glyph glyph-name="obreve" unicode="&#x14f;" horiz-adv-x="1157" 
d="M199 516q25 120 78.5 216t131 163.5t176 104t214.5 36.5q63 0 121 -12.5t106.5 -38.5t85.5 -67.5t58 -99.5t23.5 -133.5t-17.5 -169.5q-27 -129 -81.5 -228.5t-132 -167t-175.5 -102.5t-212 -35t-197 34t-132 101.5t-62 167.5t15 231zM407 515q-21 -98 -14.5 -166
t34.5 -110.5t75.5 -62t110.5 -19.5t119 20t102 63.5t80.5 111.5t54.5 163q19 90 12 155t-35 107.5t-75 63t-108 20.5q-63 0 -119.5 -21t-103 -64t-80.5 -108t-53 -153zM828 1159q-89 0 -138.5 24.5t-74 61t-31 79t-9.5 77.5l142 31q1 -23 4.5 -48.5t17 -46.5t40.5 -35
t77 -14t83 14t55 35t36 46.5t26 48.5l128 -31q-18 -36 -42.5 -78.5t-64.5 -78.5t-100 -60.5t-149 -24.5z" />
    <glyph glyph-name="ocircumflex" unicode="&#xf4;" horiz-adv-x="1157" 
d="M199 516q25 120 78.5 216t131 163.5t176 104t214.5 36.5q63 0 121 -12.5t106.5 -38.5t85.5 -67.5t58 -99.5t23.5 -133.5t-17.5 -169.5q-27 -129 -81.5 -228.5t-132 -167t-175.5 -102.5t-212 -35t-197 34t-132 101.5t-62 167.5t15 231zM407 515q-21 -98 -14.5 -166
t34.5 -110.5t75.5 -62t110.5 -19.5t119 20t102 63.5t80.5 111.5t54.5 163q19 90 12 155t-35 107.5t-75 63t-108 20.5q-63 0 -119.5 -21t-103 -64t-80.5 -108t-53 -153zM623 1123l-121 39l269 264h237l155 -264l-140 -41l-159 189z" />
    <glyph glyph-name="odieresis" unicode="&#xf6;" horiz-adv-x="1157" 
d="M199 516q25 120 78.5 216t131 163.5t176 104t214.5 36.5q63 0 121 -12.5t106.5 -38.5t85.5 -67.5t58 -99.5t23.5 -133.5t-17.5 -169.5q-27 -129 -81.5 -228.5t-132 -167t-175.5 -102.5t-212 -35t-197 34t-132 101.5t-62 167.5t15 231zM407 515q-21 -98 -14.5 -166
t34.5 -110.5t75.5 -62t110.5 -19.5t119 20t102 63.5t80.5 111.5t54.5 163q19 90 12 155t-35 107.5t-75 63t-108 20.5q-63 0 -119.5 -21t-103 -64t-80.5 -108t-53 -153zM690 1365q110 0 91 -94q-9 -42 -40 -67.5t-89 -25.5q-113 0 -94 95q20 92 132 92zM1034 1365
q110 0 91 -94q-9 -42 -40.5 -67.5t-88.5 -25.5q-113 0 -94 95q20 92 132 92z" />
    <glyph glyph-name="ograve" unicode="&#xf2;" horiz-adv-x="1157" 
d="M199 516q25 120 78.5 216t131 163.5t176 104t214.5 36.5q63 0 121 -12.5t106.5 -38.5t85.5 -67.5t58 -99.5t23.5 -133.5t-17.5 -169.5q-27 -129 -81.5 -228.5t-132 -167t-175.5 -102.5t-212 -35t-197 34t-132 101.5t-62 167.5t15 231zM407 515q-21 -98 -14.5 -166
t34.5 -110.5t75.5 -62t110.5 -19.5t119 20t102 63.5t80.5 111.5t54.5 163q19 90 12 155t-35 107.5t-75 63t-108 20.5q-63 0 -119.5 -21t-103 -64t-80.5 -108t-53 -153zM769 1137l-233 268l180 103l169 -301z" />
    <glyph glyph-name="ohungarumlaut" unicode="&#x151;" horiz-adv-x="1157" 
d="M199 516q25 120 78.5 216t131 163.5t176 104t214.5 36.5q63 0 121 -12.5t106.5 -38.5t85.5 -67.5t58 -99.5t23.5 -133.5t-17.5 -169.5q-27 -129 -81.5 -228.5t-132 -167t-175.5 -102.5t-212 -35t-197 34t-132 101.5t-62 167.5t15 231zM407 515q-21 -98 -14.5 -166
t34.5 -110.5t75.5 -62t110.5 -19.5t119 20t102 63.5t80.5 111.5t54.5 163q19 90 12 155t-35 107.5t-75 63t-108 20.5q-63 0 -119.5 -21t-103 -64t-80.5 -108t-53 -153zM602 1195l298 301l130 -95l-350 -269zM966 1195l298 301l131 -95l-350 -269z" />
    <glyph glyph-name="omacron" unicode="&#x14d;" horiz-adv-x="1157" 
d="M199 516q25 120 78.5 216t131 163.5t176 104t214.5 36.5q63 0 121 -12.5t106.5 -38.5t85.5 -67.5t58 -99.5t23.5 -133.5t-17.5 -169.5q-27 -129 -81.5 -228.5t-132 -167t-175.5 -102.5t-212 -35t-197 34t-132 101.5t-62 167.5t15 231zM407 515q-21 -98 -14.5 -166
t34.5 -110.5t75.5 -62t110.5 -19.5t119 20t102 63.5t80.5 111.5t54.5 163q19 90 12 155t-35 107.5t-75 63t-108 20.5q-63 0 -119.5 -21t-103 -64t-80.5 -108t-53 -153zM1135 1170h-619l31 148h619z" />
    <glyph glyph-name="otilde" unicode="&#xf5;" horiz-adv-x="1157" 
d="M199 516q25 120 78.5 216t131 163.5t176 104t214.5 36.5q63 0 121 -12.5t106.5 -38.5t85.5 -67.5t58 -99.5t23.5 -133.5t-17.5 -169.5q-27 -129 -81.5 -228.5t-132 -167t-175.5 -102.5t-212 -35t-197 34t-132 101.5t-62 167.5t15 231zM407 515q-21 -98 -14.5 -166
t34.5 -110.5t75.5 -62t110.5 -19.5t119 20t102 63.5t80.5 111.5t54.5 163q19 90 12 155t-35 107.5t-75 63t-108 20.5q-63 0 -119.5 -21t-103 -64t-80.5 -108t-53 -153zM462 1228q57 75 125 115t147 40q39 0 71 -11.5t61.5 -26t57 -26t57.5 -11.5q22 0 38 2.5t30.5 10
t29.5 20t36 32.5l100 -71q-29 -39 -61.5 -68t-67 -48t-69 -28.5t-66.5 -9.5q-39 0 -72 11.5t-63 25.5t-58 25.5t-58 11.5q-26 0 -43 -3.5t-32 -11t-29.5 -19.5t-33.5 -30z" />
    <glyph glyph-name="racute" unicode="&#x155;" horiz-adv-x="821" 
d="M345 886q185 111 351 137.5t312 -20.5l-67 -165q-45 9 -93.5 12.5t-99.5 -2.5t-105 -24t-110 -52l-164 -772h-212zM660 1201l297 301l136 -103l-347 -268z" />
    <glyph glyph-name="rcaron" unicode="&#x159;" horiz-adv-x="821" 
d="M345 886q185 111 351 137.5t312 -20.5l-67 -165q-45 9 -93.5 12.5t-99.5 -2.5t-105 -24t-110 -52l-164 -772h-212zM766 1268l210 176l151 -40l-266 -251h-238l-158 253l168 37z" />
    <glyph glyph-name="rcommaaccent" unicode="&#x157;" horiz-adv-x="821" 
d="M345 886q185 111 351 137.5t312 -20.5l-67 -165q-45 9 -93.5 12.5t-99.5 -2.5t-105 -24t-110 -52l-164 -772h-212zM227 -70q65 0 92.5 -27t15.5 -82l-1 -5q-13 -63 -36.5 -118t-54.5 -103t-67 -88.5t-73 -74.5l-89 46q48 65 84.5 127.5t47.5 110.5q-49 7 -65.5 34
t-6.5 74q11 54 50 80t103 26z" />
    <glyph glyph-name="sacute" unicode="&#x15b;" horiz-adv-x="898" 
d="M173 233q80 -44 152 -61.5t142 -17.5q39 0 73.5 11.5t61.5 30.5t45.5 43t24.5 50q5 23 0 42.5t-25.5 38.5t-58 39t-97.5 44q-59 22 -110 45t-85.5 56t-49 80t0.5 117q15 71 54 124.5t96 89t128.5 53.5t150.5 18q102 0 178.5 -20t141.5 -58l-92 -149q-65 28 -118 40.5
t-107 12.5q-94 0 -153 -29.5t-73 -93.5q-7 -32 8.5 -51.5t44 -33.5t65.5 -25t73 -24q77 -28 127.5 -60t78 -71t33.5 -86t-6 -105q-14 -65 -53 -120.5t-96.5 -95.5t-130 -62.5t-153.5 -22.5q-68 0 -124.5 9t-102.5 22.5t-80.5 30.5t-58.5 32zM712 1197l297 301l136 -103
l-347 -268z" />
    <glyph glyph-name="scaron" unicode="&#x161;" horiz-adv-x="898" 
d="M173 233q80 -44 152 -61.5t142 -17.5q39 0 73.5 11.5t61.5 30.5t45.5 43t24.5 50q5 23 0 42.5t-25.5 38.5t-58 39t-97.5 44q-59 22 -110 45t-85.5 56t-49 80t0.5 117q15 71 54 124.5t96 89t128.5 53.5t150.5 18q102 0 178.5 -20t141.5 -58l-92 -149q-65 28 -118 40.5
t-107 12.5q-94 0 -153 -29.5t-73 -93.5q-7 -32 8.5 -51.5t44 -33.5t65.5 -25t73 -24q77 -28 127.5 -60t78 -71t33.5 -86t-6 -105q-14 -65 -53 -120.5t-96.5 -95.5t-130 -62.5t-153.5 -22.5q-68 0 -124.5 9t-102.5 22.5t-80.5 30.5t-58.5 32zM727 1262l210 176l151 -40
l-266 -251h-238l-158 253l168 37z" />
    <glyph glyph-name="scedilla" unicode="&#x15f;" horiz-adv-x="898" 
d="M173 233q80 -44 152 -61.5t142 -17.5q39 0 73.5 11.5t61.5 30.5t45.5 43t24.5 50q5 23 0 42.5t-25.5 38.5t-58 39t-97.5 44q-59 22 -110 45t-85.5 56t-49 80t0.5 117q15 71 54 124.5t96 89t128.5 53.5t150.5 18q102 0 178.5 -20t141.5 -58l-92 -149q-65 28 -118 40.5
t-107 12.5q-94 0 -153 -29.5t-73 -93.5q-7 -32 8.5 -51.5t44 -33.5t65.5 -25t73 -24q77 -28 127.5 -60t78 -71t33.5 -86t-6 -105q-14 -65 -53 -120.5t-96.5 -95.5t-130 -62.5t-153.5 -22.5q-68 0 -124.5 9t-102.5 22.5t-80.5 30.5t-58.5 32zM228 -302q32 -9 58 -12t55 -3
q45 0 74.5 18t37.5 54q10 43 -17 58.5t-83 15.5q-17 0 -38 -1t-42 -3l99 165h157l-52 -83q69 -6 104.5 -44.5t18.5 -118.5q-19 -91 -86 -135t-171 -44q-52 0 -92 8t-75 22z" />
    <glyph glyph-name="scircumflex" unicode="&#x15d;" horiz-adv-x="898" 
d="M173 233q80 -44 152 -61.5t142 -17.5q39 0 73.5 11.5t61.5 30.5t45.5 43t24.5 50q5 23 0 42.5t-25.5 38.5t-58 39t-97.5 44q-59 22 -110 45t-85.5 56t-49 80t0.5 117q15 71 54 124.5t96 89t128.5 53.5t150.5 18q102 0 178.5 -20t141.5 -58l-92 -149q-65 28 -118 40.5
t-107 12.5q-94 0 -153 -29.5t-73 -93.5q-7 -32 8.5 -51.5t44 -33.5t65.5 -25t73 -24q77 -28 127.5 -60t78 -71t33.5 -86t-6 -105q-14 -65 -53 -120.5t-96.5 -95.5t-130 -62.5t-153.5 -22.5q-68 0 -124.5 9t-102.5 22.5t-80.5 30.5t-58.5 32zM506 1111l-121 39l269 264h237
l155 -264l-140 -41l-159 189z" />
    <glyph glyph-name="scommaaccent" unicode="&#x219;" horiz-adv-x="898" 
d="M173 233q80 -44 152 -61.5t142 -17.5q39 0 73.5 11.5t61.5 30.5t45.5 43t24.5 50q5 23 0 42.5t-25.5 38.5t-58 39t-97.5 44q-59 22 -110 45t-85.5 56t-49 80t0.5 117q15 71 54 124.5t96 89t128.5 53.5t150.5 18q102 0 178.5 -20t141.5 -58l-92 -149q-65 28 -118 40.5
t-107 12.5q-94 0 -153 -29.5t-73 -93.5q-7 -32 8.5 -51.5t44 -33.5t65.5 -25t73 -24q77 -28 127.5 -60t78 -71t33.5 -86t-6 -105q-14 -65 -53 -120.5t-96.5 -95.5t-130 -62.5t-153.5 -22.5q-68 0 -124.5 9t-102.5 22.5t-80.5 30.5t-58.5 32zM396 -95q65 0 92.5 -27t15.5 -82
l-1 -5q-13 -63 -36.5 -118t-54.5 -103t-67 -88.5t-73 -74.5l-89 46q48 65 84.5 127.5t47.5 110.5q-49 7 -65.5 34t-6.5 74q11 54 50 80t103 26z" />
    <glyph glyph-name="tbar" unicode="&#x167;" horiz-adv-x="801" 
d="M656 478h-477l29 138h477zM300 992l123 21l79 248h186l-53 -248h234l-35 -163h-234l-113 -533q-8 -36 -8.5 -65.5t8.5 -50.5t27.5 -32.5t50.5 -11.5q51 0 87.5 12t71.5 25l23 -145q-32 -15 -62.5 -27.5t-63 -21t-68.5 -13.5t-78 -5q-60 0 -106 19t-73.5 57.5t-34.5 98
t10 140.5l117 553h-118z" />
    <glyph glyph-name="tcaron" unicode="&#x165;" horiz-adv-x="951" 
d="M300 992l123 21l79 248h186l-53 -248h234l-35 -163h-234l-113 -533q-8 -36 -8.5 -65.5t8.5 -50.5t27.5 -32.5t50.5 -11.5q51 0 87.5 12t71.5 25l23 -145q-32 -15 -62.5 -27.5t-63 -21t-68.5 -13.5t-78 -5q-60 0 -106 19t-73.5 57.5t-34.5 98t10 140.5l117 553h-118z
M1107 1432q65 0 92.5 -27t15.5 -82l-1 -5q-13 -63 -36.5 -118t-54.5 -103t-67 -88.5t-73 -74.5l-89 46q48 65 84.5 127.5t47.5 110.5q-49 7 -65.5 34t-6.5 74q11 54 50 80t103 26z" />
    <glyph glyph-name="tcommaaccent" unicode="&#x163;" horiz-adv-x="801" 
d="M300 992l123 21l79 248h186l-53 -248h234l-35 -163h-234l-113 -533q-8 -36 -8.5 -65.5t8.5 -50.5t27.5 -32.5t50.5 -11.5q51 0 87.5 12t71.5 25l23 -145q-32 -15 -62.5 -27.5t-63 -21t-68.5 -13.5t-78 -5q-60 0 -106 19t-73.5 57.5t-34.5 98t10 140.5l117 553h-118z
M465 -84q65 0 92.5 -27t15.5 -82l-1 -5q-13 -63 -36.5 -118t-54.5 -103t-67 -88.5t-73 -74.5l-89 46q48 65 84.5 127.5t47.5 110.5q-49 7 -65.5 34t-6.5 74q11 54 50 80t103 26z" />
    <glyph glyph-name="uacute" unicode="&#xfa;" 
d="M347 1013h212l-128 -601q-16 -74 -9 -123.5t30.5 -78.5t61.5 -41t85 -12q72 0 135 20.5t119 59.5l165 776h212l-215 -1013h-184l-5 98q-27 -21 -62 -42t-75.5 -37.5t-85.5 -26.5t-93 -10q-99 0 -165 30t-101 84t-42 129t12 165zM755 1183l297 301l136 -103l-347 -268z
" />
    <glyph glyph-name="ubreve" unicode="&#x16d;" 
d="M347 1013h212l-128 -601q-16 -74 -9 -123.5t30.5 -78.5t61.5 -41t85 -12q72 0 135 20.5t119 59.5l165 776h212l-215 -1013h-184l-5 98q-27 -21 -62 -42t-75.5 -37.5t-85.5 -26.5t-93 -10q-99 0 -165 30t-101 84t-42 129t12 165zM842 1164q-89 0 -138.5 24.5t-74 61
t-31 79t-9.5 77.5l142 31q1 -23 4.5 -48.5t17 -46.5t40.5 -35t77 -14t83 14t55 35t36 46.5t26 48.5l128 -31q-18 -36 -42.5 -78.5t-64.5 -78.5t-100 -60.5t-149 -24.5z" />
    <glyph glyph-name="ucircumflex" unicode="&#xfb;" 
d="M347 1013h212l-128 -601q-16 -74 -9 -123.5t30.5 -78.5t61.5 -41t85 -12q72 0 135 20.5t119 59.5l165 776h212l-215 -1013h-184l-5 98q-27 -21 -62 -42t-75.5 -37.5t-85.5 -26.5t-93 -10q-99 0 -165 30t-101 84t-42 129t12 165zM630 1130l-121 39l269 264h237l155 -264
l-140 -41l-159 189z" />
    <glyph glyph-name="udieresis" unicode="&#xfc;" 
d="M347 1013h212l-128 -601q-16 -74 -9 -123.5t30.5 -78.5t61.5 -41t85 -12q72 0 135 20.5t119 59.5l165 776h212l-215 -1013h-184l-5 98q-27 -21 -62 -42t-75.5 -37.5t-85.5 -26.5t-93 -10q-99 0 -165 30t-101 84t-42 129t12 165zM719 1354q110 0 91 -94q-9 -42 -40 -67.5
t-89 -25.5q-113 0 -94 95q20 92 132 92zM1063 1354q110 0 91 -94q-9 -42 -40.5 -67.5t-88.5 -25.5q-113 0 -94 95q20 92 132 92z" />
    <glyph glyph-name="uhungarumlaut" unicode="&#x171;" 
d="M352 1013h212l-128 -601q-16 -74 -9 -123.5t30.5 -78.5t61.5 -41t85 -12q72 0 135 20.5t119 59.5l165 776h212l-215 -1013h-184l-5 98q-27 -21 -62 -42t-75.5 -37.5t-85.5 -26.5t-93 -10q-99 0 -165 30t-101 84t-42 129t12 165zM592 1180l298 301l130 -95l-350 -269z
M956 1180l298 301l131 -95l-350 -269z" />
    <glyph glyph-name="ugrave" unicode="&#xf9;" 
d="M347 1013h212l-128 -601q-16 -74 -9 -123.5t30.5 -78.5t61.5 -41t85 -12q72 0 135 20.5t119 59.5l165 776h212l-215 -1013h-184l-5 98q-27 -21 -62 -42t-75.5 -37.5t-85.5 -26.5t-93 -10q-99 0 -165 30t-101 84t-42 129t12 165zM820 1128l-233 268l180 103l169 -301z" />
    <glyph glyph-name="umacron" unicode="&#x16b;" 
d="M357 1013h212l-128 -601q-16 -74 -9 -123.5t30.5 -78.5t61.5 -41t85 -12q72 0 135 20.5t119 59.5l165 776h212l-215 -1013h-184l-5 98q-27 -21 -62 -42t-75.5 -37.5t-85.5 -26.5t-93 -10q-99 0 -165 30t-101 84t-42 129t12 165zM1172 1158h-619l31 148h619z" />
    <glyph glyph-name="uogonek" unicode="&#x173;" 
d="M347 1013h212l-128 -601q-16 -74 -9 -123.5t30.5 -78.5t61.5 -41t85 -12q72 0 135 20.5t119 59.5l165 776h212l-215 -1013h-184l-5 98q-27 -21 -62 -42t-75.5 -37.5t-85.5 -26.5t-93 -10q-99 0 -165 30t-101 84t-42 129t12 165zM1029 -381q-41 -14 -84.5 -22t-95.5 -8
t-91 13t-64 38t-33.5 60.5t1.5 80.5q7 38 30 70t53.5 59t65 49.5t64.5 40.5h132q-40 -30 -72 -53t-56 -44.5t-39.5 -44t-21.5 -51.5q-10 -48 14 -74t69 -26q29 0 56.5 3t62.5 11z" />
    <glyph glyph-name="uring" unicode="&#x16f;" 
d="M347 1013h212l-128 -601q-16 -74 -9 -123.5t30.5 -78.5t61.5 -41t85 -12q72 0 135 20.5t119 59.5l165 776h212l-215 -1013h-184l-5 98q-27 -21 -62 -42t-75.5 -37.5t-85.5 -26.5t-93 -10q-99 0 -165 30t-101 84t-42 129t12 165zM900 1338q-29 0 -49 -13t-26 -42
q-7 -30 6.5 -43.5t45.5 -13.5q34 0 50.5 15.5t21.5 39.5q7 31 -6.5 44t-42.5 13zM921 1429q81 0 116.5 -35.5t18.5 -112.5q-7 -32 -22 -58.5t-39 -46t-57.5 -30.5t-77.5 -11q-85 0 -121.5 36.5t-19.5 112.5q16 77 68.5 111t133.5 34z" />
    <glyph glyph-name="utilde" unicode="&#x169;" 
d="M349 1013h212l-128 -601q-16 -74 -9 -123.5t30.5 -78.5t61.5 -41t85 -12q72 0 135 20.5t119 59.5l165 776h212l-215 -1013h-184l-5 98q-27 -21 -62 -42t-75.5 -37.5t-85.5 -26.5t-93 -10q-99 0 -165 30t-101 84t-42 129t12 165zM479 1228q57 75 125 115t147 40
q39 0 71 -11.5t61.5 -26t57 -26t57.5 -11.5q22 0 38 2.5t30.5 10t29.5 20t36 32.5l100 -71q-29 -39 -61.5 -68t-67 -48t-69 -28.5t-66.5 -9.5q-39 0 -72 11.5t-63 25.5t-58 25.5t-58 11.5q-26 0 -43 -3.5t-32 -11t-29.5 -19.5t-33.5 -30z" />
    <glyph glyph-name="wacute" unicode="&#x1e83;" horiz-adv-x="1681" 
d="M1823 1013q-41 -128 -94 -256.5t-114.5 -255.5t-130 -252.5t-140.5 -248.5h-278q-35 181 -54.5 361.5t-14.5 368.5h-5q-83 -208 -180.5 -386.5t-198.5 -343.5h-276q-14 75 -26 159.5t-20.5 173t-13.5 179t-5.5 178t2.5 169.5t12 154l227 10q-12 -92 -18.5 -197.5
t-7 -213.5t5.5 -214.5t19 -200.5h8q70 110 131 223t112 220t90 202.5t66 170.5h272q-9 -82 -9 -185.5t7.5 -213t21 -218t30.5 -199.5h9q31 54 65.5 123.5t69.5 145.5t69 155.5t62.5 153t50.5 138t34 110.5zM1045 1214l297 301l136 -103l-347 -268z" />
    <glyph glyph-name="wcircumflex" unicode="&#x175;" horiz-adv-x="1681" 
d="M1823 1013q-41 -128 -94 -256.5t-114.5 -255.5t-130 -252.5t-140.5 -248.5h-278q-35 181 -54.5 361.5t-14.5 368.5h-5q-83 -208 -180.5 -386.5t-198.5 -343.5h-276q-14 75 -26 159.5t-20.5 173t-13.5 179t-5.5 178t2.5 169.5t12 154l227 10q-12 -92 -18.5 -197.5
t-7 -213.5t5.5 -214.5t19 -200.5h8q70 110 131 223t112 220t90 202.5t66 170.5h272q-9 -82 -9 -185.5t7.5 -213t21 -218t30.5 -199.5h9q31 54 65.5 123.5t69.5 145.5t69 155.5t62.5 153t50.5 138t34 110.5zM895 1137l-121 39l269 264h237l155 -264l-140 -41l-159 189z" />
    <glyph glyph-name="wdieresis" unicode="&#x1e85;" horiz-adv-x="1681" 
d="M1823 1013q-41 -128 -94 -256.5t-114.5 -255.5t-130 -252.5t-140.5 -248.5h-278q-35 181 -54.5 361.5t-14.5 368.5h-5q-83 -208 -180.5 -386.5t-198.5 -343.5h-276q-14 75 -26 159.5t-20.5 173t-13.5 179t-5.5 178t2.5 169.5t12 154l227 10q-12 -92 -18.5 -197.5
t-7 -213.5t5.5 -214.5t19 -200.5h8q70 110 131 223t112 220t90 202.5t66 170.5h272q-9 -82 -9 -185.5t7.5 -213t21 -218t30.5 -199.5h9q31 54 65.5 123.5t69.5 145.5t69 155.5t62.5 153t50.5 138t34 110.5zM950 1364q110 0 91 -94q-9 -42 -40 -67.5t-89 -25.5q-113 0 -94 95
q20 92 132 92zM1294 1364q110 0 91 -94q-9 -42 -40.5 -67.5t-88.5 -25.5q-113 0 -94 95q20 92 132 92z" />
    <glyph glyph-name="wgrave" unicode="&#x1e81;" horiz-adv-x="1681" 
d="M1823 1013q-41 -128 -94 -256.5t-114.5 -255.5t-130 -252.5t-140.5 -248.5h-278q-35 181 -54.5 361.5t-14.5 368.5h-5q-83 -208 -180.5 -386.5t-198.5 -343.5h-276q-14 75 -26 159.5t-20.5 173t-13.5 179t-5.5 178t2.5 169.5t12 154l227 10q-12 -92 -18.5 -197.5
t-7 -213.5t5.5 -214.5t19 -200.5h8q70 110 131 223t112 220t90 202.5t66 170.5h272q-9 -82 -9 -185.5t7.5 -213t21 -218t30.5 -199.5h9q31 54 65.5 123.5t69.5 145.5t69 155.5t62.5 153t50.5 138t34 110.5zM1050 1127l-233 268l180 103l169 -301z" />
    <glyph glyph-name="yacute" unicode="&#xfd;" horiz-adv-x="1072" 
d="M101 -377q37 36 80 80.5t87.5 94t88 101t81.5 101.5h-32q-94 259 -125.5 511t-15.5 502l229 10q-10 -109 -10 -222t9.5 -222t28 -210t46.5 -187h12q78 102 145.5 217t123 228t96.5 215.5t66 180.5l225 -10q-27 -81 -65.5 -170.5t-85 -182.5t-99 -185t-107 -178
t-109 -161.5t-104.5 -135.5q-33 -44 -82 -106.5t-103 -129t-108.5 -130.5t-97.5 -112zM790 1208l297 301l136 -103l-347 -268z" />
    <glyph glyph-name="ycircumflex" unicode="&#x177;" horiz-adv-x="1072" 
d="M101 -377q37 36 80 80.5t87.5 94t88 101t81.5 101.5h-32q-94 259 -125.5 511t-15.5 502l229 10q-10 -109 -10 -222t9.5 -222t28 -210t46.5 -187h12q78 102 145.5 217t123 228t96.5 215.5t66 180.5l225 -10q-27 -81 -65.5 -170.5t-85 -182.5t-99 -185t-107 -178
t-109 -161.5t-104.5 -135.5q-33 -44 -82 -106.5t-103 -129t-108.5 -130.5t-97.5 -112zM593 1134l-121 39l269 264h237l155 -264l-140 -41l-159 189z" />
    <glyph glyph-name="ydieresis" unicode="&#xff;" horiz-adv-x="1072" 
d="M101 -377q37 36 80 80.5t87.5 94t88 101t81.5 101.5h-32q-94 259 -125.5 511t-15.5 502l229 10q-10 -109 -10 -222t9.5 -222t28 -210t46.5 -187h12q78 102 145.5 217t123 228t96.5 215.5t66 180.5l225 -10q-27 -81 -65.5 -170.5t-85 -182.5t-99 -185t-107 -178
t-109 -161.5t-104.5 -135.5q-33 -44 -82 -106.5t-103 -129t-108.5 -130.5t-97.5 -112zM650 1328q110 0 91 -94q-9 -42 -40 -67.5t-89 -25.5q-113 0 -94 95q20 92 132 92zM994 1328q110 0 91 -94q-9 -42 -40.5 -67.5t-88.5 -25.5q-113 0 -94 95q20 92 132 92z" />
    <glyph glyph-name="ygrave" unicode="&#x1ef3;" horiz-adv-x="1072" 
d="M101 -377q37 36 80 80.5t87.5 94t88 101t81.5 101.5h-32q-94 259 -125.5 511t-15.5 502l229 10q-10 -109 -10 -222t9.5 -222t28 -210t46.5 -187h12q78 102 145.5 217t123 228t96.5 215.5t66 180.5l225 -10q-27 -81 -65.5 -170.5t-85 -182.5t-99 -185t-107 -178
t-109 -161.5t-104.5 -135.5q-33 -44 -82 -106.5t-103 -129t-108.5 -130.5t-97.5 -112zM775 1125l-233 268l180 103l169 -301z" />
    <glyph glyph-name="zacute" unicode="&#x17a;" horiz-adv-x="992" 
d="M304 837l38 176h757l-32 -152q-73 -89 -161 -173.5t-179.5 -168t-180 -168t-163.5 -172.5l-1 -4h548l-37 -175h-810l34 160q73 87 161.5 169.5t179 165t178.5 166t160 172.5v4h-492zM715 1200l297 301l136 -103l-347 -268z" />
    <glyph glyph-name="zcaron" unicode="&#x17e;" horiz-adv-x="992" 
d="M304 837l38 176h757l-32 -152q-73 -89 -161 -173.5t-179.5 -168t-180 -168t-163.5 -172.5l-1 -4h548l-37 -175h-810l34 160q73 87 161.5 169.5t179 165t178.5 166t160 172.5v4h-492zM779 1264l210 176l151 -40l-266 -251h-238l-158 253l168 37z" />
    <glyph glyph-name="zdotaccent" unicode="&#x17c;" horiz-adv-x="992" 
d="M304 837l38 176h757l-32 -152q-73 -89 -161 -173.5t-179.5 -168t-180 -168t-163.5 -172.5l-1 -4h548l-37 -175h-810l34 160q73 87 161.5 169.5t179 165t178.5 166t160 172.5v4h-492zM806 1337q110 0 91 -94q-9 -42 -40 -67.5t-89 -25.5q-113 0 -94 95q20 92 132 92z" />
    <glyph glyph-name="macron" unicode="&#xaf;" horiz-adv-x="1100" 
d="M1150 1158h-619l31 148h619z" />
    <glyph glyph-name="dotlessi" unicode="&#x131;" horiz-adv-x="504" 
d="M146 0l215 1013h212l-215 -1013h-212z" />
    <glyph glyph-name="dotlessj" unicode="&#x237;" horiz-adv-x="504" 
d="M-190 -143q95 -36 172 -34q61 2 103.5 49t61.5 135l214 1006h212l-217 -1019q-11 -52 -36.5 -112t-71.5 -111t-115 -85t-166 -34q-40 0 -76 6t-66 14.5t-53 18t-37 15.5z" />
    <glyph glyph-name="cent" unicode="&#xa2;" horiz-adv-x="933" 
d="M634 969l43 198h197l-41 -192zM633 35l-37 -175h-197l37 175h197zM173 519q28 131 82.5 228t128.5 161.5t165 96t191 31.5q82 0 160.5 -20.5t153.5 -70.5l-93 -144q-102 60 -222 60q-142 0 -233 -90t-127 -261t16 -262t197 -91q64 0 125.5 17t118.5 42l33 -143
q-88 -45 -175 -68t-180 -23q-123 0 -200.5 40.5t-117 112t-44 170t20.5 214.5z" />
    <glyph glyph-name="dollar" unicode="$" horiz-adv-x="1075" 
d="M705 1369l33 152h196l-33 -152h-196zM618 35l-37 -175h-196l37 175h196zM173 273q67 -35 117 -56t92 -32.5t80.5 -15t82.5 -3.5q66 0 118 17t90 46t61.5 68.5t33.5 84.5q9 45 1.5 81t-33 64.5t-70 51.5t-108.5 43q-97 30 -170 61t-118.5 75t-60.5 107t5 156q19 89 64 161
t114.5 123t163.5 79t210 28q101 0 195 -25.5t189 -85.5l-106 -154q-41 23 -78.5 38.5t-74.5 24.5t-74 13t-76 4q-61 0 -112.5 -13t-90.5 -37t-65 -59t-35 -79q-11 -51 -2.5 -85t38.5 -60t83 -47.5t131 -47.5q88 -28 153 -63.5t104.5 -83t52 -109t-4.5 -142.5
q-20 -93 -64.5 -170.5t-113.5 -132.5t-163.5 -85.5t-213.5 -30.5q-65 0 -123 7.5t-113 23t-107.5 40t-106.5 58.5z" />
    <glyph glyph-name="currency" unicode="&#xa4;" horiz-adv-x="1012" 
d="M711 1049q113 0 185 -33l139 116l85 -105l-130 -101q38 -76 11 -202q-12 -57 -35.5 -106.5t-60.5 -90.5l86 -101l-130 -104l-90 115q-40 -16 -88 -24.5t-105 -8.5q-117 0 -189 31l-138 -114l-86 104l124 97q-42 77 -14 209q27 126 98 200l-81 97l130 104l87 -115
q44 17 94.5 24.5t107.5 7.5zM684 919q-48 0 -89 -9.5t-74 -32t-56 -58.5t-35 -90q-22 -104 25 -150t149 -46q57 0 98.5 15t70 41t46 60.5t25.5 74.5q12 54 5.5 91.5t-27.5 60.5t-56.5 33t-81.5 10z" />
    <glyph glyph-name="AEacute" unicode="&#x1fc;" horiz-adv-x="1847" 
d="M914 0l76 360h-526q-39 -65 -72.5 -122t-59.5 -103.5t-44.5 -81t-26.5 -53.5h-237q25 53 65 129.5t95 172.5t124.5 210.5t153.5 244.5q67 105 134.5 200.5t129.5 177.5t116 147.5t94 111.5h1117l-41 -185h-627l-87 -412h536l-38 -176h-536l-92 -436h646l-39 -185h-861z
M570 534h457l143 674l-131 -1q-22 -30 -64 -85.5t-96.5 -129.5t-118 -165.5t-129.5 -193.5zM1389 1581l297 301l136 -103l-347 -268z" />
    <glyph glyph-name="commaaccent" unicode="&#xf6c3;" horiz-adv-x="0" 
 />
    <glyph glyph-name="Oslash" unicode="&#xd8;" horiz-adv-x="1443" 
d="M1517 696q-40 -185 -118.5 -320t-183.5 -222.5t-231 -130t-261 -41.5q-81 0 -153 15l-78 -130l-184 57l86 142q-62 40 -106.5 99t-68 137.5t-24 176.5t25.5 216q39 179 116.5 313.5t183.5 223.5t235 134t271 46q90 0 165 -19l34 58t33 54l185 -57l-80 -133
q57 -42 97 -102t60.5 -137.5t20 -172.5t-24.5 -207zM987 1227q-111 0 -201 -42t-159 -114t-116.5 -169t-72.5 -207q-24 -104 -19 -199.5t43.5 -169t112 -117t187.5 -43.5q102 0 189.5 38t156.5 107t117.5 166.5t74.5 217.5q24 113 17.5 210.5t-45 169t-109.5 112t-176 40.5z
" />
    <glyph glyph-name="Oslashacute" unicode="&#x1fe;" horiz-adv-x="1443" 
d="M1517 696q-40 -185 -118.5 -320t-183.5 -222.5t-231 -130t-261 -41.5q-81 0 -153 15l-78 -130l-184 57l86 142q-62 40 -106.5 99t-68 137.5t-24 176.5t25.5 216q39 179 116.5 313.5t183.5 223.5t235 134t271 46q90 0 165 -19l34 58t33 54l185 -57l-80 -133
q57 -42 97 -102t60.5 -137.5t20 -172.5t-24.5 -207zM987 1227q-111 0 -201 -42t-159 -114t-116.5 -169t-72.5 -207q-24 -104 -19 -199.5t43.5 -169t112 -117t187.5 -43.5q102 0 189.5 38t156.5 107t117.5 166.5t74.5 217.5q24 113 17.5 210.5t-45 169t-109.5 112t-176 40.5z
M1027 1618l297 301l136 -103l-347 -268z" />
    <glyph glyph-name="aeacute" unicode="&#x1fd;" horiz-adv-x="1768" 
d="M190 502q28 132 87.5 232t142.5 167t185.5 101t215.5 34q55 0 105.5 -7t95.5 -19t84 -27.5t72 -31.5q137 85 309 85q88 0 157 -26t114 -71t63 -106t3 -131q-12 -58 -40 -110.5t-76.5 -92.5t-120.5 -63.5t-172 -23.5h-329q-4 -62 9 -110t45 -81t84 -50.5t127 -17.5
q72 0 142 23t130 52l33 -148q-92 -47 -182.5 -72.5t-196.5 -25.5q-173 0 -273 71l-11 -53h-183l-5 99q-34 -22 -69.5 -43t-75 -37.5t-85 -26.5t-99.5 -10q-87 0 -152.5 32.5t-104.5 97t-48 162t19 228.5zM398 508q-19 -91 -14 -157.5t29.5 -109.5t66.5 -63.5t97 -20.5
q35 0 71 6.5t69.5 18.5t63 28t53.5 34l124 580q-8 4 -25 10t-41 12t-53 10t-62 4q-68 0 -128.5 -23t-110 -67.5t-86 -110t-54.5 -151.5zM1442 861q-58 0 -108 -21.5t-91 -59t-72 -88t-51 -108.5h298q40 0 73.5 3.5t58 15t41 32t23.5 53.5q10 46 -2.5 79t-38.5 54t-61 30.5
t-70 9.5zM1112 1220l297 301l136 -103l-347 -268z" />
    <glyph glyph-name="kgreenlandic" unicode="&#x138;" horiz-adv-x="1100" 
d="M1203 1013q-81 -136 -181 -244t-211 -190q15 -69 42 -143t61 -145t73 -135t80 -113l-172 -103q-41 34 -83 95.5t-79.5 135t-66.5 150t-43 139.5q-94 -48 -184 -78l-81 -382h-212l215 1013h212l-91 -428q84 32 155 76t131.5 99t113 118.5t99.5 134.5h222v0z" />
    <glyph glyph-name="oslash" unicode="&#xf8;" horiz-adv-x="1157" 
d="M199 516q25 120 78.5 216t131 163.5t176 104t214.5 36.5q42 0 83 -6l70 116l156 -59l-68 -110q45 -28 79.5 -69.5t53 -98.5t20.5 -130t-17 -164q-27 -129 -81.5 -228.5t-132 -167t-175.5 -102.5t-212 -35q-67 0 -124 12l-65 -110l-157 56l72 120q-82 64 -109.5 177.5
t7.5 278.5zM407 515q-21 -98 -14.5 -166t34.5 -110.5t75.5 -62t110.5 -19.5t119 20t102 63.5t80.5 111.5t54.5 163q19 90 12 155t-35 107.5t-75 63t-108 20.5q-63 0 -119.5 -21t-103 -64t-80.5 -108t-53 -153z" />
    <glyph glyph-name="oslashacute" unicode="&#x1ff;" horiz-adv-x="1157" 
d="M199 516q25 120 78.5 216t131 163.5t176 104t214.5 36.5q42 0 83 -6l70 116l156 -59l-68 -110q45 -28 79.5 -69.5t53 -98.5t20.5 -130t-17 -164q-27 -129 -81.5 -228.5t-132 -167t-175.5 -102.5t-212 -35q-67 0 -124 12l-65 -110l-157 56l72 120q-82 64 -109.5 177.5
t7.5 278.5zM407 515q-21 -98 -14.5 -166t34.5 -110.5t75.5 -62t110.5 -19.5t119 20t102 63.5t80.5 111.5t54.5 163q19 90 12 155t-35 107.5t-75 63t-108 20.5q-63 0 -119.5 -21t-103 -64t-80.5 -108t-53 -153zM776 1245l297 301l136 -103l-347 -268z" />
    <glyph glyph-name="Eng" unicode="&#x14a;" horiz-adv-x="1488" 
d="M1301 -67q-21 -98 -53.5 -172t-81 -124t-116 -75.5t-157.5 -25.5q-74 0 -140 20.5t-114 43.5l80 165q33 -16 75.5 -30t84.5 -14q51 0 84.5 14t55.5 40t35 61.5t22 79.5l51 242h222zM172 0l296 1394h263q25 -42 51.5 -101.5t54 -130.5t55 -150t55.5 -159.5t55 -159
t53.5 -148.5t51 -128t46.5 -97h13l224 1074h222l-296 -1394h-256q-38 65 -75.5 152.5t-74 186.5t-72 202.5t-71 200t-70 180.5t-68.5 143h-13l-223 -1065h-221z" />
    <glyph glyph-name="eng" unicode="&#x14b;" 
d="M329 865q40 24 101 53.5t135.5 56t158.5 44t170 17.5q100 0 160 -31t89 -83t31 -120.5t-14 -143.5l-141 -664q-11 -52 -36.5 -112t-71.5 -111t-115.5 -85t-166.5 -34q-40 0 -76 6t-66 14.5t-53 18t-37 15.5l75 151q95 -36 172 -34q60 2 102.5 47.5t62.5 129.5l136 642
q8 36 10 74t-10 68.5t-41.5 50t-84.5 19.5q-38 0 -80 -9.5t-82.5 -24t-76.5 -31t-61 -30.5l-161 -759h-212z" />
    <glyph glyph-name="fraction" unicode="&#x2044;" horiz-adv-x="862" 
d="M80 0l807 1394h189l-806 -1394h-190z" />
    <glyph glyph-name="afii10017" unicode="&#x410;" horiz-adv-x="1346" 
d="M1077 -10q-3 78 -7.5 170.5t-12.5 196.5h-617q-53 -108 -97.5 -201.5t-78.5 -165.5l-225 10q31 69 72.5 154.5t90 181.5t102.5 198t110 203.5t112 199t108 183t98.5 156t83.5 118.5h307q23 -71 46 -179t43.5 -236t37.5 -266t30 -269.5t20 -246.5t8 -197zM913 1209
q-46 -70 -94 -150.5t-96.5 -167t-96.5 -176.5t-94 -178h511q-16 168 -39 340.5t-58 331.5h-33z" />
    <glyph glyph-name="afii10018" unicode="&#x411;" horiz-adv-x="1238" 
d="M422 168h242q136 0 222.5 58t112.5 181q24 112 -36 171.5t-197 59.5h-244zM1211 1212h-567l-87 -412h243q103 0 188 -24.5t141 -73.5t79 -123t2 -172q-45 -208 -184.5 -307.5t-370.5 -99.5h-483l296 1394h782z" />
    <glyph glyph-name="afii10019" unicode="&#x412;" horiz-adv-x="1238" 
d="M172 0l296 1394h449q107 0 188.5 -22.5t132.5 -67t69 -111.5t-1 -157q-12 -58 -38 -105.5t-62 -85.5t-81 -65.5t-96 -45.5l-3 -10q56 -15 97.5 -44t66.5 -70.5t31.5 -95.5t-7.5 -119q-42 -199 -182 -297t-370 -98h-490zM429 168h242q136 0 222.5 58t112.5 181
q24 112 -36 171.5t-197 59.5h-244zM564 800h214q130 0 216 59t109 165q12 56 0 95.5t-44 64.5t-81 36.5t-112 11.5h-211z" />
    <glyph glyph-name="afii10020" unicode="&#x413;" horiz-adv-x="1046" 
d="M1286 1394l-40 -185h-581l-256 -1209h-222l296 1394h803z" />
    <glyph glyph-name="afii10022" unicode="&#x415;" horiz-adv-x="1117" 
d="M172 0l296 1394h830l-41 -185h-613l-87 -412h522l-38 -176h-522l-92 -436h632l-39 -185h-848z" />
    <glyph glyph-name="afii10023" unicode="&#x401;" horiz-adv-x="1117" 
d="M172 0l296 1394h837l-42 -185h-613l-87 -412h522l-38 -176h-522l-92 -436h632l-39 -185h-854zM837 1698q110 0 91 -94q-9 -42 -40 -67.5t-89 -25.5q-113 0 -94 95q20 92 132 92zM1181 1698q110 0 91 -94q-9 -42 -40.5 -67.5t-88.5 -25.5q-113 0 -94 95q20 92 132 92z" />
    <glyph glyph-name="afii10026" unicode="&#x418;" horiz-adv-x="1488" 
d="M1095 0l229 1065h-13q-59 -59 -129.5 -143t-146.5 -180.5t-156 -200t-158 -202.5t-152.5 -186.5t-140.5 -152.5h-256l296 1394h222l-231 -1074h12q39 39 88 97t104.5 128t116 148.5t122.5 159t123.5 159.5t119 150t109.5 130.5t95 101.5h263l-296 -1394h-221z" />
    <glyph glyph-name="afii10027" unicode="&#x419;" horiz-adv-x="1488" 
d="M1095 0l229 1065h-13q-59 -59 -129.5 -143t-146.5 -180.5t-156 -200t-158 -202.5t-152.5 -186.5t-140.5 -152.5h-256l296 1394h222l-231 -1074h12q39 39 88 97t104.5 128t116 148.5t122.5 159t123.5 159.5t119 150t109.5 130.5t95 101.5h263l-296 -1394h-221zM1114 1518
q-89 0 -138.5 24.5t-74 61t-31 79t-9.5 77.5l142 31q1 -23 4.5 -48.5t17 -46.5t40.5 -35t77 -14t83 14t55 35t36 46.5t26 48.5l128 -31q-18 -36 -42.5 -78.5t-64.5 -78.5t-100 -60.5t-149 -24.5z" />
    <glyph glyph-name="afii10028" unicode="&#x41a;" horiz-adv-x="1286" 
d="M172 1l296 1393h221l-143 -674q100 57 201.5 135t193 167t168 184.5t127.5 187.5h240q-46 -77 -102.5 -154.5t-122 -152.5t-138 -147t-150.5 -137q13 -82 46 -183.5t79.5 -204t103.5 -196t118 -159.5l-189 -119q-56 64 -110 150t-100 182t-80.5 196.5t-51.5 193.5
q-69 -48 -139 -87.5t-140 -70.5l-107 -504h-221z" />
    <glyph glyph-name="afii10029" unicode="&#x41b;" horiz-adv-x="1486" 
d="M1347 1209h-526l-62 -292q-10 -49 -25.5 -115.5t-37 -141.5t-48.5 -154t-60 -154.5t-72.5 -142.5t-85.5 -117.5t-99.5 -80t-113.5 -29.5q-24 0 -50 2.5t-48 6t-37.5 6.5t-19.5 5l39 164q17 0 42.5 -5t57.5 -3q44 3 83 47.5t73 113.5t63 154.5t52 169.5t40 158t27 122
l100 471h970l-296 -1394h-222z" />
    <glyph glyph-name="afii10030" unicode="&#x41c;" horiz-adv-x="1723" 
d="M70 0q40 164 85 323t91 310q32 106 66.5 212t67.5 204.5t64 186.5t57 157h323l93 -1118h12l567 1118h323q-8 -148 -23.5 -333t-43.5 -423q-11 -92 -22.5 -174t-22.5 -159t-23 -152t-25 -152h-226q13 70 28 165.5t30.5 203t29.5 220t25.5 215.5t19 190.5t8.5 144.5h-14
l-578 -1138h-234l-96 1138h-14q-27 -70 -58 -161t-63 -192t-63.5 -208.5t-60.5 -210.5t-54.5 -197.5t-43.5 -169.5h-225z" />
    <glyph glyph-name="afii10031" unicode="&#x41d;" horiz-adv-x="1458" 
d="M172 0l296 1394h222l-126 -592h668l126 592h223l-296 -1394h-223l131 617h-668l-131 -617h-222z" />
    <glyph glyph-name="afii10032" unicode="&#x41e;" horiz-adv-x="1443" 
d="M1517 696q-40 -185 -118.5 -320t-183.5 -222.5t-231 -130t-261 -41.5q-140 0 -250.5 44t-179.5 132.5t-90 222.5t18 314q39 179 116.5 313.5t183.5 223.5t235 134t271 46q138 1 246.5 -44.5t175 -136t86.5 -224.5t-18 -311zM987 1227q-111 0 -201 -42t-159 -114
t-116.5 -169t-72.5 -207q-24 -104 -19 -199.5t43.5 -169t112 -117t187.5 -43.5q102 0 189.5 38t156.5 107t117.5 166.5t74.5 217.5q24 113 17.5 210.5t-45 169t-109.5 112t-176 40.5z" />
    <glyph glyph-name="afii10033" unicode="&#x41f;" horiz-adv-x="1458" 
d="M1285 0h-223l256 1209h-668l-256 -1209h-222l296 1394h1113z" />
    <glyph glyph-name="afii10034" unicode="&#x420;" horiz-adv-x="1174" 
d="M172 0l296 1394h460q114 0 198 -29t135 -85.5t67 -140t-7 -191.5q-26 -124 -85 -214t-141 -149t-183 -87.5t-210 -28.5h-208l-99 -469h-223zM532 645h210q62 0 119.5 16.5t105 51t82.5 88.5t51 130q19 87 4.5 142.5t-51 86.5t-89.5 42.5t-110 11.5h-201z" />
    <glyph glyph-name="afii10035" unicode="&#x421;" horiz-adv-x="1217" 
d="M438 691q-56 -266 23.5 -395.5t288.5 -129.5q89 0 177.5 26.5t188.5 74.5l41 -152q-114 -62 -238.5 -97.5t-236.5 -35.5q-139 0 -243.5 39t-167 123t-77.5 215.5t24 317.5q42 196 115 335.5t172 228t220.5 130t260.5 41.5q118 0 226.5 -37t191.5 -98l-103 -152
q-78 49 -158 75.5t-168 26.5q-422 0 -537 -536z" />
    <glyph glyph-name="afii10036" unicode="&#x422;" horiz-adv-x="1093" 
d="M289 1209l40 185h1027l-40 -185h-403l-256 -1209h-222l256 1209h-402z" />
    <glyph glyph-name="afii10037" unicode="&#x423;" horiz-adv-x="1237" 
d="M231 4q37 36 82.5 81t92 94.5t91.5 100.5t83 101h-12q-27 69 -52 132.5t-47 127t-39.5 129.5t-29.5 140q-26 151 -39.5 272.5t-7.5 211.5h238q-8 -97 -0.5 -208.5t25.5 -241.5q8 -56 22 -107.5t30.5 -99t33 -90.5t30.5 -80h12q37 46 72 89t69 87.5t66 91.5t64 101
q81 140 134.5 255t86.5 203h238q-21 -54 -46.5 -111.5t-58 -120.5t-73 -133t-90.5 -148q-54 -84 -102.5 -151.5t-94.5 -127t-90.5 -113t-90.5 -108.5q-22 -29 -52.5 -67t-66 -81t-73.5 -88t-76 -88t-73 -82.5t-64 -70.5z" />
    <glyph glyph-name="afii10039" unicode="&#x425;" horiz-adv-x="1244" 
d="M40 0q67 105 131.5 193.5t130.5 171.5q36 46 80 99t89 104t85.5 95t68.5 71q-19 35 -36.5 68.5t-36 71t-38.5 82t-44 103.5q-29 75 -51.5 158t-43.5 177l251 10q3 -19 8.5 -47t13.5 -62t18.5 -72t23.5 -77q58 -165 116 -270h10q19 20 42 44.5t50 56t59 71.5t71 92
q32 42 54.5 73t42 60.5t39.5 60t46 70.5l247 -10l-63 -94.5t-64 -92.5t-69 -93t-77 -96q-88 -103 -153.5 -174.5t-103.5 -111.5q29 -51 72 -143t87 -210q18 -48 34 -94t30 -92t26 -93.5t24 -99.5l-253 -10q-6 30 -12.5 61t-15 66.5t-20.5 77.5t-30 93q-40 116 -72.5 186.5
t-52.5 106.5h-11q-26 -25 -57.5 -59t-65 -73.5t-68 -82.5t-65.5 -85q-60 -79 -110 -154t-89 -137z" />
    <glyph glyph-name="afii10021" unicode="&#x414;" horiz-adv-x="1522" 
d="M1200 0h-905l-50 -232h-222l89 417h96q85 69 156.5 174.5t129.5 229.5t100.5 257.5t68.5 257.5l62 290h868l-257 -1209h126l-89 -417h-223zM863 1013q-19 -89 -56 -197.5t-89.5 -221t-119.5 -219t-145 -190.5h660l217 1024h-426z" />
    <glyph glyph-name="afii10024" unicode="&#x416;" horiz-adv-x="2034" 
d="M634 1394q9 -96 45.5 -192.5t92 -185.5t125.5 -166t148 -133l144 677h220l-144 -677q101 57 203.5 133.5t195.5 165.5t170.5 185.5t128.5 192.5h239q-48 -82 -110 -165.5t-134 -164t-152.5 -156.5t-165.5 -144q15 -81 46 -176t74.5 -188.5t97.5 -178.5t113 -146
l-194 -117q-50 56 -99 136t-91.5 171t-75.5 187t-51 184q-60 -39 -120 -72t-120 -59l-107 -504h-220l107 503q-99 54 -186 132q-37 -59 -82.5 -121.5t-96.5 -125.5t-105.5 -124t-109.5 -117t-108.5 -104.5t-102.5 -85.5l-145 117q57 41 116 93t117.5 110.5t114.5 121.5
t106.5 126t94 124t76.5 115q-57 68 -105.5 144t-86.5 156.5t-64.5 163.5t-38.5 165h240z" />
    <glyph glyph-name="afii10025" unicode="&#x417;" horiz-adv-x="1098" 
d="M345 1284q110 60 219 94t237 34q112 0 193.5 -24t130.5 -68.5t65.5 -108.5t-0.5 -144q-12 -54 -32 -102.5t-52 -90t-77 -77t-105 -63.5q46 -17 82.5 -46.5t58.5 -71.5t28 -97.5t-9 -125.5q-26 -121 -86 -199.5t-141 -125t-175 -65.5t-188 -21q-58 -2 -115.5 5.5
t-111.5 22.5t-102 37.5t-87 51.5l103 155q38 -22 72.5 -38.5t72.5 -27.5t82.5 -16.5t103.5 -5.5q61 0 119.5 12t106.5 39.5t82.5 73.5t49.5 114q8 37 -1 77t-40.5 72.5t-89 53.5t-145.5 21h-169l37 171l165 1q66 0 122 13t100 41t73.5 73t43.5 108q10 48 -2.5 84t-43.5 60
t-78.5 35.5t-106.5 11.5q-42 0 -83 -5.5t-83 -16.5t-87.5 -29.5t-96.5 -43.5z" />
    <glyph glyph-name="afii10038" unicode="&#x424;" horiz-adv-x="1782" 
d="M762 -86l28 131h-32q-94 1 -177.5 15.5t-151.5 47t-118.5 83t-79 122.5t-32 167t22.5 215q39 179 117.5 303.5t186 202t237.5 112.5t272 35h32l29 135h221l-29 -135h51q137 -1 249 -37t184 -114.5t97 -202t-13 -298.5q-39 -183 -117.5 -307.5t-183.5 -200.5t-231 -109
t-259 -34h-54l-28 -131h-221zM1248 1162l-197 -931l59 -1q99 3 185 32t154 86.5t116.5 143.5t73.5 203q24 110 13 195t-52.5 144t-113 91.5t-169.5 37.5zM439 695q-24 -104 -13.5 -189.5t54.5 -147t123 -95t193 -33.5h33l199 933q-11 0 -20.5 0.5t-12.5 0.5
q-110 0 -201.5 -32t-162 -92.5t-119 -147.5t-73.5 -197z" />
    <glyph glyph-name="afii10040" unicode="&#x426;" horiz-adv-x="1482" 
d="M433 185h668l257 1209h223l-257 -1209h129l-89 -417h-223l50 232h-1019l296 1394h222z" />
    <glyph glyph-name="afii10041" unicode="&#x427;" horiz-adv-x="1255" 
d="M868 0l117 553q-25 -16 -63 -33.5t-84.5 -32.5t-99 -24.5t-106.5 -9.5q-96 0 -169.5 28.5t-119.5 81.5t-61 128.5t5 170.5l113 532h221l-107 -501q-16 -74 1 -123t52.5 -78t83.5 -41t95 -12q35 0 74 6t76 17.5t70 28t56 36.5l142 667h221l-296 -1394h-221z" />
    <glyph glyph-name="afii10042" unicode="&#x428;" horiz-adv-x="1977" 
d="M433 185h492l257 1209h223l-257 -1209h472l257 1209h223l-296 -1394h-1632l296 1394h222z" />
    <glyph glyph-name="afii10043" unicode="&#x429;" horiz-adv-x="1994" 
d="M1883 -232h-223l50 232h-1538l296 1394h222l-257 -1209h492l257 1209h223l-257 -1209h472l257 1209h223l-257 -1209h129z" />
    <glyph glyph-name="afii10044" unicode="&#x42a;" horiz-adv-x="1305" 
d="M310 1394h491l-126 -594h243q103 0 188 -25t141 -73.5t79.5 -120t3.5 -163.5q-23 -110 -70 -189t-117 -130t-162.5 -75t-207.5 -24h-483l261 1232h-276zM540 168h242q136 0 222.5 58t112.5 181q24 112 -36 171.5t-197 59.5h-244z" />
    <glyph glyph-name="afii10046" unicode="&#x42c;" horiz-adv-x="1179" 
d="M422 168h242q136 0 222.5 58t112.5 181q24 112 -36 171.5t-197 59.5h-244zM683 1394l-126 -594h243q103 0 188 -25t141 -73.5t79.5 -120t3.5 -163.5q-23 -110 -70 -189t-117 -130t-162.5 -75t-207.5 -24h-483l296 1394h215z" />
    <glyph glyph-name="afii10045" unicode="&#x42b;" horiz-adv-x="1727" 
d="M422 168h242q136 0 222.5 58t112.5 181q24 112 -36 171.5t-197 59.5h-244zM683 1394l-126 -594h243q103 0 188 -25t141 -73.5t79.5 -120t3.5 -163.5q-23 -110 -70 -189t-117 -130t-162.5 -75t-207.5 -24h-483l296 1394h215zM1332 0l296 1394h222l-296 -1394h-222z" />
    <glyph glyph-name="afii10048" unicode="&#x42e;" horiz-adv-x="1985" 
d="M172 0l296 1394h222l-128 -600h224q47 154 125.5 269.5t180.5 193t223 116t253 39.5q138 1 246 -44.5t175 -136t86.5 -224.5t-18.5 -311q-40 -185 -118.5 -320t-183.5 -222.5t-230.5 -130t-260.5 -41.5q-131 0 -236.5 38t-175 114.5t-99.5 192.5t-9 272h-223l-127 -599
h-222zM1527 1227q-110 0 -200.5 -42t-159.5 -114t-116.5 -169t-72.5 -207q-23 -104 -18 -199.5t43 -169t111.5 -117t187.5 -43.5q102 0 189.5 38t156.5 107t117.5 166.5t74.5 217.5q24 113 17.5 210.5t-45 169t-109.5 112t-176 40.5z" />
    <glyph glyph-name="afii10049" unicode="&#x42f;" horiz-adv-x="1256" 
d="M55 62q74 57 142.5 120t129 127.5t113.5 128t96 120.5q-48 27 -91 66.5t-71.5 91t-39 115.5t6.5 142q21 100 76 178t132 132t170 82.5t191 28.5h468l-296 -1394h-223l105 494h-240h-5q-99 -140 -232 -282.5t-289 -268.5zM1117 1214h-228q-52 0 -105 -14.5t-99.5 -45.5
t-81 -80t-49.5 -118q-13 -60 -4 -111.5t37 -89.5t73.5 -59.5t105.5 -21.5h236z" />
    <glyph glyph-name="afii10050" unicode="&#x490;" horiz-adv-x="1005" 
d="M1049 1394l49 231h222l-89 -416h-580l-256 -1209h-223l296 1394h581z" />
    <glyph glyph-name="afii10051" unicode="&#x402;" horiz-adv-x="1374" 
d="M224 1209l40 185h1032l-40 -185h-405l-65 -310q78 35 171 60.5t199 25.5q100 0 161 -30t91 -80.5t33 -118t-13 -142.5l-62 -290q-11 -52 -37 -112t-71.5 -111t-112.5 -85t-160 -34q-37 0 -68.5 5t-56.5 11.5t-42.5 13.5t-26.5 11l69 153l128 -23q61 2 103.5 45.5
t61.5 131.5l55 261q8 37 8 75t-14.5 68t-47.5 49t-92 19q-40 0 -85 -10t-88.5 -25.5t-81.5 -34t-64 -34.5l-148 -698h-222l256 1209h-405z" />
    <glyph glyph-name="afii10052" unicode="&#x403;" horiz-adv-x="996" 
d="M1272 1394l-40 -185h-581l-256 -1209h-222l296 1394h803zM801 1576l297 301l136 -103l-347 -268z" />
    <glyph glyph-name="afii10054" unicode="&#x405;" horiz-adv-x="1079" 
d="M177 273q67 -35 117 -56t92 -32.5t80.5 -15t82.5 -3.5q66 0 118 17t90 46t61.5 68.5t33.5 84.5q9 45 1.5 81t-33 64.5t-70 51.5t-108.5 43q-97 30 -170 61t-118.5 75t-60.5 107t5 156q19 89 64 161t114.5 123t163.5 79t210 28q101 0 195 -25.5t189 -85.5l-106 -154
q-41 23 -78.5 38.5t-74.5 24.5t-74 13t-76 4q-61 0 -112.5 -13t-90.5 -37t-65 -59t-35 -79q-11 -51 -2.5 -85t38.5 -60t83 -47.5t131 -47.5q88 -28 153 -63.5t104.5 -83t52 -109t-4.5 -142.5q-20 -93 -64.5 -170.5t-113.5 -132.5t-163.5 -85.5t-213.5 -30.5q-65 0 -123 7.5
t-113 23t-107.5 40t-106.5 58.5z" />
    <glyph glyph-name="afii10055" unicode="&#x406;" horiz-adv-x="568" 
d="M172 0l296 1394h222l-296 -1394h-222z" />
    <glyph glyph-name="afii10056" unicode="&#x407;" horiz-adv-x="568" 
d="M172 0l296 1394h222l-296 -1394h-222zM501 1766q110 0 91 -94q-9 -42 -40 -67.5t-89 -25.5q-113 0 -94 95q20 92 132 92zM845 1766q110 0 91 -94q-9 -42 -40.5 -67.5t-88.5 -25.5q-113 0 -94 95q20 92 132 92z" />
    <glyph glyph-name="afii10057" unicode="&#x408;" horiz-adv-x="796" 
d="M704 379q-21 -98 -53 -172t-80.5 -124t-116 -75.5t-157.5 -25.5q-37 0 -72.5 5.5t-68.5 14.5t-61.5 20t-51.5 23l79 166q33 -16 76 -30.5t84 -14.5q51 0 84.5 14t55.5 40t34.5 61.5t21.5 79.5l220 1033h222z" />
    <glyph glyph-name="afii10058" unicode="&#x409;" horiz-adv-x="2117" 
d="M1743 800q103 0 188 -25t141 -73.5t79.5 -120t3.5 -163.5q-23 -110 -70 -189t-117 -130t-162.5 -75t-207.5 -24h-490l256 1209h-532l-62 -292q-10 -49 -25.5 -115.5t-36 -141.5t-47 -154t-59 -154.5t-71.5 -142.5t-85 -117.5t-99 -80t-113 -29.5q-24 0 -50 2.5t-48 6
t-38 6.5t-20 5l40 164q17 0 42.5 -4.5t57.5 -3.5t62.5 26.5t57.5 68.5t52 99.5t46.5 119t40 127.5t33.5 125t26.5 111.5t19.5 87.5l100 471h970l-126 -594h243zM1365 168h242q136 0 223 58t113 181q24 112 -36.5 171.5t-197.5 59.5h-244z" />
    <glyph glyph-name="afii10059" unicode="&#x40a;" horiz-adv-x="2040" 
d="M1544 1394l-126 -594h242q103 0 188 -25t141.5 -73.5t80 -120t3.5 -163.5q-47 -219 -187.5 -318.5t-369.5 -99.5h-490l133 629h-632l-132 -624h-222l296 1394h222l-127 -598h632l126 593h222zM1283 168h242q136 0 222.5 58t112.5 181q24 112 -36 171.5t-197 59.5h-244z
" />
    <glyph glyph-name="afii10060" unicode="&#x40b;" horiz-adv-x="1477" 
d="M666 809q42 28 98.5 59t124.5 57t146 43t164 17q100 0 161 -30t91 -80.5t33 -118t-13 -142.5l-130 -614h-215l125 591q8 37 8 75t-14.5 68t-47.5 49t-92 19q-41 0 -87.5 -10.5t-90.5 -26.5t-82.5 -35t-63.5 -35zM262 1209l40 185h1027l-40 -185h-403l-256 -1209h-222
l256 1209h-402z" />
    <glyph glyph-name="afii10061" unicode="&#x40c;" horiz-adv-x="1286" 
d="M172 1l296 1393h221l-143 -674q100 57 201.5 135t193 167t168 184.5t127.5 187.5h240q-46 -77 -102.5 -154.5t-122 -152.5t-138 -147t-150.5 -137q13 -82 46 -183.5t79.5 -204t103.5 -196t118 -159.5l-189 -119q-56 64 -110 150t-100 182t-80.5 196.5t-51.5 193.5
q-69 -48 -139 -87.5t-140 -70.5l-107 -504h-221zM853 1538l297 301l136 -103l-347 -268z" />
    <glyph glyph-name="afii10062" unicode="&#x40e;" horiz-adv-x="1237" 
d="M231 4q37 36 82.5 81t92 94.5t91.5 100.5t83 101h-12q-27 69 -52 132.5t-47 127t-39.5 129.5t-29.5 140q-26 151 -39.5 272.5t-7.5 211.5h238q-8 -97 -0.5 -208.5t25.5 -241.5q8 -56 22 -107.5t30.5 -99t33 -90.5t30.5 -80h12q37 46 72 89t69 87.5t66 91.5t64 101
q81 140 134.5 255t86.5 203h238q-21 -54 -46.5 -111.5t-58 -120.5t-73 -133t-90.5 -148q-54 -84 -102.5 -151.5t-94.5 -127t-90.5 -113t-90.5 -108.5q-22 -29 -52.5 -67t-66 -81t-73.5 -88t-76 -88t-73 -82.5t-64 -70.5zM964 1493q-89 0 -138.5 24.5t-74 61t-31 79
t-9.5 77.5l142 31q1 -23 4.5 -48.5t17 -46.5t40.5 -35t77 -14t83 14t55 35t36 46.5t26 48.5l128 -31q-18 -36 -42.5 -78.5t-64.5 -78.5t-100 -60.5t-149 -24.5z" />
    <glyph glyph-name="afii10065" unicode="&#x430;" horiz-adv-x="1130" 
d="M181 502q28 132 88 232t143 167t185 101t215 34q58 0 111.5 -8t100.5 -21t87.5 -30t73.5 -34l-200 -943h-184l-5 99q-34 -22 -69.5 -43t-75 -37.5t-84.5 -26.5t-99 -10q-87 0 -153 32.5t-105 97t-48 162t19 228.5zM390 508q-19 -91 -14.5 -157.5t29 -109.5t66.5 -63.5
t97 -20.5q35 0 71 6.5t69.5 18.5t63 28t53.5 34l124 580q-8 4 -25 10t-41 12t-53 10t-62 4q-67 0 -127.5 -23t-110 -67.5t-86 -110t-54.5 -151.5z" />
    <glyph glyph-name="afii10066" unicode="&#x431;" horiz-adv-x="1105" 
d="M193 643q42 195 109.5 336.5t157.5 235t201 142.5t239 59q72 6 122.5 10.5t88.5 11t68 16.5t61 26l27 -168q-59 -34 -152 -52.5t-223 -29.5q-98 -10 -167.5 -44.5t-118 -84.5t-80 -110t-52.5 -120q41 32 85.5 53.5t89 34.5t87 18.5t79.5 5.5q106 0 179 -38t113 -105
t47.5 -159.5t-15.5 -201.5q-23 -107 -74.5 -198t-128.5 -157.5t-178 -104t-222 -37.5q-133 0 -215 47t-121 133t-39 208.5t32 272.5zM420 669q-8 -24 -14 -41t-11 -44q-23 -106 -21 -186t26 -133t69.5 -80t108.5 -27q64 0 122 24t104.5 66t79.5 99t47 124q15 70 10.5 130
t-28.5 104t-68.5 69.5t-111.5 25.5q-92 0 -168.5 -37.5t-144.5 -93.5z" />
    <glyph glyph-name="afii10067" unicode="&#x432;" horiz-adv-x="1050" 
d="M146 0l215 1013h448q78 0 139 -16t100 -48.5t54 -81.5t1 -115q-9 -42 -27.5 -76t-44.5 -61t-58.5 -47.5t-68.5 -33.5l-2 -8q81 -22 119.5 -83t18.5 -156q-15 -72 -51 -125.5t-89.5 -89.5t-123 -54t-153.5 -18h-477zM390 154h218q45 0 82 7t66 24.5t48 45.5t28 70
q17 79 -27.5 114t-134.5 35h-217zM484 596h191q44 0 82 8.5t67 26t48.5 44t27.5 63.5q9 40 -1 65t-33 38.5t-58.5 18t-77.5 4.5h-189z" />
    <glyph glyph-name="afii10068" unicode="&#x433;" horiz-adv-x="880" 
d="M1052 1013l-38 -176h-479l-177 -837h-212l215 1013h691z" />
    <glyph glyph-name="afii10070" unicode="&#x435;" horiz-adv-x="1059" 
d="M387 412q-4 -62 9 -110t45 -81t84.5 -50.5t127.5 -17.5q72 0 142 23t129 52l33 -148q-92 -47 -182.5 -72.5t-195.5 -25.5q-240 0 -337.5 136t-41.5 400q27 126 82 222.5t131.5 162t172 99.5t203.5 34q88 0 157 -26t114 -71t63 -106t3 -131q-12 -58 -40 -110.5
t-76.5 -92.5t-120.5 -63.5t-172 -23.5h-330zM743 861q-58 0 -107.5 -20t-90 -55.5t-71 -84.5t-50.5 -107h298q40 0 72.5 2t57.5 11.5t41 28.5t23 52q10 46 -2.5 79t-38.5 54t-61 30.5t-71 9.5z" />
    <glyph glyph-name="afii10071" unicode="&#x451;" horiz-adv-x="1059" 
d="M387 412q-4 -62 9 -110t45 -81t84.5 -50.5t127.5 -17.5q72 0 142 23t129 52l33 -148q-92 -47 -182.5 -72.5t-195.5 -25.5q-240 0 -337.5 136t-41.5 400q27 126 82 222.5t131.5 162t172 99.5t203.5 34q88 0 157 -26t114 -71t63 -106t3 -131q-12 -58 -40 -110.5
t-76.5 -92.5t-120.5 -63.5t-172 -23.5h-330zM743 861q-58 0 -107.5 -20t-90 -55.5t-71 -84.5t-50.5 -107h298q40 0 72.5 2t57.5 11.5t41 28.5t23 52q10 46 -2.5 79t-38.5 54t-61 30.5t-71 9.5zM690 1365q110 0 91 -94q-9 -42 -40 -67.5t-89 -25.5q-113 0 -94 95
q20 92 132 92zM1034 1365q110 0 91 -94q-9 -42 -40.5 -67.5t-88.5 -25.5q-113 0 -94 95q20 92 132 92z" />
    <glyph glyph-name="afii10072" unicode="&#x436;" horiz-adv-x="1719" 
d="M1807 1013q-81 -136 -181 -244t-211 -190q15 -69 42 -143t61 -145t73 -135t80 -113l-172 -103q-41 34 -83 95.5t-79.5 135t-66.5 150t-43 139.5q-94 -48 -184 -78l-81 -382h-212l81 382q-40 15 -78.5 34.5t-74.5 43.5q-27 -42 -63.5 -90.5t-79 -98.5t-88.5 -99.5
t-91.5 -93.5t-89 -80t-79.5 -58l-128 103q60 49 126.5 113t130.5 135t122.5 145t102.5 143q-75 82 -129 190.5t-77 243.5h222q16 -71 41.5 -134.5t63 -118.5t89.5 -99t123 -76l91 428h212l-91 -428q84 32 155 76t131.5 99t113 118.5t99.5 134.5h222v0z" />
    <glyph glyph-name="afii10074" unicode="&#x438;" 
d="M795 0l151 695h-11q-39 -38 -85.5 -93t-96.5 -118t-102.5 -131t-104.5 -132.5t-102 -121.5t-94 -99h-211l215 1013h204l-155 -709h8q37 37 84 93.5t99 122.5t106.5 137.5t107 138t100.5 123.5t88 94h215l-215 -1013h-201z" />
    <glyph glyph-name="afii10075" unicode="&#x439;" horiz-adv-x="1171" 
d="M795 0l151 695h-11q-39 -38 -85.5 -93t-96.5 -118t-102.5 -131t-104.5 -132.5t-102 -121.5t-94 -99h-211l215 1013h204l-155 -709h8q37 37 84 93.5t99 122.5t106.5 137.5t107 138t100.5 123.5t88 94h215l-215 -1013h-201zM805 1101q-89 0 -138.5 24.5t-74 61t-31 79
t-9.5 77.5l142 31q1 -23 4.5 -48.5t17 -46.5t40.5 -35t77 -14t83 14t55 35t36 46.5t26 48.5l128 -31q-18 -36 -42.5 -78.5t-64.5 -78.5t-100 -60.5t-149 -24.5z" />
    <glyph glyph-name="afii10076" unicode="&#x43a;" horiz-adv-x="1100" 
d="M1203 1013q-81 -136 -181 -244t-211 -190q15 -69 42 -143t61 -145t73 -135t80 -113l-172 -103q-41 34 -83 95.5t-79.5 135t-66.5 150t-43 139.5q-94 -48 -184 -78l-81 -382h-212l215 1013h212l-91 -428q84 32 155 76t131.5 99t113 118.5t99.5 134.5h222v0z" />
    <glyph glyph-name="afii10077" unicode="&#x43b;" horiz-adv-x="1228" 
d="M1046 837h-395l-13 -65q-8 -38 -22 -92t-33.5 -116.5t-44.5 -130t-55.5 -132t-66.5 -122.5t-77 -102t-87 -69.5t-97 -25.5q-24 0 -49 2.5t-45.5 6t-35 6.5t-18.5 5l43 164q9 0 17.5 -2.5t19 -5t23 -4.5t28.5 -1q30 2 58 28.5t54 69.5t49 98.5t43 116t37 121t30.5 113.5
t22.5 94.5t14 63.5l33 155h817l-215 -1013h-212z" />
    <glyph glyph-name="afii10069" unicode="&#x434;" horiz-adv-x="1216" 
d="M117 175q45 28 83.5 74.5t70.5 103.5t57.5 121t46 128.5t35.5 125.5t26 111l37 174h773l-178 -838h103l-80 -375h-212l43 200h-688l-43 -200h-211l79 375h58zM624 755q-12 -58 -36 -133t-58.5 -154t-80.5 -155.5t-102 -137.5h509l140 662h-355z" />
    <glyph glyph-name="afii10080" unicode="&#x43e;" horiz-adv-x="1157" 
d="M199 516q25 120 78.5 216t131 163.5t176 104t214.5 36.5q63 0 121 -12.5t106.5 -38.5t85.5 -67.5t58 -99.5t23.5 -133.5t-17.5 -169.5q-27 -129 -81.5 -228.5t-132 -167t-175.5 -102.5t-212 -35t-197 34t-132 101.5t-62 167.5t15 231zM407 515q-21 -98 -14.5 -166
t34.5 -110.5t75.5 -62t110.5 -19.5t119 20t102 63.5t80.5 111.5t54.5 163q19 90 12 155t-35 107.5t-75 63t-108 20.5q-63 0 -119.5 -21t-103 -64t-80.5 -108t-53 -153z" />
    <glyph glyph-name="afii10082" unicode="&#x440;" horiz-adv-x="1145" 
d="M333 881q33 21 88 47.5t121 50t136.5 39.5t135.5 16q111 0 190 -27.5t124 -88.5t54 -159t-21 -238q-22 -103 -67.5 -200t-115.5 -172.5t-163.5 -121t-211.5 -45.5q-51 0 -87.5 4t-64 10t-49 13t-40.5 14l-87 -409h-212zM398 192q16 -6 34 -12t40.5 -11.5t51 -8.5t65.5 -3
q83 0 146 33.5t108 86.5t73.5 117.5t41.5 126.5q19 88 14 151.5t-29.5 104.5t-68 60t-101.5 19q-36 0 -73 -8.5t-70 -21t-61 -26.5t-47 -25z" />
    <glyph glyph-name="afii10083" unicode="&#x441;" horiz-adv-x="955" 
d="M200 519q28 131 82.5 228t128.5 161.5t165 96t191 31.5q82 0 160.5 -20.5t153.5 -70.5l-93 -144q-102 60 -222 60q-142 0 -233 -90t-127 -261t16 -262t197 -91q64 0 125.5 17t118.5 42l33 -143q-88 -45 -175 -68t-180 -23q-123 0 -200.5 40.5t-117 112t-44 170
t20.5 214.5z" />
    <glyph glyph-name="afii10084" unicode="&#x442;" horiz-adv-x="939" 
d="M188 837l38 176h917l-38 -176h-352l-177 -837h-213l177 837h-352z" />
    <glyph glyph-name="afii10085" unicode="&#x443;" horiz-adv-x="1072" 
d="M101 -377q37 36 80 80.5t87.5 94t88 101t81.5 101.5h-32q-94 259 -125.5 511t-15.5 502l229 10q-10 -109 -10 -222t9.5 -222t28 -210t46.5 -187h12q78 102 145.5 217t123 228t96.5 215.5t66 180.5l225 -10q-27 -81 -65.5 -170.5t-85 -182.5t-99 -185t-107 -178
t-109 -161.5t-104.5 -135.5q-33 -44 -82 -106.5t-103 -129t-108.5 -130.5t-97.5 -112z" />
    <glyph glyph-name="afii10087" unicode="&#x445;" horiz-adv-x="1031" 
d="M48 0q18 34 37.5 67.5t43 69.5t52 75.5t63.5 84.5t67.5 79.5t62 62t56 49.5t50.5 43q-37 57 -73.5 112.5t-59.5 118.5q-26 75 -41 137t-19 114l231 3q3 -52 10.5 -93.5t22.5 -89.5q17 -56 42.5 -99t51.5 -77h9q22 19 43 38t41 39.5t41 44.5t45 54q35 46 61 89t48 94
l231 -3q-17 -33 -32.5 -61t-34.5 -57t-42.5 -61t-55.5 -71q-34 -42 -63.5 -73t-57.5 -57t-56 -50t-58 -51q13 -17 31.5 -42.5t38 -56.5t37 -65t29.5 -68q21 -61 33.5 -102t19.5 -73t11 -60.5t9 -64.5l-234 -3q-1 24 -3.5 47t-7 49t-12 55.5t-19.5 65.5q-9 26 -20.5 54.5
t-24 55t-26 49t-25.5 36.5h-8q-16 -14 -38 -35t-47 -47t-50.5 -56t-47.5 -60q-29 -39 -49 -69.5t-35 -55t-25.5 -46t-20.5 -43.5z" />
    <glyph glyph-name="afii10078" unicode="&#x43c;" horiz-adv-x="1401" 
d="M92 0q29 119 61.5 235t65.5 225q24 77 49 154t49 149t46.5 135.5t41.5 114.5h294l64 -685h13l355 685h294q-6 -108 -17 -241.5t-32 -307.5q-8 -67 -16 -127t-16 -116t-16.5 -110.5t-17.5 -110.5h-217q5 29 11.5 71t13.5 90.5t14.5 100.5t14.5 101q9 67 15 127t10.5 110.5
t6 88t1.5 59.5h-12l-373 -707h-172l-74 707h-13q-9 -23 -24.5 -65.5t-33 -95t-36 -111t-34.5 -113.5q-17 -57 -31 -106t-26.5 -93t-23 -84t-20.5 -80h-215z" />
    <glyph glyph-name="afii10079" unicode="&#x43d;" horiz-adv-x="1235" 
d="M146 0l215 1013h212l-88 -411h519l88 411h212l-215 -1013h-212l90 427h-519l-90 -427h-212z" />
    <glyph glyph-name="afii10081" unicode="&#x43f;" horiz-adv-x="1235" 
d="M1089 0h-212l178 838h-519l-178 -838h-212l215 1013h943z" />
    <glyph glyph-name="afii10086" unicode="&#x444;" horiz-adv-x="1487" 
d="M541 -447l95 444q-32 -6 -68 -10.5t-72 -4.5q-91 0 -160.5 42.5t-112 115t-54.5 169.5t11 206q24 114 79.5 209.5t130 164.5t161.5 108t174 39q38 0 70.5 -5t58.5 -10l84 396h212l-84 -396q27 5 62 10t73 5q87 0 157.5 -39t115.5 -108t59.5 -164.5t-9.5 -209.5
q-23 -109 -76.5 -206t-126.5 -169.5t-160.5 -115t-178.5 -42.5q-36 0 -70.5 4.5t-63.5 10.5l-95 -444h-212zM710 859q-54 0 -107 -26.5t-97 -72.5t-77.5 -109t-48.5 -136q-17 -78 -12 -143t29.5 -112.5t68.5 -73.5t106 -26q29 0 54.5 3t46.5 7l144 678q-21 5 -46.5 8
t-60.5 3zM981 160q63 0 118 26t99.5 73.5t76.5 112.5t49 143q15 73 8.5 136t-31 109t-66 72.5t-96.5 26.5q-35 0 -61.5 -3t-48.5 -8l-144 -678q19 -4 43 -7t53 -3z" />
    <glyph glyph-name="afii10088" unicode="&#x446;" horiz-adv-x="1245" 
d="M395 175h513l178 838h212l-178 -837h108l-80 -376h-212l43 200h-833l215 1013h212z" />
    <glyph glyph-name="afii10089" unicode="&#x447;" horiz-adv-x="1091" 
d="M732 0l82 387q-26 -18 -57.5 -35.5t-68 -31.5t-78.5 -22.5t-88 -8.5q-99 0 -162.5 30t-96.5 84.5t-37 129.5t15 165l67 315h212l-62 -293q-16 -75 -12 -124t25 -78.5t56.5 -41.5t82.5 -12q70 0 131 23t107 62l99 464h212l-215 -1013h-212z" />
    <glyph glyph-name="afii10090" unicode="&#x448;" horiz-adv-x="1543" 
d="M395 172h316l179 841h209l-179 -841h302l179 841h212l-215 -1013h-1251l215 1013h212z" />
    <glyph glyph-name="afii10091" unicode="&#x449;" horiz-adv-x="1554" 
d="M1462 -200h-212l43 200h-1147l215 1013h212l-179 -841h316l179 841h209l-179 -841h302l179 841h212l-179 -841h108z" />
    <glyph glyph-name="afii10092" unicode="&#x44a;" horiz-adv-x="1054" 
d="M257 1013h398l-85 -397h206q79 0 139.5 -22.5t98.5 -64t51 -100t-2 -129.5q-32 -151 -139.5 -225.5t-273.5 -74.5h-422l177 837h-186zM471 148h172q94 0 146.5 35t71.5 123q17 82 -20 124.5t-140 42.5h-161z" />
    <glyph glyph-name="afii10094" unicode="&#x44c;" horiz-adv-x="996" 
d="M389 148h169q48 0 85 8t64 26.5t44.5 49t27.5 74.5q17 82 -20 124.5t-142 42.5h-159zM573 1013l-85 -397h210q74 0 133.5 -21.5t98 -62t53 -99t-0.5 -131.5q-17 -77 -53.5 -133.5t-89.5 -94t-121.5 -56t-149.5 -18.5h-422l215 1013h212z" />
    <glyph glyph-name="afii10093" unicode="&#x44b;" horiz-adv-x="1455" 
d="M389 148h169q48 0 85 8t64 26.5t44.5 49t27.5 74.5q17 82 -20 124.5t-142 42.5h-159zM573 1013l-85 -397h210q74 0 133.5 -21.5t98 -62t53 -99t-0.5 -131.5q-17 -77 -53.5 -133.5t-89.5 -94t-121.5 -56t-149.5 -18.5h-422l215 1013h212zM1098 0l215 1013h212l-215 -1013
h-212z" />
    <glyph glyph-name="afii10096" unicode="&#x44e;" horiz-adv-x="1564" 
d="M146 0l215 1013h212l-88 -411h181q30 88 82 167t123 138t159 94t192 35q94 0 175 -33t135 -98.5t74 -163t-7 -226.5q-26 -122 -80 -220t-131 -168t-175.5 -107.5t-212.5 -37.5q-101 0 -174.5 30.5t-120 87t-66 135.5t-11.5 175h-183l-87 -410h-212zM830 515
q-18 -85 -11.5 -151.5t34 -112.5t74.5 -70t109 -24q63 0 120 25t103.5 71.5t80.5 112.5t52 149q16 75 9 138.5t-34.5 109.5t-73.5 72t-107 26q-63 0 -120 -25.5t-104.5 -71t-81.5 -109.5t-50 -140z" />
    <glyph glyph-name="afii10098" unicode="&#x491;" horiz-adv-x="866" 
d="M840 1013l42 200h212l-80 -376h-479l-177 -837h-212l215 1013h479z" />
    <glyph glyph-name="afii10102" unicode="&#x455;" horiz-adv-x="898" 
d="M173 233q80 -44 152 -61.5t142 -17.5q39 0 73.5 11.5t61.5 30.5t45.5 43t24.5 50q5 23 0 42.5t-25.5 38.5t-58 39t-97.5 44q-59 22 -110 45t-85.5 56t-49 80t0.5 117q15 71 54 124.5t96 89t128.5 53.5t150.5 18q102 0 178.5 -20t141.5 -58l-92 -149q-65 28 -118 40.5
t-107 12.5q-94 0 -153 -29.5t-73 -93.5q-7 -32 8.5 -51.5t44 -33.5t65.5 -25t73 -24q77 -28 127.5 -60t78 -71t33.5 -86t-6 -105q-14 -65 -53 -120.5t-96.5 -95.5t-130 -62.5t-153.5 -22.5q-68 0 -124.5 9t-102.5 22.5t-80.5 30.5t-58.5 32z" />
    <glyph glyph-name="afii10103" unicode="&#x456;" horiz-adv-x="504" 
d="M146 0l215 1013h212l-215 -1013h-212zM546 1390q130 0 107 -110q-11 -48 -46.5 -77.5t-104.5 -29.5q-133 0 -110 109q12 56 51 82t103 26z" />
    <glyph glyph-name="afii10104" unicode="&#x457;" horiz-adv-x="504" 
d="M146 0l215 1013h212l-215 -1013h-212zM370 1356q110 0 91 -94q-9 -42 -40 -67.5t-89 -25.5q-113 0 -94 95q20 92 132 92zM714 1356q110 0 91 -94q-9 -42 -40.5 -67.5t-88.5 -25.5q-113 0 -94 95q20 92 132 92z" />
    <glyph glyph-name="afii10105" unicode="&#x458;" horiz-adv-x="504" 
d="M-197 -177q49 -17 91.5 -26t81.5 -7q60 2 103 48.5t62 134.5l221 1040h212l-224 -1053q-7 -34 -21 -73t-36 -77t-52.5 -73t-71.5 -61.5t-93 -42t-117 -15.5q-40 0 -75.5 6t-65.5 14.5t-53 18t-36 15.5zM548 1390q130 0 107 -110q-11 -48 -47 -77.5t-104 -29.5
q-134 0 -111 109q12 56 51.5 82t103.5 26z" />
    <glyph glyph-name="afii10100" unicode="&#x453;" horiz-adv-x="871" 
d="M1052 1013l-38 -176h-479l-177 -837h-212l215 1013h691zM655 1199l297 301l136 -103l-347 -268z" />
    <glyph glyph-name="afii10099" unicode="&#x452;" 
d="M850 1162h-247l-40 -189q75 26 159 44.5t171 18.5q100 0 160.5 -31t89.5 -83t31 -120.5t-14 -143.5l-141 -664q-11 -52 -36.5 -112t-71.5 -111t-115.5 -85t-166.5 -34q-40 0 -76.5 6t-66.5 14.5t-53 18t-36 15.5l75 151q95 -36 172 -34q60 2 102.5 47.5t62.5 129.5
l136 642q8 36 10 74t-10 68.5t-41.5 50t-84.5 19.5q-38 0 -80 -9.5t-82.5 -24t-77 -31t-61.5 -30.5l-161 -759h-212l246 1162h-160l32 147h160l23 108h212l-23 -108h247z" />
    <glyph glyph-name="afii10108" unicode="&#x45b;" horiz-adv-x="1155" 
d="M447 1444h212l-107 -505q30 14 70 31t85.5 31.5t94.5 24.5t97 10q93 0 150 -34.5t85 -90t31 -124.5t-12 -139l-137 -648h-209l136 643q3 12 6 33t2.5 45.5t-6.5 49t-22.5 44.5t-45 32.5t-72.5 12.5q-30 0 -72 -9.5t-84 -23.5t-78 -29.5t-55 -28.5l-163 -769h-212z
M933 1162h-619l31 148h619z" />
    <glyph glyph-name="afii10106" unicode="&#x459;" horiz-adv-x="1762" 
d="M1472 616q74 0 133.5 -21.5t98.5 -62t53.5 -99t-0.5 -131.5q-17 -77 -53.5 -133.5t-90 -94t-122 -56t-149.5 -18.5h-422l177 837h-405l-13 -65q-8 -38 -21.5 -92t-32 -116.5t-43 -130t-54 -132t-64.5 -122.5t-75 -102t-86 -69.5t-97 -25.5q-24 0 -49 2.5t-45.5 6t-35 6.5
t-18.5 5l44 164q8 0 17 -2.5t19.5 -5t23 -4.5t28.5 -1q30 2 58 28.5t53.5 69.5t49 98.5t43.5 116t36.5 121t30 113.5t22.5 94.5t14 63.5l33 155h817l-85 -397h210zM1162 148h170q48 0 85 8t64 26.5t44.5 49t27.5 74.5q17 82 -20.5 124.5t-142.5 42.5h-159z" />
    <glyph glyph-name="afii10107" unicode="&#x45a;" horiz-adv-x="1714" 
d="M1304 1013l-85 -397h211q74 0 133.5 -21.5t98 -62t53 -99t-0.5 -131.5q-17 -77 -53.5 -133.5t-89.5 -94t-121.5 -56t-149.5 -18.5h-423l90 427h-519l-90 -427h-212l215 1013h212l-88 -411h519l88 411h212zM1120 148h170q48 0 85 8t64 26.5t44.5 49t27.5 74.5
q17 82 -20.5 124.5t-142.5 42.5h-159z" />
    <glyph glyph-name="afii10109" unicode="&#x45c;" horiz-adv-x="1097" 
d="M1203 1013q-81 -136 -181 -244t-211 -190q15 -69 42 -143t61 -145t73 -135t80 -113l-172 -103q-41 34 -83 95.5t-79.5 135t-66.5 150t-43 139.5q-94 -48 -184 -78l-81 -382h-212l215 1013h212l-91 -428q84 32 155 76t131.5 99t113 118.5t99.5 134.5h222v0zM731 1170
l297 301l136 -103l-347 -268z" />
    <glyph glyph-name="afii10110" unicode="&#x45e;" horiz-adv-x="1072" 
d="M101 -377q37 36 80 80.5t87.5 94t88 101t81.5 101.5h-32q-94 259 -125.5 511t-15.5 502l229 10q-10 -109 -10 -222t9.5 -222t28 -210t46.5 -187h12q78 102 145.5 217t123 228t96.5 215.5t66 180.5l225 -10q-27 -81 -65.5 -170.5t-85 -182.5t-99 -185t-107 -178
t-109 -161.5t-104.5 -135.5q-33 -44 -82 -106.5t-103 -129t-108.5 -130.5t-97.5 -112zM804 1153q-89 0 -138.5 24.5t-74 61t-31 79t-9.5 77.5l142 31q1 -23 4.5 -48.5t17 -46.5t40.5 -35t77 -14t83 14t55 35t36 46.5t26 48.5l128 -31q-18 -36 -42.5 -78.5t-64.5 -78.5
t-100 -60.5t-149 -24.5z" />
    <glyph glyph-name="afii10053" unicode="&#x404;" horiz-adv-x="1183" 
d="M425 621q-35 -232 47 -343.5t278 -111.5q89 0 177.5 26.5t188.5 74.5l41 -152q-114 -62 -238.5 -97.5t-236.5 -35.5q-139 0 -243.5 39t-167 123t-77.5 215.5t24 317.5q42 196 115 335.5t172 228t220.5 130t260.5 41.5q118 0 226.5 -37t191.5 -98l-103 -152
q-78 49 -158 75.5t-168 26.5q-378 0 -510 -430h543l-38 -176h-545z" />
    <glyph glyph-name="afii10047" unicode="&#x42d;" horiz-adv-x="1189" 
d="M520 797h543q51 430 -328 430q-88 0 -178.5 -26.5t-188.5 -75.5l-40 152q54 30 113 55t120.5 43t122.5 27.5t120 9.5q139 0 243.5 -41.5t165.5 -130t74.5 -228t-28.5 -335.5q-39 -186 -110.5 -317.5t-169 -215.5t-219 -123t-260.5 -39q-112 0 -221 35.5t-198 97.5
l105 152q81 -48 158.5 -74.5t165.5 -26.5q196 0 325.5 111.5t192.5 343.5h-546z" />
    <glyph glyph-name="afii10097" unicode="&#x44f;" horiz-adv-x="1012" 
d="M75 56q106 80 189.5 162t152.5 167q-38 11 -70 38t-53 66.5t-28 89t5 106.5q18 86 64 148t108 102t135 59t145 19h365l-215 -1012h-206l71 337h-127q-5 0 -10.5 0.5t-11.5 1.5q-34 -48 -78 -100.5t-93 -104t-101.5 -100t-103.5 -88.5zM847 848h-171q-36 0 -70.5 -9.5
t-63 -29.5t-49.5 -51t-30 -73q-8 -35 -3 -67t21.5 -56.5t43.5 -39t65 -14.5h184z" />
    <glyph glyph-name="afii10101" unicode="&#x454;" horiz-adv-x="931" 
d="M177 519q30 142 85 240.5t128.5 160t163.5 89t190 27.5q82 0 161 -17t149 -62l-89 -156q-46 26 -100 41.5t-111 15.5q-134 0 -218 -61t-129 -198h392l-37 -172h-393q-14 -141 46 -202.5t196 -61.5q65 0 121 17t109 39l23 -159q-80 -42 -166.5 -60t-179.5 -18
q-123 0 -201.5 36t-118.5 105t-44 169t23 227z" />
    <glyph glyph-name="afii10095" unicode="&#x44d;" horiz-adv-x="909" 
d="M948 519q-27 -127 -73.5 -227t-115.5 -169t-163 -105t-217 -36q-93 0 -172 18t-142 60l91 159q44 -22 92.5 -39t113.5 -17q136 0 222 61.5t132 202.5h-393l37 172h392q13 137 -45 198t-192 61q-57 0 -117.5 -15.5t-117.5 -41.5l-23 156q90 45 176 62t168 17
q100 0 178 -27.5t125.5 -89t60.5 -160t-17 -240.5z" />
    <glyph glyph-name="afii10073" unicode="&#x437;" horiz-adv-x="797" 
d="M240 956q81 44 160.5 62.5t174.5 18.5q83 0 143 -18.5t96 -53.5t47.5 -85t-1.5 -112q-17 -81 -61 -137t-125 -94q31 -13 56.5 -34t41.5 -52t20 -72t-7 -95q-18 -84 -64.5 -141t-107.5 -92t-131 -51.5t-134 -17.5q-96 -3 -178 21.5t-139 60.5l91 153q27 -15 50 -26
t49.5 -18.5t58 -11.5t74.5 -4q34 0 71 7t68.5 23t55 43t32.5 67q4 22 1.5 47t-17.5 46t-45 35t-80 14h-148l34 161l140 1q31 0 59.5 5t52.5 20t42 41.5t27 69.5q13 60 -20 92t-117 32q-28 0 -55.5 -2.5t-57 -9t-62 -18.5t-70.5 -30z" />
    <glyph glyph-name="napostrophe" unicode="&#x149;" horiz-adv-x="1365" 
d="M562 865q40 24 100 53.5t134 56t158.5 44t172.5 17.5q100 0 161 -31t91.5 -83t33.5 -120.5t-13 -143.5l-139 -658h-212l137 645q7 36 8 74t-12 69t-43.5 50.5t-85.5 19.5q-38 0 -80 -9.5t-82.5 -24t-76.5 -31t-61 -29.5l-162 -764h-212zM355 1049q65 0 92.5 -27t15.5 -82
l-1 -5q-13 -63 -36.5 -118t-54.5 -103t-67 -88.5t-73 -74.5l-89 46q48 65 84.5 127.5t47.5 110.5q-49 7 -65.5 34t-6.5 74q11 54 50 80t103 26z" />
    <glyph glyph-name="lcommaaccent" unicode="&#x13c;" horiz-adv-x="504" 
d="M146 0l306 1444h212l-306 -1444h-212zM219 -55q65 0 92.5 -27t15.5 -82l-1 -5q-13 -63 -36.5 -118t-54.5 -103t-67 -88.5t-73 -74.5l-89 46q48 65 84.5 127.5t47.5 110.5q-49 7 -65.5 34t-6.5 74q11 54 50 80t103 26z" />
    <glyph glyph-name="g.end" horiz-adv-x="1118" 
d="M176 502q30 140 93.5 241t148.5 166t185.5 96t202.5 31q53 0 105.5 -8t100.5 -20.5t90.5 -29.5t76.5 -35l-193 -910l-3 -1h2l-1 -8q-26 -122 -76 -211t-119.5 -147.5t-157.5 -87t-189 -28.5q-91 0 -183.5 18.5t-177.5 71.5l85 137q72 -35 135.5 -47t126.5 -12
q66 0 121 14t98 48t73.5 90.5t48.5 140.5l17 83q-33 -21 -67 -40.5t-70.5 -34t-77 -23t-85.5 -8.5q-93 0 -163.5 31.5t-112.5 95t-52 160t18 227.5zM384 508q-19 -91 -14 -156.5t30.5 -107.5t70.5 -61.5t106 -19.5q30 0 63.5 7t66 19t62 28t51.5 34l121 570q-10 5 -27 12
t-40 13t-51 10.5t-59 4.5q-57 0 -116 -19.5t-110.5 -61.5t-92 -109t-61.5 -163z" />
    <glyph glyph-name="a.alt1000" horiz-adv-x="1043" 
d="M348 941q36 18 76.5 35t87 30.5t99 21.5t113.5 8q81 0 149 -17t112 -58t60.5 -109t-5.5 -170l-130 -682h-201l4 104q-20 -15 -53 -36t-75.5 -40t-92 -32.5t-100.5 -13.5q-67 0 -121.5 17t-89.5 54t-47 94.5t5 138.5q17 79 58 134.5t99 91t127.5 54t143.5 24.5l249 21
l18 84q7 32 4 62t-22.5 53t-59 37t-103.5 14q-68 0 -138.5 -20t-135.5 -46zM790 485l-217 -18q-33 -3 -69.5 -11.5t-68.5 -27t-56.5 -49t-34.5 -76.5q-11 -51 -3.5 -84t28 -52.5t52 -27t67.5 -7.5q38 0 75.5 11t70.5 27.5t59.5 34.5t43.5 32z" />
    <glyph glyph-name="ae.alt1000" horiz-adv-x="1234" 
d="M348 941q36 18 76.5 35t87 30.5t99 21.5t113.5 8q103 0 182.5 -28t117.5 -98q78 63 172.5 94.5t201.5 31.5q87 0 155 -26t111.5 -71t60.5 -106t2 -131q-12 -58 -39.5 -105t-74.5 -80.5t-115.5 -51.5t-163.5 -18h-339l-9 -44q-6 -62 2.5 -109.5t36 -79.5t76 -48t122.5 -16
q78 0 147 19.5t132 45.5l30 -135q-92 -47 -184 -72.5t-197 -25.5q-75 0 -132.5 13t-102.5 38l-6 -33h-201l4 104q-20 -15 -53 -36t-75.5 -40t-92 -32.5t-100.5 -13.5q-67 0 -121.5 17t-89.5 54t-47 94.5t5 138.5q17 79 58 134.5t99 91t127.5 54t143.5 24.5l249 21l18 84
q7 32 4 62t-22.5 53t-59 37t-103.5 14q-68 0 -138.5 -20t-135.5 -46zM790 485l-217 -18q-33 -3 -69.5 -11.5t-68.5 -27t-56.5 -49t-34.5 -76.5q-11 -51 -3.5 -84t28 -52.5t52 -27t67.5 -7.5q38 0 75.5 11t70.5 27.5t59.5 34.5t43.5 32zM1359 877q-65 0 -118.5 -24t-95.5 -65
t-73.5 -96t-50.5 -117h301q43 0 78.5 5t61.5 17.5t43 35t25 58.5q10 48 0 83t-34.5 58t-60.5 34t-76 11z" />
    <glyph glyph-name="e.1000" horiz-adv-x="1059" 
d="M391 447q-12 -73 -7.5 -128.5t30.5 -93t76.5 -56.5t131.5 -19q78 0 146.5 19.5t131.5 45.5l30 -135q-92 -47 -184 -72.5t-197 -25.5q-240 0 -322.5 135.5t-26.5 400.5q27 129 83.5 226.5t134.5 162t174 97t204 32.5q87 0 155 -26t112 -71t61 -106t2 -131
q-12 -58 -39.5 -105t-74.5 -80.5t-115.5 -51.5t-163.5 -18h-342zM758 877q-65 0 -118.5 -24t-96 -65t-74 -96t-50.5 -117h301q43 0 78.5 5t61.5 17.5t43 35t25 58.5q10 48 0 83t-34.5 58t-60 34t-75.5 11z" />
    <glyph glyph-name="afii10067.1000" horiz-adv-x="1050" 
d="M146 0l215 1013h448q78 0 139 -16t100 -48.5t54 -81.5t1 -115q-9 -42 -27.5 -76t-44.5 -61t-58.5 -47.5t-68.5 -33.5l-2 -8q81 -22 119.5 -83t18.5 -156q-15 -72 -51 -125.5t-89.5 -89.5t-123 -54t-153.5 -18h-477zM390 151h215q88 0 145.5 33t75.5 118q16 79 -26.5 115
t-132.5 36h-213zM484 593h188q88 0 147 36t74 109q9 39 0 64.5t-31.5 39.5t-57 19.5t-76.5 5.5h-186z" />
    <glyph glyph-name="afii10073.1000" horiz-adv-x="797" 
d="M240 956q81 44 160.5 62.5t174.5 18.5q83 0 143 -18.5t96 -53.5t47.5 -85t-1.5 -112q-17 -81 -61 -137t-125 -94q31 -13 56.5 -34t41.5 -52t20 -72t-7 -95q-18 -84 -64.5 -141t-107.5 -92t-131 -51.5t-134 -17.5q-96 -3 -178 21.5t-139 60.5l88 140q27 -15 50.5 -26
t49.5 -18.5t57.5 -11.5t74.5 -4q34 0 71.5 7.5t70 25.5t57.5 47.5t34 73.5q5 25 2.5 52.5t-18 50t-45.5 37t-80 14.5h-148l28 135l140 1q31 0 60.5 6t54 21.5t43.5 43.5t28 73q14 64 -20 100t-118 36q-28 0 -55.5 -2.5t-56.5 -9t-61.5 -18.5t-71.5 -30z" />
    <glyph glyph-name="afii10095.1000" horiz-adv-x="909" 
d="M948 519q-27 -127 -73.5 -227t-115.5 -169t-163 -105t-217 -36q-93 0 -172 18t-142 60l88 145q44 -23 92.5 -39.5t113.5 -16.5q70 0 128 16.5t103.5 52t80 91.5t57.5 134h-401l29 140h401q10 78 0 133t-40 89.5t-79.5 50.5t-119.5 16q-57 0 -117.5 -15t-117.5 -41
l-26 141q90 45 176 62t168 17q100 0 178 -27.5t125.5 -89t60.5 -160t-17 -240.5z" />
    <glyph glyph-name="g.alt1000" horiz-adv-x="1050" 
d="M273 640q18 84 63.5 156.5t111.5 126t148 83.5t173 30q46 0 90 -9.5t83 -29.5q38 24 91.5 46.5t119.5 22.5q44 0 70.5 -7.5t39.5 -14.5l-54 -128q-9 2 -25 4t-36 2q-26 0 -48 -7t-41 -18q32 -48 43 -112t-6 -145q-20 -95 -67 -169t-112.5 -124.5t-146.5 -77t-169 -26.5
q-99 0 -171 30q-21 -19 -28 -52q-8 -35 14.5 -48.5t64.5 -18.5l232 -27q80 -7 131.5 -30t78.5 -59.5t32 -84.5t-7 -105q-15 -74 -56.5 -133t-107 -100.5t-155.5 -64t-202 -22.5q-95 0 -170.5 17.5t-125 52t-70.5 85t-7 115.5q6 28 15.5 49.5t20 38.5t19.5 30t14 22l162 -31
q-7 -11 -23 -33t-23 -54q-12 -59 43.5 -98t180.5 -39q122 0 190 42t85 123q3 15 6 35.5t-6 40t-34.5 36t-77.5 22.5l-246 28q-57 4 -95 19t-59 39t-26 56t3 70q11 53 42 93t71 72q-38 50 -50.5 120t7.5 161zM463 639q-11 -53 -3 -97t31 -75t60 -48t83 -17t90 18t80 49.5
t62.5 75.5t37.5 95q10 47 2 88.5t-31 72.5t-59 49t-83 18t-91 -17.5t-80.5 -48.5t-62.5 -73t-36 -90z" />
    <glyph glyph-name="ij" unicode="&#x133;" horiz-adv-x="972" 
d="M159 0l215 1013h212l-215 -1013h-212zM559 1390q130 0 107 -110q-11 -48 -46.5 -77.5t-104.5 -29.5q-133 0 -110 109q12 56 51 82t103 26zM266 -177q49 -17 91.5 -26t81.5 -7q60 2 103 48.5t62 134.5l221 1040h212l-224 -1053q-7 -34 -21 -73t-36 -77t-52.5 -73
t-71.5 -61.5t-93 -42t-117 -15.5q-40 0 -75.5 6t-65.5 14.5t-53 18t-36 15.5zM1011 1390q130 0 107 -110q-11 -48 -47 -77.5t-104 -29.5q-134 0 -111 109q12 56 51.5 82t103.5 26z" />
    <glyph glyph-name="IJ" unicode="&#x132;" horiz-adv-x="1235" 
d="M194 0l296 1394h222l-296 -1394h-222zM1156 379q-21 -98 -53 -172t-80.5 -124t-116 -75.5t-157.5 -25.5q-37 0 -72.5 5.5t-68.5 14.5t-61.5 20t-51.5 23l79 166q33 -16 76 -30.5t84 -14.5q51 0 84.5 14t55.5 40t34.5 61.5t21.5 79.5l220 1033h222z" />
    <glyph glyph-name="g.alt" horiz-adv-x="1074" 
d="M273 640q18 84 63.5 156.5t111.5 126t148 83.5t173 30q46 0 90 -9.5t83 -29.5q38 24 91.5 46.5t119.5 22.5q44 0 70.5 -7.5t39.5 -14.5l-54 -128q-9 2 -25 4t-36 2q-26 0 -48 -7t-41 -18q32 -48 43 -112t-6 -145q-20 -95 -67 -169.5t-112.5 -125.5t-146.5 -78t-169 -27
q-98 0 -171 30q-14 -17 -20 -46q-8 -33 14 -47.5t68 -19.5l249 -27q70 -7 115.5 -30.5t70 -60.5t29 -85.5t-7.5 -105.5q-15 -74 -56.5 -133t-107 -100.5t-155.5 -64t-202 -22.5q-95 0 -170.5 17.5t-125 52t-70.5 85t-7 115.5q6 28 15.5 49.5t20 38.5t19.5 30t14 22l175 -31
l-24 -33t-23 -54q-5 -26 5 -48.5t37 -39.5t70.5 -26.5t105.5 -9.5q236 0 269 151q3 13 5 31.5t-7.5 36t-35.5 32t-79 21.5l-244 28q-56 4 -93 21.5t-57.5 45.5t-25.5 64.5t4 79.5q12 54 40 91.5t64 66.5q-35 51 -45 119t9 156zM474 640q-11 -51 -3.5 -93t29.5 -72t57 -46.5
t79 -16.5t86 17t76.5 47.5t59.5 72t36 91.5q9 45 2 84.5t-29 69t-56.5 47t-79.5 17.5t-87.5 -17t-77 -46.5t-59 -69t-33.5 -85.5z" />
    <glyph glyph-name="s.1000" horiz-adv-x="898" 
d="M170 223q79 -44 152 -59t150 -15q42 0 76 11t59.5 30t42 44.5t22.5 53.5t1.5 50.5t-24.5 42t-58.5 38.5t-100.5 42q-59 21 -109.5 42t-85.5 52.5t-49 78t1 117.5q15 72 54.5 126t97 89t131.5 52.5t159 17.5q91 0 164.5 -19.5t140.5 -58.5l-89 -146q-34 15 -63 25.5
t-57 17t-55 10t-57 3.5q-90 0 -148.5 -31.5t-72.5 -97.5q-8 -34 6.5 -54.5t42 -34.5t65 -25t76.5 -24q76 -26 127.5 -54.5t80 -66t34.5 -86t-8 -113.5q-14 -68 -51.5 -123t-94 -94t-130 -60.5t-158.5 -21.5q-66 0 -123.5 9.5t-104 23.5t-81 30.5t-55.5 30.5z" />
    <glyph glyph-name="oe.1000" horiz-adv-x="1845" 
d="M199 516q25 120 78.5 216t131 163.5t176 104t214.5 36.5q63 0 121 -12.5t106.5 -38.5t85.5 -67.5t58 -99.5t23.5 -133.5t-17.5 -169.5q-27 -129 -81.5 -228.5t-132 -167t-175.5 -102.5t-212 -35t-197 34t-132 101.5t-62 167.5t15 231zM407 515q-21 -98 -14.5 -166
t34.5 -110.5t75.5 -62t110.5 -19.5t119 20t102 63.5t80.5 111.5t54.5 163q19 90 12 155t-35 107.5t-75 63t-108 20.5q-63 0 -119.5 -21t-103 -64t-80.5 -108t-53 -153zM1177 447q-12 -73 -7.5 -128.5t30.5 -93t76.5 -56.5t131.5 -19q78 0 146.5 19.5t131.5 45.5l30 -135
q-92 -47 -184 -72.5t-197 -25.5q-240 0 -322.5 135.5t-26.5 400.5q27 129 83.5 226.5t134.5 162t174 97t204 32.5q87 0 155 -26t112 -71t61 -106t2 -131q-12 -58 -39.5 -105t-74.5 -80.5t-115.5 -51.5t-163.5 -18h-342zM1544 877q-65 0 -118.5 -24t-96 -65t-74 -96
t-50.5 -117h301q43 0 78.5 5t61.5 17.5t43 35t25 58.5q10 48 0 83t-34.5 58t-60 34t-75.5 11z" />
    <glyph glyph-name="a.alt" horiz-adv-x="1037" 
d="M356 941q36 18 76.5 35t87 30.5t99 21.5t113.5 8q81 0 149 -17t112 -58t60.5 -109t-5.5 -170l-144 -682h-184l-5 99q-20 -15 -50 -35t-70 -38.5t-89 -31t-106 -12.5q-68 0 -122 16t-88 53t-45 96t7 146q16 77 56.5 131.5t97.5 91t126.5 56t143.5 25.5l246 21l16 77
q7 32 4.5 62t-21.5 53t-57.5 37t-102.5 14q-69 0 -139 -20t-136 -46zM792 477l-212 -19q-33 -3 -67.5 -11t-65 -26t-54 -47.5t-32.5 -73.5q-10 -47 -3 -76.5t26.5 -47t48 -24t62.5 -6.5q38 0 74 7.5t67.5 19t57.5 25.5t45 28z" />
    <glyph glyph-name="zero.fitted" horiz-adv-x="1235" 
d="M1292 702q-20 -94 -50.5 -184t-73 -170.5t-97 -147.5t-123 -115.5t-151.5 -75.5t-181 -27q-122 0 -210 41.5t-137 128.5t-56 221.5t32 320.5q18 84 46.5 170t69.5 165.5t95 149.5t123 121.5t153.5 81.5t187.5 30q99 0 170.5 -27.5t119 -77t73.5 -117t34 -146.5t1 -166
t-26 -176zM1079 697q31 147 31.5 249t-26 165.5t-78.5 92.5t-126 29q-66 0 -119.5 -23.5t-96.5 -63.5t-76 -93t-57.5 -112t-42.5 -121t-30 -120q-13 -59 -22 -121.5t-9.5 -122.5t9.5 -113.5t36 -94t69.5 -64t110.5 -23.5q73 0 137.5 29t118.5 92.5t97 165.5t74 249z" />
    <glyph glyph-name="one.fitted" horiz-adv-x="1235" 
d="M560 1209l40 185h441l-296 -1394h-222l256 1209h-219zM363 192h622l-40 -192h-622z" />
    <glyph glyph-name="two.fitted" horiz-adv-x="1235" 
d="M156 0l35 166q165 134 308 250.5t252.5 218.5t179 191t86.5 169q4 20 6 45t-2 51t-15 50.5t-33.5 43.5t-57 30.5t-85.5 11.5t-94.5 -6.5t-84.5 -19t-83 -32t-90 -44.5l-42 148q54 33 108.5 59t111.5 43.5t118.5 27t130.5 9.5q205 0 290.5 -94.5t47.5 -277.5
q-26 -121 -97.5 -229.5t-173 -212t-225 -205t-252.5 -208.5h611l-39 -185h-911z" />
    <glyph glyph-name="three.fitted" horiz-adv-x="1235" 
d="M429 1284q110 60 219 94t237 34q112 0 193.5 -24t130.5 -68.5t65.5 -108.5t-0.5 -144q-12 -54 -32 -102.5t-52 -90t-77 -77t-105 -63.5q46 -17 82.5 -46.5t58.5 -71.5t28 -97.5t-9 -125.5q-26 -121 -86 -199.5t-141 -125t-175 -65.5t-188 -21q-58 -2 -115.5 5.5
t-111.5 22.5t-102 37.5t-87 51.5l103 155q38 -22 72.5 -38.5t72.5 -27.5t82.5 -16.5t103.5 -5.5q61 0 119.5 12t106.5 39.5t82.5 73.5t49.5 114q8 37 -1 77t-40.5 72.5t-89 53.5t-145.5 21h-169l37 171l165 1q66 0 122 13t100 41t73.5 73t43.5 108q10 48 -2.5 84t-43.5 60
t-78.5 35.5t-106.5 11.5q-42 0 -83 -5.5t-83 -16.5t-87.5 -29.5t-96.5 -43.5z" />
    <glyph glyph-name="four.fitted" horiz-adv-x="1235" 
d="M731 0l61 289h-605l39 185l610 920h231l-602 -917h367l63 298h209l-63 -298h159l-40 -188h-159l-61 -289h-209z" />
    <glyph glyph-name="five.fitted" horiz-adv-x="1235" 
d="M277 282q44 -26 84.5 -47t82 -36.5t86 -24t97.5 -8.5q140 0 230.5 68t116.5 191q13 60 -0.5 105t-48.5 75t-90.5 45t-127.5 15h-323l155 729h763l-38 -178h-549l-81 -382h169q104 0 185.5 -27.5t133.5 -80t71 -128.5t-2 -173q-25 -117 -83 -201t-139 -138t-178.5 -79
t-202.5 -25q-67 0 -126.5 13t-110.5 34t-94.5 47t-79.5 52z" />
    <glyph glyph-name="six.fitted" horiz-adv-x="1235" 
d="M256 643q40 187 109.5 330.5t164 241t210.5 147.5t249 50q77 0 135 -10t101.5 -25t75 -32.5t54.5 -33.5l-109 -159q-20 11 -42.5 24t-53 24.5t-72.5 19t-99 7.5q-99 0 -173.5 -35t-128.5 -90.5t-90 -124.5t-58 -138q97 40 185.5 56t162.5 16q106 0 179.5 -33.5t114 -93.5
t50 -143t-11.5 -182q-23 -107 -73.5 -195t-126.5 -150.5t-175.5 -97t-220.5 -34.5q-137 0 -222 46.5t-125.5 132.5t-41 208t31.5 274zM478 653q-63 -243 -21 -364.5t193 -121.5q64 0 120 19.5t100 56t75 89t45 119.5q13 60 8.5 111t-28 88t-66 58t-104.5 21q-40 0 -85.5 -7
t-89.5 -18t-82.5 -24.5t-64.5 -26.5z" />
    <glyph glyph-name="seven.fitted" horiz-adv-x="1235" 
d="M464 1209l40 185h869l-41 -192q-61 -60 -128 -144.5t-135 -184.5t-135 -211.5t-127.5 -225t-112.5 -225t-91 -211.5h-236q74 170 161.5 340t180.5 327t187.5 295.5t181.5 246.5h-614z" />
    <glyph glyph-name="eight.fitted" horiz-adv-x="1235" 
d="M197 357q14 66 53 125t88.5 108t102 87.5t93.5 64.5q-29 19 -61.5 48.5t-58 70t-37.5 91t1 112.5q18 83 64 147.5t115 109t159 68t195 23.5q130 0 214.5 -29t130.5 -77.5t58 -111.5t-2 -130q-13 -61 -44 -112t-73 -94.5t-92.5 -81t-102.5 -72.5q54 -30 95.5 -66t67.5 -78
t34.5 -91t-3.5 -106q-18 -84 -63.5 -154.5t-118.5 -120.5t-173 -78t-227 -28q-122 0 -208.5 27t-138 76.5t-69 118.5t0.5 153zM418 372q-22 -103 37.5 -161t194.5 -58q66 0 121 15t97 42.5t69.5 66.5t38.5 88q12 57 -4.5 99t-56 76.5t-98.5 64.5t-132 63q-27 -18 -68 -47
t-81.5 -66.5t-73.5 -83.5t-44 -99zM592 1053q-11 -50 8.5 -88.5t58 -69.5t90.5 -56.5t106 -49.5q36 25 74 49.5t70.5 54.5t57 67.5t35.5 88.5q9 41 2 76t-31.5 61t-69 41t-110.5 15q-117 0 -193.5 -46t-97.5 -143z" />
    <glyph glyph-name="nine.fitted" horiz-adv-x="1235" 
d="M1268 751q-40 -187 -109.5 -330.5t-163.5 -241t-210 -147.5t-249 -50q-77 0 -135.5 9.5t-102 24.5t-75 32.5t-54.5 33.5l109 160q20 -11 42.5 -24.5t53.5 -25t72.5 -19t98.5 -7.5q71 0 128.5 18.5t104 50t82 72.5t62.5 86t46.5 90.5t32.5 86.5q-94 -46 -187 -67t-167 -21
q-107 0 -180 33.5t-113.5 94t-50 143.5t11.5 182q23 107 74 195t127 150.5t175.5 97t220.5 34.5q137 0 222 -46.5t125.5 -132.5t40.5 -208t-32 -274zM1051 756q52 235 12.5 352.5t-188.5 117.5q-64 0 -120 -19.5t-100.5 -56t-75.5 -89t-45 -118.5q-13 -61 -8 -112t28 -88
t65.5 -57.5t104.5 -20.5q40 0 85.5 8.5t90 21.5t84 29t67.5 32z" />
    <glyph glyph-name="zerooldstyle" unicode="&#xf730;" horiz-adv-x="974" 
d="M178 507q30 142 84.5 242t124 164t151 93.5t167.5 29.5q85 0 154.5 -29.5t112 -93.5t53.5 -164t-19 -242t-84 -242.5t-123.5 -164t-151.5 -93t-167 -29.5q-86 0 -155 29.5t-111.5 93t-54 164t18.5 242.5zM373 507q-20 -94 -19 -160.5t20 -109t55.5 -62t88.5 -19.5
q51 0 96 19.5t81.5 62t65.5 109t49 160.5t19.5 160.5t-19.5 109t-55 62.5t-88 20t-97 -20t-82 -62.5t-66 -109t-49 -160.5z" />
    <glyph glyph-name="oneoldstyle" unicode="&#xf731;" horiz-adv-x="749" 
d="M279 828l40 186h430l-215 -1014h-211l175 828h-219z" />
    <glyph glyph-name="twooldstyle" unicode="&#xf732;" horiz-adv-x="987" 
d="M123 0l33 156q79 59 156 114.5t147.5 107t132 99t108 90.5t76 82t37.5 74q4 19 0.5 43.5t-20 45.5t-50 35.5t-89.5 14.5q-74 0 -136 -24t-128 -66l-53 142q40 26 89.5 48t103 38.5t107.5 26t105 9.5q75 0 134.5 -18t97.5 -52.5t53 -85.5t1 -117q-12 -58 -43 -111.5
t-74.5 -104t-97 -98.5t-110 -93.5t-114 -89.5t-109.5 -87h449l-38 -179h-768z" />
    <glyph glyph-name="threeoldstyle" unicode="&#xf733;" horiz-adv-x="1078" 
d="M288 895q49 30 96.5 54t97.5 41t105.5 26t119.5 9q112 0 191 -24t125.5 -68.5t60.5 -108.5t-3 -144q-12 -54 -32 -102t-52 -89.5t-77 -76.5t-106 -65q46 -17 82.5 -47.5t58.5 -73.5t28 -98t-8 -122q-26 -121 -83.5 -199.5t-135.5 -125t-170 -65.5t-186 -21
q-231 -6 -387 111l103 152q35 -21 67 -37t68 -27.5t78 -17t96 -5.5q62 0 118 13t102 41.5t78 74t46 110.5q9 41 2.5 82t-35 74t-83 53.5t-142.5 20.5h-169l36 174l165 1q66 0 120 13.5t95 42.5t69 75.5t42 112.5q9 43 -2.5 78.5t-40.5 60t-73.5 38.5t-101.5 14
q-42 0 -79 -6.5t-74.5 -20t-78 -33.5t-88.5 -47z" />
    <glyph glyph-name="fouroldstyle" unicode="&#xf734;" horiz-adv-x="1113" 
d="M587 -390l63 299h-595l38 178l611 927h228l-605 -926h361l64 298h212l-64 -298h153l-38 -179h-153l-63 -299h-212z" />
    <glyph glyph-name="fiveoldstyle" unicode="&#xf735;" horiz-adv-x="1133" 
d="M132 -105q39 -26 74.5 -46.5t70.5 -35t71.5 -22.5t78.5 -8q150 0 235 68t111 189q25 120 -43 178.5t-213 58.5h-285l157 736h703l-38 -180h-505l-81 -377h138q104 0 183.5 -28t129 -80.5t66.5 -129t-4 -174.5q-25 -117 -79 -200t-129 -135.5t-167 -76.5t-192 -24
q-64 0 -119.5 12t-103 30.5t-87.5 42.5t-74 48z" />
    <glyph glyph-name="sixoldstyle" unicode="&#xf736;" horiz-adv-x="1150" 
d="M236 643q40 187 105.5 330.5t154.5 241t201.5 147.5t245.5 50q76 0 130.5 -9.5t94.5 -24.5t68 -32.5t51 -33.5l-104 -155q-19 11 -40 25t-49 26t-66.5 20.5t-92.5 8.5q-99 0 -171 -36.5t-123 -94t-84 -128t-55 -139.5q48 20 89 33.5t79 22t74 12.5t73 4
q106 0 179.5 -33.5t114 -93.5t50 -143t-11.5 -182q-23 -107 -69.5 -195t-117.5 -150.5t-166.5 -97t-216.5 -34.5q-137 0 -219.5 46.5t-121 132.5t-36.5 208t34 274zM449 656q-62 -247 -24 -373t189 -126q66 0 119.5 20.5t95 59t69.5 92.5t42 122q13 64 8.5 116.5t-28.5 90
t-67 58t-105 20.5q-40 0 -82 -7.5t-81.5 -19.5t-74.5 -26t-61 -27z" />
    <glyph glyph-name="sevenoldstyle" unicode="&#xf737;" horiz-adv-x="1060" 
d="M283 826l40 188h869l-41 -193q-64 -67 -132 -154.5t-136 -187.5t-134 -209t-125.5 -220t-111 -220.5t-90.5 -209.5h-224q74 170 162.5 339.5t182 326t188 294.5t181.5 246h-629z" />
    <glyph glyph-name="eightoldstyle" unicode="&#xf738;" horiz-adv-x="1229" 
d="M197 357q14 66 54 125.5t90.5 110t103.5 89.5t94 65q-29 19 -62.5 47.5t-59.5 68t-39 89.5t0 112q17 80 63 144.5t115 109.5t159.5 69.5t195.5 24.5q130 0 214.5 -29t130.5 -77.5t58 -111.5t-2 -130q-13 -61 -44.5 -112t-74.5 -94.5t-94 -81.5t-103 -73q54 -30 96 -65.5
t68.5 -77.5t36 -91t-2.5 -106q-18 -84 -63.5 -154.5t-118.5 -120.5t-173 -78t-227 -28q-122 0 -208.5 27t-138 76.5t-69 118.5t0.5 153zM409 377q-11 -51 0.5 -92t42.5 -69.5t81.5 -43.5t117.5 -15q66 0 123 15t101.5 42.5t73.5 67t39 88.5q12 57 -6.5 98.5t-60 75
t-102.5 62.5t-133 60q-27 -18 -69.5 -45t-85 -63.5t-77 -81.5t-45.5 -99zM582 1050q-11 -51 9 -90t60 -69.5t93 -56t109 -49.5q29 19 67.5 43t75 56t65.5 72.5t40 92.5q9 41 1 75.5t-35 59t-73 38.5t-112 14q-58 0 -108.5 -11t-89.5 -34t-65.5 -58t-36.5 -83z" />
    <glyph glyph-name="nineoldstyle" unicode="&#xf739;" horiz-adv-x="1150" 
d="M1131 375q-40 -187 -105 -330.5t-154.5 -241t-201.5 -147.5t-245 -50q-76 0 -131 9.5t-94.5 24.5t-68 32.5t-51.5 33.5l104 155q19 -11 40.5 -25t49.5 -26t66 -20.5t92 -8.5q99 0 171.5 36.5t123.5 94t84.5 128t55.5 139.5q-48 -20 -90 -34t-80 -22.5t-74 -12.5t-73 -4
q-107 0 -180 34t-113.5 94t-50 143t11.5 182q23 107 69.5 195t117.5 150.5t167 97t217 34.5q137 0 219.5 -46.5t120.5 -132.5t36 -208t-34 -274zM918 362q63 247 24.5 372.5t-189.5 125.5q-66 0 -119.5 -20.5t-95 -59t-69.5 -92.5t-42 -121q-14 -64 -9 -116.5t29 -90t67 -58
t105 -20.5q40 0 82 7.5t81.5 19.5t74.5 26t61 27z" />
    <glyph glyph-name="zero.taboldstyle" horiz-adv-x="974" 
d="M178 507q30 142 84.5 242t124 164t151 93.5t167.5 29.5q85 0 154.5 -29.5t112 -93.5t53.5 -164t-19 -242t-84 -242.5t-123.5 -164t-151.5 -93t-167 -29.5q-86 0 -155 29.5t-111.5 93t-54 164t18.5 242.5zM373 507q-20 -94 -19 -160.5t20 -109t55.5 -62t88.5 -19.5
q51 0 96 19.5t81.5 62t65.5 109t49 160.5t19.5 160.5t-19.5 109t-55 62.5t-88 20t-97 -20t-82 -62.5t-66 -109t-49 -160.5z" />
    <glyph glyph-name="one.taboldstyle" horiz-adv-x="749" 
d="M279 828l40 186h430l-215 -1014h-211l175 828h-219z" />
    <glyph glyph-name="two.taboldstyle" horiz-adv-x="987" 
d="M123 0l33 156q79 59 156 114.5t147.5 107t132 99t108 90.5t76 82t37.5 74q4 19 0.5 43.5t-20 45.5t-50 35.5t-89.5 14.5q-74 0 -136 -24t-128 -66l-53 142q40 26 89.5 48t103 38.5t107.5 26t105 9.5q75 0 134.5 -18t97.5 -52.5t53 -85.5t1 -117q-12 -58 -43 -111.5
t-74.5 -104t-97 -98.5t-110 -93.5t-114 -89.5t-109.5 -87h449l-38 -179h-768z" />
    <glyph glyph-name="three.taboldstyle" horiz-adv-x="1078" 
d="M288 895q49 30 96.5 54t97.5 41t105.5 26t119.5 9q112 0 191 -24t125.5 -68.5t60.5 -108.5t-3 -144q-12 -54 -32 -102t-52 -89.5t-77 -76.5t-106 -65q46 -17 82.5 -47.5t58.5 -73.5t28 -98t-8 -122q-26 -121 -83.5 -199.5t-135.5 -125t-170 -65.5t-186 -21
q-231 -6 -387 111l103 152q35 -21 67 -37t68 -27.5t78 -17t96 -5.5q62 0 118 13t102 41.5t78 74t46 110.5q9 41 2.5 82t-35 74t-83 53.5t-142.5 20.5h-169l36 174l165 1q66 0 120 13.5t95 42.5t69 75.5t42 112.5q9 43 -2.5 78.5t-40.5 60t-73.5 38.5t-101.5 14
q-42 0 -79 -6.5t-74.5 -20t-78 -33.5t-88.5 -47z" />
    <glyph glyph-name="four.taboldstyle" horiz-adv-x="1113" 
d="M587 -390l63 299h-595l38 178l611 927h228l-605 -926h361l64 298h212l-64 -298h153l-38 -179h-153l-63 -299h-212z" />
    <glyph glyph-name="five.taboldstyle" horiz-adv-x="1133" 
d="M132 -105q39 -26 74.5 -46.5t70.5 -35t71.5 -22.5t78.5 -8q150 0 235 68t111 189q25 120 -43 178.5t-213 58.5h-285l157 736h703l-38 -180h-505l-81 -377h138q104 0 183.5 -28t129 -80.5t66.5 -129t-4 -174.5q-25 -117 -79 -200t-129 -135.5t-167 -76.5t-192 -24
q-64 0 -119.5 12t-103 30.5t-87.5 42.5t-74 48z" />
    <glyph glyph-name="six.taboldstyle" horiz-adv-x="1150" 
d="M236 643q40 187 105.5 330.5t154.5 241t201.5 147.5t245.5 50q76 0 130.5 -9.5t94.5 -24.5t68 -32.5t51 -33.5l-104 -155q-19 11 -40 25t-49 26t-66.5 20.5t-92.5 8.5q-99 0 -171 -36.5t-123 -94t-84 -128t-55 -139.5q48 20 89 33.5t79 22t74 12.5t73 4
q106 0 179.5 -33.5t114 -93.5t50 -143t-11.5 -182q-23 -107 -69.5 -195t-117.5 -150.5t-166.5 -97t-216.5 -34.5q-137 0 -219.5 46.5t-121 132.5t-36.5 208t34 274zM449 656q-62 -247 -24 -373t189 -126q66 0 119.5 20.5t95 59t69.5 92.5t42 122q13 64 8.5 116.5t-28.5 90
t-67 58t-105 20.5q-40 0 -82 -7.5t-81.5 -19.5t-74.5 -26t-61 -27z" />
    <glyph glyph-name="seven.taboldstyle" horiz-adv-x="1060" 
d="M283 826l40 188h869l-41 -193q-64 -67 -132 -154.5t-136 -187.5t-134 -209t-125.5 -220t-111 -220.5t-90.5 -209.5h-224q74 170 162.5 339.5t182 326t188 294.5t181.5 246h-629z" />
    <glyph glyph-name="eight.taboldstyle" horiz-adv-x="1229" 
d="M197 357q14 66 54 125.5t90.5 110t103.5 89.5t94 65q-29 19 -62.5 47.5t-59.5 68t-39 89.5t0 112q17 80 63 144.5t115 109.5t159.5 69.5t195.5 24.5q130 0 214.5 -29t130.5 -77.5t58 -111.5t-2 -130q-13 -61 -44.5 -112t-74.5 -94.5t-94 -81.5t-103 -73q54 -30 96 -65.5
t68.5 -77.5t36 -91t-2.5 -106q-18 -84 -63.5 -154.5t-118.5 -120.5t-173 -78t-227 -28q-122 0 -208.5 27t-138 76.5t-69 118.5t0.5 153zM409 377q-11 -51 0.5 -92t42.5 -69.5t81.5 -43.5t117.5 -15q66 0 123 15t101.5 42.5t73.5 67t39 88.5q12 57 -6.5 98.5t-60 75
t-102.5 62.5t-133 60q-27 -18 -69.5 -45t-85 -63.5t-77 -81.5t-45.5 -99zM582 1050q-11 -51 9 -90t60 -69.5t93 -56t109 -49.5q29 19 67.5 43t75 56t65.5 72.5t40 92.5q9 41 1 75.5t-35 59t-73 38.5t-112 14q-58 0 -108.5 -11t-89.5 -34t-65.5 -58t-36.5 -83z" />
    <glyph glyph-name="nine.taboldstyle" horiz-adv-x="1150" 
d="M1131 375q-40 -187 -105 -330.5t-154.5 -241t-201.5 -147.5t-245 -50q-76 0 -131 9.5t-94.5 24.5t-68 32.5t-51.5 33.5l104 155q19 -11 40.5 -25t49.5 -26t66 -20.5t92 -8.5q99 0 171.5 36.5t123.5 94t84.5 128t55.5 139.5q-48 -20 -90 -34t-80 -22.5t-74 -12.5t-73 -4
q-107 0 -180 34t-113.5 94t-50 143t11.5 182q23 107 69.5 195t117.5 150.5t167 97t217 34.5q137 0 219.5 -46.5t120.5 -132.5t36 -208t-34 -274zM918 362q63 247 24.5 372.5t-189.5 125.5q-66 0 -119.5 -20.5t-95 -59t-69.5 -92.5t-42 -121q-14 -64 -9 -116.5t29 -90t67 -58
t105 -20.5q40 0 82 7.5t81.5 19.5t74.5 26t61 27z" />
    <glyph glyph-name="zerosuperior" unicode="&#x2070;" horiz-adv-x="739" 
d="M282 1110q23 109 64.5 186.5t95 126.5t116.5 72t129 23t119 -23t86 -72t41.5 -126.5t-14.5 -186.5q-23 -110 -64.5 -187t-95 -126t-116.5 -71.5t-129 -22.5t-119 22.5t-86 71.5t-41.5 126t14.5 187zM446 1110q-15 -72 -16.5 -121.5t11 -80t38.5 -44t66 -13.5t72 13.5
t57.5 44t45.5 80t35 121.5t16.5 121.5t-11 80.5t-38.5 44.5t-66 13.5t-72 -13.5t-57.5 -44.5t-45.5 -80.5t-35 -121.5z" />
    <glyph glyph-name="onesuperior" unicode="&#xb9;" horiz-adv-x="581" 
d="M367 1347l33 157h338l-166 -781h-169l133 624h-169z" />
    <glyph glyph-name="twosuperior" unicode="&#xb2;" horiz-adv-x="763" 
d="M248 719l29 136q91 69 174 128t148 109.5t106 93.5t49 79q4 18 4 36.5t-9 33.5t-30.5 24t-59.5 9q-52 0 -98 -16.5t-99 -49.5l-46 116q63 41 141.5 70t167.5 29q58 0 101.5 -14.5t70 -43.5t35 -72.5t-4.5 -102.5q-12 -58 -51 -111.5t-93.5 -104t-119 -100t-127.5 -99.5
h322l-32 -150h-578z" />
    <glyph glyph-name="threesuperior" unicode="&#xb3;" horiz-adv-x="636" 
d="M364 1442q57 35 117.5 55.5t142.5 20.5q122 0 173.5 -53.5t31.5 -146.5q-14 -63 -51.5 -114t-101.5 -78q26 -10 47 -28t33.5 -42.5t16 -56.5t-4.5 -70q-15 -70 -48.5 -116t-78.5 -73t-98 -37.5t-107 -10.5q-60 -1 -122 14.5t-109 48.5l77 112q18 -10 34.5 -17t34.5 -12
t39 -7.5t47 -2.5q69 0 112 24t55 84q4 20 -0.5 40t-19.5 36.5t-41.5 27t-65.5 10.5h-78l28 133h79q57 1 99 25t53 80q10 44 -12.5 67.5t-85.5 23.5q-36 0 -72.5 -10t-89.5 -38z" />
    <glyph glyph-name="foursuperior" unicode="&#x2074;" horiz-adv-x="648" 
d="M530 715l36 169h-333l29 133l343 496h169l-336 -490h158l29 139h146l-29 -139h85l-30 -139h-85l-36 -169h-146z" />
    </font>
</defs>
</svg>
