<?xml version="1.0" standalone="no"?>
<!DOCTYPE svg PUBLIC "-//W3C//DTD SVG 1.1//EN" "http://www.w3.org/Graphics/SVG/1.1/DTD/svg11.dtd" >
<svg xmlns="http://www.w3.org/2000/svg" xmlns:xlink="http://www.w3.org/1999/xlink" version="1.1">
<metadata>
Created by FontForge 20170910 at Mon Dec 18 10:55:40 2017
 By Jimmy Wärting
Copyright (c) 2017 by studio kmzero. All rights reserved.
</metadata>
<defs>
<font id="Kabrio-Regular" horiz-adv-x="1160" >
  <font-face 
    font-family="Kabrio"
    font-weight="400"
    font-stretch="normal"
    units-per-em="2048"
    panose-1="2 0 5 5 4 0 0 2 0 4"
    ascent="1500"
    descent="-548"
    x-height="1013"
    cap-height="1394"
    bbox="-212 -622 2209 1919"
    underline-thickness="102"
    underline-position="-205"
    unicode-range="U+000D-F739"
  />
<missing-glyph horiz-adv-x="680" 
 />
    <glyph glyph-name=".notdef" horiz-adv-x="680" 
 />
    <glyph glyph-name=".null" horiz-adv-x="0" 
 />
    <glyph glyph-name=".null" horiz-adv-x="0" 
 />
    <glyph glyph-name="nonmarkingreturn" unicode="&#xd;" horiz-adv-x="520" 
 />
    <glyph glyph-name="space" unicode=" " horiz-adv-x="520" 
 />
    <glyph glyph-name="numbersign" unicode="#" horiz-adv-x="1566" 
d="M166 1056h278l50 338h200l-50 -338h362l50 338h201l-50 -338h280l-26 -187h-281l-49 -333h280l-26 -186h-282l-51 -350h-200l51 350h-362l-51 -350h-200l51 350h-277l26 186h278l49 333h-277zM568 536h362l49 333h-362z" />
    <glyph glyph-name="percent" unicode="%" horiz-adv-x="1763" 
d="M509 0l511 1394h215l-511 -1394h-215zM100 1003q0 109 25 186.5t68.5 126.5t101 72t123.5 23t124 -23t101.5 -72t69 -126.5t25.5 -186.5q0 -110 -25.5 -187t-69 -125.5t-101.5 -71t-124 -22.5t-123.5 22.5t-101 71t-68.5 125.5t-25 187zM265 1004q0 -72 9 -122t28 -80.5
t48 -44t68 -13.5q40 0 69.5 13.5t48.5 44t28 80.5t9 122t-9 121t-28 80t-48.5 44.5t-69.5 13.5t-69 -13.5t-47.5 -44.5t-27.5 -80t-9 -121zM1026 383q0 109 25 186.5t68.5 126.5t101.5 72t124 23t124 -23t101.5 -72t68.5 -126.5t25 -186.5q0 -110 -25 -187t-68.5 -126
t-101.5 -71.5t-124 -22.5t-124 22.5t-101.5 71.5t-68.5 126t-25 187zM1191 383q0 -72 9 -121.5t28 -80t48 -44t69 -13.5t69 13.5t48 44t28.5 80t9.5 121.5t-9.5 121.5t-28.5 80.5t-48 44.5t-69 13.5t-69 -13.5t-48 -44.5t-28 -80.5t-9 -121.5z" />
    <glyph glyph-name="ampersand" unicode="&#x26;" horiz-adv-x="1451" 
d="M861 1186q-37 18 -86 29.5t-125 11.5q-59 0 -108.5 -11.5t-85.5 -35.5t-56.5 -60t-20.5 -84q0 -127 63.5 -181t196.5 -54l215 -1h446v-161h-234v-322q0 -36 5.5 -65.5t18.5 -50.5t34 -32.5t53 -11.5q51 0 85.5 12t66.5 25l54 -145q-28 -15 -56 -27.5t-59 -21t-66 -13.5
t-77 -5q-75 0 -132.5 28t-92.5 88q-66 -54 -153 -85.5t-184 -29.5q-48 1 -99.5 10.5t-100 29t-92 50.5t-76.5 76.5t-52 105.5t-19 138q0 70 17.5 125.5t49 97.5t74 71.5t92.5 46.5q-108 57 -151.5 140.5t-43.5 192.5q0 80 30 144t87.5 108.5t142 68.5t193.5 24q48 0 88.5 -4
t77.5 -12.5t72.5 -22t74.5 -32.5zM854 629h-220q-89 0 -145.5 -20.5t-89.5 -53t-45.5 -72.5t-12.5 -78q0 -70 22.5 -116t61.5 -73.5t91 -38.5t111 -11q31 0 62.5 7.5t61 21t56 33.5t47.5 44v25v332z" />
    <glyph glyph-name="quotesingle" unicode="'" horiz-adv-x="482" 
d="M154 1417h205l-67 -456h-138v456z" />
    <glyph glyph-name="parenleft" unicode="(" horiz-adv-x="609" 
d="M125 602q0 142 25 275.5t61.5 250.5t79 213.5t77.5 164.5l198 -34q-33 -77 -71.5 -176t-71.5 -212.5t-55 -238.5t-22 -254q0 -110 19 -225.5t50.5 -227.5t71 -215t80.5 -187l-198 -34q-44 76 -87.5 177.5t-78 218.5t-56.5 245t-22 259z" />
    <glyph glyph-name="parenright" unicode=")" horiz-adv-x="630" 
d="M495 602q0 -131 -22 -259t-56.5 -245t-78.5 -218.5t-87 -177.5l-198 34q41 84 80.5 187t71 215t50.5 227.5t19 225.5q0 129 -22 254t-55 238.5t-71.5 212.5t-71.5 176l198 34q35 -68 77.5 -164.5t79 -213.5t61.5 -250.5t25 -275.5z" />
    <glyph glyph-name="asterisk" unicode="*" horiz-adv-x="928" 
d="M551 1235l243 64l49 -177l-234 -63l186 -182l-136 -130l-204 200l-203 -200l-136 130l188 183l-234 62l49 178l242 -64v241h190v-242z" />
    <glyph glyph-name="plus" unicode="+" horiz-adv-x="961" 
d="M398 472h-272v185h272v267h191v-267h273v-185h-273v-269h-191v269z" />
    <glyph glyph-name="comma" unicode="," horiz-adv-x="520" 
d="M258 211q131 0 131 -109v-5q0 -63 -12 -118t-32.5 -103t-47.5 -88.5t-57 -74.5l-99 46q33 65 56.5 127.5t24.5 110.5q-51 7 -73 34t-22 74q0 54 33.5 80t97.5 26z" />
    <glyph glyph-name="hyphen" unicode="-" horiz-adv-x="877" 
d="M107 469v184h670v-184h-670z" />
    <glyph glyph-name="period" unicode="." horiz-adv-x="535" 
d="M265 186q131 0 131 -109q0 -48 -30 -78t-98 -30q-72 0 -103 28t-31 82q0 107 131 107z" />
    <glyph glyph-name="slash" unicode="/" horiz-adv-x="904" 
d="M71 -78l584 1589l198 -65l-584 -1589z" />
    <glyph glyph-name="zero" unicode="0" horiz-adv-x="1235" 
d="M1143 702q0 -94 -11.5 -184t-36.5 -170.5t-65.5 -147.5t-98.5 -115.5t-135 -75.5t-176 -27q-122 0 -219 41.5t-164.5 128.5t-103 221.5t-35.5 320.5q0 84 10.5 170t34 165.5t63 149.5t97.5 121.5t136.5 81.5t180.5 30q99 0 176.5 -27.5t135.5 -77t98.5 -117t65.5 -146.5
t36 -166t11 -176zM931 697q0 147 -21.5 249t-61.5 165.5t-98 92.5t-132 29q-66 0 -114.5 -23.5t-82.5 -63.5t-56 -93t-34 -112t-16.5 -121t-4.5 -120q0 -59 4.5 -121.5t16 -122.5t33 -113.5t56 -94t83 -64t115.5 -23.5q73 0 131.5 29t99 92.5t61.5 165.5t21 249z" />
    <glyph glyph-name="one" unicode="1" horiz-adv-x="759" 
d="M104 1209v185h441v-1394h-222v1209h-219z" />
    <glyph glyph-name="two" unicode="2" horiz-adv-x="1157" 
d="M126 0v166q136 134 254.5 250.5t206.5 218.5t138.5 191t50.5 169q0 30 -8.5 70t-33.5 76t-71.5 61t-122.5 25q-51 0 -93 -6.5t-80.5 -19t-76.5 -32t-81 -44.5l-73 148q47 33 96 59t102 43.5t112.5 27t128.5 9.5q205 0 311 -94.5t106 -277.5q0 -81 -22 -156t-61.5 -146
t-93 -139.5t-116.5 -137t-132.5 -137t-140.5 -139.5h611v-185h-911z" />
    <glyph glyph-name="three" unicode="3" horiz-adv-x="1136" 
d="M107 1284q49 30 98 53.5t101 40t108.5 25.5t120.5 9q112 0 198.5 -24t145 -68.5t89 -108.5t30.5 -144q0 -54 -10 -102.5t-33.5 -90t-61 -77t-91.5 -63.5q50 -17 92.5 -46.5t74 -71.5t49 -97.5t17.5 -125.5q0 -81 -20 -142.5t-55 -106.5t-83 -75.5t-104 -49t-117.5 -27.5
t-123.5 -10q-57 -2 -116.5 5.5t-116.5 22.5t-110 37.5t-98 51.5l71 155q43 -22 80.5 -38.5t77.5 -27.5t86 -16.5t105 -5.5q61 0 117 12t98 39.5t67 73.5t25 114q0 37 -17.5 77t-55.5 72.5t-100 53.5t-150 21h-169v171l165 1q66 0 119.5 13t91 41t58 73t20.5 108q0 48 -20 84
t-56 60t-86 35.5t-109 11.5q-42 0 -82 -5.5t-79.5 -16.5t-81 -29.5t-87.5 -43.5z" />
    <glyph glyph-name="four" unicode="4" horiz-adv-x="1122" 
d="M680 0v289h-605v185l414 920h231l-407 -917h367v298h209v-298h159v-188h-159v-289h-209z" />
    <glyph glyph-name="five" unicode="5" horiz-adv-x="1133" 
d="M148 282q49 -26 94 -47t90 -36.5t91 -24t99 -8.5q140 0 216 68t76 191q0 60 -22.5 105t-64.5 75t-100.5 45t-130.5 15h-323v729h763v-178h-549v-382h169q104 0 191.5 -27.5t150.5 -80t98 -128.5t35 -173q0 -117 -40.5 -201t-109.5 -138t-161.5 -79t-197.5 -25
q-67 0 -129 13t-118 34t-105 47t-90 52z" />
    <glyph glyph-name="six" unicode="6" horiz-adv-x="1201" 
d="M120 643q0 187 39 330.5t112.5 241t179 147.5t238.5 50q77 0 137.5 -10t107 -25t81.5 -32.5t62 -33.5l-75 -159q-22 11 -47.5 24t-58.5 24.5t-76.5 19t-100.5 7.5q-99 0 -166 -35t-109.5 -90.5t-64 -124.5t-28.5 -138q88 40 173.5 56t159.5 16q106 0 186.5 -33.5
t134 -93.5t80.5 -143t27 -182q0 -107 -32 -195t-94.5 -150.5t-155 -97t-213.5 -34.5q-137 0 -231.5 46.5t-153.5 132.5t-85.5 208t-26.5 274zM340 653q-12 -243 56 -364.5t219 -121.5q64 0 115.5 19.5t88 56t56.5 89t20 119.5q0 60 -15.5 111t-46.5 88t-78 58t-109 21
q-40 0 -84 -7t-85.5 -18t-77.5 -24.5t-59 -26.5z" />
    <glyph glyph-name="seven" unicode="7" horiz-adv-x="1060" 
d="M108 1209v185h869v-192q-49 -60 -98 -144.5t-95.5 -184.5t-89.5 -211.5t-79.5 -225t-65 -225t-46.5 -211.5h-236q38 170 89.5 340t111.5 327t125 295.5t129 246.5h-614z" />
    <glyph glyph-name="eight" unicode="8" horiz-adv-x="1229" 
d="M122 357q0 66 26.5 125t65.5 108t83 87.5t80 64.5q-33 19 -72 48.5t-73 70t-57 91t-23 112.5q0 83 32 147.5t92 109t145 68t190 23.5q130 0 220.5 -29t147 -77.5t82 -111.5t25.5 -130q0 -61 -20 -112t-53 -94.5t-75 -81t-87 -72.5q60 -30 109 -66t84 -78t54 -91t19 -106
q0 -84 -30.5 -154.5t-93 -120.5t-156.5 -78t-221 -28q-122 0 -214 27t-154.5 76.5t-94 118.5t-31.5 153zM339 372q0 -103 72 -161t207 -58q66 0 118 15t88.5 42.5t55.5 66.5t19 88q0 57 -25.5 99t-72 76.5t-112 64.5t-145.5 63q-24 -18 -59 -47t-67.5 -66.5t-55.5 -83.5
t-23 -99zM369 1053q0 -50 27.5 -88.5t72.5 -69.5t102 -56.5t117 -49.5q31 25 63.5 49.5t58.5 54.5t43 67.5t17 88.5q0 41 -14.5 76t-44.5 61t-77.5 41t-113.5 15q-116 0 -183.5 -46t-67.5 -143z" />
    <glyph glyph-name="nine" unicode="9" horiz-adv-x="1201" 
d="M1079 751q0 -187 -39 -330.5t-112.5 -241t-179 -147.5t-238.5 -50q-77 0 -137.5 9.5t-107 24.5t-81.5 32.5t-62 33.5l75 160q22 -11 47.5 -24.5t58.5 -25t76.5 -19t100.5 -7.5q71 0 125 18.5t93.5 50t66.5 72.5t44.5 86t26.5 90.5t14 86.5q-84 -46 -172.5 -67t-162.5 -21
q-107 0 -187 33.5t-133.5 94t-80.5 143.5t-27 182q0 107 32 195t94.5 150.5t155 97t213.5 34.5q137 0 232 -46.5t154 -132.5t85 -208t26 -274zM861 756q1 118 -14 206t-48.5 146.5t-86 88t-127.5 29.5q-64 0 -116 -19.5t-88.5 -56t-56.5 -89t-20 -118.5q0 -61 15.5 -112
t46.5 -88t78 -57.5t109 -20.5q40 0 84 8.5t85.5 21.5t77.5 29t61 32z" />
    <glyph glyph-name="colon" unicode=":" horiz-adv-x="535" 
d="M265 186q131 0 131 -109q0 -48 -30 -78t-98 -30q-72 0 -103 28t-31 82q0 107 131 107zM265 1022q131 0 131 -109q0 -48 -30 -78t-98 -30q-72 0 -103 28t-31 83q0 106 131 106z" />
    <glyph glyph-name="semicolon" unicode=";" horiz-adv-x="525" 
d="M258 211q131 0 131 -109v-5q0 -63 -12 -118t-32.5 -103t-47.5 -88.5t-57 -74.5l-99 46q33 65 56.5 127.5t24.5 110.5q-51 7 -73 34t-22 74q0 54 33.5 80t97.5 26zM270 1042q131 0 131 -109q0 -48 -30 -78t-98 -30q-72 0 -103 28t-31 82q0 107 131 107z" />
    <glyph glyph-name="less" unicode="&#x3c;" horiz-adv-x="757" 
d="M318 528l358 -311l-130 -129l-479 442l479 435l131 -128z" />
    <glyph glyph-name="equal" unicode="=" horiz-adv-x="968" 
d="M126 260v175h736v-175h-736zM126 618v174h736v-174h-736z" />
    <glyph glyph-name="greater" unicode="&#x3e;" horiz-adv-x="757" 
d="M81 837l131 128l479 -435l-479 -442l-130 129l358 311z" />
    <glyph glyph-name="question" unicode="?" horiz-adv-x="931" 
d="M81 1318q31 19 71.5 36t84.5 30t90 20.5t88 7.5q118 0 196.5 -26t126.5 -70.5t68.5 -103.5t21.5 -124q1 -75 -15 -129.5t-43.5 -96.5t-65 -76t-80.5 -68q-46 -37 -77.5 -74t-50 -83t-25.5 -105.5t-5 -140.5h-180q-7 70 -8 136.5t13.5 128.5t49.5 120t101 110
q38 31 69.5 56.5t53.5 52.5t34 59.5t12 76.5q0 86 -58 129.5t-168 43.5q-60 0 -122.5 -17t-136.5 -46zM375 169q111 0 111 -94q0 -42 -25.5 -67.5t-83.5 -25.5q-114 0 -114 95q0 48 29 70t83 22z" />
    <glyph glyph-name="at" unicode="@" horiz-adv-x="2083" 
d="M557 502q0 132 38.5 232t107 167t163 101t207.5 34q59 0 114 -8t104.5 -21t93.5 -30t81 -34v-770q0 -21 11 -34.5t27.5 -21t37 -10.5t38.5 -3q68 0 108.5 44t61.5 116.5t27.5 167t6.5 195.5q0 325 -177 483t-537 158q-386 0 -577 -199t-191 -600q0 -187 44 -322.5
t132.5 -223.5t223 -131t314.5 -44q103 -2 191 10t172 35l19 -151q-97 -31 -194.5 -43.5t-196.5 -12.5q-445 3 -664 222.5t-219 662.5q0 248 62.5 428.5t185 298t302.5 174t415 56.5q213 0 377 -51.5t275 -152.5t168.5 -250.5t57.5 -345.5q0 -159 -21.5 -286t-68 -215.5
t-120 -135.5t-178.5 -47q-115 0 -184.5 30.5t-88.5 94.5l-4 13q-58 -45 -135 -72.5t-188 -27.5q-97 0 -175 32.5t-133 97t-84.5 162t-29.5 228.5zM764 508q0 -91 18.5 -157.5t52.5 -109.5t80 -63.5t102 -20.5q71 0 134.5 25t102.5 62v578q-9 4 -26.5 10.5t-41.5 13t-54 11
t-65 4.5q-67 0 -123 -23t-96 -67.5t-62 -110.5t-22 -152z" />
    <glyph glyph-name="A" unicode="A" horiz-adv-x="1346" 
d="M1080 -10q-20 78 -44.5 170.5t-53.5 196.5h-617q-30 -108 -55 -201.5t-43 -165.5l-228 10q16 69 39.5 154.5t52 181.5t61 198t66.5 203.5t69.5 199t69 183t65 156t58.5 118.5h307q39 -71 84.5 -179t93 -236t94.5 -266t87.5 -269.5t72 -246.5t49.5 -197zM657 1209
q-32 -70 -63 -150.5t-61 -167t-59 -176.5t-56 -178h511q-51 168 -111 340.5t-128 331.5h-33z" />
    <glyph glyph-name="B" unicode="B" horiz-adv-x="1238" 
d="M172 0v1394h449q107 0 193 -22.5t146.5 -67t93 -111.5t32.5 -157q0 -58 -15.5 -105.5t-43.5 -85.5t-67.5 -65.5t-86.5 -45.5v-10q59 -15 107 -44t81.5 -70.5t51.5 -95.5t18 -119q0 -199 -119.5 -297t-349.5 -98h-490zM394 168h242q136 0 210 58t74 181q0 112 -72.5 171.5
t-209.5 59.5h-244v-470zM394 800h214q64 0 115.5 15.5t87.5 44t55.5 70t19.5 94.5q0 56 -20.5 95.5t-57.5 64.5t-88.5 36.5t-114.5 11.5h-211v-432z" />
    <glyph glyph-name="C" unicode="C" horiz-adv-x="1217" 
d="M292 691q0 -266 107 -395.5t316 -129.5q89 0 171.5 26.5t173.5 74.5l73 -152q-101 -62 -218 -97.5t-229 -35.5q-139 0 -252 39t-192.5 123t-123 215.5t-43.5 317.5q0 196 43.5 335.5t123 228t192.5 130t252 41.5q59 0 118.5 -9.5t116.5 -27.5t110.5 -43t101.5 -55
l-71 -152q-88 49 -173.5 75.5t-173.5 26.5q-423 0 -423 -536z" />
    <glyph glyph-name="D" unicode="D" horiz-adv-x="1345" 
d="M172 0v1394h449q83 0 164 -15t153.5 -48t134.5 -85.5t106.5 -127.5t70 -173.5t25.5 -224.5q0 -195 -50 -332t-137 -223t-203.5 -125.5t-248.5 -39.5h-464zM394 185h238q91 0 169 32t135 97.5t89.5 164t32.5 231.5q0 129 -32 223t-89 155.5t-136 91t-173 29.5h-234v-1024z
" />
    <glyph glyph-name="E" unicode="E" horiz-adv-x="1117" 
d="M172 0v1394h837l-2 -185h-613v-412h522v-176h-522v-436h632v-185h-854z" />
    <glyph glyph-name="F" unicode="F" horiz-adv-x="1060" 
d="M172 1v1393h813v-185h-591v-459h514v-174h-514v-575h-222z" />
    <glyph glyph-name="G" unicode="G" horiz-adv-x="1312" 
d="M75 695q0 183 41.5 318t119.5 223.5t190 132t254 43.5q137 0 259 -31.5t213 -80.5l-67 -155q-91 42 -194 62t-200 20q-92 0 -165.5 -33t-125.5 -98.5t-80 -163.5t-28 -228q0 -140 26.5 -241.5t78.5 -167t130 -97t180 -31.5q61 0 117.5 9t115.5 26v320h-267v194h478v-652
q-44 -18 -99 -33.5t-115 -26t-122 -16.5t-120 -6q-305 0 -462.5 177t-157.5 536z" />
    <glyph glyph-name="H" unicode="H" horiz-adv-x="1458" 
d="M172 0v1394h222v-592h668v592h223v-1394h-223v617h-668v-617h-222z" />
    <glyph glyph-name="I" unicode="I" horiz-adv-x="568" 
d="M172 0v1394h222v-1394h-222z" />
    <glyph glyph-name="J" unicode="J" horiz-adv-x="796" 
d="M624 379q0 -98 -16.5 -172t-54.5 -124t-100 -75.5t-152 -25.5q-37 0 -73.5 5.5t-71 14.5t-66 20t-56.5 23l44 166q36 -16 82 -30.5t87 -14.5q51 0 81.5 14t47 40t21.5 61.5t5 79.5v1033h222v-1015z" />
    <glyph glyph-name="K" unicode="K" horiz-adv-x="1275" 
d="M172 1v1393h221v-674q88 57 172.5 135t157.5 167t129 184.5t88 187.5h240q-59 -155 -158.5 -307.5t-228.5 -283.5q20 -54 51.5 -118.5t71 -132t85.5 -136.5t95 -133.5t100.5 -121.5t101.5 -101l-164 -119q-69 64 -141.5 150t-139 182t-122.5 196.5t-92 193.5
q-119 -96 -246 -158v-504h-221z" />
    <glyph glyph-name="L" unicode="L" horiz-adv-x="1052" 
d="M172 0v1394h222v-1209h576v-185h-798z" />
    <glyph glyph-name="M" unicode="M" horiz-adv-x="1805" 
d="M108 0q5 164 16.5 323t25.5 310q10 106 21.5 212t24 204.5t24.5 186.5t23 157h323l331 -1118h12l329 1118h323q12 -74 23.5 -156.5t23.5 -176t24 -199t23 -224.5q8 -92 14.5 -174t11.5 -159t9 -152t7 -152h-226q-2 70 -7 165.5t-12.5 203t-17 220t-20 215.5t-22 190.5
t-22.5 144.5h-14l-336 -1138h-234l-338 1138h-14q-12 -70 -23.5 -161t-22 -192t-19.5 -208.5t-16 -210.5t-12.5 -197.5t-7.5 -169.5h-225z" />
    <glyph glyph-name="N" unicode="N" horiz-adv-x="1488" 
d="M172 0v1394h263q34 -42 73 -101.5t82 -130.5t87.5 -150t89.5 -159.5t88.5 -159t84.5 -148.5t77.5 -128t67.5 -97h13l-4 1074h222v-1394h-256q-52 65 -108 152.5t-113 186.5t-115 202.5t-113.5 200t-108 180.5t-99.5 143h-13l3 -1065h-221z" />
    <glyph glyph-name="O" unicode="O" horiz-adv-x="1443" 
d="M1370 696q-1 -185 -50.5 -320t-136 -222.5t-204 -130t-252.5 -41.5q-140 0 -260 44t-207.5 132.5t-137 222.5t-48.5 314q1 179 50 313.5t136 223.5t206.5 134t260.5 46q138 1 256 -44.5t204 -136t134.5 -224.5t48.5 -311zM727 1227q-111 0 -192 -42t-135 -114t-81 -169
t-28 -207q-2 -104 23.5 -199.5t79 -169t136.5 -117t197 -43.5q102 0 181.5 38t134 107t82.5 166.5t28 217.5q0 113 -27 210.5t-81 169t-133.5 112t-184.5 40.5z" />
    <glyph glyph-name="P" unicode="P" horiz-adv-x="1178" 
d="M172 0v1394h460q114 0 204.5 -29t153.5 -85.5t96.5 -140t33.5 -191.5q0 -124 -39.5 -214t-109.5 -149t-164.5 -87.5t-203.5 -28.5h-208v-469h-223zM395 645h210q62 0 116 16.5t94.5 51t64 88.5t23.5 130q0 87 -26.5 142.5t-69.5 86.5t-98.5 42.5t-112.5 11.5h-201v-569z
" />
    <glyph glyph-name="Q" unicode="Q" horiz-adv-x="1443" 
d="M1370 696q-1 -137 -28.5 -246t-77.5 -192t-120 -140.5t-154 -90.5q51 -45 112 -88.5t124 -83t125 -73t115 -57.5l-132 -122q-66 25 -141.5 67t-151 93.5t-147 108.5t-128.5 111q-10 0 -19.5 -0.5t-19.5 -0.5q-140 0 -260 44t-207.5 132.5t-137 222.5t-48.5 314
q1 179 50 313.5t136 223.5t206.5 134t260.5 46q138 1 256 -44.5t204 -136t134.5 -224.5t48.5 -311zM727 1227q-111 0 -192 -42t-135 -114t-81 -169t-28 -207q-2 -104 23.5 -199.5t79 -169t136.5 -117t197 -43.5q102 0 181.5 38t134 107t82.5 166.5t28 217.5q0 113 -27 210.5
t-81 169t-133.5 112t-184.5 40.5z" />
    <glyph glyph-name="S" unicode="S" horiz-adv-x="1059" 
d="M129 273q74 -35 128.5 -56t99 -32.5t84 -15t83.5 -3.5q66 0 114.5 17t80 46t47 68.5t15.5 84.5t-15 81t-46.5 64.5t-81 51.5t-118.5 43q-103 30 -183 61t-134.5 75t-83 107t-28.5 156q0 89 29.5 161t88.5 123t147 79t204 28q101 0 200.5 -25.5t207.5 -85.5l-73 -154
q-46 23 -87 38.5t-79.5 24.5t-76.5 13t-77 4q-61 0 -110 -13t-83 -37t-52 -59t-18 -79q0 -51 15.5 -85t51 -60t93 -47.5t141.5 -47.5q93 -28 165.5 -63.5t122 -83t75.5 -109t26 -142.5q0 -93 -28 -170.5t-85.5 -132.5t-145.5 -85.5t-207 -30.5q-65 0 -124.5 7.5t-117.5 23
t-116 40t-119 58.5z" />
    <glyph glyph-name="T" unicode="T" horiz-adv-x="1093" 
d="M33 1209v185h1027v-185h-403v-1209h-222v1209h-402z" />
    <glyph glyph-name="U" unicode="U" horiz-adv-x="1387" 
d="M698 -18q-131 -1 -234 30.5t-174.5 98t-109.5 169.5t-38 244v870h222v-851q0 -97 17.5 -168t56.5 -117.5t103 -69t157 -22.5q89 0 151 26t100.5 74t56 117t17.5 155v856h222v-870q0 -140 -37 -242.5t-107 -169t-171.5 -98.5t-231.5 -32z" />
    <glyph glyph-name="V" unicode="V" horiz-adv-x="1311" 
d="M499 0q-47 88 -96 202t-96.5 241t-92.5 260t-83.5 258.5t-69 237t-49.5 195.5l232 10q11 -55 33 -140.5t52 -189t67 -218t76.5 -228t81 -220t81.5 -193.5h38q30 62 67 156.5t76 205t77.5 230t72 231t59 207t39.5 159.5l232 -10q-17 -73 -45 -178t-65 -228t-81 -257
t-92.5 -264.5t-100 -251t-102.5 -215.5h-311z" />
    <glyph glyph-name="W" unicode="W" horiz-adv-x="1948" 
d="M1091 1394q16 -84 37 -183.5t44.5 -204.5t50 -212.5t54 -206.5t54.5 -186.5t53 -153.5h17q24 73 48.5 170t46.5 204t42.5 219t37 216t29 194t20.5 154l233 -10q-9 -97 -27.5 -215t-44 -245t-55.5 -257.5t-62 -253t-65 -231t-64 -192.5h-287q-27 64 -55 149t-55.5 179.5
t-53 193t-47.5 191t-39 173.5t-27 140h-6q-12 -67 -29 -149.5t-38 -172.5t-45.5 -184.5t-51.5 -186t-55 -177t-57 -156.5h-288q-27 66 -58 168t-63 224t-63 257t-57.5 268t-46.5 256t-29 221l234 10q4 -49 12.5 -116t20.5 -145.5t27 -165t31.5 -173t34 -170.5t34.5 -157
t33 -132.5t29 -97.5h17q28 67 57.5 160.5t58 199t55 217.5t50 217t42 196.5t30.5 156.5h236z" />
    <glyph glyph-name="X" unicode="X" horiz-adv-x="1244" 
d="M37 0q46 106 91.5 193.5t93.5 171.5q26 46 59 99t66.5 104t65 95t53.5 71q-26 35 -50.5 68.5t-51 71t-56.5 82t-66 103.5q-45 75 -84.5 158t-81.5 177l249 10q7 -19 18.5 -47t27 -62t34 -72t39.5 -77q46 -82 89 -149.5t84 -120.5h10q15 20 33 44.5t38 56t44 71.5t51 92
q23 42 39 73t29.5 60.5t26.5 60t31 70.5l249 -10q-21 -48 -42.5 -94.5t-44.5 -92.5t-49 -93t-57 -96q-66 -103 -116 -174.5t-80 -111.5q40 -51 102.5 -143t131.5 -210q28 -48 53.5 -94t49.5 -92t46 -93.5t45 -99.5l-250 -10q-13 30 -26 61t-29 66.5t-37 77.5t-50 93
q-64 116 -111.5 186.5t-75.5 106.5h-11q-21 -25 -45 -59t-49 -73.5t-50.5 -82.5t-47.5 -85q-43 -79 -77 -154t-60 -137z" />
    <glyph glyph-name="Y" unicode="Y" horiz-adv-x="1210" 
d="M225 951q-38 65 -72.5 129.5t-64 123t-53 108t-37.5 82.5l250 10q12 -29 30.5 -71t41 -89t46.5 -96t47 -91q22 -42 48 -87.5t51.5 -87.5t48.5 -76.5t39 -53.5h11q15 19 37.5 53t48 76t51 87t47.5 87q23 44 46.5 91t45 93t40.5 88t34 77l251 -10q-37 -84 -94.5 -196.5
t-129.5 -240.5q-64 -115 -133 -213.5t-140 -198.5v-545h-221v545q-62 88 -133.5 191t-135.5 215z" />
    <glyph glyph-name="Z" unicode="Z" horiz-adv-x="1127" 
d="M88 0v178q43 77 101.5 161.5t124.5 172.5t136.5 178t137 177.5t125 171.5t102.5 161v9h-697v185h949v-193q-42 -80 -98.5 -163.5t-120 -168.5t-131.5 -171t-132.5 -171t-122 -168.5t-101.5 -163.5v-10h678v-185h-951z" />
    <glyph glyph-name="bracketleft" unicode="[" horiz-adv-x="665" 
d="M159 -298v1800h454v-169h-243v-1462h243v-169h-454z" />
    <glyph glyph-name="backslash" unicode="\" horiz-adv-x="883" 
d="M637 -143l-584 1589l199 65l583 -1589z" />
    <glyph glyph-name="bracketright" unicode="]" horiz-adv-x="667" 
d="M92 -298v169h243v1462h-243v169h454v-1800h-454z" />
    <glyph glyph-name="asciicircum" unicode="^" horiz-adv-x="1099" 
d="M286 1012l-183 55l317 359h286l316 -359l-186 -57l-274 267z" />
    <glyph glyph-name="underscore" unicode="_" horiz-adv-x="1306" 
d="M145 -14h1017v-158h-1017v158z" />
    <glyph glyph-name="grave" unicode="`" horiz-adv-x="676" 
d="M448 1116l-290 268l158 103l233 -301z" />
    <glyph glyph-name="a" unicode="a" horiz-adv-x="1130" 
d="M75 502q0 132 38.5 232t107 167t163.5 101t208 34q58 0 113 -8t105 -21t94 -30t81 -34v-943h-184l-26 99q-29 -22 -60 -43t-67 -37.5t-79 -26.5t-97 -10q-87 0 -160 32.5t-125.5 97t-82 162t-29.5 228.5zM283 508q0 -91 18.5 -157.5t52 -109.5t80 -63.5t101.5 -20.5
q71 0 135 25t104 62v580q-9 4 -27 10t-43 12t-55 10t-63 4q-67 0 -123 -23t-96 -67.5t-62 -110t-22 -151.5z" />
    <glyph glyph-name="b" unicode="b" horiz-adv-x="1142" 
d="M146 1444h212v-507q22 14 54.5 31.5t72 32.5t84.5 25t92 10q96 0 169 -35.5t123 -100.5t75.5 -157.5t25.5 -207.5q0 -267 -125.5 -410t-380.5 -143q-54 0 -110 7t-109 18t-100 24.5t-83 27.5v1385zM358 185q43 -13 93.5 -20.5t100.5 -7.5q150 0 222.5 91.5t72.5 274.5
q0 70 -15 132t-45.5 107.5t-77 72t-109.5 26.5q-30 0 -66.5 -9t-71 -22t-62.5 -28t-42 -28v-589z" />
    <glyph glyph-name="c" unicode="c" horiz-adv-x="955" 
d="M90 519q0 131 34 228t94.5 161.5t144.5 96t184 31.5q82 0 165.5 -20.5t168.5 -70.5l-63 -144q-114 60 -235 60q-142 0 -213.5 -90t-71.5 -261t71.5 -262t216.5 -91q64 0 122 17t110 42l63 -143q-78 -45 -160.5 -68t-175.5 -23q-123 0 -209 40.5t-141 112t-80 170
t-25 214.5z" />
    <glyph glyph-name="d" unicode="d" horiz-adv-x="1146" 
d="M816 0l-26 99q-30 -24 -63 -45.5t-70 -37.5t-79.5 -25t-90.5 -9q-84 0 -156.5 30t-126 94t-84 162.5t-30.5 236.5q0 92 20 167.5t54.5 134.5t80.5 102t98 71.5t107.5 42t109.5 13.5q45 0 78.5 -3.5t59.5 -9.5t46 -13t38 -13v447h217v-1444h-183zM298 508q0 -92 18.5 -158
t52 -109t80.5 -63.5t103 -20.5q57 0 119.5 19t115.5 60v585q-15 8 -36 15.5t-45.5 13t-52 8.5t-54.5 3q-65 0 -120 -22t-95.5 -66t-63 -110.5t-22.5 -154.5z" />
    <glyph glyph-name="e" unicode="e" horiz-adv-x="1059" 
d="M300 412q9 -62 32 -110t62 -81t95.5 -50.5t131.5 -17.5q72 0 136.5 23t118.5 52l64 -148q-82 -47 -167 -72.5t-190 -25.5q-240 0 -366.5 136t-126.5 400q0 126 34.5 222.5t97.5 162t151 99.5t196 34q88 0 162.5 -26t129 -71t85.5 -106t31 -131q0 -58 -16.5 -110.5
t-56.5 -92.5t-107 -63.5t-167 -23.5h-330zM560 861q-58 0 -103.5 -20t-78 -55.5t-52.5 -84.5t-28 -107h298q40 0 72.5 2t55 11.5t34.5 28.5t12 52q0 46 -19.5 79t-50 54t-67.5 30.5t-73 9.5z" />
    <glyph glyph-name="f" unicode="f" horiz-adv-x="659" 
d="M73 991l96 22v106q0 59 15 118.5t50.5 107t93 77.5t142.5 30q69 0 127.5 -16.5t99.5 -37.5l-50 -148q-21 8 -54 17t-81 9q-30 0 -54.5 -9.5t-41.5 -30.5t-26 -55.5t-9 -85.5v-82h223v-163h-223v-850h-212v850h-96v141z" />
    <glyph glyph-name="g" unicode="g" horiz-adv-x="1145" 
d="M90 502q0 138 41.5 238.5t112 166t164 97.5t198.5 32q53 0 107.5 -7.5t105.5 -20.5t97 -30t83 -35v-900h-2l2 -1v-8q0 -126 -35 -211t-96 -137t-143 -74t-176 -22q-41 0 -88.5 8t-96 22.5t-94.5 33.5t-83 41l60 140q53 -29 126 -52t151 -25q57 -1 106.5 13.5t86 48.5
t57 88.5t20.5 133.5v42q-30 -22 -62.5 -40.5t-69 -32t-78.5 -21.5t-90 -8q-95 0 -170 34t-127 100t-79.5 163t-27.5 223zM298 508q0 -173 68 -262t190 -89q30 0 62 7t63 19.5t58.5 28.5t47.5 34v581q-11 5 -29.5 11t-42.5 11t-53.5 8.5t-60.5 3.5q-57 0 -111 -19.5
t-97 -61.5t-69 -109t-26 -163z" />
    <glyph glyph-name="h" unicode="h" 
d="M146 1444h212v-505q27 14 63 31t79 31.5t89.5 24.5t94.5 10q93 0 157.5 -34.5t104 -90t57.5 -124.5t18 -139v-648h-209v643q0 19 -3.5 55t-21.5 72t-55 63t-104 27q-30 0 -70 -9.5t-79 -23.5t-72 -29.5t-49 -28.5v-769h-212v1444z" />
    <glyph glyph-name="i" unicode="i" horiz-adv-x="504" 
d="M146 0v1013h212v-1013h-212zM251 1390q130 0 130 -110q0 -48 -29.5 -77.5t-98.5 -29.5q-133 0 -133 109q0 56 33.5 82t97.5 26z" />
    <glyph glyph-name="j" unicode="j" horiz-adv-x="504" 
d="M-160 -177q53 -17 97.5 -26t82.5 -7q61 2 94 48.5t33 134.5v1040h212v-1053q0 -34 -5.5 -73t-19.5 -77t-37 -73t-58.5 -61.5t-84.5 -42t-114 -15.5q-40 0 -77 6t-68.5 14.5t-56.5 18t-40 15.5zM253 1390q130 0 130 -110q0 -48 -30 -77.5t-98 -29.5q-134 0 -134 109
q0 56 34 82t98 26z" />
    <glyph glyph-name="k" unicode="k" horiz-adv-x="1100" 
d="M988 1013q-53 -136 -129.5 -244t-170.5 -190q30 -69 72.5 -143t92 -145t102 -135t103.5 -113l-150 -103q-48 34 -103.5 95.5t-108 135t-98 150t-72.5 139.5q-83 -48 -168 -78v-382h-212v1444h212v-859q77 32 138.5 76t111 99t88 118.5t70.5 134.5h222v0z" />
    <glyph glyph-name="l" unicode="l" horiz-adv-x="504" 
d="M146 0v1444h212v-1444h-212z" />
    <glyph glyph-name="m" unicode="m" horiz-adv-x="1746" 
d="M139 866q31 20 82 49t118 56t147 46t169 19q83 0 143 -27t99 -78q37 20 79 39t87.5 33.5t94.5 23.5t102 9q101 0 166 -33t102 -85.5t51 -119.5t14 -134v-664h-212v607q0 39 -1 83.5t-15 82.5t-46.5 63t-95.5 25q-35 0 -73 -9.5t-73 -24t-64.5 -31.5t-48.5 -32
q9 -53 9 -111v-653h-212v636q0 33 -3 72.5t-17.5 73.5t-45.5 56.5t-87 22.5q-38 0 -75.5 -9t-71 -22t-61.5 -28.5t-46 -27.5v-774h-215v866z" />
    <glyph glyph-name="n" unicode="n" 
d="M146 865q34 24 88 53.5t122.5 56t149 44t168.5 17.5q100 0 167.5 -31t109 -83t59.5 -120.5t18 -143.5v-658h-212v645q0 36 -7.5 74t-27 69t-54 50.5t-89.5 19.5q-38 0 -78 -9.5t-77.5 -24t-70 -31t-54.5 -29.5v-764h-212v865z" />
    <glyph glyph-name="o" unicode="o" horiz-adv-x="1157" 
d="M90 516q0 120 33 216t95.5 163.5t153.5 104t207 36.5q94 0 182.5 -28.5t156 -90.5t108.5 -161t41 -241q0 -129 -33.5 -228.5t-96.5 -167t-153.5 -102.5t-204.5 -35t-204.5 34t-153.5 101.5t-97 167.5t-34 231zM298 515q0 -98 20.5 -166t58 -110.5t89 -62t114.5 -19.5
t114.5 20t88.5 63.5t57 111.5t20 163q0 90 -21 155t-58.5 107.5t-88.5 63t-112 20.5q-63 0 -115 -21t-89 -64t-57.5 -108t-20.5 -153z" />
    <glyph glyph-name="p" unicode="p" horiz-adv-x="1145" 
d="M146 881q28 21 78 47.5t110.5 50t128 39.5t132.5 16q111 0 196 -27.5t142.5 -88.5t87.5 -159t30 -238q0 -103 -25 -200t-79 -172.5t-138 -121t-202 -45.5q-51 0 -88.5 4t-66 10t-51 13t-43.5 14v-409h-212v1267zM358 192q17 -6 36.5 -12t43 -11.5t52.5 -8.5t66 -3
q83 0 139 33.5t90 86.5t48.5 117.5t14.5 126.5q0 88 -18 151.5t-51.5 104.5t-81 60t-105.5 19q-36 0 -71 -8.5t-66 -21t-56 -26.5t-41 -25v-583z" />
    <glyph glyph-name="q" unicode="q" horiz-adv-x="1145" 
d="M90 504q0 135 40.5 235t111 166t167 98.5t208.5 32.5q51 0 103 -8t101.5 -20.5t94.5 -29.5t83 -35v-1325h-212v458q-59 -41 -125.5 -67.5t-152.5 -26.5q-99 0 -177 34t-132 100t-82 163.5t-28 224.5zM298 519q0 -178 65.5 -270t198.5 -92q27 0 57 5.5t60 15.5t57.5 23.5
t50.5 28.5v599q-36 18 -86.5 25t-109.5 7q-51 0 -103 -20t-94.5 -61.5t-69 -106t-26.5 -154.5z" />
    <glyph glyph-name="r" unicode="r" horiz-adv-x="814" 
d="M157 886q162 111 322 137.5t316 -20.5l-32 -165q-47 9 -96 12.5t-99 -2.5t-100 -24t-99 -52v-772h-212v886z" />
    <glyph glyph-name="s" unicode="s" horiz-adv-x="898" 
d="M124 233q90 -44 165.5 -61.5t145.5 -17.5q39 0 71 11.5t55 30.5t36.5 43t13.5 50q0 23 -9 42.5t-33.5 38.5t-66.5 39t-107 44q-63 22 -119 45t-97.5 56t-66 80t-24.5 117q0 71 28 124.5t77 89t116.5 53.5t146.5 18q102 0 183 -20t154 -58l-60 -149q-71 28 -127 40.5
t-110 12.5q-94 0 -147 -29.5t-53 -93.5q0 -32 19.5 -51.5t51 -33.5t71 -25t78.5 -24q83 -28 140.5 -60t93 -71t51.5 -86t16 -105q0 -65 -27.5 -120.5t-76.5 -95.5t-116.5 -62.5t-148.5 -22.5q-68 0 -126.5 9t-107 22.5t-87 30.5t-65.5 32z" />
    <glyph glyph-name="t" unicode="t" horiz-adv-x="795" 
d="M90 992l118 21l26 248h186v-248h234v-163h-234v-533q0 -36 5.5 -65.5t19 -50.5t34.5 -32.5t53 -11.5q51 0 85 12t66 25l54 -145q-28 -15 -56 -27.5t-59 -21t-66 -13.5t-77 -5q-60 0 -110 19t-85.5 57.5t-55.5 98t-20 140.5v553h-118v142z" />
    <glyph glyph-name="u" unicode="u" 
d="M132 1013h212v-601q0 -74 17 -123.5t47 -78.5t70.5 -41t87.5 -12q72 0 130.5 20.5t106.5 59.5v776h212v-1013h-184l-25 98q-23 -21 -53.5 -42t-67.5 -37.5t-80 -26.5t-91 -10q-99 0 -171.5 30t-119 84t-69 129t-22.5 165v623z" />
    <glyph glyph-name="v" unicode="v" horiz-adv-x="1063" 
d="M400 0q-137 238 -226.5 494t-134.5 519l229 10q6 -55 20 -124.5t33.5 -145.5t43.5 -154.5t50.5 -153t54.5 -140.5t56 -116h12q27 49 54 112.5t53 134.5t50 147.5t43.5 152.5t34.5 149t24 138l228 -10q-42 -263 -135.5 -520.5t-224.5 -492.5h-265z" />
    <glyph glyph-name="w" unicode="w" horiz-adv-x="1681" 
d="M1608 1013q-14 -128 -39.5 -256.5t-60 -255.5t-76.5 -252.5t-88 -248.5h-278q-74 183 -131.5 362t-92.5 368h-5q-19 -104 -44 -200t-54 -186.5t-61 -176t-65 -167.5h-276q-45 112 -88.5 244.5t-79.5 267.5t-62 264.5t-36 236.5l225 10q7 -92 23 -197.5t38.5 -213.5
t51.5 -214.5t62 -200.5h8q46 110 83.5 223t65 220t46.5 202.5t30 170.5h272q9 -82 31 -185.5t53 -213t67 -218t73 -199.5h9q19 54 39 123.5t39 145.5t35.5 155.5t29.5 153t21.5 138t10.5 110.5z" />
    <glyph glyph-name="x" unicode="x" horiz-adv-x="1003" 
d="M34 0q10 34 23 67.5t28.5 69.5t35.5 75.5t46 84.5t51 79.5t49 62t45.5 49.5t41.5 43q-50 57 -98.5 113t-83.5 118q-85 150 -114 251l231 3q14 -52 30 -93.5t41 -89.5q29 -56 64 -99t68 -77h9q18 19 34.5 38t32.5 39.5t32 44.5t33 54q26 46 43 89t28 94l231 -3
q-9 -33 -19 -61t-23 -57t-29.5 -61t-40.5 -71q-25 -42 -48 -73t-45.5 -57t-45.5 -50t-47 -51q17 -17 41 -42.5t50 -56.5t51 -65t44 -68q34 -61 55 -102t34.5 -73t23.5 -60.5t23 -64.5l-233 -3q-6 24 -13 47t-17.5 49t-24.5 55.5t-33 65.5q-14 26 -31.5 54.5t-36 55t-36.5 49
t-33 36.5h-8q-13 -14 -31 -35t-37.5 -47t-38.5 -56t-34 -60q-20 -39 -34 -69.5t-23.5 -55t-16 -46t-11.5 -43.5z" />
    <glyph glyph-name="y" unicode="y" horiz-adv-x="1072" 
d="M182 -377q30 36 63 80.5t67 94t66.5 101t59.5 101.5h-32q-74 129 -132 257t-101.5 254t-73.5 251.5t-49 250.5l227 10q13 -109 37 -222t56.5 -222t73 -210t86.5 -187h12q56 102 99 217t74.5 228t51 215.5t27.5 180.5l227 -10q-9 -81 -28.5 -170.5t-46.5 -182.5t-60 -185
t-69 -178t-74.5 -161.5t-76.5 -135.5q-23 -44 -58.5 -106.5t-75.5 -129t-81 -130.5t-74 -112z" />
    <glyph glyph-name="z" unicode="z" horiz-adv-x="992" 
d="M127 837v176h757v-152q-54 -89 -124 -173.5t-143.5 -168t-144.5 -168t-127 -172.5v-4h548v-175h-810v160q55 87 125.5 169.5t144 165t143.5 166t123 172.5v4h-492z" />
    <glyph glyph-name="braceleft" unicode="{" horiz-adv-x="735" 
d="M118 676q49 10 82.5 30.5t53 50.5t26.5 70.5t3 91.5l-15 213q-6 100 12 171t62.5 116t116 66.5t170.5 21.5h34t35 -2l-8 -162q-6 0 -18 0.5t-27 -1.5q-47 0 -79 -8.5t-51.5 -28.5t-27.5 -52.5t-8 -81.5q0 -36 2.5 -77t5 -81t4.5 -75t2 -60q1 -63 -8.5 -108t-30.5 -76.5
t-54.5 -53t-79.5 -37.5q48 -18 81.5 -39.5t55 -54.5t30.5 -80.5t8 -116.5q-2 -54 -9 -122t-7 -146q0 -47 6 -81t23.5 -56t50 -32.5t85.5 -10.5q11 -2 23 -1.5t23 0.5l8 -163q-19 -2 -37.5 -1.5t-35.5 0.5q-116 1 -188.5 27.5t-112 77t-51 125t-5.5 170.5l12 178q3 50 1 89
t-18 69.5t-50.5 53t-94.5 39.5v148z" />
    <glyph glyph-name="bar" unicode="|" horiz-adv-x="495" 
d="M145 -351v1853h206v-1853h-206z" />
    <glyph glyph-name="braceright" unicode="}" horiz-adv-x="766" 
d="M642 528q-60 -17 -94 -39.5t-50 -53t-18 -69.5t1 -89l12 -178q6 -96 -5.5 -170.5t-51 -125t-112.5 -77t-188 -27.5q-18 0 -36 -0.5t-37 1.5l7 163q12 0 24 -0.5t23 1.5q52 0 84.5 10.5t50 32.5t23.5 56t6 81q0 78 -6.5 146t-8.5 122q-2 69 7.5 116.5t31 80.5t55 54.5
t81.5 39.5q-47 16 -80 37.5t-54 53t-30.5 76.5t-8.5 108q0 25 2 60t4.5 75t4.5 81t2 77q0 49 -8 81.5t-27 52.5t-51 28.5t-79 8.5q-16 2 -28 1.5t-18 -0.5l-7 162q17 2 34 2h34q99 0 170.5 -21.5t116 -66.5t63 -116t12.5 -171l-16 -213q-7 -102 30 -162t135 -81v-148z" />
    <glyph glyph-name="asciitilde" unicode="~" horiz-adv-x="1190" 
d="M87 514q57 100 136.5 146.5t185.5 46.5q53 0 100.5 -16t91 -35t84.5 -35t82 -16q31 0 55 3t45 12t41.5 26t43.5 44l134 -76q-27 -53 -63 -88.5t-77 -57t-85.5 -31t-87.5 -9.5q-53 0 -101.5 16t-93 35t-86.5 35t-82 16q-35 0 -60.5 -5t-47 -16.5t-40.5 -29t-41 -41.5z" />
    <glyph glyph-name="exclamdown" unicode="&#xa1;" horiz-adv-x="521" 
d="M171 804h189l19 -989h-226zM270 1020q-64 0 -97.5 26t-33.5 80q0 110 134 110q68 0 98 -29.5t30 -77.5q0 -109 -131 -109z" />
    <glyph glyph-name="sterling" unicode="&#xa3;" horiz-adv-x="1142" 
d="M148 680h111q-11 42 -25.5 81t-27.5 81t-22 89.5t-9 106.5q0 75 21 142.5t66.5 119t117 82t171.5 30.5q73 0 132 -8.5t110.5 -24t99.5 -38t98 -49.5l-64 -154q-33 18 -68 34.5t-74.5 29t-86.5 19.5t-105 7q-45 0 -81.5 -15t-62.5 -43t-40.5 -68t-14.5 -89
q0 -54 9.5 -96.5t23 -81t28.5 -76t25 -79.5h281v-126h-267q0 -49 -5 -102.5t-16 -105t-29 -97.5t-44 -80q40 4 79 1.5t77.5 -7t78 -9t80.5 -4.5q82 0 150 14.5t110 32.5l60 -151q-26 -15 -63.5 -27t-80 -20.5t-87 -12.5t-84.5 -4q-45 0 -91.5 3.5t-94 7.5t-95 7.5t-93.5 3.5
q-32 0 -64.5 -3.5t-60.5 -7.5q-33 -5 -63 -11v166q30 23 51.5 64.5t36 95t22 116.5t7.5 130h-127v126z" />
    <glyph glyph-name="yen" unicode="&#xa5;" horiz-adv-x="1266" 
d="M998 238h-700v148h700v-148zM998 471h-700v148h700v-148zM260 951q-38 65 -72.5 129.5t-64 123t-53 108t-37.5 82.5l250 10q12 -29 30.5 -71t41 -89t46.5 -96t47 -91q22 -42 48 -87.5t51.5 -87.5t48.5 -76.5t39 -53.5h11q15 19 37.5 53t48 76t51 87t47.5 87
q23 44 46.5 91t45 93t40.5 88t34 77l251 -10q-37 -84 -94.5 -196.5t-129.5 -240.5q-64 -115 -133 -213.5t-140 -198.5v-545h-221v545q-62 88 -133.5 191t-135.5 215z" />
    <glyph glyph-name="brokenbar" unicode="&#xa6;" horiz-adv-x="497" 
d="M145 -328v751h208v-751h-208zM145 748v784h208v-784h-208z" />
    <glyph glyph-name="section" unicode="&#xa7;" horiz-adv-x="963" 
d="M128 212q48 -21 90 -34.5t80.5 -20.5t74.5 -9.5t71 -2.5q43 0 76 11.5t55.5 30.5t34 44.5t11.5 53.5t-11 51t-36.5 43.5t-67 40t-102.5 40.5q-62 20 -117.5 43t-97 57.5t-66 83.5t-24.5 121q0 101 56.5 173.5t152.5 107.5q-47 37 -75 88t-28 125q0 72 27.5 125.5t78 89
t120.5 53t154 17.5q91 0 169 -19.5t153 -58.5l-57 -140q-70 27 -127.5 40t-111.5 13q-44 0 -80.5 -8t-63 -24.5t-41 -40.5t-14.5 -55q0 -33 19 -54.5t50 -36.5t70.5 -27t79.5 -25q81 -27 138 -56t94 -65.5t54 -84.5t17 -113q0 -101 -56 -173t-156 -104q54 -44 80 -100
t26 -131q0 -68 -26 -123t-74 -94t-117 -60.5t-154 -21.5q-66 0 -127.5 10.5t-112.5 25t-89 30.5t-58 28zM288 776q0 -38 24.5 -63t62.5 -44q53 -19 100.5 -29.5t90.5 -10.5t76 11t55.5 30t34.5 44.5t12 53.5q0 24 -7.5 43.5t-25.5 37.5t-46.5 34.5t-69.5 33.5
q-26 7 -49.5 11t-44.5 4q-44 0 -82.5 -12.5t-67.5 -34t-46 -50t-17 -59.5z" />
    <glyph glyph-name="dieresis" unicode="&#xa8;" horiz-adv-x="884" 
d="M408 1328q111 0 111 -94q0 -42 -25.5 -67.5t-83.5 -25.5q-114 0 -114 95q0 92 112 92zM752 1328q111 0 111 -94q0 -42 -26 -67.5t-83 -25.5q-114 0 -114 95q0 92 112 92z" />
    <glyph glyph-name="copyright" unicode="&#xa9;" horiz-adv-x="1560" 
d="M76 694q0 153 54 284.5t149 227.5t225 150.5t282 54.5q157 0 289 -55.5t227 -152t148.5 -226.5t53.5 -280q0 -152 -53.5 -283t-149 -227.5t-227 -151.5t-287.5 -55q-158 0 -289 54t-224.5 149.5t-145.5 226.5t-52 284zM220 694q0 -125 42.5 -231t118 -183.5t179.5 -121
t226 -43.5q81 0 155 20.5t138 57.5t115.5 89.5t88 117t56.5 139t20 156.5q0 123 -44 229.5t-121.5 185t-182 124t-225.5 45.5q-117 0 -220 -42.5t-180 -119.5t-121.5 -184.5t-44.5 -238.5zM399 702q0 126 29.5 213t82 140t124 76.5t156.5 23.5q69 0 140.5 -18t145.5 -62
l-51 -119q-52 28 -106 40.5t-106 12.5q-63 0 -109.5 -17t-77 -54.5t-45 -97.5t-14.5 -146q0 -84 14 -144.5t44.5 -98.5t78 -56t114.5 -18q57 0 108 14.5t99 37.5l51 -118q-137 -79 -287 -79q-105 0 -179 31t-121.5 90.5t-69 147t-21.5 201.5z" />
    <glyph glyph-name="ordfeminine" unicode="&#xaa;" horiz-adv-x="924" 
d="M177 1440q26 15 56 29t65 25t76.5 17.5t91.5 6.5q66 0 125 -14t103.5 -47.5t70 -89t25.5 -138.5v-533h-146l-16 78q-13 -12 -36.5 -28t-55.5 -30.5t-72 -24.5t-86 -10q-55 0 -101.5 13t-80.5 43t-53.5 78.5t-19.5 118.5q0 62 23.5 107.5t64 76t93 47.5t111.5 22l209 18
v34q0 27 -7 52.5t-26.5 45.5t-54.5 32t-92 12q-59 0 -113 -20t-102 -40zM624 1083l-194 -18q-26 -2 -51 -8.5t-45 -20.5t-32 -37.5t-12 -60.5q0 -38 9.5 -60.5t27.5 -34.5t43 -15.5t55 -3.5t60.5 5.5t57 14.5t47.5 20.5t34 22.5v196z" />
    <glyph glyph-name="guillemotleft" unicode="&#xab;" horiz-adv-x="1169" 
d="M336 529l264 -335l-162 -106l-330 442l330 435l161 -106zM811 529l264 -335l-161 -106l-330 442l330 435l161 -106z" />
    <glyph glyph-name="logicalnot" unicode="&#xac;" horiz-adv-x="1165" 
d="M93 636v172h926v-474h-184v302h-742z" />
    <glyph glyph-name="registered" unicode="&#xae;" horiz-adv-x="1459" 
d="M89 695q0 153 54 284.5t149 227.5t225 150.5t283 54.5q157 0 288.5 -55.5t227 -152t149 -226.5t53.5 -280q0 -101 -24.5 -194t-69.5 -172.5t-109 -144t-143.5 -110.5t-173 -71t-197.5 -25q-158 0 -289 54t-225 149.5t-146 226.5t-52 284zM233 695q0 -125 42.5 -232
t118 -185t179.5 -122t226 -44t227 45t182 124t121 185.5t44 229.5q0 82 -20 157t-57 140t-89 118t-115.5 90.5t-137.5 58t-155 20.5q-117 0 -220 -42.5t-180 -119.5t-121.5 -184.5t-44.5 -238.5zM1057 241q-81 77 -142 171.5t-102 183.5q-3 -1 -9 -1h-139v-327h-157v903h291
q73 0 133.5 -18.5t103.5 -53.5t66.5 -87t23.5 -119q0 -52 -15.5 -93.5t-41.5 -73t-59 -54.5t-68 -39q19 -37 44 -78t54.5 -82.5t64.5 -81.5t74 -75zM668 714h163q32 0 60.5 12.5t49.5 34.5t33.5 53t12.5 69q0 43 -15 72.5t-38.5 48.5t-53.5 27.5t-60 8.5h-152v-326z" />
    <glyph glyph-name="degree" unicode="&#xb0;" horiz-adv-x="793" 
d="M403 1304q-38 0 -70 -8t-55 -26.5t-35.5 -48.5t-12.5 -73q0 -86 45 -123.5t130 -37.5q46 0 77.5 12.5t50.5 33.5t27 49.5t8 61.5q0 88 -44.5 124t-120.5 36zM404 1412q69 0 123 -15.5t91.5 -48t57.5 -83t20 -121.5q0 -56 -15.5 -104t-50 -83t-89.5 -55.5t-134 -20.5
q-149 0 -227 64t-78 204q0 71 21 121t60.5 81.5t95.5 46t125 14.5z" />
    <glyph glyph-name="plusminus" unicode="&#xb1;" horiz-adv-x="968" 
d="M398 605h-272v178h272v268h191v-268h273v-178h-273v-275h-191v275zM126 4v174h736v-174h-736z" />
    <glyph glyph-name="acute" unicode="&#xb4;" horiz-adv-x="676" 
d="M158 1186l233 301l158 -103l-290 -268z" />
    <glyph glyph-name="paragraph" unicode="&#xb6;" horiz-adv-x="1344" 
d="M559 -268v859h-76q-109 0 -187.5 29t-129 82t-74.5 126.5t-24 163.5q0 77 21 149.5t69 128.5t125 90t190 34h309v-1662h-223zM952 -268v1662h221v-1662h-221z" />
    <glyph glyph-name="cedilla" unicode="&#xb8;" horiz-adv-x="670" 
d="M82 -302q33 -9 60 -12t56 -3q45 0 71 18t26 54q0 44 -29.5 59t-86.5 15q-17 0 -38 -1t-41 -3l64 165h157l-35 -83q35 -3 64 -14t50 -31t32.5 -49t11.5 -69q0 -91 -57.5 -135t-161.5 -44q-52 0 -94 8t-80 22z" />
    <glyph glyph-name="guillemotright" unicode="&#xbb;" horiz-adv-x="1200" 
d="M584 859l161 106l330 -435l-330 -442l-161 106l264 335zM108 859l161 106l331 -435l-331 -442l-161 106l264 335z" />
    <glyph glyph-name="questiondown" unicode="&#xbf;" horiz-adv-x="891" 
d="M837 -96q-31 -19 -71.5 -36t-84.5 -30t-90 -21t-88 -8q-118 0 -196.5 26t-126.5 70.5t-68.5 103.5t-21.5 124q-1 75 14.5 129.5t43.5 96.5t65.5 76t80.5 68q46 37 77 74.5t50 83.5t26 105t5 140h180q6 -69 7 -135.5t-13 -129t-49 -120t-101 -109.5q-38 -31 -69.5 -56.5
t-53.5 -53t-34 -60t-12 -76.5q0 -86 58 -129t167 -43q60 0 123 16.5t137 46.5zM543 1052q-111 0 -111 95q0 42 25.5 67.5t83.5 25.5q114 0 114 -95q0 -48 -29 -70.5t-83 -22.5z" />
    <glyph glyph-name="AE" unicode="&#xc6;" horiz-adv-x="1864" 
d="M914 0v360h-526q-25 -65 -46 -122t-37.5 -103.5t-28 -81t-15.5 -53.5h-237q13 53 37.5 129.5t59 172.5t80 210.5t101.5 244.5q45 105 92 200.5t91.5 177.5t84.5 147.5t70 111.5h1117l-1 -185h-627v-412h536v-176h-536v-436h646v-185h-861zM457 534h457v674l-131 -1
q-16 -30 -46 -85.5t-68.5 -129.5t-83 -165.5t-88.5 -193.5z" />
    <glyph glyph-name="Eth" unicode="&#xd0;" horiz-adv-x="1345" 
d="M536 619h-551v148h551v-148zM172 0v1394h449q83 0 164 -15t153.5 -48t134.5 -85.5t106.5 -127.5t70 -173.5t25.5 -224.5q0 -195 -50 -332t-137 -223t-203.5 -125.5t-248.5 -39.5h-464zM394 185h238q91 0 169 32t135 97.5t89.5 164t32.5 231.5q0 129 -32 223t-89 155.5
t-136 91t-173 29.5h-234v-1024z" />
    <glyph glyph-name="multiply" unicode="&#xd7;" horiz-adv-x="961" 
d="M359 591l-194 190l135 130l192 -189l193 189l135 -131l-194 -189l195 -190l-135 -130l-194 189l-193 -189l-134 130z" />
    <glyph glyph-name="Thorn" unicode="&#xde;" horiz-adv-x="1222" 
d="M389 1394v-219h253q120 0 214.5 -28t159 -83.5t98.5 -139t34 -195.5q0 -126 -40 -216t-109.5 -147.5t-164 -85t-203.5 -27.5h-242v-253h-223v1394h223zM389 427h240q63 0 118.5 15t96 49t64 88.5t23.5 132.5q0 88 -27 143.5t-72 86.5t-104 42.5t-123 11.5h-216v-569z" />
    <glyph glyph-name="germandbls" unicode="&#xdf;" horiz-adv-x="1267" 
d="M142 0v1269q69 76 176 120t249 44q97 0 170 -26.5t121.5 -69.5t73 -96.5t24.5 -107.5q0 -51 -7 -87.5t-23 -65.5t-40.5 -54.5t-58.5 -54.5q-43 -35 -71 -64.5t-28 -66.5q0 -19 11 -34.5t33 -31.5t55 -34t78 -42q48 -26 89.5 -53t73 -62.5t49.5 -81t18 -108.5
q0 -70 -25 -127t-72 -98t-115.5 -63.5t-156.5 -22.5q-95 0 -184.5 23t-168.5 58l57 146q30 -12 60.5 -23.5t64.5 -20.5t72.5 -14.5t82.5 -5.5q34 0 65.5 10t56.5 29t40 46t15 62t-11.5 58.5t-34 42.5t-56 36.5t-78.5 40.5q-54 26 -97 51t-73 54t-45.5 64.5t-15.5 81.5
q0 39 8 68.5t24.5 55.5t43 51t62.5 54q21 17 39 32t31 32t20.5 37.5t7.5 47.5q0 34 -15 61.5t-41.5 46.5t-63 29.5t-78.5 10.5q-60 0 -106.5 -15t-93.5 -51v-1181h-212z" />
    <glyph glyph-name="ae" unicode="&#xe6;" horiz-adv-x="1768" 
d="M84 502q0 132 38.5 232t107 167t163.5 101t208 34q55 0 107 -7t99.5 -19t90 -27.5t78.5 -31.5q118 85 291 85q88 0 162.5 -26t129 -71t85.5 -106t31 -131q0 -58 -16.5 -110.5t-56.5 -92.5t-107 -63.5t-167 -23.5h-329q19 -124 94.5 -191.5t225.5 -67.5q72 0 137 23
t119 52l64 -148q-82 -47 -167 -72.5t-191 -25.5q-173 0 -288 71v-53h-183l-26 99q-29 -22 -60 -43t-67 -37.5t-79.5 -26.5t-97.5 -10q-87 0 -159.5 32.5t-125 97t-82 162t-29.5 228.5zM291 508q0 -91 19 -157.5t52.5 -109.5t80 -63.5t101.5 -20.5q71 0 135 25t104 62v580
q-9 4 -27 10t-43 12t-55 10t-63 4q-68 0 -123.5 -23t-96 -67.5t-62.5 -110t-22 -151.5zM1259 861q-58 0 -103.5 -21.5t-78.5 -59t-53 -88t-28 -108.5h298q40 0 72.5 3.5t55 15t34.5 32t12 53.5q0 46 -19.5 79t-50 54t-67.5 30.5t-72 9.5z" />
    <glyph glyph-name="eth" unicode="&#xf0;" horiz-adv-x="1119" 
d="M407 1151l105 109q-44 22 -89 40t-93 33l56 147q68 -18 129.5 -41.5t117.5 -52.5l116 120l128 -105l-104 -108q124 -103 193 -259.5t69 -381.5q0 -164 -26.5 -289t-84.5 -209.5t-151 -128t-226 -43.5q-114 0 -201.5 34.5t-147.5 97.5t-91 150.5t-31 193.5q0 111 35 199.5
t94 150t137.5 94t165.5 32.5q94 0 173.5 -20.5t142.5 -54.5q-16 101 -61 176.5t-111 132.5l-122 -126zM283 453q0 -67 18 -123t52.5 -96t84 -63t112.5 -24q93 -1 149.5 36.5t85.5 109t37.5 173.5t5.5 229q-39 20 -72 34.5t-65 23.5t-64.5 13.5t-69.5 4.5q-61 0 -111.5 -23.5
t-86.5 -66t-56 -101t-20 -127.5z" />
    <glyph glyph-name="divide" unicode="&#xf7;" horiz-adv-x="961" 
d="M126 490v175h736v-175h-736zM496 367q111 0 111 -94q0 -42 -25.5 -67.5t-83.5 -25.5q-114 0 -114 95q0 48 29 70t83 22zM496 965q111 0 111 -95q0 -42 -25.5 -67t-83.5 -25q-114 0 -114 94q0 48 29 70.5t83 22.5z" />
    <glyph glyph-name="thorn" unicode="&#xfe;" horiz-adv-x="1128" 
d="M358 1418v-415q51 14 104 23.5t104 9.5q108 0 197.5 -29t154.5 -91.5t101 -161.5t36 -239q0 -103 -24.5 -199t-78.5 -170.5t-140.5 -119t-210.5 -44.5q-47 0 -84.5 5t-67 12.5t-52 16.5t-39.5 17v-121l-212 3v1503h212zM358 222q23 -14 47 -25.5t50 -20.5t56.5 -14
t67.5 -5q76 0 127.5 33.5t83 86.5t45 117.5t13.5 126.5q0 88 -21.5 152.5t-59.5 106t-90.5 61.5t-113.5 20q-54 0 -107 -17t-98 -37v-585zM358 -88v-358h-212v361z" />
    <glyph glyph-name="OE" unicode="&#x152;" horiz-adv-x="1816" 
d="M925 0q-44 -9 -90.5 -14t-95.5 -4q-142 0 -262 40t-207 125.5t-136 220.5t-48 327q1 190 49.5 326t135 222.5t206 127t262.5 41.5q94 0 177 -18h774l-2 -185h-627v-412h536v-176h-536v-436h646v-185h-782zM739 166q57 0 107 12v1032q-23 8 -50.5 12.5t-56.5 4.5
q-111 0 -192 -38t-135 -107.5t-81 -168t-28 -218.5q0 -114 25.5 -211t78.5 -167.5t135.5 -110.5t196.5 -40z" />
    <glyph glyph-name="oe" unicode="&#x153;" horiz-adv-x="1839" 
d="M100 516q0 120 33 216t95.5 163.5t153.5 104t207 36.5q94 0 182.5 -28.5t156 -90.5t108.5 -161t41 -241q0 -129 -33.5 -228.5t-96.5 -167t-153.5 -102.5t-204.5 -35t-204.5 34t-153.5 101.5t-97 167.5t-34 231zM308 515q0 -98 20.5 -166t58 -110.5t89 -62t114.5 -19.5
t114.5 20t88.5 63.5t57 111.5t20 163q0 90 -21 155t-58.5 107.5t-88.5 63t-112 20.5q-63 0 -115 -21t-89 -64t-57.5 -108t-20.5 -153zM1084 412q9 -62 32 -110t62 -81t95.5 -50.5t131.5 -17.5q72 0 136.5 23t118.5 52l64 -148q-82 -47 -167 -72.5t-190 -25.5
q-240 0 -366.5 136t-126.5 400q0 126 34.5 222.5t97.5 162t151 99.5t196 34q88 0 162.5 -26t129 -71t85.5 -106t31 -131q0 -58 -16.5 -110.5t-56.5 -92.5t-107 -63.5t-167 -23.5h-330zM1344 861q-58 0 -103.5 -20t-78 -55.5t-52.5 -84.5t-28 -107h298q40 0 72.5 2t55 11.5
t34.5 28.5t12 52q0 46 -19.5 79t-50 54t-67.5 30.5t-73 9.5z" />
    <glyph glyph-name="circumflex" unicode="&#x2c6;" horiz-adv-x="883" 
d="M232 1123l-129 39l212 264h237l212 -264l-132 -41l-199 189z" />
    <glyph glyph-name="tilde" unicode="&#x2dc;" horiz-adv-x="933" 
d="M153 1220q41 75 100.5 115t138.5 40q39 0 73.5 -11.5t67 -26t62.5 -26t60 -11.5q22 0 37.5 2.5t28.5 10t25 20t29 32.5l115 -71q-20 -39 -46.5 -68t-57 -48t-63 -28.5t-64.5 -9.5q-39 0 -74.5 11.5t-68.5 25.5t-63.5 25.5t-60.5 11.5q-26 0 -42.5 -3.5t-29.5 -11
t-24.5 -19.5t-27.5 -30z" />
    <glyph glyph-name="endash" unicode="&#x2013;" horiz-adv-x="1232" 
d="M68 469v184h1076v-184h-1076z" />
    <glyph glyph-name="emdash" unicode="&#x2014;" horiz-adv-x="2227" 
d="M63 469v184h2093v-184h-2093z" />
    <glyph glyph-name="quoteleft" unicode="&#x2018;" horiz-adv-x="471" 
d="M222 950q-131 0 -131 109q-1 64 11 120t32.5 104t48 89t57.5 75l99 -45q-33 -65 -56.5 -127.5t-25.5 -110.5q51 -7 73.5 -34t22.5 -74q0 -106 -131 -106z" />
    <glyph glyph-name="quoteright" unicode="&#x2019;" horiz-adv-x="471" 
d="M236 1405q131 0 131 -109v-5q0 -63 -12 -118t-32.5 -103t-47.5 -88.5t-57 -74.5l-99 46q33 65 56.5 127.5t24.5 110.5q-51 7 -73 34t-22 74q0 54 33.5 80t97.5 26z" />
    <glyph glyph-name="quotesinglbase" unicode="&#x201a;" horiz-adv-x="473" 
d="M238 211q131 0 131 -109v-5q0 -63 -12 -118t-32.5 -103t-47.5 -88.5t-57 -74.5l-99 46q33 65 56.5 127.5t24.5 110.5q-51 7 -73 34t-22 74q0 54 33.5 80t97.5 26z" />
    <glyph glyph-name="quotedblleft" unicode="&#x201c;" horiz-adv-x="752" 
d="M532 923q-131 0 -131 109q-1 64 11 120t32.5 104t48 89t57.5 75l99 -45q-33 -65 -56.5 -127.5t-25.5 -110.5q51 -7 73.5 -34t22.5 -74q0 -106 -131 -106zM201 923q-131 0 -131 109q-1 64 11 120t32.5 104t48 89t57.5 75l99 -45q-33 -65 -56.5 -127.5t-25.5 -110.5
q51 -7 73.5 -34t22.5 -74q0 -106 -131 -106z" />
    <glyph glyph-name="quotedblright" unicode="&#x201d;" horiz-adv-x="759" 
d="M204 1424q131 0 131 -109v-5q0 -63 -12 -118t-32.5 -103t-47.5 -88.5t-57 -74.5l-99 46q33 65 56.5 127.5t24.5 110.5q-51 7 -73 34t-22 74q0 54 33.5 80t97.5 26zM550 1424q131 0 131 -109v-5q0 -63 -12 -118t-32.5 -103t-47.5 -88.5t-57 -74.5l-99 46q33 65 56.5 127.5
t24.5 110.5q-51 7 -73 34t-22 74q0 54 33.5 80t97.5 26z" />
    <glyph glyph-name="quotedblbase" unicode="&#x201e;" horiz-adv-x="779" 
d="M215 211q131 0 131 -109v-5q0 -63 -12 -118t-32.5 -103t-47.5 -88.5t-57 -74.5l-99 46q33 65 56.5 127.5t24.5 110.5q-51 7 -73 34t-22 74q0 54 33.5 80t97.5 26zM563 211q131 0 131 -109v-5q0 -63 -12 -118t-32.5 -103t-47.5 -88.5t-57 -74.5l-99 46q33 65 56.5 127.5
t24.5 110.5q-51 7 -73 34t-22 74q0 54 33.5 80t97.5 26z" />
    <glyph glyph-name="bullet" unicode="&#x2022;" horiz-adv-x="473" 
d="M239 712q131 0 131 -109q0 -48 -30 -78t-98 -30q-72 0 -103 28t-31 82q0 107 131 107z" />
    <glyph glyph-name="ellipsis" unicode="&#x2026;" horiz-adv-x="1254" 
d="M242 169q111 0 111 -94q0 -42 -25.5 -67.5t-83.5 -25.5q-114 0 -114 95q0 92 112 92zM619 169q111 0 111 -94q0 -42 -25.5 -67.5t-83.5 -25.5q-114 0 -114 95q0 48 29 70t83 22zM1007 169q111 0 111 -94q0 -42 -25 -67.5t-84 -25.5q-114 0 -114 95q0 48 29 70t83 22z" />
    <glyph glyph-name="guilsinglleft" unicode="&#x2039;" horiz-adv-x="666" 
d="M313 529l264 -335l-162 -106l-330 442l330 435l161 -106z" />
    <glyph glyph-name="guilsinglright" unicode="&#x203a;" horiz-adv-x="666" 
d="M91 859l161 106l330 -435l-330 -442l-162 106l265 335z" />
    <glyph glyph-name="Euro" unicode="&#x20ac;" horiz-adv-x="1368" 
d="M946 590v-122h-885v122h885zM61 786v123h885v-123h-885zM476 691q0 -266 107 -395.5t316 -129.5q89 0 171.5 26.5t173.5 74.5l73 -152q-101 -62 -218 -97.5t-229 -35.5q-139 0 -252 39t-192.5 123t-123 215.5t-43.5 317.5q0 196 43.5 335.5t123 228t192.5 130t252 41.5
q59 0 118.5 -9.5t116.5 -27.5t110.5 -43t101.5 -55l-71 -152q-88 49 -173.5 75.5t-173.5 26.5q-423 0 -423 -536z" />
    <glyph glyph-name="trademark" unicode="&#x2122;" horiz-adv-x="1507" 
d="M84 1291v118h502v-118h-179v-544h-132v544h-191zM645 746l26 663h174l152 -473l159 473h172l26 -663h-134l-13 484l-147 -453h-126l-145 450l-15 -481h-129z" />
    <glyph glyph-name="dagger" unicode="&#x2020;" horiz-adv-x="796" 
d="M33 1012h263v490h207v-490h263v-199h-263v-1164h-207v1164h-263v199z" />
    <glyph glyph-name="daggerdbl" unicode="&#x2021;" horiz-adv-x="796" 
d="M33 1012h263v490h207v-490h263v-199h-263v-197h263v-199h-263v-768h-207v768h-263v199h263v197h-263v199z" />
    <glyph glyph-name="perthousand" unicode="&#x2030;" horiz-adv-x="2314" 
d="M1026 383q0 109 25 186.5t68.5 126.5t101.5 72t124 23q87 0 158.5 -39.5t113.5 -127.5q42 87 114 127t158 40q66 0 124 -23t101.5 -72t69 -126.5t25.5 -186.5q0 -110 -25.5 -187t-69 -126t-101.5 -71.5t-124 -22.5q-86 0 -158 39t-114 126q-42 -87 -114 -126t-158 -39
q-66 0 -124 22.5t-101.5 71.5t-68.5 126t-25 187zM100 1003q0 109 25 186.5t68.5 126.5t101 72t123.5 23t124 -23t101.5 -72t69 -126.5t25.5 -186.5q0 -110 -25.5 -187t-69 -125.5t-101.5 -71t-124 -22.5t-123.5 22.5t-101 71t-68.5 125.5t-25 187zM509 0l511 1394h215
l-511 -1394h-215zM1735 383q0 -72 9 -121.5t28 -80t48 -44t69 -13.5t69 13.5t48 44t28.5 80t9.5 121.5t-9.5 121.5t-28.5 80.5t-48 44.5t-69 13.5t-69 -13.5t-48 -44.5t-28 -80.5t-9 -121.5zM1191 383q0 -72 9 -121.5t28 -80t48 -44t69 -13.5t69 13.5t48 44t28.5 80
t9.5 121.5t-9.5 121.5t-28.5 80.5t-48 44.5t-69 13.5t-69 -13.5t-48 -44.5t-28 -80.5t-9 -121.5zM265 1004q0 -72 9 -122t28 -80.5t48 -44t68 -13.5q40 0 69.5 13.5t48.5 44t28 80.5t9 122t-9 121t-28 80t-48.5 44.5t-69.5 13.5t-69 -13.5t-47.5 -44.5t-27.5 -80t-9 -121z
" />
    <glyph glyph-name="hungarumlaut" unicode="&#x2dd;" horiz-adv-x="676" 
d="M104 1139l234 301l151 -95l-293 -269zM468 1139l234 301l152 -95l-293 -269z" />
    <glyph glyph-name=".Dot" horiz-adv-x="133" 
d="M17 694q0 22 8.5 41.5t23.5 34t34.5 23t42.5 8.5t43.5 -8.5t35.5 -23t24 -34t9 -41.5t-9 -41t-24 -33.5t-35.5 -23t-43.5 -8.5t-42.5 8.5t-34.5 23t-23.5 33.5t-8.5 41zM310 687q0 22 8.5 41.5t23.5 34t34.5 23t42.5 8.5t42.5 -8.5t34 -23t23 -34t8.5 -41.5t-8.5 -37
t-23 -24t-34 -13t-42.5 -4t-42.5 4t-34.5 13t-23.5 24t-8.5 37z" />
    <glyph glyph-name=".dot" horiz-adv-x="14" 
d="M103 522q0 21 8 40t22.5 33t33.5 22t40 8q22 0 41.5 -8t34.5 -22t23.5 -33t8.5 -40t-8.5 -39t-23.5 -32t-34.5 -22t-41.5 -8q-21 0 -40 8t-33.5 22t-22.5 32t-8 39zM396 514q0 22 8.5 41.5t23.5 34t34.5 23t42.5 8.5q46 0 72 -31t26 -76q0 -22 -6.5 -35.5t-19.5 -21
t-31 -10t-41 -2.5t-42.5 2.5t-34.5 10t-23.5 21t-8.5 35.5z" />
    <glyph glyph-name="breve" unicode="&#x2d8;" horiz-adv-x="1792" 
d="M607 1127q-89 0 -144 24.5t-87 61t-47.5 79t-25.5 77.5l135 31q6 -23 15 -48.5t27 -46.5t48 -35t80 -14t80 14t47.5 35t26 46.5t15.5 48.5l135 -31q-11 -36 -26.5 -78.5t-47.5 -78.5t-87 -60.5t-144 -24.5z" />
    <glyph glyph-name="caron" unicode="&#x2c7;" horiz-adv-x="883" 
d="M433 1250l172 176l160 -40l-213 -251h-238l-212 253l161 37z" />
    <glyph glyph-name="dotaccent" unicode="&#x2d9;" horiz-adv-x="884" 
d="M408 1328q111 0 111 -94q0 -42 -25.5 -67.5t-83.5 -25.5q-114 0 -114 95q0 92 112 92z" />
    <glyph glyph-name="ogonek" unicode="&#x2db;" horiz-adv-x="670" 
d="M446 -391q-38 -14 -80 -22t-94 -8t-94 13t-72 38t-46.5 60.5t-16.5 80.5q0 38 16.5 70t41 59t54 49.5t56.5 40.5h132q-34 -30 -61 -53t-46.5 -44.5t-30 -44t-10.5 -51.5q0 -48 29.5 -74t74.5 -26q29 0 56 3t60 11z" />
    <glyph glyph-name="ring" unicode="&#x2da;" horiz-adv-x="884" 
d="M588 1316q-29 0 -46.5 -13t-17.5 -42q0 -30 16.5 -43.5t48.5 -13.5q34 0 47 15.5t13 39.5q0 31 -16 44t-45 13zM589 1407q81 0 124 -35.5t43 -112.5q0 -32 -9 -58.5t-29 -46t-51.5 -30.5t-75.5 -11q-85 0 -129 36.5t-44 112.5q0 77 45 111t126 34z" />
    <glyph glyph-name="aacute" unicode="&#xe1;" horiz-adv-x="1130" 
d="M75 502q0 132 38.5 232t107 167t163.5 101t208 34q58 0 113 -8t105 -21t94 -30t81 -34v-943h-184l-26 99q-29 -22 -60 -43t-67 -37.5t-79 -26.5t-97 -10q-87 0 -160 32.5t-125.5 97t-82 162t-29.5 228.5zM283 508q0 -91 18.5 -157.5t52 -109.5t80 -63.5t101.5 -20.5
q71 0 135 25t104 62v580q-9 4 -27 10t-43 12t-55 10t-63 4q-67 0 -123 -23t-96 -67.5t-62 -110t-22 -151.5zM559 1220l233 301l158 -103l-290 -268z" />
    <glyph glyph-name="Aacute" unicode="&#xc1;" horiz-adv-x="1346" 
d="M1080 -10q-20 78 -44.5 170.5t-53.5 196.5h-617q-30 -108 -55 -201.5t-43 -165.5l-228 10q16 69 39.5 154.5t52 181.5t61 198t66.5 203.5t69.5 199t69 183t65 156t58.5 118.5h307q39 -71 84.5 -179t93 -236t94.5 -266t87.5 -269.5t72 -246.5t49.5 -197zM657 1209
q-32 -70 -63 -150.5t-61 -167t-59 -176.5t-56 -178h511q-51 168 -111 340.5t-128 331.5h-33zM615 1584l233 301l158 -103l-290 -268z" />
    <glyph glyph-name="Abreve" unicode="&#x102;" horiz-adv-x="1346" 
d="M1080 -10q-20 78 -44.5 170.5t-53.5 196.5h-617q-30 -108 -55 -201.5t-43 -165.5l-228 10q16 69 39.5 154.5t52 181.5t61 198t66.5 203.5t69.5 199t69 183t65 156t58.5 118.5h307q39 -71 84.5 -179t93 -236t94.5 -266t87.5 -269.5t72 -246.5t49.5 -197zM657 1209
q-32 -70 -63 -150.5t-61 -167t-59 -176.5t-56 -178h511q-51 168 -111 340.5t-128 331.5h-33zM692 1578q-89 0 -144 24.5t-87 61t-47.5 79t-25.5 77.5l135 31q6 -23 15 -48.5t27 -46.5t48 -35t80 -14t80 14t47.5 35t26 46.5t15.5 48.5l135 -31q-11 -36 -26.5 -78.5
t-47.5 -78.5t-87 -60.5t-144 -24.5z" />
    <glyph glyph-name="Acircumflex" unicode="&#xc2;" horiz-adv-x="1346" 
d="M1080 -10q-20 78 -44.5 170.5t-53.5 196.5h-617q-30 -108 -55 -201.5t-43 -165.5l-228 10q16 69 39.5 154.5t52 181.5t61 198t66.5 203.5t69.5 199t69 183t65 156t58.5 118.5h307q39 -71 84.5 -179t93 -236t94.5 -266t87.5 -269.5t72 -246.5t49.5 -197zM657 1209
q-32 -70 -63 -150.5t-61 -167t-59 -176.5t-56 -178h511q-51 168 -111 340.5t-128 331.5h-33zM470 1517l-129 39l212 264h237l212 -264l-132 -41l-199 189z" />
    <glyph glyph-name="Agrave" unicode="&#xc0;" horiz-adv-x="1346" 
d="M1080 -10q-20 78 -44.5 170.5t-53.5 196.5h-617q-30 -108 -55 -201.5t-43 -165.5l-228 10q16 69 39.5 154.5t52 181.5t61 198t66.5 203.5t69.5 199t69 183t65 156t58.5 118.5h307q39 -71 84.5 -179t93 -236t94.5 -266t87.5 -269.5t72 -246.5t49.5 -197zM657 1209
q-32 -70 -63 -150.5t-61 -167t-59 -176.5t-56 -178h511q-51 168 -111 340.5t-128 331.5h-33zM659 1518l-290 268l158 103l233 -301z" />
    <glyph glyph-name="Adieresis" unicode="&#xc4;" horiz-adv-x="1346" 
d="M1080 -10q-20 78 -44.5 170.5t-53.5 196.5h-617q-30 -108 -55 -201.5t-43 -165.5l-228 10q16 69 39.5 154.5t52 181.5t61 198t66.5 203.5t69.5 199t69 183t65 156t58.5 118.5h307q39 -71 84.5 -179t93 -236t94.5 -266t87.5 -269.5t72 -246.5t49.5 -197zM657 1209
q-32 -70 -63 -150.5t-61 -167t-59 -176.5t-56 -178h511q-51 168 -111 340.5t-128 331.5h-33zM506 1751q111 0 111 -94q0 -42 -25.5 -67.5t-83.5 -25.5q-114 0 -114 95q0 92 112 92zM850 1751q111 0 111 -94q0 -42 -26 -67.5t-83 -25.5q-114 0 -114 95q0 92 112 92z" />
    <glyph glyph-name="Amacron" unicode="&#x100;" horiz-adv-x="1346" 
d="M1080 -10q-20 78 -44.5 170.5t-53.5 196.5h-617q-30 -108 -55 -201.5t-43 -165.5l-228 10q16 69 39.5 154.5t52 181.5t61 198t66.5 203.5t69.5 199t69 183t65 156t58.5 118.5h307q39 -71 84.5 -179t93 -236t94.5 -266t87.5 -269.5t72 -246.5t49.5 -197zM657 1209
q-32 -70 -63 -150.5t-61 -167t-59 -176.5t-56 -178h511q-51 168 -111 340.5t-128 331.5h-33zM977 1551h-619v148h619v-148z" />
    <glyph glyph-name="Aogonek" unicode="&#x104;" horiz-adv-x="1346" 
d="M1080 -10q-20 78 -44.5 170.5t-53.5 196.5h-617q-30 -108 -55 -201.5t-43 -165.5l-228 10q16 69 39.5 154.5t52 181.5t61 198t66.5 203.5t69.5 199t69 183t65 156t58.5 118.5h307q39 -71 84.5 -179t93 -236t94.5 -266t87.5 -269.5t72 -246.5t49.5 -197zM657 1209
q-32 -70 -63 -150.5t-61 -167t-59 -176.5t-56 -178h511q-51 168 -111 340.5t-128 331.5h-33zM1423 -381q-38 -14 -80 -22t-94 -8t-94 13t-72 38t-46.5 60.5t-16.5 80.5q0 38 16.5 70t41 59t54 49.5t56.5 40.5h132q-34 -30 -61 -53t-46.5 -44.5t-30 -44t-10.5 -51.5
q0 -48 29.5 -74t74.5 -26q29 0 56 3t60 11z" />
    <glyph glyph-name="Aring" unicode="&#xc5;" horiz-adv-x="1346" 
d="M1080 -10q-20 78 -44.5 170.5t-53.5 196.5h-617q-30 -108 -55 -201.5t-43 -165.5l-228 10q16 69 39.5 154.5t52 181.5t61 198t66.5 203.5t69.5 199t69 183t65 156t58.5 118.5h307q39 -71 84.5 -179t93 -236t94.5 -266t87.5 -269.5t72 -246.5t49.5 -197zM657 1209
q-32 -70 -63 -150.5t-61 -167t-59 -176.5t-56 -178h511q-51 168 -111 340.5t-128 331.5h-33zM682 1722q-29 0 -46.5 -13t-17.5 -42q0 -30 16.5 -43.5t48.5 -13.5q34 0 47 15.5t13 39.5q0 31 -16 44t-45 13zM683 1813q81 0 124 -35.5t43 -112.5q0 -32 -9 -58.5t-29 -46
t-51.5 -30.5t-75.5 -11q-85 0 -129 36.5t-44 112.5q0 77 45 111t126 34z" />
    <glyph glyph-name="Atilde" unicode="&#xc3;" horiz-adv-x="1346" 
d="M1080 -10q-20 78 -44.5 170.5t-53.5 196.5h-617q-30 -108 -55 -201.5t-43 -165.5l-228 10q16 69 39.5 154.5t52 181.5t61 198t66.5 203.5t69.5 199t69 183t65 156t58.5 118.5h307q39 -71 84.5 -179t93 -236t94.5 -266t87.5 -269.5t72 -246.5t49.5 -197zM657 1209
q-32 -70 -63 -150.5t-61 -167t-59 -176.5t-56 -178h511q-51 168 -111 340.5t-128 331.5h-33zM294 1638q41 75 100.5 115t138.5 40q39 0 73.5 -11.5t67 -26t62.5 -26t60 -11.5q22 0 37.5 2.5t28.5 10t25 20t29 32.5l115 -71q-20 -39 -46.5 -68t-57 -48t-63 -28.5t-64.5 -9.5
q-39 0 -74.5 11.5t-68.5 25.5t-63.5 25.5t-60.5 11.5q-26 0 -42.5 -3.5t-29.5 -11t-24.5 -19.5t-27.5 -30z" />
    <glyph glyph-name="Cacute" unicode="&#x106;" horiz-adv-x="1217" 
d="M292 691q0 -266 107 -395.5t316 -129.5q89 0 171.5 26.5t173.5 74.5l73 -152q-101 -62 -218 -97.5t-229 -35.5q-139 0 -252 39t-192.5 123t-123 215.5t-43.5 317.5q0 196 43.5 335.5t123 228t192.5 130t252 41.5q59 0 118.5 -9.5t116.5 -27.5t110.5 -43t101.5 -55
l-71 -152q-88 49 -173.5 75.5t-173.5 26.5q-423 0 -423 -536zM653 1576l233 301l158 -103l-290 -268z" />
    <glyph glyph-name="Ccaron" unicode="&#x10c;" horiz-adv-x="1217" 
d="M292 691q0 -266 107 -395.5t316 -129.5q89 0 171.5 26.5t173.5 74.5l73 -152q-101 -62 -218 -97.5t-229 -35.5q-139 0 -252 39t-192.5 123t-123 215.5t-43.5 317.5q0 196 43.5 335.5t123 228t192.5 130t252 41.5q59 0 118.5 -9.5t116.5 -27.5t110.5 -43t101.5 -55
l-71 -152q-88 49 -173.5 75.5t-173.5 26.5q-423 0 -423 -536zM686 1643l172 176l160 -40l-213 -251h-238l-212 253l161 37z" />
    <glyph glyph-name="Ccedilla" unicode="&#xc7;" horiz-adv-x="1217" 
d="M292 691q0 -266 107 -395.5t316 -129.5q89 0 171.5 26.5t173.5 74.5l73 -152q-101 -62 -218 -97.5t-229 -35.5q-139 0 -252 39t-192.5 123t-123 215.5t-43.5 317.5q0 196 43.5 335.5t123 228t192.5 130t252 41.5q59 0 118.5 -9.5t116.5 -27.5t110.5 -43t101.5 -55
l-71 -152q-88 49 -173.5 75.5t-173.5 26.5q-423 0 -423 -536zM518 -291q33 -9 60 -12t56 -3q45 0 71 18t26 54q0 44 -29.5 59t-86.5 15q-17 0 -38 -1t-41 -3l64 165h157l-35 -83q35 -3 64 -14t50 -31t32.5 -49t11.5 -69q0 -91 -57.5 -135t-161.5 -44q-52 0 -94 8t-80 22z
" />
    <glyph glyph-name="Ccircumflex" unicode="&#x108;" horiz-adv-x="1217" 
d="M292 691q0 -266 107 -395.5t316 -129.5q89 0 171.5 26.5t173.5 74.5l73 -152q-101 -62 -218 -97.5t-229 -35.5q-139 0 -252 39t-192.5 123t-123 215.5t-43.5 317.5q0 196 43.5 335.5t123 228t192.5 130t252 41.5q59 0 118.5 -9.5t116.5 -27.5t110.5 -43t101.5 -55
l-71 -152q-88 49 -173.5 75.5t-173.5 26.5q-423 0 -423 -536zM481 1500l-129 39l212 264h237l212 -264l-132 -41l-199 189z" />
    <glyph glyph-name="Cdotaccent" unicode="&#x10a;" horiz-adv-x="1217" 
d="M292 691q0 -266 107 -395.5t316 -129.5q89 0 171.5 26.5t173.5 74.5l73 -152q-101 -62 -218 -97.5t-229 -35.5q-139 0 -252 39t-192.5 123t-123 215.5t-43.5 317.5q0 196 43.5 335.5t123 228t192.5 130t252 41.5q59 0 118.5 -9.5t116.5 -27.5t110.5 -43t101.5 -55
l-71 -152q-88 49 -173.5 75.5t-173.5 26.5q-423 0 -423 -536zM702 1751q111 0 111 -94q0 -42 -25.5 -67.5t-83.5 -25.5q-114 0 -114 95q0 92 112 92z" />
    <glyph glyph-name="Dcaron" unicode="&#x10e;" horiz-adv-x="1345" 
d="M172 0v1394h449q83 0 164 -15t153.5 -48t134.5 -85.5t106.5 -127.5t70 -173.5t25.5 -224.5q0 -195 -50 -332t-137 -223t-203.5 -125.5t-248.5 -39.5h-464zM394 185h238q91 0 169 32t135 97.5t89.5 164t32.5 231.5q0 129 -32 223t-89 155.5t-136 91t-173 29.5h-234v-1024z
M562 1636l172 176l160 -40l-213 -251h-238l-212 253l161 37z" />
    <glyph glyph-name="Dcroat" unicode="&#x110;" horiz-adv-x="1345" 
d="M536 619h-551v148h551v-148zM172 0v1394h449q83 0 164 -15t153.5 -48t134.5 -85.5t106.5 -127.5t70 -173.5t25.5 -224.5q0 -195 -50 -332t-137 -223t-203.5 -125.5t-248.5 -39.5h-464zM394 185h238q91 0 169 32t135 97.5t89.5 164t32.5 231.5q0 129 -32 223t-89 155.5
t-136 91t-173 29.5h-234v-1024z" />
    <glyph glyph-name="Eacute" unicode="&#xc9;" horiz-adv-x="1117" 
d="M172 0v1394h837l-2 -185h-613v-412h522v-176h-522v-436h632v-185h-854zM527 1567l233 301l158 -103l-290 -268z" />
    <glyph glyph-name="Ebreve" unicode="&#x114;" horiz-adv-x="1117" 
d="M172 0v1394h837l-2 -185h-613v-412h522v-176h-522v-436h632v-185h-854zM616 1533q-89 0 -144 24.5t-87 61t-47.5 79t-25.5 77.5l135 31q6 -23 15 -48.5t27 -46.5t48 -35t80 -14t80 14t47.5 35t26 46.5t15.5 48.5l135 -31q-11 -36 -26.5 -78.5t-47.5 -78.5t-87 -60.5
t-144 -24.5z" />
    <glyph glyph-name="Ecaron" unicode="&#x11a;" horiz-adv-x="1117" 
d="M172 0v1394h837l-2 -185h-613v-412h522v-176h-522v-436h632v-185h-854zM617 1645l172 176l160 -40l-213 -251h-238l-212 253l161 37z" />
    <glyph glyph-name="Ecircumflex" unicode="&#xca;" horiz-adv-x="1117" 
d="M172 0v1394h837l-2 -185h-613v-412h522v-176h-522v-436h632v-185h-854zM411 1512l-129 39l212 264h237l212 -264l-132 -41l-199 189z" />
    <glyph glyph-name="Edieresis" unicode="&#xcb;" horiz-adv-x="1117" 
d="M172 0v1394h837l-2 -185h-613v-412h522v-176h-522v-436h632v-185h-854zM450 1759q111 0 111 -94q0 -42 -25.5 -67.5t-83.5 -25.5q-114 0 -114 95q0 92 112 92zM794 1759q111 0 111 -94q0 -42 -26 -67.5t-83 -25.5q-114 0 -114 95q0 92 112 92z" />
    <glyph glyph-name="Edotaccent" unicode="&#x116;" horiz-adv-x="1117" 
d="M172 0v1394h837l-2 -185h-613v-412h522v-176h-522v-436h632v-185h-854zM624 1748q111 0 111 -94q0 -42 -25.5 -67.5t-83.5 -25.5q-114 0 -114 95q0 92 112 92z" />
    <glyph glyph-name="Egrave" unicode="&#xc8;" horiz-adv-x="1117" 
d="M172 0v1394h837l-2 -185h-613v-412h522v-176h-522v-436h632v-185h-854zM567 1505l-290 268l158 103l233 -301z" />
    <glyph glyph-name="Emacron" unicode="&#x112;" horiz-adv-x="1117" 
d="M172 0v1394h837l-2 -185h-613v-412h522v-176h-522v-436h632v-185h-854zM925 1545h-619v148h619v-148z" />
    <glyph glyph-name="Eogonek" unicode="&#x118;" horiz-adv-x="1117" 
d="M172 0v1394h837l-2 -185h-613v-412h522v-176h-522v-436h632v-185h-854zM1128 -381q-38 -14 -80 -22t-94 -8t-94 13t-72 38t-46.5 60.5t-16.5 80.5q0 38 16.5 70t41 59t54 49.5t56.5 40.5h132q-34 -30 -61 -53t-46.5 -44.5t-30 -44t-10.5 -51.5q0 -48 29.5 -74t74.5 -26
q29 0 56 3t60 11z" />
    <glyph glyph-name="Gbreve" unicode="&#x11e;" horiz-adv-x="1312" 
d="M75 695q0 183 41.5 318t119.5 223.5t190 132t254 43.5q137 0 259 -31.5t213 -80.5l-67 -155q-91 42 -194 62t-200 20q-92 0 -165.5 -33t-125.5 -98.5t-80 -163.5t-28 -228q0 -140 26.5 -241.5t78.5 -167t130 -97t180 -31.5q61 0 117.5 9t115.5 26v320h-267v194h478v-652
q-44 -18 -99 -33.5t-115 -26t-122 -16.5t-120 -6q-305 0 -462.5 177t-157.5 536zM695 1545q-89 0 -144 24.5t-87 61t-47.5 79t-25.5 77.5l135 31q6 -23 15 -48.5t27 -46.5t48 -35t80 -14t80 14t47.5 35t26 46.5t15.5 48.5l135 -31q-11 -36 -26.5 -78.5t-47.5 -78.5
t-87 -60.5t-144 -24.5z" />
    <glyph glyph-name="Gcircumflex" unicode="&#x11c;" horiz-adv-x="1312" 
d="M75 695q0 183 41.5 318t119.5 223.5t190 132t254 43.5q137 0 259 -31.5t213 -80.5l-67 -155q-91 42 -194 62t-200 20q-92 0 -165.5 -33t-125.5 -98.5t-80 -163.5t-28 -228q0 -140 26.5 -241.5t78.5 -167t130 -97t180 -31.5q61 0 117.5 9t115.5 26v320h-267v194h478v-652
q-44 -18 -99 -33.5t-115 -26t-122 -16.5t-120 -6q-305 0 -462.5 177t-157.5 536zM494 1504l-129 39l212 264h237l212 -264l-132 -41l-199 189z" />
    <glyph glyph-name="Gcommaaccent" unicode="&#x122;" horiz-adv-x="1312" 
d="M75 695q0 183 41.5 318t119.5 223.5t190 132t254 43.5q137 0 259 -31.5t213 -80.5l-67 -155q-91 42 -194 62t-200 20q-92 0 -165.5 -33t-125.5 -98.5t-80 -163.5t-28 -228q0 -140 26.5 -241.5t78.5 -167t130 -97t180 -31.5q61 0 117.5 9t115.5 26v320h-267v194h478v-652
q-44 -18 -99 -33.5t-115 -26t-122 -16.5t-120 -6q-305 0 -462.5 177t-157.5 536zM674 -124q131 0 131 -109v-5q0 -63 -12 -118t-32.5 -103t-47.5 -88.5t-57 -74.5l-99 46q33 65 56.5 127.5t24.5 110.5q-51 7 -73 34t-22 74q0 54 33.5 80t97.5 26z" />
    <glyph glyph-name="Gdotaccent" unicode="&#x120;" horiz-adv-x="1312" 
d="M75 695q0 183 41.5 318t119.5 223.5t190 132t254 43.5q137 0 259 -31.5t213 -80.5l-67 -155q-91 42 -194 62t-200 20q-92 0 -165.5 -33t-125.5 -98.5t-80 -163.5t-28 -228q0 -140 26.5 -241.5t78.5 -167t130 -97t180 -31.5q61 0 117.5 9t115.5 26v320h-267v194h478v-652
q-44 -18 -99 -33.5t-115 -26t-122 -16.5t-120 -6q-305 0 -462.5 177t-157.5 536zM698 1755q111 0 111 -94q0 -42 -25.5 -67.5t-83.5 -25.5q-114 0 -114 95q0 92 112 92z" />
    <glyph glyph-name="Hbar" unicode="&#x126;" horiz-adv-x="1458" 
d="M172 0v1394h222v-133h668v133h223v-1394h-223v617h-668v-617h-222zM1062 802v299h-668v-299h668z" />
    <glyph glyph-name="Hcircumflex" unicode="&#x124;" horiz-adv-x="1458" 
d="M172 0v1394h222v-592h668v592h223v-1394h-223v617h-668v-617h-222zM513 1479l-129 39l212 264h237l212 -264l-132 -41l-199 189z" />
    <glyph glyph-name="Iacute" unicode="&#xcd;" horiz-adv-x="568" 
d="M172 0v1394h222v-1394h-222zM214 1571l233 301l158 -103l-290 -268z" />
    <glyph glyph-name="Ibreve" unicode="&#x12c;" horiz-adv-x="568" 
d="M172 0v1394h222v-1394h-222zM293 1538q-89 0 -144 24.5t-87 61t-47.5 79t-25.5 77.5l135 31q6 -23 15 -48.5t27 -46.5t48 -35t80 -14t80 14t47.5 35t26 46.5t15.5 48.5l135 -31q-11 -36 -26.5 -78.5t-47.5 -78.5t-87 -60.5t-144 -24.5z" />
    <glyph glyph-name="Icircumflex" unicode="&#xce;" horiz-adv-x="568" 
d="M172 0v1394h222v-1394h-222zM82 1509l-129 39l212 264h237l212 -264l-132 -41l-199 189z" />
    <glyph glyph-name="Idieresis" unicode="&#xcf;" horiz-adv-x="568" 
d="M172 0v1394h222v-1394h-222zM119 1766q111 0 111 -94q0 -42 -25.5 -67.5t-83.5 -25.5q-114 0 -114 95q0 92 112 92zM463 1766q111 0 111 -94q0 -42 -26 -67.5t-83 -25.5q-114 0 -114 95q0 92 112 92z" />
    <glyph glyph-name="Idotaccent" unicode="&#x130;" horiz-adv-x="568" 
d="M172 0v1394h222v-1394h-222zM287 1746q111 0 111 -94q0 -42 -25.5 -67.5t-83.5 -25.5q-114 0 -114 95q0 92 112 92z" />
    <glyph glyph-name="Igrave" unicode="&#xcc;" horiz-adv-x="568" 
d="M172 0v1394h222v-1394h-222zM244 1507l-290 268l158 103l233 -301z" />
    <glyph glyph-name="Imacron" unicode="&#x12a;" horiz-adv-x="568" 
d="M172 0v1394h222v-1394h-222zM592 1565h-619v148h619v-148z" />
    <glyph glyph-name="Iogonek" unicode="&#x12e;" horiz-adv-x="568" 
d="M172 0v1394h222v-1394h-222zM454 -381q-38 -14 -80 -22t-94 -8t-94 13t-72 38t-46.5 60.5t-16.5 80.5q0 38 16.5 70t41 59t54 49.5t56.5 40.5h132q-34 -30 -61 -53t-46.5 -44.5t-30 -44t-10.5 -51.5q0 -48 29.5 -74t74.5 -26q29 0 56 3t60 11z" />
    <glyph glyph-name="Itilde" unicode="&#x128;" horiz-adv-x="568" 
d="M172 0v1394h222v-1394h-222zM-69 1620q41 75 100.5 115t138.5 40q39 0 73.5 -11.5t67 -26t62.5 -26t60 -11.5q22 0 37.5 2.5t28.5 10t25 20t29 32.5l115 -71q-20 -39 -46.5 -68t-57 -48t-63 -28.5t-64.5 -9.5q-39 0 -74.5 11.5t-68.5 25.5t-63.5 25.5t-60.5 11.5
q-26 0 -42.5 -3.5t-29.5 -11t-24.5 -19.5t-27.5 -30z" />
    <glyph glyph-name="Jcircumflex" unicode="&#x134;" horiz-adv-x="796" 
d="M624 379q0 -98 -16.5 -172t-54.5 -124t-100 -75.5t-152 -25.5q-37 0 -73.5 5.5t-71 14.5t-66 20t-56.5 23l44 166q36 -16 82 -30.5t87 -14.5q51 0 81.5 14t47 40t21.5 61.5t5 79.5v1033h222v-1015zM312 1456l-129 39l212 264h237l212 -264l-132 -41l-199 189z" />
    <glyph glyph-name="Kcommaaccent" unicode="&#x136;" horiz-adv-x="1271" 
d="M172 1v1393h221v-674q88 57 172.5 135t157.5 167t129 184.5t88 187.5h240q-59 -155 -158.5 -307.5t-228.5 -283.5q20 -54 51.5 -118.5t71 -132t85.5 -136.5t95 -133.5t100.5 -121.5t101.5 -101l-164 -119q-69 64 -141.5 150t-139 182t-122.5 196.5t-92 193.5
q-119 -96 -246 -158v-504h-221zM578 -59q131 0 131 -109v-5q0 -63 -12 -118t-32.5 -103t-47.5 -88.5t-57 -74.5l-99 46q33 65 56.5 127.5t24.5 110.5q-51 7 -73 34t-22 74q0 54 33.5 80t97.5 26z" />
    <glyph glyph-name="Lacute" unicode="&#x139;" horiz-adv-x="1052" 
d="M172 0v1394h222v-1209h576v-185h-798zM212 1533l233 301l158 -103l-290 -268z" />
    <glyph glyph-name="Lcaron" unicode="&#x13d;" horiz-adv-x="1082" 
d="M172 0v1394h222v-1209h576v-185h-798zM885 1393q131 0 131 -109v-5q0 -63 -12 -118t-32.5 -103t-47.5 -88.5t-57 -74.5l-99 46q33 65 56.5 127.5t24.5 110.5q-51 7 -73 34t-22 74q0 54 33.5 80t97.5 26z" />
    <glyph glyph-name="Lcommaaccent" unicode="&#x13b;" horiz-adv-x="1052" 
d="M172 0v1394h222v-1209h576v-185h-798zM516 -94q131 0 131 -109v-5q0 -63 -12 -118t-32.5 -103t-47.5 -88.5t-57 -74.5l-99 46q33 65 56.5 127.5t24.5 110.5q-51 7 -73 34t-22 74q0 54 33.5 80t97.5 26z" />
    <glyph glyph-name="Ldot" unicode="&#x13f;" horiz-adv-x="1052" 
d="M172 0v1394h222v-1209h576v-185h-798zM796 790q111 0 111 -94q0 -42 -25.5 -67.5t-83.5 -25.5q-114 0 -114 95q0 92 112 92z" />
    <glyph glyph-name="Lslash" unicode="&#x141;" horiz-adv-x="1052" 
d="M584 770l-540 -291l-66 132l540 291zM172 0v1394h222v-1209h576v-185h-798z" />
    <glyph glyph-name="Nacute" unicode="&#x143;" horiz-adv-x="1488" 
d="M659 1537l233 301l158 -103l-290 -268zM172 0v1394h263q34 -42 73 -101.5t82 -130.5t87.5 -150t89.5 -159.5t88.5 -159t84.5 -148.5t77.5 -128t67.5 -97h13l-4 1074h222v-1394h-256q-52 65 -108 152.5t-113 186.5t-115 202.5t-113.5 200t-108 180.5t-99.5 143h-13
l3 -1065h-221z" />
    <glyph glyph-name="Ncaron" unicode="&#x147;" horiz-adv-x="1488" 
d="M737 1640l172 176l160 -40l-213 -251h-238l-212 253l161 37zM172 0v1394h263q34 -42 73 -101.5t82 -130.5t87.5 -150t89.5 -159.5t88.5 -159t84.5 -148.5t77.5 -128t67.5 -97h13l-4 1074h222v-1394h-256q-52 65 -108 152.5t-113 186.5t-115 202.5t-113.5 200t-108 180.5
t-99.5 143h-13l3 -1065h-221z" />
    <glyph glyph-name="Ncommaaccent" unicode="&#x145;" horiz-adv-x="1488" 
d="M172 0v1394h263q34 -42 73 -101.5t82 -130.5t87.5 -150t89.5 -159.5t88.5 -159t84.5 -148.5t77.5 -128t67.5 -97h13l-4 1074h222v-1394h-256q-52 65 -108 152.5t-113 186.5t-115 202.5t-113.5 200t-108 180.5t-99.5 143h-13l3 -1065h-221zM677 -72q131 0 131 -109v-5
q0 -63 -12 -118t-32.5 -103t-47.5 -88.5t-57 -74.5l-99 46q33 65 56.5 127.5t24.5 110.5q-51 7 -73 34t-22 74q0 54 33.5 80t97.5 26z" />
    <glyph glyph-name="Ntilde" unicode="&#xd1;" horiz-adv-x="1488" 
d="M359 1616q41 75 100.5 115t138.5 40q39 0 73.5 -11.5t67 -26t62.5 -26t60 -11.5q22 0 37.5 2.5t28.5 10t25 20t29 32.5l115 -71q-20 -39 -46.5 -68t-57 -48t-63 -28.5t-64.5 -9.5q-39 0 -74.5 11.5t-68.5 25.5t-63.5 25.5t-60.5 11.5q-26 0 -42.5 -3.5t-29.5 -11
t-24.5 -19.5t-27.5 -30zM172 0v1394h263q34 -42 73 -101.5t82 -130.5t87.5 -150t89.5 -159.5t88.5 -159t84.5 -148.5t77.5 -128t67.5 -97h13l-4 1074h222v-1394h-256q-52 65 -108 152.5t-113 186.5t-115 202.5t-113.5 200t-108 180.5t-99.5 143h-13l3 -1065h-221z" />
    <glyph glyph-name="Oacute" unicode="&#xd3;" horiz-adv-x="1443" 
d="M1370 696q-1 -185 -50.5 -320t-136 -222.5t-204 -130t-252.5 -41.5q-140 0 -260 44t-207.5 132.5t-137 222.5t-48.5 314q1 179 50 313.5t136 223.5t206.5 134t260.5 46q138 1 256 -44.5t204 -136t134.5 -224.5t48.5 -311zM727 1227q-111 0 -192 -42t-135 -114t-81 -169
t-28 -207q-2 -104 23.5 -199.5t79 -169t136.5 -117t197 -43.5q102 0 181.5 38t134 107t82.5 166.5t28 217.5q0 113 -27 210.5t-81 169t-133.5 112t-184.5 40.5zM701 1584l233 301l158 -103l-290 -268z" />
    <glyph glyph-name="Obreve" unicode="&#x14e;" horiz-adv-x="1443" 
d="M1370 696q-1 -185 -50.5 -320t-136 -222.5t-204 -130t-252.5 -41.5q-140 0 -260 44t-207.5 132.5t-137 222.5t-48.5 314q1 179 50 313.5t136 223.5t206.5 134t260.5 46q138 1 256 -44.5t204 -136t134.5 -224.5t48.5 -311zM727 1227q-111 0 -192 -42t-135 -114t-81 -169
t-28 -207q-2 -104 23.5 -199.5t79 -169t136.5 -117t197 -43.5q102 0 181.5 38t134 107t82.5 166.5t28 217.5q0 113 -27 210.5t-81 169t-133.5 112t-184.5 40.5zM725 1532q-89 0 -144 24.5t-87 61t-47.5 79t-25.5 77.5l135 31q6 -23 15 -48.5t27 -46.5t48 -35t80 -14t80 14
t47.5 35t26 46.5t15.5 48.5l135 -31q-11 -36 -26.5 -78.5t-47.5 -78.5t-87 -60.5t-144 -24.5z" />
    <glyph glyph-name="Ocircumflex" unicode="&#xd4;" horiz-adv-x="1443" 
d="M1370 696q-1 -185 -50.5 -320t-136 -222.5t-204 -130t-252.5 -41.5q-140 0 -260 44t-207.5 132.5t-137 222.5t-48.5 314q1 179 50 313.5t136 223.5t206.5 134t260.5 46q138 1 256 -44.5t204 -136t134.5 -224.5t48.5 -311zM727 1227q-111 0 -192 -42t-135 -114t-81 -169
t-28 -207q-2 -104 23.5 -199.5t79 -169t136.5 -117t197 -43.5q102 0 181.5 38t134 107t82.5 166.5t28 217.5q0 113 -27 210.5t-81 169t-133.5 112t-184.5 40.5zM535 1503l-129 39l212 264h237l212 -264l-132 -41l-199 189z" />
    <glyph glyph-name="Odieresis" unicode="&#xd6;" horiz-adv-x="1443" 
d="M1370 696q-1 -185 -50.5 -320t-136 -222.5t-204 -130t-252.5 -41.5q-140 0 -260 44t-207.5 132.5t-137 222.5t-48.5 314q1 179 50 313.5t136 223.5t206.5 134t260.5 46q138 1 256 -44.5t204 -136t134.5 -224.5t48.5 -311zM727 1227q-111 0 -192 -42t-135 -114t-81 -169
t-28 -207q-2 -104 23.5 -199.5t79 -169t136.5 -117t197 -43.5q102 0 181.5 38t134 107t82.5 166.5t28 217.5q0 113 -27 210.5t-81 169t-133.5 112t-184.5 40.5zM551 1762q111 0 111 -94q0 -42 -25.5 -67.5t-83.5 -25.5q-114 0 -114 95q0 92 112 92zM895 1762q111 0 111 -94
q0 -42 -26 -67.5t-83 -25.5q-114 0 -114 95q0 92 112 92z" />
    <glyph glyph-name="Ograve" unicode="&#xd2;" horiz-adv-x="1443" 
d="M1370 696q-1 -185 -50.5 -320t-136 -222.5t-204 -130t-252.5 -41.5q-140 0 -260 44t-207.5 132.5t-137 222.5t-48.5 314q1 179 50 313.5t136 223.5t206.5 134t260.5 46q138 1 256 -44.5t204 -136t134.5 -224.5t48.5 -311zM727 1227q-111 0 -192 -42t-135 -114t-81 -169
t-28 -207q-2 -104 23.5 -199.5t79 -169t136.5 -117t197 -43.5q102 0 181.5 38t134 107t82.5 166.5t28 217.5q0 113 -27 210.5t-81 169t-133.5 112t-184.5 40.5zM684 1512l-290 268l158 103l233 -301z" />
    <glyph glyph-name="Ohungarumlaut" unicode="&#x150;" horiz-adv-x="1443" 
d="M1370 696q-1 -185 -50.5 -320t-136 -222.5t-204 -130t-252.5 -41.5q-140 0 -260 44t-207.5 132.5t-137 222.5t-48.5 314q1 179 50 313.5t136 223.5t206.5 134t260.5 46q138 1 256 -44.5t204 -136t134.5 -224.5t48.5 -311zM727 1227q-111 0 -192 -42t-135 -114t-81 -169
t-28 -207q-2 -104 23.5 -199.5t79 -169t136.5 -117t197 -43.5q102 0 181.5 38t134 107t82.5 166.5t28 217.5q0 113 -27 210.5t-81 169t-133.5 112t-184.5 40.5zM484 1578l234 301l151 -95l-293 -269zM848 1578l234 301l152 -95l-293 -269z" />
    <glyph glyph-name="Omacron" unicode="&#x14c;" horiz-adv-x="1443" 
d="M1370 696q-1 -185 -50.5 -320t-136 -222.5t-204 -130t-252.5 -41.5q-140 0 -260 44t-207.5 132.5t-137 222.5t-48.5 314q1 179 50 313.5t136 223.5t206.5 134t260.5 46q138 1 256 -44.5t204 -136t134.5 -224.5t48.5 -311zM727 1227q-111 0 -192 -42t-135 -114t-81 -169
t-28 -207q-2 -104 23.5 -199.5t79 -169t136.5 -117t197 -43.5q102 0 181.5 38t134 107t82.5 166.5t28 217.5q0 113 -27 210.5t-81 169t-133.5 112t-184.5 40.5zM1047 1566h-619v148h619v-148z" />
    <glyph glyph-name="Otilde" unicode="&#xd5;" horiz-adv-x="1443" 
d="M1370 696q-1 -185 -50.5 -320t-136 -222.5t-204 -130t-252.5 -41.5q-140 0 -260 44t-207.5 132.5t-137 222.5t-48.5 314q1 179 50 313.5t136 223.5t206.5 134t260.5 46q138 1 256 -44.5t204 -136t134.5 -224.5t48.5 -311zM727 1227q-111 0 -192 -42t-135 -114t-81 -169
t-28 -207q-2 -104 23.5 -199.5t79 -169t136.5 -117t197 -43.5q102 0 181.5 38t134 107t82.5 166.5t28 217.5q0 113 -27 210.5t-81 169t-133.5 112t-184.5 40.5zM384 1629q41 75 100.5 115t138.5 40q39 0 73.5 -11.5t67 -26t62.5 -26t60 -11.5q22 0 37.5 2.5t28.5 10t25 20
t29 32.5l115 -71q-20 -39 -46.5 -68t-57 -48t-63 -28.5t-64.5 -9.5q-39 0 -74.5 11.5t-68.5 25.5t-63.5 25.5t-60.5 11.5q-26 0 -42.5 -3.5t-29.5 -11t-24.5 -19.5t-27.5 -30z" />
    <glyph glyph-name="R" unicode="R" horiz-adv-x="1256" 
d="M1043 -57q-129 126 -231.5 268.5t-171.5 282.5h-5h-240v-494h-223v1394h468q97 0 184.5 -28.5t152.5 -82.5t103.5 -132t38.5 -178q0 -78 -24 -142t-63.5 -115.5t-90.5 -91t-105 -66.5q31 -57 70.5 -120.5t86.5 -128t102 -127.5t117 -120zM395 674h236q60 0 110 21.5
t86 59.5t56 89.5t20 111.5q0 69 -24.5 118t-64 80t-89.5 45.5t-102 14.5h-228v-540z" />
    <glyph glyph-name="Racute" unicode="&#x154;" horiz-adv-x="1256" 
d="M1043 -57q-129 126 -231.5 268.5t-171.5 282.5h-5h-240v-494h-223v1394h468q97 0 184.5 -28.5t152.5 -82.5t103.5 -132t38.5 -178q0 -78 -24 -142t-63.5 -115.5t-90.5 -91t-105 -66.5q31 -57 70.5 -120.5t86.5 -128t102 -127.5t117 -120zM395 674h236q60 0 110 21.5
t86 59.5t56 89.5t20 111.5q0 69 -24.5 118t-64 80t-89.5 45.5t-102 14.5h-228v-540zM462 1557l233 301l158 -103l-290 -268z" />
    <glyph glyph-name="Rcaron" unicode="&#x158;" horiz-adv-x="1256" 
d="M1043 -57q-129 126 -231.5 268.5t-171.5 282.5h-5h-240v-494h-223v1394h468q97 0 184.5 -28.5t152.5 -82.5t103.5 -132t38.5 -178q0 -78 -24 -142t-63.5 -115.5t-90.5 -91t-105 -66.5q31 -57 70.5 -120.5t86.5 -128t102 -127.5t117 -120zM395 674h236q60 0 110 21.5
t86 59.5t56 89.5t20 111.5q0 69 -24.5 118t-64 80t-89.5 45.5t-102 14.5h-228v-540zM561 1646l172 176l160 -40l-213 -251h-238l-212 253l161 37z" />
    <glyph glyph-name="Rcommaaccent" unicode="&#x156;" horiz-adv-x="1256" 
d="M1043 -57q-129 126 -231.5 268.5t-171.5 282.5h-5h-240v-494h-223v1394h468q97 0 184.5 -28.5t152.5 -82.5t103.5 -132t38.5 -178q0 -78 -24 -142t-63.5 -115.5t-90.5 -91t-105 -66.5q31 -57 70.5 -120.5t86.5 -128t102 -127.5t117 -120zM395 674h236q60 0 110 21.5
t86 59.5t56 89.5t20 111.5q0 69 -24.5 118t-64 80t-89.5 45.5t-102 14.5h-228v-540zM585 -68q131 0 131 -109v-5q0 -63 -12 -118t-32.5 -103t-47.5 -88.5t-57 -74.5l-99 46q33 65 56.5 127.5t24.5 110.5q-51 7 -73 34t-22 74q0 54 33.5 80t97.5 26z" />
    <glyph glyph-name="Sacute" unicode="&#x15a;" horiz-adv-x="1059" 
d="M129 273q74 -35 128.5 -56t99 -32.5t84 -15t83.5 -3.5q66 0 114.5 17t80 46t47 68.5t15.5 84.5t-15 81t-46.5 64.5t-81 51.5t-118.5 43q-103 30 -183 61t-134.5 75t-83 107t-28.5 156q0 89 29.5 161t88.5 123t147 79t204 28q101 0 200.5 -25.5t207.5 -85.5l-73 -154
q-46 23 -87 38.5t-79.5 24.5t-76.5 13t-77 4q-61 0 -110 -13t-83 -37t-52 -59t-18 -79q0 -51 15.5 -85t51 -60t93 -47.5t141.5 -47.5q93 -28 165.5 -63.5t122 -83t75.5 -109t26 -142.5q0 -93 -28 -170.5t-85.5 -132.5t-145.5 -85.5t-207 -30.5q-65 0 -124.5 7.5t-117.5 23
t-116 40t-119 58.5zM565 1574l233 301l158 -103l-290 -268z" />
    <glyph glyph-name="Scaron" unicode="&#x160;" horiz-adv-x="1059" 
d="M129 273q74 -35 128.5 -56t99 -32.5t84 -15t83.5 -3.5q66 0 114.5 17t80 46t47 68.5t15.5 84.5t-15 81t-46.5 64.5t-81 51.5t-118.5 43q-103 30 -183 61t-134.5 75t-83 107t-28.5 156q0 89 29.5 161t88.5 123t147 79t204 28q101 0 200.5 -25.5t207.5 -85.5l-73 -154
q-46 23 -87 38.5t-79.5 24.5t-76.5 13t-77 4q-61 0 -110 -13t-83 -37t-52 -59t-18 -79q0 -51 15.5 -85t51 -60t93 -47.5t141.5 -47.5q93 -28 165.5 -63.5t122 -83t75.5 -109t26 -142.5q0 -93 -28 -170.5t-85.5 -132.5t-145.5 -85.5t-207 -30.5q-65 0 -124.5 7.5t-117.5 23
t-116 40t-119 58.5zM560 1644l172 176l160 -40l-213 -251h-238l-212 253l161 37z" />
    <glyph glyph-name="Scedilla" unicode="&#x15e;" horiz-adv-x="1059" 
d="M129 273q74 -35 128.5 -56t99 -32.5t84 -15t83.5 -3.5q66 0 114.5 17t80 46t47 68.5t15.5 84.5t-15 81t-46.5 64.5t-81 51.5t-118.5 43q-103 30 -183 61t-134.5 75t-83 107t-28.5 156q0 89 29.5 161t88.5 123t147 79t204 28q101 0 200.5 -25.5t207.5 -85.5l-73 -154
q-46 23 -87 38.5t-79.5 24.5t-76.5 13t-77 4q-61 0 -110 -13t-83 -37t-52 -59t-18 -79q0 -51 15.5 -85t51 -60t93 -47.5t141.5 -47.5q93 -28 165.5 -63.5t122 -83t75.5 -109t26 -142.5q0 -93 -28 -170.5t-85.5 -132.5t-145.5 -85.5t-207 -30.5q-65 0 -124.5 7.5t-117.5 23
t-116 40t-119 58.5zM385 -288q33 -9 60 -12t56 -3q45 0 71 18t26 54q0 44 -29.5 59t-86.5 15q-17 0 -38 -1t-41 -3l64 165h157l-35 -83q35 -3 64 -14t50 -31t32.5 -49t11.5 -69q0 -91 -57.5 -135t-161.5 -44q-52 0 -94 8t-80 22z" />
    <glyph glyph-name="Scircumflex" unicode="&#x15c;" horiz-adv-x="1059" 
d="M129 273q74 -35 128.5 -56t99 -32.5t84 -15t83.5 -3.5q66 0 114.5 17t80 46t47 68.5t15.5 84.5t-15 81t-46.5 64.5t-81 51.5t-118.5 43q-103 30 -183 61t-134.5 75t-83 107t-28.5 156q0 89 29.5 161t88.5 123t147 79t204 28q101 0 200.5 -25.5t207.5 -85.5l-73 -154
q-46 23 -87 38.5t-79.5 24.5t-76.5 13t-77 4q-61 0 -110 -13t-83 -37t-52 -59t-18 -79q0 -51 15.5 -85t51 -60t93 -47.5t141.5 -47.5q93 -28 165.5 -63.5t122 -83t75.5 -109t26 -142.5q0 -93 -28 -170.5t-85.5 -132.5t-145.5 -85.5t-207 -30.5q-65 0 -124.5 7.5t-117.5 23
t-116 40t-119 58.5zM362 1508l-129 39l212 264h237l212 -264l-132 -41l-199 189z" />
    <glyph glyph-name="Scommaaccent" unicode="&#x218;" horiz-adv-x="1059" 
d="M129 273q74 -35 128.5 -56t99 -32.5t84 -15t83.5 -3.5q66 0 114.5 17t80 46t47 68.5t15.5 84.5t-15 81t-46.5 64.5t-81 51.5t-118.5 43q-103 30 -183 61t-134.5 75t-83 107t-28.5 156q0 89 29.5 161t88.5 123t147 79t204 28q101 0 200.5 -25.5t207.5 -85.5l-73 -154
q-46 23 -87 38.5t-79.5 24.5t-76.5 13t-77 4q-61 0 -110 -13t-83 -37t-52 -59t-18 -79q0 -51 15.5 -85t51 -60t93 -47.5t141.5 -47.5q93 -28 165.5 -63.5t122 -83t75.5 -109t26 -142.5q0 -93 -28 -170.5t-85.5 -132.5t-145.5 -85.5t-207 -30.5q-65 0 -124.5 7.5t-117.5 23
t-116 40t-119 58.5zM490 -101q131 0 131 -109v-5q0 -63 -12 -118t-32.5 -103t-47.5 -88.5t-57 -74.5l-99 46q33 65 56.5 127.5t24.5 110.5q-51 7 -73 34t-22 74q0 54 33.5 80t97.5 26z" />
    <glyph glyph-name="Tbar" unicode="&#x166;" horiz-adv-x="1092" 
d="M33 1209v185h1027v-185h-403v-1209h-222v1209h-402zM858 651h-619v148h619v-148z" />
    <glyph glyph-name="Tcaron" unicode="&#x164;" horiz-adv-x="1093" 
d="M33 1209v185h1027v-185h-403v-1209h-222v1209h-402zM539 1631l172 176l160 -40l-213 -251h-238l-212 253l161 37z" />
    <glyph glyph-name="Tcommaaccent" unicode="&#x162;" horiz-adv-x="1093" 
d="M33 1209v185h1027v-185h-403v-1209h-222v1209h-402zM540 -88q131 0 131 -109v-5q0 -63 -12 -118t-32.5 -103t-47.5 -88.5t-57 -74.5l-99 46q33 65 56.5 127.5t24.5 110.5q-51 7 -73 34t-22 74q0 54 33.5 80t97.5 26z" />
    <glyph glyph-name="Uacute" unicode="&#xda;" horiz-adv-x="1387" 
d="M698 -18q-131 -1 -234 30.5t-174.5 98t-109.5 169.5t-38 244v870h222v-851q0 -97 17.5 -168t56.5 -117.5t103 -69t157 -22.5q89 0 151 26t100.5 74t56 117t17.5 155v856h222v-870q0 -140 -37 -242.5t-107 -169t-171.5 -98.5t-231.5 -32zM627 1528l233 301l158 -103
l-290 -268z" />
    <glyph glyph-name="Ubreve" unicode="&#x16c;" horiz-adv-x="1387" 
d="M698 -18q-131 -1 -234 30.5t-174.5 98t-109.5 169.5t-38 244v870h222v-851q0 -97 17.5 -168t56.5 -117.5t103 -69t157 -22.5q89 0 151 26t100.5 74t56 117t17.5 155v856h222v-870q0 -140 -37 -242.5t-107 -169t-171.5 -98.5t-231.5 -32zM708 1503q-89 0 -144 24.5t-87 61
t-47.5 79t-25.5 77.5l135 31q6 -23 15 -48.5t27 -46.5t48 -35t80 -14t80 14t47.5 35t26 46.5t15.5 48.5l135 -31q-11 -36 -26.5 -78.5t-47.5 -78.5t-87 -60.5t-144 -24.5z" />
    <glyph glyph-name="Ucircumflex" unicode="&#xdb;" horiz-adv-x="1387" 
d="M698 -18q-131 -1 -234 30.5t-174.5 98t-109.5 169.5t-38 244v870h222v-851q0 -97 17.5 -168t56.5 -117.5t103 -69t157 -22.5q89 0 151 26t100.5 74t56 117t17.5 155v856h222v-870q0 -140 -37 -242.5t-107 -169t-171.5 -98.5t-231.5 -32zM492 1494l-129 39l212 264h237
l212 -264l-132 -41l-199 189z" />
    <glyph glyph-name="Udieresis" unicode="&#xdc;" horiz-adv-x="1387" 
d="M698 -18q-131 -1 -234 30.5t-174.5 98t-109.5 169.5t-38 244v870h222v-851q0 -97 17.5 -168t56.5 -117.5t103 -69t157 -22.5q89 0 151 26t100.5 74t56 117t17.5 155v856h222v-870q0 -140 -37 -242.5t-107 -169t-171.5 -98.5t-231.5 -32zM520 1736q111 0 111 -94
q0 -42 -25.5 -67.5t-83.5 -25.5q-114 0 -114 95q0 92 112 92zM864 1736q111 0 111 -94q0 -42 -26 -67.5t-83 -25.5q-114 0 -114 95q0 92 112 92z" />
    <glyph glyph-name="Ugrave" unicode="&#xd9;" horiz-adv-x="1387" 
d="M698 -18q-131 -1 -234 30.5t-174.5 98t-109.5 169.5t-38 244v870h222v-851q0 -97 17.5 -168t56.5 -117.5t103 -69t157 -22.5q89 0 151 26t100.5 74t56 117t17.5 155v856h222v-870q0 -140 -37 -242.5t-107 -169t-171.5 -98.5t-231.5 -32zM692 1485l-290 268l158 103
l233 -301z" />
    <glyph glyph-name="Uhungarumlaut" unicode="&#x170;" horiz-adv-x="1387" 
d="M698 -18q-131 -1 -234 30.5t-174.5 98t-109.5 169.5t-38 244v870h222v-851q0 -97 17.5 -168t56.5 -117.5t103 -69t157 -22.5q89 0 151 26t100.5 74t56 117t17.5 155v856h222v-870q0 -140 -37 -242.5t-107 -169t-171.5 -98.5t-231.5 -32zM413 1563l234 301l151 -95
l-293 -269zM777 1563l234 301l152 -95l-293 -269z" />
    <glyph glyph-name="Umacron" unicode="&#x16a;" horiz-adv-x="1387" 
d="M698 -18q-131 -1 -234 30.5t-174.5 98t-109.5 169.5t-38 244v870h222v-851q0 -97 17.5 -168t56.5 -117.5t103 -69t157 -22.5q89 0 151 26t100.5 74t56 117t17.5 155v856h222v-870q0 -140 -37 -242.5t-107 -169t-171.5 -98.5t-231.5 -32zM1022 1560h-619v148h619v-148z
" />
    <glyph glyph-name="Uogonek" unicode="&#x172;" horiz-adv-x="1387" 
d="M698 -18q-131 -1 -234 30.5t-174.5 98t-109.5 169.5t-38 244v870h222v-851q0 -97 17.5 -168t56.5 -117.5t103 -69t157 -22.5q89 0 151 26t100.5 74t56 117t17.5 155v856h222v-870q0 -140 -37 -242.5t-107 -169t-171.5 -98.5t-231.5 -32zM939 -372q-38 -14 -80 -22t-94 -8
t-94 13t-72 38t-46.5 60.5t-16.5 80.5q0 38 16.5 70t41 59t54 49.5t56.5 40.5h132q-34 -30 -61 -53t-46.5 -44.5t-30 -44t-10.5 -51.5q0 -48 29.5 -74t74.5 -26q29 0 56 3t60 11z" />
    <glyph glyph-name="Uring" unicode="&#x16e;" horiz-adv-x="1387" 
d="M698 -18q-131 -1 -234 30.5t-174.5 98t-109.5 169.5t-38 244v870h222v-851q0 -97 17.5 -168t56.5 -117.5t103 -69t157 -22.5q89 0 151 26t100.5 74t56 117t17.5 155v856h222v-870q0 -140 -37 -242.5t-107 -169t-171.5 -98.5t-231.5 -32zM704 1722q-29 0 -46.5 -13
t-17.5 -42q0 -30 16.5 -43.5t48.5 -13.5q34 0 47 15.5t13 39.5q0 31 -16 44t-45 13zM705 1813q81 0 124 -35.5t43 -112.5q0 -32 -9 -58.5t-29 -46t-51.5 -30.5t-75.5 -11q-85 0 -129 36.5t-44 112.5q0 77 45 111t126 34z" />
    <glyph glyph-name="Utilde" unicode="&#x168;" horiz-adv-x="1387" 
d="M698 -18q-131 -1 -234 30.5t-174.5 98t-109.5 169.5t-38 244v870h222v-851q0 -97 17.5 -168t56.5 -117.5t103 -69t157 -22.5q89 0 151 26t100.5 74t56 117t17.5 155v856h222v-870q0 -140 -37 -242.5t-107 -169t-171.5 -98.5t-231.5 -32zM345 1615q41 75 100.5 115
t138.5 40q39 0 73.5 -11.5t67 -26t62.5 -26t60 -11.5q22 0 37.5 2.5t28.5 10t25 20t29 32.5l115 -71q-20 -39 -46.5 -68t-57 -48t-63 -28.5t-64.5 -9.5q-39 0 -74.5 11.5t-68.5 25.5t-63.5 25.5t-60.5 11.5q-26 0 -42.5 -3.5t-29.5 -11t-24.5 -19.5t-27.5 -30z" />
    <glyph glyph-name="Wacute" unicode="&#x1e82;" horiz-adv-x="1948" 
d="M1091 1394q16 -84 37 -183.5t44.5 -204.5t50 -212.5t54 -206.5t54.5 -186.5t53 -153.5h17q24 73 48.5 170t46.5 204t42.5 219t37 216t29 194t20.5 154l233 -10q-9 -97 -27.5 -215t-44 -245t-55.5 -257.5t-62 -253t-65 -231t-64 -192.5h-287q-27 64 -55 149t-55.5 179.5
t-53 193t-47.5 191t-39 173.5t-27 140h-6q-12 -67 -29 -149.5t-38 -172.5t-45.5 -184.5t-51.5 -186t-55 -177t-57 -156.5h-288q-27 66 -58 168t-63 224t-63 257t-57.5 268t-46.5 256t-29 221l234 10q4 -49 12.5 -116t20.5 -145.5t27 -165t31.5 -173t34 -170.5t34.5 -157
t33 -132.5t29 -97.5h17q28 67 57.5 160.5t58 199t55 217.5t50 217t42 196.5t30.5 156.5h236zM943 1577l233 301l158 -103l-290 -268z" />
    <glyph glyph-name="Wcircumflex" unicode="&#x174;" horiz-adv-x="1948" 
d="M1091 1394q16 -84 37 -183.5t44.5 -204.5t50 -212.5t54 -206.5t54.5 -186.5t53 -153.5h17q24 73 48.5 170t46.5 204t42.5 219t37 216t29 194t20.5 154l233 -10q-9 -97 -27.5 -215t-44 -245t-55.5 -257.5t-62 -253t-65 -231t-64 -192.5h-287q-27 64 -55 149t-55.5 179.5
t-53 193t-47.5 191t-39 173.5t-27 140h-6q-12 -67 -29 -149.5t-38 -172.5t-45.5 -184.5t-51.5 -186t-55 -177t-57 -156.5h-288q-27 66 -58 168t-63 224t-63 257t-57.5 268t-46.5 256t-29 221l234 10q4 -49 12.5 -116t20.5 -145.5t27 -165t31.5 -173t34 -170.5t34.5 -157
t33 -132.5t29 -97.5h17q28 67 57.5 160.5t58 199t55 217.5t50 217t42 196.5t30.5 156.5h236zM782 1509l-129 39l212 264h237l212 -264l-132 -41l-199 189z" />
    <glyph glyph-name="Wdieresis" unicode="&#x1e84;" horiz-adv-x="1948" 
d="M1091 1394q16 -84 37 -183.5t44.5 -204.5t50 -212.5t54 -206.5t54.5 -186.5t53 -153.5h17q24 73 48.5 170t46.5 204t42.5 219t37 216t29 194t20.5 154l233 -10q-9 -97 -27.5 -215t-44 -245t-55.5 -257.5t-62 -253t-65 -231t-64 -192.5h-287q-27 64 -55 149t-55.5 179.5
t-53 193t-47.5 191t-39 173.5t-27 140h-6q-12 -67 -29 -149.5t-38 -172.5t-45.5 -184.5t-51.5 -186t-55 -177t-57 -156.5h-288q-27 66 -58 168t-63 224t-63 257t-57.5 268t-46.5 256t-29 221l234 10q4 -49 12.5 -116t20.5 -145.5t27 -165t31.5 -173t34 -170.5t34.5 -157
t33 -132.5t29 -97.5h17q28 67 57.5 160.5t58 199t55 217.5t50 217t42 196.5t30.5 156.5h236zM801 1754q111 0 111 -94q0 -42 -25.5 -67.5t-83.5 -25.5q-114 0 -114 95q0 92 112 92zM1145 1754q111 0 111 -94q0 -42 -26 -67.5t-83 -25.5q-114 0 -114 95q0 92 112 92z" />
    <glyph glyph-name="Wgrave" unicode="&#x1e80;" horiz-adv-x="1948" 
d="M1091 1394q16 -84 37 -183.5t44.5 -204.5t50 -212.5t54 -206.5t54.5 -186.5t53 -153.5h17q24 73 48.5 170t46.5 204t42.5 219t37 216t29 194t20.5 154l233 -10q-9 -97 -27.5 -215t-44 -245t-55.5 -257.5t-62 -253t-65 -231t-64 -192.5h-287q-27 64 -55 149t-55.5 179.5
t-53 193t-47.5 191t-39 173.5t-27 140h-6q-12 -67 -29 -149.5t-38 -172.5t-45.5 -184.5t-51.5 -186t-55 -177t-57 -156.5h-288q-27 66 -58 168t-63 224t-63 257t-57.5 268t-46.5 256t-29 221l234 10q4 -49 12.5 -116t20.5 -145.5t27 -165t31.5 -173t34 -170.5t34.5 -157
t33 -132.5t29 -97.5h17q28 67 57.5 160.5t58 199t55 217.5t50 217t42 196.5t30.5 156.5h236zM971 1518l-290 268l158 103l233 -301z" />
    <glyph glyph-name="Yacute" unicode="&#xdd;" horiz-adv-x="1208" 
d="M225 951q-38 65 -72.5 129.5t-64 123t-53 108t-37.5 82.5l250 10q12 -29 30.5 -71t41 -89t46.5 -96t47 -91q22 -42 48 -87.5t51.5 -87.5t48.5 -76.5t39 -53.5h11q15 19 37.5 53t48 76t51 87t47.5 87q23 44 46.5 91t45 93t40.5 88t34 77l251 -10q-37 -84 -94.5 -196.5
t-129.5 -240.5q-64 -115 -133 -213.5t-140 -198.5v-545h-221v545q-62 88 -133.5 191t-135.5 215zM558 1556l233 301l158 -103l-290 -268z" />
    <glyph glyph-name="Ycircumflex" unicode="&#x176;" horiz-adv-x="1208" 
d="M225 951q-38 65 -72.5 129.5t-64 123t-53 108t-37.5 82.5l250 10q12 -29 30.5 -71t41 -89t46.5 -96t47 -91q22 -42 48 -87.5t51.5 -87.5t48.5 -76.5t39 -53.5h11q15 19 37.5 53t48 76t51 87t47.5 87q23 44 46.5 91t45 93t40.5 88t34 77l251 -10q-37 -84 -94.5 -196.5
t-129.5 -240.5q-64 -115 -133 -213.5t-140 -198.5v-545h-221v545q-62 88 -133.5 191t-135.5 215zM417 1507l-129 39l212 264h237l212 -264l-132 -41l-199 189z" />
    <glyph glyph-name="Ydieresis" unicode="&#x178;" horiz-adv-x="1208" 
d="M225 951q-38 65 -72.5 129.5t-64 123t-53 108t-37.5 82.5l250 10q12 -29 30.5 -71t41 -89t46.5 -96t47 -91q22 -42 48 -87.5t51.5 -87.5t48.5 -76.5t39 -53.5h11q15 19 37.5 53t48 76t51 87t47.5 87q23 44 46.5 91t45 93t40.5 88t34 77l251 -10q-37 -84 -94.5 -196.5
t-129.5 -240.5q-64 -115 -133 -213.5t-140 -198.5v-545h-221v545q-62 88 -133.5 191t-135.5 215zM441 1762q111 0 111 -94q0 -42 -25.5 -67.5t-83.5 -25.5q-114 0 -114 95q0 92 112 92zM785 1762q111 0 111 -94q0 -42 -26 -67.5t-83 -25.5q-114 0 -114 95q0 92 112 92z" />
    <glyph glyph-name="Ygrave" unicode="&#x1ef2;" horiz-adv-x="1208" 
d="M225 951q-38 65 -72.5 129.5t-64 123t-53 108t-37.5 82.5l250 10q12 -29 30.5 -71t41 -89t46.5 -96t47 -91q22 -42 48 -87.5t51.5 -87.5t48.5 -76.5t39 -53.5h11q15 19 37.5 53t48 76t51 87t47.5 87q23 44 46.5 91t45 93t40.5 88t34 77l251 -10q-37 -84 -94.5 -196.5
t-129.5 -240.5q-64 -115 -133 -213.5t-140 -198.5v-545h-221v545q-62 88 -133.5 191t-135.5 215zM612 1501l-290 268l158 103l233 -301z" />
    <glyph glyph-name="Zacute" unicode="&#x179;" horiz-adv-x="1127" 
d="M88 0v178q43 77 101.5 161.5t124.5 172.5t136.5 178t137 177.5t125 171.5t102.5 161v9h-697v185h949v-193q-42 -80 -98.5 -163.5t-120 -168.5t-131.5 -171t-132.5 -171t-122 -168.5t-101.5 -163.5v-10h678v-185h-951zM561 1589l233 301l158 -103l-290 -268z" />
    <glyph glyph-name="Zcaron" unicode="&#x17d;" horiz-adv-x="1127" 
d="M88 0v178q43 77 101.5 161.5t124.5 172.5t136.5 178t137 177.5t125 171.5t102.5 161v9h-697v185h949v-193q-42 -80 -98.5 -163.5t-120 -168.5t-131.5 -171t-132.5 -171t-122 -168.5t-101.5 -163.5v-10h678v-185h-951zM630 1649l172 176l160 -40l-213 -251h-238l-212 253
l161 37z" />
    <glyph glyph-name="Zdotaccent" unicode="&#x17b;" horiz-adv-x="1127" 
d="M88 0v178q43 77 101.5 161.5t124.5 172.5t136.5 178t137 177.5t125 171.5t102.5 161v9h-697v185h949v-193q-42 -80 -98.5 -163.5t-120 -168.5t-131.5 -171t-132.5 -171t-122 -168.5t-101.5 -163.5v-10h678v-185h-951zM618 1737q111 0 111 -94q0 -42 -25.5 -67.5
t-83.5 -25.5q-114 0 -114 95q0 92 112 92z" />
    <glyph glyph-name="abreve" unicode="&#x103;" horiz-adv-x="1130" 
d="M75 502q0 132 38.5 232t107 167t163.5 101t208 34q58 0 113 -8t105 -21t94 -30t81 -34v-943h-184l-26 99q-29 -22 -60 -43t-67 -37.5t-79 -26.5t-97 -10q-87 0 -160 32.5t-125.5 97t-82 162t-29.5 228.5zM283 508q0 -91 18.5 -157.5t52 -109.5t80 -63.5t101.5 -20.5
q71 0 135 25t104 62v580q-9 4 -27 10t-43 12t-55 10t-63 4q-67 0 -123 -23t-96 -67.5t-62 -110t-22 -151.5zM636 1181q-89 0 -144 24.5t-87 61t-47.5 79t-25.5 77.5l135 31q6 -23 15 -48.5t27 -46.5t48 -35t80 -14t80 14t47.5 35t26 46.5t15.5 48.5l135 -31
q-11 -36 -26.5 -78.5t-47.5 -78.5t-87 -60.5t-144 -24.5z" />
    <glyph glyph-name="acircumflex" unicode="&#xe2;" horiz-adv-x="1130" 
d="M75 502q0 132 38.5 232t107 167t163.5 101t208 34q58 0 113 -8t105 -21t94 -30t81 -34v-943h-184l-26 99q-29 -22 -60 -43t-67 -37.5t-79 -26.5t-97 -10q-87 0 -160 32.5t-125.5 97t-82 162t-29.5 228.5zM283 508q0 -91 18.5 -157.5t52 -109.5t80 -63.5t101.5 -20.5
q71 0 135 25t104 62v580q-9 4 -27 10t-43 12t-55 10t-63 4q-67 0 -123 -23t-96 -67.5t-62 -110t-22 -151.5zM400 1160l-129 39l212 264h237l212 -264l-132 -41l-199 189z" />
    <glyph glyph-name="adieresis" unicode="&#xe4;" horiz-adv-x="1130" 
d="M75 502q0 132 38.5 232t107 167t163.5 101t208 34q58 0 113 -8t105 -21t94 -30t81 -34v-943h-184l-26 99q-29 -22 -60 -43t-67 -37.5t-79 -26.5t-97 -10q-87 0 -160 32.5t-125.5 97t-82 162t-29.5 228.5zM283 508q0 -91 18.5 -157.5t52 -109.5t80 -63.5t101.5 -20.5
q71 0 135 25t104 62v580q-9 4 -27 10t-43 12t-55 10t-63 4q-67 0 -123 -23t-96 -67.5t-62 -110t-22 -151.5zM436 1385q111 0 111 -94q0 -42 -25.5 -67.5t-83.5 -25.5q-114 0 -114 95q0 92 112 92zM780 1385q111 0 111 -94q0 -42 -26 -67.5t-83 -25.5q-114 0 -114 95
q0 92 112 92z" />
    <glyph glyph-name="agrave" unicode="&#xe0;" horiz-adv-x="1130" 
d="M75 502q0 132 38.5 232t107 167t163.5 101t208 34q58 0 113 -8t105 -21t94 -30t81 -34v-943h-184l-26 99q-29 -22 -60 -43t-67 -37.5t-79 -26.5t-97 -10q-87 0 -160 32.5t-125.5 97t-82 162t-29.5 228.5zM283 508q0 -91 18.5 -157.5t52 -109.5t80 -63.5t101.5 -20.5
q71 0 135 25t104 62v580q-9 4 -27 10t-43 12t-55 10t-63 4q-67 0 -123 -23t-96 -67.5t-62 -110t-22 -151.5zM601 1154l-290 268l158 103l233 -301z" />
    <glyph glyph-name="amacron" unicode="&#x101;" horiz-adv-x="1130" 
d="M75 502q0 132 38.5 232t107 167t163.5 101t208 34q58 0 113 -8t105 -21t94 -30t81 -34v-943h-184l-26 99q-29 -22 -60 -43t-67 -37.5t-79 -26.5t-97 -10q-87 0 -160 32.5t-125.5 97t-82 162t-29.5 228.5zM283 508q0 -91 18.5 -157.5t52 -109.5t80 -63.5t101.5 -20.5
q71 0 135 25t104 62v580q-9 4 -27 10t-43 12t-55 10t-63 4q-67 0 -123 -23t-96 -67.5t-62 -110t-22 -151.5zM921 1180h-619v148h619v-148z" />
    <glyph glyph-name="aogonek" unicode="&#x105;" horiz-adv-x="1130" 
d="M75 502q0 132 38.5 232t107 167t163.5 101t208 34q58 0 113 -8t105 -21t94 -30t81 -34v-943h-184l-26 99q-29 -22 -60 -43t-67 -37.5t-79 -26.5t-97 -10q-87 0 -160 32.5t-125.5 97t-82 162t-29.5 228.5zM283 508q0 -91 18.5 -157.5t52 -109.5t80 -63.5t101.5 -20.5
q71 0 135 25t104 62v580q-9 4 -27 10t-43 12t-55 10t-63 4q-67 0 -123 -23t-96 -67.5t-62 -110t-22 -151.5zM1090 -381q-38 -14 -80 -22t-94 -8t-94 13t-72 38t-46.5 60.5t-16.5 80.5q0 38 16.5 70t41 59t54 49.5t56.5 40.5h132q-34 -30 -61 -53t-46.5 -44.5t-30 -44
t-10.5 -51.5q0 -48 29.5 -74t74.5 -26q29 0 56 3t60 11z" />
    <glyph glyph-name="aring" unicode="&#xe5;" horiz-adv-x="1130" 
d="M75 502q0 132 38.5 232t107 167t163.5 101t208 34q58 0 113 -8t105 -21t94 -30t81 -34v-943h-184l-26 99q-29 -22 -60 -43t-67 -37.5t-79 -26.5t-97 -10q-87 0 -160 32.5t-125.5 97t-82 162t-29.5 228.5zM283 508q0 -91 18.5 -157.5t52 -109.5t80 -63.5t101.5 -20.5
q71 0 135 25t104 62v580q-9 4 -27 10t-43 12t-55 10t-63 4q-67 0 -123 -23t-96 -67.5t-62 -110t-22 -151.5zM622 1346q-29 0 -46.5 -13t-17.5 -42q0 -30 16.5 -43.5t48.5 -13.5q34 0 47 15.5t13 39.5q0 31 -16 44t-45 13zM623 1437q81 0 124 -35.5t43 -112.5q0 -32 -9 -58.5
t-29 -46t-51.5 -30.5t-75.5 -11q-85 0 -129 36.5t-44 112.5q0 77 45 111t126 34z" />
    <glyph glyph-name="atilde" unicode="&#xe3;" horiz-adv-x="1130" 
d="M75 502q0 132 38.5 232t107 167t163.5 101t208 34q58 0 113 -8t105 -21t94 -30t81 -34v-943h-184l-26 99q-29 -22 -60 -43t-67 -37.5t-79 -26.5t-97 -10q-87 0 -160 32.5t-125.5 97t-82 162t-29.5 228.5zM283 508q0 -91 18.5 -157.5t52 -109.5t80 -63.5t101.5 -20.5
q71 0 135 25t104 62v580q-9 4 -27 10t-43 12t-55 10t-63 4q-67 0 -123 -23t-96 -67.5t-62 -110t-22 -151.5zM225 1224q41 75 100.5 115t138.5 40q39 0 73.5 -11.5t67 -26t62.5 -26t60 -11.5q22 0 37.5 2.5t28.5 10t25 20t29 32.5l115 -71q-20 -39 -46.5 -68t-57 -48
t-63 -28.5t-64.5 -9.5q-39 0 -74.5 11.5t-68.5 25.5t-63.5 25.5t-60.5 11.5q-26 0 -42.5 -3.5t-29.5 -11t-24.5 -19.5t-27.5 -30z" />
    <glyph glyph-name="cacute" unicode="&#x107;" horiz-adv-x="955" 
d="M507 1217l233 301l158 -103l-290 -268zM90 519q0 131 34 228t94.5 161.5t144.5 96t184 31.5q82 0 165.5 -20.5t168.5 -70.5l-63 -144q-114 60 -235 60q-142 0 -213.5 -90t-71.5 -261t71.5 -262t216.5 -91q64 0 122 17t110 42l63 -143q-78 -45 -160.5 -68t-175.5 -23
q-123 0 -209 40.5t-141 112t-80 170t-25 214.5z" />
    <glyph glyph-name="ccaron" unicode="&#x10d;" horiz-adv-x="955" 
d="M581 1276l172 176l160 -40l-213 -251h-238l-212 253l161 37zM91 519q0 131 34 228t94.5 161.5t144.5 96t184 31.5q82 0 165.5 -20.5t168.5 -70.5l-63 -144q-114 60 -235 60q-142 0 -213.5 -90t-71.5 -261t71.5 -262t216.5 -91q64 0 122 17t110 42l63 -143
q-78 -45 -160.5 -68t-175.5 -23q-123 0 -209 40.5t-141 112t-80 170t-25 214.5z" />
    <glyph glyph-name="ccedilla" unicode="&#xe7;" horiz-adv-x="955" 
d="M384 -295q33 -9 60 -12t56 -3q45 0 71 18t26 54q0 44 -29.5 59t-86.5 15q-17 0 -38 -1t-41 -3l64 165h157l-35 -83q35 -3 64 -14t50 -31t32.5 -49t11.5 -69q0 -91 -57.5 -135t-161.5 -44q-52 0 -94 8t-80 22zM90 519q0 131 34 228t94.5 161.5t144.5 96t184 31.5
q82 0 165.5 -20.5t168.5 -70.5l-63 -144q-114 60 -235 60q-142 0 -213.5 -90t-71.5 -261t71.5 -262t216.5 -91q64 0 122 17t110 42l63 -143q-78 -45 -160.5 -68t-175.5 -23q-123 0 -209 40.5t-141 112t-80 170t-25 214.5z" />
    <glyph glyph-name="ccircumflex" unicode="&#x109;" horiz-adv-x="955" 
d="M90 519q0 131 34 228t94.5 161.5t144.5 96t184 31.5q82 0 165.5 -20.5t168.5 -70.5l-63 -144q-114 60 -235 60q-142 0 -213.5 -90t-71.5 -261t71.5 -262t216.5 -91q64 0 122 17t110 42l63 -143q-78 -45 -160.5 -68t-175.5 -23q-123 0 -209 40.5t-141 112t-80 170
t-25 214.5zM341 1118l-129 39l212 264h237l212 -264l-132 -41l-199 189z" />
    <glyph glyph-name="cdotaccent" unicode="&#x10b;" horiz-adv-x="955" 
d="M578 1350q111 0 111 -94q0 -42 -25.5 -67.5t-83.5 -25.5q-114 0 -114 95q0 92 112 92zM90 519q0 131 34 228t94.5 161.5t144.5 96t184 31.5q82 0 165.5 -20.5t168.5 -70.5l-63 -144q-114 60 -235 60q-142 0 -213.5 -90t-71.5 -261t71.5 -262t216.5 -91q64 0 122 17
t110 42l63 -143q-78 -45 -160.5 -68t-175.5 -23q-123 0 -209 40.5t-141 112t-80 170t-25 214.5z" />
    <glyph glyph-name="dcaron" unicode="&#x10f;" horiz-adv-x="1336" 
d="M816 0l-26 99q-30 -24 -63 -45.5t-70 -37.5t-79.5 -25t-90.5 -9q-84 0 -156.5 30t-126 94t-84 162.5t-30.5 236.5q0 92 20 167.5t54.5 134.5t80.5 102t98 71.5t107.5 42t109.5 13.5q45 0 78.5 -3.5t59.5 -9.5t46 -13t38 -13v447h217v-1444h-183zM298 508q0 -92 18.5 -158
t52 -109t80.5 -63.5t103 -20.5q57 0 119.5 19t115.5 60v585q-15 8 -36 15.5t-45.5 13t-52 8.5t-54.5 3q-65 0 -120 -22t-95.5 -66t-63 -110.5t-22.5 -154.5zM1235 1459q131 0 131 -109v-5q0 -63 -12 -118t-32.5 -103t-47.5 -88.5t-57 -74.5l-99 46q33 65 56.5 127.5
t24.5 110.5q-51 7 -73 34t-22 74q0 54 33.5 80t97.5 26z" />
    <glyph glyph-name="dcroat" unicode="&#x111;" horiz-adv-x="1146" 
d="M1061 1185h-620v138h620v-138zM816 0l-26 99q-30 -24 -63 -45.5t-70 -37.5t-79.5 -25t-90.5 -9q-84 0 -156.5 30t-126 94t-84 162.5t-30.5 236.5q0 92 20 167.5t54.5 134.5t80.5 102t98 71.5t107.5 42t109.5 13.5q45 0 78.5 -3.5t59.5 -9.5t46 -13t38 -13v447h217v-1444
h-183zM298 508q0 -92 18.5 -158t52 -109t80.5 -63.5t103 -20.5q57 0 119.5 19t115.5 60v585q-15 8 -36 15.5t-45.5 13t-52 8.5t-54.5 3q-65 0 -120 -22t-95.5 -66t-63 -110.5t-22.5 -154.5z" />
    <glyph glyph-name="eacute" unicode="&#xe9;" horiz-adv-x="1059" 
d="M300 412q9 -62 32 -110t62 -81t95.5 -50.5t131.5 -17.5q72 0 136.5 23t118.5 52l64 -148q-82 -47 -167 -72.5t-190 -25.5q-240 0 -366.5 136t-126.5 400q0 126 34.5 222.5t97.5 162t151 99.5t196 34q88 0 162.5 -26t129 -71t85.5 -106t31 -131q0 -58 -16.5 -110.5
t-56.5 -92.5t-107 -63.5t-167 -23.5h-330zM560 861q-58 0 -103.5 -20t-78 -55.5t-52.5 -84.5t-28 -107h298q40 0 72.5 2t55 11.5t34.5 28.5t12 52q0 46 -19.5 79t-50 54t-67.5 30.5t-73 9.5zM553 1198l233 301l158 -103l-290 -268z" />
    <glyph glyph-name="ebreve" unicode="&#x115;" horiz-adv-x="1059" 
d="M300 412q9 -62 32 -110t62 -81t95.5 -50.5t131.5 -17.5q72 0 136.5 23t118.5 52l64 -148q-82 -47 -167 -72.5t-190 -25.5q-240 0 -366.5 136t-126.5 400q0 126 34.5 222.5t97.5 162t151 99.5t196 34q88 0 162.5 -26t129 -71t85.5 -106t31 -131q0 -58 -16.5 -110.5
t-56.5 -92.5t-107 -63.5t-167 -23.5h-330zM560 861q-58 0 -103.5 -20t-78 -55.5t-52.5 -84.5t-28 -107h298q40 0 72.5 2t55 11.5t34.5 28.5t12 52q0 46 -19.5 79t-50 54t-67.5 30.5t-73 9.5zM587 1160q-89 0 -144 24.5t-87 61t-47.5 79t-25.5 77.5l135 31q6 -23 15 -48.5
t27 -46.5t48 -35t80 -14t80 14t47.5 35t26 46.5t15.5 48.5l135 -31q-11 -36 -26.5 -78.5t-47.5 -78.5t-87 -60.5t-144 -24.5z" />
    <glyph glyph-name="ecaron" unicode="&#x11b;" horiz-adv-x="1059" 
d="M300 412q9 -62 32 -110t62 -81t95.5 -50.5t131.5 -17.5q72 0 136.5 23t118.5 52l64 -148q-82 -47 -167 -72.5t-190 -25.5q-240 0 -366.5 136t-126.5 400q0 126 34.5 222.5t97.5 162t151 99.5t196 34q88 0 162.5 -26t129 -71t85.5 -106t31 -131q0 -58 -16.5 -110.5
t-56.5 -92.5t-107 -63.5t-167 -23.5h-330zM560 861q-58 0 -103.5 -20t-78 -55.5t-52.5 -84.5t-28 -107h298q40 0 72.5 2t55 11.5t34.5 28.5t12 52q0 46 -19.5 79t-50 54t-67.5 30.5t-73 9.5zM600 1268l172 176l160 -40l-213 -251h-238l-212 253l161 37z" />
    <glyph glyph-name="ecircumflex" unicode="&#xea;" horiz-adv-x="1059" 
d="M300 412q9 -62 32 -110t62 -81t95.5 -50.5t131.5 -17.5q72 0 136.5 23t118.5 52l64 -148q-82 -47 -167 -72.5t-190 -25.5q-240 0 -366.5 136t-126.5 400q0 126 34.5 222.5t97.5 162t151 99.5t196 34q88 0 162.5 -26t129 -71t85.5 -106t31 -131q0 -58 -16.5 -110.5
t-56.5 -92.5t-107 -63.5t-167 -23.5h-330zM560 861q-58 0 -103.5 -20t-78 -55.5t-52.5 -84.5t-28 -107h298q40 0 72.5 2t55 11.5t34.5 28.5t12 52q0 46 -19.5 79t-50 54t-67.5 30.5t-73 9.5zM376 1123l-129 39l212 264h237l212 -264l-132 -41l-199 189z" />
    <glyph glyph-name="edieresis" unicode="&#xeb;" horiz-adv-x="1059" 
d="M300 412q9 -62 32 -110t62 -81t95.5 -50.5t131.5 -17.5q72 0 136.5 23t118.5 52l64 -148q-82 -47 -167 -72.5t-190 -25.5q-240 0 -366.5 136t-126.5 400q0 126 34.5 222.5t97.5 162t151 99.5t196 34q88 0 162.5 -26t129 -71t85.5 -106t31 -131q0 -58 -16.5 -110.5
t-56.5 -92.5t-107 -63.5t-167 -23.5h-330zM560 861q-58 0 -103.5 -20t-78 -55.5t-52.5 -84.5t-28 -107h298q40 0 72.5 2t55 11.5t34.5 28.5t12 52q0 46 -19.5 79t-50 54t-67.5 30.5t-73 9.5zM405 1365q111 0 111 -94q0 -42 -25.5 -67.5t-83.5 -25.5q-114 0 -114 95
q0 92 112 92zM749 1365q111 0 111 -94q0 -42 -26 -67.5t-83 -25.5q-114 0 -114 95q0 92 112 92z" />
    <glyph glyph-name="edotaccent" unicode="&#x117;" horiz-adv-x="1059" 
d="M300 412q9 -62 32 -110t62 -81t95.5 -50.5t131.5 -17.5q72 0 136.5 23t118.5 52l64 -148q-82 -47 -167 -72.5t-190 -25.5q-240 0 -366.5 136t-126.5 400q0 126 34.5 222.5t97.5 162t151 99.5t196 34q88 0 162.5 -26t129 -71t85.5 -106t31 -131q0 -58 -16.5 -110.5
t-56.5 -92.5t-107 -63.5t-167 -23.5h-330zM560 861q-58 0 -103.5 -20t-78 -55.5t-52.5 -84.5t-28 -107h298q40 0 72.5 2t55 11.5t34.5 28.5t12 52q0 46 -19.5 79t-50 54t-67.5 30.5t-73 9.5zM572 1357q111 0 111 -94q0 -42 -25.5 -67.5t-83.5 -25.5q-114 0 -114 95
q0 92 112 92z" />
    <glyph glyph-name="egrave" unicode="&#xe8;" horiz-adv-x="1059" 
d="M300 412q9 -62 32 -110t62 -81t95.5 -50.5t131.5 -17.5q72 0 136.5 23t118.5 52l64 -148q-82 -47 -167 -72.5t-190 -25.5q-240 0 -366.5 136t-126.5 400q0 126 34.5 222.5t97.5 162t151 99.5t196 34q88 0 162.5 -26t129 -71t85.5 -106t31 -131q0 -58 -16.5 -110.5
t-56.5 -92.5t-107 -63.5t-167 -23.5h-330zM560 861q-58 0 -103.5 -20t-78 -55.5t-52.5 -84.5t-28 -107h298q40 0 72.5 2t55 11.5t34.5 28.5t12 52q0 46 -19.5 79t-50 54t-67.5 30.5t-73 9.5zM537 1139l-290 268l158 103l233 -301z" />
    <glyph glyph-name="emacron" unicode="&#x113;" horiz-adv-x="1059" 
d="M300 412q9 -62 32 -110t62 -81t95.5 -50.5t131.5 -17.5q72 0 136.5 23t118.5 52l64 -148q-82 -47 -167 -72.5t-190 -25.5q-240 0 -366.5 136t-126.5 400q0 126 34.5 222.5t97.5 162t151 99.5t196 34q88 0 162.5 -26t129 -71t85.5 -106t31 -131q0 -58 -16.5 -110.5
t-56.5 -92.5t-107 -63.5t-167 -23.5h-330zM560 861q-58 0 -103.5 -20t-78 -55.5t-52.5 -84.5t-28 -107h298q40 0 72.5 2t55 11.5t34.5 28.5t12 52q0 46 -19.5 79t-50 54t-67.5 30.5t-73 9.5zM880 1160h-619v148h619v-148z" />
    <glyph glyph-name="eogonek" unicode="&#x119;" horiz-adv-x="1059" 
d="M300 412q9 -62 32 -110t62 -81t95.5 -50.5t131.5 -17.5q72 0 136.5 23t118.5 52l64 -148q-82 -47 -167 -72.5t-190 -25.5q-240 0 -366.5 136t-126.5 400q0 126 34.5 222.5t97.5 162t151 99.5t196 34q88 0 162.5 -26t129 -71t85.5 -106t31 -131q0 -58 -16.5 -110.5
t-56.5 -92.5t-107 -63.5t-167 -23.5h-330zM560 861q-58 0 -103.5 -20t-78 -55.5t-52.5 -84.5t-28 -107h298q40 0 72.5 2t55 11.5t34.5 28.5t12 52q0 46 -19.5 79t-50 54t-67.5 30.5t-73 9.5zM948 -338q-38 -14 -80 -22t-94 -8t-94 13t-72 38t-46.5 60.5t-16.5 80.5
q0 38 16.5 70t41 59t54 49.5t56.5 40.5h132q-34 -30 -61 -53t-46.5 -44.5t-30 -44t-10.5 -51.5q0 -48 29.5 -74t74.5 -26q29 0 56 3t60 11z" />
    <glyph glyph-name="gbreve" unicode="&#x11f;" horiz-adv-x="1145" 
d="M629 1143q-89 0 -144 24.5t-87 61t-47.5 79t-25.5 77.5l135 31q6 -23 15 -48.5t27 -46.5t48 -35t80 -14t80 14t47.5 35t26 46.5t15.5 48.5l135 -31q-11 -36 -26.5 -78.5t-47.5 -78.5t-87 -60.5t-144 -24.5zM90 502q0 138 41.5 238.5t112 166t164 97.5t198.5 32
q53 0 107.5 -7.5t105.5 -20.5t97 -30t83 -35v-900h-2l2 -1v-8q0 -126 -35 -211t-96 -137t-143 -74t-176 -22q-41 0 -88.5 8t-96 22.5t-94.5 33.5t-83 41l60 140q53 -29 126 -52t151 -25q57 -1 106.5 13.5t86 48.5t57 88.5t20.5 133.5v42q-30 -22 -62.5 -40.5t-69 -32
t-78.5 -21.5t-90 -8q-95 0 -170 34t-127 100t-79.5 163t-27.5 223zM298 508q0 -173 68 -262t190 -89q30 0 62 7t63 19.5t58.5 28.5t47.5 34v581q-11 5 -29.5 11t-42.5 11t-53.5 8.5t-60.5 3.5q-57 0 -111 -19.5t-97 -61.5t-69 -109t-26 -163z" />
    <glyph glyph-name="gcircumflex" unicode="&#x11d;" horiz-adv-x="1145" 
d="M406 1127l-129 39l212 264h237l212 -264l-132 -41l-199 189zM90 502q0 138 41.5 238.5t112 166t164 97.5t198.5 32q53 0 107.5 -7.5t105.5 -20.5t97 -30t83 -35v-900h-2l2 -1v-8q0 -126 -35 -211t-96 -137t-143 -74t-176 -22q-41 0 -88.5 8t-96 22.5t-94.5 33.5t-83 41
l60 140q53 -29 126 -52t151 -25q57 -1 106.5 13.5t86 48.5t57 88.5t20.5 133.5v42q-30 -22 -62.5 -40.5t-69 -32t-78.5 -21.5t-90 -8q-95 0 -170 34t-127 100t-79.5 163t-27.5 223zM298 508q0 -173 68 -262t190 -89q30 0 62 7t63 19.5t58.5 28.5t47.5 34v581q-11 5 -29.5 11
t-42.5 11t-53.5 8.5t-60.5 3.5q-57 0 -111 -19.5t-97 -61.5t-69 -109t-26 -163z" />
    <glyph glyph-name="gcommaaccent" unicode="&#x123;" horiz-adv-x="1145" 
d="M621 1168q-131 0 -131 109q-1 64 11 120t32.5 104t48 89t57.5 75l99 -45q-32 -65 -56 -127.5t-25 -110.5q51 -7 73.5 -34t22.5 -74q0 -54 -33.5 -80t-98.5 -26zM90 502q0 138 41.5 238.5t112 166t164 97.5t198.5 32q53 0 107.5 -7.5t105.5 -20.5t97 -30t83 -35v-900h-2
l2 -1v-8q0 -126 -35 -211t-96 -137t-143 -74t-176 -22q-41 0 -88.5 8t-96 22.5t-94.5 33.5t-83 41l60 140q53 -29 126 -52t151 -25q57 -1 106.5 13.5t86 48.5t57 88.5t20.5 133.5v42q-30 -22 -62.5 -40.5t-69 -32t-78.5 -21.5t-90 -8q-95 0 -170 34t-127 100t-79.5 163
t-27.5 223zM298 508q0 -173 68 -262t190 -89q30 0 62 7t63 19.5t58.5 28.5t47.5 34v581q-11 5 -29.5 11t-42.5 11t-53.5 8.5t-60.5 3.5q-57 0 -111 -19.5t-97 -61.5t-69 -109t-26 -163z" />
    <glyph glyph-name="gdotaccent" unicode="&#x121;" horiz-adv-x="1145" 
d="M631 1355q111 0 111 -94q0 -42 -25.5 -67.5t-83.5 -25.5q-114 0 -114 95q0 92 112 92zM90 502q0 138 41.5 238.5t112 166t164 97.5t198.5 32q53 0 107.5 -7.5t105.5 -20.5t97 -30t83 -35v-900h-2l2 -1v-8q0 -126 -35 -211t-96 -137t-143 -74t-176 -22q-41 0 -88.5 8
t-96 22.5t-94.5 33.5t-83 41l60 140q53 -29 126 -52t151 -25q57 -1 106.5 13.5t86 48.5t57 88.5t20.5 133.5v42q-30 -22 -62.5 -40.5t-69 -32t-78.5 -21.5t-90 -8q-95 0 -170 34t-127 100t-79.5 163t-27.5 223zM298 508q0 -173 68 -262t190 -89q30 0 62 7t63 19.5t58.5 28.5
t47.5 34v581q-11 5 -29.5 11t-42.5 11t-53.5 8.5t-60.5 3.5q-57 0 -111 -19.5t-97 -61.5t-69 -109t-26 -163z" />
    <glyph glyph-name="hbar" unicode="&#x127;" 
d="M146 1444h212v-505q27 14 63 31t79 31.5t89.5 24.5t94.5 10q93 0 157.5 -34.5t104 -90t57.5 -124.5t18 -139v-648h-209v643q0 19 -3.5 55t-21.5 72t-55 63t-104 27q-30 0 -70 -9.5t-79 -23.5t-72 -29.5t-49 -28.5v-769h-212v1444zM663 1168h-619v148h619v-148z" />
    <glyph glyph-name="hcircumflex" unicode="&#x125;" 
d="M146 1444h212v-505q27 14 63 31t79 31.5t89.5 24.5t94.5 10q93 0 157.5 -34.5t104 -90t57.5 -124.5t18 -139v-648h-209v643q0 19 -3.5 55t-21.5 72t-55 63t-104 27q-30 0 -70 -9.5t-79 -23.5t-72 -29.5t-49 -28.5v-769h-212v1444zM56 1479l-129 39l212 264h237l212 -264
l-132 -41l-199 189z" />
    <glyph glyph-name="iacute" unicode="&#xed;" horiz-adv-x="504" 
d="M146 0v1013h212v-1013h-212zM191 1202l233 301l158 -103l-290 -268z" />
    <glyph glyph-name="ibreve" unicode="&#x12d;" horiz-adv-x="504" 
d="M146 0v1013h212v-1013h-212zM254 1149q-89 0 -144 24.5t-87 61t-47.5 79t-25.5 77.5l135 31q6 -23 15 -48.5t27 -46.5t48 -35t80 -14t80 14t47.5 35t26 46.5t15.5 48.5l135 -31q-11 -36 -26.5 -78.5t-47.5 -78.5t-87 -60.5t-144 -24.5z" />
    <glyph glyph-name="icircumflex" unicode="&#xee;" horiz-adv-x="504" 
d="M146 0v1013h212v-1013h-212zM39 1116l-129 39l212 264h237l212 -264l-132 -41l-199 189z" />
    <glyph glyph-name="idieresis" unicode="&#xef;" horiz-adv-x="504" 
d="M146 0v1013h212v-1013h-212zM86 1356q111 0 111 -94q0 -42 -25.5 -67.5t-83.5 -25.5q-114 0 -114 95q0 92 112 92zM430 1356q111 0 111 -94q0 -42 -26 -67.5t-83 -25.5q-114 0 -114 95q0 92 112 92z" />
    <glyph glyph-name="igrave" unicode="&#xec;" horiz-adv-x="504" 
d="M146 0v1013h212v-1013h-212zM221 1116l-290 268l158 103l233 -301z" />
    <glyph glyph-name="imacron" unicode="&#x12b;" horiz-adv-x="504" 
d="M146 0v1013h212v-1013h-212zM566 1158h-619v148h619v-148z" />
    <glyph glyph-name="iogonek" unicode="&#x12f;" horiz-adv-x="504" 
d="M146 0v1013h212v-1013h-212zM251 1390q130 0 130 -110q0 -48 -29.5 -77.5t-98.5 -29.5q-133 0 -133 109q0 56 33.5 82t97.5 26zM415 -381q-38 -14 -80 -22t-94 -8t-94 13t-72 38t-46.5 60.5t-16.5 80.5q0 38 16.5 70t41 59t54 49.5t56.5 40.5h132q-34 -30 -61 -53
t-46.5 -44.5t-30 -44t-10.5 -51.5q0 -48 29.5 -74t74.5 -26q29 0 56 3t60 11z" />
    <glyph glyph-name="itilde" unicode="&#x129;" horiz-adv-x="504" 
d="M146 0v1013h212v-1013h-212zM-128 1238q41 75 100.5 115t138.5 40q39 0 73.5 -11.5t67 -26t62.5 -26t60 -11.5q22 0 37.5 2.5t28.5 10t25 20t29 32.5l115 -71q-20 -39 -46.5 -68t-57 -48t-63 -28.5t-64.5 -9.5q-39 0 -74.5 11.5t-68.5 25.5t-63.5 25.5t-60.5 11.5
q-26 0 -42.5 -3.5t-29.5 -11t-24.5 -19.5t-27.5 -30z" />
    <glyph glyph-name="jcircumflex" unicode="&#x135;" horiz-adv-x="504" 
d="M-160 -143q102 -36 179 -34q62 2 94.5 49t32.5 135v1006h212v-1019q0 -35 -5.5 -73.5t-19 -76.5t-37 -73t-58.5 -61.5t-84 -42t-114 -15.5q-40 0 -77.5 6t-69 14.5t-56.5 18t-40 15.5zM45 1123l-129 39l212 264h237l212 -264l-132 -41l-199 189z" />
    <glyph glyph-name="kcommaaccent" unicode="&#x137;" horiz-adv-x="1100" 
d="M988 1013q-53 -136 -129.5 -244t-170.5 -190q30 -69 72.5 -143t92 -145t102 -135t103.5 -113l-150 -103q-48 34 -103.5 95.5t-108 135t-98 150t-72.5 139.5q-83 -48 -168 -78v-382h-212v1444h212v-859q77 32 138.5 76t111 99t88 118.5t70.5 134.5h222v0zM515 -54
q131 0 131 -109v-5q0 -63 -12 -118t-32.5 -103t-47.5 -88.5t-57 -74.5l-99 46q33 65 56.5 127.5t24.5 110.5q-51 7 -73 34t-22 74q0 54 33.5 80t97.5 26z" />
    <glyph glyph-name="lacute" unicode="&#x13a;" horiz-adv-x="504" 
d="M146 0v1444h212v-1444h-212zM197 1593l233 301l158 -103l-290 -268z" />
    <glyph glyph-name="lcaron" unicode="&#x13e;" horiz-adv-x="687" 
d="M146 0v1444h212v-1444h-212zM592 1460q131 0 131 -109v-5q0 -63 -12 -118t-32.5 -103t-47.5 -88.5t-57 -74.5l-99 46q33 65 56.5 127.5t24.5 110.5q-51 7 -73 34t-22 74q0 54 33.5 80t97.5 26z" />
    <glyph glyph-name="ldot" unicode="&#x140;" horiz-adv-x="640" 
d="M566 828q111 0 111 -94q0 -42 -25.5 -67.5t-83.5 -25.5q-114 0 -114 95q0 92 112 92zM146 0v1444h212v-1444h-212z" />
    <glyph glyph-name="lslash" unicode="&#x142;" horiz-adv-x="504" 
d="M530 740l-499 -245l-63 134l499 244zM146 0v1444h212v-1444h-212z" />
    <glyph glyph-name="nacute" unicode="&#x144;" 
d="M146 865q34 24 88 53.5t122.5 56t149 44t168.5 17.5q100 0 167.5 -31t109 -83t59.5 -120.5t18 -143.5v-658h-212v645q0 36 -7.5 74t-27 69t-54 50.5t-89.5 19.5q-38 0 -78 -9.5t-77.5 -24t-70 -31t-54.5 -29.5v-764h-212v865zM525 1194l233 301l158 -103l-290 -268z" />
    <glyph glyph-name="ncaron" unicode="&#x148;" 
d="M147 865q34 24 88 53.5t122.5 56t149 44t168.5 17.5q100 0 167.5 -31t109 -83t59.5 -120.5t18 -143.5v-658h-212v645q0 36 -7.5 74t-27 69t-54 50.5t-89.5 19.5q-38 0 -78 -9.5t-77.5 -24t-70 -31t-54.5 -29.5v-764h-212v865zM599 1266l172 176l160 -40l-213 -251h-238
l-212 253l161 37z" />
    <glyph glyph-name="ncommaaccent" unicode="&#x146;" 
d="M146 865q34 24 88 53.5t122.5 56t149 44t168.5 17.5q100 0 167.5 -31t109 -83t59.5 -120.5t18 -143.5v-658h-212v645q0 36 -7.5 74t-27 69t-54 50.5t-89.5 19.5q-38 0 -78 -9.5t-77.5 -24t-70 -31t-54.5 -29.5v-764h-212v865zM542 -38q131 0 131 -109v-5q0 -63 -12 -118
t-32.5 -103t-47.5 -88.5t-57 -74.5l-99 46q33 65 56.5 127.5t24.5 110.5q-51 7 -73 34t-22 74q0 54 33.5 80t97.5 26z" />
    <glyph glyph-name="ntilde" unicode="&#xf1;" 
d="M150 865q34 24 88 53.5t122.5 56t149 44t168.5 17.5q100 0 167.5 -31t109 -83t59.5 -120.5t18 -143.5v-658h-212v645q0 36 -7.5 74t-27 69t-54 50.5t-89.5 19.5q-38 0 -78 -9.5t-77.5 -24t-70 -31t-54.5 -29.5v-764h-212v865zM245 1242q41 75 100.5 115t138.5 40
q39 0 73.5 -11.5t67 -26t62.5 -26t60 -11.5q22 0 37.5 2.5t28.5 10t25 20t29 32.5l115 -71q-20 -39 -46.5 -68t-57 -48t-63 -28.5t-64.5 -9.5q-39 0 -74.5 11.5t-68.5 25.5t-63.5 25.5t-60.5 11.5q-26 0 -42.5 -3.5t-29.5 -11t-24.5 -19.5t-27.5 -30z" />
    <glyph glyph-name="oacute" unicode="&#xf3;" horiz-adv-x="1157" 
d="M90 516q0 120 33 216t95.5 163.5t153.5 104t207 36.5q94 0 182.5 -28.5t156 -90.5t108.5 -161t41 -241q0 -129 -33.5 -228.5t-96.5 -167t-153.5 -102.5t-204.5 -35t-204.5 34t-153.5 101.5t-97 167.5t-34 231zM298 515q0 -98 20.5 -166t58 -110.5t89 -62t114.5 -19.5
t114.5 20t88.5 63.5t57 111.5t20 163q0 90 -21 155t-58.5 107.5t-88.5 63t-112 20.5q-63 0 -115 -21t-89 -64t-57.5 -108t-20.5 -153zM537 1191l233 301l158 -103l-290 -268z" />
    <glyph glyph-name="obreve" unicode="&#x14f;" horiz-adv-x="1157" 
d="M90 516q0 120 33 216t95.5 163.5t153.5 104t207 36.5q94 0 182.5 -28.5t156 -90.5t108.5 -161t41 -241q0 -129 -33.5 -228.5t-96.5 -167t-153.5 -102.5t-204.5 -35t-204.5 34t-153.5 101.5t-97 167.5t-34 231zM298 515q0 -98 20.5 -166t58 -110.5t89 -62t114.5 -19.5
t114.5 20t88.5 63.5t57 111.5t20 163q0 90 -21 155t-58.5 107.5t-88.5 63t-112 20.5q-63 0 -115 -21t-89 -64t-57.5 -108t-20.5 -153zM582 1159q-89 0 -144 24.5t-87 61t-47.5 79t-25.5 77.5l135 31q6 -23 15 -48.5t27 -46.5t48 -35t80 -14t80 14t47.5 35t26 46.5t15.5 48.5
l135 -31q-11 -36 -26.5 -78.5t-47.5 -78.5t-87 -60.5t-144 -24.5z" />
    <glyph glyph-name="ocircumflex" unicode="&#xf4;" horiz-adv-x="1157" 
d="M90 516q0 120 33 216t95.5 163.5t153.5 104t207 36.5q94 0 182.5 -28.5t156 -90.5t108.5 -161t41 -241q0 -129 -33.5 -228.5t-96.5 -167t-153.5 -102.5t-204.5 -35t-204.5 34t-153.5 101.5t-97 167.5t-34 231zM298 515q0 -98 20.5 -166t58 -110.5t89 -62t114.5 -19.5
t114.5 20t88.5 63.5t57 111.5t20 163q0 90 -21 155t-58.5 107.5t-88.5 63t-112 20.5q-63 0 -115 -21t-89 -64t-57.5 -108t-20.5 -153zM385 1123l-129 39l212 264h237l212 -264l-132 -41l-199 189z" />
    <glyph glyph-name="odieresis" unicode="&#xf6;" horiz-adv-x="1157" 
d="M90 516q0 120 33 216t95.5 163.5t153.5 104t207 36.5q94 0 182.5 -28.5t156 -90.5t108.5 -161t41 -241q0 -129 -33.5 -228.5t-96.5 -167t-153.5 -102.5t-204.5 -35t-204.5 34t-153.5 101.5t-97 167.5t-34 231zM298 515q0 -98 20.5 -166t58 -110.5t89 -62t114.5 -19.5
t114.5 20t88.5 63.5t57 111.5t20 163q0 90 -21 155t-58.5 107.5t-88.5 63t-112 20.5q-63 0 -115 -21t-89 -64t-57.5 -108t-20.5 -153zM400 1365q111 0 111 -94q0 -42 -25.5 -67.5t-83.5 -25.5q-114 0 -114 95q0 92 112 92zM744 1365q111 0 111 -94q0 -42 -26 -67.5
t-83 -25.5q-114 0 -114 95q0 92 112 92z" />
    <glyph glyph-name="ograve" unicode="&#xf2;" horiz-adv-x="1157" 
d="M90 516q0 120 33 216t95.5 163.5t153.5 104t207 36.5q94 0 182.5 -28.5t156 -90.5t108.5 -161t41 -241q0 -129 -33.5 -228.5t-96.5 -167t-153.5 -102.5t-204.5 -35t-204.5 34t-153.5 101.5t-97 167.5t-34 231zM298 515q0 -98 20.5 -166t58 -110.5t89 -62t114.5 -19.5
t114.5 20t88.5 63.5t57 111.5t20 163q0 90 -21 155t-58.5 107.5t-88.5 63t-112 20.5q-63 0 -115 -21t-89 -64t-57.5 -108t-20.5 -153zM528 1137l-290 268l158 103l233 -301z" />
    <glyph glyph-name="ohungarumlaut" unicode="&#x151;" horiz-adv-x="1157" 
d="M90 516q0 120 33 216t95.5 163.5t153.5 104t207 36.5q94 0 182.5 -28.5t156 -90.5t108.5 -161t41 -241q0 -129 -33.5 -228.5t-96.5 -167t-153.5 -102.5t-204.5 -35t-204.5 34t-153.5 101.5t-97 167.5t-34 231zM298 515q0 -98 20.5 -166t58 -110.5t89 -62t114.5 -19.5
t114.5 20t88.5 63.5t57 111.5t20 163q0 90 -21 155t-58.5 107.5t-88.5 63t-112 20.5q-63 0 -115 -21t-89 -64t-57.5 -108t-20.5 -153zM349 1195l234 301l151 -95l-293 -269zM713 1195l234 301l152 -95l-293 -269z" />
    <glyph glyph-name="omacron" unicode="&#x14d;" horiz-adv-x="1157" 
d="M90 516q0 120 33 216t95.5 163.5t153.5 104t207 36.5q94 0 182.5 -28.5t156 -90.5t108.5 -161t41 -241q0 -129 -33.5 -228.5t-96.5 -167t-153.5 -102.5t-204.5 -35t-204.5 34t-153.5 101.5t-97 167.5t-34 231zM298 515q0 -98 20.5 -166t58 -110.5t89 -62t114.5 -19.5
t114.5 20t88.5 63.5t57 111.5t20 163q0 90 -21 155t-58.5 107.5t-88.5 63t-112 20.5q-63 0 -115 -21t-89 -64t-57.5 -108t-20.5 -153zM886 1170h-619v148h619v-148z" />
    <glyph glyph-name="otilde" unicode="&#xf5;" horiz-adv-x="1157" 
d="M90 516q0 120 33 216t95.5 163.5t153.5 104t207 36.5q94 0 182.5 -28.5t156 -90.5t108.5 -161t41 -241q0 -129 -33.5 -228.5t-96.5 -167t-153.5 -102.5t-204.5 -35t-204.5 34t-153.5 101.5t-97 167.5t-34 231zM298 515q0 -98 20.5 -166t58 -110.5t89 -62t114.5 -19.5
t114.5 20t88.5 63.5t57 111.5t20 163q0 90 -21 155t-58.5 107.5t-88.5 63t-112 20.5q-63 0 -115 -21t-89 -64t-57.5 -108t-20.5 -153zM202 1228q41 75 100.5 115t138.5 40q39 0 73.5 -11.5t67 -26t62.5 -26t60 -11.5q22 0 37.5 2.5t28.5 10t25 20t29 32.5l115 -71
q-20 -39 -46.5 -68t-57 -48t-63 -28.5t-64.5 -9.5q-39 0 -74.5 11.5t-68.5 25.5t-63.5 25.5t-60.5 11.5q-26 0 -42.5 -3.5t-29.5 -11t-24.5 -19.5t-27.5 -30z" />
    <glyph glyph-name="racute" unicode="&#x155;" horiz-adv-x="821" 
d="M157 886q162 111 322 137.5t316 -20.5l-32 -165q-47 9 -96 12.5t-99 -2.5t-100 -24t-99 -52v-772h-212v886zM405 1201l233 301l158 -103l-290 -268z" />
    <glyph glyph-name="rcaron" unicode="&#x159;" horiz-adv-x="821" 
d="M157 886q162 111 322 137.5t316 -20.5l-32 -165q-47 9 -96 12.5t-99 -2.5t-100 -24t-99 -52v-772h-212v886zM498 1268l172 176l160 -40l-213 -251h-238l-212 253l161 37z" />
    <glyph glyph-name="rcommaaccent" unicode="&#x157;" horiz-adv-x="821" 
d="M157 886q162 111 322 137.5t316 -20.5l-32 -165q-47 9 -96 12.5t-99 -2.5t-100 -24t-99 -52v-772h-212v886zM242 -70q131 0 131 -109v-5q0 -63 -12 -118t-32.5 -103t-47.5 -88.5t-57 -74.5l-99 46q33 65 56.5 127.5t24.5 110.5q-51 7 -73 34t-22 74q0 54 33.5 80t97.5 26
z" />
    <glyph glyph-name="sacute" unicode="&#x15b;" horiz-adv-x="898" 
d="M124 233q90 -44 165.5 -61.5t145.5 -17.5q39 0 71 11.5t55 30.5t36.5 43t13.5 50q0 23 -9 42.5t-33.5 38.5t-66.5 39t-107 44q-63 22 -119 45t-97.5 56t-66 80t-24.5 117q0 71 28 124.5t77 89t116.5 53.5t146.5 18q102 0 183 -20t154 -58l-60 -149q-71 28 -127 40.5
t-110 12.5q-94 0 -147 -29.5t-53 -93.5q0 -32 19.5 -51.5t51 -33.5t71 -25t78.5 -24q83 -28 140.5 -60t93 -71t51.5 -86t16 -105q0 -65 -27.5 -120.5t-76.5 -95.5t-116.5 -62.5t-148.5 -22.5q-68 0 -126.5 9t-107 22.5t-87 30.5t-65.5 32zM458 1197l233 301l158 -103
l-290 -268z" />
    <glyph glyph-name="scaron" unicode="&#x161;" horiz-adv-x="898" 
d="M124 233q90 -44 165.5 -61.5t145.5 -17.5q39 0 71 11.5t55 30.5t36.5 43t13.5 50q0 23 -9 42.5t-33.5 38.5t-66.5 39t-107 44q-63 22 -119 45t-97.5 56t-66 80t-24.5 117q0 71 28 124.5t77 89t116.5 53.5t146.5 18q102 0 183 -20t154 -58l-60 -149q-71 28 -127 40.5
t-110 12.5q-94 0 -147 -29.5t-53 -93.5q0 -32 19.5 -51.5t51 -33.5t71 -25t78.5 -24q83 -28 140.5 -60t93 -71t51.5 -86t16 -105q0 -65 -27.5 -120.5t-76.5 -95.5t-116.5 -62.5t-148.5 -22.5q-68 0 -126.5 9t-107 22.5t-87 30.5t-65.5 32zM460 1262l172 176l160 -40
l-213 -251h-238l-212 253l161 37z" />
    <glyph glyph-name="scedilla" unicode="&#x15f;" horiz-adv-x="898" 
d="M124 233q90 -44 165.5 -61.5t145.5 -17.5q39 0 71 11.5t55 30.5t36.5 43t13.5 50q0 23 -9 42.5t-33.5 38.5t-66.5 39t-107 44q-63 22 -119 45t-97.5 56t-66 80t-24.5 117q0 71 28 124.5t77 89t116.5 53.5t146.5 18q102 0 183 -20t154 -58l-60 -149q-71 28 -127 40.5
t-110 12.5q-94 0 -147 -29.5t-53 -93.5q0 -32 19.5 -51.5t51 -33.5t71 -25t78.5 -24q83 -28 140.5 -60t93 -71t51.5 -86t16 -105q0 -65 -27.5 -120.5t-76.5 -95.5t-116.5 -62.5t-148.5 -22.5q-68 0 -126.5 9t-107 22.5t-87 30.5t-65.5 32zM293 -302q33 -9 60 -12t56 -3
q45 0 71 18t26 54q0 44 -29.5 59t-86.5 15q-17 0 -38 -1t-41 -3l64 165h157l-35 -83q35 -3 64 -14t50 -31t32.5 -49t11.5 -69q0 -91 -57.5 -135t-161.5 -44q-52 0 -94 8t-80 22z" />
    <glyph glyph-name="scircumflex" unicode="&#x15d;" horiz-adv-x="898" 
d="M124 233q90 -44 165.5 -61.5t145.5 -17.5q39 0 71 11.5t55 30.5t36.5 43t13.5 50q0 23 -9 42.5t-33.5 38.5t-66.5 39t-107 44q-63 22 -119 45t-97.5 56t-66 80t-24.5 117q0 71 28 124.5t77 89t116.5 53.5t146.5 18q102 0 183 -20t154 -58l-60 -149q-71 28 -127 40.5
t-110 12.5q-94 0 -147 -29.5t-53 -93.5q0 -32 19.5 -51.5t51 -33.5t71 -25t78.5 -24q83 -28 140.5 -60t93 -71t51.5 -86t16 -105q0 -65 -27.5 -120.5t-76.5 -95.5t-116.5 -62.5t-148.5 -22.5q-68 0 -126.5 9t-107 22.5t-87 30.5t-65.5 32zM271 1111l-129 39l212 264h237
l212 -264l-132 -41l-199 189z" />
    <glyph glyph-name="scommaaccent" unicode="&#x219;" horiz-adv-x="898" 
d="M124 233q90 -44 165.5 -61.5t145.5 -17.5q39 0 71 11.5t55 30.5t36.5 43t13.5 50q0 23 -9 42.5t-33.5 38.5t-66.5 39t-107 44q-63 22 -119 45t-97.5 56t-66 80t-24.5 117q0 71 28 124.5t77 89t116.5 53.5t146.5 18q102 0 183 -20t154 -58l-60 -149q-71 28 -127 40.5
t-110 12.5q-94 0 -147 -29.5t-53 -93.5q0 -32 19.5 -51.5t51 -33.5t71 -25t78.5 -24q83 -28 140.5 -60t93 -71t51.5 -86t16 -105q0 -65 -27.5 -120.5t-76.5 -95.5t-116.5 -62.5t-148.5 -22.5q-68 0 -126.5 9t-107 22.5t-87 30.5t-65.5 32zM418 -95q131 0 131 -109v-5
q0 -63 -12 -118t-32.5 -103t-47.5 -88.5t-57 -74.5l-99 46q33 65 56.5 127.5t24.5 110.5q-51 7 -73 34t-22 74q0 54 33.5 80t97.5 26z" />
    <glyph glyph-name="tbar" unicode="&#x167;" horiz-adv-x="801" 
d="M555 478h-477v138h477v-138zM90 992l118 21l26 248h186v-248h234v-163h-234v-533q0 -36 5.5 -65.5t19 -50.5t34.5 -32.5t53 -11.5q51 0 85 12t66 25l54 -145q-28 -15 -56 -27.5t-59 -21t-66 -13.5t-77 -5q-60 0 -110 19t-85.5 57.5t-55.5 98t-20 140.5v553h-118v142z" />
    <glyph glyph-name="tcaron" unicode="&#x165;" horiz-adv-x="951" 
d="M90 992l118 21l26 248h186v-248h234v-163h-234v-533q0 -36 5.5 -65.5t19 -50.5t34.5 -32.5t53 -11.5q51 0 85 12t66 25l54 -145q-28 -15 -56 -27.5t-59 -21t-66 -13.5t-77 -5q-60 0 -110 19t-85.5 57.5t-55.5 98t-20 140.5v553h-118v142zM804 1432q131 0 131 -109v-5
q0 -63 -12 -118t-32.5 -103t-47.5 -88.5t-57 -74.5l-99 46q33 65 56.5 127.5t24.5 110.5q-51 7 -73 34t-22 74q0 54 33.5 80t97.5 26z" />
    <glyph glyph-name="tcommaaccent" unicode="&#x163;" horiz-adv-x="801" 
d="M90 992l118 21l26 248h186v-248h234v-163h-234v-533q0 -36 5.5 -65.5t19 -50.5t34.5 -32.5t53 -11.5q51 0 85 12t66 25l54 -145q-28 -15 -56 -27.5t-59 -21t-66 -13.5t-77 -5q-60 0 -110 19t-85.5 57.5t-55.5 98t-20 140.5v553h-118v142zM484 -84q131 0 131 -109v-5
q0 -63 -12 -118t-32.5 -103t-47.5 -88.5t-57 -74.5l-99 46q33 65 56.5 127.5t24.5 110.5q-51 7 -73 34t-22 74q0 54 33.5 80t97.5 26z" />
    <glyph glyph-name="uacute" unicode="&#xfa;" 
d="M132 1013h212v-601q0 -74 17 -123.5t47 -78.5t70.5 -41t87.5 -12q72 0 130.5 20.5t106.5 59.5v776h212v-1013h-184l-25 98q-23 -21 -53.5 -42t-67.5 -37.5t-80 -26.5t-91 -10q-99 0 -171.5 30t-119 84t-69 129t-22.5 165v623zM504 1183l233 301l158 -103l-290 -268z" />
    <glyph glyph-name="ubreve" unicode="&#x16d;" 
d="M132 1013h212v-601q0 -74 17 -123.5t47 -78.5t70.5 -41t87.5 -12q72 0 130.5 20.5t106.5 59.5v776h212v-1013h-184l-25 98q-23 -21 -53.5 -42t-67.5 -37.5t-80 -26.5t-91 -10q-99 0 -171.5 30t-119 84t-69 129t-22.5 165v623zM595 1164q-89 0 -144 24.5t-87 61t-47.5 79
t-25.5 77.5l135 31q6 -23 15 -48.5t27 -46.5t48 -35t80 -14t80 14t47.5 35t26 46.5t15.5 48.5l135 -31q-11 -36 -26.5 -78.5t-47.5 -78.5t-87 -60.5t-144 -24.5z" />
    <glyph glyph-name="ucircumflex" unicode="&#xfb;" 
d="M132 1013h212v-601q0 -74 17 -123.5t47 -78.5t70.5 -41t87.5 -12q72 0 130.5 20.5t106.5 59.5v776h212v-1013h-184l-25 98q-23 -21 -53.5 -42t-67.5 -37.5t-80 -26.5t-91 -10q-99 0 -171.5 30t-119 84t-69 129t-22.5 165v623zM391 1130l-129 39l212 264h237l212 -264
l-132 -41l-199 189z" />
    <glyph glyph-name="udieresis" unicode="&#xfc;" 
d="M132 1013h212v-601q0 -74 17 -123.5t47 -78.5t70.5 -41t87.5 -12q72 0 130.5 20.5t106.5 59.5v776h212v-1013h-184l-25 98q-23 -21 -53.5 -42t-67.5 -37.5t-80 -26.5t-91 -10q-99 0 -171.5 30t-119 84t-69 129t-22.5 165v623zM432 1354q111 0 111 -94q0 -42 -25.5 -67.5
t-83.5 -25.5q-114 0 -114 95q0 92 112 92zM776 1354q111 0 111 -94q0 -42 -26 -67.5t-83 -25.5q-114 0 -114 95q0 92 112 92z" />
    <glyph glyph-name="uhungarumlaut" unicode="&#x171;" 
d="M137 1013h212v-601q0 -74 17 -123.5t47 -78.5t70.5 -41t87.5 -12q72 0 130.5 20.5t106.5 59.5v776h212v-1013h-184l-25 98q-23 -21 -53.5 -42t-67.5 -37.5t-80 -26.5t-91 -10q-99 0 -171.5 30t-119 84t-69 129t-22.5 165v623zM342 1180l234 301l151 -95l-293 -269z
M706 1180l234 301l152 -95l-293 -269z" />
    <glyph glyph-name="ugrave" unicode="&#xf9;" 
d="M132 1013h212v-601q0 -74 17 -123.5t47 -78.5t70.5 -41t87.5 -12q72 0 130.5 20.5t106.5 59.5v776h212v-1013h-184l-25 98q-23 -21 -53.5 -42t-67.5 -37.5t-80 -26.5t-91 -10q-99 0 -171.5 30t-119 84t-69 129t-22.5 165v623zM581 1128l-290 268l158 103l233 -301z" />
    <glyph glyph-name="umacron" unicode="&#x16b;" 
d="M142 1013h212v-601q0 -74 17 -123.5t47 -78.5t70.5 -41t87.5 -12q72 0 130.5 20.5t106.5 59.5v776h212v-1013h-184l-25 98q-23 -21 -53.5 -42t-67.5 -37.5t-80 -26.5t-91 -10q-99 0 -171.5 30t-119 84t-69 129t-22.5 165v623zM926 1158h-619v148h619v-148z" />
    <glyph glyph-name="uogonek" unicode="&#x173;" 
d="M132 1013h212v-601q0 -74 17 -123.5t47 -78.5t70.5 -41t87.5 -12q72 0 130.5 20.5t106.5 59.5v776h212v-1013h-184l-25 98q-23 -21 -53.5 -42t-67.5 -37.5t-80 -26.5t-91 -10q-99 0 -171.5 30t-119 84t-69 129t-22.5 165v623zM1111 -381q-38 -14 -80 -22t-94 -8t-94 13
t-72 38t-46.5 60.5t-16.5 80.5q0 38 16.5 70t41 59t54 49.5t56.5 40.5h132q-34 -30 -61 -53t-46.5 -44.5t-30 -44t-10.5 -51.5q0 -48 29.5 -74t74.5 -26q29 0 56 3t60 11z" />
    <glyph glyph-name="uring" unicode="&#x16f;" 
d="M132 1013h212v-601q0 -74 17 -123.5t47 -78.5t70.5 -41t87.5 -12q72 0 130.5 20.5t106.5 59.5v776h212v-1013h-184l-25 98q-23 -21 -53.5 -42t-67.5 -37.5t-80 -26.5t-91 -10q-99 0 -171.5 30t-119 84t-69 129t-22.5 165v623zM617 1338q-29 0 -46.5 -13t-17.5 -42
q0 -30 16.5 -43.5t48.5 -13.5q34 0 47 15.5t13 39.5q0 31 -16 44t-45 13zM618 1429q81 0 124 -35.5t43 -112.5q0 -32 -9 -58.5t-29 -46t-51.5 -30.5t-75.5 -11q-85 0 -129 36.5t-44 112.5q0 77 45 111t126 34z" />
    <glyph glyph-name="utilde" unicode="&#x169;" 
d="M134 1013h212v-601q0 -74 17 -123.5t47 -78.5t70.5 -41t87.5 -12q72 0 130.5 20.5t106.5 59.5v776h212v-1013h-184l-25 98q-23 -21 -53.5 -42t-67.5 -37.5t-80 -26.5t-91 -10q-99 0 -171.5 30t-119 84t-69 129t-22.5 165v623zM219 1228q41 75 100.5 115t138.5 40
q39 0 73.5 -11.5t67 -26t62.5 -26t60 -11.5q22 0 37.5 2.5t28.5 10t25 20t29 32.5l115 -71q-20 -39 -46.5 -68t-57 -48t-63 -28.5t-64.5 -9.5q-39 0 -74.5 11.5t-68.5 25.5t-63.5 25.5t-60.5 11.5q-26 0 -42.5 -3.5t-29.5 -11t-24.5 -19.5t-27.5 -30z" />
    <glyph glyph-name="wacute" unicode="&#x1e83;" horiz-adv-x="1681" 
d="M1608 1013q-14 -128 -39.5 -256.5t-60 -255.5t-76.5 -252.5t-88 -248.5h-278q-74 183 -131.5 362t-92.5 368h-5q-19 -104 -44 -200t-54 -186.5t-61 -176t-65 -167.5h-276q-45 112 -88.5 244.5t-79.5 267.5t-62 264.5t-36 236.5l225 10q7 -92 23 -197.5t38.5 -213.5
t51.5 -214.5t62 -200.5h8q46 110 83.5 223t65 220t46.5 202.5t30 170.5h272q9 -82 31 -185.5t53 -213t67 -218t73 -199.5h9q19 54 39 123.5t39 145.5t35.5 155.5t29.5 153t21.5 138t10.5 110.5zM788 1214l233 301l158 -103l-290 -268z" />
    <glyph glyph-name="wcircumflex" unicode="&#x175;" horiz-adv-x="1681" 
d="M1608 1013q-14 -128 -39.5 -256.5t-60 -255.5t-76.5 -252.5t-88 -248.5h-278q-74 183 -131.5 362t-92.5 368h-5q-19 -104 -44 -200t-54 -186.5t-61 -176t-65 -167.5h-276q-45 112 -88.5 244.5t-79.5 267.5t-62 264.5t-36 236.5l225 10q7 -92 23 -197.5t38.5 -213.5
t51.5 -214.5t62 -200.5h8q46 110 83.5 223t65 220t46.5 202.5t30 170.5h272q9 -82 31 -185.5t53 -213t67 -218t73 -199.5h9q19 54 39 123.5t39 145.5t35.5 155.5t29.5 153t21.5 138t10.5 110.5zM655 1137l-129 39l212 264h237l212 -264l-132 -41l-199 189z" />
    <glyph glyph-name="wdieresis" unicode="&#x1e85;" horiz-adv-x="1681" 
d="M1608 1013q-14 -128 -39.5 -256.5t-60 -255.5t-76.5 -252.5t-88 -248.5h-278q-74 183 -131.5 362t-92.5 368h-5q-19 -104 -44 -200t-54 -186.5t-61 -176t-65 -167.5h-276q-45 112 -88.5 244.5t-79.5 267.5t-62 264.5t-36 236.5l225 10q7 -92 23 -197.5t38.5 -213.5
t51.5 -214.5t62 -200.5h8q46 110 83.5 223t65 220t46.5 202.5t30 170.5h272q9 -82 31 -185.5t53 -213t67 -218t73 -199.5h9q19 54 39 123.5t39 145.5t35.5 155.5t29.5 153t21.5 138t10.5 110.5zM661 1364q111 0 111 -94q0 -42 -25.5 -67.5t-83.5 -25.5q-114 0 -114 95
q0 92 112 92zM1005 1364q111 0 111 -94q0 -42 -26 -67.5t-83 -25.5q-114 0 -114 95q0 92 112 92z" />
    <glyph glyph-name="wgrave" unicode="&#x1e81;" horiz-adv-x="1681" 
d="M1608 1013q-14 -128 -39.5 -256.5t-60 -255.5t-76.5 -252.5t-88 -248.5h-278q-74 183 -131.5 362t-92.5 368h-5q-19 -104 -44 -200t-54 -186.5t-61 -176t-65 -167.5h-276q-45 112 -88.5 244.5t-79.5 267.5t-62 264.5t-36 236.5l225 10q7 -92 23 -197.5t38.5 -213.5
t51.5 -214.5t62 -200.5h8q46 110 83.5 223t65 220t46.5 202.5t30 170.5h272q9 -82 31 -185.5t53 -213t67 -218t73 -199.5h9q19 54 39 123.5t39 145.5t35.5 155.5t29.5 153t21.5 138t10.5 110.5zM811 1127l-290 268l158 103l233 -301z" />
    <glyph glyph-name="yacute" unicode="&#xfd;" horiz-adv-x="1072" 
d="M182 -377q30 36 63 80.5t67 94t66.5 101t59.5 101.5h-32q-74 129 -132 257t-101.5 254t-73.5 251.5t-49 250.5l227 10q13 -109 37 -222t56.5 -222t73 -210t86.5 -187h12q56 102 99 217t74.5 228t51 215.5t27.5 180.5l227 -10q-9 -81 -28.5 -170.5t-46.5 -182.5t-60 -185
t-69 -178t-74.5 -161.5t-76.5 -135.5q-23 -44 -58.5 -106.5t-75.5 -129t-81 -130.5t-74 -112zM534 1208l233 301l158 -103l-290 -268z" />
    <glyph glyph-name="ycircumflex" unicode="&#x177;" horiz-adv-x="1072" 
d="M182 -377q30 36 63 80.5t67 94t66.5 101t59.5 101.5h-32q-74 129 -132 257t-101.5 254t-73.5 251.5t-49 250.5l227 10q13 -109 37 -222t56.5 -222t73 -210t86.5 -187h12q56 102 99 217t74.5 228t51 215.5t27.5 180.5l227 -10q-9 -81 -28.5 -170.5t-46.5 -182.5t-60 -185
t-69 -178t-74.5 -161.5t-76.5 -135.5q-23 -44 -58.5 -106.5t-75.5 -129t-81 -130.5t-74 -112zM353 1134l-129 39l212 264h237l212 -264l-132 -41l-199 189z" />
    <glyph glyph-name="ydieresis" unicode="&#xff;" horiz-adv-x="1072" 
d="M182 -377q30 36 63 80.5t67 94t66.5 101t59.5 101.5h-32q-74 129 -132 257t-101.5 254t-73.5 251.5t-49 250.5l227 10q13 -109 37 -222t56.5 -222t73 -210t86.5 -187h12q56 102 99 217t74.5 228t51 215.5t27.5 180.5l227 -10q-9 -81 -28.5 -170.5t-46.5 -182.5t-60 -185
t-69 -178t-74.5 -161.5t-76.5 -135.5q-23 -44 -58.5 -106.5t-75.5 -129t-81 -130.5t-74 -112zM368 1328q111 0 111 -94q0 -42 -25.5 -67.5t-83.5 -25.5q-114 0 -114 95q0 92 112 92zM712 1328q111 0 111 -94q0 -42 -26 -67.5t-83 -25.5q-114 0 -114 95q0 92 112 92z" />
    <glyph glyph-name="ygrave" unicode="&#x1ef3;" horiz-adv-x="1072" 
d="M182 -377q30 36 63 80.5t67 94t66.5 101t59.5 101.5h-32q-74 129 -132 257t-101.5 254t-73.5 251.5t-49 250.5l227 10q13 -109 37 -222t56.5 -222t73 -210t86.5 -187h12q56 102 99 217t74.5 228t51 215.5t27.5 180.5l227 -10q-9 -81 -28.5 -170.5t-46.5 -182.5t-60 -185
t-69 -178t-74.5 -161.5t-76.5 -135.5q-23 -44 -58.5 -106.5t-75.5 -129t-81 -130.5t-74 -112zM537 1125l-290 268l158 103l233 -301z" />
    <glyph glyph-name="zacute" unicode="&#x17a;" horiz-adv-x="992" 
d="M127 837v176h757v-152q-54 -89 -124 -173.5t-143.5 -168t-144.5 -168t-127 -172.5v-4h548v-175h-810v160q55 87 125.5 169.5t144 165t143.5 166t123 172.5v4h-492zM461 1200l233 301l158 -103l-290 -268z" />
    <glyph glyph-name="zcaron" unicode="&#x17e;" horiz-adv-x="992" 
d="M127 837v176h757v-152q-54 -89 -124 -173.5t-143.5 -168t-144.5 -168t-127 -172.5v-4h548v-175h-810v160q55 87 125.5 169.5t144 165t143.5 166t123 172.5v4h-492zM512 1264l172 176l160 -40l-213 -251h-238l-212 253l161 37z" />
    <glyph glyph-name="zdotaccent" unicode="&#x17c;" horiz-adv-x="992" 
d="M127 837v176h757v-152q-54 -89 -124 -173.5t-143.5 -168t-144.5 -168t-127 -172.5v-4h548v-175h-810v160q55 87 125.5 169.5t144 165t143.5 166t123 172.5v4h-492zM523 1337q111 0 111 -94q0 -42 -25.5 -67.5t-83.5 -25.5q-114 0 -114 95q0 92 112 92z" />
    <glyph glyph-name="macron" unicode="&#xaf;" horiz-adv-x="1100" 
d="M904 1158h-619v148h619v-148z" />
    <glyph glyph-name="dotlessi" unicode="&#x131;" horiz-adv-x="504" 
d="M146 0v1013h212v-1013h-212z" />
    <glyph glyph-name="dotlessj" unicode="&#x237;" horiz-adv-x="504" 
d="M-160 -143q102 -36 179 -34q62 2 94.5 49t32.5 135v1006h212v-1019q0 -35 -5.5 -73.5t-19 -76.5t-37 -73t-58.5 -61.5t-84 -42t-114 -15.5q-40 0 -77.5 6t-69 14.5t-56.5 18t-40 15.5z" />
    <glyph glyph-name="cent" unicode="&#xa2;" horiz-adv-x="933" 
d="M429 969v198h197v-192zM626 35v-175h-197v175h197zM63 519q0 131 34 228t94.5 161.5t144.5 96t184 31.5q82 0 165.5 -20.5t168.5 -70.5l-63 -144q-114 60 -235 60q-142 0 -213.5 -90t-71.5 -261t71.5 -262t216.5 -91q64 0 122 17t110 42l63 -143q-78 -45 -160.5 -68
t-175.5 -23q-123 0 -209 40.5t-141 112t-80 170t-25 214.5z" />
    <glyph glyph-name="dollar" unicode="$" horiz-adv-x="1075" 
d="M415 1369v152h196v-152h-196zM611 35v-175h-196v175h196zM115 273q74 -35 128.5 -56t99 -32.5t84 -15t83.5 -3.5q66 0 114.5 17t80 46t47 68.5t15.5 84.5t-15 81t-46.5 64.5t-81 51.5t-118.5 43q-103 30 -183 61t-134.5 75t-83 107t-28.5 156q0 89 29.5 161t88.5 123
t147 79t204 28q101 0 200.5 -25.5t207.5 -85.5l-73 -154q-46 23 -87 38.5t-79.5 24.5t-76.5 13t-77 4q-61 0 -110 -13t-83 -37t-52 -59t-18 -79q0 -51 15.5 -85t51 -60t93 -47.5t141.5 -47.5q93 -28 165.5 -63.5t122 -83t75.5 -109t26 -142.5q0 -93 -28 -170.5t-85.5 -132.5
t-145.5 -85.5t-207 -30.5q-65 0 -124.5 7.5t-117.5 23t-116 40t-119 58.5z" />
    <glyph glyph-name="currency" unicode="&#xa4;" horiz-adv-x="1012" 
d="M489 1049q112 0 192 -33l114 116l107 -105l-108 -101q54 -77 54 -202q0 -57 -13 -106.5t-42 -90.5l108 -101l-108 -104l-114 115q-37 -16 -83 -24.5t-103 -8.5q-116 0 -196 31l-114 -114l-108 104l104 97q-59 77 -59 209q0 126 56 200l-102 97l108 104l111 -115
q41 17 90 24.5t106 7.5zM489 919q-48 0 -87 -9.5t-67 -32t-43.5 -58.5t-15.5 -90q0 -104 56.5 -150t158.5 -46q57 0 95.5 15t61.5 41t33 60.5t10 74.5q0 54 -14 91.5t-40.5 60.5t-64 33t-83.5 10z" />
    <glyph glyph-name="AEacute" unicode="&#x1fc;" horiz-adv-x="1847" 
d="M914 0v360h-526q-25 -65 -46 -122t-37.5 -103.5t-28 -81t-15.5 -53.5h-237q13 53 37.5 129.5t59 172.5t80 210.5t101.5 244.5q45 105 92 200.5t91.5 177.5t84.5 147.5t70 111.5h1117l-1 -185h-627v-412h536v-176h-536v-436h646v-185h-861zM457 534h457v674l-131 -1
q-16 -30 -46 -85.5t-68.5 -129.5t-83 -165.5t-88.5 -193.5zM1054 1581l233 301l158 -103l-290 -268z" />
    <glyph glyph-name="commaaccent" unicode="&#xf6c3;" horiz-adv-x="0" 
 />
    <glyph glyph-name="Oslash" unicode="&#xd8;" horiz-adv-x="1443" 
d="M1370 696q-1 -185 -50.5 -320t-136 -222.5t-204 -130t-252.5 -41.5q-81 0 -156 15l-50 -130l-196 57l55 142q-71 40 -127.5 99t-96.5 137.5t-61.5 176.5t-20.5 216q1 179 50 313.5t136 223.5t206.5 134t260.5 46q45 0 87 -4.5t82 -14.5l22 58t22 54l197 -57l-52 -133
q66 -42 118.5 -102t89.5 -137.5t57 -172.5t20 -207zM727 1227q-111 0 -192 -42t-135 -114t-81 -169t-28 -207q-2 -104 23.5 -199.5t79 -169t136.5 -117t197 -43.5q102 0 181.5 38t134 107t82.5 166.5t28 217.5q0 113 -27 210.5t-81 169t-133.5 112t-184.5 40.5z" />
    <glyph glyph-name="Oslashacute" unicode="&#x1fe;" horiz-adv-x="1443" 
d="M1370 696q-1 -185 -50.5 -320t-136 -222.5t-204 -130t-252.5 -41.5q-81 0 -156 15l-50 -130l-196 57l55 142q-71 40 -127.5 99t-96.5 137.5t-61.5 176.5t-20.5 216q1 179 50 313.5t136 223.5t206.5 134t260.5 46q45 0 87 -4.5t82 -14.5l22 58t22 54l197 -57l-52 -133
q66 -42 118.5 -102t89.5 -137.5t57 -172.5t20 -207zM727 1227q-111 0 -192 -42t-135 -114t-81 -169t-28 -207q-2 -104 23.5 -199.5t79 -169t136.5 -117t197 -43.5q102 0 181.5 38t134 107t82.5 166.5t28 217.5q0 113 -27 210.5t-81 169t-133.5 112t-184.5 40.5zM684 1618
l233 301l158 -103l-290 -268z" />
    <glyph glyph-name="aeacute" unicode="&#x1fd;" horiz-adv-x="1768" 
d="M84 502q0 132 38.5 232t107 167t163.5 101t208 34q55 0 107 -7t99.5 -19t90 -27.5t78.5 -31.5q118 85 291 85q88 0 162.5 -26t129 -71t85.5 -106t31 -131q0 -58 -16.5 -110.5t-56.5 -92.5t-107 -63.5t-167 -23.5h-329q19 -124 94.5 -191.5t225.5 -67.5q72 0 137 23
t119 52l64 -148q-82 -47 -167 -72.5t-191 -25.5q-173 0 -288 71v-53h-183l-26 99q-29 -22 -60 -43t-67 -37.5t-79.5 -26.5t-97.5 -10q-87 0 -159.5 32.5t-125 97t-82 162t-29.5 228.5zM291 508q0 -91 19 -157.5t52.5 -109.5t80 -63.5t101.5 -20.5q71 0 135 25t104 62v580
q-9 4 -27 10t-43 12t-55 10t-63 4q-68 0 -123.5 -23t-96 -67.5t-62.5 -110t-22 -151.5zM1259 861q-58 0 -103.5 -21.5t-78.5 -59t-53 -88t-28 -108.5h298q40 0 72.5 3.5t55 15t34.5 32t12 53.5q0 46 -19.5 79t-50 54t-67.5 30.5t-72 9.5zM853 1220l233 301l158 -103
l-290 -268z" />
    <glyph glyph-name="kgreenlandic" unicode="&#x138;" horiz-adv-x="1100" 
d="M988 1013q-53 -136 -129.5 -244t-170.5 -190q30 -69 72.5 -143t92 -145t102 -135t103.5 -113l-150 -103q-48 34 -103.5 95.5t-108 135t-98 150t-72.5 139.5q-83 -48 -168 -78v-382h-212v1013h212v-428q77 32 138.5 76t111 99t88 118.5t70.5 134.5h222v0z" />
    <glyph glyph-name="oslash" unicode="&#xf8;" horiz-adv-x="1157" 
d="M90 516q0 120 33 216t95.5 163.5t153.5 104t207 36.5q43 0 85 -6l45 116l168 -59l-44 -110q51 -28 94 -69.5t74 -98.5t48.5 -130t17.5 -164q0 -129 -33.5 -228.5t-96.5 -167t-153.5 -102.5t-204.5 -35q-68 0 -126 12l-42 -110l-169 56l47 120q-96 64 -147.5 177.5
t-51.5 278.5zM298 515q0 -98 20.5 -166t58 -110.5t89 -62t114.5 -19.5t114.5 20t88.5 63.5t57 111.5t20 163q0 90 -21 155t-58.5 107.5t-88.5 63t-112 20.5q-63 0 -115 -21t-89 -64t-57.5 -108t-20.5 -153z" />
    <glyph glyph-name="oslashacute" unicode="&#x1ff;" horiz-adv-x="1157" 
d="M90 516q0 120 33 216t95.5 163.5t153.5 104t207 36.5q43 0 85 -6l45 116l168 -59l-44 -110q51 -28 94 -69.5t74 -98.5t48.5 -130t17.5 -164q0 -129 -33.5 -228.5t-96.5 -167t-153.5 -102.5t-204.5 -35q-68 0 -126 12l-42 -110l-169 56l47 120q-96 64 -147.5 177.5
t-51.5 278.5zM298 515q0 -98 20.5 -166t58 -110.5t89 -62t114.5 -19.5t114.5 20t88.5 63.5t57 111.5t20 163q0 90 -21 155t-58.5 107.5t-88.5 63t-112 20.5q-63 0 -115 -21t-89 -64t-57.5 -108t-20.5 -153zM512 1245l233 301l158 -103l-290 -268z" />
    <glyph glyph-name="Eng" unicode="&#x14a;" horiz-adv-x="1488" 
d="M1316 -67q0 -98 -16.5 -172t-55 -124t-100.5 -75.5t-152 -25.5q-37 0 -73.5 5.5t-71 14.5t-65.5 20.5t-57 23.5l44 165q37 -16 82.5 -30t87.5 -14q51 0 81.5 14t47 40t21.5 61.5t5 79.5v242h222v-225zM172 0v1394h263q34 -42 73 -101.5t82 -130.5t87.5 -150t89.5 -159.5
t88.5 -159t84.5 -148.5t77.5 -128t67.5 -97h13l-4 1074h222v-1394h-256q-52 65 -108 152.5t-113 186.5t-115 202.5t-113.5 200t-108 180.5t-99.5 143h-13l3 -1065h-221z" />
    <glyph glyph-name="eng" unicode="&#x14b;" 
d="M146 865q34 24 89 53.5t124 56t149 44t166 17.5q100 0 166.5 -31t106.5 -83t57 -120.5t17 -143.5v-664q0 -35 -5.5 -73.5t-19 -76.5t-37 -73t-58.5 -61.5t-84 -42t-114 -15.5q-40 0 -77.5 6t-69 14.5t-56.5 18t-40 15.5l43 151q102 -36 179 -34q60 2 92.5 47.5
t34.5 129.5v642q0 36 -6 74t-24.5 68.5t-52 50t-88.5 19.5q-38 0 -78 -9.5t-77.5 -24t-70 -31t-54.5 -30.5v-759h-212v865z" />
    <glyph glyph-name="fraction" unicode="&#x2044;" horiz-adv-x="862" 
d="M80 0l511 1394h189l-510 -1394h-190z" />
    <glyph glyph-name="afii10017" unicode="&#x410;" horiz-adv-x="1346" 
d="M1080 -10q-20 78 -44.5 170.5t-53.5 196.5h-617q-30 -108 -55 -201.5t-43 -165.5l-228 10q16 69 39.5 154.5t52 181.5t61 198t66.5 203.5t69.5 199t69 183t65 156t58.5 118.5h307q39 -71 84.5 -179t93 -236t94.5 -266t87.5 -269.5t72 -246.5t49.5 -197zM657 1209
q-32 -70 -63 -150.5t-61 -167t-59 -176.5t-56 -178h511q-51 168 -111 340.5t-128 331.5h-33z" />
    <glyph glyph-name="afii10018" unicode="&#x411;" horiz-adv-x="1238" 
d="M387 168h242q136 0 210 58t74 181q0 112 -72.5 171.5t-209.5 59.5h-244v-470zM954 1212h-567v-412h243q103 0 193 -24.5t157 -73.5t105.5 -123t38.5 -172q0 -207 -120 -307t-349 -100h-483v1394h782v-182z" />
    <glyph glyph-name="afii10019" unicode="&#x412;" horiz-adv-x="1238" 
d="M172 0v1394h449q107 0 193 -22.5t146.5 -67t93 -111.5t32.5 -157q0 -58 -15.5 -105.5t-43.5 -85.5t-67.5 -65.5t-86.5 -45.5v-10q59 -15 107 -44t81.5 -70.5t51.5 -95.5t18 -119q0 -199 -119.5 -297t-349.5 -98h-490zM394 168h242q136 0 210 58t74 181q0 112 -72.5 171.5
t-209.5 59.5h-244v-470zM394 800h214q64 0 115.5 15.5t87.5 44t55.5 70t19.5 94.5q0 56 -20.5 95.5t-57.5 64.5t-88.5 36.5t-114.5 11.5h-211v-432z" />
    <glyph glyph-name="afii10020" unicode="&#x413;" horiz-adv-x="1046" 
d="M990 1394v-185h-581v-1209h-222v1394h803z" />
    <glyph glyph-name="afii10022" unicode="&#x415;" horiz-adv-x="1117" 
d="M172 0v1394h830l-1 -185h-613v-412h522v-176h-522v-436h632v-185h-848z" />
    <glyph glyph-name="afii10023" unicode="&#x401;" horiz-adv-x="1117" 
d="M172 0v1394h837l-2 -185h-613v-412h522v-176h-522v-436h632v-185h-854zM477 1698q111 0 111 -94q0 -42 -25.5 -67.5t-83.5 -25.5q-114 0 -114 95q0 92 112 92zM821 1698q111 0 111 -94q0 -42 -26 -67.5t-83 -25.5q-114 0 -114 95q0 92 112 92z" />
    <glyph glyph-name="afii10026" unicode="&#x418;" horiz-adv-x="1488" 
d="M1095 0l3 1065h-13q-47 -59 -99.5 -143t-108 -180.5t-113 -200t-115 -202.5t-113.5 -186.5t-108 -152.5h-256v1394h222l-3 -1074h12q31 39 67.5 97t77.5 128t84.5 148.5t88.5 159t89.5 159.5t87.5 150t82 130.5t73 101.5h263v-1394h-221z" />
    <glyph glyph-name="afii10027" unicode="&#x419;" horiz-adv-x="1488" 
d="M1095 0l3 1065h-13q-47 -59 -99.5 -143t-108 -180.5t-113 -200t-115 -202.5t-113.5 -186.5t-108 -152.5h-256v1394h222l-3 -1074h12q31 39 67.5 97t77.5 128t84.5 148.5t88.5 159t89.5 159.5t87.5 150t82 130.5t73 101.5h263v-1394h-221zM792 1518q-89 0 -144 24.5
t-87 61t-47.5 79t-25.5 77.5l135 31q6 -23 15 -48.5t27 -46.5t48 -35t80 -14t80 14t47.5 35t26 46.5t15.5 48.5l135 -31q-11 -36 -26.5 -78.5t-47.5 -78.5t-87 -60.5t-144 -24.5z" />
    <glyph glyph-name="afii10028" unicode="&#x41a;" horiz-adv-x="1286" 
d="M172 1v1393h221v-674q88 57 172.5 135t157.5 167t129 184.5t88 187.5h240q-59 -155 -158.5 -307.5t-228.5 -283.5q20 -54 51.5 -118.5t71 -132t85.5 -136.5t95 -133.5t100.5 -121.5t101.5 -101l-164 -119q-69 64 -141.5 150t-139 182t-122.5 196.5t-92 193.5
q-119 -96 -246 -158v-504h-221z" />
    <glyph glyph-name="afii10029" unicode="&#x41b;" horiz-adv-x="1486" 
d="M1091 1209h-526v-292q0 -49 -1.5 -115.5t-7 -141.5t-15.5 -154t-27 -154.5t-42.5 -142.5t-61 -117.5t-82.5 -80t-107 -29.5q-24 0 -50.5 2.5t-49 6t-39 6.5t-20.5 5l4 164q17 0 44 -5t58 -3q43 3 73 47.5t49.5 113.5t30 154.5t15.5 169.5t6 158t1 122v471h970v-1394h-222
v1209z" />
    <glyph glyph-name="afii10030" unicode="&#x41c;" horiz-adv-x="1723" 
d="M70 0q5 164 16.5 323t25.5 310q10 106 21.5 212t24 204.5t24.5 186.5t23 157h323l331 -1118h12l329 1118h323q12 -74 23.5 -156.5t23.5 -176t24 -199t23 -224.5q8 -92 14.5 -174t11.5 -159t9 -152t7 -152h-226q-2 70 -7 165.5t-12.5 203t-17 220t-20 215.5t-22 190.5
t-22.5 144.5h-14l-336 -1138h-234l-338 1138h-14q-12 -70 -23.5 -161t-22 -192t-19.5 -208.5t-16 -210.5t-12.5 -197.5t-7.5 -169.5h-225z" />
    <glyph glyph-name="afii10031" unicode="&#x41d;" horiz-adv-x="1458" 
d="M172 0v1394h222v-592h668v592h223v-1394h-223v617h-668v-617h-222z" />
    <glyph glyph-name="afii10032" unicode="&#x41e;" horiz-adv-x="1443" 
d="M1370 696q-1 -185 -50.5 -320t-136 -222.5t-204 -130t-252.5 -41.5q-140 0 -260 44t-207.5 132.5t-137 222.5t-48.5 314q1 179 50 313.5t136 223.5t206.5 134t260.5 46q138 1 256 -44.5t204 -136t134.5 -224.5t48.5 -311zM727 1227q-111 0 -192 -42t-135 -114t-81 -169
t-28 -207q-2 -104 23.5 -199.5t79 -169t136.5 -117t197 -43.5q102 0 181.5 38t134 107t82.5 166.5t28 217.5q0 113 -27 210.5t-81 169t-133.5 112t-184.5 40.5z" />
    <glyph glyph-name="afii10033" unicode="&#x41f;" horiz-adv-x="1458" 
d="M1285 0h-223v1209h-668v-1209h-222v1394h1113v-1394z" />
    <glyph glyph-name="afii10034" unicode="&#x420;" horiz-adv-x="1174" 
d="M172 0v1394h460q114 0 204.5 -29t153.5 -85.5t96.5 -140t33.5 -191.5q0 -124 -39.5 -214t-109.5 -149t-164.5 -87.5t-203.5 -28.5h-208v-469h-223zM395 645h210q62 0 116 16.5t94.5 51t64 88.5t23.5 130q0 87 -26.5 142.5t-69.5 86.5t-98.5 42.5t-112.5 11.5h-201v-569z
" />
    <glyph glyph-name="afii10035" unicode="&#x421;" horiz-adv-x="1217" 
d="M292 691q0 -266 107 -395.5t316 -129.5q89 0 171.5 26.5t173.5 74.5l73 -152q-101 -62 -218 -97.5t-229 -35.5q-139 0 -252 39t-192.5 123t-123 215.5t-43.5 317.5q0 196 43.5 335.5t123 228t192.5 130t252 41.5q59 0 118.5 -9.5t116.5 -27.5t110.5 -43t101.5 -55
l-71 -152q-88 49 -173.5 75.5t-173.5 26.5q-423 0 -423 -536z" />
    <glyph glyph-name="afii10036" unicode="&#x422;" horiz-adv-x="1093" 
d="M33 1209v185h1027v-185h-403v-1209h-222v1209h-402z" />
    <glyph glyph-name="afii10037" unicode="&#x423;" horiz-adv-x="1237" 
d="M231 4q30 36 65.5 81t71.5 94.5t70.5 100.5t61.5 101h-12q-42 69 -80.5 132.5t-74 127t-67 129.5t-59.5 140q-58 151 -97.5 272.5t-52.5 211.5h238q13 -97 44 -208.5t77 -241.5q20 -56 45 -107.5t51 -99t52 -90.5t48 -80h12q27 46 53 89t50.5 87.5t47 91.5t42.5 101
q51 140 80 255t43 203h238q-18 -107 -55 -232t-104 -281q-36 -84 -70 -151.5t-67.5 -127t-66.5 -113t-67 -108.5q-16 -29 -38.5 -67t-48.5 -81t-55 -88t-57.5 -88t-55.5 -82.5t-49 -70.5z" />
    <glyph glyph-name="afii10039" unicode="&#x425;" horiz-adv-x="1244" 
d="M40 0q46 106 91.5 193.5t93.5 171.5q26 46 59 99t66.5 104t65 95t53.5 71q-26 35 -50.5 68.5t-51 71t-56.5 82t-66 103.5q-45 75 -84.5 158t-81.5 177l249 10q7 -19 18.5 -47t27 -62t34 -72t39.5 -77q46 -82 89 -149.5t84 -120.5h10q15 20 33 44.5t38 56t44 71.5t51 92
q23 42 39 73t29.5 60.5t26.5 60t31 70.5l249 -10q-21 -48 -42.5 -94.5t-44.5 -92.5t-49 -93t-57 -96q-66 -103 -116 -174.5t-80 -111.5q40 -51 102.5 -143t131.5 -210q28 -48 53.5 -94t49.5 -92t46 -93.5t45 -99.5l-250 -10q-13 30 -26 61t-29 66.5t-37 77.5t-50 93
q-64 116 -111.5 186.5t-75.5 106.5h-11q-21 -25 -45 -59t-49 -73.5t-50.5 -82.5t-47.5 -85q-43 -79 -77 -154t-60 -137z" />
    <glyph glyph-name="afii10021" unicode="&#x414;" horiz-adv-x="1522" 
d="M1200 0h-905v-232h-222v417h96q70 69 119.5 174.5t80.5 229.5t45.5 257.5t14.5 257.5v290h868v-1209h126v-417h-223v232zM648 1013q0 -89 -14 -197.5t-42.5 -221t-72.5 -219t-105 -190.5h660v1024h-426v-196z" />
    <glyph glyph-name="afii10024" unicode="&#x416;" horiz-adv-x="2034" 
d="M338 1394q30 -96 87 -192.5t131 -185.5t160.5 -166t176.5 -133v677h220v-677q89 57 175 133.5t160.5 165.5t131.5 185.5t87 192.5h239q-30 -82 -74 -165.5t-99 -164t-119.5 -156.5t-135.5 -144q32 -81 83.5 -176t115 -188.5t135.5 -178.5t144 -146l-170 -117
q-62 56 -127.5 136t-127.5 171t-115.5 187t-90.5 184q-104 -79 -212 -131v-504h-220v503q-112 55 -214 132q-37 -88 -90.5 -184t-115 -187t-127.5 -171t-128 -136l-169 117q72 61 143.5 146t135 179t115.5 189t84 176q-72 68 -136.5 144t-119.5 156.5t-99 163.5t-74 165h240
z" />
    <glyph glyph-name="afii10025" unicode="&#x417;" horiz-adv-x="1098" 
d="M73 1284q49 30 98 53.5t101 40t108.5 25.5t120.5 9q112 0 198.5 -24t145 -68.5t89 -108.5t30.5 -144q0 -54 -10 -102.5t-33.5 -90t-61 -77t-91.5 -63.5q50 -17 92.5 -46.5t74 -71.5t49 -97.5t17.5 -125.5q0 -81 -20 -142.5t-55 -106.5t-83 -75.5t-104 -49t-117.5 -27.5
t-123.5 -10q-57 -2 -116.5 5.5t-116.5 22.5t-110 37.5t-98 51.5l71 155q43 -22 80.5 -38.5t77.5 -27.5t86 -16.5t105 -5.5q61 0 117 12t98 39.5t67 73.5t25 114q0 37 -17.5 77t-55.5 72.5t-100 53.5t-150 21h-169v171l165 1q66 0 119.5 13t91 41t58 73t20.5 108q0 48 -20 84
t-56 60t-86 35.5t-109 11.5q-42 0 -82 -5.5t-79.5 -16.5t-81 -29.5t-87.5 -43.5z" />
    <glyph glyph-name="afii10038" unicode="&#x424;" horiz-adv-x="1782" 
d="M781 -86v131h-32q-141 1 -264 35t-214.5 110.5t-144 200.5t-51.5 304q0 179 52.5 303.5t143 202t213.5 112.5t265 35h32v135h221v-135h51q137 -1 256.5 -37t208.5 -114.5t140 -202t51 -298.5q-1 -122 -24.5 -217.5t-66.5 -167.5t-103 -122.5t-132 -82t-155 -46.5
t-172 -15h-54v-131h-221zM1002 1162v-931l60 -1q99 3 178.5 32t135.5 86.5t86 143.5t30 203q0 110 -29 195t-83 144t-132.5 91.5t-177.5 37.5zM292 695q-2 -104 26.5 -189.5t86 -147t143.5 -95t200 -33.5h33v933q-11 0 -20.5 0.5t-12.5 0.5q-110 0 -194.5 -32t-142.5 -92.5
t-88 -147.5t-31 -197z" />
    <glyph glyph-name="afii10040" unicode="&#x426;" horiz-adv-x="1482" 
d="M394 185h668v1209h223v-1209h129v-417h-223v232h-1019v1394h222v-1209z" />
    <glyph glyph-name="afii10041" unicode="&#x427;" horiz-adv-x="1255" 
d="M868 0v553q-22 -16 -56 -33.5t-77.5 -32.5t-94 -24.5t-104.5 -9.5q-96 0 -175.5 28.5t-136.5 81.5t-88.5 128.5t-31.5 170.5v532h221v-501q0 -74 27 -123t69 -78t92.5 -41t97.5 -12q35 0 72.5 6t72 17.5t64 28t48.5 36.5v667h221v-1394h-221z" />
    <glyph glyph-name="afii10042" unicode="&#x428;" horiz-adv-x="1977" 
d="M394 185h492v1209h223v-1209h472v1209h223v-1394h-1632v1394h222v-1209z" />
    <glyph glyph-name="afii10043" unicode="&#x429;" horiz-adv-x="1994" 
d="M1933 -232h-223v232h-1538v1394h222v-1209h492v1209h223v-1209h472v1209h223v-1209h129v-417z" />
    <glyph glyph-name="afii10044" unicode="&#x42a;" horiz-adv-x="1305" 
d="M14 1394h491v-594h243q103 0 193 -25t157 -73.5t105.5 -120t38.5 -163.5q0 -110 -30.5 -189t-89.5 -130t-146.5 -75t-202.5 -24h-483v1232h-276v162zM505 168h242q136 0 210 58t74 181q0 112 -72.5 171.5t-209.5 59.5h-244v-470z" />
    <glyph glyph-name="afii10046" unicode="&#x42c;" horiz-adv-x="1179" 
d="M387 168h242q136 0 210 58t74 181q0 112 -72.5 171.5t-209.5 59.5h-244v-470zM387 1394v-594h243q103 0 193 -25t157 -73.5t105.5 -120t38.5 -163.5q0 -110 -30.5 -189t-89.5 -130t-146.5 -75t-202.5 -24h-483v1394h215z" />
    <glyph glyph-name="afii10045" unicode="&#x42b;" horiz-adv-x="1727" 
d="M387 168h242q136 0 210 58t74 181q0 112 -72.5 171.5t-209.5 59.5h-244v-470zM387 1394v-594h243q103 0 193 -25t157 -73.5t105.5 -120t38.5 -163.5q0 -110 -30.5 -189t-89.5 -130t-146.5 -75t-202.5 -24h-483v1394h215zM1332 0v1394h222v-1394h-222z" />
    <glyph glyph-name="afii10048" unicode="&#x42e;" horiz-adv-x="1985" 
d="M172 0v1394h222v-600h224q14 154 68 269.5t139.5 193t198 116t244.5 39.5q138 1 256 -44.5t204 -136t134 -224.5t48 -311q-1 -185 -50.5 -320t-136 -222.5t-203.5 -130t-252 -41.5q-131 0 -244 38t-199.5 114.5t-140.5 192.5t-67 272h-223v-599h-222zM1267 1227
q-110 0 -191.5 -42t-135.5 -114t-81 -169t-28 -207q-1 -104 24.5 -199.5t79 -169t136 -117t196.5 -43.5q102 0 181.5 38t134 107t82.5 166.5t28 217.5q0 113 -27 210.5t-81 169t-133.5 112t-184.5 40.5z" />
    <glyph glyph-name="afii10049" unicode="&#x42f;" horiz-adv-x="1256" 
d="M42 62q62 57 117 120t102 127.5t86.5 128t70.5 120.5q-54 27 -105 66.5t-90.5 91t-63.5 115.5t-24 142q0 100 38.5 178t103.5 132t152 82.5t185 28.5h468v-1394h-223v494h-240h-5q-69 -140 -171.5 -282.5t-231.5 -268.5zM859 1214h-228q-52 0 -102 -14.5t-89.5 -45.5
t-64 -80t-24.5 -118q0 -60 20 -111.5t56 -89.5t86 -59.5t110 -21.5h236v540z" />
    <glyph glyph-name="afii10050" unicode="&#x490;" horiz-adv-x="1005" 
d="M753 1394v231h222v-416h-580v-1209h-223v1394h581z" />
    <glyph glyph-name="afii10051" unicode="&#x402;" horiz-adv-x="1374" 
d="M-32 1209v185h1032v-185h-405v-310q70 35 158 60.5t194 25.5q100 0 167.5 -30t108 -80.5t58 -118t17.5 -142.5v-290q0 -52 -13.5 -112t-48.5 -111t-94.5 -85t-152.5 -34q-37 0 -69.5 5t-59 11.5t-45 13.5t-28.5 11l36 153l133 -23q61 2 94 45.5t33 131.5v261q0 37 -8 75
t-29 68t-58 49t-96 19q-40 0 -83 -10t-83 -25.5t-74.5 -34t-56.5 -34.5v-698h-222v1209h-405z" />
    <glyph glyph-name="afii10052" unicode="&#x403;" horiz-adv-x="996" 
d="M976 1394v-185h-581v-1209h-222v1394h803zM467 1576l233 301l158 -103l-290 -268z" />
    <glyph glyph-name="afii10054" unicode="&#x405;" horiz-adv-x="1079" 
d="M119 273q74 -35 128.5 -56t99 -32.5t84 -15t83.5 -3.5q66 0 114.5 17t80 46t47 68.5t15.5 84.5t-15 81t-46.5 64.5t-81 51.5t-118.5 43q-103 30 -183 61t-134.5 75t-83 107t-28.5 156q0 89 29.5 161t88.5 123t147 79t204 28q101 0 200.5 -25.5t207.5 -85.5l-73 -154
q-46 23 -87 38.5t-79.5 24.5t-76.5 13t-77 4q-61 0 -110 -13t-83 -37t-52 -59t-18 -79q0 -51 15.5 -85t51 -60t93 -47.5t141.5 -47.5q93 -28 165.5 -63.5t122 -83t75.5 -109t26 -142.5q0 -93 -28 -170.5t-85.5 -132.5t-145.5 -85.5t-207 -30.5q-65 0 -124.5 7.5t-117.5 23
t-116 40t-119 58.5z" />
    <glyph glyph-name="afii10055" unicode="&#x406;" horiz-adv-x="568" 
d="M172 0v1394h222v-1394h-222z" />
    <glyph glyph-name="afii10056" unicode="&#x407;" horiz-adv-x="568" 
d="M172 0v1394h222v-1394h-222zM125 1766q111 0 111 -94q0 -42 -25.5 -67.5t-83.5 -25.5q-114 0 -114 95q0 92 112 92zM469 1766q111 0 111 -94q0 -42 -26 -67.5t-83 -25.5q-114 0 -114 95q0 92 112 92z" />
    <glyph glyph-name="afii10057" unicode="&#x408;" horiz-adv-x="796" 
d="M624 379q0 -98 -16.5 -172t-54.5 -124t-100 -75.5t-152 -25.5q-37 0 -73.5 5.5t-71 14.5t-66 20t-56.5 23l44 166q36 -16 82 -30.5t87 -14.5q51 0 81.5 14t47 40t21.5 61.5t5 79.5v1033h222v-1015z" />
    <glyph glyph-name="afii10058" unicode="&#x409;" horiz-adv-x="2117" 
d="M1573 800q103 0 193 -25t157 -73.5t105.5 -120t38.5 -163.5q0 -110 -30.5 -189t-89.5 -130t-146.5 -75t-202.5 -24h-490v1209h-532v-292q0 -49 -1.5 -115.5t-6 -141.5t-14.5 -154t-26.5 -154.5t-41 -142.5t-59.5 -117.5t-82 -80t-107 -29.5q-24 0 -50.5 2.5t-49.5 6
t-39.5 6.5t-20.5 5l5 164q17 0 43.5 -4.5t58.5 -3.5q43 1 72.5 45t49 113.5t30.5 155t16 170t6 159t1 122.5v471h970v-594h243zM1330 168h242q136 0 210.5 58t74.5 181q0 112 -73 171.5t-210 59.5h-244v-470z" />
    <glyph glyph-name="afii10059" unicode="&#x40a;" horiz-adv-x="2040" 
d="M1248 1394v-594h242q103 0 193.5 -25t157.5 -73.5t105.5 -120t38.5 -163.5q0 -110 -30.5 -189t-89.5 -130t-147 -75t-202 -24h-490v629h-632v-624h-222v1394h222v-598h632v593h222zM1248 168h242q136 0 210 58t74 181q0 112 -72.5 171.5t-209.5 59.5h-244v-470z" />
    <glyph glyph-name="afii10060" unicode="&#x40b;" horiz-adv-x="1477" 
d="M495 809q36 28 86 59t112.5 57t136.5 43t160 17q100 0 167.5 -30t108 -80.5t58 -118t17.5 -142.5v-614h-215v591q0 37 -8 75t-29 68t-58 49t-96 19q-41 0 -85 -10.5t-84.5 -26.5t-75 -35t-56.5 -35zM6 1209v185h1027v-185h-403v-1209h-222v1209h-402z" />
    <glyph glyph-name="afii10061" unicode="&#x40c;" horiz-adv-x="1286" 
d="M172 1v1393h221v-674q88 57 172.5 135t157.5 167t129 184.5t88 187.5h240q-59 -155 -158.5 -307.5t-228.5 -283.5q20 -54 51.5 -118.5t71 -132t85.5 -136.5t95 -133.5t100.5 -121.5t101.5 -101l-164 -119q-69 64 -141.5 150t-139 182t-122.5 196.5t-92 193.5
q-119 -96 -246 -158v-504h-221zM527 1538l233 301l158 -103l-290 -268z" />
    <glyph glyph-name="afii10062" unicode="&#x40e;" horiz-adv-x="1237" 
d="M231 4q30 36 65.5 81t71.5 94.5t70.5 100.5t61.5 101h-12q-42 69 -80.5 132.5t-74 127t-67 129.5t-59.5 140q-58 151 -97.5 272.5t-52.5 211.5h238q13 -97 44 -208.5t77 -241.5q20 -56 45 -107.5t51 -99t52 -90.5t48 -80h12q27 46 53 89t50.5 87.5t47 91.5t42.5 101
q51 140 80 255t43 203h238q-18 -107 -55 -232t-104 -281q-36 -84 -70 -151.5t-67.5 -127t-66.5 -113t-67 -108.5q-16 -29 -38.5 -67t-48.5 -81t-55 -88t-57.5 -88t-55.5 -82.5t-49 -70.5zM648 1493q-89 0 -144 24.5t-87 61t-47.5 79t-25.5 77.5l135 31q6 -23 15 -48.5
t27 -46.5t48 -35t80 -14t80 14t47.5 35t26 46.5t15.5 48.5l135 -31q-11 -36 -26.5 -78.5t-47.5 -78.5t-87 -60.5t-144 -24.5z" />
    <glyph glyph-name="afii10065" unicode="&#x430;" horiz-adv-x="1130" 
d="M75 502q0 132 38.5 232t107 167t163.5 101t208 34q58 0 113 -8t105 -21t94 -30t81 -34v-943h-184l-26 99q-29 -22 -60 -43t-67 -37.5t-79 -26.5t-97 -10q-87 0 -160 32.5t-125.5 97t-82 162t-29.5 228.5zM283 508q0 -91 18.5 -157.5t52 -109.5t80 -63.5t101.5 -20.5
q71 0 135 25t104 62v580q-9 4 -27 10t-43 12t-55 10t-63 4q-67 0 -123 -23t-96 -67.5t-62 -110t-22 -151.5z" />
    <glyph glyph-name="afii10066" unicode="&#x431;" horiz-adv-x="1105" 
d="M57 643q0 195 37.5 336.5t108 235t171 142.5t226.5 59q70 6 119.5 10.5t86.5 11t65 16.5t55 26l63 -168q-52 -34 -141 -52.5t-217 -29.5q-96 -10 -158 -44.5t-100 -84.5t-56.5 -110t-27.5 -120q34 32 74 53.5t82 34.5t83.5 18.5t78.5 5.5q106 0 187 -38t135 -105
t81.5 -159.5t27.5 -201.5q0 -107 -32.5 -198t-95.5 -157.5t-156 -104t-214 -37.5q-133 0 -225 47t-149.5 133t-83 208.5t-25.5 272.5zM278 669q-3 -24 -5 -41t-2 -44q0 -212 73.5 -319t200.5 -107q64 0 117 24t90.5 66t58 99t20.5 124q0 70 -17 130t-50.5 104t-83.5 69.5
t-117 25.5q-46 0 -86 -10t-74.5 -27.5t-65.5 -41.5t-59 -52z" />
    <glyph glyph-name="afii10067" unicode="&#x432;" horiz-adv-x="1050" 
d="M146 0v1013h448q78 0 142.5 -16t110.5 -48.5t71.5 -81.5t25.5 -115q0 -83 -43 -137t-110 -81v-8q86 -22 137 -83t51 -156q0 -72 -24.5 -125.5t-70 -89.5t-111.5 -54t-150 -18h-477zM358 154h218q45 0 80.5 7t60.5 24.5t38.5 45.5t13.5 70q0 79 -52 114t-142 35h-217v-296
zM358 596h191q44 0 80 8.5t61.5 26t39.5 44t14 63.5q0 40 -15 65t-41 38.5t-62.5 18t-78.5 4.5h-189v-268z" />
    <glyph glyph-name="afii10068" unicode="&#x433;" horiz-adv-x="880" 
d="M837 1013v-176h-479v-837h-212v1013h691z" />
    <glyph glyph-name="afii10070" unicode="&#x435;" horiz-adv-x="1059" 
d="M300 412q9 -62 32 -110t62 -81t95.5 -50.5t131.5 -17.5q72 0 136.5 23t118.5 52l64 -148q-82 -47 -167 -72.5t-190 -25.5q-240 0 -366.5 136t-126.5 400q0 126 34.5 222.5t97.5 162t151 99.5t196 34q88 0 162.5 -26t129 -71t85.5 -106t31 -131q0 -58 -16.5 -110.5
t-56.5 -92.5t-107 -63.5t-167 -23.5h-330zM560 861q-58 0 -103.5 -20t-78 -55.5t-52.5 -84.5t-28 -107h298q40 0 72.5 2t55 11.5t34.5 28.5t12 52q0 46 -19.5 79t-50 54t-67.5 30.5t-73 9.5z" />
    <glyph glyph-name="afii10071" unicode="&#x451;" horiz-adv-x="1059" 
d="M300 412q9 -62 32 -110t62 -81t95.5 -50.5t131.5 -17.5q72 0 136.5 23t118.5 52l64 -148q-82 -47 -167 -72.5t-190 -25.5q-240 0 -366.5 136t-126.5 400q0 126 34.5 222.5t97.5 162t151 99.5t196 34q88 0 162.5 -26t129 -71t85.5 -106t31 -131q0 -58 -16.5 -110.5
t-56.5 -92.5t-107 -63.5t-167 -23.5h-330zM560 861q-58 0 -103.5 -20t-78 -55.5t-52.5 -84.5t-28 -107h298q40 0 72.5 2t55 11.5t34.5 28.5t12 52q0 46 -19.5 79t-50 54t-67.5 30.5t-73 9.5zM401 1365q111 0 111 -94q0 -42 -25.5 -67.5t-83.5 -25.5q-114 0 -114 95
q0 92 112 92zM745 1365q111 0 111 -94q0 -42 -26 -67.5t-83 -25.5q-114 0 -114 95q0 92 112 92z" />
    <glyph glyph-name="afii10072" unicode="&#x436;" horiz-adv-x="1719" 
d="M1592 1013q-53 -136 -129.5 -244t-170.5 -190q30 -69 72.5 -143t92 -145t102 -135t103.5 -113l-150 -103q-48 34 -103.5 95.5t-108 135t-98 150t-72.5 139.5q-83 -48 -168 -78v-382h-212v382q-88 31 -169 78q-18 -42 -44.5 -90.5t-58.5 -98.5t-67.5 -99.5t-71.5 -93.5
t-71.5 -80t-67.5 -58l-150 103q50 49 103 113t102 135t91 145t72 143q-93 82 -169.5 190.5t-128.5 243.5h222q31 -71 70 -134.5t88.5 -118.5t111 -99t138.5 -76v428h212v-428q77 32 138.5 76t111 99t88 118.5t70.5 134.5h222v0z" />
    <glyph glyph-name="afii10074" unicode="&#x438;" 
d="M795 0l4 695h-11q-31 -38 -66 -93t-71.5 -118t-74.5 -131t-76.5 -132.5t-76 -121.5t-73.5 -99h-211v1013h204l-4 -709h8q30 37 65 93.5t72.5 122.5t77 137.5t77.5 138t74 123.5t68 94h215v-1013h-201z" />
    <glyph glyph-name="afii10075" unicode="&#x439;" horiz-adv-x="1171" 
d="M795 0l4 695h-11q-31 -38 -66 -93t-71.5 -118t-74.5 -131t-76.5 -132.5t-76 -121.5t-73.5 -99h-211v1013h204l-4 -709h8q30 37 65 93.5t72.5 122.5t77 137.5t77.5 138t74 123.5t68 94h215v-1013h-201zM571 1101q-89 0 -144 24.5t-87 61t-47.5 79t-25.5 77.5l135 31
q6 -23 15 -48.5t27 -46.5t48 -35t80 -14t80 14t47.5 35t26 46.5t15.5 48.5l135 -31q-11 -36 -26.5 -78.5t-47.5 -78.5t-87 -60.5t-144 -24.5z" />
    <glyph glyph-name="afii10076" unicode="&#x43a;" horiz-adv-x="1100" 
d="M988 1013q-53 -136 -129.5 -244t-170.5 -190q30 -69 72.5 -143t92 -145t102 -135t103.5 -113l-150 -103q-48 34 -103.5 95.5t-108 135t-98 150t-72.5 139.5q-83 -48 -168 -78v-382h-212v1013h212v-428q77 32 138.5 76t111 99t88 118.5t70.5 134.5h222v0z" />
    <glyph glyph-name="afii10077" unicode="&#x43b;" horiz-adv-x="1228" 
d="M869 837h-395v-65q0 -38 -2.5 -92t-8.5 -116.5t-17 -130t-27.5 -132t-40 -122.5t-55.5 -102t-72.5 -69.5t-91.5 -25.5q-24 0 -49.5 2.5t-47 6t-36.5 6.5t-19 5l8 164q9 0 18 -2.5t20 -5t24 -4.5t29 -1q30 2 52.5 28.5t39 69.5t28 98.5t18.5 116t11 121t6 113.5t2.5 94.5
t0.5 63.5v155h817v-1013h-212v837z" />
    <glyph glyph-name="afii10069" unicode="&#x434;" horiz-adv-x="1216" 
d="M80 175q39 28 68 74.5t48.5 103.5t31.5 121t19 128.5t9 125.5t2 111v174h773v-838h103v-375h-212v200h-688v-200h-212v375h58zM464 755q0 -58 -8 -133t-26 -154t-47.5 -155.5t-72.5 -137.5h509v662h-355v-82z" />
    <glyph glyph-name="afii10080" unicode="&#x43e;" horiz-adv-x="1157" 
d="M90 516q0 120 33 216t95.5 163.5t153.5 104t207 36.5q94 0 182.5 -28.5t156 -90.5t108.5 -161t41 -241q0 -129 -33.5 -228.5t-96.5 -167t-153.5 -102.5t-204.5 -35t-204.5 34t-153.5 101.5t-97 167.5t-34 231zM298 515q0 -98 20.5 -166t58 -110.5t89 -62t114.5 -19.5
t114.5 20t88.5 63.5t57 111.5t20 163q0 90 -21 155t-58.5 107.5t-88.5 63t-112 20.5q-63 0 -115 -21t-89 -64t-57.5 -108t-20.5 -153z" />
    <glyph glyph-name="afii10082" unicode="&#x440;" horiz-adv-x="1145" 
d="M146 881q28 21 78 47.5t110.5 50t128 39.5t132.5 16q111 0 196 -27.5t142.5 -88.5t87.5 -159t30 -238q0 -103 -25 -200t-79 -172.5t-138 -121t-202 -45.5q-51 0 -88.5 4t-66 10t-51 13t-43.5 14v-409h-212v1267zM358 192q17 -6 36.5 -12t43 -11.5t52.5 -8.5t66 -3
q83 0 139 33.5t90 86.5t48.5 117.5t14.5 126.5q0 88 -18 151.5t-51.5 104.5t-81 60t-105.5 19q-36 0 -71 -8.5t-66 -21t-56 -26.5t-41 -25v-583z" />
    <glyph glyph-name="afii10083" unicode="&#x441;" horiz-adv-x="955" 
d="M90 519q0 131 34 228t94.5 161.5t144.5 96t184 31.5q82 0 165.5 -20.5t168.5 -70.5l-63 -144q-114 60 -235 60q-142 0 -213.5 -90t-71.5 -261t71.5 -262t216.5 -91q64 0 122 17t110 42l63 -143q-78 -45 -160.5 -68t-175.5 -23q-123 0 -209 40.5t-141 112t-80 170
t-25 214.5z" />
    <glyph glyph-name="afii10084" unicode="&#x442;" horiz-adv-x="939" 
d="M11 837v176h917v-176h-352v-837h-213v837h-352z" />
    <glyph glyph-name="afii10085" unicode="&#x443;" horiz-adv-x="1072" 
d="M182 -377q30 36 63 80.5t67 94t66.5 101t59.5 101.5h-32q-74 129 -132 257t-101.5 254t-73.5 251.5t-49 250.5l227 10q13 -109 37 -222t56.5 -222t73 -210t86.5 -187h12q56 102 99 217t74.5 228t51 215.5t27.5 180.5l227 -10q-9 -81 -28.5 -170.5t-46.5 -182.5t-60 -185
t-69 -178t-74.5 -161.5t-76.5 -135.5q-23 -44 -58.5 -106.5t-75.5 -129t-81 -130.5t-74 -112z" />
    <glyph glyph-name="afii10087" unicode="&#x445;" horiz-adv-x="1031" 
d="M48 0q10 34 23 67.5t28.5 69.5t35.5 75.5t46 84.5t51 79.5t49 62t45.5 49.5t41.5 43q-50 57 -98.5 113t-83.5 118q-85 150 -114 251l231 3q14 -52 30 -93.5t41 -89.5q29 -56 64 -99t68 -77h9q18 19 34.5 38t32.5 39.5t32 44.5t33 54q26 46 43 89t28 94l231 -3
q-9 -33 -19 -61t-23 -57t-29.5 -61t-40.5 -71q-25 -42 -48 -73t-45.5 -57t-45.5 -50t-47 -51q17 -17 41 -42.5t50 -56.5t51 -65t44 -68q34 -61 55 -102t34.5 -73t23.5 -60.5t23 -64.5l-233 -3q-6 24 -13 47t-17.5 49t-24.5 55.5t-33 65.5q-14 26 -31.5 54.5t-36 55t-36.5 49
t-33 36.5h-8q-13 -14 -31 -35t-37.5 -47t-38.5 -56t-34 -60q-20 -39 -34 -69.5t-23.5 -55t-16 -46t-11.5 -43.5z" />
    <glyph glyph-name="afii10078" unicode="&#x43c;" horiz-adv-x="1401" 
d="M92 0q4 119 12 235t18 225q7 77 15.5 154t17.5 149t18 135.5t17 114.5h294l210 -685h13l209 685h294q17 -108 34.5 -241.5t33.5 -307.5q6 -67 11 -127t8.5 -116t6.5 -110.5t6 -110.5h-217q-1 29 -3.5 71t-5.5 90.5t-7 100.5t-7 101q-5 67 -11.5 127t-13 110.5t-12.5 88
t-11 59.5h-12l-223 -707h-172l-224 707h-13q-5 -23 -11.5 -65.5t-13 -95t-12.5 -111t-10 -113.5q-4 -57 -8 -106t-7 -93t-5.5 -84t-3.5 -80h-215z" />
    <glyph glyph-name="afii10079" unicode="&#x43d;" horiz-adv-x="1235" 
d="M146 0v1013h212v-411h519v411h212v-1013h-212v427h-519v-427h-212z" />
    <glyph glyph-name="afii10081" unicode="&#x43f;" horiz-adv-x="1235" 
d="M1089 0h-212v838h-519v-838h-212v1013h943v-1013z" />
    <glyph glyph-name="afii10086" unicode="&#x444;" horiz-adv-x="1487" 
d="M637 -447v444q-31 -6 -66 -10.5t-71 -4.5q-91 0 -169.5 42.5t-136 115t-90.5 169.5t-33 206q0 114 35 209.5t95 164.5t138.5 108t165.5 39q38 0 72 -5t60 -10v396h212v-396q26 5 60 10t72 5q87 0 166 -39t138.5 -108t94.5 -164.5t35 -209.5q0 -109 -33 -206t-90.5 -169.5
t-136 -115t-169.5 -42.5q-36 0 -71.5 4.5t-65.5 10.5v-444h-212zM528 859q-54 0 -101 -26.5t-81.5 -72.5t-54.5 -109t-20 -136q0 -78 18.5 -143t53 -112.5t84 -73.5t111.5 -26q29 0 54 3t45 7v678q-22 5 -48 8t-61 3zM947 160q63 0 112.5 26t84 73.5t53 112.5t18.5 143
q0 73 -20 136t-54.5 109t-81.5 72.5t-102 26.5q-35 0 -61 -3t-47 -8v-678q20 -4 44.5 -7t53.5 -3z" />
    <glyph glyph-name="afii10088" unicode="&#x446;" horiz-adv-x="1245" 
d="M358 175h513v838h212v-837h108v-376h-212v200h-833v1013h212v-838z" />
    <glyph glyph-name="afii10089" unicode="&#x447;" horiz-adv-x="1091" 
d="M732 0v387q-22 -18 -49.5 -35.5t-61.5 -31.5t-74 -22.5t-86 -8.5q-99 0 -169 30t-114.5 84.5t-64.5 129.5t-20 165v315h212v-293q0 -75 15 -124t42 -78.5t65 -41.5t85 -12q70 0 126 23t94 62v464h212v-1013h-212z" />
    <glyph glyph-name="afii10090" unicode="&#x448;" horiz-adv-x="1543" 
d="M359 172h316v841h209v-841h302v841h212v-1013h-1251v1013h212v-841z" />
    <glyph glyph-name="afii10091" unicode="&#x449;" horiz-adv-x="1554" 
d="M1505 -200h-212v200h-1147v1013h212v-841h316v841h209v-841h302v841h212v-841h108v-372z" />
    <glyph glyph-name="afii10092" unicode="&#x44a;" horiz-adv-x="1054" 
d="M42 1013h398v-397h206q79 0 144 -22.5t111.5 -64t72.5 -100t26 -129.5q0 -150 -92.5 -225t-257.5 -75h-422v837h-186v176zM440 148h172q94 0 139 35t45 123q0 82 -46 124.5t-149 42.5h-161v-325z" />
    <glyph glyph-name="afii10094" unicode="&#x44c;" horiz-adv-x="996" 
d="M358 148h169q48 0 83.5 8t58.5 26.5t34 49t11 74.5q0 82 -46 124.5t-151 42.5h-159v-325zM358 1013v-397h210q74 0 138 -21.5t111 -62t74 -99t27 -131.5q0 -77 -24.5 -133.5t-70 -94t-110 -56t-145.5 -18.5h-422v1013h212z" />
    <glyph glyph-name="afii10093" unicode="&#x44b;" horiz-adv-x="1455" 
d="M358 148h169q48 0 83.5 8t58.5 26.5t34 49t11 74.5q0 82 -46 124.5t-151 42.5h-159v-325zM358 1013v-397h210q74 0 138 -21.5t111 -62t74 -99t27 -131.5q0 -77 -24.5 -133.5t-70 -94t-110 -56t-145.5 -18.5h-422v1013h212zM1098 0v1013h212v-1013h-212z" />
    <glyph glyph-name="afii10096" unicode="&#x44e;" horiz-adv-x="1564" 
d="M146 0v1013h212v-411h181q12 88 47 167t93 138t138.5 94t184.5 35q94 0 182.5 -33t156 -98.5t108.5 -163t41 -226.5q0 -122 -33 -220t-95.5 -168t-153 -107.5t-204.5 -37.5q-101 0 -181 30.5t-138.5 87t-94.5 135.5t-49 175h-183v-410h-212zM721 515q0 -85 20.5 -151.5
t58 -112.5t89.5 -70t114 -24q63 0 115 25t88.5 71.5t56.5 112.5t20 149q0 75 -21 138.5t-58 109.5t-88.5 72t-112.5 26q-63 0 -114.5 -25.5t-89 -71t-58 -109.5t-20.5 -140z" />
    <glyph glyph-name="afii10098" unicode="&#x491;" horiz-adv-x="866" 
d="M625 1013v200h212v-376h-479v-837h-212v1013h479z" />
    <glyph glyph-name="afii10102" unicode="&#x455;" horiz-adv-x="898" 
d="M124 233q90 -44 165.5 -61.5t145.5 -17.5q39 0 71 11.5t55 30.5t36.5 43t13.5 50q0 23 -9 42.5t-33.5 38.5t-66.5 39t-107 44q-63 22 -119 45t-97.5 56t-66 80t-24.5 117q0 71 28 124.5t77 89t116.5 53.5t146.5 18q102 0 183 -20t154 -58l-60 -149q-71 28 -127 40.5
t-110 12.5q-94 0 -147 -29.5t-53 -93.5q0 -32 19.5 -51.5t51 -33.5t71 -25t78.5 -24q83 -28 140.5 -60t93 -71t51.5 -86t16 -105q0 -65 -27.5 -120.5t-76.5 -95.5t-116.5 -62.5t-148.5 -22.5q-68 0 -126.5 9t-107 22.5t-87 30.5t-65.5 32z" />
    <glyph glyph-name="afii10103" unicode="&#x456;" horiz-adv-x="504" 
d="M146 0v1013h212v-1013h-212zM251 1390q130 0 130 -110q0 -48 -29.5 -77.5t-98.5 -29.5q-133 0 -133 109q0 56 33.5 82t97.5 26z" />
    <glyph glyph-name="afii10104" unicode="&#x457;" horiz-adv-x="504" 
d="M146 0v1013h212v-1013h-212zM82 1356q111 0 111 -94q0 -42 -25.5 -67.5t-83.5 -25.5q-114 0 -114 95q0 92 112 92zM426 1356q111 0 111 -94q0 -42 -26 -67.5t-83 -25.5q-114 0 -114 95q0 92 112 92z" />
    <glyph glyph-name="afii10105" unicode="&#x458;" horiz-adv-x="504" 
d="M-160 -177q53 -17 97.5 -26t82.5 -7q61 2 94 48.5t33 134.5v1040h212v-1053q0 -34 -5.5 -73t-19.5 -77t-37 -73t-58.5 -61.5t-84.5 -42t-114 -15.5q-40 0 -77 6t-68.5 14.5t-56.5 18t-40 15.5zM253 1390q130 0 130 -110q0 -48 -30 -77.5t-98 -29.5q-134 0 -134 109
q0 56 34 82t98 26z" />
    <glyph glyph-name="afii10100" unicode="&#x453;" horiz-adv-x="871" 
d="M837 1013v-176h-479v-837h-212v1013h691zM401 1199l233 301l158 -103l-290 -268z" />
    <glyph glyph-name="afii10099" unicode="&#x452;" 
d="M604 1162h-247v-189q69 26 149 44.5t167 18.5q100 0 167 -31t107 -83t57 -120.5t17 -143.5v-664q0 -35 -5.5 -73.5t-19 -76.5t-37 -73t-58.5 -61.5t-84 -42t-114 -15.5q-40 0 -77.5 6t-69 14.5t-56.5 18t-40 15.5l43 151q102 -36 179 -34q60 2 92.5 47.5t34.5 129.5v642
q0 36 -6 74t-24.5 68.5t-52 50t-88.5 19.5q-38 0 -78 -9.5t-77.5 -24t-70.5 -31t-55 -30.5v-759h-212v1162h-160v147h160v108h212v-108h247v-147z" />
    <glyph glyph-name="afii10108" unicode="&#x45b;" horiz-adv-x="1155" 
d="M141 1444h212v-505q27 14 63 31t79 31.5t89.5 24.5t94.5 10q93 0 157.5 -34.5t104 -90t57.5 -124.5t18 -139v-648h-209v643q0 19 -3.5 55t-21.5 72t-55 63t-104 27q-30 0 -70 -9.5t-79 -23.5t-72 -29.5t-49 -28.5v-769h-212v1444zM686 1162h-619v148h619v-148z" />
    <glyph glyph-name="afii10106" unicode="&#x459;" horiz-adv-x="1762" 
d="M1342 616q74 0 138 -21.5t111.5 -62t74.5 -99t27 -131.5q0 -77 -24.5 -133.5t-70.5 -94t-110.5 -56t-145.5 -18.5h-422v837h-405v-65q0 -38 -2 -92t-7.5 -116.5t-15 -130t-25.5 -132t-38.5 -122.5t-53.5 -102t-71.5 -69.5t-91.5 -25.5q-24 0 -49.5 2.5t-46.5 6t-36.5 6.5
t-19.5 5l9 164q8 0 17.5 -2.5t20.5 -5t24 -4.5t29 -1q30 2 52.5 28.5t39 69.5t27.5 98.5t18.5 116t11 121t5.5 113.5t2.5 94.5t0.5 63.5v155h817v-397h210zM1131 148h170q48 0 83.5 8t58.5 26.5t34 49t11 74.5q0 82 -46.5 124.5t-151.5 42.5h-159v-325z" />
    <glyph glyph-name="afii10107" unicode="&#x45a;" horiz-adv-x="1714" 
d="M1089 1013v-397h211q74 0 138 -21.5t111 -62t74 -99t27 -131.5q0 -77 -24.5 -133.5t-70 -94t-110 -56t-145.5 -18.5h-423v427h-519v-427h-212v1013h212v-411h519v411h212zM1089 148h170q48 0 83.5 8t58.5 26.5t34 49t11 74.5q0 82 -46.5 124.5t-151.5 42.5h-159v-325z
" />
    <glyph glyph-name="afii10109" unicode="&#x45c;" horiz-adv-x="1097" 
d="M988 1013q-53 -136 -129.5 -244t-170.5 -190q30 -69 72.5 -143t92 -145t102 -135t103.5 -113l-150 -103q-48 34 -103.5 95.5t-108 135t-98 150t-72.5 139.5q-83 -48 -168 -78v-382h-212v1013h212v-428q77 32 138.5 76t111 99t88 118.5t70.5 134.5h222v0zM483 1170
l233 301l158 -103l-290 -268z" />
    <glyph glyph-name="afii10110" unicode="&#x45e;" horiz-adv-x="1072" 
d="M182 -377q30 36 63 80.5t67 94t66.5 101t59.5 101.5h-32q-74 129 -132 257t-101.5 254t-73.5 251.5t-49 250.5l227 10q13 -109 37 -222t56.5 -222t73 -210t86.5 -187h12q56 102 99 217t74.5 228t51 215.5t27.5 180.5l227 -10q-9 -81 -28.5 -170.5t-46.5 -182.5t-60 -185
t-69 -178t-74.5 -161.5t-76.5 -135.5q-23 -44 -58.5 -106.5t-75.5 -129t-81 -130.5t-74 -112zM559 1153q-89 0 -144 24.5t-87 61t-47.5 79t-25.5 77.5l135 31q6 -23 15 -48.5t27 -46.5t48 -35t80 -14t80 14t47.5 35t26 46.5t15.5 48.5l135 -31q-11 -36 -26.5 -78.5
t-47.5 -78.5t-87 -60.5t-144 -24.5z" />
    <glyph glyph-name="afii10053" unicode="&#x404;" horiz-adv-x="1183" 
d="M294 621q14 -232 119.5 -343.5t301.5 -111.5q89 0 171.5 26.5t173.5 74.5l73 -152q-101 -62 -218 -97.5t-229 -35.5q-139 0 -252 39t-192.5 123t-123 215.5t-43.5 317.5q0 196 43.5 335.5t123 228t192.5 130t252 41.5q59 0 118.5 -9.5t116.5 -27.5t110.5 -43t101.5 -55
l-71 -152q-88 49 -173.5 75.5t-173.5 26.5q-379 0 -419 -430h543v-176h-545z" />
    <glyph glyph-name="afii10047" unicode="&#x42d;" horiz-adv-x="1189" 
d="M351 797h543q-40 430 -419 430q-88 0 -173 -26.5t-173 -75.5l-72 152q96 61 212.5 98t234.5 37q139 0 252.5 -41.5t193 -130t123 -228t43.5 -335.5q0 -186 -43.5 -317.5t-123 -215.5t-193 -123t-252.5 -39q-112 0 -228.5 35.5t-218.5 97.5l73 152q91 -48 174 -74.5
t171 -26.5q196 0 302 111.5t120 343.5h-546v176z" />
    <glyph glyph-name="afii10097" unicode="&#x44f;" horiz-adv-x="1012" 
d="M64 56q89 80 155 162t117 167q-41 11 -78.5 38t-67 66.5t-47 89t-17.5 106.5q0 86 32.5 148t86 102t122.5 59t141 19h365v-1012h-206v337h-127q-5 0 -11 0.5t-12 1.5q-24 -48 -56.5 -100.5t-70.5 -104t-80 -100t-85 -88.5zM667 848h-171q-36 0 -68.5 -9.5t-56.5 -29.5
t-38.5 -51t-14.5 -73q0 -35 11.5 -67t33.5 -56.5t52 -39t68 -14.5h184v340z" />
    <glyph glyph-name="afii10101" unicode="&#x454;" horiz-adv-x="931" 
d="M67 519q0 142 34 240.5t94.5 160t144.5 89t184 27.5q82 0 164.5 -17t162.5 -62l-56 -156q-51 26 -108.5 41.5t-114.5 15.5q-134 0 -205 -61t-87 -198h392v-172h-393q16 -141 89 -202.5t209 -61.5q65 0 117.5 17t100.5 39l57 -159q-72 -42 -154.5 -60t-175.5 -18
q-123 0 -209 36t-141 105t-80 169t-25 227z" />
    <glyph glyph-name="afii10095" unicode="&#x44d;" horiz-adv-x="909" 
d="M838 519q0 -127 -25 -227t-80 -169t-141 -105t-209 -36q-93 0 -175.5 18t-154.5 60l57 159q48 -22 100.5 -39t117.5 -17q136 0 209 61.5t89 202.5h-393v172h392q-16 137 -87 198t-205 61q-57 0 -114.5 -15.5t-108.5 -41.5l-56 156q80 45 162.5 62t164.5 17
q100 0 184 -27.5t144.5 -89t94.5 -160t34 -240.5z" />
    <glyph glyph-name="afii10073" unicode="&#x437;" horiz-adv-x="797" 
d="M37 956q72 44 147.5 62.5t170.5 18.5q83 0 147 -18.5t107.5 -53.5t65.5 -85t22 -112q0 -81 -31.5 -137t-105.5 -94q34 -13 64 -34t52.5 -52t35.5 -72t13 -95q0 -84 -34 -141t-88 -92t-120.5 -51.5t-130.5 -17.5q-47 -2 -93.5 4t-89 17.5t-81 27t-70.5 33.5l58 153
q30 -15 56 -26t53.5 -18.5t60 -11.5t75.5 -4q34 0 69.5 7t63.5 23t46 43t18 67q0 22 -8 47t-27.5 46t-52.5 35t-83 14h-148v161l140 1q31 0 58.5 5t48.5 20t33 41.5t12 69.5q0 60 -40 92t-124 32q-28 0 -55 -2.5t-54.5 -9t-58 -18.5t-64.5 -30z" />
    <glyph glyph-name="napostrophe" unicode="&#x149;" horiz-adv-x="1365" 
d="M379 865q34 24 88 53.5t122.5 56t149 44t168.5 17.5q100 0 167.5 -31t109 -83t59.5 -120.5t18 -143.5v-658h-212v645q0 36 -7.5 74t-27 69t-54 50.5t-89.5 19.5q-38 0 -78 -9.5t-77.5 -24t-70 -31t-54.5 -29.5v-764h-212v865zM133 1049q131 0 131 -109v-5q0 -63 -12 -118
t-32.5 -103t-47.5 -88.5t-57 -74.5l-99 46q33 65 56.5 127.5t24.5 110.5q-51 7 -73 34t-22 74q0 54 33.5 80t97.5 26z" />
    <glyph glyph-name="lcommaaccent" unicode="&#x13c;" horiz-adv-x="504" 
d="M146 0v1444h212v-1444h-212zM231 -55q131 0 131 -109v-5q0 -63 -12 -118t-32.5 -103t-47.5 -88.5t-57 -74.5l-99 46q33 65 56.5 127.5t24.5 110.5q-51 7 -73 34t-22 74q0 54 33.5 80t97.5 26z" />
    <glyph glyph-name="g.end" horiz-adv-x="1118" 
d="M70 502q0 140 42 241t113.5 166t165 96t195.5 31q53 0 107 -8t105 -20.5t97 -29.5t84 -35v-910l-2 -1h2v-8q0 -122 -31 -211t-88.5 -147.5t-139 -87t-182.5 -28.5q-91 0 -187 18.5t-193 71.5l56 137q79 -35 145 -47t129 -12q66 0 118 14t88 48t54.5 90.5t18.5 140.5v83
q-28 -21 -58 -40.5t-64 -34t-72.5 -23t-83.5 -8.5q-93 0 -170 31.5t-132.5 95t-86 160t-30.5 227.5zM277 508q0 -91 18.5 -156.5t53 -107.5t84 -61.5t110.5 -19.5q30 0 62 7t62 19t56 28t44 34v570q-11 5 -29.5 12t-43 13t-53.5 10.5t-60 4.5q-57 0 -111.5 -19.5
t-97.5 -61.5t-69 -109t-26 -163z" />
    <glyph glyph-name="a.alt1000" horiz-adv-x="1043" 
d="M148 941q33 18 69.5 35t80 30.5t94.5 21.5t112 8q81 0 152.5 -17t125 -58t84 -109t30.5 -170l14 -682h-201l-18 104q-16 -15 -45 -36t-67.5 -40t-85 -32.5t-97.5 -13.5q-67 0 -125 17t-100.5 54t-67 94.5t-24.5 138.5q0 79 29.5 134.5t79.5 91t116 54t138 24.5l245 21v84
q0 32 -9.5 62t-34.5 53t-67 37t-106 14q-68 0 -134 -20t-125 -46zM687 485l-213 -18q-33 -3 -67 -11.5t-62.5 -27t-46.5 -49t-18 -76.5q0 -51 14.5 -84t39 -52.5t57.5 -27t69 -7.5q38 0 73 11t65 27.5t52.5 34.5t36.5 32v248z" />
    <glyph glyph-name="ae.alt1000" horiz-adv-x="1234" 
d="M148 941q33 18 69.5 35t80 30.5t94.5 21.5t112 8q103 0 188.5 -28t138.5 -98q64 63 152 94.5t195 31.5q87 0 160.5 -26t127 -71t83 -106t29.5 -131q0 -58 -17.5 -105t-57 -80.5t-104.5 -51.5t-160 -18h-339l1 -44q7 -62 25.5 -109.5t53 -79.5t86.5 -48t126 -16
q78 0 142.5 19.5t122.5 45.5l58 -135q-82 -47 -168.5 -72.5t-191.5 -25.5q-75 0 -135.5 13t-110.5 38l1 -33h-201l-18 104q-16 -15 -45 -36t-67.5 -40t-85 -32.5t-97.5 -13.5q-67 0 -125 17t-100.5 54t-67 94.5t-24.5 138.5q0 79 29.5 134.5t79.5 91t116 54t138 24.5l245 21
v84q0 32 -9.5 62t-34.5 53t-67 37t-106 14q-68 0 -134 -20t-125 -46zM687 485l-213 -18q-33 -3 -67 -11.5t-62.5 -27t-46.5 -49t-18 -76.5q0 -51 14.5 -84t39 -52.5t57.5 -27t69 -7.5q38 0 73 11t65 27.5t52.5 34.5t36.5 32v248zM1173 877q-65 0 -113 -24t-82 -65t-53.5 -96
t-25.5 -117h301q43 0 77.5 5t58 17.5t36 35t12.5 58.5q0 48 -18 83t-47 58t-67.5 34t-78.5 11z" />
    <glyph glyph-name="e.1000" horiz-adv-x="1059" 
d="M296 447q4 -73 20.5 -128.5t50.5 -93t88.5 -56.5t135.5 -19q78 0 142 19.5t122 45.5l58 -135q-82 -47 -168.5 -72.5t-191.5 -25.5q-240 0 -351.5 135.5t-111.5 400.5q0 129 35.5 226.5t100 162t153.5 97t197 32.5q87 0 161 -26t127 -71t83 -106t30 -131q0 -58 -17.5 -105
t-57 -80.5t-104.5 -51.5t-160 -18h-342zM572 877q-65 0 -113.5 -24t-82 -65t-53.5 -96t-26 -117h301q43 0 77.5 5t58 17.5t36 35t12.5 58.5q0 48 -18 83t-47 58t-67 34t-78 11z" />
    <glyph glyph-name="afii10067.1000" horiz-adv-x="1050" 
d="M146 0v1013h448q78 0 142.5 -16t110.5 -48.5t71.5 -81.5t25.5 -115q0 -83 -43 -137t-110 -81v-8q86 -22 137 -83t51 -156q0 -72 -24.5 -125.5t-70 -89.5t-111.5 -54t-150 -18h-477zM358 151h215q44 0 79 7.5t59.5 25.5t37.5 47t13 71q0 79 -50 115t-141 36h-213v-302z
M358 593h188q88 0 139.5 36t51.5 109q0 39 -14.5 64.5t-40 39.5t-61 19.5t-77.5 5.5h-186v-274z" />
    <glyph glyph-name="afii10073.1000" horiz-adv-x="797" 
d="M37 956q72 44 147.5 62.5t170.5 18.5q83 0 147 -18.5t107.5 -53.5t65.5 -85t22 -112q0 -81 -31.5 -137t-105.5 -94q34 -13 64 -34t52.5 -52t35.5 -72t13 -95q0 -84 -34 -141t-88 -92t-120.5 -51.5t-130.5 -17.5q-47 -2 -93.5 4t-89 17.5t-81 27t-70.5 33.5l58 140
q30 -15 56 -26t53.5 -18.5t60 -11.5t75.5 -4q34 0 70 7.5t64.5 25.5t47 47.5t18.5 73.5q0 25 -8.5 52.5t-28.5 50t-53.5 37t-83.5 14.5h-148v135l140 1q31 0 59 6t49.5 21.5t34 43.5t12.5 73q0 64 -41.5 100t-125.5 36q-28 0 -55 -2.5t-54.5 -9t-58 -18.5t-64.5 -30z" />
    <glyph glyph-name="afii10095.1000" horiz-adv-x="909" 
d="M838 519q0 -127 -25 -227t-80 -169t-141 -105t-209 -36q-93 0 -175.5 18t-154.5 60l57 145q48 -23 100.5 -39.5t117.5 -16.5q70 0 124 16.5t92.5 52t61 91.5t28.5 134h-401v140h401q-7 78 -28.5 133t-59 89.5t-90.5 50.5t-123 16q-57 0 -114.5 -15t-108.5 -41l-56 141
q80 45 162.5 62t164.5 17q100 0 184 -27.5t144.5 -89t94.5 -160t34 -240.5z" />
    <glyph glyph-name="g.alt1000" horiz-adv-x="1050" 
d="M137 640q0 84 30.5 156.5t85 126t130 83.5t166.5 30q46 0 92 -9.5t90 -29.5q32 24 81 46.5t115 22.5q44 0 72.5 -7.5t42.5 -14.5l-27 -128q-10 2 -26 4t-36 2q-26 0 -46.5 -7t-37.5 -18q42 -48 66.5 -112t24.5 -145q0 -95 -31 -169t-86 -124.5t-130 -77t-163 -26.5
q-99 0 -178 30q-16 -19 -16 -52q0 -35 24.5 -48.5t68.5 -18.5l238 -27q81 -7 137.5 -30t91 -59.5t50 -84.5t15.5 -105q0 -74 -28.5 -133t-85.5 -100.5t-142 -64t-197 -22.5q-95 0 -174 17.5t-136 52t-89 85t-32 115.5q0 28 5.5 49.5t12 38.5t13 30t9.5 22l168 -31
q-5 -11 -16 -33t-11 -54q0 -29 16 -54t48 -43.5t79 -29t110 -10.5q122 0 181 42t59 123q0 15 -2 35.5t-14.5 40t-41.5 36t-83 22.5l-252 28q-58 4 -99 19t-67 39t-38 56t-12 70q0 53 22.5 93t55.5 72q-49 50 -76 120t-27 161zM328 639q0 -53 17 -97t47 -75t70.5 -48
t86.5 -17t86 18t69.5 49.5t46.5 75.5t17 95q0 47 -16.5 88.5t-46 72.5t-69.5 49t-87 18t-87.5 -17.5t-70 -48.5t-46.5 -73t-17 -90z" />
    <glyph glyph-name="ij" unicode="&#x133;" horiz-adv-x="972" 
d="M159 0v1013h212v-1013h-212zM264 1390q130 0 130 -110q0 -48 -29.5 -77.5t-98.5 -29.5q-133 0 -133 109q0 56 33.5 82t97.5 26zM303 -177q53 -17 97.5 -26t82.5 -7q61 2 94 48.5t33 134.5v1040h212v-1053q0 -34 -5.5 -73t-19.5 -77t-37 -73t-58.5 -61.5t-84.5 -42
t-114 -15.5q-40 0 -77 6t-68.5 14.5t-56.5 18t-40 15.5zM716 1390q130 0 130 -110q0 -48 -30 -77.5t-98 -29.5q-134 0 -134 109q0 56 34 82t98 26z" />
    <glyph glyph-name="IJ" unicode="&#x132;" horiz-adv-x="1235" 
d="M194 0v1394h222v-1394h-222zM1076 379q0 -98 -16.5 -172t-54.5 -124t-100 -75.5t-152 -25.5q-37 0 -73.5 5.5t-71 14.5t-66 20t-56.5 23l44 166q36 -16 82 -30.5t87 -14.5q51 0 81.5 14t47 40t21.5 61.5t5 79.5v1033h222v-1015z" />
    <glyph glyph-name="g.alt" horiz-adv-x="1074" 
d="M137 640q0 84 30.5 156.5t85 126t130 83.5t166.5 30q46 0 92 -9.5t90 -29.5q32 24 81 46.5t115 22.5q44 0 72.5 -7.5t42.5 -14.5l-27 -128q-10 2 -26 4t-36 2q-26 0 -46.5 -7t-37.5 -18q42 -48 66.5 -112t24.5 -145q0 -95 -31 -169.5t-86 -125.5t-130 -78t-163 -27
q-98 0 -177 30q-10 -16 -10 -46q-1 -33 24 -47.5t72 -19.5l255 -27q71 -7 121.5 -30.5t83 -60.5t47.5 -85.5t15 -105.5q0 -74 -28.5 -133t-85.5 -100.5t-142 -64t-197 -22.5q-95 0 -174 17.5t-136 52t-89 85t-32 115.5q0 28 5.5 49.5t12 38.5t13 30t9.5 22l181 -31
q-5 -11 -16.5 -33t-11.5 -54q0 -52 60.5 -88t183.5 -36q237 0 237 151q0 13 -2 31.5t-15 36t-42 32t-84 21.5l-250 28q-56 4 -97 21.5t-67.5 45.5t-39 64.5t-12.5 79.5q0 54 20 91.5t50 66.5q-45 51 -70 119t-25 156zM338 640q0 -51 16.5 -93t45 -72t67 -46.5t82.5 -16.5
t82.5 17t66.5 47.5t44 72t16 91.5q0 45 -16 84.5t-43.5 69t-66 47t-83.5 17.5t-83.5 -17t-67 -46.5t-44.5 -69t-16 -85.5z" />
    <glyph glyph-name="s.1000" horiz-adv-x="898" 
d="M123 223q44 -22 85 -36.5t80 -22.5t77 -11.5t76 -3.5q42 0 73.5 11t53 30t32.5 44.5t11 53.5t-9 50.5t-33.5 42t-67 38.5t-108.5 42q-63 21 -118.5 42t-97 52.5t-65.5 78t-24 117.5q0 72 27.5 126t78 89t120.5 52.5t155 17.5q91 0 169 -19.5t153 -58.5l-58 -146
q-37 15 -68.5 25.5t-60.5 17t-57 10t-58 3.5q-90 0 -142 -31.5t-52 -97.5q0 -34 18.5 -54.5t49.5 -34.5t70.5 -25t81.5 -24q82 -26 139.5 -54.5t93.5 -66t52.5 -86t16.5 -113.5q0 -68 -26 -123t-74 -94t-117 -60.5t-154 -21.5q-66 0 -125.5 9.5t-109 23.5t-87.5 30.5
t-62 30.5z" />
    <glyph glyph-name="oe.1000" horiz-adv-x="1845" 
d="M90 516q0 120 33 216t95.5 163.5t153.5 104t207 36.5q94 0 182.5 -28.5t156 -90.5t108.5 -161t41 -241q0 -129 -33.5 -228.5t-96.5 -167t-153.5 -102.5t-204.5 -35t-204.5 34t-153.5 101.5t-97 167.5t-34 231zM298 515q0 -98 20.5 -166t58 -110.5t89 -62t114.5 -19.5
t114.5 20t88.5 63.5t57 111.5t20 163q0 90 -21 155t-58.5 107.5t-88.5 63t-112 20.5q-63 0 -115 -21t-89 -64t-57.5 -108t-20.5 -153zM1082 447q4 -73 20.5 -128.5t50.5 -93t88.5 -56.5t135.5 -19q78 0 142 19.5t122 45.5l58 -135q-82 -47 -168.5 -72.5t-191.5 -25.5
q-240 0 -351.5 135.5t-111.5 400.5q0 129 35.5 226.5t100 162t153.5 97t197 32.5q87 0 161 -26t127 -71t83 -106t30 -131q0 -58 -17.5 -105t-57 -80.5t-104.5 -51.5t-160 -18h-342zM1358 877q-65 0 -113.5 -24t-82 -65t-53.5 -96t-26 -117h301q43 0 77.5 5t58 17.5t36 35
t12.5 58.5q0 48 -18 83t-47 58t-67 34t-78 11z" />
    <glyph glyph-name="a.alt" horiz-adv-x="1037" 
d="M156 941q33 18 69.5 35t80 30.5t94.5 21.5t112 8q81 0 152.5 -17t125 -58t84 -109t30.5 -170v-682h-184l-26 99q-16 -15 -42 -35t-62 -38.5t-82.5 -31t-103.5 -12.5q-68 0 -125.5 16t-99.5 53t-65.5 96t-23.5 146q0 77 29 131.5t78.5 91t114.5 56t138 25.5l241 21v77
q0 32 -9 62t-33 53t-65.5 37t-105.5 14q-69 0 -134.5 -20t-125.5 -46zM691 477l-208 -19q-32 -3 -65 -11t-59.5 -26t-43.5 -47.5t-17 -73.5q0 -47 13.5 -76.5t36 -47t52.5 -24t64 -6.5q38 0 72.5 7.5t63.5 19t52 25.5t39 28v251z" />
    <glyph glyph-name="zero.fitted" horiz-adv-x="1235" 
d="M1143 702q0 -94 -11.5 -184t-36.5 -170.5t-65.5 -147.5t-98.5 -115.5t-135 -75.5t-176 -27q-122 0 -219 41.5t-164.5 128.5t-103 221.5t-35.5 320.5q0 84 10.5 170t34 165.5t63 149.5t97.5 121.5t136.5 81.5t180.5 30q99 0 176.5 -27.5t135.5 -77t98.5 -117t65.5 -146.5
t36 -166t11 -176zM931 697q0 147 -21.5 249t-61.5 165.5t-98 92.5t-132 29q-66 0 -114.5 -23.5t-82.5 -63.5t-56 -93t-34 -112t-16.5 -121t-4.5 -120q0 -59 4.5 -121.5t16 -122.5t33 -113.5t56 -94t83 -64t115.5 -23.5q73 0 131.5 29t99 92.5t61.5 165.5t21 249z" />
    <glyph glyph-name="one.fitted" horiz-adv-x="1235" 
d="M304 1209v185h441v-1394h-222v1209h-219zM323 192h622v-192h-622v192z" />
    <glyph glyph-name="two.fitted" horiz-adv-x="1235" 
d="M156 0v166q136 134 254.5 250.5t206.5 218.5t138.5 191t50.5 169q0 30 -8.5 70t-33.5 76t-71.5 61t-122.5 25q-51 0 -93 -6.5t-80.5 -19t-76.5 -32t-81 -44.5l-73 148q47 33 96 59t102 43.5t112.5 27t128.5 9.5q205 0 311 -94.5t106 -277.5q0 -81 -22 -156t-61.5 -146
t-93 -139.5t-116.5 -137t-132.5 -137t-140.5 -139.5h611v-185h-911z" />
    <glyph glyph-name="three.fitted" horiz-adv-x="1235" 
d="M157 1284q49 30 98 53.5t101 40t108.5 25.5t120.5 9q112 0 198.5 -24t145 -68.5t89 -108.5t30.5 -144q0 -54 -10 -102.5t-33.5 -90t-61 -77t-91.5 -63.5q50 -17 92.5 -46.5t74 -71.5t49 -97.5t17.5 -125.5q0 -81 -20 -142.5t-55 -106.5t-83 -75.5t-104 -49t-117.5 -27.5
t-123.5 -10q-57 -2 -116.5 5.5t-116.5 22.5t-110 37.5t-98 51.5l71 155q43 -22 80.5 -38.5t77.5 -27.5t86 -16.5t105 -5.5q61 0 117 12t98 39.5t67 73.5t25 114q0 37 -17.5 77t-55.5 72.5t-100 53.5t-150 21h-169v171l165 1q66 0 119.5 13t91 41t58 73t20.5 108q0 48 -20 84
t-56 60t-86 35.5t-109 11.5q-42 0 -82 -5.5t-79.5 -16.5t-81 -29.5t-87.5 -43.5z" />
    <glyph glyph-name="four.fitted" horiz-adv-x="1235" 
d="M731 0v289h-605v185l414 920h231l-407 -917h367v298h209v-298h159v-188h-159v-289h-209z" />
    <glyph glyph-name="five.fitted" horiz-adv-x="1235" 
d="M218 282q49 -26 94 -47t90 -36.5t91 -24t99 -8.5q140 0 216 68t76 191q0 60 -22.5 105t-64.5 75t-100.5 45t-130.5 15h-323v729h763v-178h-549v-382h169q104 0 191.5 -27.5t150.5 -80t98 -128.5t35 -173q0 -117 -40.5 -201t-109.5 -138t-161.5 -79t-197.5 -25
q-67 0 -129 13t-118 34t-105 47t-90 52z" />
    <glyph glyph-name="six.fitted" horiz-adv-x="1235" 
d="M120 643q0 187 39 330.5t112.5 241t179 147.5t238.5 50q77 0 137.5 -10t107 -25t81.5 -32.5t62 -33.5l-75 -159q-22 11 -47.5 24t-58.5 24.5t-76.5 19t-100.5 7.5q-99 0 -166 -35t-109.5 -90.5t-64 -124.5t-28.5 -138q88 40 173.5 56t159.5 16q106 0 186.5 -33.5
t134 -93.5t80.5 -143t27 -182q0 -107 -32 -195t-94.5 -150.5t-155 -97t-213.5 -34.5q-137 0 -231.5 46.5t-153.5 132.5t-85.5 208t-26.5 274zM340 653q-12 -243 56 -364.5t219 -121.5q64 0 115.5 19.5t88 56t56.5 89t20 119.5q0 60 -15.5 111t-46.5 88t-78 58t-109 21
q-40 0 -84 -7t-85.5 -18t-77.5 -24.5t-59 -26.5z" />
    <glyph glyph-name="seven.fitted" horiz-adv-x="1235" 
d="M208 1209v185h869v-192q-49 -60 -98 -144.5t-95.5 -184.5t-89.5 -211.5t-79.5 -225t-65 -225t-46.5 -211.5h-236q38 170 89.5 340t111.5 327t125 295.5t129 246.5h-614z" />
    <glyph glyph-name="eight.fitted" horiz-adv-x="1235" 
d="M122 357q0 66 26.5 125t65.5 108t83 87.5t80 64.5q-33 19 -72 48.5t-73 70t-57 91t-23 112.5q0 83 32 147.5t92 109t145 68t190 23.5q130 0 220.5 -29t147 -77.5t82 -111.5t25.5 -130q0 -61 -20 -112t-53 -94.5t-75 -81t-87 -72.5q60 -30 109 -66t84 -78t54 -91t19 -106
q0 -84 -30.5 -154.5t-93 -120.5t-156.5 -78t-221 -28q-122 0 -214 27t-154.5 76.5t-94 118.5t-31.5 153zM339 372q0 -103 72 -161t207 -58q66 0 118 15t88.5 42.5t55.5 66.5t19 88q0 57 -25.5 99t-72 76.5t-112 64.5t-145.5 63q-24 -18 -59 -47t-67.5 -66.5t-55.5 -83.5
t-23 -99zM369 1053q0 -50 27.5 -88.5t72.5 -69.5t102 -56.5t117 -49.5q31 25 63.5 49.5t58.5 54.5t43 67.5t17 88.5q0 41 -14.5 76t-44.5 61t-77.5 41t-113.5 15q-116 0 -183.5 -46t-67.5 -143z" />
    <glyph glyph-name="nine.fitted" horiz-adv-x="1235" 
d="M1109 751q0 -187 -39 -330.5t-112.5 -241t-179 -147.5t-238.5 -50q-77 0 -137.5 9.5t-107 24.5t-81.5 32.5t-62 33.5l75 160q22 -11 47.5 -24.5t58.5 -25t76.5 -19t100.5 -7.5q71 0 125 18.5t93.5 50t66.5 72.5t44.5 86t26.5 90.5t14 86.5q-84 -46 -172.5 -67t-162.5 -21
q-107 0 -187 33.5t-133.5 94t-80.5 143.5t-27 182q0 107 32 195t94.5 150.5t155 97t213.5 34.5q137 0 232 -46.5t154 -132.5t85 -208t26 -274zM891 756q1 118 -14 206t-48.5 146.5t-86 88t-127.5 29.5q-64 0 -116 -19.5t-88.5 -56t-56.5 -89t-20 -118.5q0 -61 15.5 -112
t46.5 -88t78 -57.5t109 -20.5q40 0 84 8.5t85.5 21.5t77.5 29t61 32z" />
    <glyph glyph-name="zerooldstyle" unicode="&#xf730;" horiz-adv-x="974" 
d="M71 507q0 142 32.5 242t89 164t131.5 93.5t161 29.5q85 0 160.5 -29.5t132 -93.5t89 -164t32.5 -242t-32.5 -242.5t-89 -164t-132 -93t-160.5 -29.5q-86 0 -161 29.5t-131.5 93t-89 164t-32.5 242.5zM266 507q0 -94 15 -160.5t43 -109t68.5 -62t92.5 -19.5
q51 0 91.5 19.5t68.5 62t43 109t15 160.5t-14.5 160.5t-42.5 109t-68.5 62.5t-92.5 20t-92.5 -20t-68.5 -62.5t-43 -109t-15 -160.5z" />
    <glyph glyph-name="oneoldstyle" unicode="&#xf731;" horiz-adv-x="749" 
d="M104 828v186h430v-1014h-211v828h-219z" />
    <glyph glyph-name="twooldstyle" unicode="&#xf732;" horiz-adv-x="987" 
d="M123 0v156q99 89 195.5 169t172.5 151t122.5 132.5t46.5 114.5q0 19 -8.5 43.5t-30 45.5t-58 35.5t-92.5 14.5q-37 0 -69 -6t-61.5 -18t-57.5 -28.5t-57 -37.5l-83 142q35 26 80 48t94.5 38.5t101.5 26t103 9.5q75 0 138 -18t109 -52.5t71.5 -85.5t25.5 -117
q0 -58 -19.5 -111.5t-52 -104t-76 -98.5t-90.5 -93.5t-95 -89.5t-91 -87h449v-179h-768z" />
    <glyph glyph-name="threeoldstyle" unicode="&#xf733;" horiz-adv-x="1078" 
d="M98 895q42 30 84.5 54t89.5 41t100.5 26t117.5 9q112 0 196 -24t139.5 -68.5t83.5 -108.5t28 -144q0 -54 -10 -102t-33 -89.5t-60.5 -76.5t-92.5 -65q50 -17 93 -47.5t74 -73.5t48.5 -98t17.5 -122q0 -121 -41 -199.5t-109 -125t-155.5 -65.5t-181.5 -21
q-230 -6 -411 111l71 152q39 -21 75 -37t73.5 -27.5t81 -17t97.5 -5.5q62 0 115.5 13t93 41.5t62 74t22.5 110.5q0 41 -15 82t-50.5 74t-94.5 53.5t-147 20.5h-169v174l164 1q66 0 117.5 13.5t86 42.5t52.5 75.5t18 112.5q0 43 -19 78.5t-53.5 60t-81.5 38.5t-104 14
q-42 0 -77.5 -6.5t-70 -20t-71 -33.5t-78.5 -47z" />
    <glyph glyph-name="fouroldstyle" unicode="&#xf734;" horiz-adv-x="1113" 
d="M670 -390v299h-595v178l414 927h228l-408 -926h361v298h212v-298h153v-179h-153v-299h-212z" />
    <glyph glyph-name="fiveoldstyle" unicode="&#xf735;" horiz-adv-x="1133" 
d="M155 -105q44 -26 84 -46.5t78 -35t76.5 -22.5t80.5 -8q149 0 220 68t71 189q0 120 -80.5 178.5t-225.5 58.5h-285v736h703v-180h-505v-377h138q104 0 189.5 -28t146 -80.5t93.5 -129t33 -174.5q0 -117 -36.5 -200t-100.5 -135.5t-150.5 -76.5t-186.5 -24q-64 0 -122 12
t-109.5 30.5t-96.5 42.5t-84 48z" />
    <glyph glyph-name="sixoldstyle" unicode="&#xf736;" horiz-adv-x="1150" 
d="M100 643q0 187 35 330.5t103.5 241t170 147.5t234.5 50q76 0 133 -9.5t99.5 -24.5t74.5 -32.5t59 -33.5l-71 -155q-22 11 -46 25t-54.5 26t-70.5 20.5t-94 8.5q-66 0 -116.5 -17t-87.5 -46t-62.5 -68t-42.5 -83t-26 -91t-14 -93q43 20 82 33.5t75 22t71 12.5t72 4
q106 0 186.5 -33.5t134 -93.5t80.5 -143t27 -182q0 -107 -28 -195t-85.5 -150.5t-146 -97t-209.5 -34.5q-137 0 -229.5 46.5t-149 132.5t-80.5 208t-24 274zM310 656q-10 -247 55 -373t216 -126q66 0 115.5 20.5t82.5 59t49.5 92.5t16.5 122q0 64 -16 116.5t-48 90t-79.5 58
t-109.5 20.5q-40 0 -80 -7.5t-77.5 -19.5t-69.5 -26t-55 -27z" />
    <glyph glyph-name="sevenoldstyle" unicode="&#xf737;" horiz-adv-x="1060" 
d="M108 826v188h869v-193q-50 -67 -99.5 -154.5t-96 -187.5t-89.5 -209t-79 -220t-64 -220.5t-46 -209.5h-224q38 170 90.5 339.5t112.5 326t125.5 294.5t129.5 246h-629z" />
    <glyph glyph-name="eightoldstyle" unicode="&#xf738;" horiz-adv-x="1229" 
d="M122 357q0 66 27 125.5t67 110t84.5 89.5t80.5 65q-33 19 -72.5 47.5t-74.5 68t-58.5 89.5t-23.5 112q0 80 32 144.5t92 109.5t145 69.5t190 24.5q130 0 220.5 -29t147 -77.5t82 -111.5t25.5 -130q0 -61 -20.5 -112t-54.5 -94.5t-76.5 -81.5t-87.5 -73
q60 -30 109.5 -65.5t85.5 -77.5t55.5 -91t19.5 -106q0 -84 -30.5 -154.5t-93 -120.5t-156.5 -78t-221 -28q-122 0 -214 27t-154.5 76.5t-94 118.5t-31.5 153zM329 377q0 -51 20 -92t57.5 -69.5t91 -43.5t120.5 -15q66 0 120 15t92 42.5t59 67t21 88.5q0 57 -27.5 98.5
t-76 75t-115.5 62.5t-146 60q-24 -18 -60.5 -45t-71 -63.5t-59.5 -81.5t-25 -99zM359 1050q0 -51 28.5 -90t75 -69.5t105 -56t119.5 -49.5q25 19 58 43t63 56t50.5 72.5t20.5 92.5q0 41 -15.5 75.5t-47.5 59t-81 38.5t-115 14q-58 0 -106 -11t-82.5 -34t-53.5 -58t-19 -83z
" />
    <glyph glyph-name="nineoldstyle" unicode="&#xf739;" horiz-adv-x="1150" 
d="M1052 375q0 -187 -35 -330.5t-103.5 -241t-170 -147.5t-234.5 -50q-76 0 -133 9.5t-99.5 24.5t-74.5 32.5t-59 33.5l71 155q22 -11 46 -25t54.5 -26t70.5 -20.5t94 -8.5q99 0 163.5 36.5t103.5 94t57 128t26 139.5q-44 -20 -82.5 -34t-75 -22.5t-71.5 -12.5t-72 -4
q-107 0 -187 34t-133.5 94t-80.5 143t-27 182q0 107 28 195t85.5 150.5t146 97t209.5 34.5q137 0 229.5 -46.5t149 -132.5t80.5 -208t24 -274zM842 362q10 247 -55 372.5t-216 125.5q-66 0 -115.5 -20.5t-82.5 -59t-49.5 -92.5t-16.5 -121q0 -64 16 -116.5t48 -90t79.5 -58
t109.5 -20.5q40 0 80 7.5t77.5 19.5t69.5 26t55 27z" />
    <glyph glyph-name="zero.taboldstyle" horiz-adv-x="974" 
d="M71 507q0 142 32.5 242t89 164t131.5 93.5t161 29.5q85 0 160.5 -29.5t132 -93.5t89 -164t32.5 -242t-32.5 -242.5t-89 -164t-132 -93t-160.5 -29.5q-86 0 -161 29.5t-131.5 93t-89 164t-32.5 242.5zM266 507q0 -94 15 -160.5t43 -109t68.5 -62t92.5 -19.5
q51 0 91.5 19.5t68.5 62t43 109t15 160.5t-14.5 160.5t-42.5 109t-68.5 62.5t-92.5 20t-92.5 -20t-68.5 -62.5t-43 -109t-15 -160.5z" />
    <glyph glyph-name="one.taboldstyle" horiz-adv-x="749" 
d="M104 828v186h430v-1014h-211v828h-219z" />
    <glyph glyph-name="two.taboldstyle" horiz-adv-x="987" 
d="M123 0v156q99 89 195.5 169t172.5 151t122.5 132.5t46.5 114.5q0 19 -8.5 43.5t-30 45.5t-58 35.5t-92.5 14.5q-37 0 -69 -6t-61.5 -18t-57.5 -28.5t-57 -37.5l-83 142q35 26 80 48t94.5 38.5t101.5 26t103 9.5q75 0 138 -18t109 -52.5t71.5 -85.5t25.5 -117
q0 -58 -19.5 -111.5t-52 -104t-76 -98.5t-90.5 -93.5t-95 -89.5t-91 -87h449v-179h-768z" />
    <glyph glyph-name="three.taboldstyle" horiz-adv-x="1078" 
d="M98 895q42 30 84.5 54t89.5 41t100.5 26t117.5 9q112 0 196 -24t139.5 -68.5t83.5 -108.5t28 -144q0 -54 -10 -102t-33 -89.5t-60.5 -76.5t-92.5 -65q50 -17 93 -47.5t74 -73.5t48.5 -98t17.5 -122q0 -121 -41 -199.5t-109 -125t-155.5 -65.5t-181.5 -21
q-230 -6 -411 111l71 152q39 -21 75 -37t73.5 -27.5t81 -17t97.5 -5.5q62 0 115.5 13t93 41.5t62 74t22.5 110.5q0 41 -15 82t-50.5 74t-94.5 53.5t-147 20.5h-169v174l164 1q66 0 117.5 13.5t86 42.5t52.5 75.5t18 112.5q0 43 -19 78.5t-53.5 60t-81.5 38.5t-104 14
q-42 0 -77.5 -6.5t-70 -20t-71 -33.5t-78.5 -47z" />
    <glyph glyph-name="four.taboldstyle" horiz-adv-x="1113" 
d="M670 -390v299h-595v178l414 927h228l-408 -926h361v298h212v-298h153v-179h-153v-299h-212z" />
    <glyph glyph-name="five.taboldstyle" horiz-adv-x="1133" 
d="M155 -105q44 -26 84 -46.5t78 -35t76.5 -22.5t80.5 -8q149 0 220 68t71 189q0 120 -80.5 178.5t-225.5 58.5h-285v736h703v-180h-505v-377h138q104 0 189.5 -28t146 -80.5t93.5 -129t33 -174.5q0 -117 -36.5 -200t-100.5 -135.5t-150.5 -76.5t-186.5 -24q-64 0 -122 12
t-109.5 30.5t-96.5 42.5t-84 48z" />
    <glyph glyph-name="six.taboldstyle" horiz-adv-x="1150" 
d="M100 643q0 187 35 330.5t103.5 241t170 147.5t234.5 50q76 0 133 -9.5t99.5 -24.5t74.5 -32.5t59 -33.5l-71 -155q-22 11 -46 25t-54.5 26t-70.5 20.5t-94 8.5q-66 0 -116.5 -17t-87.5 -46t-62.5 -68t-42.5 -83t-26 -91t-14 -93q43 20 82 33.5t75 22t71 12.5t72 4
q106 0 186.5 -33.5t134 -93.5t80.5 -143t27 -182q0 -107 -28 -195t-85.5 -150.5t-146 -97t-209.5 -34.5q-137 0 -229.5 46.5t-149 132.5t-80.5 208t-24 274zM310 656q-10 -247 55 -373t216 -126q66 0 115.5 20.5t82.5 59t49.5 92.5t16.5 122q0 64 -16 116.5t-48 90t-79.5 58
t-109.5 20.5q-40 0 -80 -7.5t-77.5 -19.5t-69.5 -26t-55 -27z" />
    <glyph glyph-name="seven.taboldstyle" horiz-adv-x="1060" 
d="M108 826v188h869v-193q-50 -67 -99.5 -154.5t-96 -187.5t-89.5 -209t-79 -220t-64 -220.5t-46 -209.5h-224q38 170 90.5 339.5t112.5 326t125.5 294.5t129.5 246h-629z" />
    <glyph glyph-name="eight.taboldstyle" horiz-adv-x="1229" 
d="M122 357q0 66 27 125.5t67 110t84.5 89.5t80.5 65q-33 19 -72.5 47.5t-74.5 68t-58.5 89.5t-23.5 112q0 80 32 144.5t92 109.5t145 69.5t190 24.5q130 0 220.5 -29t147 -77.5t82 -111.5t25.5 -130q0 -61 -20.5 -112t-54.5 -94.5t-76.5 -81.5t-87.5 -73
q60 -30 109.5 -65.5t85.5 -77.5t55.5 -91t19.5 -106q0 -84 -30.5 -154.5t-93 -120.5t-156.5 -78t-221 -28q-122 0 -214 27t-154.5 76.5t-94 118.5t-31.5 153zM329 377q0 -51 20 -92t57.5 -69.5t91 -43.5t120.5 -15q66 0 120 15t92 42.5t59 67t21 88.5q0 57 -27.5 98.5
t-76 75t-115.5 62.5t-146 60q-24 -18 -60.5 -45t-71 -63.5t-59.5 -81.5t-25 -99zM359 1050q0 -51 28.5 -90t75 -69.5t105 -56t119.5 -49.5q25 19 58 43t63 56t50.5 72.5t20.5 92.5q0 41 -15.5 75.5t-47.5 59t-81 38.5t-115 14q-58 0 -106 -11t-82.5 -34t-53.5 -58t-19 -83z
" />
    <glyph glyph-name="nine.taboldstyle" horiz-adv-x="1150" 
d="M1052 375q0 -187 -35 -330.5t-103.5 -241t-170 -147.5t-234.5 -50q-76 0 -133 9.5t-99.5 24.5t-74.5 32.5t-59 33.5l71 155q22 -11 46 -25t54.5 -26t70.5 -20.5t94 -8.5q99 0 163.5 36.5t103.5 94t57 128t26 139.5q-44 -20 -82.5 -34t-75 -22.5t-71.5 -12.5t-72 -4
q-107 0 -187 34t-133.5 94t-80.5 143t-27 182q0 107 28 195t85.5 150.5t146 97t209.5 34.5q137 0 229.5 -46.5t149 -132.5t80.5 -208t24 -274zM842 362q10 247 -55 372.5t-216 125.5q-66 0 -115.5 -20.5t-82.5 -59t-49.5 -92.5t-16.5 -121q0 -64 16 -116.5t48 -90t79.5 -58
t109.5 -20.5q40 0 80 7.5t77.5 19.5t69.5 26t55 27z" />
    <glyph glyph-name="zerosuperior" unicode="&#x2070;" horiz-adv-x="739" 
d="M47 1110q0 109 25 186.5t68 126.5t101 72t124 23t124 -23t101.5 -72t68.5 -126.5t25 -186.5q0 -110 -25 -187t-68.5 -126t-101.5 -71.5t-124 -22.5t-124 22.5t-101 71.5t-68 126t-25 187zM211 1110q0 -72 9 -121.5t28 -80t48 -44t69 -13.5t69 13.5t48 44t28.5 80
t9.5 121.5t-9.5 121.5t-28.5 80.5t-48 44.5t-69 13.5t-69 -13.5t-48 -44.5t-28 -80.5t-9 -121.5z" />
    <glyph glyph-name="onesuperior" unicode="&#xb9;" horiz-adv-x="581" 
d="M81 1347v157h338v-781h-169v624h-169z" />
    <glyph glyph-name="twosuperior" unicode="&#xb2;" horiz-adv-x="763" 
d="M96 719v136q76 69 146.5 128t124.5 109.5t86.5 93.5t32.5 79q0 18 -4 36.5t-16.5 33.5t-35.5 24t-61 9q-52 0 -95 -16.5t-88 -49.5l-71 116q55 41 127 70t161 29q116 0 184 -57.5t68 -175.5q0 -58 -28 -111.5t-71.5 -104t-97.5 -100t-106 -99.5h322v-150h-578z" />
    <glyph glyph-name="threesuperior" unicode="&#xb3;" horiz-adv-x="636" 
d="M58 1442q25 17 51 31t55 24t63 15.5t75 5.5q122 0 184.5 -53.5t62.5 -146.5q0 -63 -26.5 -114t-85.5 -78q57 -20 95.5 -70t38.5 -127q0 -70 -24 -116t-63 -73t-90 -37.5t-105 -10.5q-60 -1 -125 14.5t-119 48.5l53 112q20 -10 38 -17t37.5 -12t41 -7.5t47.5 -2.5
q69 0 106.5 24t37.5 84q0 20 -9 40t-27.5 36.5t-47.5 27t-68 10.5h-78v133h79q57 1 93.5 25t36.5 80q0 44 -27.5 67.5t-90.5 23.5q-36 0 -70 -10t-81 -38z" />
    <glyph glyph-name="foursuperior" unicode="&#x2074;" horiz-adv-x="648" 
d="M379 715v169h-333v133l238 496h169l-232 -490h158v139h146v-139h85v-139h-85v-169h-146z" />
    <glyph glyph-name="fivesuperior" unicode="&#x2075;" horiz-adv-x="660" 
d="M107 894q46 -27 86.5 -40t81.5 -13q31 0 58.5 6t47 19.5t31 35t11.5 53.5q0 70 -40 100.5t-123 30.5h-157v429h405v-133h-268v-166h56q60 0 113 -16.5t92.5 -48.5t62.5 -81t23 -115q0 -68 -24 -117t-64 -80.5t-92.5 -46.5t-110.5 -15q-37 0 -71.5 7t-66 18t-59 24.5
t-49.5 27.5z" />
    <glyph glyph-name="sixsuperior" unicode="&#x2076;" horiz-adv-x="669" 
d="M61 1079q0 217 80.5 327.5t231.5 110.5q82 0 136 -19t84 -38l-50 -110q-27 14 -62 24.5t-90 9.5q-49 -1 -81 -14t-51.5 -36.5t-28.5 -55.5t-13 -71q26 11 64.5 19.5t80.5 8.5q64 0 111 -19.5t77.5 -54t45 -82.5t14.5 -105q0 -62 -16 -112t-49.5 -85t-84.5 -54t-121 -19
q-83 0 -136.5 26t-85 74.5t-44 118t-12.5 156.5zM209 1074q-3 -66 2 -111.5t20 -74t41 -41t66 -12.5q62 0 93.5 30t31.5 104q0 36 -5.5 61.5t-19 42t-36.5 24t-59 7.5q-45 0 -76.5 -8t-57.5 -22z" />
    <glyph glyph-name="sevensuperior" unicode="&#x2077;" horiz-adv-x="617" 
d="M64 1384v126h502v-127q-43 -59 -85.5 -137t-79 -166.5t-65 -181t-44.5 -179.5h-153q22 98 52 191t65 177.5t72.5 159.5t74.5 137h-339z" />
    <glyph glyph-name="eightsuperior" unicode="&#x2078;" horiz-adv-x="716" 
d="M73 921q0 38 14 71t35 60t45.5 47.5t45.5 35.5q-17 12 -38.5 28t-40.5 38t-31.5 50t-12.5 64q0 46 19 83.5t53.5 63.5t83.5 40t110 14q75 0 127.5 -16.5t85 -44.5t47 -64.5t14.5 -76.5q0 -35 -12.5 -64t-32 -53t-43 -43.5t-46.5 -35.5q69 -35 110.5 -81t41.5 -113
q0 -49 -18 -89.5t-54 -70t-90.5 -45.5t-127.5 -16q-70 0 -123 16t-89 44.5t-54.5 69t-18.5 88.5zM215 934q0 -45 34 -74.5t111 -29.5q76 0 111 28t35 72q0 32 -15 54t-40 38.5t-58 30t-69 28.5q-10 -8 -28.5 -21.5t-36.5 -32t-31 -42t-13 -51.5zM231 1305q1 -25 14.5 -44.5
t35 -35.5t49.5 -28.5t58 -24.5q12 7 29 17.5t32.5 26t27 37t11.5 51.5q0 19 -6 35.5t-20.5 27.5t-39 17.5t-62.5 6.5q-66 0 -98 -20t-31 -66z" />
    <glyph glyph-name="ninesuperior" unicode="&#x2079;" horiz-adv-x="691" 
d="M610 1142q0 -217 -81 -327.5t-232 -110.5q-82 0 -136 19t-84 38l51 110q13 -7 28 -13t33.5 -11t40.5 -7.5t50 -2.5q48 1 80 14t51.5 36.5t28.5 55.5t13 71q-26 -11 -64.5 -19.5t-80.5 -8.5q-64 0 -110.5 19.5t-77 54t-45 82.5t-14.5 105q0 62 16 112t49 85t84 54t121 19
q82 0 136 -26t86 -74.5t44.5 -118t12.5 -156.5zM461 1147q3 66 -1.5 111.5t-19.5 74t-41.5 41t-66.5 12.5q-62 0 -93 -30t-31 -104q0 -36 5 -61.5t18.5 -42t36.5 -24t59 -7.5q45 0 76.5 7.5t57.5 22.5z" />
    <glyph glyph-name="parenleftsuperior" unicode="&#x207d;" horiz-adv-x="550" 
d="M129 1096q0 91 16 177t40 160.5t51 135.5t49 104l144 -22q-20 -48 -44.5 -110t-45.5 -135t-35.5 -153t-14.5 -164q0 -71 12.5 -144.5t32.5 -145t45 -136.5t51 -118l-145 -22q-28 49 -56 113.5t-50 138.5t-36 155.5t-14 165.5z" />
    <glyph glyph-name="parenrightsuperior" unicode="&#x207e;" horiz-adv-x="550" 
d="M430 1096q0 -84 -13.5 -165.5t-35.5 -155.5t-50 -138.5t-56 -113.5l-146 22q26 53 51.5 118t45.5 136.5t32 145t12 144.5q0 84 -14 164t-35 153t-45.5 135t-45.5 110l145 22q22 -43 49 -104t50.5 -135.5t39.5 -160.5t16 -177z" />
    <glyph glyph-name="zeroinferior" unicode="&#x2080;" horiz-adv-x="739" 
d="M47 135q0 109 25 186t68 126t101 72t124 23t124 -23t101.5 -72t68.5 -126t25 -186q0 -110 -25 -187t-68.5 -126t-101.5 -71.5t-124 -22.5t-124 22.5t-101 71.5t-68 126t-25 187zM211 135q0 -72 9 -122t28 -80.5t48 -44t69 -13.5t69 13.5t48 44t28.5 80.5t9.5 122
t-9.5 121.5t-28.5 80.5t-48 44.5t-69 13.5t-69 -13.5t-48 -44.5t-28 -80.5t-9 -121.5z" />
    <glyph glyph-name="oneinferior" unicode="&#x2081;" horiz-adv-x="581" 
d="M81 374v156h338v-780h-169v624h-169z" />
    <glyph glyph-name="twoinferior" unicode="&#x2082;" horiz-adv-x="763" 
d="M96 -268v136q76 69 149 130t129 114t90.5 98.5t34.5 81.5q0 18 -6 34.5t-21 28.5t-40 19t-63 7q-52 0 -95 -16.5t-88 -49.5l-71 116q55 41 127 70t161 29q58 0 107 -12.5t84 -38.5t55 -68t20 -100t-30 -113.5t-76.5 -109t-102.5 -105t-108 -101.5h335v-150h-591z" />
    <glyph glyph-name="threeinferior" unicode="&#x2083;" horiz-adv-x="628" 
d="M58 477q25 17 50 31t53 23.5t60.5 15t73.5 5.5q123 0 185.5 -53.5t62.5 -145.5q0 -63 -26.5 -114t-86.5 -78q58 -21 96.5 -70.5t38.5 -127.5q0 -70 -24 -115.5t-63 -72.5t-90 -38t-105 -11q-60 0 -122 15t-116 49l53 112q20 -10 38 -17.5t37.5 -12.5t41 -7.5t47.5 -2.5
q69 0 103.5 24.5t34.5 83.5q0 20 -8 40.5t-25.5 37t-45.5 26.5t-67 10h-78v133l79 1q57 0 90 24t33 80q0 44 -24.5 67.5t-86.5 23.5q-36 0 -70 -10t-81 -38z" />
    <glyph glyph-name="fourinferior" unicode="&#x2084;" horiz-adv-x="648" 
d="M379 -265v169h-333v134l238 495h169l-232 -489h158v139h146v-139h85v-140h-85v-169h-146z" />
    <glyph glyph-name="fiveinferior" unicode="&#x2085;" horiz-adv-x="660" 
d="M107 -79q46 -27 86.5 -40t81.5 -13q31 0 58.5 6t47 19.5t31 35t11.5 53.5q0 69 -40 100t-123 31h-157v428h405v-132h-268v-166h56q60 0 113 -16.5t92.5 -48.5t62.5 -81.5t23 -115.5q0 -68 -24 -116.5t-64 -80t-92.5 -46.5t-110.5 -15q-37 0 -71.5 7t-66 18t-59 24.5
t-49.5 27.5z" />
    <glyph glyph-name="sixinferior" unicode="&#x2086;" horiz-adv-x="669" 
d="M61 113q0 217 80.5 327.5t231.5 110.5q82 0 136 -19t84 -39l-50 -110q-27 14 -62 25t-90 10q-49 -1 -81 -14.5t-51.5 -36.5t-28.5 -55t-13 -71q26 10 64.5 19t80.5 9q64 0 111 -19.5t77.5 -54.5t45 -83t14.5 -105q0 -62 -16 -112t-49.5 -85t-84.5 -54t-121 -19
q-83 0 -136.5 26t-85 74.5t-44 118.5t-12.5 157zM209 108q-3 -66 2 -112t20 -74.5t41 -41t66 -12.5q63 0 94 30t31 104q0 36 -5.5 61.5t-19 42t-36.5 24.5t-59 8q-45 0 -76.5 -8t-57.5 -22z" />
    </font>
</defs>
</svg>
