<?xml version="1.0" standalone="no"?>
<!DOCTYPE svg PUBLIC "-//W3C//DTD SVG 1.1//EN" "http://www.w3.org/Graphics/SVG/1.1/DTD/svg11.dtd" >
<svg xmlns="http://www.w3.org/2000/svg" xmlns:xlink="http://www.w3.org/1999/xlink" version="1.1">
<metadata>
Created by FontForge 20170910 at Mon Dec 18 10:55:42 2017
 By Jimmy Wärting
Copyright (c) 2017 by studio kmzero. All rights reserved.
</metadata>
<defs>
<font id="Kabrio-Heavy" horiz-adv-x="1329" >
  <font-face 
    font-family="Kabrio Heavy"
    font-weight="900"
    font-stretch="normal"
    units-per-em="2048"
    panose-1="2 0 5 5 4 0 0 2 0 4"
    ascent="1500"
    descent="-548"
    x-height="1038"
    cap-height="1397"
    bbox="-276 -964 2845 2115"
    underline-thickness="102"
    underline-position="-205"
    unicode-range="U+000D-F739"
  />
<missing-glyph horiz-adv-x="850" 
 />
    <glyph glyph-name=".notdef" horiz-adv-x="850" 
 />
    <glyph glyph-name=".null" horiz-adv-x="0" 
 />
    <glyph glyph-name=".null" horiz-adv-x="0" 
 />
    <glyph glyph-name="nonmarkingreturn" unicode="&#xd;" horiz-adv-x="702" 
 />
    <glyph glyph-name="space" unicode=" " horiz-adv-x="702" 
 />
    <glyph glyph-name="numbersign" unicode="#" horiz-adv-x="1659" 
d="M150 1147h171l36 250h434l-36 -250h294l36 250h434l-36 -250h154l-53 -392h-157l-22 -152h158l-53 -392h-161l-30 -211h-434l30 211h-294l-30 -211h-434l30 211h-164l53 392h167l22 152h-168zM677 603h294l22 152h-294z" />
    <glyph glyph-name="percent" unicode="%" horiz-adv-x="2238" 
d="M634 0l468 1397h476l-468 -1397h-476zM70 1002q0 117 31.5 198t86 132t127 73.5t155.5 22.5q82 0 155 -22.5t127 -73.5t85.5 -132t31.5 -198t-31.5 -198.5t-85.5 -131.5t-127 -72.5t-155 -22.5q-83 0 -155.5 22.5t-127 72.5t-86 131.5t-31.5 198.5zM406 1003q0 -38 2 -64
t9 -42t19.5 -23.5t33.5 -7.5t33.5 7.5t19.5 23.5t9 42t2 64q0 37 -2 63t-9 42.5t-19.5 23.5t-33.5 7t-34 -7t-19.5 -23.5t-8.5 -42.5t-2 -63zM1367 396q0 117 31.5 198t86 132t127 73.5t155.5 22.5q82 0 155 -22.5t127 -73.5t85.5 -132t31.5 -198t-31.5 -198.5t-85.5 -131.5
t-127 -72.5t-155 -22.5q-83 0 -155.5 22.5t-127 72.5t-86 131.5t-31.5 198.5zM1703 397q0 -38 2 -64t9 -42t19.5 -23.5t33.5 -7.5t33.5 7.5t19.5 23.5t9 42t2 64q0 37 -2 63t-9 42.5t-19.5 23.5t-33.5 7t-34 -7t-19.5 -23.5t-8.5 -42.5t-2 -63z" />
    <glyph glyph-name="ampersand" unicode="&#x26;" horiz-adv-x="1718" 
d="M919 1006q-14 4 -26 7.5t-27.5 6.5t-37 4.5t-54.5 1.5q-40 0 -74 -5t-59 -14t-39 -23t-14 -32v-22.5t4 -18.5t16 -15t35 -11t61 -6.5t95 -2.5h40l680 1v-328h-200v-125q0 -37 14 -56.5t58 -19.5q32 0 61.5 8t65.5 19l103 -306q-48 -23 -91.5 -41t-89 -30.5t-95 -19
t-108.5 -6.5q-80 0 -153 19.5t-130 66.5q-69 -38 -159.5 -63t-198.5 -23q-51 1 -109.5 13.5t-116 36.5t-111 59.5t-94 83t-65 106.5t-24.5 130q0 81 19.5 135.5t54 92t81 63.5t100.5 49q-109 35 -171 113.5t-62 196.5q0 84 36.5 153t108 118.5t177.5 77t245 27.5
q66 0 116.5 -4.5t95 -15t86.5 -27t91 -39.5zM736 372q39 0 62.5 3.5t40.5 11.5v133h-55q-63 0 -105 -1.5t-67.5 -8.5t-36 -20.5t-10.5 -38.5q0 -31 18 -47t44 -23t56 -8t53 -1z" />
    <glyph glyph-name="quotesingle" unicode="'" horiz-adv-x="676" 
d="M136 1444h456l-139 -490h-317v490z" />
    <glyph glyph-name="parenleft" unicode="(" horiz-adv-x="918" 
d="M111 626q0 121 18.5 232.5t47 208t63 177t66 141t56 99t33.5 50.5l461 -42q0 -2 -18.5 -31.5t-47 -85t-61 -134.5t-61 -178.5t-47 -218t-18.5 -252.5q0 -141 23.5 -268.5t60.5 -238t82 -203t87 -164.5l-460 -40q-67 105 -120 208.5t-89.5 216t-56 240.5t-19.5 283z" />
    <glyph glyph-name="parenright" unicode=")" horiz-adv-x="922" 
d="M798 626q0 -155 -19.5 -283t-56.5 -240.5t-89.5 -216t-119.5 -208.5l-460 40q42 72 87 164.5t82 203t60.5 238t23.5 268.5q0 134 -18.5 252.5t-47 218t-61 178.5t-61 134.5t-47 85t-18.5 31.5l461 42q9 -12 33.5 -50.5t56 -99t66 -141t63 -177t47 -208t18.5 -232.5z" />
    <glyph glyph-name="asterisk" unicode="*" horiz-adv-x="1159" 
d="M782 1253l235 60l107 -379l-209 -54l153 -146l-293 -277l-205 195l-206 -195l-293 277l157 149l-201 51l107 380l236 -60v226h412v-227z" />
    <glyph glyph-name="plus" unicode="+" horiz-adv-x="1217" 
d="M399 405h-297v393h297v282h413v-282h297v-393h-297v-284h-413v284z" />
    <glyph glyph-name="comma" unicode="," horiz-adv-x="727" 
d="M348 353q146 0 214.5 -57t68.5 -156q3 -87 -19 -177t-60.5 -173t-89 -153t-104.5 -118l-196 90q19 36 37.5 79.5t34 87t28 84.5t19.5 73q-59 7 -99 24.5t-64.5 45t-35.5 63.5t-11 80q0 97 67 152t210 55z" />
    <glyph glyph-name="hyphen" unicode="-" horiz-adv-x="938" 
d="M68 391v393h797v-393h-797z" />
    <glyph glyph-name="period" unicode="." horiz-adv-x="721" 
d="M350 353q146 0 214.5 -57t68.5 -156q0 -101 -67.5 -156t-207.5 -55q-80 0 -134.5 15t-88 43.5t-48 68.5t-14.5 90q0 97 67 152t210 55z" />
    <glyph glyph-name="slash" unicode="/" horiz-adv-x="1141" 
d="M92 -98l566 1689l442 -134l-566 -1689z" />
    <glyph glyph-name="zero" unicode="0" horiz-adv-x="1536" 
d="M1459 712q0 -178 -41 -316.5t-125.5 -233t-213 -143t-303.5 -47.5q-173 1 -301 48t-212.5 138t-126.5 225t-42 309t40.5 311.5t124.5 230.5t212.5 143t304.5 50q343 1 513 -182.5t170 -532.5zM980 700q0 76 -10 140t-34 110.5t-63 72.5t-97 26q-45 0 -77.5 -16t-55 -43.5
t-36 -63t-21 -74t-10 -78.5t-2.5 -75q0 -36 2.5 -75.5t10 -78t21 -74t36 -62.5t55 -43t77.5 -16q58 0 97 26.5t63 73t34 110.5t10 140z" />
    <glyph glyph-name="one" unicode="1" horiz-adv-x="946" 
d="M18 995v402h777v-1397h-504v995h-273z" />
    <glyph glyph-name="two" unicode="2" horiz-adv-x="1239" 
d="M104 0v380q43 24 101 59.5t120 78.5t121.5 91.5t106.5 98t76 98t29 92.5q0 30 -12.5 53.5t-34.5 40t-50.5 25.5t-61.5 9q-53 0 -99.5 -8.5t-85 -21t-68 -26t-48.5 -23.5l-139 320q103 73 243 116.5t324 43.5q134 0 232 -29.5t162 -82t95 -125.5t31 -160
q0 -131 -37 -232.5t-93.5 -178t-123.5 -130.5t-128 -88h385v-401h-1045z" />
    <glyph glyph-name="three" unicode="3" horiz-adv-x="1257" 
d="M37 1303q40 26 98.5 48.5t128.5 39.5t148.5 26.5t159.5 9.5q151 0 263.5 -27.5t187 -77t111.5 -118.5t37 -153q0 -118 -62.5 -196.5t-171.5 -113.5q54 -23 100.5 -49t81 -63.5t54.5 -92t20 -135.5q0 -80 -23.5 -143t-66 -110.5t-100.5 -80.5t-126.5 -54t-146 -30.5
t-157.5 -10.5q-66 -1 -136.5 6t-140 22t-135.5 38t-124 55l136 337q41 -15 74.5 -25.5t70.5 -17.5t82 -10.5t110 -3.5q31 0 65.5 3t62.5 11.5t46.5 23.5t18.5 40q0 22 -25.5 35.5t-69 21t-100 10t-119.5 2.5h-119v356h105q85 0 143.5 5t94.5 15t51.5 24t15.5 32t-14 32
t-39 23t-59 14t-74 5q-33 0 -69 -0.5t-76 -5.5t-84 -17t-93 -35z" />
    <glyph glyph-name="four" unicode="4" horiz-adv-x="1362" 
d="M733 0v190h-682v376l402 832l520 -1l-366 -804h126v147h470v-147h93v-403h-93v-190h-470z" />
    <glyph glyph-name="five" unicode="5" horiz-adv-x="1305" 
d="M170 460q115 -37 221.5 -62t194.5 -25q75 0 110.5 25t35.5 66q0 31 -16.5 50.5t-42.5 30.5t-57.5 15t-61.5 4h-376v833h957v-378h-480v-101h34q127 0 226 -35.5t167 -97.5t103.5 -146.5t35.5 -182.5q0 -91 -25.5 -162.5t-70 -125.5t-104.5 -91.5t-128.5 -60.5t-143 -33.5
t-147.5 -10.5t-146.5 11.5t-145.5 31.5t-141 47.5t-132 59.5z" />
    <glyph glyph-name="six" unicode="6" horiz-adv-x="1323" 
d="M68 667q0 154 30.5 270t82 200.5t119 140.5t142.5 89t152.5 46.5t148.5 13.5q89 0 160.5 -9t127.5 -22.5t98.5 -30t72.5 -32.5l-141 -335q-22 5 -43 10t-46 9t-57 6.5t-76 2.5q-60 0 -107 -6t-80 -21t-52.5 -40t-25.5 -63q26 12 51 21t51.5 15t56.5 9t67 3
q115 0 199 -36.5t139 -100t81.5 -148.5t26.5 -181q0 -113 -36 -206t-108.5 -160t-181.5 -103.5t-255 -36.5q-167 0 -281.5 46t-184.5 134.5t-100.5 218t-30.5 296.5zM556 516q-6 -73 20.5 -106.5t77.5 -33.5q102 0 102 83q0 46 -24 68t-53 22q-23 0 -40 -2t-30.5 -6
t-25.5 -10t-27 -15z" />
    <glyph glyph-name="seven" unicode="7" horiz-adv-x="1186" 
d="M80 995v402h1030v-411q-32 -37 -72 -104t-82.5 -152.5t-84.5 -183t-78.5 -194.5t-63 -188.5t-38.5 -163.5h-537q82 288 182.5 537t215.5 458h-472z" />
    <glyph glyph-name="eight" unicode="8" horiz-adv-x="1327" 
d="M72 371q0 61 15.5 107t43.5 84t66 70t83 64q-36 28 -70 60t-61 73t-43.5 93t-16.5 120q0 88 35 159t103 121.5t168 78t229 27.5q117 0 206 -15.5t154.5 -43t110 -64.5t71 -79.5t38 -88.5t11.5 -91q0 -60 -20.5 -112.5t-52.5 -96t-70.5 -77t-75.5 -53.5
q112 -66 174.5 -148.5t62.5 -185.5q0 -90 -36.5 -163.5t-109.5 -126.5t-182.5 -82t-255.5 -29q-151 0 -260 31t-179.5 85t-104 126.5t-33.5 156.5zM562 423q0 -52 24 -72t62 -20q50 0 72 19.5t22 58.5q0 19 -9 38t-24 37t-35 34.5t-42 31.5q-36 -27 -53 -62.5t-17 -64.5z
M579 1004q0 -26 26 -58.5t63 -55.5q14 7 25 19.5t18.5 27.5t11.5 29.5t4 26.5q0 33 -14.5 57t-54.5 24q-44 0 -61.5 -19t-17.5 -51z" />
    <glyph glyph-name="nine" unicode="9" horiz-adv-x="1323" 
d="M1225 732q0 -154 -30.5 -270t-82 -200.5t-119 -140.5t-142.5 -89t-152.5 -46.5t-148.5 -13.5q-89 0 -160.5 9t-127.5 22.5t-98.5 30t-72.5 32.5l141 335q22 -5 43 -10t46 -9t57 -6.5t76 -2.5q60 0 107 6t80 21t52.5 40t25.5 63q-26 -12 -51 -21t-51.5 -15t-56.5 -9
t-67 -3q-115 0 -199 36.5t-139 100t-81.5 148.5t-26.5 181q0 113 36 206t108.5 160t181.5 103.5t255 36.5q167 0 281.5 -46t184.5 -134.5t100.5 -218t30.5 -296.5zM737 883q6 73 -20.5 106.5t-77.5 33.5q-102 0 -102 -83q0 -46 24 -68t53 -22q23 0 40 2t30.5 6t25.5 10
t27 15z" />
    <glyph glyph-name="colon" unicode=":" horiz-adv-x="721" 
d="M350 353q146 0 214.5 -57t68.5 -156q0 -101 -67.5 -156t-207.5 -55q-80 0 -134.5 15t-88 43.5t-48 68.5t-14.5 90q0 97 67 152t210 55zM350 1058q146 0 214.5 -57t68.5 -156q0 -101 -67.5 -156t-207.5 -55q-80 0 -134.5 15t-88 43.5t-48 68.5t-14.5 90q0 97 67 152
t210 55z" />
    <glyph glyph-name="semicolon" unicode=";" horiz-adv-x="727" 
d="M348 353q146 0 214.5 -57t68.5 -156q3 -87 -19 -177t-60.5 -173t-89 -153t-104.5 -118l-196 90q19 36 37.5 79.5t34 87t28 84.5t19.5 73q-59 7 -99 24.5t-64.5 45t-35.5 63.5t-11 80q0 97 67 152t210 55zM365 1124q146 0 214.5 -57t68.5 -156q0 -101 -67.5 -156
t-207.5 -55q-80 0 -134.5 15t-88 43.5t-48 68.5t-14.5 90q0 97 67 152t210 55z" />
    <glyph glyph-name="less" unicode="&#x3c;" horiz-adv-x="952" 
d="M563 549l326 -284l-272 -255l-551 540l551 540l272 -257z" />
    <glyph glyph-name="equal" unicode="=" horiz-adv-x="1217" 
d="M102 101v363h1007v-363h-1007zM102 581v363h1007v-363h-1007z" />
    <glyph glyph-name="greater" unicode="&#x3e;" horiz-adv-x="952" 
d="M66 833l272 257l551 -540l-551 -540l-272 255l327 284z" />
    <glyph glyph-name="question" unicode="?" horiz-adv-x="1073" 
d="M70 1290q22 26 65.5 50.5t99.5 44t119 31.5t124 12q126 0 223.5 -20.5t165.5 -65.5t104.5 -115.5t40.5 -170.5q3 -72 -10.5 -129t-40.5 -103.5t-65 -84t-84 -69.5q-27 -18 -53.5 -44t-46.5 -59t-29.5 -73.5t-2.5 -88.5l-386 -1q-21 52 -25.5 112t6.5 118.5t37.5 110.5
t68.5 87q37 32 64.5 51.5t44.5 33t25.5 24t8.5 23.5q0 35 -36 49t-93 14q-27 0 -53.5 -1.5t-55.5 -5.5t-61.5 -12t-71.5 -20zM479 305q115 0 168 -44.5t53 -122.5q0 -80 -52.5 -122.5t-162.5 -42.5q-116 0 -169.5 45.5t-53.5 123.5q0 77 52.5 120t164.5 43z" />
    <glyph glyph-name="at" unicode="@" horiz-adv-x="2365" 
d="M589 477q0 160 41 273.5t122.5 186t203.5 106.5t284 34q64 0 134 -10t136.5 -27t126.5 -39.5t105 -47.5v-605q1 -7 11 -13.5t36 -6.5q25 0 48 19t40.5 61t28 110t10.5 167q0 148 -48.5 247t-140.5 158t-224.5 84t-300.5 25q-205 0 -349.5 -41t-235.5 -131.5t-133 -233.5
t-42 -347q0 -152 32.5 -259t103.5 -175.5t184 -101.5t274 -37q143 -4 266 13t232 47l11 -305q-60 -28 -124.5 -45t-132 -26t-138.5 -12t-144 -3q-248 7 -424.5 69.5t-289 179t-165.5 285.5t-53 390q0 278 68.5 477.5t211.5 328t364.5 189t527.5 60.5q245 0 440 -52.5
t330.5 -155.5t208 -255.5t72.5 -352.5q0 -140 -21 -247.5t-57.5 -186.5t-85.5 -132.5t-104.5 -86t-115 -46.5t-116.5 -14q-82 0 -139.5 4.5t-99.5 13t-73 19.5t-59 23l-14 10q-11 -15 -45 -31t-82 -29t-105 -21.5t-115 -8.5q-129 0 -219.5 38.5t-147.5 106t-83 160
t-26 200.5zM1057 509q0 -48 10.5 -79t28 -49t39 -25.5t42.5 -7.5q22 0 44 9t41 20v314q-13 4 -33 7t-59 3q-28 0 -49 -9t-35.5 -31t-21.5 -59t-7 -93z" />
    <glyph glyph-name="A" unicode="A" horiz-adv-x="1618" 
d="M1022 176h-426q-11 -56 -20 -103.5t-15 -82.5l-518 10q13 69 39.5 177.5t62.5 238t79.5 269.5t89 272.5t91 247t86.5 192.5h635q25 -44 55 -114t62.5 -157t66.5 -186.5t66.5 -203.5t63 -208.5t56.5 -200.5t46 -180t32 -147l-518 -10zM798 1026q-28 -87 -59 -209t-61 -255
h261q-29 124 -59 241t-61 223h-21z" />
    <glyph glyph-name="B" unicode="B" horiz-adv-x="1356" 
d="M135 0v1397h623q105 0 198 -24.5t162.5 -71.5t110 -117.5t40.5 -161.5q0 -63 -22.5 -111t-56.5 -82.5t-72.5 -56t-70.5 -31.5v-9q55 -18 103 -50.5t84 -76.5t56.5 -100t20.5 -120q0 -86 -30.5 -156.5t-93.5 -121.5t-158.5 -79t-225.5 -28h-668zM636 349h86q66 0 93 23
t27 72q0 21 -5.5 39.5t-18.5 32.5t-33.5 22t-50.5 8h-98v-197zM636 878h97q48 0 73.5 28t25.5 70q0 19 -5.5 35.5t-18 29.5t-32 20.5t-47.5 7.5h-93v-191z" />
    <glyph glyph-name="C" unicode="C" horiz-adv-x="1382" 
d="M552 687q0 -91 24 -151.5t66.5 -96.5t101.5 -51t129 -15q50 0 96 8t86 20t73.5 25.5t57.5 24.5l137 -335q-41 -28 -104.5 -54t-138 -46t-153.5 -32t-149 -12q-90 0 -178 12t-167.5 42t-147 81.5t-117 131t-77.5 190t-28 259.5q0 148 28 260.5t77.5 195t117 137t147 87
t167.5 46t178 13.5q81 0 162 -13t153.5 -33.5t132 -46.5t97.5 -52l-135 -335q-28 12 -61.5 26t-73 25.5t-84.5 19.5t-96 8q-74 0 -133.5 -15.5t-101 -54t-64 -104t-22.5 -165.5z" />
    <glyph glyph-name="D" unicode="D" horiz-adv-x="1559" 
d="M135 0v1397h586q96 0 191.5 -13t183 -43t163 -79.5t131 -123.5t87 -174t31.5 -230q0 -196 -47 -335t-143.5 -227.5t-245 -130t-351.5 -41.5h-586zM637 401h112q65 0 115.5 16t85 52t52 94t17.5 143q0 64 -13 117.5t-40.5 91.5t-70.5 59.5t-104 21.5h-154v-595z" />
    <glyph glyph-name="E" unicode="E" horiz-adv-x="1282" 
d="M135 0v1397h1047v-397h-556v-118h476v-360h-476v-125h583v-397h-1074z" />
    <glyph glyph-name="F" unicode="F" horiz-adv-x="1282" 
d="M135 0v1397h1059v-401h-558v-167h481v-369h-481v-460h-501z" />
    <glyph glyph-name="G" unicode="G" horiz-adv-x="1454" 
d="M63 702q0 364 187 544.5t568 180.5q81 0 158 -11.5t143 -28.5t118 -36.5t84 -34.5l-139 -346q-32 12 -74 22t-87.5 17.5t-91.5 12t-86 4.5q-65 0 -118.5 -20t-91.5 -59.5t-59.5 -97.5t-21.5 -134q0 -79 18 -142t50.5 -107.5t76.5 -68t95 -23.5h23t22.5 -0.5t18 -0.5h9.5
v302h468v-633q-60 -20 -130 -33t-143.5 -21.5t-146.5 -12t-139 -3.5q-174 0 -307 42t-223 130.5t-135.5 227t-45.5 330.5z" />
    <glyph glyph-name="H" unicode="H" horiz-adv-x="1655" 
d="M135 0v1397h501v-496h375v496h505v-1397h-505v500h-375v-500h-501z" />
    <glyph glyph-name="I" unicode="I" horiz-adv-x="774" 
d="M135 0v1397h501v-1397h-501z" />
    <glyph glyph-name="J" unicode="J" horiz-adv-x="963" 
d="M827 482q0 -127 -24.5 -222.5t-77 -159.5t-135 -96t-197.5 -32q-49 0 -99 5.5t-98 14.5t-92 21.5t-81 27.5l65 358q15 -5 34.5 -10t40.5 -8.5t42 -5.5t39 -2q44 0 63 32t19 91v901h501v-915z" />
    <glyph glyph-name="K" unicode="K" horiz-adv-x="1513" 
d="M135 0v1397h501v-446q50 56 87.5 108.5t69 106.5t59.5 110.5t59 120.5h542q-30 -81 -73.5 -164.5t-96.5 -164.5t-114.5 -157.5t-127.5 -144.5q41 -69 95.5 -149t118 -163t133.5 -165.5t142 -156.5l-369 -242q-59 48 -124 117.5t-128.5 149.5t-121 165.5t-101.5 165.5
q-13 -7 -25.5 -13t-24.5 -11v-464h-501z" />
    <glyph glyph-name="L" unicode="L" horiz-adv-x="1268" 
d="M135 0v1397h501v-996h546v-401h-1047z" />
    <glyph glyph-name="M" unicode="M" horiz-adv-x="2099" 
d="M93 0q3 94 5.5 173t6.5 155t9 155t12 174q17 225 40 414t41 326h665l170 -717h16l170 717h665q18 -133 41 -322.5t40 -420.5q7 -105 13 -196t9.5 -171t6 -151t4.5 -136h-510q-1 95 1 200t3 210.5t-2 206.5t-14 190h-14l-223 -807h-396l-223 807h-14q-11 -96 -14 -199.5
t-2.5 -207.5t3 -205.5t1.5 -194.5h-510z" />
    <glyph glyph-name="N" unicode="N" horiz-adv-x="1693" 
d="M135 0v1397h502q60 -62 110.5 -144t100.5 -169.5t103 -174t117 -158.5h9l-20 646h501v-1397h-494q-44 41 -84 91t-77 104.5t-72 110t-69 108t-68 99.5t-69 84h-9l20 -597h-501z" />
    <glyph glyph-name="O" unicode="O" horiz-adv-x="1661" 
d="M1598 695q-2 -157 -51 -290t-145 -229.5t-237 -150.5t-326 -53q-193 1 -339.5 56t-244.5 151.5t-146.5 228.5t-45.5 287q3 160 52 294t145 231t240.5 151.5t338.5 55.5q187 1 329.5 -55.5t238.5 -155.5t144 -233t47 -288zM836 1026q-70 0 -122 -26.5t-87.5 -71.5
t-54 -105.5t-20.5 -127.5q-2 -66 17.5 -124.5t57 -102.5t91.5 -69.5t120 -25.5q61 0 111 26t86 70t56 103t20 124q0 63 -19 122.5t-54.5 105.5t-86.5 74t-115 28z" />
    <glyph glyph-name="P" unicode="P" horiz-adv-x="1432" 
d="M135 0v1397h619q147 0 261.5 -30.5t193.5 -93.5t120.5 -159.5t41.5 -228.5q0 -146 -48.5 -249t-131 -168t-192 -95t-231.5 -30h-132v-343h-501zM636 717h110q38 0 64 13.5t42 35.5t23 48.5t7 53.5q0 22 -4.5 47.5t-19.5 47t-43 35.5t-76 14h-103v-295z" />
    <glyph glyph-name="Q" unicode="Q" horiz-adv-x="1661" 
d="M1598 695q-1 -107 -24 -202.5t-68 -177t-110.5 -146.5t-152.5 -110q42 -33 90 -65.5t99.5 -63.5t105 -59.5t106.5 -53.5l-276 -257q-91 34 -178.5 83.5t-167 105t-150 114.5t-127.5 113q-170 14 -299 73.5t-215 154.5t-128.5 220.5t-39.5 270.5q3 160 52 294t145 231
t240.5 151.5t338.5 55.5q187 1 329.5 -55.5t238.5 -155.5t144 -233t47 -288zM836 1026q-70 0 -122 -26.5t-87.5 -71.5t-54 -105.5t-20.5 -127.5q-2 -66 17.5 -124.5t57 -102.5t91.5 -69.5t120 -25.5q61 0 111 26t86 70t56 103t20 124q0 63 -19 122.5t-54.5 105.5t-86.5 74
t-115 28z" />
    <glyph glyph-name="S" unicode="S" horiz-adv-x="1286" 
d="M162 470q118 -45 218.5 -71t194.5 -26q71 0 106.5 10t35.5 34q0 15 -14.5 28t-40 24t-59 20.5t-72.5 17.5q-100 23 -186 56t-149 82.5t-99 119t-36 167.5q0 117 36 209t111.5 155.5t191.5 97t276 33.5q54 0 123.5 -8.5t142.5 -25.5t143 -41.5t125 -57.5l-137 -335
q-33 12 -74.5 24t-86.5 21.5t-91 15.5t-87 6q-91 0 -131.5 -11.5t-40.5 -40.5q0 -15 13 -27t37 -22t57 -18.5t72 -17.5q240 -59 357.5 -166t117.5 -273q0 -114 -36 -202.5t-109.5 -150t-184.5 -93.5t-262 -32q-102 0 -186.5 10.5t-157 29t-137 44t-125.5 55.5z" />
    <glyph glyph-name="T" unicode="T" horiz-adv-x="1217" 
d="M20 996v401h1175v-401h-337v-996h-501v996h-337z" />
    <glyph glyph-name="U" unicode="U" horiz-adv-x="1593" 
d="M802 -28q-94 -2 -182.5 8.5t-166.5 37.5t-142 72t-110 111.5t-71.5 156.5t-25.5 208v831h501v-789q0 -51 5.5 -94t25.5 -74.5t59 -49t106 -17.5q55 0 91 15.5t57 45.5t29.5 73.5t8.5 99.5v790h501v-831q0 -115 -25.5 -204t-71.5 -154.5t-109.5 -110t-140 -72t-162.5 -40
t-177 -13.5z" />
    <glyph glyph-name="V" unicode="V" horiz-adv-x="1587" 
d="M463 0q-49 92 -97 207.5t-93 242.5t-86 259t-75.5 256.5t-62 235.5t-45.5 196l533 10q9 -69 23.5 -149t33.5 -164t41.5 -169.5t47 -166.5t50 -155.5t51.5 -136.5h19q41 106 78 226.5t68.5 243.5t56.5 243.5t40 227.5l535 -10q-16 -83 -42 -190t-59.5 -228.5t-73.5 -251
t-85.5 -257t-94 -248t-99.5 -222.5h-664z" />
    <glyph glyph-name="W" unicode="W" horiz-adv-x="2158" 
d="M1296 1397q3 -31 13 -92.5t24.5 -138.5t32 -162.5t35.5 -165.5t35 -147t31 -106h21q11 39 22 104t21 142.5t18 162t13.5 162.5t8.5 144t2 107l525 -10q-7 -108 -24.5 -231.5t-41.5 -252.5t-53.5 -258t-61.5 -248t-64 -223.5t-61 -183.5h-587q-15 37 -32.5 93t-35 117.5
t-32.5 123t-24 111.5h-4q-6 -49 -19 -107t-30 -117t-37 -116.5t-39 -104.5h-587q-25 66 -55 163t-61.5 213.5t-62 247t-56 263.5t-44.5 263.5t-26 246.5l526 10q-1 -40 2 -105.5t9 -144t14 -163.5t17.5 -163t19.5 -143t21 -103h21q11 27 23.5 71t25.5 99t26.5 118
t26.5 126.5t24.5 125t20.5 114.5t15.5 94t8.5 64h435z" />
    <glyph glyph-name="X" unicode="X" horiz-adv-x="1477" 
d="M8 0q38 89 83.5 180t94.5 185q32 61 67.5 122.5t66.5 110.5q36 57 71 110q-24 37 -43 67t-39.5 64t-44.5 76t-57 103q-48 88 -89.5 184t-79.5 195l570 10q5 -17 10 -36.5t11.5 -44t15.5 -55.5t22 -71q17 -57 31.5 -106t27.5 -87h22q5 16 11.5 35.5t15 46t19.5 62.5t25 84
q15 51 25.5 92.5t21.5 79.5l569 -10q-25 -64 -65.5 -165.5t-114.5 -234.5q-110 -201 -170 -289q24 -38 47 -74t47.5 -76.5t51 -87.5t57.5 -105q20 -38 39.5 -75.5t40.5 -80.5t45 -94t53 -115l-576 -10q-13 43 -27.5 93t-37.5 106q-17 42 -28 72.5t-19.5 52.5t-14.5 38
t-13 30h-24q-12 -26 -31 -75.5t-44 -112.5q-9 -22 -19 -51t-19 -58t-17 -54.5t-12 -40.5z" />
    <glyph glyph-name="Y" unicode="Y" horiz-adv-x="1466" 
d="M199 927q-32 57 -66.5 123.5t-65.5 131t-56 121t-40 94.5l557 10q20 -61 41 -122t50 -130q28 -69 53.5 -130t47.5 -99h25q21 43 46 100.5t51 124.5q16 41 29 75t23.5 65t20 59t17.5 57l560 -10q-45 -110 -104.5 -230t-127.5 -247q-32 -59 -63 -110.5t-65 -102.5
t-71 -103.5t-79 -112.5v-491h-502v491q-27 39 -61 87t-71 104t-75 117.5t-74 127.5z" />
    <glyph glyph-name="Z" unicode="Z" horiz-adv-x="1362" 
d="M78 0v336q52 78 126.5 160.5t155.5 165t160 162.5t139 154v18h-557v401h1172v-373q-26 -40 -69 -90.5t-94 -106t-105.5 -112.5t-104.5 -110.5t-90.5 -101.5t-63.5 -84v-18h518v-401h-1187z" />
    <glyph glyph-name="bracketleft" unicode="[" horiz-adv-x="891" 
d="M164 -348v1906h655v-362h-183v-1182h183v-362h-655z" />
    <glyph glyph-name="backslash" unicode="\" horiz-adv-x="1141" 
d="M658 -232l-566 1689l442 134l566 -1689z" />
    <glyph glyph-name="bracketright" unicode="]" horiz-adv-x="895" 
d="M92 -348v362h182v1182h-182v362h655v-1906h-655z" />
    <glyph glyph-name="asciicircum" unicode="^" horiz-adv-x="1374" 
d="M443 1028l-443 108l380 380l575 -2l371 -378l-446 -108l-219 207z" />
    <glyph glyph-name="underscore" unicode="_" horiz-adv-x="1473" 
d="M119 -13h1238v-322h-1238v322z" />
    <glyph glyph-name="grave" unicode="`" horiz-adv-x="799" 
d="M457 1138l-330 351l350 179l206 -404z" />
    <glyph glyph-name="a" unicode="a" horiz-adv-x="1271" 
d="M25 477q0 160 41 273.5t123 186t203.5 106.5t283.5 34q65 0 135 -10t137 -27t126.5 -39.5t104.5 -47.5v-953h-425l-48 117q-12 -15 -38 -39.5t-63 -48t-83.5 -40.5t-99.5 -17q-99 0 -173.5 38.5t-124 106t-74.5 160t-25 200.5zM494 509q0 -48 10.5 -79t28 -49t38.5 -25.5
t42 -7.5q23 0 44.5 9t41.5 20v314q-13 4 -32.5 7t-59.5 3q-28 0 -49 -9t-35.5 -31t-21.5 -59t-7 -93z" />
    <glyph glyph-name="b" unicode="b" horiz-adv-x="1313" 
d="M94 1464h480v-466q48 30 106 54.5t136 24.5q121 0 203.5 -43.5t132.5 -116t71.5 -166.5t21.5 -194q0 -135 -37.5 -243t-112.5 -184t-188 -117t-264 -41q-81 0 -157.5 10.5t-147 27t-132 36.5t-112.5 40v1378zM574 360q14 -5 32.5 -8.5t50.5 -3.5q27 0 49.5 7t38 27t24 57
t8.5 96q0 55 -10 88t-27.5 50.5t-40.5 22.5t-49 5q-27 0 -46.5 -5t-29.5 -10v-326z" />
    <glyph glyph-name="c" unicode="c" horiz-adv-x="1126" 
d="M70 526q0 118 35 219t105 174.5t174 115.5t241 42q111 0 218.5 -25.5t207.5 -82.5l-117 -305q-22 7 -40.5 13.5t-39 12t-46 8.5t-60.5 3q-108 0 -158.5 -44t-50.5 -141q0 -55 20.5 -88.5t50.5 -51.5t64 -23.5t61 -5.5q60 0 107 10.5t91 26.5l119 -304q-40 -20 -83 -39.5
t-95.5 -34.5t-117.5 -24.5t-148 -9.5q-102 0 -181.5 23.5t-139.5 64.5t-101.5 95.5t-67 116t-37 127t-11.5 127.5z" />
    <glyph glyph-name="d" unicode="d" horiz-adv-x="1319" 
d="M799 0l-48 117q-9 -14 -33.5 -38.5t-63 -48t-89.5 -41t-113 -17.5q-96 0 -167.5 39.5t-119.5 108.5t-71.5 162.5t-23.5 202.5q0 105 23 190t62 150.5t91 113t110.5 78.5t120 45.5t120.5 14.5q33 0 54 -1.5t36 -4t27.5 -6.5t28.5 -10v409h480v-1464h-424zM539 513
q0 -49 11.5 -81t29 -50.5t38.5 -26t40 -7.5q26 0 45 6.5t40 17.5v314q-7 4 -28.5 9.5t-48.5 5.5q-44 0 -69 -15.5t-38 -41.5t-16.5 -60t-3.5 -71z" />
    <glyph glyph-name="e" unicode="e" horiz-adv-x="1243" 
d="M533 421q8 -21 23 -38t38.5 -30t58 -20t81.5 -7q49 0 89 4.5t76 12.5t70.5 20t72.5 27l112 -290q-45 -29 -104 -52.5t-125 -40.5t-134.5 -26t-131.5 -9q-146 0 -256.5 37t-184.5 106.5t-111 169.5t-37 226q0 152 45 259.5t125 175.5t190.5 99.5t242.5 31.5
q127 0 223.5 -33.5t161 -87.5t97.5 -121t33 -134q0 -56 -16.5 -107t-58.5 -89.5t-115 -61t-186 -22.5h-279zM662 753q-70 0 -103 -36t-40 -90h173q35 0 51.5 18t16.5 43q0 12 -4.5 24t-15.5 21t-30 14.5t-48 5.5z" />
    <glyph glyph-name="f" unicode="f" horiz-adv-x="838" 
d="M16 1001l109 37v13q0 105 30.5 185.5t87 135t136 82t178.5 27.5q45 0 84 -3.5t76.5 -11t74.5 -20.5t78 -32l-95 -316q-13 3 -35.5 5t-47.5 2q-32 0 -49.5 -5t-26 -13.5t-10 -19.5t-1.5 -22v-7h168v-337h-168v-701h-480v701h-109v300z" />
    <glyph glyph-name="g" unicode="g" horiz-adv-x="1317" 
d="M70 477q0 152 38.5 265t119 187.5t205 111t295.5 36.5q63 0 132 -10.5t136 -28t126 -39.5t101 -46v-919q0 -130 -43.5 -226t-124 -159.5t-194 -94.5t-254.5 -31q-103 0 -206 25.5t-209 73.5l111 297q40 -18 99 -30.5t122 -11.5q61 0 106 9.5t74.5 30.5t44 55.5t14.5 85.5
v11q-14 -13 -41.5 -29.5t-64 -31.5t-81.5 -25.5t-94 -10.5q-111 0 -189.5 40.5t-128 109.5t-72 160.5t-22.5 194.5zM539 509q0 -48 11 -79t28 -49t38.5 -25.5t42.5 -7.5q23 0 47.5 9t36.5 17v317q-10 3 -31.5 6.5t-51.5 3.5q-33 0 -56 -9t-37.5 -31t-21 -59t-6.5 -93z" />
    <glyph glyph-name="h" unicode="h" 
d="M94 1464h480v-454q12 5 31.5 16t48 22.5t67.5 20t90 8.5q73 0 148 -20t136.5 -67.5t100.5 -126t39 -195.5v-668h-480v580q0 19 -1.5 40t-9 38.5t-22 29t-40.5 11.5q-32 0 -60 -11t-48 -22v-666h-480v1464z" />
    <glyph glyph-name="i" unicode="i" horiz-adv-x="670" 
d="M95 0v1038h480v-1038h-480zM333 1563q70 0 121.5 -14.5t85 -41t49.5 -64.5t16 -85q0 -99 -65 -151t-201 -52q-142 0 -207.5 56t-65.5 151t64.5 148t202.5 53z" />
    <glyph glyph-name="j" unicode="j" horiz-adv-x="670" 
d="M-201 -100q62 -15 104 -24.5t82 -9.5q38 0 60 14.5t33 34.5t14 41.5t3 35.5v1046h480v-1049q0 -96 -28.5 -184.5t-89.5 -155.5t-157.5 -107t-232.5 -40q-91 0 -178.5 20t-162.5 48zM336 1563q70 0 121.5 -14.5t85 -41t49.5 -64.5t16 -85q0 -99 -65 -151t-201 -52
q-142 0 -207.5 56t-65.5 151t64.5 148t202.5 53z" />
    <glyph glyph-name="k" unicode="k" horiz-adv-x="1360" 
d="M1284 1038q-26 -76 -61.5 -142.5t-77.5 -124.5t-89 -108t-96 -92q33 -61 85 -128t108.5 -130t110 -117.5t90.5 -90.5l-349 -221q-46 33 -102 83t-112 110t-107 126t-87 129q-6 -3 -12 -6.5t-11 -5.5v-320h-480v1464h480v-705q33 25 64.5 58t59.5 69.5t51 75.5t39 76h496
v0z" />
    <glyph glyph-name="l" unicode="l" horiz-adv-x="670" 
d="M94 0v1464h480v-1464h-480z" />
    <glyph glyph-name="m" unicode="m" horiz-adv-x="1970" 
d="M94 892q55 36 130.5 69t162.5 59t180.5 41.5t182.5 15.5q187 0 303 -70q94 37 176.5 53.5t159.5 16.5q147 0 241.5 -35t148.5 -92.5t75 -132.5t21 -154v-663h-480v621q0 44 -13.5 62t-57.5 18q-7 0 -18.5 -1t-25 -3t-28.5 -6.5t-28 -10.5l-1 -1q0 -3 0.5 -6t0.5 -6v-667
h-480v622q0 17 -2 31.5t-8.5 25t-19.5 16.5t-34 6q-29 0 -59 -6t-47 -14v-681h-480v892z" />
    <glyph glyph-name="n" unicode="n" 
d="M94 892q50 33 121.5 66.5t156.5 59.5t180.5 42.5t194.5 16.5q137 0 230.5 -32.5t150.5 -88t82 -130t25 -158.5v-668h-480v618q0 27 -15.5 50t-49.5 23q-29 0 -61 -6t-55 -16v-669h-480v892z" />
    <glyph glyph-name="o" unicode="o" horiz-adv-x="1319" 
d="M70 519q0 126 40.5 229t116.5 176t184.5 113t245.5 40q144 0 254.5 -41.5t186 -116t114.5 -176t39 -221.5q0 -128 -41 -229.5t-117.5 -173t-186 -109.5t-245.5 -38q-138 0 -247.5 37.5t-186 108t-117 172t-40.5 229.5zM539 522q0 -51 9.5 -84.5t26 -53.5t39 -28t49.5 -8
q26 0 48 8t37.5 28t24.5 54t9 86t-9 86t-25 54t-38 28.5t-48 8.5t-48.5 -9t-39 -29.5t-26 -55t-9.5 -85.5z" />
    <glyph glyph-name="p" unicode="p" horiz-adv-x="1317" 
d="M94 893q37 30 102.5 62t145.5 58.5t167 44t168 17.5q168 0 276.5 -37.5t171.5 -108t87.5 -172.5t24.5 -231q0 -66 -9 -133t-29.5 -128.5t-53 -115t-79 -93t-108.5 -62t-141 -22.5q-77 0 -136 12t-107 26v-431h-480v1314zM574 352q12 -2 30 -3t50 -1q23 0 45.5 4t40 20
t28.5 49t11 91q0 55 -6.5 89.5t-21 54.5t-37 27.5t-54.5 7.5q-23 0 -45.5 -3.5t-40.5 -11.5v-324z" />
    <glyph glyph-name="q" unicode="q" horiz-adv-x="1317" 
d="M70 480q0 159 42 272t125 185t205.5 106t284.5 34q62 0 128.5 -9.5t131 -26t125 -39t111.5 -49.5v-1364h-480v457q-13 -8 -37 -20.5t-56 -24.5t-72.5 -20.5t-86.5 -8.5q-101 0 -179 38.5t-132 106t-82 160.5t-28 203zM539 508q0 -49 11 -80t28.5 -49t39 -24.5t41.5 -6.5
q23 0 43.5 1t40.5 4v342q-7 2 -27.5 4t-61.5 2q-31 0 -52.5 -9.5t-35.5 -32t-20.5 -59.5t-6.5 -92z" />
    <glyph glyph-name="r" unicode="r" horiz-adv-x="1020" 
d="M129 893q97 64 206 105.5t220.5 59.5t221 11t208.5 -41l-63 -351q-38 5 -78.5 7.5t-81 -2t-79.5 -17t-74 -36.5v-629h-480v893z" />
    <glyph glyph-name="s" unicode="s" horiz-adv-x="1092" 
d="M143 405q31 -15 70 -29.5t83 -26.5t91 -19.5t95 -7.5t65.5 5t17.5 16q0 12 -17.5 19.5t-47.5 13.5t-69.5 12t-82.5 17q-61 15 -112 37.5t-88 59.5t-58 91.5t-21 132.5q0 68 21 121t56.5 92t82.5 65.5t100 42.5t108.5 23t107.5 7q84 0 155 -9.5t129.5 -24.5t104.5 -34.5
t81 -39.5l-107 -305q-75 28 -144.5 44t-135.5 16q-37 0 -64 -3t-27 -21q0 -13 15 -19t40.5 -9.5t60 -8t73.5 -14.5q73 -19 130 -45.5t96 -65.5t59.5 -92t20.5 -125q0 -71 -20.5 -124t-55.5 -92t-82.5 -64.5t-101.5 -41t-111.5 -21.5t-113.5 -6q-103 0 -187.5 12.5t-149 31
t-109 39t-68.5 35.5z" />
    <glyph glyph-name="t" unicode="t" horiz-adv-x="983" 
d="M47 1002l106 36l60 274h421l-1 -274h201v-337h-201v-277q0 -37 14.5 -56.5t58.5 -19.5q32 0 61.5 8t65.5 19l103 -306q-48 -23 -91.5 -41t-89 -30.5t-95 -19t-109.5 -6.5q-77 0 -148.5 18t-127 62t-89 116.5t-33.5 182.5v350h-106v301z" />
    <glyph glyph-name="u" unicode="u" 
d="M94 1038h480v-578q0 -39 9 -61.5t23 -34t29.5 -14t29.5 -2.5q29 0 52.5 8t37.5 16v666h480v-1038h-424l-46 113q-22 -29 -52 -54.5t-66 -45t-77 -30.5t-85 -11q-102 0 -176 40t-121.5 106t-70.5 150.5t-23 173.5v596z" />
    <glyph glyph-name="v" unicode="v" horiz-adv-x="1321" 
d="M372 0q-78 135 -135.5 269t-98.5 264.5t-68 257t-43 247.5l516 10q0 -37 3.5 -87.5t10 -108t15.5 -118t21 -118t26 -108.5t30 -90h25q14 35 28 84t26 106t22 118t17.5 119.5t11 110.5t2.5 92l516 -10q-21 -147 -50 -278.5t-70.5 -256.5t-96.5 -248.5t-127 -254.5h-581z
" />
    <glyph glyph-name="w" unicode="w" horiz-adv-x="2013" 
d="M1958 1038q-3 -77 -16 -164.5t-33 -180t-45.5 -187t-54.5 -184.5t-59.5 -172t-60.5 -150h-575q-32 81 -60.5 167.5t-48.5 180.5h-1q-8 -48 -20.5 -95.5t-27.5 -92.5t-31 -85.5t-30 -74.5h-572q-26 55 -56.5 136.5t-61.5 176t-59 196t-49 198.5t-33.5 182.5t-10.5 148.5
l501 10q-3 -71 -2.5 -153.5t6 -167t16 -165.5t27.5 -148h15q14 36 28 88.5t27.5 112.5t25.5 123t20.5 120t13.5 104.5t4 75.5h540q4 -74 14.5 -153t26 -159t35.5 -159.5t43 -152.5h16q9 39 17 92.5t14.5 114t11.5 124t7 121t1.5 105t-4.5 77.5z" />
    <glyph glyph-name="x" unicode="x" horiz-adv-x="1325" 
d="M45 0q12 41 24 77t26 70.5t31 70t39 76.5q25 46 47.5 80t44.5 61t42.5 48.5t40.5 42.5q-24 31 -47.5 58.5t-46 55.5t-43 57.5t-38.5 63.5q-22 42 -39 78.5t-29.5 70t-21.5 65t-15 63.5l517 10q5 -30 10.5 -69.5t17.5 -77.5q8 -26 15 -44.5t13.5 -33t13 -26t12.5 -22.5h9
q17 29 29.5 59t23.5 66q12 36 18.5 78.5t8.5 69.5l519 -10q-8 -35 -16.5 -66t-20.5 -63t-28.5 -68.5t-41.5 -82.5q-24 -46 -47.5 -78.5t-45.5 -58t-42 -47.5t-38 -46q42 -44 85.5 -98t80.5 -120q26 -47 44 -83.5t31.5 -71.5t25.5 -71.5t27 -83.5l-516 -10q-4 30 -11 64.5
t-24 81.5q-7 20 -15.5 43t-16.5 44t-15.5 39t-13.5 27h-9q-6 -10 -14 -27t-16 -37t-16.5 -42.5t-15.5 -42.5q-11 -30 -17 -52t-10 -39.5t-6 -31.5t-4 -27z" />
    <glyph glyph-name="y" unicode="y" horiz-adv-x="1319" 
d="M179 -331q43 48 78.5 88t66.5 78t58.5 78t54.5 87h-55q-44 68 -85.5 152.5t-78.5 177.5t-69 189.5t-56.5 189.5t-41.5 177t-24 152l512 10q3 -71 10.5 -153.5t20.5 -167.5t32.5 -169.5t46.5 -159.5h25q16 35 30.5 90t26.5 118.5t21.5 131t16 128t9.5 108.5t3 74l513 -10
q-3 -62 -20 -148.5t-44 -184t-62 -200t-73 -197t-77 -175t-74 -133.5q-29 -53 -70 -122.5t-87 -142t-94 -143.5t-93 -127z" />
    <glyph glyph-name="z" unicode="z" horiz-adv-x="1118" 
d="M100 662v376h913v-325q-35 -42 -80.5 -84t-93.5 -83.5t-94.5 -83t-81.5 -82.5v-4h359v-376h-950v350q34 38 79 76.5t92 77t91.5 77t77.5 77.5v4h-312z" />
    <glyph glyph-name="braceleft" unicode="{" horiz-adv-x="942" 
d="M104 771q52 9 80.5 34.5t42 61.5t15 80t0.5 90l-5 126q-4 130 36.5 209.5t115 123t178 59t225.5 17.5h96v-363q-18 0 -41 -1.5t-70 -5.5q-30 -3 -44.5 -28.5t-14.5 -60.5q0 -48 1.5 -86t2 -71t-0.5 -63t-5 -61q-8 -59 -25.5 -96t-41 -61t-50.5 -39t-54 -29
q28 -15 58.5 -33t56 -47.5t42.5 -75.5t19 -119q1 -26 0.5 -45t-1 -42.5t-1.5 -56.5t-1 -87q0 -45 15 -65.5t40 -25.5q26 -5 57.5 -5.5t57.5 -2.5v-363q-23 0 -45.5 1t-45.5 1q-172 3 -281.5 28t-172 76t-85 129t-21.5 186l2 178q1 49 -8 84.5t-26.5 59.5t-43 38t-57.5 20
v331z" />
    <glyph glyph-name="bar" unicode="|" horiz-adv-x="692" 
d="M119 -465v1959h457v-1959h-457z" />
    <glyph glyph-name="braceright" unicode="}" horiz-adv-x="973" 
d="M847 440q-32 -6 -57.5 -20t-42.5 -38t-26 -59.5t-9 -84.5l2 -178q1 -108 -22 -186t-85 -129t-171.5 -76t-281.5 -28q-23 0 -45.5 -1t-45.5 -1v363q27 2 58.5 2.5t57.5 5.5q24 5 39 25.5t15 65.5q0 54 -1 87t-1.5 56.5t-1 42.5t0.5 45q2 73 19.5 119t43 75.5t55.5 47.5
t58 33q-27 14 -54 29t-50.5 39t-41 61t-25.5 96q-4 31 -5 61t0 63t2 71t1 86q0 35 -14.5 60.5t-44.5 28.5q-47 4 -70 5.5t-41 1.5v363h97q81 -1 154.5 -8t136 -23.5t112.5 -45t84.5 -73.5t52 -108.5t14.5 -150.5l-4 -126q-2 -46 0 -90t15 -80t41.5 -61.5t80.5 -34.5v-331z
" />
    <glyph glyph-name="asciitilde" unicode="~" horiz-adv-x="1360" 
d="M25 520q26 72 69 129t99 96.5t122.5 60.5t138.5 21t129 -16t106.5 -34.5t94 -34.5t92.5 -16q30 0 51.5 5t38 16.5t31 29t29.5 42.5l274 -155q-31 -89 -82 -147.5t-109.5 -93.5t-118 -49.5t-105.5 -14.5q-70 0 -126.5 15.5t-106.5 34.5t-97 34.5t-97 15.5
q-34 0 -57.5 -7.5t-41 -20t-31.5 -30t-29 -36.5z" />
    <glyph glyph-name="exclamdown" unicode="&#xa1;" horiz-adv-x="762" 
d="M161 682h441l33 -870h-509zM386 843q-143 0 -210 55t-67 152q0 50 17 90t52 68.5t88.5 43.5t127.5 15q140 0 207.5 -55t67.5 -156q0 -99 -68.5 -156t-214.5 -57z" />
    <glyph glyph-name="sterling" unicode="&#xa3;" horiz-adv-x="1360" 
d="M105 778h69q-9 17 -16.5 37t-13.5 45.5t-9.5 57.5t-3.5 73q0 48 10.5 98.5t35 99t64 92t96.5 76t133.5 51.5t175.5 19q98 0 179 -12.5t148 -33t122 -46.5t101 -53l-132 -338q-18 8 -49 22t-70 27.5t-83 23.5t-89 10q-29 0 -55.5 -9t-46 -25t-31 -39.5t-11.5 -51.5
q0 -42 13 -70t30 -54h267v-236h-204q-5 -29 -13.5 -58t-21 -55t-28 -47t-33.5 -33q32 -2 52.5 -5.5t42.5 -6.5t51.5 -5.5t79.5 -2.5q49 0 85.5 4.5t67 13t58.5 20.5t62 28l138 -314q-38 -29 -87.5 -49.5t-102.5 -33.5t-106.5 -19.5t-99.5 -6.5q-61 0 -120.5 4.5t-123.5 9.5
t-135.5 9.5t-156.5 4.5q-42 0 -83 -4.5t-74 -9.5q-39 -6 -75 -13v355q42 13 67.5 37.5t39.5 54t18.5 61.5t5.5 61h-138v236z" />
    <glyph glyph-name="yen" unicode="&#xa5;" horiz-adv-x="1480" 
d="M1275 97h-1026v287h1026v-287zM1275 467h-1026v287h1026v-287zM221 927q-32 57 -66.5 123.5t-65.5 131t-56 121t-40 94.5l557 10q20 -61 41 -122t50 -130q28 -69 53.5 -130t47.5 -99h25q21 43 46 100.5t51 124.5q16 41 29 75t23.5 65t20 59t17.5 57l560 -10
q-45 -110 -104.5 -230t-127.5 -247q-32 -59 -63 -110.5t-65 -102.5t-71 -103.5t-79 -112.5v-491h-502v491q-27 39 -61 87t-71 104t-75 117.5t-74 127.5z" />
    <glyph glyph-name="brokenbar" unicode="&#xa6;" horiz-adv-x="694" 
d="M119 -465v819h459v-819h-459zM119 668v826h459v-826h-459z" />
    <glyph glyph-name="section" unicode="&#xa7;" horiz-adv-x="1186" 
d="M126 369q86 -23 170 -40t162 -17q54 0 80.5 4.5t26.5 17.5q0 10 -24 19t-57.5 17t-71 15.5t-64.5 13.5q-57 13 -107.5 36.5t-88.5 62t-60.5 94.5t-22.5 134q0 52 12.5 95t34 77.5t51.5 61.5t66 47q-29 45 -46 97t-17 110q0 68 21 121t56.5 92t82.5 65.5t100 42.5
t108.5 23t107.5 7q84 0 155 -9.5t129.5 -24.5t104.5 -34.5t81 -39.5l-107 -285q-31 9 -67 18t-71.5 16t-68.5 11.5t-57 4.5q-15 0 -33.5 -1t-35 -3.5t-27.5 -7t-11 -10.5q0 -10 16.5 -17.5t43.5 -14.5t60.5 -15t68.5 -20q69 -23 125.5 -50t96.5 -64t62 -87.5t22 -122.5
q0 -56 -13 -101.5t-36.5 -80.5t-55.5 -61.5t-70 -45.5q35 -43 54.5 -92.5t19.5 -106.5q0 -71 -20.5 -124t-55.5 -92t-82.5 -64.5t-101.5 -41t-111.5 -21.5t-113.5 -6q-103 0 -193 15t-159 35t-114 39.5t-58 28.5zM482 772q0 -8 10 -14t26.5 -11.5t39 -11t48.5 -11.5h5
q54 0 80.5 4.5t26.5 17.5q0 7 -12 13t-31.5 12t-43.5 12t-49 11q-15 0 -32.5 -1.5t-32.5 -4t-25 -6.5t-10 -10z" />
    <glyph glyph-name="dieresis" unicode="&#xa8;" horiz-adv-x="1153" 
d="M409 1485q116 0 169 -44.5t53 -122.5q0 -80 -52.5 -122.5t-162.5 -42.5q-117 0 -170 45.5t-53 123.5q0 77 52 120t164 43zM929 1485q116 0 169 -44.5t53 -122.5q0 -80 -53 -122.5t-162 -42.5q-117 0 -170 45.5t-53 123.5q0 77 52 120t164 43z" />
    <glyph glyph-name="copyright" unicode="&#xa9;" horiz-adv-x="1546" 
d="M41 697q0 106 25.5 201t73.5 176.5t115.5 147t152 111t183 70.5t207.5 25q165 0 303 -55.5t237.5 -153.5t155.5 -232.5t56 -293.5q0 -157 -55.5 -290t-155 -229.5t-237 -151t-300.5 -54.5q-166 0 -305.5 55.5t-241 153.5t-158 231t-56.5 289zM304 697q0 -103 36 -192
t101.5 -154.5t156 -103t198.5 -37.5q107 0 197 37t155 102.5t101.5 154t36.5 190.5q0 106 -36.5 197t-102 158.5t-155.5 106t-196 38.5q-92 0 -180.5 -31.5t-157.5 -94t-111.5 -155.5t-42.5 -216zM416 693q0 90 24.5 161.5t72.5 121t120 75.5t167 26q77 0 151.5 -18
t143.5 -58l-81 -212q-15 5 -28 10t-27 8.5t-31.5 5.5t-42.5 2q-75 0 -109.5 -30t-34.5 -98q0 -38 14 -61.5t35 -36t44.5 -16.5t42.5 -4q41 0 73.5 7.5t63.5 17.5l82 -210q-27 -14 -57 -27t-66.5 -23.5t-81.5 -17t-103 -6.5q-107 0 -178 32.5t-114.5 86.5t-61.5 123t-18 141z
" />
    <glyph glyph-name="ordfeminine" unicode="&#xaa;" horiz-adv-x="1004" 
d="M108 1468q25 12 58 27t77.5 28.5t102.5 22.5t134 9q44 0 91.5 -4t92.5 -18t85.5 -40.5t71 -71t48 -110t17.5 -157.5v-486h-298l-27 89q-12 -14 -37.5 -33t-59 -36.5t-72 -30t-76.5 -12.5q-61 0 -111 16t-85.5 50.5t-55 88t-19.5 127.5q0 54 17.5 93t46.5 66t64.5 44
t72.5 26.5t70.5 14.5t57.5 8l176 16v13q0 13 -7 23.5t-25 18.5t-48 12.5t-76 4.5q-20 0 -45 -4t-52 -10t-53.5 -13.5t-49.5 -14.5zM550 999l-130 -18q-18 -3 -28 -14t-10 -26q0 -14 16 -24t45 -10q10 0 26.5 2.5t33.5 5.5t30.5 6t16.5 5v73z" />
    <glyph glyph-name="guillemotleft" unicode="&#xab;" horiz-adv-x="1530" 
d="M541 549l228 -343l-352 -196l-341 540l341 540l351 -196zM1199 549l228 -343l-352 -196l-341 540l341 540l351 -196z" />
    <glyph glyph-name="logicalnot" unicode="&#xac;" horiz-adv-x="1257" 
d="M47 637v354h1091v-628h-379v274h-712z" />
    <glyph glyph-name="registered" unicode="&#xae;" horiz-adv-x="1546" 
d="M41 700q0 106 25.5 201t73.5 176.5t115.5 147t152 111t183 70.5t207.5 25q165 0 303 -55.5t238 -153.5t156 -232.5t56 -293.5q0 -104 -25 -198.5t-72 -175t-114 -145.5t-150 -111t-181 -70.5t-207 -24.5q-166 0 -305.5 55.5t-241 153.5t-158 231t-56.5 289zM288 700
q0 -106 37.5 -199.5t105 -163t160.5 -110t205 -40.5q111 0 203.5 40t160 109t105 162t37.5 199q0 109 -38 203.5t-105.5 164t-160 109t-202.5 39.5q-95 0 -186 -33t-162.5 -97.5t-115.5 -160.5t-44 -222zM947 297q-22 14 -47.5 45.5t-49.5 69t-45 77t-34 69.5q-3 0 -6 0.5
t-5 0.5v-211h-294v750h289q87 0 156 -12.5t117 -43t73 -81.5t25 -127q0 -83 -32.5 -135.5t-80.5 -82.5q32 -48 75.5 -99t90.5 -102zM767 769h74q17 0 29.5 8.5t12.5 32.5t-12 35t-23 11h-81v-87z" />
    <glyph glyph-name="degree" unicode="&#xb0;" horiz-adv-x="868" 
d="M425 1239q-52 0 -76 -20t-24 -55q0 -38 25 -59.5t79 -21.5q52 0 75.5 20t23.5 57q0 38 -24 58.5t-79 20.5zM424 1427q92 0 158.5 -18.5t110 -53.5t64.5 -84.5t21 -110.5q0 -127 -84.5 -196t-259.5 -69q-92 0 -159.5 19t-111 54.5t-64.5 85.5t-21 113q0 61 20.5 109
t63 81.5t108 51.5t154.5 18z" />
    <glyph glyph-name="plusminus" unicode="&#xb1;" horiz-adv-x="1217" 
d="M399 778h-297v373h297v282h413v-282h297v-373h-297v-304h-413v304zM102 1v363h1007v-363h-1007z" />
    <glyph glyph-name="acute" unicode="&#xb4;" horiz-adv-x="799" 
d="M127 1264l207 404l349 -179l-329 -351z" />
    <glyph glyph-name="paragraph" unicode="&#xb6;" horiz-adv-x="1911" 
d="M602 -200v643h-37q-246 0 -372.5 114t-126.5 328q0 106 25 199.5t84.5 163t158 109.5t245.5 40h524v-1597h-501zM1274 -200v1597h501v-1597h-501z" />
    <glyph glyph-name="cedilla" unicode="&#xb8;" horiz-adv-x="670" 
d="M101 -262q15 -5 38.5 -6.5t43.5 -1.5q17 0 36.5 2.5t36 9.5t27 18.5t10.5 29.5q0 19 -8 30t-22.5 17t-34 8t-42.5 2q-12 0 -31 -1.5t-36 -6.5l73 161h283l-39 -72q30 -6 56.5 -21.5t46 -38.5t30.5 -52.5t11 -64.5q0 -100 -77.5 -158.5t-231.5 -58.5q-60 0 -117.5 7
t-102.5 24z" />
    <glyph glyph-name="guillemotright" unicode="&#xbb;" horiz-adv-x="1530" 
d="M735 894l351 196l341 -540l-341 -540l-352 196l228 343zM77 894l350 196l342 -540l-342 -540l-351 196l227 343z" />
    <glyph glyph-name="questiondown" unicode="&#xbf;" horiz-adv-x="1073" 
d="M1020 -89q-22 -26 -65.5 -50.5t-99.5 -44t-119 -31.5t-124 -12q-126 0 -223.5 20.5t-165.5 65.5t-104.5 115.5t-40.5 170.5q-3 72 10.5 129t40.5 103.5t65 84t84 69.5q27 18 53.5 44t46 59t29 73.5t2.5 88.5l387 1q20 -52 24.5 -112t-6.5 -118.5t-37 -110.5t-68 -87
q-38 -32 -65 -51.5t-44 -33t-25.5 -24t-8.5 -23.5q0 -35 35.5 -49t93.5 -14q27 0 53.5 1.5t55.5 5.5t61.5 12t71.5 20zM611 896q-115 0 -168 44.5t-53 122.5q0 80 52.5 122.5t162.5 42.5q116 0 169 -45.5t53 -123.5q0 -77 -52 -120t-164 -43z" />
    <glyph glyph-name="AE" unicode="&#xc6;" horiz-adv-x="2107" 
d="M944 0v186h-366q-14 -57 -23.5 -102.5t-14.5 -83.5h-544q10 58 29 140.5t46.5 182.5t63 215t77.5 240q41 120 81 219t75 177t64.5 134t49.5 89h1489v-401h-556v-119h475v-350h-475v-126h582v-401h-1053zM802 996q-19 -42 -37 -97t-34.5 -114t-31.5 -119t-28 -114h273v444
h-142z" />
    <glyph glyph-name="Eth" unicode="&#xd0;" horiz-adv-x="1559" 
d="M735 553h-774v287h774v-287zM135 0v1397h586q96 0 191.5 -13t183 -43t163 -79.5t131 -123.5t87 -174t31.5 -230q0 -196 -47 -335t-143.5 -227.5t-245 -130t-351.5 -41.5h-586zM637 401h112q65 0 115.5 16t85 52t52 94t17.5 143q0 64 -13 117.5t-40.5 91.5t-70.5 59.5
t-104 21.5h-154v-595z" />
    <glyph glyph-name="multiply" unicode="&#xd7;" horiz-adv-x="1217" 
d="M314 600l-210 201l292 278l210 -201l210 200l292 -278l-210 -200l210 -199l-291 -278l-210 199l-211 -200l-292 278z" />
    <glyph glyph-name="Thorn" unicode="&#xde;" horiz-adv-x="1417" 
d="M616 1397v-170h118q147 0 261.5 -30.5t193.5 -93.5t120.5 -159.5t41.5 -228.5q0 -146 -48.5 -249t-131 -168t-192 -95t-231.5 -30h-132v-173h-501v1397h501zM616 547h110q38 0 64 13.5t42 35.5t23 48.5t7 53.5q0 22 -4.5 47.5t-19.5 47t-43 35.5t-76 14h-103v-295z" />
    <glyph glyph-name="germandbls" unicode="&#xdf;" horiz-adv-x="1610" 
d="M111 0v1194q97 128 261 198t396 70q140 0 245.5 -36.5t176.5 -92.5t107 -124.5t36 -131.5q0 -53 -5 -91t-18 -69t-35.5 -58.5t-58.5 -58.5q-42 -37 -65.5 -54.5t-23.5 -32.5q0 -20 31.5 -33.5t91.5 -38.5q36 -15 81 -39t84.5 -60.5t67 -88t27.5 -120.5q0 -361 -471 -361
q-55 0 -106.5 5t-102.5 15t-104 24.5t-110 33.5l97 298q17 -5 45 -11t60 -11.5t66 -9.5t64 -4q9 0 25 -0.5t31.5 1t27 6.5t11.5 15q0 11 -16.5 18.5t-42 14t-56.5 13.5t-59 16q-52 17 -93 39.5t-69.5 53t-43.5 69t-15 88.5q0 29 3.5 59.5t15.5 62t36 63t65 61.5
q25 18 45.5 29t35.5 19t23 15.5t8 18.5q0 32 -34.5 55t-97.5 23q-60 0 -99.5 -13.5t-57.5 -27.5v-1011h-480z" />
    <glyph glyph-name="ae" unicode="&#xe6;" horiz-adv-x="1880" 
d="M25 477q0 160 41 273.5t123 186t203.5 106.5t283.5 34q78 0 163.5 -15t163.5 -38q66 27 142 40t162 13q127 0 223.5 -33.5t161 -87.5t97.5 -121t33 -134q0 -56 -19.5 -108.5t-65.5 -93t-122 -64.5t-189 -24h-247v-4q17 -40 60.5 -60.5t128.5 -20.5q49 0 90.5 4t79.5 11.5
t74 17.5t74 21l102 -280q-45 -29 -104 -52.5t-125 -40.5t-134.5 -26t-131.5 -9q-64 0 -120 7t-107 21h-312l-48 117q-12 -15 -38 -39.5t-63 -48t-83.5 -40.5t-99.5 -17q-99 0 -173.5 38.5t-124 106t-74.5 160t-25 200.5zM494 509q0 -48 10.5 -79t28 -49t38.5 -25.5t42 -7.5
q23 0 44.5 9t41.5 20v314q-13 4 -32.5 7t-59.5 3q-28 0 -49 -9t-35.5 -31t-21.5 -59t-7 -93zM1296 753q-49 0 -76 -20.5t-41 -49.5v-56h147q35 0 51.5 18t16.5 43q0 12 -4.5 24t-15.5 21t-30 14.5t-48 5.5z" />
    <glyph glyph-name="eth" unicode="&#xf0;" horiz-adv-x="1337" 
d="M453 1196l41 50q-33 12 -60.5 18t-45.5 6l114 298q108 -17 216 -53l87 104l286 -202l-69 -80q57 -54 104.5 -122.5t81.5 -154.5t53 -191t19 -231q0 -189 -46 -316.5t-130 -205.5t-202 -111t-262 -33q-140 0 -251 32t-188.5 96.5t-118.5 161t-41 225.5t41 224t110 157
t159.5 92.5t189.5 30.5q59 0 106.5 -7.5t82.5 -18.5t58.5 -24.5t35.5 -25.5q2 37 -10.5 71t-35.5 65l-57 -66zM510 478q0 -50 14 -81t35 -48.5t46 -24t48 -6.5q64 0 98 27.5t48.5 69.5t16.5 91.5t2 92.5q-34 29 -66 41.5t-67 12.5q-50 0 -84 -13.5t-54 -37.5t-28.5 -56
t-8.5 -68z" />
    <glyph glyph-name="divide" unicode="&#xf7;" horiz-adv-x="1217" 
d="M102 375v363h1007v-363h-1007zM595 305q116 0 169 -44.5t53 -122.5q0 -80 -52.5 -122.5t-162.5 -42.5q-117 0 -170 45.5t-53 123.5q0 77 52 120t164 43zM595 1132q116 0 169 -44.5t53 -122.5q0 -80 -52.5 -122.5t-162.5 -42.5q-117 0 -170 45.5t-53 123.5q0 77 52 120
t164 43z" />
    <glyph glyph-name="thorn" unicode="&#xfe;" horiz-adv-x="1288" 
d="M574 1445v-376q54 6 112 6q146 0 252 -40.5t174.5 -114.5t101.5 -179.5t33 -234.5q0 -66 -10.5 -131.5t-34.5 -125t-64 -110t-99 -88t-139.5 -58.5t-184.5 -21q-55 0 -91.5 4t-49.5 9v-82h-480v1542h480zM574 -97v-364h-480v364h480zM574 357q10 -4 18 -6t16.5 -2.5
t19 -0.5h26.5q23 0 45.5 4t40 20t28.5 49t11 91q0 55 -6.5 91t-21 58t-37 31t-54.5 9q-23 0 -47 -2.5t-39 -7.5v-334z" />
    <glyph glyph-name="OE" unicode="&#x152;" horiz-adv-x="2081" 
d="M1099 0q-58 -14 -123 -21.5t-138 -6.5q-197 1 -344 51.5t-243.5 144.5t-144 227.5t-44.5 299.5q3 171 50.5 306.5t142.5 229.5t240 144.5t343 51.5q133 0 245 -26l-2 -4h888v-397h-556v-118h476v-360h-476v-125h583v-397h-897zM837 373q47 0 85 16v612q-17 11 -39.5 18
t-47.5 7q-70 0 -122 -23.5t-87.5 -67t-53.5 -104.5t-20 -136q0 -73 20 -132.5t56.5 -101.5t89.5 -65t119 -23z" />
    <glyph glyph-name="oe" unicode="&#x153;" horiz-adv-x="1976" 
d="M78 519q0 126 40.5 229t116.5 176t184.5 113t245.5 40q144 0 254.5 -41.5t186 -116t114.5 -176t39 -221.5q0 -128 -41 -229.5t-117.5 -173t-186 -109.5t-245.5 -38q-138 0 -247.5 37.5t-186 108t-117 172t-40.5 229.5zM547 522q0 -51 9.5 -84.5t26 -53.5t39 -28t49.5 -8
q26 0 48 8t37.5 28t24.5 54t9 86t-9 86t-25 54t-38 28.5t-48 8.5t-48.5 -9t-39 -29.5t-26 -55t-9.5 -85.5zM1267 421q8 -21 23 -38t38.5 -30t58 -20t81.5 -7q49 0 89 4.5t76 12.5t70.5 20t72.5 27l112 -290q-45 -29 -104 -52.5t-125 -40.5t-134.5 -26t-131.5 -9
q-146 0 -256.5 37t-184.5 106.5t-111 169.5t-37 226q0 152 45 259.5t125 175.5t190.5 99.5t242.5 31.5q127 0 223.5 -33.5t161 -87.5t97.5 -121t33 -134q0 -56 -16.5 -107t-58.5 -89.5t-115 -61t-186 -22.5h-279zM1396 753q-70 0 -103 -36t-40 -90h173q35 0 51.5 18t16.5 43
q0 12 -4.5 24t-15.5 21t-30 14.5t-48 5.5z" />
    <glyph glyph-name="circumflex" unicode="&#x2c6;" horiz-adv-x="989" 
d="M309 1163l-309 75l242 278l445 -1l235 -277l-310 -75l-152 144z" />
    <glyph glyph-name="tilde" unicode="&#x2dc;" horiz-adv-x="1071" 
d="M25 1299q21 58 55.5 106.5t79.5 83t98.5 53.5t111.5 19t103.5 -12.5t85.5 -28t76 -28t74 -12.5q24 0 40 3t27.5 10.5t21.5 20.5t23 33l228 -133q-24 -71 -65 -120.5t-88 -81t-95 -45.5t-85 -14q-56 0 -101.5 12.5t-85.5 28t-78 28t-78 12.5q-27 0 -44.5 -4.5t-30 -13.5
t-22.5 -21.5t-22 -28.5z" />
    <glyph glyph-name="endash" unicode="&#x2013;" horiz-adv-x="1350" 
d="M68 391v393h1217v-393h-1217z" />
    <glyph glyph-name="emdash" unicode="&#x2014;" horiz-adv-x="2392" 
d="M63 391v393h2260v-393h-2260z" />
    <glyph glyph-name="quoteleft" unicode="&#x2018;" horiz-adv-x="721" 
d="M362 629q-146 0 -214.5 57t-68.5 156q-3 87 19 177t60.5 173t89 153t104.5 118l196 -90q-19 -36 -37.5 -79.5t-34.5 -87t-28.5 -84.5t-18.5 -73q58 -7 98 -24.5t65 -45t36 -64t11 -79.5q0 -97 -67 -152t-210 -55z" />
    <glyph glyph-name="quoteright" unicode="&#x2019;" horiz-adv-x="719" 
d="M346 1408q146 0 214.5 -57t68.5 -156q3 -87 -19 -177t-60.5 -173t-89 -153t-104.5 -118l-196 90q19 36 37.5 79.5t34 87t28 84.5t19.5 73q-59 7 -99 24.5t-64.5 45t-35.5 63.5t-11 80q0 97 67 152t210 55z" />
    <glyph glyph-name="quotesinglbase" unicode="&#x201a;" horiz-adv-x="727" 
d="M350 353q146 0 214.5 -57t68.5 -156q3 -87 -19 -177t-60.5 -173t-89 -153t-104.5 -118l-196 90q19 36 37.5 79.5t34 87t28 84.5t19.5 73q-59 7 -99 24.5t-64.5 45t-35.5 63.5t-11 80q0 97 67 152t210 55z" />
    <glyph glyph-name="quotedblleft" unicode="&#x201c;" horiz-adv-x="1282" 
d="M966 629q-146 0 -214.5 57t-68.5 156q-3 87 19 177t60.5 173t89 153t104.5 118l196 -90q-19 -36 -37.5 -79.5t-34.5 -87t-28.5 -84.5t-18.5 -73q58 -7 98 -24.5t65 -45t36 -64t11 -79.5q0 -97 -67 -152t-210 -55zM338 629q-146 0 -214.5 57t-68.5 156q-3 87 19 177
t60.5 173t89 153t104.5 118l196 -90q-19 -36 -37.5 -79.5t-34.5 -87t-28.5 -84.5t-18.5 -73q58 -7 98 -24.5t65 -45t36 -64t11 -79.5q0 -97 -67 -152t-210 -55z" />
    <glyph glyph-name="quotedblright" unicode="&#x201d;" horiz-adv-x="1240" 
d="M311 1456q146 0 214.5 -57t68.5 -156q3 -87 -19 -177t-60.5 -173t-89 -153t-104.5 -118l-196 90q19 36 37.5 79.5t34 87t28 84.5t19.5 73q-59 7 -99 24.5t-64.5 45t-35.5 63.5t-11 80q0 97 67 152t210 55zM911 1456q146 0 214.5 -57t68.5 -156q3 -87 -19 -177t-60.5 -173
t-89 -153t-104.5 -118l-196 90q19 36 37.5 79.5t34 87t28 84.5t19.5 73q-59 7 -99 24.5t-64.5 45t-35.5 63.5t-11 80q0 97 67 152t210 55z" />
    <glyph glyph-name="quotedblbase" unicode="&#x201e;" horiz-adv-x="1303" 
d="M344 353q146 0 214.5 -57t68.5 -156q3 -87 -19 -177t-60.5 -173t-89 -153t-104.5 -118l-196 90q19 36 37.5 79.5t34 87t28 84.5t19.5 73q-59 7 -99 24.5t-64.5 45t-35.5 63.5t-11 80q0 97 67 152t210 55zM953 353q146 0 214.5 -57t68.5 -156q3 -87 -19 -177t-60.5 -173
t-89 -153t-104.5 -118l-196 90q19 36 37.5 79.5t34 87t28 84.5t19.5 73q-59 7 -99 24.5t-64.5 45t-35.5 63.5t-11 80q0 97 67 152t210 55z" />
    <glyph glyph-name="bullet" unicode="&#x2022;" horiz-adv-x="631" 
d="M291 846q146 0 214.5 -57t68.5 -156q0 -101 -67.5 -156t-207.5 -55q-80 0 -134.5 15t-88 43.5t-48 68.5t-14.5 90q0 97 67 152t210 55z" />
    <glyph glyph-name="ellipsis" unicode="&#x2026;" horiz-adv-x="1753" 
d="M300 305q116 0 169 -44.5t53 -122.5q0 -80 -52.5 -122.5t-162.5 -42.5q-117 0 -170 45.5t-53 123.5q0 77 52 120t164 43zM869 305q116 0 169 -44.5t53 -122.5q0 -80 -52.5 -122.5t-162.5 -42.5q-117 0 -170 45.5t-53 123.5q0 77 52 120t164 43zM1446 305q115 0 168 -44.5
t53 -122.5q0 -80 -52.5 -122.5t-162.5 -42.5q-116 0 -169 45.5t-53 123.5q0 77 52 120t164 43z" />
    <glyph glyph-name="guilsinglleft" unicode="&#x2039;" horiz-adv-x="831" 
d="M531 549l228 -343l-352 -196l-341 540l341 540l351 -196z" />
    <glyph glyph-name="guilsinglright" unicode="&#x203a;" horiz-adv-x="831" 
d="M67 894l351 196l341 -540l-341 -540l-352 196l228 343z" />
    <glyph glyph-name="Euro" unicode="&#x20ac;" horiz-adv-x="1579" 
d="M1109 663v-209h-1027v209h1027zM82 746v209h1027v-209h-1027zM740 687q0 -91 24 -151.5t66.5 -96.5t101.5 -51t129 -15q50 0 96 8t86 20t73.5 25.5t57.5 24.5l137 -335q-41 -28 -104.5 -54t-138 -46t-153.5 -32t-149 -12q-90 0 -178 12t-167.5 42t-147 81.5t-117 131
t-77.5 190t-28 259.5q0 148 28 260.5t77.5 195t117 137t147 87t167.5 46t178 13.5q81 0 162 -13t153.5 -33.5t132 -46.5t97.5 -52l-135 -335q-28 12 -61.5 26t-73 25.5t-84.5 19.5t-96 8q-74 0 -133.5 -15.5t-101 -54t-64 -104t-22.5 -165.5z" />
    <glyph glyph-name="trademark" unicode="&#x2122;" horiz-adv-x="1905" 
d="M96 1251v208h620v-208h-170v-517h-240v517h-210zM780 734l34 725h336l107 -448l108 448h335l33 -725h-241l-13 459l-93 -440h-257l-103 441l-12 -460h-234z" />
    <glyph glyph-name="dagger" unicode="&#x2020;" horiz-adv-x="1065" 
d="M29 1042h274v452h458v-452h275v-436h-275v-1071h-458v1071h-274v436z" />
    <glyph glyph-name="daggerdbl" unicode="&#x2021;" horiz-adv-x="1065" 
d="M29 1042h274v452h458v-452h275v-436h-275v-164h275v-436h-275v-471h-458v471h-274v436h274v164h-274v436z" />
    <glyph glyph-name="perthousand" unicode="&#x2030;" horiz-adv-x="2910" 
d="M1367 396q0 117 31.5 198t86 132t127 73.5t155.5 22.5q54 0 103.5 -9.5t93 -29.5t79.5 -52t63 -77q27 45 63 77t80 52t93.5 29.5t103.5 9.5q82 0 155 -22.5t127 -73.5t85.5 -132t31.5 -198t-31.5 -198.5t-85.5 -131.5t-127 -72.5t-155 -22.5q-54 0 -103.5 9t-93.5 29
t-80 51.5t-63 76.5q-27 -45 -63 -76.5t-79.5 -51.5t-93 -29t-103.5 -9q-83 0 -155.5 22.5t-127 72.5t-86 131.5t-31.5 198.5zM634 0l468 1397h476l-468 -1397h-476zM70 1002q0 117 31.5 198t86 132t127 73.5t155.5 22.5q82 0 155 -22.5t127 -73.5t85.5 -132t31.5 -198
t-31.5 -198.5t-85.5 -131.5t-127 -72.5t-155 -22.5q-83 0 -155.5 22.5t-127 72.5t-86 131.5t-31.5 198.5zM2382 397q0 -38 2 -64t9 -42t19.5 -23.5t33.5 -7.5t33.5 7.5t19.5 23.5t9 42t2 64q0 37 -2 63t-9 42.5t-19.5 23.5t-33.5 7t-34 -7t-19.5 -23.5t-8.5 -42.5t-2 -63z
M406 1003q0 -38 2 -64t9 -42t19.5 -23.5t33.5 -7.5t33.5 7.5t19.5 23.5t9 42t2 64q0 37 -2 63t-9 42.5t-19.5 23.5t-33.5 7t-34 -7t-19.5 -23.5t-8.5 -42.5t-2 -63zM1703 397q0 -38 2 -64t9 -42t19.5 -23.5t33.5 -7.5t33.5 7.5t19.5 23.5t9 42t2 64q0 37 -2 63t-9 42.5
t-19.5 23.5t-33.5 7t-34 -7t-19.5 -23.5t-8.5 -42.5t-2 -63z" />
    <glyph glyph-name="hungarumlaut" unicode="&#x2dd;" horiz-adv-x="799" 
d="M-66 1141l207 404l349 -179l-329 -351zM448 1141l207 404l350 -179l-330 -351z" />
    <glyph glyph-name=".Dot" horiz-adv-x="43" 
d="M-43 1212q0 49 19.5 92t53 75t79 50.5t96.5 18.5t97 -18.5t80.5 -50.5t55 -75t20.5 -92t-20.5 -92t-55 -75t-80.5 -50.5t-97 -18.5t-96.5 18.5t-79 50.5t-53 75t-19.5 92zM601 1191q0 49 19.5 92t53 75t78.5 50.5t96 18.5t95.5 -18.5t77 -50.5t51 -75t18.5 -92t-18.5 -81
t-51 -50.5t-77 -26t-95.5 -7.5t-96 7.5t-78.5 26t-53 50.5t-19.5 81z" />
    <glyph glyph-name=".dot" horiz-adv-x="0" 
d="M100 595q0 47 19 88.5t51 72t75.5 48.5t92.5 18t93 -18t77 -48.5t52.5 -72t19.5 -88.5t-19.5 -88t-52.5 -71.5t-77 -48.5t-93 -18t-92.5 18t-75.5 48.5t-51 71.5t-19 88zM743 565q0 49 19.5 92t53.5 75t79 50.5t96 18.5t92 -18.5t69.5 -50.5t44 -75t15.5 -92t-15.5 -77
t-44 -42t-69.5 -17.5t-92 -3.5t-96 3.5t-79 17.5t-53.5 42t-19.5 77z" />
    <glyph glyph-name="breve" unicode="&#x2d8;" horiz-adv-x="1792" 
d="M686 1162q-86 0 -147 16.5t-102 43t-65.5 60t-38.5 66.5t-20 62.5t-10 48.5l266 47q6 -23 13 -42.5t19 -33t32 -21t54 -7.5q33 0 52.5 7.5t30.5 21t17.5 32.5t13.5 42l267 -46q-4 -19 -10 -48.5t-20 -62.5t-38.5 -66.5t-65.5 -60t-101.5 -43t-146.5 -16.5z" />
    <glyph glyph-name="caron" unicode="&#x2c7;" horiz-adv-x="989" 
d="M462 1396l77 120l389 -92l-242 -236h-445l-243 241l394 86z" />
    <glyph glyph-name="dotaccent" unicode="&#x2d9;" horiz-adv-x="1153" 
d="M409 1485q116 0 169 -44.5t53 -122.5q0 -80 -52.5 -122.5t-162.5 -42.5q-117 0 -170 45.5t-53 123.5q0 77 52 120t164 43z" />
    <glyph glyph-name="ogonek" unicode="&#x2db;" horiz-adv-x="670" 
d="M582 -435q-45 -17 -102.5 -24t-117.5 -7q-154 0 -236.5 58.5t-82.5 158.5q0 85 40.5 146.5t106.5 102.5h261q-27 -25 -47.5 -46.5t-34.5 -42.5t-21.5 -43t-7.5 -49q0 -29 10.5 -46.5t27 -27t36 -12.5t36.5 -3q20 0 43.5 1.5t38.5 6.5z" />
    <glyph glyph-name="ring" unicode="&#x2da;" horiz-adv-x="1153" 
d="M659 1436q-39 0 -57 -15.5t-18 -41.5q0 -29 18.5 -45t60.5 -16q74 0 74 58q0 29 -18 44.5t-60 15.5zM658 1578q139 0 203.5 -54.5t64.5 -147.5q0 -97 -63.5 -148.5t-196.5 -51.5q-70 0 -120.5 14.5t-83.5 41t-49 64.5t-16 85q0 92 63.5 144.5t197.5 52.5z" />
    <glyph glyph-name="aacute" unicode="&#xe1;" horiz-adv-x="1271" 
d="M25 477q0 160 41 273.5t123 186t203.5 106.5t283.5 34q65 0 135 -10t137 -27t126.5 -39.5t104.5 -47.5v-953h-425l-48 117q-12 -15 -38 -39.5t-63 -48t-83.5 -40.5t-99.5 -17q-99 0 -173.5 38.5t-124 106t-74.5 160t-25 200.5zM494 509q0 -48 10.5 -79t28 -49t38.5 -25.5
t42 -7.5q23 0 44.5 9t41.5 20v314q-13 4 -32.5 7t-59.5 3q-28 0 -49 -9t-35.5 -31t-21.5 -59t-7 -93zM517 1278l207 404l349 -179l-329 -351z" />
    <glyph glyph-name="Aacute" unicode="&#xc1;" horiz-adv-x="1618" 
d="M1022 176h-426q-11 -56 -20 -103.5t-15 -82.5l-518 10q13 69 39.5 177.5t62.5 238t79.5 269.5t89 272.5t91 247t86.5 192.5h635q25 -44 55 -114t62.5 -157t66.5 -186.5t66.5 -203.5t63 -208.5t56.5 -200.5t46 -180t32 -147l-518 -10zM798 1026q-28 -87 -59 -209t-61 -255
h261q-29 124 -59 241t-61 223h-21zM676 1625l207 404l349 -179l-329 -351z" />
    <glyph glyph-name="Abreve" unicode="&#x102;" horiz-adv-x="1618" 
d="M1022 176h-426q-11 -56 -20 -103.5t-15 -82.5l-518 10q13 69 39.5 177.5t62.5 238t79.5 269.5t89 272.5t91 247t86.5 192.5h635q25 -44 55 -114t62.5 -157t66.5 -186.5t66.5 -203.5t63 -208.5t56.5 -200.5t46 -180t32 -147l-518 -10zM798 1026q-28 -87 -59 -209t-61 -255
h261q-29 124 -59 241t-61 223h-21zM853 1576q-86 0 -147 16.5t-102 43t-65.5 60t-38.5 66.5t-20 62.5t-10 48.5l266 47q6 -23 13 -42.5t19 -33t32 -21t54 -7.5q33 0 52.5 7.5t30.5 21t17.5 32.5t13.5 42l267 -46q-4 -19 -10 -48.5t-20 -62.5t-38.5 -66.5t-65.5 -60
t-101.5 -43t-146.5 -16.5z" />
    <glyph glyph-name="Acircumflex" unicode="&#xc2;" horiz-adv-x="1618" 
d="M1022 176h-426q-11 -56 -20 -103.5t-15 -82.5l-518 10q13 69 39.5 177.5t62.5 238t79.5 269.5t89 272.5t91 247t86.5 192.5h635q25 -44 55 -114t62.5 -157t66.5 -186.5t66.5 -203.5t63 -208.5t56.5 -200.5t46 -180t32 -147l-518 -10zM798 1026q-28 -87 -59 -209t-61 -255
h261q-29 124 -59 241t-61 223h-21zM645 1522l-309 75l242 278l445 -1l235 -277l-310 -75l-152 144z" />
    <glyph glyph-name="Agrave" unicode="&#xc0;" horiz-adv-x="1618" 
d="M1022 176h-426q-11 -56 -20 -103.5t-15 -82.5l-518 10q13 69 39.5 177.5t62.5 238t79.5 269.5t89 272.5t91 247t86.5 192.5h635q25 -44 55 -114t62.5 -157t66.5 -186.5t66.5 -203.5t63 -208.5t56.5 -200.5t46 -180t32 -147l-518 -10zM798 1026q-28 -87 -59 -209t-61 -255
h261q-29 124 -59 241t-61 223h-21zM746 1484l-330 351l350 179l206 -404z" />
    <glyph glyph-name="Adieresis" unicode="&#xc4;" horiz-adv-x="1618" 
d="M1022 176h-426q-11 -56 -20 -103.5t-15 -82.5l-518 10q13 69 39.5 177.5t62.5 238t79.5 269.5t89 272.5t91 247t86.5 192.5h635q25 -44 55 -114t62.5 -157t66.5 -186.5t66.5 -203.5t63 -208.5t56.5 -200.5t46 -180t32 -147l-518 -10zM798 1026q-28 -87 -59 -209t-61 -255
h261q-29 124 -59 241t-61 223h-21zM560 1843q116 0 169 -44.5t53 -122.5q0 -80 -52.5 -122.5t-162.5 -42.5q-117 0 -170 45.5t-53 123.5q0 77 52 120t164 43zM1080 1843q116 0 169 -44.5t53 -122.5q0 -80 -53 -122.5t-162 -42.5q-117 0 -170 45.5t-53 123.5q0 77 52 120
t164 43z" />
    <glyph glyph-name="Amacron" unicode="&#x100;" horiz-adv-x="1618" 
d="M1022 176h-426q-11 -56 -20 -103.5t-15 -82.5l-518 10q13 69 39.5 177.5t62.5 238t79.5 269.5t89 272.5t91 247t86.5 192.5h635q25 -44 55 -114t62.5 -157t66.5 -186.5t66.5 -203.5t63 -208.5t56.5 -200.5t46 -180t32 -147l-518 -10zM798 1026q-28 -87 -59 -209t-61 -255
h261q-29 124 -59 241t-61 223h-21zM1198 1525h-774v287h774v-287z" />
    <glyph glyph-name="Aogonek" unicode="&#x104;" horiz-adv-x="1618" 
d="M1022 176h-426q-11 -56 -20 -103.5t-15 -82.5l-518 10q13 69 39.5 177.5t62.5 238t79.5 269.5t89 272.5t91 247t86.5 192.5h635q25 -44 55 -114t62.5 -157t66.5 -186.5t66.5 -203.5t63 -208.5t56.5 -200.5t46 -180t32 -147l-518 -10zM798 1026q-28 -87 -59 -209t-61 -255
h261q-29 124 -59 241t-61 223h-21zM1708 -435q-45 -17 -102.5 -24t-117.5 -7q-154 0 -236.5 58.5t-82.5 158.5q0 85 40.5 146.5t106.5 102.5h261q-27 -25 -47.5 -46.5t-34.5 -42.5t-21.5 -43t-7.5 -49q0 -29 10.5 -46.5t27 -27t36 -12.5t36.5 -3q20 0 43.5 1.5t38.5 6.5z
" />
    <glyph glyph-name="Aring" unicode="&#xc5;" horiz-adv-x="1618" 
d="M1022 176h-426q-11 -56 -20 -103.5t-15 -82.5l-518 10q13 69 39.5 177.5t62.5 238t79.5 269.5t89 272.5t91 247t86.5 192.5h635q25 -44 55 -114t62.5 -157t66.5 -186.5t66.5 -203.5t63 -208.5t56.5 -200.5t46 -180t32 -147l-518 -10zM798 1026q-28 -87 -59 -209t-61 -255
h261q-29 124 -59 241t-61 223h-21zM807 1777q-39 0 -57 -15.5t-18 -41.5q0 -29 18.5 -45t60.5 -16q74 0 74 58q0 29 -18 44.5t-60 15.5zM806 1919q139 0 203.5 -54.5t64.5 -147.5q0 -97 -63.5 -148.5t-196.5 -51.5q-70 0 -120.5 14.5t-83.5 41t-49 64.5t-16 85
q0 92 63.5 144.5t197.5 52.5z" />
    <glyph glyph-name="Atilde" unicode="&#xc3;" horiz-adv-x="1618" 
d="M1022 176h-426q-11 -56 -20 -103.5t-15 -82.5l-518 10q13 69 39.5 177.5t62.5 238t79.5 269.5t89 272.5t91 247t86.5 192.5h635q25 -44 55 -114t62.5 -157t66.5 -186.5t66.5 -203.5t63 -208.5t56.5 -200.5t46 -180t32 -147l-518 -10zM798 1026q-28 -87 -59 -209t-61 -255
h261q-29 124 -59 241t-61 223h-21zM282 1669q21 58 55.5 106.5t79.5 83t98.5 53.5t111.5 19t103.5 -12.5t85.5 -28t76 -28t74 -12.5q24 0 40 3t27.5 10.5t21.5 20.5t23 33l228 -133q-24 -71 -65 -120.5t-88 -81t-95 -45.5t-85 -14q-56 0 -101.5 12.5t-85.5 28t-78 28
t-78 12.5q-27 0 -44.5 -4.5t-30 -13.5t-22.5 -21.5t-22 -28.5z" />
    <glyph glyph-name="Cacute" unicode="&#x106;" horiz-adv-x="1382" 
d="M552 687q0 -91 24 -151.5t66.5 -96.5t101.5 -51t129 -15q50 0 96 8t86 20t73.5 25.5t57.5 24.5l137 -335q-41 -28 -104.5 -54t-138 -46t-153.5 -32t-149 -12q-90 0 -178 12t-167.5 42t-147 81.5t-117 131t-77.5 190t-28 259.5q0 148 28 260.5t77.5 195t117 137t147 87
t167.5 46t178 13.5q81 0 162 -13t153.5 -33.5t132 -46.5t97.5 -52l-135 -335q-28 12 -61.5 26t-73 25.5t-84.5 19.5t-96 8q-74 0 -133.5 -15.5t-101 -54t-64 -104t-22.5 -165.5zM617 1651l207 404l349 -179l-329 -351z" />
    <glyph glyph-name="Ccaron" unicode="&#x10c;" horiz-adv-x="1382" 
d="M552 687q0 -91 24 -151.5t66.5 -96.5t101.5 -51t129 -15q50 0 96 8t86 20t73.5 25.5t57.5 24.5l137 -335q-41 -28 -104.5 -54t-138 -46t-153.5 -32t-149 -12q-90 0 -178 12t-167.5 42t-147 81.5t-117 131t-77.5 190t-28 259.5q0 148 28 260.5t77.5 195t117 137t147 87
t167.5 46t178 13.5q81 0 162 -13t153.5 -33.5t132 -46.5t97.5 -52l-135 -335q-28 12 -61.5 26t-73 25.5t-84.5 19.5t-96 8q-74 0 -133.5 -15.5t-101 -54t-64 -104t-22.5 -165.5zM770 1737l77 120l389 -92l-242 -236h-445l-243 241l394 86z" />
    <glyph glyph-name="Ccedilla" unicode="&#xc7;" horiz-adv-x="1382" 
d="M552 687q0 -91 24 -151.5t66.5 -96.5t101.5 -51t129 -15q50 0 96 8t86 20t73.5 25.5t57.5 24.5l137 -335q-41 -28 -104.5 -54t-138 -46t-153.5 -32t-149 -12q-90 0 -178 12t-167.5 42t-147 81.5t-117 131t-77.5 190t-28 259.5q0 148 28 260.5t77.5 195t117 137t147 87
t167.5 46t178 13.5q81 0 162 -13t153.5 -33.5t132 -46.5t97.5 -52l-135 -335q-28 12 -61.5 26t-73 25.5t-84.5 19.5t-96 8q-74 0 -133.5 -15.5t-101 -54t-64 -104t-22.5 -165.5zM560 -262q15 -5 38.5 -6.5t43.5 -1.5q17 0 36.5 2.5t36 9.5t27 18.5t10.5 29.5q0 19 -8 30
t-22.5 17t-34 8t-42.5 2q-12 0 -31 -1.5t-36 -6.5l73 161h283l-39 -72q30 -6 56.5 -21.5t46 -38.5t30.5 -52.5t11 -64.5q0 -100 -77.5 -158.5t-231.5 -58.5q-60 0 -117.5 7t-102.5 24z" />
    <glyph glyph-name="Ccircumflex" unicode="&#x108;" horiz-adv-x="1382" 
d="M552 687q0 -91 24 -151.5t66.5 -96.5t101.5 -51t129 -15q50 0 96 8t86 20t73.5 25.5t57.5 24.5l137 -335q-41 -28 -104.5 -54t-138 -46t-153.5 -32t-149 -12q-90 0 -178 12t-167.5 42t-147 81.5t-117 131t-77.5 190t-28 259.5q0 148 28 260.5t77.5 195t117 137t147 87
t167.5 46t178 13.5q81 0 162 -13t153.5 -33.5t132 -46.5t97.5 -52l-135 -335q-28 12 -61.5 26t-73 25.5t-84.5 19.5t-96 8q-74 0 -133.5 -15.5t-101 -54t-64 -104t-22.5 -165.5zM608 1484l-309 75l242 278l445 -1l235 -277l-310 -75l-152 144z" />
    <glyph glyph-name="Cdotaccent" unicode="&#x10a;" horiz-adv-x="1382" 
d="M552 687q0 -91 24 -151.5t66.5 -96.5t101.5 -51t129 -15q50 0 96 8t86 20t73.5 25.5t57.5 24.5l137 -335q-41 -28 -104.5 -54t-138 -46t-153.5 -32t-149 -12q-90 0 -178 12t-167.5 42t-147 81.5t-117 131t-77.5 190t-28 259.5q0 148 28 260.5t77.5 195t117 137t147 87
t167.5 46t178 13.5q81 0 162 -13t153.5 -33.5t132 -46.5t97.5 -52l-135 -335q-28 12 -61.5 26t-73 25.5t-84.5 19.5t-96 8q-74 0 -133.5 -15.5t-101 -54t-64 -104t-22.5 -165.5zM805 1876q116 0 169 -44.5t53 -122.5q0 -80 -52.5 -122.5t-162.5 -42.5q-117 0 -170 45.5
t-53 123.5q0 77 52 120t164 43z" />
    <glyph glyph-name="Dcaron" unicode="&#x10e;" horiz-adv-x="1559" 
d="M135 0v1397h586q96 0 191.5 -13t183 -43t163 -79.5t131 -123.5t87 -174t31.5 -230q0 -196 -47 -335t-143.5 -227.5t-245 -130t-351.5 -41.5h-586zM637 401h112q65 0 115.5 16t85 52t52 94t17.5 143q0 64 -13 117.5t-40.5 91.5t-70.5 59.5t-104 21.5h-154v-595zM639 1717
l77 120l389 -92l-242 -236h-445l-243 241l394 86z" />
    <glyph glyph-name="Dcroat" unicode="&#x110;" horiz-adv-x="1559" 
d="M735 553h-774v287h774v-287zM135 0v1397h586q96 0 191.5 -13t183 -43t163 -79.5t131 -123.5t87 -174t31.5 -230q0 -196 -47 -335t-143.5 -227.5t-245 -130t-351.5 -41.5h-586zM637 401h112q65 0 115.5 16t85 52t52 94t17.5 143q0 64 -13 117.5t-40.5 91.5t-70.5 59.5
t-104 21.5h-154v-595z" />
    <glyph glyph-name="Eacute" unicode="&#xc9;" horiz-adv-x="1282" 
d="M135 0v1397h1047v-397h-556v-118h476v-360h-476v-125h583v-397h-1074zM502 1599l207 404l349 -179l-329 -351z" />
    <glyph glyph-name="Ebreve" unicode="&#x114;" horiz-adv-x="1282" 
d="M135 0v1397h1047v-397h-556v-118h476v-360h-476v-125h583v-397h-1074zM672 1520q-86 0 -147 16.5t-102 43t-65.5 60t-38.5 66.5t-20 62.5t-10 48.5l266 47q6 -23 13 -42.5t19 -33t32 -21t54 -7.5q33 0 52.5 7.5t30.5 21t17.5 32.5t13.5 42l267 -46q-4 -19 -10 -48.5
t-20 -62.5t-38.5 -66.5t-65.5 -60t-101.5 -43t-146.5 -16.5z" />
    <glyph glyph-name="Ecaron" unicode="&#x11a;" horiz-adv-x="1282" 
d="M135 0v1397h1047v-397h-556v-118h476v-360h-476v-125h583v-397h-1074zM663 1733l77 120l389 -92l-242 -236h-445l-243 241l394 86z" />
    <glyph glyph-name="Ecircumflex" unicode="&#xca;" horiz-adv-x="1282" 
d="M135 0v1397h1047v-397h-556v-118h476v-360h-476v-125h583v-397h-1074zM504 1493l-309 75l242 278l445 -1l235 -277l-310 -75l-152 144z" />
    <glyph glyph-name="Edieresis" unicode="&#xcb;" horiz-adv-x="1282" 
d="M135 0v1397h1047v-397h-556v-118h476v-360h-476v-125h583v-397h-1074zM420 1859q116 0 169 -44.5t53 -122.5q0 -80 -52.5 -122.5t-162.5 -42.5q-117 0 -170 45.5t-53 123.5q0 77 52 120t164 43zM940 1859q116 0 169 -44.5t53 -122.5q0 -80 -53 -122.5t-162 -42.5
q-117 0 -170 45.5t-53 123.5q0 77 52 120t164 43z" />
    <glyph glyph-name="Edotaccent" unicode="&#x116;" horiz-adv-x="1282" 
d="M135 0v1397h1047v-397h-556v-118h476v-360h-476v-125h583v-397h-1074zM679 1852q116 0 169 -44.5t53 -122.5q0 -80 -52.5 -122.5t-162.5 -42.5q-117 0 -170 45.5t-53 123.5q0 77 52 120t164 43z" />
    <glyph glyph-name="Egrave" unicode="&#xc8;" horiz-adv-x="1282" 
d="M135 0v1397h1047v-397h-556v-118h476v-360h-476v-125h583v-397h-1074zM564 1475l-330 351l350 179l206 -404z" />
    <glyph glyph-name="Emacron" unicode="&#x112;" horiz-adv-x="1282" 
d="M135 0v1397h1047v-397h-556v-118h476v-360h-476v-125h583v-397h-1074zM1069 1540h-774v287h774v-287z" />
    <glyph glyph-name="Eogonek" unicode="&#x118;" horiz-adv-x="1282" 
d="M135 0v1397h1047v-397h-556v-118h476v-360h-476v-125h583v-397h-1074zM1339 -435q-45 -17 -102.5 -24t-117.5 -7q-154 0 -236.5 58.5t-82.5 158.5q0 85 40.5 146.5t106.5 102.5h261q-27 -25 -47.5 -46.5t-34.5 -42.5t-21.5 -43t-7.5 -49q0 -29 10.5 -46.5t27 -27
t36 -12.5t36.5 -3q20 0 43.5 1.5t38.5 6.5z" />
    <glyph glyph-name="Gbreve" unicode="&#x11e;" horiz-adv-x="1454" 
d="M63 702q0 364 187 544.5t568 180.5q81 0 158 -11.5t143 -28.5t118 -36.5t84 -34.5l-139 -346q-32 12 -74 22t-87.5 17.5t-91.5 12t-86 4.5q-65 0 -118.5 -20t-91.5 -59.5t-59.5 -97.5t-21.5 -134q0 -79 18 -142t50.5 -107.5t76.5 -68t95 -23.5h23t22.5 -0.5t18 -0.5h9.5
v302h468v-633q-60 -20 -130 -33t-143.5 -21.5t-146.5 -12t-139 -3.5q-174 0 -307 42t-223 130.5t-135.5 227t-45.5 330.5zM802 1520q-86 0 -147 16.5t-102 43t-65.5 60t-38.5 66.5t-20 62.5t-10 48.5l266 47q6 -23 13 -42.5t19 -33t32 -21t54 -7.5q33 0 52.5 7.5t30.5 21
t17.5 32.5t13.5 42l267 -46q-4 -19 -10 -48.5t-20 -62.5t-38.5 -66.5t-65.5 -60t-101.5 -43t-146.5 -16.5z" />
    <glyph glyph-name="Gcircumflex" unicode="&#x11c;" horiz-adv-x="1454" 
d="M63 702q0 364 187 544.5t568 180.5q81 0 158 -11.5t143 -28.5t118 -36.5t84 -34.5l-139 -346q-32 12 -74 22t-87.5 17.5t-91.5 12t-86 4.5q-65 0 -118.5 -20t-91.5 -59.5t-59.5 -97.5t-21.5 -134q0 -79 18 -142t50.5 -107.5t76.5 -68t95 -23.5h23t22.5 -0.5t18 -0.5h9.5
v302h468v-633q-60 -20 -130 -33t-143.5 -21.5t-146.5 -12t-139 -3.5q-174 0 -307 42t-223 130.5t-135.5 227t-45.5 330.5zM620 1476l-309 75l242 278l445 -1l235 -277l-310 -75l-152 144z" />
    <glyph glyph-name="Gcommaaccent" unicode="&#x122;" horiz-adv-x="1454" 
d="M63 702q0 364 187 544.5t568 180.5q81 0 158 -11.5t143 -28.5t118 -36.5t84 -34.5l-139 -346q-32 12 -74 22t-87.5 17.5t-91.5 12t-86 4.5q-65 0 -118.5 -20t-91.5 -59.5t-59.5 -97.5t-21.5 -134q0 -79 18 -142t50.5 -107.5t76.5 -68t95 -23.5h23t22.5 -0.5t18 -0.5h9.5
v302h468v-633q-60 -20 -130 -33t-143.5 -21.5t-146.5 -12t-139 -3.5q-174 0 -307 42t-223 130.5t-135.5 227t-45.5 330.5zM733 -130q146 0 214.5 -57t68.5 -156q3 -87 -19 -177t-60.5 -173t-89 -153t-104.5 -118l-196 90q19 36 37.5 79.5t34 87t28 84.5t19.5 73
q-59 7 -99 24.5t-64.5 45t-35.5 63.5t-11 80q0 97 67 152t210 55z" />
    <glyph glyph-name="Gdotaccent" unicode="&#x120;" horiz-adv-x="1454" 
d="M63 702q0 364 187 544.5t568 180.5q81 0 158 -11.5t143 -28.5t118 -36.5t84 -34.5l-139 -346q-32 12 -74 22t-87.5 17.5t-91.5 12t-86 4.5q-65 0 -118.5 -20t-91.5 -59.5t-59.5 -97.5t-21.5 -134q0 -79 18 -142t50.5 -107.5t76.5 -68t95 -23.5h23t22.5 -0.5t18 -0.5h9.5
v302h468v-633q-60 -20 -130 -33t-143.5 -21.5t-146.5 -12t-139 -3.5q-174 0 -307 42t-223 130.5t-135.5 227t-45.5 330.5zM786 1872q116 0 169 -44.5t53 -122.5q0 -80 -52.5 -122.5t-162.5 -42.5q-117 0 -170 45.5t-53 123.5q0 77 52 120t164 43z" />
    <glyph glyph-name="Hbar" unicode="&#x126;" horiz-adv-x="1655" 
d="M135 0v1397h501v-87h375v87h505v-1397h-505v500h-375v-500h-501zM1011 901v82h-375v-82h375z" />
    <glyph glyph-name="Hcircumflex" unicode="&#x124;" horiz-adv-x="1655" 
d="M135 0v1397h501v-496h375v496h505v-1397h-505v500h-375v-500h-501zM662 1488l-309 75l242 278l445 -1l235 -277l-310 -75l-152 144z" />
    <glyph glyph-name="Iacute" unicode="&#xcd;" horiz-adv-x="774" 
d="M135 0v1397h501v-1397h-501zM249 1618l207 404l349 -179l-329 -351z" />
    <glyph glyph-name="Ibreve" unicode="&#x12c;" horiz-adv-x="774" 
d="M135 0v1397h501v-1397h-501zM399 1552q-86 0 -147 16.5t-102 43t-65.5 60t-38.5 66.5t-20 62.5t-10 48.5l266 47q6 -23 13 -42.5t19 -33t32 -21t54 -7.5q33 0 52.5 7.5t30.5 21t17.5 32.5t13.5 42l267 -46q-4 -19 -10 -48.5t-20 -62.5t-38.5 -66.5t-65.5 -60t-101.5 -43
t-146.5 -16.5z" />
    <glyph glyph-name="Icircumflex" unicode="&#xce;" horiz-adv-x="774" 
d="M135 0v1397h501v-1397h-501zM238 1529l-309 75l242 278l445 -1l235 -277l-310 -75l-152 144z" />
    <glyph glyph-name="Idieresis" unicode="&#xcf;" horiz-adv-x="774" 
d="M135 0v1397h501v-1397h-501zM131 1897q116 0 169 -44.5t53 -122.5q0 -80 -52.5 -122.5t-162.5 -42.5q-117 0 -170 45.5t-53 123.5q0 77 52 120t164 43zM651 1897q116 0 169 -44.5t53 -122.5q0 -80 -53 -122.5t-162 -42.5q-117 0 -170 45.5t-53 123.5q0 77 52 120t164 43z
" />
    <glyph glyph-name="Idotaccent" unicode="&#x130;" horiz-adv-x="774" 
d="M135 0v1397h501v-1397h-501zM380 1872q116 0 169 -44.5t53 -122.5q0 -80 -52.5 -122.5t-162.5 -42.5q-117 0 -170 45.5t-53 123.5q0 77 52 120t164 43z" />
    <glyph glyph-name="Igrave" unicode="&#xcc;" horiz-adv-x="774" 
d="M135 0v1397h501v-1397h-501zM294 1492l-330 351l350 179l206 -404z" />
    <glyph glyph-name="Imacron" unicode="&#x12a;" horiz-adv-x="774" 
d="M135 0v1397h501v-1397h-501zM764 1545h-774v287h774v-287z" />
    <glyph glyph-name="Iogonek" unicode="&#x12e;" horiz-adv-x="774" 
d="M135 0v1397h501v-1397h-501zM650 -435q-45 -17 -102.5 -24t-117.5 -7q-154 0 -236.5 58.5t-82.5 158.5q0 85 40.5 146.5t106.5 102.5h261q-27 -25 -47.5 -46.5t-34.5 -42.5t-21.5 -43t-7.5 -49q0 -29 10.5 -46.5t27 -27t36 -12.5t36.5 -3q20 0 43.5 1.5t38.5 6.5z" />
    <glyph glyph-name="Itilde" unicode="&#x128;" horiz-adv-x="774" 
d="M135 0v1397h501v-1397h-501zM-133 1657q21 58 55.5 106.5t79.5 83t98.5 53.5t111.5 19t103.5 -12.5t85.5 -28t76 -28t74 -12.5q24 0 40 3t27.5 10.5t21.5 20.5t23 33l228 -133q-24 -71 -65 -120.5t-88 -81t-95 -45.5t-85 -14q-56 0 -101.5 12.5t-85.5 28t-78 28t-78 12.5
q-27 0 -44.5 -4.5t-30 -13.5t-22.5 -21.5t-22 -28.5z" />
    <glyph glyph-name="Jcircumflex" unicode="&#x134;" horiz-adv-x="963" 
d="M827 482q0 -127 -24.5 -222.5t-77 -159.5t-135 -96t-197.5 -32q-49 0 -99 5.5t-98 14.5t-92 21.5t-81 27.5l65 358q15 -5 34.5 -10t40.5 -8.5t42 -5.5t39 -2q44 0 63 32t19 91v901h501v-915zM434 1476l-309 75l242 278l445 -1l235 -277l-310 -75l-152 144z" />
    <glyph glyph-name="Kcommaaccent" unicode="&#x136;" horiz-adv-x="1502" 
d="M135 0v1397h501v-446q50 56 87.5 108.5t69 106.5t59.5 110.5t59 120.5h542q-30 -81 -73.5 -164.5t-96.5 -164.5t-114.5 -157.5t-127.5 -144.5q41 -69 95.5 -149t118 -163t133.5 -165.5t142 -156.5l-369 -242q-59 48 -124 117.5t-128.5 149.5t-121 165.5t-101.5 165.5
q-13 -7 -25.5 -13t-24.5 -11v-464h-501zM667 -46q146 0 214.5 -57t68.5 -156q3 -87 -19 -177t-60.5 -173t-89 -153t-104.5 -118l-196 90q19 36 37.5 79.5t34 87t28 84.5t19.5 73q-59 7 -99 24.5t-64.5 45t-35.5 63.5t-11 80q0 97 67 152t210 55z" />
    <glyph glyph-name="Lacute" unicode="&#x139;" horiz-adv-x="1268" 
d="M135 0v1397h501v-996h546v-401h-1047zM257 1585l207 404l349 -179l-329 -351z" />
    <glyph glyph-name="Lcaron" unicode="&#x13d;" horiz-adv-x="1364" 
d="M135 0v1397h501v-996h546v-401h-1047zM1046 1398q146 0 214.5 -57t68.5 -156q3 -87 -19 -177t-60.5 -173t-89 -153t-104.5 -118l-196 90q19 36 37.5 79.5t34 87t28 84.5t19.5 73q-59 7 -99 24.5t-64.5 45t-35.5 63.5t-11 80q0 97 67 152t210 55z" />
    <glyph glyph-name="Lcommaaccent" unicode="&#x13b;" horiz-adv-x="1268" 
d="M135 0v1397h501v-996h546v-401h-1047zM544 -62q146 0 214.5 -57t68.5 -156q3 -87 -19 -177t-60.5 -173t-89 -153t-104.5 -118l-196 90q19 36 37.5 79.5t34 87t28 84.5t19.5 73q-59 7 -99 24.5t-64.5 45t-35.5 63.5t-11 80q0 97 67 152t210 55z" />
    <glyph glyph-name="Ldot" unicode="&#x13f;" horiz-adv-x="1268" 
d="M135 0v1397h501v-996h546v-401h-1047zM1006 975q116 0 169 -44.5t53 -122.5q0 -80 -52.5 -122.5t-162.5 -42.5q-117 0 -170 45.5t-53 123.5q0 77 52 120t164 43z" />
    <glyph glyph-name="Lslash" unicode="&#x141;" horiz-adv-x="1268" 
d="M802 732l-721 -270l-110 268l719 269zM135 0v1397h501v-996h546v-401h-1047z" />
    <glyph glyph-name="Nacute" unicode="&#x143;" horiz-adv-x="1693" 
d="M666 1593l207 404l349 -179l-329 -351zM135 0v1397h502q60 -62 110.5 -144t100.5 -169.5t103 -174t117 -158.5h9l-20 646h501v-1397h-494q-44 41 -84 91t-77 104.5t-72 110t-69 108t-68 99.5t-69 84h-9l20 -597h-501z" />
    <glyph glyph-name="Ncaron" unicode="&#x147;" horiz-adv-x="1693" 
d="M827 1741l77 120l389 -92l-242 -236h-445l-243 241l394 86zM135 0v1397h502q60 -62 110.5 -144t100.5 -169.5t103 -174t117 -158.5h9l-20 646h501v-1397h-494q-44 41 -84 91t-77 104.5t-72 110t-69 108t-68 99.5t-69 84h-9l20 -597h-501z" />
    <glyph glyph-name="Ncommaaccent" unicode="&#x145;" horiz-adv-x="1693" 
d="M135 0v1397h502q60 -62 110.5 -144t100.5 -169.5t103 -174t117 -158.5h9l-20 646h501v-1397h-494q-44 41 -84 91t-77 104.5t-72 110t-69 108t-68 99.5t-69 84h-9l20 -597h-501zM759 -37q146 0 214.5 -57t68.5 -156q3 -87 -19 -177t-60.5 -173t-89 -153t-104.5 -118
l-196 90q19 36 37.5 79.5t34 87t28 84.5t19.5 73q-59 7 -99 24.5t-64.5 45t-35.5 63.5t-11 80q0 97 67 152t210 55z" />
    <glyph glyph-name="Ntilde" unicode="&#xd1;" horiz-adv-x="1693" 
d="M335 1656q21 58 55.5 106.5t79.5 83t98.5 53.5t111.5 19t103.5 -12.5t85.5 -28t76 -28t74 -12.5q24 0 40 3t27.5 10.5t21.5 20.5t23 33l228 -133q-24 -71 -65 -120.5t-88 -81t-95 -45.5t-85 -14q-56 0 -101.5 12.5t-85.5 28t-78 28t-78 12.5q-27 0 -44.5 -4.5t-30 -13.5
t-22.5 -21.5t-22 -28.5zM135 0v1397h502q60 -62 110.5 -144t100.5 -169.5t103 -174t117 -158.5h9l-20 646h501v-1397h-494q-44 41 -84 91t-77 104.5t-72 110t-69 108t-68 99.5t-69 84h-9l20 -597h-501z" />
    <glyph glyph-name="Oacute" unicode="&#xd3;" horiz-adv-x="1661" 
d="M1598 695q-2 -157 -51 -290t-145 -229.5t-237 -150.5t-326 -53q-193 1 -339.5 56t-244.5 151.5t-146.5 228.5t-45.5 287q3 160 52 294t145 231t240.5 151.5t338.5 55.5q187 1 329.5 -55.5t238.5 -155.5t144 -233t47 -288zM836 1026q-70 0 -122 -26.5t-87.5 -71.5
t-54 -105.5t-20.5 -127.5q-2 -66 17.5 -124.5t57 -102.5t91.5 -69.5t120 -25.5q61 0 111 26t86 70t56 103t20 124q0 63 -19 122.5t-54.5 105.5t-86.5 74t-115 28zM709 1606l207 404l349 -179l-329 -351z" />
    <glyph glyph-name="Obreve" unicode="&#x14e;" horiz-adv-x="1661" 
d="M1598 695q-2 -157 -51 -290t-145 -229.5t-237 -150.5t-326 -53q-193 1 -339.5 56t-244.5 151.5t-146.5 228.5t-45.5 287q3 160 52 294t145 231t240.5 151.5t338.5 55.5q187 1 329.5 -55.5t238.5 -155.5t144 -233t47 -288zM836 1026q-70 0 -122 -26.5t-87.5 -71.5
t-54 -105.5t-20.5 -127.5q-2 -66 17.5 -124.5t57 -102.5t91.5 -69.5t120 -25.5q61 0 111 26t86 70t56 103t20 124q0 63 -19 122.5t-54.5 105.5t-86.5 74t-115 28zM823 1508q-86 0 -147 16.5t-102 43t-65.5 60t-38.5 66.5t-20 62.5t-10 48.5l266 47q6 -23 13 -42.5t19 -33
t32 -21t54 -7.5q33 0 52.5 7.5t30.5 21t17.5 32.5t13.5 42l267 -46q-4 -19 -10 -48.5t-20 -62.5t-38.5 -66.5t-65.5 -60t-101.5 -43t-146.5 -16.5z" />
    <glyph glyph-name="Ocircumflex" unicode="&#xd4;" horiz-adv-x="1661" 
d="M1598 695q-2 -157 -51 -290t-145 -229.5t-237 -150.5t-326 -53q-193 1 -339.5 56t-244.5 151.5t-146.5 228.5t-45.5 287q3 160 52 294t145 231t240.5 151.5t338.5 55.5q187 1 329.5 -55.5t238.5 -155.5t144 -233t47 -288zM836 1026q-70 0 -122 -26.5t-87.5 -71.5
t-54 -105.5t-20.5 -127.5q-2 -66 17.5 -124.5t57 -102.5t91.5 -69.5t120 -25.5q61 0 111 26t86 70t56 103t20 124q0 63 -19 122.5t-54.5 105.5t-86.5 74t-115 28zM704 1484l-309 75l242 278l445 -1l235 -277l-310 -75l-152 144z" />
    <glyph glyph-name="Odieresis" unicode="&#xd6;" horiz-adv-x="1661" 
d="M1598 695q-2 -157 -51 -290t-145 -229.5t-237 -150.5t-326 -53q-193 1 -339.5 56t-244.5 151.5t-146.5 228.5t-45.5 287q3 160 52 294t145 231t240.5 151.5t338.5 55.5q187 1 329.5 -55.5t238.5 -155.5t144 -233t47 -288zM836 1026q-70 0 -122 -26.5t-87.5 -71.5
t-54 -105.5t-20.5 -127.5q-2 -66 17.5 -124.5t57 -102.5t91.5 -69.5t120 -25.5q61 0 111 26t86 70t56 103t20 124q0 63 -19 122.5t-54.5 105.5t-86.5 74t-115 28zM551 1876q116 0 169 -44.5t53 -122.5q0 -80 -52.5 -122.5t-162.5 -42.5q-117 0 -170 45.5t-53 123.5
q0 77 52 120t164 43zM1071 1876q116 0 169 -44.5t53 -122.5q0 -80 -53 -122.5t-162 -42.5q-117 0 -170 45.5t-53 123.5q0 77 52 120t164 43z" />
    <glyph glyph-name="Ograve" unicode="&#xd2;" horiz-adv-x="1661" 
d="M1598 695q-2 -157 -51 -290t-145 -229.5t-237 -150.5t-326 -53q-193 1 -339.5 56t-244.5 151.5t-146.5 228.5t-45.5 287q3 160 52 294t145 231t240.5 151.5t338.5 55.5q187 1 329.5 -55.5t238.5 -155.5t144 -233t47 -288zM836 1026q-70 0 -122 -26.5t-87.5 -71.5
t-54 -105.5t-20.5 -127.5q-2 -66 17.5 -124.5t57 -102.5t91.5 -69.5t120 -25.5q61 0 111 26t86 70t56 103t20 124q0 63 -19 122.5t-54.5 105.5t-86.5 74t-115 28zM724 1500l-330 351l350 179l206 -404z" />
    <glyph glyph-name="Ohungarumlaut" unicode="&#x150;" horiz-adv-x="1661" 
d="M1598 695q-2 -157 -51 -290t-145 -229.5t-237 -150.5t-326 -53q-193 1 -339.5 56t-244.5 151.5t-146.5 228.5t-45.5 287q3 160 52 294t145 231t240.5 151.5t338.5 55.5q187 1 329.5 -55.5t238.5 -155.5t144 -233t47 -288zM836 1026q-70 0 -122 -26.5t-87.5 -71.5
t-54 -105.5t-20.5 -127.5q-2 -66 17.5 -124.5t57 -102.5t91.5 -69.5t120 -25.5q61 0 111 26t86 70t56 103t20 124q0 63 -19 122.5t-54.5 105.5t-86.5 74t-115 28zM422 1643l207 404l349 -179l-329 -351zM936 1643l207 404l350 -179l-330 -351z" />
    <glyph glyph-name="Omacron" unicode="&#x14c;" horiz-adv-x="1661" 
d="M1598 695q-2 -157 -51 -290t-145 -229.5t-237 -150.5t-326 -53q-193 1 -339.5 56t-244.5 151.5t-146.5 228.5t-45.5 287q3 160 52 294t145 231t240.5 151.5t338.5 55.5q187 1 329.5 -55.5t238.5 -155.5t144 -233t47 -288zM836 1026q-70 0 -122 -26.5t-87.5 -71.5
t-54 -105.5t-20.5 -127.5q-2 -66 17.5 -124.5t57 -102.5t91.5 -69.5t120 -25.5q61 0 111 26t86 70t56 103t20 124q0 63 -19 122.5t-54.5 105.5t-86.5 74t-115 28zM1219 1556h-774v287h774v-287z" />
    <glyph glyph-name="Otilde" unicode="&#xd5;" horiz-adv-x="1661" 
d="M1598 695q-2 -157 -51 -290t-145 -229.5t-237 -150.5t-326 -53q-193 1 -339.5 56t-244.5 151.5t-146.5 228.5t-45.5 287q3 160 52 294t145 231t240.5 151.5t338.5 55.5q187 1 329.5 -55.5t238.5 -155.5t144 -233t47 -288zM836 1026q-70 0 -122 -26.5t-87.5 -71.5
t-54 -105.5t-20.5 -127.5q-2 -66 17.5 -124.5t57 -102.5t91.5 -69.5t120 -25.5q61 0 111 26t86 70t56 103t20 124q0 63 -19 122.5t-54.5 105.5t-86.5 74t-115 28zM307 1666q21 58 55.5 106.5t79.5 83t98.5 53.5t111.5 19t103.5 -12.5t85.5 -28t76 -28t74 -12.5q24 0 40 3
t27.5 10.5t21.5 20.5t23 33l228 -133q-24 -71 -65 -120.5t-88 -81t-95 -45.5t-85 -14q-56 0 -101.5 12.5t-85.5 28t-78 28t-78 12.5q-27 0 -44.5 -4.5t-30 -13.5t-22.5 -21.5t-22 -28.5z" />
    <glyph glyph-name="R" unicode="R" horiz-adv-x="1450" 
d="M1065 -144q-47 39 -102.5 97.5t-111 126.5t-106.5 138.5t-89 133.5h-20v-352h-501v1397h623q69 0 141 -10t140 -31.5t128 -57t105 -87t71 -119.5t26 -156q0 -83 -21 -151t-56.5 -122.5t-83 -97t-100.5 -75.5q68 -97 158 -197.5t184 -194.5zM636 737h62q51 0 86 11.5
t56.5 31t31.5 44.5t10 52q0 34 -11 59.5t-29.5 42.5t-44 25.5t-53.5 8.5h-108v-275z" />
    <glyph glyph-name="Racute" unicode="&#x154;" horiz-adv-x="1450" 
d="M1065 -144q-47 39 -102.5 97.5t-111 126.5t-106.5 138.5t-89 133.5h-20v-352h-501v1397h623q69 0 141 -10t140 -31.5t128 -57t105 -87t71 -119.5t26 -156q0 -83 -21 -151t-56.5 -122.5t-83 -97t-100.5 -75.5q68 -97 158 -197.5t184 -194.5zM636 737h62q51 0 86 11.5
t56.5 31t31.5 44.5t10 52q0 34 -11 59.5t-29.5 42.5t-44 25.5t-53.5 8.5h-108v-275zM455 1606l207 404l349 -179l-329 -351z" />
    <glyph glyph-name="Rcaron" unicode="&#x158;" horiz-adv-x="1450" 
d="M1065 -144q-47 39 -102.5 97.5t-111 126.5t-106.5 138.5t-89 133.5h-20v-352h-501v1397h623q69 0 141 -10t140 -31.5t128 -57t105 -87t71 -119.5t26 -156q0 -83 -21 -151t-56.5 -122.5t-83 -97t-100.5 -75.5q68 -97 158 -197.5t184 -194.5zM636 737h62q51 0 86 11.5
t56.5 31t31.5 44.5t10 52q0 34 -11 59.5t-29.5 42.5t-44 25.5t-53.5 8.5h-108v-275zM655 1746l77 120l389 -92l-242 -236h-445l-243 241l394 86z" />
    <glyph glyph-name="Rcommaaccent" unicode="&#x156;" horiz-adv-x="1450" 
d="M1065 -144q-47 39 -102.5 97.5t-111 126.5t-106.5 138.5t-89 133.5h-20v-352h-501v1397h623q69 0 141 -10t140 -31.5t128 -57t105 -87t71 -119.5t26 -156q0 -83 -21 -151t-56.5 -122.5t-83 -97t-100.5 -75.5q68 -97 158 -197.5t184 -194.5zM636 737h62q51 0 86 11.5
t56.5 31t31.5 44.5t10 52q0 34 -11 59.5t-29.5 42.5t-44 25.5t-53.5 8.5h-108v-275zM653 -82q146 0 214.5 -57t68.5 -156q3 -87 -19 -177t-60.5 -173t-89 -153t-104.5 -118l-196 90q19 36 37.5 79.5t34 87t28 84.5t19.5 73q-59 7 -99 24.5t-64.5 45t-35.5 63.5t-11 80
q0 97 67 152t210 55z" />
    <glyph glyph-name="Sacute" unicode="&#x15a;" horiz-adv-x="1286" 
d="M162 470q118 -45 218.5 -71t194.5 -26q71 0 106.5 10t35.5 34q0 15 -14.5 28t-40 24t-59 20.5t-72.5 17.5q-100 23 -186 56t-149 82.5t-99 119t-36 167.5q0 117 36 209t111.5 155.5t191.5 97t276 33.5q54 0 123.5 -8.5t142.5 -25.5t143 -41.5t125 -57.5l-137 -335
q-33 12 -74.5 24t-86.5 21.5t-91 15.5t-87 6q-91 0 -131.5 -11.5t-40.5 -40.5q0 -15 13 -27t37 -22t57 -18.5t72 -17.5q240 -59 357.5 -166t117.5 -273q0 -114 -36 -202.5t-109.5 -150t-184.5 -93.5t-262 -32q-102 0 -186.5 10.5t-157 29t-137 44t-125.5 55.5zM622 1610
l207 404l349 -179l-329 -351z" />
    <glyph glyph-name="Scaron" unicode="&#x160;" horiz-adv-x="1286" 
d="M162 470q118 -45 218.5 -71t194.5 -26q71 0 106.5 10t35.5 34q0 15 -14.5 28t-40 24t-59 20.5t-72.5 17.5q-100 23 -186 56t-149 82.5t-99 119t-36 167.5q0 117 36 209t111.5 155.5t191.5 97t276 33.5q54 0 123.5 -8.5t142.5 -25.5t143 -41.5t125 -57.5l-137 -335
q-33 12 -74.5 24t-86.5 21.5t-91 15.5t-87 6q-91 0 -131.5 -11.5t-40.5 -40.5q0 -15 13 -27t37 -22t57 -18.5t72 -17.5q240 -59 357.5 -166t117.5 -273q0 -114 -36 -202.5t-109.5 -150t-184.5 -93.5t-262 -32q-102 0 -186.5 10.5t-157 29t-137 44t-125.5 55.5zM653 1725
l77 120l389 -92l-242 -236h-445l-243 241l394 86z" />
    <glyph glyph-name="Scedilla" unicode="&#x15e;" horiz-adv-x="1286" 
d="M162 470q118 -45 218.5 -71t194.5 -26q71 0 106.5 10t35.5 34q0 15 -14.5 28t-40 24t-59 20.5t-72.5 17.5q-100 23 -186 56t-149 82.5t-99 119t-36 167.5q0 117 36 209t111.5 155.5t191.5 97t276 33.5q54 0 123.5 -8.5t142.5 -25.5t143 -41.5t125 -57.5l-137 -335
q-33 12 -74.5 24t-86.5 21.5t-91 15.5t-87 6q-91 0 -131.5 -11.5t-40.5 -40.5q0 -15 13 -27t37 -22t57 -18.5t72 -17.5q240 -59 357.5 -166t117.5 -273q0 -114 -36 -202.5t-109.5 -150t-184.5 -93.5t-262 -32q-102 0 -186.5 10.5t-157 29t-137 44t-125.5 55.5zM422 -262
q15 -5 38.5 -6.5t43.5 -1.5q17 0 36.5 2.5t36 9.5t27 18.5t10.5 29.5q0 19 -8 30t-22.5 17t-34 8t-42.5 2q-12 0 -31 -1.5t-36 -6.5l73 161h283l-39 -72q30 -6 56.5 -21.5t46 -38.5t30.5 -52.5t11 -64.5q0 -100 -77.5 -158.5t-231.5 -58.5q-60 0 -117.5 7t-102.5 24z" />
    <glyph glyph-name="Scircumflex" unicode="&#x15c;" horiz-adv-x="1286" 
d="M162 470q118 -45 218.5 -71t194.5 -26q71 0 106.5 10t35.5 34q0 15 -14.5 28t-40 24t-59 20.5t-72.5 17.5q-100 23 -186 56t-149 82.5t-99 119t-36 167.5q0 117 36 209t111.5 155.5t191.5 97t276 33.5q54 0 123.5 -8.5t142.5 -25.5t143 -41.5t125 -57.5l-137 -335
q-33 12 -74.5 24t-86.5 21.5t-91 15.5t-87 6q-91 0 -131.5 -11.5t-40.5 -40.5q0 -15 13 -27t37 -22t57 -18.5t72 -17.5q240 -59 357.5 -166t117.5 -273q0 -114 -36 -202.5t-109.5 -150t-184.5 -93.5t-262 -32q-102 0 -186.5 10.5t-157 29t-137 44t-125.5 55.5zM514 1492
l-309 75l242 278l445 -1l235 -277l-310 -75l-152 144z" />
    <glyph glyph-name="Scommaaccent" unicode="&#x218;" horiz-adv-x="1286" 
d="M162 470q118 -45 218.5 -71t194.5 -26q71 0 106.5 10t35.5 34q0 15 -14.5 28t-40 24t-59 20.5t-72.5 17.5q-100 23 -186 56t-149 82.5t-99 119t-36 167.5q0 117 36 209t111.5 155.5t191.5 97t276 33.5q54 0 123.5 -8.5t142.5 -25.5t143 -41.5t125 -57.5l-137 -335
q-33 12 -74.5 24t-86.5 21.5t-91 15.5t-87 6q-91 0 -131.5 -11.5t-40.5 -40.5q0 -15 13 -27t37 -22t57 -18.5t72 -17.5q240 -59 357.5 -166t117.5 -273q0 -114 -36 -202.5t-109.5 -150t-184.5 -93.5t-262 -32q-102 0 -186.5 10.5t-157 29t-137 44t-125.5 55.5zM558 -73
q146 0 214.5 -57t68.5 -156q3 -87 -19 -177t-60.5 -173t-89 -153t-104.5 -118l-196 90q19 36 37.5 79.5t34 87t28 84.5t19.5 73q-59 7 -99 24.5t-64.5 45t-35.5 63.5t-11 80q0 97 67 152t210 55z" />
    <glyph glyph-name="Tbar" unicode="&#x166;" horiz-adv-x="1214" 
d="M20 996v401h1175v-401h-337v-996h-501v996h-337zM999 476h-774v287h774v-287z" />
    <glyph glyph-name="Tcaron" unicode="&#x164;" horiz-adv-x="1217" 
d="M20 996v401h1175v-401h-337v-996h-501v996h-337zM595 1738l77 120l389 -92l-242 -236h-445l-243 241l394 86z" />
    <glyph glyph-name="Tcommaaccent" unicode="&#x162;" horiz-adv-x="1217" 
d="M20 996v401h1175v-401h-337v-996h-501v996h-337zM569 -24q146 0 214.5 -57t68.5 -156q3 -87 -19 -177t-60.5 -173t-89 -153t-104.5 -118l-196 90q19 36 37.5 79.5t34 87t28 84.5t19.5 73q-59 7 -99 24.5t-64.5 45t-35.5 63.5t-11 80q0 97 67 152t210 55z" />
    <glyph glyph-name="Uacute" unicode="&#xda;" horiz-adv-x="1593" 
d="M802 -28q-94 -2 -182.5 8.5t-166.5 37.5t-142 72t-110 111.5t-71.5 156.5t-25.5 208v831h501v-789q0 -51 5.5 -94t25.5 -74.5t59 -49t106 -17.5q55 0 91 15.5t57 45.5t29.5 73.5t8.5 99.5v790h501v-831q0 -115 -25.5 -204t-71.5 -154.5t-109.5 -110t-140 -72t-162.5 -40
t-177 -13.5zM640 1577l207 404l349 -179l-329 -351z" />
    <glyph glyph-name="Ubreve" unicode="&#x16c;" horiz-adv-x="1593" 
d="M802 -28q-94 -2 -182.5 8.5t-166.5 37.5t-142 72t-110 111.5t-71.5 156.5t-25.5 208v831h501v-789q0 -51 5.5 -94t25.5 -74.5t59 -49t106 -17.5q55 0 91 15.5t57 45.5t29.5 73.5t8.5 99.5v790h501v-831q0 -115 -25.5 -204t-71.5 -154.5t-109.5 -110t-140 -72t-162.5 -40
t-177 -13.5zM806 1504q-86 0 -147 16.5t-102 43t-65.5 60t-38.5 66.5t-20 62.5t-10 48.5l266 47q6 -23 13 -42.5t19 -33t32 -21t54 -7.5q33 0 52.5 7.5t30.5 21t17.5 32.5t13.5 42l267 -46q-4 -19 -10 -48.5t-20 -62.5t-38.5 -66.5t-65.5 -60t-101.5 -43t-146.5 -16.5z" />
    <glyph glyph-name="Ucircumflex" unicode="&#xdb;" horiz-adv-x="1593" 
d="M802 -28q-94 -2 -182.5 8.5t-166.5 37.5t-142 72t-110 111.5t-71.5 156.5t-25.5 208v831h501v-789q0 -51 5.5 -94t25.5 -74.5t59 -49t106 -17.5q55 0 91 15.5t57 45.5t29.5 73.5t8.5 99.5v790h501v-831q0 -115 -25.5 -204t-71.5 -154.5t-109.5 -110t-140 -72t-162.5 -40
t-177 -13.5zM655 1480l-309 75l242 278l445 -1l235 -277l-310 -75l-152 144z" />
    <glyph glyph-name="Udieresis" unicode="&#xdc;" horiz-adv-x="1593" 
d="M802 -28q-94 -2 -182.5 8.5t-166.5 37.5t-142 72t-110 111.5t-71.5 156.5t-25.5 208v831h501v-789q0 -51 5.5 -94t25.5 -74.5t59 -49t106 -17.5q55 0 91 15.5t57 45.5t29.5 73.5t8.5 99.5v790h501v-831q0 -115 -25.5 -204t-71.5 -154.5t-109.5 -110t-140 -72t-162.5 -40
t-177 -13.5zM528 1864q116 0 169 -44.5t53 -122.5q0 -80 -52.5 -122.5t-162.5 -42.5q-117 0 -170 45.5t-53 123.5q0 77 52 120t164 43zM1048 1864q116 0 169 -44.5t53 -122.5q0 -80 -53 -122.5t-162 -42.5q-117 0 -170 45.5t-53 123.5q0 77 52 120t164 43z" />
    <glyph glyph-name="Ugrave" unicode="&#xd9;" horiz-adv-x="1593" 
d="M802 -28q-94 -2 -182.5 8.5t-166.5 37.5t-142 72t-110 111.5t-71.5 156.5t-25.5 208v831h501v-789q0 -51 5.5 -94t25.5 -74.5t59 -49t106 -17.5q55 0 91 15.5t57 45.5t29.5 73.5t8.5 99.5v790h501v-831q0 -115 -25.5 -204t-71.5 -154.5t-109.5 -110t-140 -72t-162.5 -40
t-177 -13.5zM742 1504l-330 351l350 179l206 -404z" />
    <glyph glyph-name="Uhungarumlaut" unicode="&#x170;" horiz-adv-x="1593" 
d="M802 -28q-94 -2 -182.5 8.5t-166.5 37.5t-142 72t-110 111.5t-71.5 156.5t-25.5 208v831h501v-789q0 -51 5.5 -94t25.5 -74.5t59 -49t106 -17.5q55 0 91 15.5t57 45.5t29.5 73.5t8.5 99.5v790h501v-831q0 -115 -25.5 -204t-71.5 -154.5t-109.5 -110t-140 -72t-162.5 -40
t-177 -13.5zM403 1626l207 404l349 -179l-329 -351zM917 1626l207 404l350 -179l-330 -351z" />
    <glyph glyph-name="Umacron" unicode="&#x16a;" horiz-adv-x="1593" 
d="M802 -28q-94 -2 -182.5 8.5t-166.5 37.5t-142 72t-110 111.5t-71.5 156.5t-25.5 208v831h501v-789q0 -51 5.5 -94t25.5 -74.5t59 -49t106 -17.5q55 0 91 15.5t57 45.5t29.5 73.5t8.5 99.5v790h501v-831q0 -115 -25.5 -204t-71.5 -154.5t-109.5 -110t-140 -72t-162.5 -40
t-177 -13.5zM1186 1536h-774v287h774v-287z" />
    <glyph glyph-name="Uogonek" unicode="&#x172;" horiz-adv-x="1593" 
d="M802 -28q-94 -2 -182.5 8.5t-166.5 37.5t-142 72t-110 111.5t-71.5 156.5t-25.5 208v831h501v-789q0 -51 5.5 -94t25.5 -74.5t59 -49t106 -17.5q55 0 91 15.5t57 45.5t29.5 73.5t8.5 99.5v790h501v-831q0 -115 -25.5 -204t-71.5 -154.5t-109.5 -110t-140 -72t-162.5 -40
t-177 -13.5zM1182 -415q-45 -17 -102.5 -24t-117.5 -7q-154 0 -236.5 58.5t-82.5 158.5q0 85 40.5 146.5t106.5 102.5h261q-27 -25 -47.5 -46.5t-34.5 -42.5t-21.5 -43t-7.5 -49q0 -29 10.5 -46.5t27 -27t36 -12.5t36.5 -3q20 0 43.5 1.5t38.5 6.5z" />
    <glyph glyph-name="Uring" unicode="&#x16e;" horiz-adv-x="1593" 
d="M802 -28q-94 -2 -182.5 8.5t-166.5 37.5t-142 72t-110 111.5t-71.5 156.5t-25.5 208v831h501v-789q0 -51 5.5 -94t25.5 -74.5t59 -49t106 -17.5q55 0 91 15.5t57 45.5t29.5 73.5t8.5 99.5v790h501v-831q0 -115 -25.5 -204t-71.5 -154.5t-109.5 -110t-140 -72t-162.5 -40
t-177 -13.5zM816 1802q-39 0 -57 -15.5t-18 -41.5q0 -29 18.5 -45t60.5 -16q74 0 74 58q0 29 -18 44.5t-60 15.5zM815 1944q139 0 203.5 -54.5t64.5 -147.5q0 -97 -63.5 -148.5t-196.5 -51.5q-70 0 -120.5 14.5t-83.5 41t-49 64.5t-16 85q0 92 63.5 144.5t197.5 52.5z" />
    <glyph glyph-name="Utilde" unicode="&#x168;" horiz-adv-x="1593" 
d="M802 -28q-94 -2 -182.5 8.5t-166.5 37.5t-142 72t-110 111.5t-71.5 156.5t-25.5 208v831h501v-789q0 -51 5.5 -94t25.5 -74.5t59 -49t106 -17.5q55 0 91 15.5t57 45.5t29.5 73.5t8.5 99.5v790h501v-831q0 -115 -25.5 -204t-71.5 -154.5t-109.5 -110t-140 -72t-162.5 -40
t-177 -13.5zM308 1665q21 58 55.5 106.5t79.5 83t98.5 53.5t111.5 19t103.5 -12.5t85.5 -28t76 -28t74 -12.5q24 0 40 3t27.5 10.5t21.5 20.5t23 33l228 -133q-24 -71 -65 -120.5t-88 -81t-95 -45.5t-85 -14q-56 0 -101.5 12.5t-85.5 28t-78 28t-78 12.5q-27 0 -44.5 -4.5
t-30 -13.5t-22.5 -21.5t-22 -28.5z" />
    <glyph glyph-name="Wacute" unicode="&#x1e82;" horiz-adv-x="2158" 
d="M1296 1397q3 -31 13 -92.5t24.5 -138.5t32 -162.5t35.5 -165.5t35 -147t31 -106h21q11 39 22 104t21 142.5t18 162t13.5 162.5t8.5 144t2 107l525 -10q-7 -108 -24.5 -231.5t-41.5 -252.5t-53.5 -258t-61.5 -248t-64 -223.5t-61 -183.5h-587q-15 37 -32.5 93t-35 117.5
t-32.5 123t-24 111.5h-4q-6 -49 -19 -107t-30 -117t-37 -116.5t-39 -104.5h-587q-25 66 -55 163t-61.5 213.5t-62 247t-56 263.5t-44.5 263.5t-26 246.5l526 10q-1 -40 2 -105.5t9 -144t14 -163.5t17.5 -163t19.5 -143t21 -103h21q11 27 23.5 71t25.5 99t26.5 118
t26.5 126.5t24.5 125t20.5 114.5t15.5 94t8.5 64h435zM1002 1622l207 404l349 -179l-329 -351z" />
    <glyph glyph-name="Wcircumflex" unicode="&#x174;" horiz-adv-x="2158" 
d="M1296 1397q3 -31 13 -92.5t24.5 -138.5t32 -162.5t35.5 -165.5t35 -147t31 -106h21q11 39 22 104t21 142.5t18 162t13.5 162.5t8.5 144t2 107l525 -10q-7 -108 -24.5 -231.5t-41.5 -252.5t-53.5 -258t-61.5 -248t-64 -223.5t-61 -183.5h-587q-15 37 -32.5 93t-35 117.5
t-32.5 123t-24 111.5h-4q-6 -49 -19 -107t-30 -117t-37 -116.5t-39 -104.5h-587q-25 66 -55 163t-61.5 213.5t-62 247t-56 263.5t-44.5 263.5t-26 246.5l526 10q-1 -40 2 -105.5t9 -144t14 -163.5t17.5 -163t19.5 -143t21 -103h21q11 27 23.5 71t25.5 99t26.5 118
t26.5 126.5t24.5 125t20.5 114.5t15.5 94t8.5 64h435zM905 1513l-309 75l242 278l445 -1l235 -277l-310 -75l-152 144z" />
    <glyph glyph-name="Wdieresis" unicode="&#x1e84;" horiz-adv-x="2158" 
d="M1296 1397q3 -31 13 -92.5t24.5 -138.5t32 -162.5t35.5 -165.5t35 -147t31 -106h21q11 39 22 104t21 142.5t18 162t13.5 162.5t8.5 144t2 107l525 -10q-7 -108 -24.5 -231.5t-41.5 -252.5t-53.5 -258t-61.5 -248t-64 -223.5t-61 -183.5h-587q-15 37 -32.5 93t-35 117.5
t-32.5 123t-24 111.5h-4q-6 -49 -19 -107t-30 -117t-37 -116.5t-39 -104.5h-587q-25 66 -55 163t-61.5 213.5t-62 247t-56 263.5t-44.5 263.5t-26 246.5l526 10q-1 -40 2 -105.5t9 -144t14 -163.5t17.5 -163t19.5 -143t21 -103h21q11 27 23.5 71t25.5 99t26.5 118
t26.5 126.5t24.5 125t20.5 114.5t15.5 94t8.5 64h435zM827 1860q116 0 169 -44.5t53 -122.5q0 -80 -52.5 -122.5t-162.5 -42.5q-117 0 -170 45.5t-53 123.5q0 77 52 120t164 43zM1347 1860q116 0 169 -44.5t53 -122.5q0 -80 -53 -122.5t-162 -42.5q-117 0 -170 45.5
t-53 123.5q0 77 52 120t164 43z" />
    <glyph glyph-name="Wgrave" unicode="&#x1e80;" horiz-adv-x="2158" 
d="M1296 1397q3 -31 13 -92.5t24.5 -138.5t32 -162.5t35.5 -165.5t35 -147t31 -106h21q11 39 22 104t21 142.5t18 162t13.5 162.5t8.5 144t2 107l525 -10q-7 -108 -24.5 -231.5t-41.5 -252.5t-53.5 -258t-61.5 -248t-64 -223.5t-61 -183.5h-587q-15 37 -32.5 93t-35 117.5
t-32.5 123t-24 111.5h-4q-6 -49 -19 -107t-30 -117t-37 -116.5t-39 -104.5h-587q-25 66 -55 163t-61.5 213.5t-62 247t-56 263.5t-44.5 263.5t-26 246.5l526 10q-1 -40 2 -105.5t9 -144t14 -163.5t17.5 -163t19.5 -143t21 -103h21q11 27 23.5 71t25.5 99t26.5 118
t26.5 126.5t24.5 125t20.5 114.5t15.5 94t8.5 64h435zM1030 1496l-330 351l350 179l206 -404z" />
    <glyph glyph-name="Yacute" unicode="&#xdd;" horiz-adv-x="1466" 
d="M199 927q-32 57 -66.5 123.5t-65.5 131t-56 121t-40 94.5l557 10q20 -61 41 -122t50 -130q28 -69 53.5 -130t47.5 -99h25q21 43 46 100.5t51 124.5q16 41 29 75t23.5 65t20 59t17.5 57l560 -10q-45 -110 -104.5 -230t-127.5 -247q-32 -59 -63 -110.5t-65 -102.5
t-71 -103.5t-79 -112.5v-491h-502v491q-27 39 -61 87t-71 104t-75 117.5t-74 127.5zM631 1635l207 404l349 -179l-329 -351z" />
    <glyph glyph-name="Ycircumflex" unicode="&#x176;" horiz-adv-x="1466" 
d="M199 927q-32 57 -66.5 123.5t-65.5 131t-56 121t-40 94.5l557 10q20 -61 41 -122t50 -130q28 -69 53.5 -130t47.5 -99h25q21 43 46 100.5t51 124.5q16 41 29 75t23.5 65t20 59t17.5 57l560 -10q-45 -110 -104.5 -230t-127.5 -247q-32 -59 -63 -110.5t-65 -102.5
t-71 -103.5t-79 -112.5v-491h-502v491q-27 39 -61 87t-71 104t-75 117.5t-74 127.5zM618 1521l-309 75l242 278l445 -1l235 -277l-310 -75l-152 144z" />
    <glyph glyph-name="Ydieresis" unicode="&#x178;" horiz-adv-x="1466" 
d="M199 927q-32 57 -66.5 123.5t-65.5 131t-56 121t-40 94.5l557 10q20 -61 41 -122t50 -130q28 -69 53.5 -130t47.5 -99h25q21 43 46 100.5t51 124.5q16 41 29 75t23.5 65t20 59t17.5 57l560 -10q-45 -110 -104.5 -230t-127.5 -247q-32 -59 -63 -110.5t-65 -102.5
t-71 -103.5t-79 -112.5v-491h-502v491q-27 39 -61 87t-71 104t-75 117.5t-74 127.5zM482 1901q116 0 169 -44.5t53 -122.5q0 -80 -52.5 -122.5t-162.5 -42.5q-117 0 -170 45.5t-53 123.5q0 77 52 120t164 43zM1002 1901q116 0 169 -44.5t53 -122.5q0 -80 -53 -122.5
t-162 -42.5q-117 0 -170 45.5t-53 123.5q0 77 52 120t164 43z" />
    <glyph glyph-name="Ygrave" unicode="&#x1ef2;" horiz-adv-x="1466" 
d="M199 927q-32 57 -66.5 123.5t-65.5 131t-56 121t-40 94.5l557 10q20 -61 41 -122t50 -130q28 -69 53.5 -130t47.5 -99h25q21 43 46 100.5t51 124.5q16 41 29 75t23.5 65t20 59t17.5 57l560 -10q-45 -110 -104.5 -230t-127.5 -247q-32 -59 -63 -110.5t-65 -102.5
t-71 -103.5t-79 -112.5v-491h-502v491q-27 39 -61 87t-71 104t-75 117.5t-74 127.5zM714 1513l-330 351l350 179l206 -404z" />
    <glyph glyph-name="Zacute" unicode="&#x179;" horiz-adv-x="1362" 
d="M78 0v336q52 78 126.5 160.5t155.5 165t160 162.5t139 154v18h-557v401h1172v-373q-26 -40 -69 -90.5t-94 -106t-105.5 -112.5t-104.5 -110.5t-90.5 -101.5t-63.5 -84v-18h518v-401h-1187zM582 1602l207 404l349 -179l-329 -351z" />
    <glyph glyph-name="Zcaron" unicode="&#x17d;" horiz-adv-x="1362" 
d="M78 0v336q52 78 126.5 160.5t155.5 165t160 162.5t139 154v18h-557v401h1172v-373q-26 -40 -69 -90.5t-94 -106t-105.5 -112.5t-104.5 -110.5t-90.5 -101.5t-63.5 -84v-18h518v-401h-1187zM713 1746l77 120l389 -92l-242 -236h-445l-243 241l394 86z" />
    <glyph glyph-name="Zdotaccent" unicode="&#x17b;" horiz-adv-x="1362" 
d="M78 0v336q52 78 126.5 160.5t155.5 165t160 162.5t139 154v18h-557v401h1172v-373q-26 -40 -69 -90.5t-94 -106t-105.5 -112.5t-104.5 -110.5t-90.5 -101.5t-63.5 -84v-18h518v-401h-1187zM742 1848q116 0 169 -44.5t53 -122.5q0 -80 -52.5 -122.5t-162.5 -42.5
q-117 0 -170 45.5t-53 123.5q0 77 52 120t164 43z" />
    <glyph glyph-name="abreve" unicode="&#x103;" horiz-adv-x="1271" 
d="M25 477q0 160 41 273.5t123 186t203.5 106.5t283.5 34q65 0 135 -10t137 -27t126.5 -39.5t104.5 -47.5v-953h-425l-48 117q-12 -15 -38 -39.5t-63 -48t-83.5 -40.5t-99.5 -17q-99 0 -173.5 38.5t-124 106t-74.5 160t-25 200.5zM494 509q0 -48 10.5 -79t28 -49t38.5 -25.5
t42 -7.5q23 0 44.5 9t41.5 20v314q-13 4 -32.5 7t-59.5 3q-28 0 -49 -9t-35.5 -31t-21.5 -59t-7 -93zM688 1192q-86 0 -147 16.5t-102 43t-65.5 60t-38.5 66.5t-20 62.5t-10 48.5l266 47q6 -23 13 -42.5t19 -33t32 -21t54 -7.5q33 0 52.5 7.5t30.5 21t17.5 32.5t13.5 42
l267 -46q-4 -19 -10 -48.5t-20 -62.5t-38.5 -66.5t-65.5 -60t-101.5 -43t-146.5 -16.5z" />
    <glyph glyph-name="acircumflex" unicode="&#xe2;" horiz-adv-x="1271" 
d="M25 477q0 160 41 273.5t123 186t203.5 106.5t283.5 34q65 0 135 -10t137 -27t126.5 -39.5t104.5 -47.5v-953h-425l-48 117q-12 -15 -38 -39.5t-63 -48t-83.5 -40.5t-99.5 -17q-99 0 -173.5 38.5t-124 106t-74.5 160t-25 200.5zM494 509q0 -48 10.5 -79t28 -49t38.5 -25.5
t42 -7.5q23 0 44.5 9t41.5 20v314q-13 4 -32.5 7t-59.5 3q-28 0 -49 -9t-35.5 -31t-21.5 -59t-7 -93zM491 1189l-309 75l242 278l445 -1l235 -277l-310 -75l-152 144z" />
    <glyph glyph-name="adieresis" unicode="&#xe4;" horiz-adv-x="1271" 
d="M25 477q0 160 41 273.5t123 186t203.5 106.5t283.5 34q65 0 135 -10t137 -27t126.5 -39.5t104.5 -47.5v-953h-425l-48 117q-12 -15 -38 -39.5t-63 -48t-83.5 -40.5t-99.5 -17q-99 0 -173.5 38.5t-124 106t-74.5 160t-25 200.5zM494 509q0 -48 10.5 -79t28 -49t38.5 -25.5
t42 -7.5q23 0 44.5 9t41.5 20v314q-13 4 -32.5 7t-59.5 3q-28 0 -49 -9t-35.5 -31t-21.5 -59t-7 -93zM372 1514q116 0 169 -44.5t53 -122.5q0 -80 -52.5 -122.5t-162.5 -42.5q-117 0 -170 45.5t-53 123.5q0 77 52 120t164 43zM892 1514q116 0 169 -44.5t53 -122.5
q0 -80 -53 -122.5t-162 -42.5q-117 0 -170 45.5t-53 123.5q0 77 52 120t164 43z" />
    <glyph glyph-name="agrave" unicode="&#xe0;" horiz-adv-x="1271" 
d="M25 477q0 160 41 273.5t123 186t203.5 106.5t283.5 34q65 0 135 -10t137 -27t126.5 -39.5t104.5 -47.5v-953h-425l-48 117q-12 -15 -38 -39.5t-63 -48t-83.5 -40.5t-99.5 -17q-99 0 -173.5 38.5t-124 106t-74.5 160t-25 200.5zM494 509q0 -48 10.5 -79t28 -49t38.5 -25.5
t42 -7.5q23 0 44.5 9t41.5 20v314q-13 4 -32.5 7t-59.5 3q-28 0 -49 -9t-35.5 -31t-21.5 -59t-7 -93zM552 1155l-330 351l350 179l206 -404z" />
    <glyph glyph-name="amacron" unicode="&#x101;" horiz-adv-x="1271" 
d="M25 477q0 160 41 273.5t123 186t203.5 106.5t283.5 34q65 0 135 -10t137 -27t126.5 -39.5t104.5 -47.5v-953h-425l-48 117q-12 -15 -38 -39.5t-63 -48t-83.5 -40.5t-99.5 -17q-99 0 -173.5 38.5t-124 106t-74.5 160t-25 200.5zM494 509q0 -48 10.5 -79t28 -49t38.5 -25.5
t42 -7.5q23 0 44.5 9t41.5 20v314q-13 4 -32.5 7t-59.5 3q-28 0 -49 -9t-35.5 -31t-21.5 -59t-7 -93zM1063 1186h-774v287h774v-287z" />
    <glyph glyph-name="aogonek" unicode="&#x105;" horiz-adv-x="1271" 
d="M25 477q0 160 41 273.5t123 186t203.5 106.5t283.5 34q65 0 135 -10t137 -27t126.5 -39.5t104.5 -47.5v-953h-425l-48 117q-12 -15 -38 -39.5t-63 -48t-83.5 -40.5t-99.5 -17q-99 0 -173.5 38.5t-124 106t-74.5 160t-25 200.5zM494 509q0 -48 10.5 -79t28 -49t38.5 -25.5
t42 -7.5q23 0 44.5 9t41.5 20v314q-13 4 -32.5 7t-59.5 3q-28 0 -49 -9t-35.5 -31t-21.5 -59t-7 -93zM1314 -434q-45 -17 -102.5 -24t-117.5 -7q-154 0 -236.5 58.5t-82.5 158.5q0 85 40.5 146.5t106.5 102.5h261q-27 -25 -47.5 -46.5t-34.5 -42.5t-21.5 -43t-7.5 -49
q0 -29 10.5 -46.5t27 -27t36 -12.5t36.5 -3q20 0 43.5 1.5t38.5 6.5z" />
    <glyph glyph-name="aring" unicode="&#xe5;" horiz-adv-x="1271" 
d="M25 477q0 160 41 273.5t123 186t203.5 106.5t283.5 34q65 0 135 -10t137 -27t126.5 -39.5t104.5 -47.5v-953h-425l-48 117q-12 -15 -38 -39.5t-63 -48t-83.5 -40.5t-99.5 -17q-99 0 -173.5 38.5t-124 106t-74.5 160t-25 200.5zM494 509q0 -48 10.5 -79t28 -49t38.5 -25.5
t42 -7.5q23 0 44.5 9t41.5 20v314q-13 4 -32.5 7t-59.5 3q-28 0 -49 -9t-35.5 -31t-21.5 -59t-7 -93zM669 1448q-39 0 -57 -15.5t-18 -41.5q0 -29 18.5 -45t60.5 -16q74 0 74 58q0 29 -18 44.5t-60 15.5zM668 1590q139 0 203.5 -54.5t64.5 -147.5q0 -97 -63.5 -148.5
t-196.5 -51.5q-70 0 -120.5 14.5t-83.5 41t-49 64.5t-16 85q0 92 63.5 144.5t197.5 52.5z" />
    <glyph glyph-name="atilde" unicode="&#xe3;" horiz-adv-x="1271" 
d="M25 477q0 160 41 273.5t123 186t203.5 106.5t283.5 34q65 0 135 -10t137 -27t126.5 -39.5t104.5 -47.5v-953h-425l-48 117q-12 -15 -38 -39.5t-63 -48t-83.5 -40.5t-99.5 -17q-99 0 -173.5 38.5t-124 106t-74.5 160t-25 200.5zM494 509q0 -48 10.5 -79t28 -49t38.5 -25.5
t42 -7.5q23 0 44.5 9t41.5 20v314q-13 4 -32.5 7t-59.5 3q-28 0 -49 -9t-35.5 -31t-21.5 -59t-7 -93zM123 1334q21 58 55.5 106.5t79.5 83t98.5 53.5t111.5 19t103.5 -12.5t85.5 -28t76 -28t74 -12.5q24 0 40 3t27.5 10.5t21.5 20.5t23 33l228 -133q-24 -71 -65 -120.5
t-88 -81t-95 -45.5t-85 -14q-56 0 -101.5 12.5t-85.5 28t-78 28t-78 12.5q-27 0 -44.5 -4.5t-30 -13.5t-22.5 -21.5t-22 -28.5z" />
    <glyph glyph-name="cacute" unicode="&#x107;" horiz-adv-x="1126" 
d="M508 1262l207 404l349 -179l-329 -351zM70 526q0 118 35 219t105 174.5t174 115.5t241 42q111 0 218.5 -25.5t207.5 -82.5l-117 -305q-22 7 -40.5 13.5t-39 12t-46 8.5t-60.5 3q-108 0 -158.5 -44t-50.5 -141q0 -55 20.5 -88.5t50.5 -51.5t64 -23.5t61 -5.5
q60 0 107 10.5t91 26.5l119 -304q-40 -20 -83 -39.5t-95.5 -34.5t-117.5 -24.5t-148 -9.5q-102 0 -181.5 23.5t-139.5 64.5t-101.5 95.5t-67 116t-37 127t-11.5 127.5z" />
    <glyph glyph-name="ccaron" unicode="&#x10d;" horiz-adv-x="1126" 
d="M646 1396l77 120l389 -92l-242 -236h-445l-243 241l394 86zM73 526q0 118 35 219t105 174.5t174 115.5t241 42q111 0 218.5 -25.5t207.5 -82.5l-117 -305q-22 7 -40.5 13.5t-39 12t-46 8.5t-60.5 3q-108 0 -158.5 -44t-50.5 -141q0 -55 20.5 -88.5t50.5 -51.5t64 -23.5
t61 -5.5q60 0 107 10.5t91 26.5l119 -304q-40 -20 -83 -39.5t-95.5 -34.5t-117.5 -24.5t-148 -9.5q-102 0 -181.5 23.5t-139.5 64.5t-101.5 95.5t-67 116t-37 127t-11.5 127.5z" />
    <glyph glyph-name="ccedilla" unicode="&#xe7;" horiz-adv-x="1126" 
d="M394 -262q15 -5 38.5 -6.5t43.5 -1.5q17 0 36.5 2.5t36 9.5t27 18.5t10.5 29.5q0 19 -8 30t-22.5 17t-34 8t-42.5 2q-12 0 -31 -1.5t-36 -6.5l73 161h283l-39 -72q30 -6 56.5 -21.5t46 -38.5t30.5 -52.5t11 -64.5q0 -100 -77.5 -158.5t-231.5 -58.5q-60 0 -117.5 7
t-102.5 24zM70 526q0 118 35 219t105 174.5t174 115.5t241 42q111 0 218.5 -25.5t207.5 -82.5l-117 -305q-22 7 -40.5 13.5t-39 12t-46 8.5t-60.5 3q-108 0 -158.5 -44t-50.5 -141q0 -55 20.5 -88.5t50.5 -51.5t64 -23.5t61 -5.5q60 0 107 10.5t91 26.5l119 -304
q-40 -20 -83 -39.5t-95.5 -34.5t-117.5 -24.5t-148 -9.5q-102 0 -181.5 23.5t-139.5 64.5t-101.5 95.5t-67 116t-37 127t-11.5 127.5z" />
    <glyph glyph-name="ccircumflex" unicode="&#x109;" horiz-adv-x="1126" 
d="M70 526q0 118 35 219t105 174.5t174 115.5t241 42q111 0 218.5 -25.5t207.5 -82.5l-117 -305q-22 7 -40.5 13.5t-39 12t-46 8.5t-60.5 3q-108 0 -158.5 -44t-50.5 -141q0 -55 20.5 -88.5t50.5 -51.5t64 -23.5t61 -5.5q60 0 107 10.5t91 26.5l119 -304q-40 -20 -83 -39.5
t-95.5 -34.5t-117.5 -24.5t-148 -9.5q-102 0 -181.5 23.5t-139.5 64.5t-101.5 95.5t-67 116t-37 127t-11.5 127.5zM449 1125l-309 75l242 278l445 -1l235 -277l-310 -75l-152 144z" />
    <glyph glyph-name="cdotaccent" unicode="&#x10b;" horiz-adv-x="1126" 
d="M651 1485q116 0 169 -44.5t53 -122.5q0 -80 -52.5 -122.5t-162.5 -42.5q-117 0 -170 45.5t-53 123.5q0 77 52 120t164 43zM70 526q0 118 35 219t105 174.5t174 115.5t241 42q111 0 218.5 -25.5t207.5 -82.5l-117 -305q-22 7 -40.5 13.5t-39 12t-46 8.5t-60.5 3
q-108 0 -158.5 -44t-50.5 -141q0 -55 20.5 -88.5t50.5 -51.5t64 -23.5t61 -5.5q60 0 107 10.5t91 26.5l119 -304q-40 -20 -83 -39.5t-95.5 -34.5t-117.5 -24.5t-148 -9.5q-102 0 -181.5 23.5t-139.5 64.5t-101.5 95.5t-67 116t-37 127t-11.5 127.5z" />
    <glyph glyph-name="dcaron" unicode="&#x10f;" horiz-adv-x="1761" 
d="M799 0l-48 117q-9 -14 -33.5 -38.5t-63 -48t-89.5 -41t-113 -17.5q-96 0 -167.5 39.5t-119.5 108.5t-71.5 162.5t-23.5 202.5q0 105 23 190t62 150.5t91 113t110.5 78.5t120 45.5t120.5 14.5q33 0 54 -1.5t36 -4t27.5 -6.5t28.5 -10v409h480v-1464h-424zM539 513
q0 -49 11.5 -81t29 -50.5t38.5 -26t40 -7.5q26 0 45 6.5t40 17.5v314q-7 4 -28.5 9.5t-48.5 5.5q-44 0 -69 -15.5t-38 -41.5t-16.5 -60t-3.5 -71zM1500 1513q146 0 214.5 -57t68.5 -156q3 -87 -19 -177t-60.5 -173t-89 -153t-104.5 -118l-196 90q19 36 37.5 79.5t34 87
t28 84.5t19.5 73q-59 7 -99 24.5t-64.5 45t-35.5 63.5t-11 80q0 97 67 152t210 55z" />
    <glyph glyph-name="dcroat" unicode="&#x111;" horiz-adv-x="1319" 
d="M1256 1143h-774v257h774v-257zM799 0l-48 117q-9 -14 -33.5 -38.5t-63 -48t-89.5 -41t-113 -17.5q-96 0 -167.5 39.5t-119.5 108.5t-71.5 162.5t-23.5 202.5q0 105 23 190t62 150.5t91 113t110.5 78.5t120 45.5t120.5 14.5q33 0 54 -1.5t36 -4t27.5 -6.5t28.5 -10v409
h480v-1464h-424zM539 513q0 -49 11.5 -81t29 -50.5t38.5 -26t40 -7.5q26 0 45 6.5t40 17.5v314q-7 4 -28.5 9.5t-48.5 5.5q-44 0 -69 -15.5t-38 -41.5t-16.5 -60t-3.5 -71z" />
    <glyph glyph-name="eacute" unicode="&#xe9;" horiz-adv-x="1243" 
d="M533 421q8 -21 23 -38t38.5 -30t58 -20t81.5 -7q49 0 89 4.5t76 12.5t70.5 20t72.5 27l112 -290q-45 -29 -104 -52.5t-125 -40.5t-134.5 -26t-131.5 -9q-146 0 -256.5 37t-184.5 106.5t-111 169.5t-37 226q0 152 45 259.5t125 175.5t190.5 99.5t242.5 31.5
q127 0 223.5 -33.5t161 -87.5t97.5 -121t33 -134q0 -56 -16.5 -107t-58.5 -89.5t-115 -61t-186 -22.5h-279zM662 753q-70 0 -103 -36t-40 -90h173q35 0 51.5 18t16.5 43q0 12 -4.5 24t-15.5 21t-30 14.5t-48 5.5zM563 1264l207 404l349 -179l-329 -351z" />
    <glyph glyph-name="ebreve" unicode="&#x115;" horiz-adv-x="1243" 
d="M533 421q8 -21 23 -38t38.5 -30t58 -20t81.5 -7q49 0 89 4.5t76 12.5t70.5 20t72.5 27l112 -290q-45 -29 -104 -52.5t-125 -40.5t-134.5 -26t-131.5 -9q-146 0 -256.5 37t-184.5 106.5t-111 169.5t-37 226q0 152 45 259.5t125 175.5t190.5 99.5t242.5 31.5
q127 0 223.5 -33.5t161 -87.5t97.5 -121t33 -134q0 -56 -16.5 -107t-58.5 -89.5t-115 -61t-186 -22.5h-279zM662 753q-70 0 -103 -36t-40 -90h173q35 0 51.5 18t16.5 43q0 12 -4.5 24t-15.5 21t-30 14.5t-48 5.5zM696 1162q-86 0 -147 16.5t-102 43t-65.5 60t-38.5 66.5
t-20 62.5t-10 48.5l266 47q6 -23 13 -42.5t19 -33t32 -21t54 -7.5q33 0 52.5 7.5t30.5 21t17.5 32.5t13.5 42l267 -46q-4 -19 -10 -48.5t-20 -62.5t-38.5 -66.5t-65.5 -60t-101.5 -43t-146.5 -16.5z" />
    <glyph glyph-name="ecaron" unicode="&#x11b;" horiz-adv-x="1243" 
d="M533 421q8 -21 23 -38t38.5 -30t58 -20t81.5 -7q49 0 89 4.5t76 12.5t70.5 20t72.5 27l112 -290q-45 -29 -104 -52.5t-125 -40.5t-134.5 -26t-131.5 -9q-146 0 -256.5 37t-184.5 106.5t-111 169.5t-37 226q0 152 45 259.5t125 175.5t190.5 99.5t242.5 31.5
q127 0 223.5 -33.5t161 -87.5t97.5 -121t33 -134q0 -56 -16.5 -107t-58.5 -89.5t-115 -61t-186 -22.5h-279zM662 753q-70 0 -103 -36t-40 -90h173q35 0 51.5 18t16.5 43q0 12 -4.5 24t-15.5 21t-30 14.5t-48 5.5zM677 1396l77 120l389 -92l-242 -236h-445l-243 241l394 86z
" />
    <glyph glyph-name="ecircumflex" unicode="&#xea;" horiz-adv-x="1243" 
d="M533 421q8 -21 23 -38t38.5 -30t58 -20t81.5 -7q49 0 89 4.5t76 12.5t70.5 20t72.5 27l112 -290q-45 -29 -104 -52.5t-125 -40.5t-134.5 -26t-131.5 -9q-146 0 -256.5 37t-184.5 106.5t-111 169.5t-37 226q0 152 45 259.5t125 175.5t190.5 99.5t242.5 31.5
q127 0 223.5 -33.5t161 -87.5t97.5 -121t33 -134q0 -56 -16.5 -107t-58.5 -89.5t-115 -61t-186 -22.5h-279zM662 753q-70 0 -103 -36t-40 -90h173q35 0 51.5 18t16.5 43q0 12 -4.5 24t-15.5 21t-30 14.5t-48 5.5zM494 1163l-309 75l242 278l445 -1l235 -277l-310 -75
l-152 144z" />
    <glyph glyph-name="edieresis" unicode="&#xeb;" horiz-adv-x="1243" 
d="M533 421q8 -21 23 -38t38.5 -30t58 -20t81.5 -7q49 0 89 4.5t76 12.5t70.5 20t72.5 27l112 -290q-45 -29 -104 -52.5t-125 -40.5t-134.5 -26t-131.5 -9q-146 0 -256.5 37t-184.5 106.5t-111 169.5t-37 226q0 152 45 259.5t125 175.5t190.5 99.5t242.5 31.5
q127 0 223.5 -33.5t161 -87.5t97.5 -121t33 -134q0 -56 -16.5 -107t-58.5 -89.5t-115 -61t-186 -22.5h-279zM662 753q-70 0 -103 -36t-40 -90h173q35 0 51.5 18t16.5 43q0 12 -4.5 24t-15.5 21t-30 14.5t-48 5.5zM413 1485q116 0 169 -44.5t53 -122.5q0 -80 -52.5 -122.5
t-162.5 -42.5q-117 0 -170 45.5t-53 123.5q0 77 52 120t164 43zM933 1485q116 0 169 -44.5t53 -122.5q0 -80 -53 -122.5t-162 -42.5q-117 0 -170 45.5t-53 123.5q0 77 52 120t164 43z" />
    <glyph glyph-name="edotaccent" unicode="&#x117;" horiz-adv-x="1243" 
d="M533 421q8 -21 23 -38t38.5 -30t58 -20t81.5 -7q49 0 89 4.5t76 12.5t70.5 20t72.5 27l112 -290q-45 -29 -104 -52.5t-125 -40.5t-134.5 -26t-131.5 -9q-146 0 -256.5 37t-184.5 106.5t-111 169.5t-37 226q0 152 45 259.5t125 175.5t190.5 99.5t242.5 31.5
q127 0 223.5 -33.5t161 -87.5t97.5 -121t33 -134q0 -56 -16.5 -107t-58.5 -89.5t-115 -61t-186 -22.5h-279zM662 753q-70 0 -103 -36t-40 -90h173q35 0 51.5 18t16.5 43q0 12 -4.5 24t-15.5 21t-30 14.5t-48 5.5zM663 1485q116 0 169 -44.5t53 -122.5q0 -80 -52.5 -122.5
t-162.5 -42.5q-117 0 -170 45.5t-53 123.5q0 77 52 120t164 43z" />
    <glyph glyph-name="egrave" unicode="&#xe8;" horiz-adv-x="1243" 
d="M533 421q8 -21 23 -38t38.5 -30t58 -20t81.5 -7q49 0 89 4.5t76 12.5t70.5 20t72.5 27l112 -290q-45 -29 -104 -52.5t-125 -40.5t-134.5 -26t-131.5 -9q-146 0 -256.5 37t-184.5 106.5t-111 169.5t-37 226q0 152 45 259.5t125 175.5t190.5 99.5t242.5 31.5
q127 0 223.5 -33.5t161 -87.5t97.5 -121t33 -134q0 -56 -16.5 -107t-58.5 -89.5t-115 -61t-186 -22.5h-279zM662 753q-70 0 -103 -36t-40 -90h173q35 0 51.5 18t16.5 43q0 12 -4.5 24t-15.5 21t-30 14.5t-48 5.5zM577 1143l-330 351l350 179l206 -404z" />
    <glyph glyph-name="emacron" unicode="&#x113;" horiz-adv-x="1243" 
d="M533 421q8 -21 23 -38t38.5 -30t58 -20t81.5 -7q49 0 89 4.5t76 12.5t70.5 20t72.5 27l112 -290q-45 -29 -104 -52.5t-125 -40.5t-134.5 -26t-131.5 -9q-146 0 -256.5 37t-184.5 106.5t-111 169.5t-37 226q0 152 45 259.5t125 175.5t190.5 99.5t242.5 31.5
q127 0 223.5 -33.5t161 -87.5t97.5 -121t33 -134q0 -56 -16.5 -107t-58.5 -89.5t-115 -61t-186 -22.5h-279zM662 753q-70 0 -103 -36t-40 -90h173q35 0 51.5 18t16.5 43q0 12 -4.5 24t-15.5 21t-30 14.5t-48 5.5zM1055 1169h-774v287h774v-287z" />
    <glyph glyph-name="eogonek" unicode="&#x119;" horiz-adv-x="1243" 
d="M533 421q8 -21 23 -38t38.5 -30t58 -20t81.5 -7q49 0 89 4.5t76 12.5t70.5 20t72.5 27l112 -290q-45 -29 -104 -52.5t-125 -40.5t-134.5 -26t-131.5 -9q-146 0 -256.5 37t-184.5 106.5t-111 169.5t-37 226q0 152 45 259.5t125 175.5t190.5 99.5t242.5 31.5
q127 0 223.5 -33.5t161 -87.5t97.5 -121t33 -134q0 -56 -16.5 -107t-58.5 -89.5t-115 -61t-186 -22.5h-279zM662 753q-70 0 -103 -36t-40 -90h173q35 0 51.5 18t16.5 43q0 12 -4.5 24t-15.5 21t-30 14.5t-48 5.5zM1115 -387q-45 -17 -102.5 -24t-117.5 -7
q-154 0 -236.5 58.5t-82.5 158.5q0 85 40.5 146.5t106.5 102.5h261q-27 -25 -47.5 -46.5t-34.5 -42.5t-21.5 -43t-7.5 -49q0 -29 10.5 -46.5t27 -27t36 -12.5t36.5 -3q20 0 43.5 1.5t38.5 6.5z" />
    <glyph glyph-name="gbreve" unicode="&#x11f;" horiz-adv-x="1317" 
d="M735 1157q-86 0 -147 16.5t-102 43t-65.5 60t-38.5 66.5t-20 62.5t-10 48.5l266 47q6 -23 13 -42.5t19 -33t32 -21t54 -7.5q33 0 52.5 7.5t30.5 21t17.5 32.5t13.5 42l267 -46q-4 -19 -10 -48.5t-20 -62.5t-38.5 -66.5t-65.5 -60t-101.5 -43t-146.5 -16.5zM70 477
q0 152 38.5 265t119 187.5t205 111t295.5 36.5q63 0 132 -10.5t136 -28t126 -39.5t101 -46v-919q0 -130 -43.5 -226t-124 -159.5t-194 -94.5t-254.5 -31q-103 0 -206 25.5t-209 73.5l111 297q40 -18 99 -30.5t122 -11.5q61 0 106 9.5t74.5 30.5t44 55.5t14.5 85.5v11
q-14 -13 -41.5 -29.5t-64 -31.5t-81.5 -25.5t-94 -10.5q-111 0 -189.5 40.5t-128 109.5t-72 160.5t-22.5 194.5zM539 509q0 -48 11 -79t28 -49t38.5 -25.5t42.5 -7.5q23 0 47.5 9t36.5 17v317q-10 3 -31.5 6.5t-51.5 3.5q-33 0 -56 -9t-37.5 -31t-21 -59t-6.5 -93z" />
    <glyph glyph-name="gcircumflex" unicode="&#x11d;" horiz-adv-x="1317" 
d="M548 1177l-309 75l242 278l445 -1l235 -277l-310 -75l-152 144zM70 477q0 152 38.5 265t119 187.5t205 111t295.5 36.5q63 0 132 -10.5t136 -28t126 -39.5t101 -46v-919q0 -130 -43.5 -226t-124 -159.5t-194 -94.5t-254.5 -31q-103 0 -206 25.5t-209 73.5l111 297
q40 -18 99 -30.5t122 -11.5q61 0 106 9.5t74.5 30.5t44 55.5t14.5 85.5v11q-14 -13 -41.5 -29.5t-64 -31.5t-81.5 -25.5t-94 -10.5q-111 0 -189.5 40.5t-128 109.5t-72 160.5t-22.5 194.5zM539 509q0 -48 11 -79t28 -49t38.5 -25.5t42.5 -7.5q23 0 47.5 9t36.5 17v317
q-10 3 -31.5 6.5t-51.5 3.5q-33 0 -56 -9t-37.5 -31t-21 -59t-6.5 -93z" />
    <glyph glyph-name="gcommaaccent" unicode="&#x123;" horiz-adv-x="1317" 
d="M702 1219q-146 0 -214.5 57t-68.5 156q-3 87 19 177t60.5 173t89 153t104.5 118l196 -90q-19 -36 -37.5 -79.5t-34.5 -87t-28.5 -84.5t-18.5 -73q58 -7 98 -24.5t65 -45t36 -64t11 -79.5q0 -97 -67 -152t-210 -55zM70 477q0 152 38.5 265t119 187.5t205 111t295.5 36.5
q63 0 132 -10.5t136 -28t126 -39.5t101 -46v-919q0 -130 -43.5 -226t-124 -159.5t-194 -94.5t-254.5 -31q-103 0 -206 25.5t-209 73.5l111 297q40 -18 99 -30.5t122 -11.5q61 0 106 9.5t74.5 30.5t44 55.5t14.5 85.5v11q-14 -13 -41.5 -29.5t-64 -31.5t-81.5 -25.5
t-94 -10.5q-111 0 -189.5 40.5t-128 109.5t-72 160.5t-22.5 194.5zM539 509q0 -48 11 -79t28 -49t38.5 -25.5t42.5 -7.5q23 0 47.5 9t36.5 17v317q-10 3 -31.5 6.5t-51.5 3.5q-33 0 -56 -9t-37.5 -31t-21 -59t-6.5 -93z" />
    <glyph glyph-name="gdotaccent" unicode="&#x121;" horiz-adv-x="1317" 
d="M713 1499q116 0 169 -44.5t53 -122.5q0 -80 -52.5 -122.5t-162.5 -42.5q-117 0 -170 45.5t-53 123.5q0 77 52 120t164 43zM70 477q0 152 38.5 265t119 187.5t205 111t295.5 36.5q63 0 132 -10.5t136 -28t126 -39.5t101 -46v-919q0 -130 -43.5 -226t-124 -159.5
t-194 -94.5t-254.5 -31q-103 0 -206 25.5t-209 73.5l111 297q40 -18 99 -30.5t122 -11.5q61 0 106 9.5t74.5 30.5t44 55.5t14.5 85.5v11q-14 -13 -41.5 -29.5t-64 -31.5t-81.5 -25.5t-94 -10.5q-111 0 -189.5 40.5t-128 109.5t-72 160.5t-22.5 194.5zM539 509q0 -48 11 -79
t28 -49t38.5 -25.5t42.5 -7.5q23 0 47.5 9t36.5 17v317q-10 3 -31.5 6.5t-51.5 3.5q-33 0 -56 -9t-37.5 -31t-21 -59t-6.5 -93z" />
    <glyph glyph-name="hbar" unicode="&#x127;" 
d="M94 1464h480v-454q12 5 31.5 16t48 22.5t67.5 20t90 8.5q73 0 148 -20t136.5 -67.5t100.5 -126t39 -195.5v-668h-480v580q0 19 -1.5 40t-9 38.5t-22 29t-40.5 11.5q-32 0 -60 -11t-48 -22v-666h-480v1464zM752 1124h-774v287h774v-287z" />
    <glyph glyph-name="hcircumflex" unicode="&#x125;" 
d="M94 1464h480v-454q12 5 31.5 16t48 22.5t67.5 20t90 8.5q73 0 148 -20t136.5 -67.5t100.5 -126t39 -195.5v-668h-480v580q0 19 -1.5 40t-9 38.5t-22 29t-40.5 11.5q-32 0 -60 -11t-48 -22v-666h-480v1464zM200 1506l-309 75l242 278l445 -1l235 -277l-310 -75l-152 144z
" />
    <glyph glyph-name="iacute" unicode="&#xed;" horiz-adv-x="670" 
d="M95 0v1038h480v-1038h-480zM217 1231l207 404l349 -179l-329 -351z" />
    <glyph glyph-name="ibreve" unicode="&#x12d;" horiz-adv-x="670" 
d="M95 0v1038h480v-1038h-480zM336 1162q-86 0 -147 16.5t-102 43t-65.5 60t-38.5 66.5t-20 62.5t-10 48.5l266 47q6 -23 13 -42.5t19 -33t32 -21t54 -7.5q33 0 52.5 7.5t30.5 21t17.5 32.5t13.5 42l267 -46q-4 -19 -10 -48.5t-20 -62.5t-38.5 -66.5t-65.5 -60t-101.5 -43
t-146.5 -16.5z" />
    <glyph glyph-name="icircumflex" unicode="&#xee;" horiz-adv-x="670" 
d="M95 0v1038h480v-1038h-480zM196 1142l-309 75l242 278l445 -1l235 -277l-310 -75l-152 144z" />
    <glyph glyph-name="idieresis" unicode="&#xef;" horiz-adv-x="670" 
d="M95 0v1038h480v-1038h-480zM89 1506q116 0 169 -44.5t53 -122.5q0 -80 -52.5 -122.5t-162.5 -42.5q-117 0 -170 45.5t-53 123.5q0 77 52 120t164 43zM609 1506q116 0 169 -44.5t53 -122.5q0 -80 -53 -122.5t-162 -42.5q-117 0 -170 45.5t-53 123.5q0 77 52 120t164 43z
" />
    <glyph glyph-name="igrave" unicode="&#xec;" horiz-adv-x="670" 
d="M95 0v1038h480v-1038h-480zM253 1138l-330 351l350 179l206 -404z" />
    <glyph glyph-name="imacron" unicode="&#x12b;" horiz-adv-x="670" 
d="M95 0v1038h480v-1038h-480zM730 1162h-774v287h774v-287z" />
    <glyph glyph-name="iogonek" unicode="&#x12f;" horiz-adv-x="670" 
d="M95 0v1038h480v-1038h-480zM333 1563q70 0 121.5 -14.5t85 -41t49.5 -64.5t16 -85q0 -99 -65 -151t-201 -52q-142 0 -207.5 56t-65.5 151t64.5 148t202.5 53zM580 -435q-45 -17 -102.5 -24t-117.5 -7q-154 0 -236.5 58.5t-82.5 158.5q0 85 40.5 146.5t106.5 102.5h261
q-27 -25 -47.5 -46.5t-34.5 -42.5t-21.5 -43t-7.5 -49q0 -29 10.5 -46.5t27 -27t36 -12.5t36.5 -3q20 0 43.5 1.5t38.5 6.5z" />
    <glyph glyph-name="itilde" unicode="&#x129;" horiz-adv-x="670" 
d="M95 0v1038h480v-1038h-480zM-229 1299q21 58 55.5 106.5t79.5 83t98.5 53.5t111.5 19t103.5 -12.5t85.5 -28t76 -28t74 -12.5q24 0 40 3t27.5 10.5t21.5 20.5t23 33l228 -133q-24 -71 -65 -120.5t-88 -81t-95 -45.5t-85 -14q-56 0 -101.5 12.5t-85.5 28t-78 28t-78 12.5
q-27 0 -44.5 -4.5t-30 -13.5t-22.5 -21.5t-22 -28.5z" />
    <glyph glyph-name="jcircumflex" unicode="&#x135;" horiz-adv-x="670" 
d="M-202 -80q62 -15 103.5 -24.5t82.5 -9.5q38 0 60 14.5t33 34.5t14 41.5t3 35.5v1026h480v-1029q0 -96 -28.5 -184.5t-89.5 -155.5t-157.5 -107t-232.5 -40q-91 0 -179 20t-163 48zM162 1163l-309 75l242 278l445 -1l235 -277l-310 -75l-152 144z" />
    <glyph glyph-name="kcommaaccent" unicode="&#x137;" horiz-adv-x="1360" 
d="M1284 1038q-26 -76 -61.5 -142.5t-77.5 -124.5t-89 -108t-96 -92q33 -61 85 -128t108.5 -130t110 -117.5t90.5 -90.5l-349 -221q-46 33 -102 83t-112 110t-107 126t-87 129q-6 -3 -12 -6.5t-11 -5.5v-320h-480v1464h480v-705q33 25 64.5 58t59.5 69.5t51 75.5t39 76h496
v0zM570 -29q146 0 214.5 -57t68.5 -156q3 -87 -19 -177t-60.5 -173t-89 -153t-104.5 -118l-196 90q19 36 37.5 79.5t34 87t28 84.5t19.5 73q-59 7 -99 24.5t-64.5 45t-35.5 63.5t-11 80q0 97 67 152t210 55z" />
    <glyph glyph-name="lacute" unicode="&#x13a;" horiz-adv-x="670" 
d="M94 0v1464h480v-1464h-480zM225 1667l207 404l349 -179l-329 -351z" />
    <glyph glyph-name="lcaron" unicode="&#x13e;" horiz-adv-x="1242" 
d="M94 0v1464h480v-1464h-480zM919 1514q146 0 214.5 -57t68.5 -156q3 -87 -19 -177t-60.5 -173t-89 -153t-104.5 -118l-196 90q19 36 37.5 79.5t34 87t28 84.5t19.5 73q-59 7 -99 24.5t-64.5 45t-35.5 63.5t-11 80q0 97 67 152t210 55z" />
    <glyph glyph-name="ldot" unicode="&#x140;" horiz-adv-x="1096" 
d="M893 899q116 0 169 -44.5t53 -122.5q0 -80 -52.5 -122.5t-162.5 -42.5q-117 0 -170 45.5t-53 123.5q0 77 52 120t164 43zM94 0v1464h480v-1464h-480z" />
    <glyph glyph-name="lslash" unicode="&#x142;" horiz-adv-x="670" 
d="M749 654l-722 -268l-109 268l721 267zM94 0v1464h480v-1464h-480z" />
    <glyph glyph-name="nacute" unicode="&#x144;" 
d="M94 892q50 33 121.5 66.5t156.5 59.5t180.5 42.5t194.5 16.5q137 0 230.5 -32.5t150.5 -88t82 -130t25 -158.5v-668h-480v618q0 27 -15.5 50t-49.5 23q-29 0 -61 -6t-55 -16v-669h-480v892zM530 1269l207 404l349 -179l-329 -351z" />
    <glyph glyph-name="ncaron" unicode="&#x148;" 
d="M97 892q50 33 121.5 66.5t156.5 59.5t180.5 42.5t194.5 16.5q137 0 230.5 -32.5t150.5 -88t82 -130t25 -158.5v-668h-480v618q0 27 -15.5 50t-49.5 23q-29 0 -61 -6t-55 -16v-669h-480v892zM660 1396l77 120l389 -92l-242 -236h-445l-243 241l394 86z" />
    <glyph glyph-name="ncommaaccent" unicode="&#x146;" 
d="M94 892q50 33 121.5 66.5t156.5 59.5t180.5 42.5t194.5 16.5q137 0 230.5 -32.5t150.5 -88t82 -130t25 -158.5v-668h-480v618q0 27 -15.5 50t-49.5 23q-29 0 -61 -6t-55 -16v-669h-480v892zM602 -61q146 0 214.5 -57t68.5 -156q3 -87 -19 -177t-60.5 -173t-89 -153
t-104.5 -118l-196 90q19 36 37.5 79.5t34 87t28 84.5t19.5 73q-59 7 -99 24.5t-64.5 45t-35.5 63.5t-11 80q0 97 67 152t210 55z" />
    <glyph glyph-name="ntilde" unicode="&#xf1;" 
d="M108 892q50 33 121.5 66.5t156.5 59.5t180.5 42.5t194.5 16.5q137 0 230.5 -32.5t150.5 -88t82 -130t25 -158.5v-668h-480v618q0 27 -15.5 50t-49.5 23q-29 0 -61 -6t-55 -16v-669h-480v892zM162 1324q21 58 55.5 106.5t79.5 83t98.5 53.5t111.5 19t103.5 -12.5t85.5 -28
t76 -28t74 -12.5q24 0 40 3t27.5 10.5t21.5 20.5t23 33l228 -133q-24 -71 -65 -120.5t-88 -81t-95 -45.5t-85 -14q-56 0 -101.5 12.5t-85.5 28t-78 28t-78 12.5q-27 0 -44.5 -4.5t-30 -13.5t-22.5 -21.5t-22 -28.5z" />
    <glyph glyph-name="oacute" unicode="&#xf3;" horiz-adv-x="1319" 
d="M70 519q0 126 40.5 229t116.5 176t184.5 113t245.5 40q144 0 254.5 -41.5t186 -116t114.5 -176t39 -221.5q0 -128 -41 -229.5t-117.5 -173t-186 -109.5t-245.5 -38q-138 0 -247.5 37.5t-186 108t-117 172t-40.5 229.5zM539 522q0 -51 9.5 -84.5t26 -53.5t39 -28t49.5 -8
q26 0 48 8t37.5 28t24.5 54t9 86t-9 86t-25 54t-38 28.5t-48 8.5t-48.5 -9t-39 -29.5t-26 -55t-9.5 -85.5zM535 1280l207 404l349 -179l-329 -351z" />
    <glyph glyph-name="obreve" unicode="&#x14f;" horiz-adv-x="1319" 
d="M70 519q0 126 40.5 229t116.5 176t184.5 113t245.5 40q144 0 254.5 -41.5t186 -116t114.5 -176t39 -221.5q0 -128 -41 -229.5t-117.5 -173t-186 -109.5t-245.5 -38q-138 0 -247.5 37.5t-186 108t-117 172t-40.5 229.5zM539 522q0 -51 9.5 -84.5t26 -53.5t39 -28t49.5 -8
q26 0 48 8t37.5 28t24.5 54t9 86t-9 86t-25 54t-38 28.5t-48 8.5t-48.5 -9t-39 -29.5t-26 -55t-9.5 -85.5zM667 1175q-86 0 -147 16.5t-102 43t-65.5 60t-38.5 66.5t-20 62.5t-10 48.5l266 47q6 -23 13 -42.5t19 -33t32 -21t54 -7.5q33 0 52.5 7.5t30.5 21t17.5 32.5
t13.5 42l267 -46q-4 -19 -10 -48.5t-20 -62.5t-38.5 -66.5t-65.5 -60t-101.5 -43t-146.5 -16.5z" />
    <glyph glyph-name="ocircumflex" unicode="&#xf4;" horiz-adv-x="1319" 
d="M70 519q0 126 40.5 229t116.5 176t184.5 113t245.5 40q144 0 254.5 -41.5t186 -116t114.5 -176t39 -221.5q0 -128 -41 -229.5t-117.5 -173t-186 -109.5t-245.5 -38q-138 0 -247.5 37.5t-186 108t-117 172t-40.5 229.5zM539 522q0 -51 9.5 -84.5t26 -53.5t39 -28t49.5 -8
q26 0 48 8t37.5 28t24.5 54t9 86t-9 86t-25 54t-38 28.5t-48 8.5t-48.5 -9t-39 -29.5t-26 -55t-9.5 -85.5zM508 1163l-309 75l242 278l445 -1l235 -277l-310 -75l-152 144z" />
    <glyph glyph-name="odieresis" unicode="&#xf6;" horiz-adv-x="1319" 
d="M70 519q0 126 40.5 229t116.5 176t184.5 113t245.5 40q144 0 254.5 -41.5t186 -116t114.5 -176t39 -221.5q0 -128 -41 -229.5t-117.5 -173t-186 -109.5t-245.5 -38q-138 0 -247.5 37.5t-186 108t-117 172t-40.5 229.5zM539 522q0 -51 9.5 -84.5t26 -53.5t39 -28t49.5 -8
q26 0 48 8t37.5 28t24.5 54t9 86t-9 86t-25 54t-38 28.5t-48 8.5t-48.5 -9t-39 -29.5t-26 -55t-9.5 -85.5zM385 1514q116 0 169 -44.5t53 -122.5q0 -80 -52.5 -122.5t-162.5 -42.5q-117 0 -170 45.5t-53 123.5q0 77 52 120t164 43zM905 1514q116 0 169 -44.5t53 -122.5
q0 -80 -53 -122.5t-162 -42.5q-117 0 -170 45.5t-53 123.5q0 77 52 120t164 43z" />
    <glyph glyph-name="ograve" unicode="&#xf2;" horiz-adv-x="1319" 
d="M70 519q0 126 40.5 229t116.5 176t184.5 113t245.5 40q144 0 254.5 -41.5t186 -116t114.5 -176t39 -221.5q0 -128 -41 -229.5t-117.5 -173t-186 -109.5t-245.5 -38q-138 0 -247.5 37.5t-186 108t-117 172t-40.5 229.5zM539 522q0 -51 9.5 -84.5t26 -53.5t39 -28t49.5 -8
q26 0 48 8t37.5 28t24.5 54t9 86t-9 86t-25 54t-38 28.5t-48 8.5t-48.5 -9t-39 -29.5t-26 -55t-9.5 -85.5zM565 1143l-330 351l350 179l206 -404z" />
    <glyph glyph-name="ohungarumlaut" unicode="&#x151;" horiz-adv-x="1319" 
d="M70 519q0 126 40.5 229t116.5 176t184.5 113t245.5 40q144 0 254.5 -41.5t186 -116t114.5 -176t39 -221.5q0 -128 -41 -229.5t-117.5 -173t-186 -109.5t-245.5 -38q-138 0 -247.5 37.5t-186 108t-117 172t-40.5 229.5zM539 522q0 -51 9.5 -84.5t26 -53.5t39 -28t49.5 -8
q26 0 48 8t37.5 28t24.5 54t9 86t-9 86t-25 54t-38 28.5t-48 8.5t-48.5 -9t-39 -29.5t-26 -55t-9.5 -85.5zM263 1281l207 404l349 -179l-329 -351zM777 1281l207 404l350 -179l-330 -351z" />
    <glyph glyph-name="omacron" unicode="&#x14d;" horiz-adv-x="1319" 
d="M70 519q0 126 40.5 229t116.5 176t184.5 113t245.5 40q144 0 254.5 -41.5t186 -116t114.5 -176t39 -221.5q0 -128 -41 -229.5t-117.5 -173t-186 -109.5t-245.5 -38q-138 0 -247.5 37.5t-186 108t-117 172t-40.5 229.5zM539 522q0 -51 9.5 -84.5t26 -53.5t39 -28t49.5 -8
q26 0 48 8t37.5 28t24.5 54t9 86t-9 86t-25 54t-38 28.5t-48 8.5t-48.5 -9t-39 -29.5t-26 -55t-9.5 -85.5zM1056 1199h-774v287h774v-287z" />
    <glyph glyph-name="otilde" unicode="&#xf5;" horiz-adv-x="1319" 
d="M70 519q0 126 40.5 229t116.5 176t184.5 113t245.5 40q144 0 254.5 -41.5t186 -116t114.5 -176t39 -221.5q0 -128 -41 -229.5t-117.5 -173t-186 -109.5t-245.5 -38q-138 0 -247.5 37.5t-186 108t-117 172t-40.5 229.5zM539 522q0 -51 9.5 -84.5t26 -53.5t39 -28t49.5 -8
q26 0 48 8t37.5 28t24.5 54t9 86t-9 86t-25 54t-38 28.5t-48 8.5t-48.5 -9t-39 -29.5t-26 -55t-9.5 -85.5zM145 1323q21 58 55.5 106.5t79.5 83t98.5 53.5t111.5 19t103.5 -12.5t85.5 -28t76 -28t74 -12.5q24 0 40 3t27.5 10.5t21.5 20.5t23 33l228 -133q-24 -71 -65 -120.5
t-88 -81t-95 -45.5t-85 -14q-56 0 -101.5 12.5t-85.5 28t-78 28t-78 12.5q-27 0 -44.5 -4.5t-30 -13.5t-22.5 -21.5t-22 -28.5z" />
    <glyph glyph-name="racute" unicode="&#x155;" horiz-adv-x="1020" 
d="M129 893q97 64 206 105.5t220.5 59.5t221 11t208.5 -41l-63 -351q-38 5 -78.5 7.5t-81 -2t-79.5 -17t-74 -36.5v-629h-480v893zM410 1268l207 404l349 -179l-329 -351z" />
    <glyph glyph-name="rcaron" unicode="&#x159;" horiz-adv-x="1020" 
d="M129 893q97 64 206 105.5t220.5 59.5t221 11t208.5 -41l-63 -351q-38 5 -78.5 7.5t-81 -2t-79.5 -17t-74 -36.5v-629h-480v893zM581 1392l77 120l389 -92l-242 -236h-445l-243 241l394 86z" />
    <glyph glyph-name="rcommaaccent" unicode="&#x157;" horiz-adv-x="1020" 
d="M129 893q97 64 206 105.5t220.5 59.5t221 11t208.5 -41l-63 -351q-38 5 -78.5 7.5t-81 -2t-79.5 -17t-74 -36.5v-629h-480v893zM305 -59q146 0 214.5 -57t68.5 -156q3 -87 -19 -177t-60.5 -173t-89 -153t-104.5 -118l-196 90q19 36 37.5 79.5t34 87t28 84.5t19.5 73
q-59 7 -99 24.5t-64.5 45t-35.5 63.5t-11 80q0 97 67 152t210 55z" />
    <glyph glyph-name="sacute" unicode="&#x15b;" horiz-adv-x="1092" 
d="M143 405q31 -15 70 -29.5t83 -26.5t91 -19.5t95 -7.5t65.5 5t17.5 16q0 12 -17.5 19.5t-47.5 13.5t-69.5 12t-82.5 17q-61 15 -112 37.5t-88 59.5t-58 91.5t-21 132.5q0 68 21 121t56.5 92t82.5 65.5t100 42.5t108.5 23t107.5 7q84 0 155 -9.5t129.5 -24.5t104.5 -34.5
t81 -39.5l-107 -305q-75 28 -144.5 44t-135.5 16q-37 0 -64 -3t-27 -21q0 -13 15 -19t40.5 -9.5t60 -8t73.5 -14.5q73 -19 130 -45.5t96 -65.5t59.5 -92t20.5 -125q0 -71 -20.5 -124t-55.5 -92t-82.5 -64.5t-101.5 -41t-111.5 -21.5t-113.5 -6q-103 0 -187.5 12.5t-149 31
t-109 39t-68.5 35.5zM492 1264l207 404l349 -179l-329 -351z" />
    <glyph glyph-name="scaron" unicode="&#x161;" horiz-adv-x="1092" 
d="M143 405q31 -15 70 -29.5t83 -26.5t91 -19.5t95 -7.5t65.5 5t17.5 16q0 12 -17.5 19.5t-47.5 13.5t-69.5 12t-82.5 17q-61 15 -112 37.5t-88 59.5t-58 91.5t-21 132.5q0 68 21 121t56.5 92t82.5 65.5t100 42.5t108.5 23t107.5 7q84 0 155 -9.5t129.5 -24.5t104.5 -34.5
t81 -39.5l-107 -305q-75 28 -144.5 44t-135.5 16q-37 0 -64 -3t-27 -21q0 -13 15 -19t40.5 -9.5t60 -8t73.5 -14.5q73 -19 130 -45.5t96 -65.5t59.5 -92t20.5 -125q0 -71 -20.5 -124t-55.5 -92t-82.5 -64.5t-101.5 -41t-111.5 -21.5t-113.5 -6q-103 0 -187.5 12.5t-149 31
t-109 39t-68.5 35.5zM543 1372l77 120l389 -92l-242 -236h-445l-243 241l394 86z" />
    <glyph glyph-name="scedilla" unicode="&#x15f;" horiz-adv-x="1092" 
d="M143 405q31 -15 70 -29.5t83 -26.5t91 -19.5t95 -7.5t65.5 5t17.5 16q0 12 -17.5 19.5t-47.5 13.5t-69.5 12t-82.5 17q-61 15 -112 37.5t-88 59.5t-58 91.5t-21 132.5q0 68 21 121t56.5 92t82.5 65.5t100 42.5t108.5 23t107.5 7q84 0 155 -9.5t129.5 -24.5t104.5 -34.5
t81 -39.5l-107 -305q-75 28 -144.5 44t-135.5 16q-37 0 -64 -3t-27 -21q0 -13 15 -19t40.5 -9.5t60 -8t73.5 -14.5q73 -19 130 -45.5t96 -65.5t59.5 -92t20.5 -125q0 -71 -20.5 -124t-55.5 -92t-82.5 -64.5t-101.5 -41t-111.5 -21.5t-113.5 -6q-103 0 -187.5 12.5t-149 31
t-109 39t-68.5 35.5zM318 -262q15 -5 38.5 -6.5t43.5 -1.5q17 0 36.5 2.5t36 9.5t27 18.5t10.5 29.5q0 19 -8 30t-22.5 17t-34 8t-42.5 2q-12 0 -31 -1.5t-36 -6.5l73 161h283l-39 -72q30 -6 56.5 -21.5t46 -38.5t30.5 -52.5t11 -64.5q0 -100 -77.5 -158.5t-231.5 -58.5
q-60 0 -117.5 7t-102.5 24z" />
    <glyph glyph-name="scircumflex" unicode="&#x15d;" horiz-adv-x="1092" 
d="M143 405q31 -15 70 -29.5t83 -26.5t91 -19.5t95 -7.5t65.5 5t17.5 16q0 12 -17.5 19.5t-47.5 13.5t-69.5 12t-82.5 17q-61 15 -112 37.5t-88 59.5t-58 91.5t-21 132.5q0 68 21 121t56.5 92t82.5 65.5t100 42.5t108.5 23t107.5 7q84 0 155 -9.5t129.5 -24.5t104.5 -34.5
t81 -39.5l-107 -305q-75 28 -144.5 44t-135.5 16q-37 0 -64 -3t-27 -21q0 -13 15 -19t40.5 -9.5t60 -8t73.5 -14.5q73 -19 130 -45.5t96 -65.5t59.5 -92t20.5 -125q0 -71 -20.5 -124t-55.5 -92t-82.5 -64.5t-101.5 -41t-111.5 -21.5t-113.5 -6q-103 0 -187.5 12.5t-149 31
t-109 39t-68.5 35.5zM399 1126l-309 75l242 278l445 -1l235 -277l-310 -75l-152 144z" />
    <glyph glyph-name="scommaaccent" unicode="&#x219;" horiz-adv-x="1092" 
d="M143 405q31 -15 70 -29.5t83 -26.5t91 -19.5t95 -7.5t65.5 5t17.5 16q0 12 -17.5 19.5t-47.5 13.5t-69.5 12t-82.5 17q-61 15 -112 37.5t-88 59.5t-58 91.5t-21 132.5q0 68 21 121t56.5 92t82.5 65.5t100 42.5t108.5 23t107.5 7q84 0 155 -9.5t129.5 -24.5t104.5 -34.5
t81 -39.5l-107 -305q-75 28 -144.5 44t-135.5 16q-37 0 -64 -3t-27 -21q0 -13 15 -19t40.5 -9.5t60 -8t73.5 -14.5q73 -19 130 -45.5t96 -65.5t59.5 -92t20.5 -125q0 -71 -20.5 -124t-55.5 -92t-82.5 -64.5t-101.5 -41t-111.5 -21.5t-113.5 -6q-103 0 -187.5 12.5t-149 31
t-109 39t-68.5 35.5zM490 -96q146 0 214.5 -57t68.5 -156q3 -87 -19 -177t-60.5 -173t-89 -153t-104.5 -118l-196 90q19 36 37.5 79.5t34 87t28 84.5t19.5 73q-59 7 -99 24.5t-64.5 45t-35.5 63.5t-11 80q0 97 67 152t210 55z" />
    <glyph glyph-name="tbar" unicode="&#x167;" horiz-adv-x="983" 
d="M694 394h-647v257h647v-257zM47 1002l106 36l60 274h421l-1 -274h201v-337h-201v-277q0 -37 14.5 -56.5t58.5 -19.5q32 0 61.5 8t65.5 19l103 -306q-48 -23 -91.5 -41t-89 -30.5t-95 -19t-109.5 -6.5q-77 0 -148.5 18t-127 62t-89 116.5t-33.5 182.5v350h-106v301z" />
    <glyph glyph-name="tcaron" unicode="&#x165;" horiz-adv-x="1400" 
d="M47 1002l106 36l60 274h421l-1 -274h201v-337h-201v-277q0 -37 14.5 -56.5t58.5 -19.5q32 0 61.5 8t65.5 19l103 -306q-48 -23 -91.5 -41t-89 -30.5t-95 -19t-109.5 -6.5q-77 0 -148.5 18t-127 62t-89 116.5t-33.5 182.5v350h-106v301zM1099 1509q146 0 214.5 -57
t68.5 -156q3 -87 -19 -177t-60.5 -173t-89 -153t-104.5 -118l-196 90q19 36 37.5 79.5t34 87t28 84.5t19.5 73q-59 7 -99 24.5t-64.5 45t-35.5 63.5t-11 80q0 97 67 152t210 55z" />
    <glyph glyph-name="tcommaaccent" unicode="&#x163;" horiz-adv-x="983" 
d="M47 1002l106 36l60 274h421l-1 -274h201v-337h-201v-277q0 -37 14.5 -56.5t58.5 -19.5q32 0 61.5 8t65.5 19l103 -306q-48 -23 -91.5 -41t-89 -30.5t-95 -19t-109.5 -6.5q-77 0 -148.5 18t-127 62t-89 116.5t-33.5 182.5v350h-106v301zM507 -82q146 0 214.5 -57
t68.5 -156q3 -87 -19 -177t-60.5 -173t-89 -153t-104.5 -118l-196 90q19 36 37.5 79.5t34 87t28 84.5t19.5 73q-59 7 -99 24.5t-64.5 45t-35.5 63.5t-11 80q0 97 67 152t210 55z" />
    <glyph glyph-name="uacute" unicode="&#xfa;" 
d="M94 1038h480v-578q0 -39 9 -61.5t23 -34t29.5 -14t29.5 -2.5q29 0 52.5 8t37.5 16v666h480v-1038h-424l-46 113q-22 -29 -52 -54.5t-66 -45t-77 -30.5t-85 -11q-102 0 -176 40t-121.5 106t-70.5 150.5t-23 173.5v596zM550 1255l207 404l349 -179l-329 -351z" />
    <glyph glyph-name="ubreve" unicode="&#x16d;" 
d="M94 1038h480v-578q0 -39 9 -61.5t23 -34t29.5 -14t29.5 -2.5q29 0 52.5 8t37.5 16v666h480v-1038h-424l-46 113q-22 -29 -52 -54.5t-66 -45t-77 -30.5t-85 -11q-102 0 -176 40t-121.5 106t-70.5 150.5t-23 173.5v596zM685 1182q-86 0 -147 16.5t-102 43t-65.5 60
t-38.5 66.5t-20 62.5t-10 48.5l266 47q6 -23 13 -42.5t19 -33t32 -21t54 -7.5q33 0 52.5 7.5t30.5 21t17.5 32.5t13.5 42l267 -46q-4 -19 -10 -48.5t-20 -62.5t-38.5 -66.5t-65.5 -60t-101.5 -43t-146.5 -16.5z" />
    <glyph glyph-name="ucircumflex" unicode="&#xfb;" 
d="M94 1038h480v-578q0 -39 9 -61.5t23 -34t29.5 -14t29.5 -2.5q29 0 52.5 8t37.5 16v666h480v-1038h-424l-46 113q-22 -29 -52 -54.5t-66 -45t-77 -30.5t-85 -11q-102 0 -176 40t-121.5 106t-70.5 150.5t-23 173.5v596zM519 1158l-309 75l242 278l445 -1l235 -277l-310 -75
l-152 144z" />
    <glyph glyph-name="udieresis" unicode="&#xfc;" 
d="M94 1038h480v-578q0 -39 9 -61.5t23 -34t29.5 -14t29.5 -2.5q29 0 52.5 8t37.5 16v666h480v-1038h-424l-46 113q-22 -29 -52 -54.5t-66 -45t-77 -30.5t-85 -11q-102 0 -176 40t-121.5 106t-70.5 150.5t-23 173.5v596zM413 1514q116 0 169 -44.5t53 -122.5
q0 -80 -52.5 -122.5t-162.5 -42.5q-117 0 -170 45.5t-53 123.5q0 77 52 120t164 43zM933 1514q116 0 169 -44.5t53 -122.5q0 -80 -53 -122.5t-162 -42.5q-117 0 -170 45.5t-53 123.5q0 77 52 120t164 43z" />
    <glyph glyph-name="uhungarumlaut" unicode="&#x171;" 
d="M110 1038h480v-578q0 -39 9 -61.5t23 -34t29.5 -14t29.5 -2.5q29 0 52.5 8t37.5 16v666h480v-1038h-424l-46 113q-22 -29 -52 -54.5t-66 -45t-77 -30.5t-85 -11q-102 0 -176 40t-121.5 106t-70.5 150.5t-23 173.5v596zM266 1252l207 404l349 -179l-329 -351zM780 1252
l207 404l350 -179l-330 -351z" />
    <glyph glyph-name="ugrave" unicode="&#xf9;" 
d="M94 1038h480v-578q0 -39 9 -61.5t23 -34t29.5 -14t29.5 -2.5q29 0 52.5 8t37.5 16v666h480v-1038h-424l-46 113q-22 -29 -52 -54.5t-66 -45t-77 -30.5t-85 -11q-102 0 -176 40t-121.5 106t-70.5 150.5t-23 173.5v596zM629 1138l-330 351l350 179l206 -404z" />
    <glyph glyph-name="umacron" unicode="&#x16b;" 
d="M94 1038h480v-578q0 -39 9 -61.5t23 -34t29.5 -14t29.5 -2.5q29 0 52.5 8t37.5 16v666h480v-1038h-424l-46 113q-22 -29 -52 -54.5t-66 -45t-77 -30.5t-85 -11q-102 0 -176 40t-121.5 106t-70.5 150.5t-23 173.5v596zM1077 1162h-774v287h774v-287z" />
    <glyph glyph-name="uogonek" unicode="&#x173;" 
d="M94 1038h480v-578q0 -39 9 -61.5t23 -34t29.5 -14t29.5 -2.5q29 0 52.5 8t37.5 16v666h480v-1038h-424l-46 113q-22 -29 -52 -54.5t-66 -45t-77 -30.5t-85 -11q-102 0 -176 40t-121.5 106t-70.5 150.5t-23 173.5v596zM1344 -435q-45 -17 -102.5 -24t-117.5 -7
q-154 0 -236.5 58.5t-82.5 158.5q0 85 40.5 146.5t106.5 102.5h261q-27 -25 -47.5 -46.5t-34.5 -42.5t-21.5 -43t-7.5 -49q0 -29 10.5 -46.5t27 -27t36 -12.5t36.5 -3q20 0 43.5 1.5t38.5 6.5z" />
    <glyph glyph-name="uring" unicode="&#x16f;" 
d="M94 1038h480v-578q0 -39 9 -61.5t23 -34t29.5 -14t29.5 -2.5q29 0 52.5 8t37.5 16v666h480v-1038h-424l-46 113q-22 -29 -52 -54.5t-66 -45t-77 -30.5t-85 -11q-102 0 -176 40t-121.5 106t-70.5 150.5t-23 173.5v596zM678 1436q-39 0 -57 -15.5t-18 -41.5q0 -29 18.5 -45
t60.5 -16q74 0 74 58q0 29 -18 44.5t-60 15.5zM677 1578q139 0 203.5 -54.5t64.5 -147.5q0 -97 -63.5 -148.5t-196.5 -51.5q-70 0 -120.5 14.5t-83.5 41t-49 64.5t-16 85q0 92 63.5 144.5t197.5 52.5z" />
    <glyph glyph-name="utilde" unicode="&#x169;" 
d="M99 1038h480v-578q0 -39 9 -61.5t23 -34t29.5 -14t29.5 -2.5q29 0 52.5 8t37.5 16v666h480v-1038h-424l-46 113q-22 -29 -52 -54.5t-66 -45t-77 -30.5t-85 -11q-102 0 -176 40t-121.5 106t-70.5 150.5t-23 173.5v596zM125 1299q21 58 55.5 106.5t79.5 83t98.5 53.5
t111.5 19t103.5 -12.5t85.5 -28t76 -28t74 -12.5q24 0 40 3t27.5 10.5t21.5 20.5t23 33l228 -133q-24 -71 -65 -120.5t-88 -81t-95 -45.5t-85 -14q-56 0 -101.5 12.5t-85.5 28t-78 28t-78 12.5q-27 0 -44.5 -4.5t-30 -13.5t-22.5 -21.5t-22 -28.5z" />
    <glyph glyph-name="wacute" unicode="&#x1e83;" horiz-adv-x="2013" 
d="M1958 1038q-3 -77 -16 -164.5t-33 -180t-45.5 -187t-54.5 -184.5t-59.5 -172t-60.5 -150h-575q-32 81 -60.5 167.5t-48.5 180.5h-1q-8 -48 -20.5 -95.5t-27.5 -92.5t-31 -85.5t-30 -74.5h-572q-26 55 -56.5 136.5t-61.5 176t-59 196t-49 198.5t-33.5 182.5t-10.5 148.5
l501 10q-3 -71 -2.5 -153.5t6 -167t16 -165.5t27.5 -148h15q14 36 28 88.5t27.5 112.5t25.5 123t20.5 120t13.5 104.5t4 75.5h540q4 -74 14.5 -153t26 -159t35.5 -159.5t43 -152.5h16q9 39 17 92.5t14.5 114t11.5 124t7 121t1.5 105t-4.5 77.5zM915 1264l207 404l349 -179
l-329 -351z" />
    <glyph glyph-name="wcircumflex" unicode="&#x175;" horiz-adv-x="2013" 
d="M1958 1038q-3 -77 -16 -164.5t-33 -180t-45.5 -187t-54.5 -184.5t-59.5 -172t-60.5 -150h-575q-32 81 -60.5 167.5t-48.5 180.5h-1q-8 -48 -20.5 -95.5t-27.5 -92.5t-31 -85.5t-30 -74.5h-572q-26 55 -56.5 136.5t-61.5 176t-59 196t-49 198.5t-33.5 182.5t-10.5 148.5
l501 10q-3 -71 -2.5 -153.5t6 -167t16 -165.5t27.5 -148h15q14 36 28 88.5t27.5 112.5t25.5 123t20.5 120t13.5 104.5t4 75.5h540q4 -74 14.5 -153t26 -159t35.5 -159.5t43 -152.5h16q9 39 17 92.5t14.5 114t11.5 124t7 121t1.5 105t-4.5 77.5zM840 1163l-309 75l242 278
l445 -1l235 -277l-310 -75l-152 144z" />
    <glyph glyph-name="wdieresis" unicode="&#x1e85;" horiz-adv-x="2013" 
d="M1958 1038q-3 -77 -16 -164.5t-33 -180t-45.5 -187t-54.5 -184.5t-59.5 -172t-60.5 -150h-575q-32 81 -60.5 167.5t-48.5 180.5h-1q-8 -48 -20.5 -95.5t-27.5 -92.5t-31 -85.5t-30 -74.5h-572q-26 55 -56.5 136.5t-61.5 176t-59 196t-49 198.5t-33.5 182.5t-10.5 148.5
l501 10q-3 -71 -2.5 -153.5t6 -167t16 -165.5t27.5 -148h15q14 36 28 88.5t27.5 112.5t25.5 123t20.5 120t13.5 104.5t4 75.5h540q4 -74 14.5 -153t26 -159t35.5 -159.5t43 -152.5h16q9 39 17 92.5t14.5 114t11.5 124t7 121t1.5 105t-4.5 77.5zM725 1485q116 0 169 -44.5
t53 -122.5q0 -80 -52.5 -122.5t-162.5 -42.5q-117 0 -170 45.5t-53 123.5q0 77 52 120t164 43zM1245 1485q116 0 169 -44.5t53 -122.5q0 -80 -53 -122.5t-162 -42.5q-117 0 -170 45.5t-53 123.5q0 77 52 120t164 43z" />
    <glyph glyph-name="wgrave" unicode="&#x1e81;" horiz-adv-x="2013" 
d="M1958 1038q-3 -77 -16 -164.5t-33 -180t-45.5 -187t-54.5 -184.5t-59.5 -172t-60.5 -150h-575q-32 81 -60.5 167.5t-48.5 180.5h-1q-8 -48 -20.5 -95.5t-27.5 -92.5t-31 -85.5t-30 -74.5h-572q-26 55 -56.5 136.5t-61.5 176t-59 196t-49 198.5t-33.5 182.5t-10.5 148.5
l501 10q-3 -71 -2.5 -153.5t6 -167t16 -165.5t27.5 -148h15q14 36 28 88.5t27.5 112.5t25.5 123t20.5 120t13.5 104.5t4 75.5h540q4 -74 14.5 -153t26 -159t35.5 -159.5t43 -152.5h16q9 39 17 92.5t14.5 114t11.5 124t7 121t1.5 105t-4.5 77.5zM923 1138l-330 351l350 179
l206 -404z" />
    <glyph glyph-name="yacute" unicode="&#xfd;" horiz-adv-x="1319" 
d="M179 -331q43 48 78.5 88t66.5 78t58.5 78t54.5 87h-55q-44 68 -85.5 152.5t-78.5 177.5t-69 189.5t-56.5 189.5t-41.5 177t-24 152l512 10q3 -71 10.5 -153.5t20.5 -167.5t32.5 -169.5t46.5 -159.5h25q16 35 30.5 90t26.5 118.5t21.5 131t16 128t9.5 108.5t3 74l513 -10
q-3 -62 -20 -148.5t-44 -184t-62 -200t-73 -197t-77 -175t-74 -133.5q-29 -53 -70 -122.5t-87 -142t-94 -143.5t-93 -127zM549 1264l207 404l349 -179l-329 -351z" />
    <glyph glyph-name="ycircumflex" unicode="&#x177;" horiz-adv-x="1319" 
d="M179 -331q43 48 78.5 88t66.5 78t58.5 78t54.5 87h-55q-44 68 -85.5 152.5t-78.5 177.5t-69 189.5t-56.5 189.5t-41.5 177t-24 152l512 10q3 -71 10.5 -153.5t20.5 -167.5t32.5 -169.5t46.5 -159.5h25q16 35 30.5 90t26.5 118.5t21.5 131t16 128t9.5 108.5t3 74l513 -10
q-3 -62 -20 -148.5t-44 -184t-62 -200t-73 -197t-77 -175t-74 -133.5q-29 -53 -70 -122.5t-87 -142t-94 -143.5t-93 -127zM480 1163l-309 75l242 278l445 -1l235 -277l-310 -75l-152 144z" />
    <glyph glyph-name="ydieresis" unicode="&#xff;" horiz-adv-x="1319" 
d="M179 -331q43 48 78.5 88t66.5 78t58.5 78t54.5 87h-55q-44 68 -85.5 152.5t-78.5 177.5t-69 189.5t-56.5 189.5t-41.5 177t-24 152l512 10q3 -71 10.5 -153.5t20.5 -167.5t32.5 -169.5t46.5 -159.5h25q16 35 30.5 90t26.5 118.5t21.5 131t16 128t9.5 108.5t3 74l513 -10
q-3 -62 -20 -148.5t-44 -184t-62 -200t-73 -197t-77 -175t-74 -133.5q-29 -53 -70 -122.5t-87 -142t-94 -143.5t-93 -127zM396 1485q116 0 169 -44.5t53 -122.5q0 -80 -52.5 -122.5t-162.5 -42.5q-117 0 -170 45.5t-53 123.5q0 77 52 120t164 43zM916 1485q116 0 169 -44.5
t53 -122.5q0 -80 -53 -122.5t-162 -42.5q-117 0 -170 45.5t-53 123.5q0 77 52 120t164 43z" />
    <glyph glyph-name="ygrave" unicode="&#x1ef3;" horiz-adv-x="1319" 
d="M179 -331q43 48 78.5 88t66.5 78t58.5 78t54.5 87h-55q-44 68 -85.5 152.5t-78.5 177.5t-69 189.5t-56.5 189.5t-41.5 177t-24 152l512 10q3 -71 10.5 -153.5t20.5 -167.5t32.5 -169.5t46.5 -159.5h25q16 35 30.5 90t26.5 118.5t21.5 131t16 128t9.5 108.5t3 74l513 -10
q-3 -62 -20 -148.5t-44 -184t-62 -200t-73 -197t-77 -175t-74 -133.5q-29 -53 -70 -122.5t-87 -142t-94 -143.5t-93 -127zM622 1138l-330 351l350 179l206 -404z" />
    <glyph glyph-name="zacute" unicode="&#x17a;" horiz-adv-x="1118" 
d="M100 662v376h913v-325q-35 -42 -80.5 -84t-93.5 -83.5t-94.5 -83t-81.5 -82.5v-4h359v-376h-950v350q34 38 79 76.5t92 77t91.5 77t77.5 77.5v4h-312zM452 1264l207 404l349 -179l-329 -351z" />
    <glyph glyph-name="zcaron" unicode="&#x17e;" horiz-adv-x="1118" 
d="M100 662v376h913v-325q-35 -42 -80.5 -84t-93.5 -83.5t-94.5 -83t-81.5 -82.5v-4h359v-376h-950v350q34 38 79 76.5t92 77t91.5 77t77.5 77.5v4h-312zM536 1396l77 120l389 -92l-242 -236h-445l-243 241l394 86z" />
    <glyph glyph-name="zdotaccent" unicode="&#x17c;" horiz-adv-x="1118" 
d="M100 662v376h913v-325q-35 -42 -80.5 -84t-93.5 -83.5t-94.5 -83t-81.5 -82.5v-4h359v-376h-950v350q34 38 79 76.5t92 77t91.5 77t77.5 77.5v4h-312zM588 1485q116 0 169 -44.5t53 -122.5q0 -80 -52.5 -122.5t-162.5 -42.5q-117 0 -170 45.5t-53 123.5q0 77 52 120
t164 43z" />
    <glyph glyph-name="macron" unicode="&#xaf;" horiz-adv-x="1286" 
d="M1098 1162h-774v287h774v-287z" />
    <glyph glyph-name="dotlessi" unicode="&#x131;" horiz-adv-x="670" 
d="M95 0v1038h480v-1038h-480z" />
    <glyph glyph-name="dotlessj" unicode="&#x237;" horiz-adv-x="670" 
d="M-202 -80q62 -15 103.5 -24.5t82.5 -9.5q38 0 60 14.5t33 34.5t14 41.5t3 35.5v1026h480v-1029q0 -96 -28.5 -184.5t-89.5 -155.5t-157.5 -107t-232.5 -40q-91 0 -179 20t-163 48z" />
    <glyph glyph-name="cent" unicode="&#xa2;" horiz-adv-x="1100" 
d="M372 993v241h426v-232zM798 45v-210h-426v210h426zM51 526q0 118 35 219t105 174.5t174 115.5t241 42q111 0 218.5 -25.5t207.5 -82.5l-117 -305q-22 7 -40.5 13.5t-39 12t-46 8.5t-60.5 3q-108 0 -158.5 -44t-50.5 -141q0 -55 20.5 -88.5t50.5 -51.5t64 -23.5t61 -5.5
q60 0 107 10.5t91 26.5l119 -304q-40 -20 -83 -39.5t-95.5 -34.5t-117.5 -24.5t-148 -9.5q-102 0 -181.5 23.5t-139.5 64.5t-101.5 95.5t-67 116t-37 127t-11.5 127.5z" />
    <glyph glyph-name="dollar" unicode="$" horiz-adv-x="1276" 
d="M441 1383v171h426v-171h-426zM867 32v-197h-426v197h426zM154 470q118 -45 218.5 -71t194.5 -26q71 0 106.5 10t35.5 34q0 15 -14.5 28t-40 24t-59 20.5t-72.5 17.5q-100 23 -186 56t-149 82.5t-99 119t-36 167.5q0 117 36 209t111.5 155.5t191.5 97t276 33.5
q54 0 123.5 -8.5t142.5 -25.5t143 -41.5t125 -57.5l-137 -335q-33 12 -74.5 24t-86.5 21.5t-91 15.5t-87 6q-91 0 -131.5 -11.5t-40.5 -40.5q0 -15 13 -27t37 -22t57 -18.5t72 -17.5q240 -59 357.5 -166t117.5 -273q0 -114 -36 -202.5t-109.5 -150t-184.5 -93.5t-262 -32
q-102 0 -186.5 10.5t-157 29t-137 44t-125.5 55.5z" />
    <glyph glyph-name="currency" unicode="&#xa4;" horiz-adv-x="1204" 
d="M592 1033q46 0 86.5 -3.5t77.5 -10.5l163 169l213 -202l-125 -107q61 -83 61 -206q0 -112 -50 -192l114 -97l-213 -202l-145 150q-75 -15 -169 -15q-97 0 -172 15l-145 -150l-214 202l109 94q-56 83 -56 204q0 61 15 112.5t47 93.5l-115 98l214 202l158 -166q33 5 69 8
t77 3zM593 780q-69 0 -101.5 -27t-32.5 -74q0 -51 33.5 -80t106.5 -29q69 0 101 26.5t32 76.5q0 51 -32.5 79t-106.5 28z" />
    <glyph glyph-name="AEacute" unicode="&#x1fc;" horiz-adv-x="2056" 
d="M944 0v186h-366q-14 -57 -23.5 -102.5t-14.5 -83.5h-544q10 58 29 140.5t46.5 182.5t63 215t77.5 240q41 120 81 219t75 177t64.5 134t49.5 89h1489v-401h-556v-119h475v-350h-475v-126h582v-401h-1053zM802 996q-19 -42 -37 -97t-34.5 -114t-31.5 -119t-28 -114h273v444
h-142zM1095 1574l207 404l349 -179l-329 -351z" />
    <glyph glyph-name="commaaccent" unicode="&#xf6c3;" horiz-adv-x="0" 
 />
    <glyph glyph-name="Oslash" unicode="&#xd8;" horiz-adv-x="1661" 
d="M1598 695q-2 -157 -51 -290t-145 -229.5t-237 -150.5t-326 -53q-5 0 -10 0.5t-10 0.5l-67 -184l-446 97q6 17 15 41t19 51t20 54.5t19 51.5q-80 47 -140 111.5t-100 142.5t-59 168t-17 189q3 160 52 294t145 231t240.5 151.5t338.5 55.5h17l58 156l450 -99l-66 -178
q75 -49 131.5 -114.5t94 -144t56.5 -167.5t18 -185zM836 1026q-70 0 -122 -26.5t-87.5 -71.5t-54 -105.5t-20.5 -127.5q-2 -66 17.5 -124.5t57 -102.5t91.5 -69.5t120 -25.5q61 0 111 26t86 70t56 103t20 124q0 63 -19 122.5t-54.5 105.5t-86.5 74t-115 28z" />
    <glyph glyph-name="Oslashacute" unicode="&#x1fe;" horiz-adv-x="1661" 
d="M1598 695q-2 -157 -51 -290t-145 -229.5t-237 -150.5t-326 -53q-5 0 -10 0.5t-10 0.5l-67 -184l-446 97q6 17 15 41t19 51t20 54.5t19 51.5q-80 47 -140 111.5t-100 142.5t-59 168t-17 189q3 160 52 294t145 231t240.5 151.5t338.5 55.5h17l58 156l450 -99l-66 -178
q75 -49 131.5 -114.5t94 -144t56.5 -167.5t18 -185zM836 1026q-70 0 -122 -26.5t-87.5 -71.5t-54 -105.5t-20.5 -127.5q-2 -66 17.5 -124.5t57 -102.5t91.5 -69.5t120 -25.5q61 0 111 26t86 70t56 103t20 124q0 63 -19 122.5t-54.5 105.5t-86.5 74t-115 28zM628 1711
l207 404l349 -179l-329 -351z" />
    <glyph glyph-name="aeacute" unicode="&#x1fd;" horiz-adv-x="1880" 
d="M25 477q0 160 41 273.5t123 186t203.5 106.5t283.5 34q78 0 163.5 -15t163.5 -38q66 27 142 40t162 13q127 0 223.5 -33.5t161 -87.5t97.5 -121t33 -134q0 -56 -19.5 -108.5t-65.5 -93t-122 -64.5t-189 -24h-247v-4q17 -40 60.5 -60.5t128.5 -20.5q49 0 90.5 4t79.5 11.5
t74 17.5t74 21l102 -280q-45 -29 -104 -52.5t-125 -40.5t-134.5 -26t-131.5 -9q-64 0 -120 7t-107 21h-312l-48 117q-12 -15 -38 -39.5t-63 -48t-83.5 -40.5t-99.5 -17q-99 0 -173.5 38.5t-124 106t-74.5 160t-25 200.5zM494 509q0 -48 10.5 -79t28 -49t38.5 -25.5t42 -7.5
q23 0 44.5 9t41.5 20v314q-13 4 -32.5 7t-59.5 3q-28 0 -49 -9t-35.5 -31t-21.5 -59t-7 -93zM1296 753q-49 0 -76 -20.5t-41 -49.5v-56h147q35 0 51.5 18t16.5 43q0 12 -4.5 24t-15.5 21t-30 14.5t-48 5.5zM928 1300l207 404l349 -179l-329 -351z" />
    <glyph glyph-name="kgreenlandic" unicode="&#x138;" horiz-adv-x="1360" 
d="M1284 1038q-26 -76 -61.5 -142.5t-77.5 -124.5t-89 -108t-96 -92q33 -61 85 -128t108.5 -130t110 -117.5t90.5 -90.5l-349 -221q-46 33 -102 83t-112 110t-107 126t-87 129q-6 -3 -12 -6.5t-11 -5.5v-320h-480v1038h480v-279q33 25 64.5 58t59.5 69.5t51 75.5t39 76h496
v0z" />
    <glyph glyph-name="oslash" unicode="&#xf8;" horiz-adv-x="1319" 
d="M70 519q0 126 40.5 229t116.5 176t184.5 113t245.5 40q4 0 8 -0.5t8 -0.5l-7 3l59 162l370 -108l-60 -162q106 -75 161 -190.5t55 -258.5q0 -126 -40.5 -227.5t-115.5 -172.5t-182.5 -110t-242.5 -40l-48 -133l-373 97l47 129q-109 69 -167.5 184t-58.5 270zM539 522
q0 -51 9.5 -84.5t26 -53.5t39 -28t49.5 -8q26 0 48 8t37.5 28t24.5 54t9 86t-9 86t-25 54t-38 28.5t-48 8.5t-48.5 -9t-39 -29.5t-26 -55t-9.5 -85.5z" />
    <glyph glyph-name="oslashacute" unicode="&#x1ff;" horiz-adv-x="1319" 
d="M70 519q0 126 40.5 229t116.5 176t184.5 113t245.5 40q4 0 8 -0.5t8 -0.5l-7 3l59 162l370 -108l-60 -162q106 -75 161 -190.5t55 -258.5q0 -126 -40.5 -227.5t-115.5 -172.5t-182.5 -110t-242.5 -40l-48 -133l-373 97l47 129q-109 69 -167.5 184t-58.5 270zM539 522
q0 -51 9.5 -84.5t26 -53.5t39 -28t49.5 -8q26 0 48 8t37.5 28t24.5 54t9 86t-9 86t-25 54t-38 28.5t-48 8.5t-48.5 -9t-39 -29.5t-26 -55t-9.5 -85.5zM431 1345l207 404l349 -179l-329 -351z" />
    <glyph glyph-name="Eng" unicode="&#x14a;" horiz-adv-x="1693" 
d="M1558 40q0 -127 -24.5 -222.5t-77 -159.5t-135 -96t-198.5 -32q-49 0 -99 5.5t-97.5 14.5t-91.5 21.5t-81 27.5l65 358q15 -5 34.5 -10t40.5 -8.5t41.5 -5.5t38.5 -2q45 0 64 32t19 91v301h501v-315zM135 0v1397h502q60 -62 110.5 -144t100.5 -169.5t103 -174t117 -158.5
h9l-20 646h501v-1397h-494q-44 41 -84 91t-77 104.5t-72 110t-69 108t-68 99.5t-69 84h-9l20 -597h-501z" />
    <glyph glyph-name="eng" unicode="&#x14b;" 
d="M94 892q50 33 124 66.5t161 59.5t181.5 42.5t186.5 16.5q137 0 230.5 -32.5t150.5 -88t82 -130t25 -158.5v-659q0 -96 -28.5 -184.5t-89.5 -155.5t-157.5 -107t-232.5 -40q-91 0 -179 20t-163 48l74 330q62 -15 103.5 -24.5t82.5 -9.5q34 0 55.5 12.5t33.5 30.5t16 38
t5 35v606q0 27 -15.5 50t-49.5 23q-29 0 -61.5 -7.5t-54.5 -19.5v-654h-480v892z" />
    <glyph glyph-name="fraction" unicode="&#x2044;" horiz-adv-x="1141" 
d="M137 0l468 1397h395l-468 -1397h-395z" />
    <glyph glyph-name="afii10017" unicode="&#x410;" horiz-adv-x="1618" 
d="M1022 176h-426q-11 -56 -20 -103.5t-15 -82.5l-518 10q13 69 39.5 177.5t62.5 238t79.5 269.5t89 272.5t91 247t86.5 192.5h635q25 -44 55 -114t62.5 -157t66.5 -186.5t66.5 -203.5t63 -208.5t56.5 -200.5t46 -180t32 -147l-518 -10zM798 1026q-28 -87 -59 -209t-61 -255
h261q-29 124 -59 241t-61 223h-21z" />
    <glyph glyph-name="afii10018" unicode="&#x411;" horiz-adv-x="1356" 
d="M615 349h86q66 0 93 23t27 72q0 21 -5.5 39.5t-18.5 32.5t-33.5 22t-50.5 8h-98v-197zM1190 1029h-575v-151h97q116 0 204 -19t152.5 -52t107 -77t68 -94.5t36 -104.5t10.5 -106q0 -101 -30.5 -179.5t-93.5 -133.5t-158.5 -83.5t-225.5 -28.5h-647v1397h1055v-368z" />
    <glyph glyph-name="afii10019" unicode="&#x412;" horiz-adv-x="1356" 
d="M135 0v1397h623q105 0 198 -24.5t162.5 -71.5t110 -117.5t40.5 -161.5q0 -63 -22.5 -111t-56.5 -82.5t-72.5 -56t-70.5 -31.5v-9q55 -18 103 -50.5t84 -76.5t56.5 -100t20.5 -120q0 -86 -30.5 -156.5t-93.5 -121.5t-158.5 -79t-225.5 -28h-668zM636 349h86q66 0 93 23
t27 72q0 21 -5.5 39.5t-18.5 32.5t-33.5 22t-50.5 8h-98v-197zM636 878h97q48 0 73.5 28t25.5 70q0 19 -5.5 35.5t-18 29.5t-32 20.5t-47.5 7.5h-93v-191z" />
    <glyph glyph-name="afii10020" unicode="&#x413;" horiz-adv-x="1184" 
d="M1159 1397v-401h-523v-996h-501v1397h1024z" />
    <glyph glyph-name="afii10022" unicode="&#x415;" horiz-adv-x="1282" 
d="M135 0v1397h1027v-401h-546v-109h466v-370h-466v-116h573v-401h-1054z" />
    <glyph glyph-name="afii10023" unicode="&#x401;" horiz-adv-x="1282" 
d="M135 0v1397h1047v-397h-556v-118h476v-360h-476v-125h583v-397h-1074zM452 1820q116 0 169 -44.5t53 -122.5q0 -80 -52.5 -122.5t-162.5 -42.5q-117 0 -170 45.5t-53 123.5q0 77 52 120t164 43zM972 1820q116 0 169 -44.5t53 -122.5q0 -80 -53 -122.5t-162 -42.5
q-117 0 -170 45.5t-53 123.5q0 77 52 120t164 43z" />
    <glyph glyph-name="afii10026" unicode="&#x418;" horiz-adv-x="1693" 
d="M1057 0l10 547h-9q-53 -55 -101.5 -124t-99.5 -142.5t-106.5 -146t-121.5 -134.5h-494v1397h501l-10 -596h9q64 72 115.5 151t99.5 157t97 152t109 136h502v-1397h-501z" />
    <glyph glyph-name="afii10027" unicode="&#x419;" horiz-adv-x="1693" 
d="M1057 0l10 547h-9q-53 -55 -101.5 -124t-99.5 -142.5t-106.5 -146t-121.5 -134.5h-494v1397h501l-10 -596h9q64 72 115.5 151t99.5 157t97 152t109 136h502v-1397h-501zM900 1520q-86 0 -147 16.5t-102 43t-65.5 60t-38.5 66.5t-20 62.5t-10 48.5l266 47q6 -23 13 -42.5
t19 -33t32 -21t54 -7.5q33 0 52.5 7.5t30.5 21t17.5 32.5t13.5 42l267 -46q-4 -19 -10 -48.5t-20 -62.5t-38.5 -66.5t-65.5 -60t-101.5 -43t-146.5 -16.5z" />
    <glyph glyph-name="afii10028" unicode="&#x41a;" horiz-adv-x="1548" 
d="M135 0v1397h501v-446q50 56 87.5 108.5t69 106.5t59.5 110.5t59 120.5h542q-30 -81 -73.5 -164.5t-96.5 -164.5t-114.5 -157.5t-127.5 -144.5q41 -69 95.5 -149t118 -163t133.5 -165.5t142 -156.5l-369 -242q-59 48 -124 117.5t-128.5 149.5t-121 165.5t-101.5 165.5
q-13 -7 -25.5 -13t-24.5 -11v-464h-501z" />
    <glyph glyph-name="afii10029" unicode="&#x41b;" horiz-adv-x="1686" 
d="M1045 996h-292v-170q0 -83 -6 -179t-23.5 -190.5t-49.5 -182t-84 -155t-126.5 -107.5t-177.5 -40q-35 0 -73.5 2t-70.5 5q-38 3 -75 7l-14 349q22 3 43.5 4.5t42.5 8.5q28 9 48 43.5t32.5 82.5t19.5 103.5t10 106.5t3.5 91.5t0.5 57.5v564h1297v-1397h-505v996z" />
    <glyph glyph-name="afii10030" unicode="&#x41c;" horiz-adv-x="2058" 
d="M83 0q3 94 5.5 173t6.5 155t9 155t12 174q17 225 40 414t41 326h665l170 -717h16l170 717h665q18 -133 41 -322.5t40 -420.5q7 -105 13 -196t9.5 -171t6 -151t4.5 -136h-510q-1 95 1 200t3 210.5t-2 206.5t-14 190h-14l-223 -807h-396l-223 807h-14q-11 -96 -14 -199.5
t-2.5 -207.5t3 -205.5t1.5 -194.5h-510z" />
    <glyph glyph-name="afii10031" unicode="&#x41d;" horiz-adv-x="1655" 
d="M135 0v1397h501v-496h375v496h505v-1397h-505v500h-375v-500h-501z" />
    <glyph glyph-name="afii10032" unicode="&#x41e;" horiz-adv-x="1661" 
d="M1598 695q-2 -157 -51 -290t-145 -229.5t-237 -150.5t-326 -53q-193 1 -339.5 56t-244.5 151.5t-146.5 228.5t-45.5 287q3 160 52 294t145 231t240.5 151.5t338.5 55.5q187 1 329.5 -55.5t238.5 -155.5t144 -233t47 -288zM836 1026q-70 0 -122 -26.5t-87.5 -71.5
t-54 -105.5t-20.5 -127.5q-2 -66 17.5 -124.5t57 -102.5t91.5 -69.5t120 -25.5q61 0 111 26t86 70t56 103t20 124q0 63 -19 122.5t-54.5 105.5t-86.5 74t-115 28z" />
    <glyph glyph-name="afii10033" unicode="&#x41f;" horiz-adv-x="1655" 
d="M1516 0h-505v996h-375v-996h-501v1397h1381v-1397z" />
    <glyph glyph-name="afii10034" unicode="&#x420;" horiz-adv-x="1421" 
d="M135 0v1397h619q147 0 261.5 -30.5t193.5 -93.5t120.5 -159.5t41.5 -228.5q0 -146 -48.5 -249t-131 -168t-192 -95t-231.5 -30h-132v-343h-501zM636 717h110q38 0 64 13.5t42 35.5t23 48.5t7 53.5q0 22 -4.5 47.5t-19.5 47t-43 35.5t-76 14h-103v-295z" />
    <glyph glyph-name="afii10035" unicode="&#x421;" horiz-adv-x="1382" 
d="M552 687q0 -91 24 -151.5t66.5 -96.5t101.5 -51t129 -15q50 0 96 8t86 20t73.5 25.5t57.5 24.5l137 -335q-41 -28 -104.5 -54t-138 -46t-153.5 -32t-149 -12q-90 0 -178 12t-167.5 42t-147 81.5t-117 131t-77.5 190t-28 259.5q0 148 28 260.5t77.5 195t117 137t147 87
t167.5 46t178 13.5q81 0 162 -13t153.5 -33.5t132 -46.5t97.5 -52l-135 -335q-28 12 -61.5 26t-73 25.5t-84.5 19.5t-96 8q-74 0 -133.5 -15.5t-101 -54t-64 -104t-22.5 -165.5z" />
    <glyph glyph-name="afii10036" unicode="&#x422;" horiz-adv-x="1217" 
d="M20 996v401h1175v-401h-337v-996h-501v996h-337z" />
    <glyph glyph-name="afii10037" unicode="&#x423;" horiz-adv-x="1536" 
d="M226 28q43 48 78.5 88t66.5 78t58.5 78t54.5 87q-84 128 -156 259.5t-126 278.5q-32 87 -57.5 159t-44.5 132.5t-32.5 112t-22.5 96.5h544q3 -85 16.5 -172t41.5 -193q17 -66 44 -129.5t61 -135.5h25q29 58 56 118.5t44 135.5q31 136 43.5 233.5t15.5 142.5h545
q-13 -87 -52.5 -219.5t-107.5 -297.5q-67 -163 -139.5 -291t-134.5 -230q-30 -53 -70.5 -122.5t-86.5 -142t-94.5 -143.5t-92.5 -127z" />
    <glyph glyph-name="afii10039" unicode="&#x425;" horiz-adv-x="1477" 
d="M18 0q38 89 83.5 180t94.5 185q32 61 67.5 122.5t66.5 110.5q36 57 71 110q-24 37 -43 67t-39.5 64t-44.5 76t-57 103q-48 88 -89.5 184t-79.5 195l570 10q5 -17 10 -36.5t11.5 -44t15.5 -55.5t22 -71q17 -57 31.5 -106t27.5 -87h22q5 16 11.5 35.5t15 46t19.5 62.5
t25 84q15 51 25.5 92.5t21.5 79.5l569 -10q-25 -64 -65.5 -165.5t-114.5 -234.5q-110 -201 -170 -289q24 -38 47 -74t47.5 -76.5t51 -87.5t57.5 -105q20 -38 39.5 -75.5t40.5 -80.5t45 -94t53 -115l-576 -10q-13 43 -27.5 93t-37.5 106q-17 42 -28 72.5t-19.5 52.5t-14.5 38
t-13 30h-24q-12 -26 -31 -75.5t-44 -112.5q-9 -22 -19 -51t-19 -58t-17 -54.5t-12 -40.5z" />
    <glyph glyph-name="afii10021" unicode="&#x414;" horiz-adv-x="1772" 
d="M1200 0h-648v-216h-501v617h104q58 70 91.5 161.5t50.5 195.5t21 216.5t4 223.5v199h1234v-996h149v-617h-505v216zM816 921q0 -56 -7.5 -119.5t-22.5 -131t-38.5 -136t-55.5 -133.5h359v595h-235v-75z" />
    <glyph glyph-name="afii10024" unicode="&#x416;" horiz-adv-x="2310" 
d="M569 1397q27 -77 56 -138t64.5 -114.5t79 -103.5t97.5 -104v460h501v-458q54 54 96.5 103.5t78 103t64.5 114t56 137.5h542q-29 -86 -76 -174.5t-106.5 -174t-129 -165.5t-142.5 -150q40 -70 92 -147t112 -155t125.5 -152.5t133.5 -139.5l-386 -235q-28 21 -62 57.5
t-71 83t-76 101t-76.5 111.5t-72.5 114.5t-64 110.5q-10 -5 -19.5 -9t-18.5 -9v-464h-501v463l-41 19q-29 -53 -64 -110.5t-72 -114.5t-76 -111.5t-76 -101t-71 -83t-62 -57.5l-386 235q67 65 132.5 139.5t125.5 152.5t112.5 155t92.5 147q-74 70 -143.5 150t-128.5 165.5
t-106 174t-76 174.5h542z" />
    <glyph glyph-name="afii10025" unicode="&#x417;" horiz-adv-x="1241" 
d="M55 1303q40 26 98.5 48.5t128.5 39.5t148.5 26.5t159.5 9.5q151 0 263.5 -27.5t187 -77t111.5 -118.5t37 -153q0 -118 -62.5 -196.5t-171.5 -113.5q54 -23 100.5 -49t81 -63.5t54.5 -92t20 -135.5q0 -80 -23.5 -143t-66 -110.5t-100.5 -80.5t-126.5 -54t-146 -30.5
t-157.5 -10.5q-66 -1 -136.5 6t-140 22t-135.5 38t-124 55l136 337q41 -15 74.5 -25.5t70.5 -17.5t82 -10.5t110 -3.5q31 0 65.5 3t62.5 11.5t46.5 23.5t18.5 40q0 22 -25.5 35.5t-69 21t-100 10t-119.5 2.5h-119v356h105q85 0 143.5 5t94.5 15t51.5 24t15.5 32t-14 32
t-39 23t-59 14t-74 5q-33 0 -69 -0.5t-76 -5.5t-84 -17t-93 -35z" />
    <glyph glyph-name="afii10038" unicode="&#x424;" horiz-adv-x="2081" 
d="M788 -120v143q-181 7 -318.5 56.5t-229 136.5t-137 208t-42.5 271q3 154 48.5 277.5t135.5 210.5t225.5 136.5t317.5 56.5v151h500v-151q179 -3 316 -53.5t229 -140t138 -213.5t45 -274q-2 -154 -49 -277t-139 -210t-227.5 -135t-312.5 -51v-142h-500zM1529 696
q0 58 -16.5 106.5t-47.5 84.5t-76 58.5t-101 28.5v-550q54 6 98.5 26t76 54.5t49 82.5t17.5 109zM550 695q-2 -60 14 -107t47 -81t76 -55t101 -27v549q-118 -12 -176.5 -83.5t-61.5 -195.5z" />
    <glyph glyph-name="afii10040" unicode="&#x426;" horiz-adv-x="1686" 
d="M636 401h375v996h505v-996h158v-617h-505v216h-1034v1397h501v-996z" />
    <glyph glyph-name="afii10041" unicode="&#x427;" horiz-adv-x="1460" 
d="M823 0v449q-18 -12 -49.5 -27.5t-75 -29t-98 -22.5t-118.5 -9q-93 0 -166 34.5t-123 97t-76.5 148.5t-26.5 190v566h501v-522q0 -39 17.5 -61.5t40.5 -34t47 -14t38 -2.5q23 0 49 10t40 18v606h501v-1397h-501z" />
    <glyph glyph-name="afii10042" unicode="&#x428;" horiz-adv-x="2179" 
d="M636 401h200v996h505v-996h195v996h505v-1397h-1906v1397h501v-996z" />
    <glyph glyph-name="afii10043" unicode="&#x429;" horiz-adv-x="2210" 
d="M636 401h200v996h505v-996h195v996h505v-996h158v-617h-505v216h-1559v1397h501v-996z" />
    <glyph glyph-name="afii10044" unicode="&#x42a;" horiz-adv-x="1450" 
d="M23 1397h718v-519h97q116 0 204 -20t152.5 -53.5t107 -77t68 -90t36 -93t10.5 -85.5q0 -239 -124.5 -349t-383.5 -110h-647v1069h-238v328zM741 349h86q65 0 92.5 23t27.5 72q0 21 -5.5 39.5t-18.5 32.5t-33.5 22t-50.5 8h-98v-197z" />
    <glyph glyph-name="afii10046" unicode="&#x42c;" horiz-adv-x="1346" 
d="M615 349h86q66 0 93 23t27 72q0 21 -5.5 39.5t-18.5 32.5t-33.5 22t-50.5 8h-98v-197zM615 1397v-519h97q116 0 204 -20t152.5 -53.5t107 -77t68 -90t36 -93t10.5 -85.5q0 -239 -124.5 -349t-383.5 -110h-647v1397h480z" />
    <glyph glyph-name="afii10045" unicode="&#x42b;" horiz-adv-x="2091" 
d="M615 349h86q66 0 93 23t27 72q0 21 -5.5 39.5t-18.5 32.5t-33.5 22t-50.5 8h-98v-197zM615 1397v-519h97q116 0 204 -20t152.5 -53.5t107 -77t68 -90t36 -93t10.5 -85.5q0 -239 -124.5 -349t-383.5 -110h-647v1397h480zM1453 0v1397h501v-1397h-501z" />
    <glyph glyph-name="afii10048" unicode="&#x42e;" horiz-adv-x="2345" 
d="M135 0v1397h501v-491h135q29 117 89.5 212.5t153.5 163.5t219.5 106t286.5 39q187 1 329.5 -55.5t238.5 -155.5t144.5 -233t47.5 -288q-2 -157 -51.5 -290t-145 -229.5t-237 -150.5t-326.5 -53q-159 1 -286.5 39t-222.5 106t-157 163t-89 209h-129v-489h-501zM1517 1026
q-70 0 -122 -26.5t-87.5 -71.5t-53.5 -105.5t-20 -127.5q-2 -66 17.5 -124.5t57 -102.5t91 -69.5t119.5 -25.5q61 0 111 26t86 70t56 103t20 124q0 63 -19 122.5t-54.5 105.5t-86.5 74t-115 28z" />
    <glyph glyph-name="afii10049" unicode="&#x42f;" horiz-adv-x="1450" 
d="M-25 98q94 94 184 194.5t158 197.5q-53 33 -100.5 75.5t-83 97t-56.5 122.5t-21 151q0 88 26 156t71 119.5t105 87t128 57t140 31.5t141 10h623v-1397h-501v352h-20q-38 -63 -89 -133.5t-106.5 -138.5t-111.5 -126.5t-102 -97.5zM789 1012h-108q-29 0 -54 -8.5
t-43.5 -25.5t-29.5 -42.5t-11 -59.5q0 -27 10 -52t31.5 -44.5t56.5 -31t86 -11.5h62v275z" />
    <glyph glyph-name="afii10050" unicode="&#x490;" horiz-adv-x="1214" 
d="M654 1397v216h505v-617h-523v-996h-501v1397h519z" />
    <glyph glyph-name="afii10051" unicode="&#x402;" horiz-adv-x="1632" 
d="M-10 996v401h1182v-401h-334v-124q63 22 133 33.5t155 11.5q137 0 232 -29t154 -81t85.5 -123.5t26.5 -155.5v-69q0 -96 -29.5 -184.5t-88.5 -155.5t-149.5 -107t-211.5 -40q-75 0 -124.5 7.5t-91.5 23.5l53 335l42 -2q34 0 55 9t33 23t16.5 30.5t5.5 31.5v21
q-2 33 -34.5 49t-92.5 16q-21 0 -45.5 -4t-47.5 -10.5t-43 -15.5t-33 -19v-467h-501v996h-347z" />
    <glyph glyph-name="afii10052" unicode="&#x403;" horiz-adv-x="1184" 
d="M1159 1397v-401h-523v-996h-501v1397h1024zM499 1637l207 404l349 -179l-329 -351z" />
    <glyph glyph-name="afii10054" unicode="&#x405;" horiz-adv-x="1286" 
d="M162 470q118 -45 218.5 -71t194.5 -26q71 0 106.5 10t35.5 34q0 15 -14.5 28t-40 24t-59 20.5t-72.5 17.5q-100 23 -186 56t-149 82.5t-99 119t-36 167.5q0 117 36 209t111.5 155.5t191.5 97t276 33.5q54 0 123.5 -8.5t142.5 -25.5t143 -41.5t125 -57.5l-137 -335
q-33 12 -74.5 24t-86.5 21.5t-91 15.5t-87 6q-91 0 -131.5 -11.5t-40.5 -40.5q0 -15 13 -27t37 -22t57 -18.5t72 -17.5q240 -59 357.5 -166t117.5 -273q0 -114 -36 -202.5t-109.5 -150t-184.5 -93.5t-262 -32q-102 0 -186.5 10.5t-157 29t-137 44t-125.5 55.5z" />
    <glyph glyph-name="afii10055" unicode="&#x406;" horiz-adv-x="774" 
d="M135 0v1397h501v-1397h-501z" />
    <glyph glyph-name="afii10056" unicode="&#x407;" horiz-adv-x="774" 
d="M135 0v1397h501v-1397h-501zM138 1897q116 0 169 -44.5t53 -122.5q0 -80 -52.5 -122.5t-162.5 -42.5q-117 0 -170 45.5t-53 123.5q0 77 52 120t164 43zM658 1897q116 0 169 -44.5t53 -122.5q0 -80 -53 -122.5t-162 -42.5q-117 0 -170 45.5t-53 123.5q0 77 52 120t164 43z
" />
    <glyph glyph-name="afii10057" unicode="&#x408;" horiz-adv-x="963" 
d="M827 482q0 -127 -24.5 -222.5t-77 -159.5t-135 -96t-197.5 -32q-49 0 -99 5.5t-98 14.5t-92 21.5t-81 27.5l65 358q15 -5 34.5 -10t40.5 -8.5t42 -5.5t39 -2q44 0 63 32t19 91v901h501v-915z" />
    <glyph glyph-name="afii10058" unicode="&#x409;" horiz-adv-x="2236" 
d="M1537 1397v-519h97q116 0 204 -20t152.5 -53.5t107 -77t68 -90t36 -93t10.5 -85.5q0 -239 -124.5 -349t-383.5 -110h-671v996h-291v-170q0 -83 -6 -179t-24 -190.5t-50.5 -182t-84.5 -155t-126.5 -107.5t-177.5 -40q-35 0 -73.5 2t-70.5 5q-38 3 -75 7l-14 349l86 13
q28 4 47 36.5t32 80.5t20 105t10.5 110t4 94.5t0.5 58.5v564h1297zM1537 349h86q65 0 92.5 23t27.5 72q0 21 -5.5 39.5t-18.5 32.5t-33.5 22t-50.5 8h-98v-197z" />
    <glyph glyph-name="afii10059" unicode="&#x40a;" horiz-adv-x="2271" 
d="M1556 1397v-519h97q116 0 204 -20t152.5 -53.5t107 -77t68 -90t36 -93t10.5 -85.5q0 -239 -124.5 -349t-383.5 -110h-668v520h-419v-520h-501v1397h501v-516h419v516h501zM1556 349h86q66 0 93 23t27 72q0 21 -5.5 39.5t-18.5 32.5t-33.5 22t-50.5 8h-98v-197z" />
    <glyph glyph-name="afii10060" unicode="&#x40b;" horiz-adv-x="1729" 
d="M577 715q55 47 113 84.5t124.5 63.5t143 40t168.5 14q137 0 232 -29t154 -81t85.5 -123.5t26.5 -155.5v-528h-490v448q0 35 -33 51.5t-94 16.5q-24 0 -52 -5t-53.5 -13t-46 -19.5t-29.5 -23.5zM-10 996v401h1175v-401h-337v-996h-501v996h-337z" />
    <glyph glyph-name="afii10061" unicode="&#x40c;" horiz-adv-x="1548" 
d="M135 0v1397h501v-446q50 56 87.5 108.5t69 106.5t59.5 110.5t59 120.5h542q-30 -81 -73.5 -164.5t-96.5 -164.5t-114.5 -157.5t-127.5 -144.5q41 -69 95.5 -149t118 -163t133.5 -165.5t142 -156.5l-369 -242q-59 48 -124 117.5t-128.5 149.5t-121 165.5t-101.5 165.5
q-13 -7 -25.5 -13t-24.5 -11v-464h-501zM609 1623l207 404l349 -179l-329 -351z" />
    <glyph glyph-name="afii10062" unicode="&#x40e;" horiz-adv-x="1536" 
d="M226 28q43 48 78.5 88t66.5 78t58.5 78t54.5 87q-84 128 -156 259.5t-126 278.5q-32 87 -57.5 159t-44.5 132.5t-32.5 112t-22.5 96.5h544q3 -85 16.5 -172t41.5 -193q17 -66 44 -129.5t61 -135.5h25q29 58 56 118.5t44 135.5q31 136 43.5 233.5t15.5 142.5h545
q-13 -87 -52.5 -219.5t-107.5 -297.5q-67 -163 -139.5 -291t-134.5 -230q-30 -53 -70.5 -122.5t-86.5 -142t-94.5 -143.5t-92.5 -127zM768 1521q-86 0 -147 16.5t-102 43t-65.5 60t-38.5 66.5t-20 62.5t-10 48.5l266 47q6 -23 13 -42.5t19 -33t32 -21t54 -7.5q33 0 52.5 7.5
t30.5 21t17.5 32.5t13.5 42l267 -46q-4 -19 -10 -48.5t-20 -62.5t-38.5 -66.5t-65.5 -60t-101.5 -43t-146.5 -16.5z" />
    <glyph glyph-name="afii10065" unicode="&#x430;" horiz-adv-x="1271" 
d="M25 477q0 160 41 273.5t123 186t203.5 106.5t283.5 34q65 0 135 -10t137 -27t126.5 -39.5t104.5 -47.5v-953h-425l-48 117q-12 -15 -38 -39.5t-63 -48t-83.5 -40.5t-99.5 -17q-99 0 -173.5 38.5t-124 106t-74.5 160t-25 200.5zM494 509q0 -48 10.5 -79t28 -49t38.5 -25.5
t42 -7.5q23 0 44.5 9t41.5 20v314q-13 4 -32.5 7t-59.5 3q-28 0 -49 -9t-35.5 -31t-21.5 -59t-7 -93z" />
    <glyph glyph-name="afii10066" unicode="&#x431;" horiz-adv-x="1276" 
d="M43 667q0 154 26.5 274.5t73.5 211.5t110.5 154t137 102.5t154 57.5t160.5 18q69 0 119 1.5t89 7t71.5 16t67.5 28.5l136 -345q-76 -50 -176.5 -76t-234.5 -30q-47 -1 -84 -7.5t-65 -22.5t-46.5 -42t-28.5 -66q26 12 51 21t51.5 15t56.5 9t67 3q115 0 198.5 -45
t137.5 -118t80 -166.5t26 -189.5q0 -113 -36 -206t-108.5 -160t-181.5 -103.5t-256 -36.5q-167 0 -281 46t-184 134.5t-100.5 218t-30.5 296.5zM536 573q-1 -4 -2 -16t-2 -25.5t-1.5 -25.5t-0.5 -16q0 -31 6.5 -57t20.5 -45t36.5 -29.5t54.5 -10.5q54 0 80 31.5t26 79.5
q0 23 -7 48t-20.5 46t-35 35t-49.5 14q-17 0 -29 -1t-23 -4t-23.5 -9t-30.5 -15z" />
    <glyph glyph-name="afii10067" unicode="&#x432;" horiz-adv-x="1288" 
d="M94 0v1038h711q78 0 146 -18t118 -53.5t79 -87.5t29 -120q0 -47 -16.5 -81.5t-40.5 -59.5t-51.5 -41t-48.5 -26v-7q41 -14 76.5 -38t62 -57t42 -74t15.5 -89q0 -63 -23 -116t-69.5 -90.5t-117.5 -58.5t-167 -21h-745zM574 299h106q37 0 37 49q0 48 -39 48h-104v-97z
M574 662h94q17 0 29.5 11.5t12.5 34.5t-12.5 34.5t-32.5 11.5h-91v-92z" />
    <glyph glyph-name="afii10068" unicode="&#x433;" horiz-adv-x="1036" 
d="M992 1038v-376h-418v-662h-480v1038h898z" />
    <glyph glyph-name="afii10070" unicode="&#x435;" horiz-adv-x="1243" 
d="M533 421q8 -21 23 -38t38.5 -30t58 -20t81.5 -7q49 0 89 4.5t76 12.5t70.5 20t72.5 27l112 -290q-45 -29 -104 -52.5t-125 -40.5t-134.5 -26t-131.5 -9q-146 0 -256.5 37t-184.5 106.5t-111 169.5t-37 226q0 152 45 259.5t125 175.5t190.5 99.5t242.5 31.5
q127 0 223.5 -33.5t161 -87.5t97.5 -121t33 -134q0 -56 -16.5 -107t-58.5 -89.5t-115 -61t-186 -22.5h-279zM662 753q-70 0 -103 -36t-40 -90h173q35 0 51.5 18t16.5 43q0 12 -4.5 24t-15.5 21t-30 14.5t-48 5.5z" />
    <glyph glyph-name="afii10071" unicode="&#x451;" horiz-adv-x="1243" 
d="M533 421q8 -21 23 -38t38.5 -30t58 -20t81.5 -7q49 0 89 4.5t76 12.5t70.5 20t72.5 27l112 -290q-45 -29 -104 -52.5t-125 -40.5t-134.5 -26t-131.5 -9q-146 0 -256.5 37t-184.5 106.5t-111 169.5t-37 226q0 152 45 259.5t125 175.5t190.5 99.5t242.5 31.5
q127 0 223.5 -33.5t161 -87.5t97.5 -121t33 -134q0 -56 -16.5 -107t-58.5 -89.5t-115 -61t-186 -22.5h-279zM662 753q-70 0 -103 -36t-40 -90h173q35 0 51.5 18t16.5 43q0 12 -4.5 24t-15.5 21t-30 14.5t-48 5.5zM396 1485q116 0 169 -44.5t53 -122.5q0 -80 -52.5 -122.5
t-162.5 -42.5q-117 0 -170 45.5t-53 123.5q0 77 52 120t164 43zM916 1485q116 0 169 -44.5t53 -122.5q0 -80 -53 -122.5t-162 -42.5q-117 0 -170 45.5t-53 123.5q0 77 52 120t164 43z" />
    <glyph glyph-name="afii10072" unicode="&#x436;" horiz-adv-x="2108" 
d="M2005 1038q-26 -76 -61.5 -142.5t-77.5 -124.5t-89 -108t-96 -92q33 -61 85 -128t108.5 -130t110 -117.5t90.5 -90.5l-349 -221q-46 33 -102 83t-112 110t-107 126t-87 129q-6 -3 -12 -6.5t-11 -5.5v-320h-480v320l-24 12q-36 -63 -87 -129t-107 -126t-112 -110t-101 -83
l-349 221q24 24 56.5 57t69 71t74.5 80.5t74 86t66.5 87t52.5 84.5q-49 42 -95.5 92t-88.5 108t-77.5 124.5t-61.5 142.5h496q16 -37 39 -76t50.5 -75.5t59.5 -69.5t65 -58v279h480v-279q33 25 64.5 58t59.5 69.5t51 75.5t39 76h496v0z" />
    <glyph glyph-name="afii10074" unicode="&#x438;" 
d="M777 0l10 254h-4q-34 -30 -64.5 -60.5t-63 -62t-69.5 -64t-82 -67.5h-406v1038h454l-10 -303h6q49 52 81.5 91t61 72.5t58.5 66.5t72 73h400v-1038h-444z" />
    <glyph glyph-name="afii10075" unicode="&#x439;" horiz-adv-x="1348" 
d="M777 0l10 254h-4q-34 -30 -64.5 -60.5t-63 -62t-69.5 -64t-82 -67.5h-406v1038h454l-10 -303h6q49 52 81.5 91t61 72.5t58.5 66.5t72 73h400v-1038h-444zM686 1143q-86 0 -147 16.5t-102 43t-65.5 60t-38.5 66.5t-20 62.5t-10 48.5l266 47q6 -23 13 -42.5t19 -33t32 -21
t54 -7.5q33 0 52.5 7.5t30.5 21t17.5 32.5t13.5 42l267 -46q-4 -19 -10 -48.5t-20 -62.5t-38.5 -66.5t-65.5 -60t-101.5 -43t-146.5 -16.5z" />
    <glyph glyph-name="afii10076" unicode="&#x43a;" horiz-adv-x="1360" 
d="M1284 1038q-26 -76 -61.5 -142.5t-77.5 -124.5t-89 -108t-96 -92q33 -61 85 -128t108.5 -130t110 -117.5t90.5 -90.5l-349 -221q-46 33 -102 83t-112 110t-107 126t-87 129q-6 -3 -12 -6.5t-11 -5.5v-320h-480v1038h480v-279q33 25 64.5 58t59.5 69.5t51 75.5t39 76h496
v0z" />
    <glyph glyph-name="afii10077" unicode="&#x43b;" horiz-adv-x="1448" 
d="M873 661h-173v-20q0 -64 -11 -138t-34.5 -148.5t-60 -143.5t-86 -122t-113.5 -85t-143 -32q-35 0 -73.5 2t-70.5 5q-38 3 -74 7l-14 337q23 2 43 5t42 8q31 8 52.5 45.5t34.5 91.5t20 117.5t10.5 124t4 111t1.5 78.5v134h1124v-1038h-479v661z" />
    <glyph glyph-name="afii10069" unicode="&#x434;" horiz-adv-x="1477" 
d="M94 376q47 43 72.5 103t37 128.5t13 141t1.5 140.5v149h1072v-662h116v-528h-480v152h-423v-152h-480v528h71zM680 633q0 -69 -11.5 -133.5t-37.5 -123.5h180v285h-131v-28z" />
    <glyph glyph-name="afii10080" unicode="&#x43e;" horiz-adv-x="1319" 
d="M70 519q0 126 40.5 229t116.5 176t184.5 113t245.5 40q144 0 254.5 -41.5t186 -116t114.5 -176t39 -221.5q0 -128 -41 -229.5t-117.5 -173t-186 -109.5t-245.5 -38q-138 0 -247.5 37.5t-186 108t-117 172t-40.5 229.5zM539 522q0 -51 9.5 -84.5t26 -53.5t39 -28t49.5 -8
q26 0 48 8t37.5 28t24.5 54t9 86t-9 86t-25 54t-38 28.5t-48 8.5t-48.5 -9t-39 -29.5t-26 -55t-9.5 -85.5z" />
    <glyph glyph-name="afii10082" unicode="&#x440;" horiz-adv-x="1317" 
d="M94 893q37 30 102.5 62t145.5 58.5t167 44t168 17.5q168 0 276.5 -37.5t171.5 -108t87.5 -172.5t24.5 -231q0 -66 -9 -133t-29.5 -128.5t-53 -115t-79 -93t-108.5 -62t-141 -22.5q-77 0 -136 12t-107 26v-431h-480v1314zM574 352q12 -2 30 -3t50 -1q23 0 45.5 4t40 20
t28.5 49t11 91q0 55 -6.5 89.5t-21 54.5t-37 27.5t-54.5 7.5q-23 0 -45.5 -3.5t-40.5 -11.5v-324z" />
    <glyph glyph-name="afii10083" unicode="&#x441;" horiz-adv-x="1126" 
d="M70 526q0 118 35 219t105 174.5t174 115.5t241 42q111 0 218.5 -25.5t207.5 -82.5l-117 -305q-22 7 -40.5 13.5t-39 12t-46 8.5t-60.5 3q-108 0 -158.5 -44t-50.5 -141q0 -55 20.5 -88.5t50.5 -51.5t64 -23.5t61 -5.5q60 0 107 10.5t91 26.5l119 -304q-40 -20 -83 -39.5
t-95.5 -34.5t-117.5 -24.5t-148 -9.5q-102 0 -181.5 23.5t-139.5 64.5t-101.5 95.5t-67 116t-37 127t-11.5 127.5z" />
    <glyph glyph-name="afii10084" unicode="&#x442;" horiz-adv-x="1130" 
d="M0 662v376h1118v-376h-314v-662h-480v662h-324z" />
    <glyph glyph-name="afii10085" unicode="&#x443;" horiz-adv-x="1319" 
d="M179 -331q43 48 78.5 88t66.5 78t58.5 78t54.5 87h-55q-44 68 -85.5 152.5t-78.5 177.5t-69 189.5t-56.5 189.5t-41.5 177t-24 152l512 10q3 -71 10.5 -153.5t20.5 -167.5t32.5 -169.5t46.5 -159.5h25q16 35 30.5 90t26.5 118.5t21.5 131t16 128t9.5 108.5t3 74l513 -10
q-3 -62 -20 -148.5t-44 -184t-62 -200t-73 -197t-77 -175t-74 -133.5q-29 -53 -70 -122.5t-87 -142t-94 -143.5t-93 -127z" />
    <glyph glyph-name="afii10087" unicode="&#x445;" horiz-adv-x="1325" 
d="M45 0q12 41 24 77t26 70.5t31 70t39 76.5q25 46 47.5 80t44.5 61t42.5 48.5t40.5 42.5q-24 31 -47.5 58.5t-46 55.5t-43 57.5t-38.5 63.5q-22 42 -39 78.5t-29.5 70t-21.5 65t-15 63.5l517 10q5 -30 10.5 -69.5t17.5 -77.5q8 -26 15 -44.5t13.5 -33t13 -26t12.5 -22.5h9
q17 29 29.5 59t23.5 66q12 36 18.5 78.5t8.5 69.5l519 -10q-8 -35 -16.5 -66t-20.5 -63t-28.5 -68.5t-41.5 -82.5q-24 -46 -47.5 -78.5t-45.5 -58t-42 -47.5t-38 -46q42 -44 85.5 -98t80.5 -120q26 -47 44 -83.5t31.5 -71.5t25.5 -71.5t27 -83.5l-516 -10q-4 30 -11 64.5
t-24 81.5q-7 20 -15.5 43t-16.5 44t-15.5 39t-13.5 27h-9q-6 -10 -14 -27t-16 -37t-16.5 -42.5t-15.5 -42.5q-11 -30 -17 -52t-10 -39.5t-6 -31.5t-4 -27z" />
    <glyph glyph-name="afii10078" unicode="&#x43c;" horiz-adv-x="1741" 
d="M70 0q2 70 4.5 128.5t5.5 115t6.5 115.5t8.5 129q13 168 29.5 308.5t30.5 241.5h600l103 -373h26l103 373h602q13 -99 30.5 -240t28.5 -312q6 -78 10 -145.5t7 -127t5 -112.5t4 -101h-492q1 25 0 65t-3 112q-2 81 -5 138t-8 83h-17l-123 -398h-309l-123 398h-18
q-2 -13 -4 -36t-3.5 -52.5t-2.5 -62.5l-2 -66q-1 -41 -1.5 -70t-1 -49t-1 -34.5t-0.5 -27.5h-490z" />
    <glyph glyph-name="afii10079" unicode="&#x43d;" horiz-adv-x="1440" 
d="M94 0v1038h481v-335h290v335h480v-1038h-480v328h-290v-328h-481z" />
    <glyph glyph-name="afii10081" unicode="&#x43f;" horiz-adv-x="1440" 
d="M1345 0h-480v663h-290v-663h-481v1038h1251v-1038z" />
    <glyph glyph-name="afii10086" unicode="&#x444;" horiz-adv-x="1731" 
d="M626 -461v442q-60 -9 -129 -9q-97 0 -179 43t-141 118t-92.5 175t-33.5 214q0 106 29 206t86 177.5t142 124.5t197 47q35 0 65 -2.5t56 -6.5v376h480v-376q25 4 54.5 6.5t64.5 2.5q75 0 138 -21.5t113 -59.5t88.5 -90.5t63.5 -114t38 -130.5t13 -139q0 -114 -33.5 -214
t-92.5 -175t-140.5 -118t-178.5 -43q-70 0 -128 9v-442h-480zM626 353v343q-10 0 -19.5 0.5t-17.5 0.5q-14 0 -29.5 -8t-29 -28t-22.5 -53.5t-9 -83.5q0 -49 8.5 -82t21 -52.5t28 -28t29.5 -8.5h40zM1141 697h-17t-18 -1v-343q8 -1 17.5 -0.5t20.5 0.5q14 0 29.5 8.5
t28.5 28t21.5 52.5t8.5 82q0 50 -9 83.5t-22.5 53.5t-29.5 28t-30 8z" />
    <glyph glyph-name="afii10088" unicode="&#x446;" horiz-adv-x="1450" 
d="M575 375h269v663h480v-660h105v-529h-480v151h-855v1038h481v-663z" />
    <glyph glyph-name="afii10089" unicode="&#x447;" horiz-adv-x="1278" 
d="M702 0v349q-40 -44 -110.5 -70.5t-157.5 -26.5q-102 0 -176 40t-121.5 106t-70.5 150.5t-23 173.5v316h480v-298q0 -39 9 -61.5t22.5 -34t29 -14t29.5 -2.5q29 0 52 10t37 18v382h480v-1038h-480z" />
    <glyph glyph-name="afii10090" unicode="&#x448;" horiz-adv-x="1868" 
d="M575 365h126v673h469v-673h123v673h480v-1038h-1679v1038h481v-673z" />
    <glyph glyph-name="afii10091" unicode="&#x449;" horiz-adv-x="1919" 
d="M1878 -151h-480v151h-1304v1038h481v-673h126v673h469v-673h123v673h480v-673h105v-516z" />
    <glyph glyph-name="afii10092" unicode="&#x44a;" horiz-adv-x="1395" 
d="M35 1038h731v-326h169q82 0 144 -17.5t108 -47.5t76.5 -69t49 -81.5t26 -86t7.5 -82.5q0 -75 -28 -135.5t-80.5 -103t-127.5 -66t-168 -23.5h-656v662h-251v376zM766 289h57q33 0 49 18.5t16 53.5t-14.5 55t-50.5 20h-57v-147z" />
    <glyph glyph-name="afii10094" unicode="&#x44c;" horiz-adv-x="1206" 
d="M574 289h50q41 0 56.5 18.5t15.5 54.5t-15 55t-57 19h-50v-147zM574 1038v-326h181q108 0 184 -34.5t124 -89.5t70 -122t22 -133q0 -80 -30.5 -141.5t-84 -104.5t-127.5 -65t-161 -22h-658v1038h480z" />
    <glyph glyph-name="afii10093" unicode="&#x44b;" horiz-adv-x="1868" 
d="M574 289h50q41 0 56.5 18.5t15.5 54.5t-15 55t-57 19h-50v-147zM574 1038v-326h181q108 0 184 -34.5t124 -89.5t70 -122t22 -133q0 -80 -30.5 -141.5t-84 -104.5t-127.5 -65t-161 -22h-658v1038h480zM1292 0v1038h480v-1038h-480z" />
    <glyph glyph-name="afii10096" unicode="&#x44e;" horiz-adv-x="1894" 
d="M94 0v1038h480v-310h171q23 75 64.5 138.5t102.5 110.5t142.5 73.5t184.5 26.5q143 0 253.5 -41.5t186 -116t114.5 -176t39 -221.5q0 -128 -40 -229.5t-115 -173t-183 -109.5t-245 -38q-104 0 -186.5 25.5t-144.5 70.5t-105 107t-67 136h-172v-311h-480zM1120 522
q0 -51 9.5 -84.5t26 -53.5t39.5 -28t49 -8t48 8t38 28t25 54t9 86t-9 86t-25 54t-38 28.5t-49 8.5q-26 0 -48.5 -9t-39 -29.5t-26 -55t-9.5 -85.5z" />
    <glyph glyph-name="afii10098" unicode="&#x491;" horiz-adv-x="1036" 
d="M512 1038v153h480v-529h-418v-662h-480v1038h418z" />
    <glyph glyph-name="afii10102" unicode="&#x455;" horiz-adv-x="1092" 
d="M143 405q31 -15 70 -29.5t83 -26.5t91 -19.5t95 -7.5t65.5 5t17.5 16q0 12 -17.5 19.5t-47.5 13.5t-69.5 12t-82.5 17q-61 15 -112 37.5t-88 59.5t-58 91.5t-21 132.5q0 68 21 121t56.5 92t82.5 65.5t100 42.5t108.5 23t107.5 7q84 0 155 -9.5t129.5 -24.5t104.5 -34.5
t81 -39.5l-107 -305q-75 28 -144.5 44t-135.5 16q-37 0 -64 -3t-27 -21q0 -13 15 -19t40.5 -9.5t60 -8t73.5 -14.5q73 -19 130 -45.5t96 -65.5t59.5 -92t20.5 -125q0 -71 -20.5 -124t-55.5 -92t-82.5 -64.5t-101.5 -41t-111.5 -21.5t-113.5 -6q-103 0 -187.5 12.5t-149 31
t-109 39t-68.5 35.5z" />
    <glyph glyph-name="afii10103" unicode="&#x456;" horiz-adv-x="670" 
d="M95 0v1038h480v-1038h-480zM333 1563q70 0 121.5 -14.5t85 -41t49.5 -64.5t16 -85q0 -99 -65 -151t-201 -52q-142 0 -207.5 56t-65.5 151t64.5 148t202.5 53z" />
    <glyph glyph-name="afii10104" unicode="&#x457;" horiz-adv-x="670" 
d="M95 0v1038h480v-1038h-480zM77 1506q116 0 169 -44.5t53 -122.5q0 -80 -52.5 -122.5t-162.5 -42.5q-117 0 -170 45.5t-53 123.5q0 77 52 120t164 43zM597 1506q116 0 169 -44.5t53 -122.5q0 -80 -53 -122.5t-162 -42.5q-117 0 -170 45.5t-53 123.5q0 77 52 120t164 43z
" />
    <glyph glyph-name="afii10105" unicode="&#x458;" horiz-adv-x="670" 
d="M-201 -100q62 -15 104 -24.5t82 -9.5q38 0 60 14.5t33 34.5t14 41.5t3 35.5v1046h480v-1049q0 -96 -28.5 -184.5t-89.5 -155.5t-157.5 -107t-232.5 -40q-91 0 -178.5 20t-162.5 48zM336 1563q70 0 121.5 -14.5t85 -41t49.5 -64.5t16 -85q0 -99 -65 -151t-201 -52
q-142 0 -207.5 56t-65.5 151t64.5 148t202.5 53z" />
    <glyph glyph-name="afii10100" unicode="&#x453;" horiz-adv-x="1047" 
d="M992 1038v-376h-418v-662h-480v1038h898zM368 1264l207 404l349 -179l-329 -351z" />
    <glyph glyph-name="afii10099" unicode="&#x452;" 
d="M747 1104h-174v-42q44 7 87 11t86 4q137 0 230.5 -32.5t150.5 -88t82 -130t25 -158.5v-659q0 -96 -28.5 -184.5t-89.5 -155.5t-157.5 -107t-232.5 -40q-91 0 -179 20t-163 48l74 330q62 -15 103.5 -24.5t82.5 -9.5q34 0 55.5 12.5t33.5 30.5t16 38t5 35v606
q0 27 -15.5 50t-49.5 23q-29 0 -61.5 -7.5t-54.5 -19.5v-654h-480v1104h-120v287h120v53h480v-53h174v-287z" />
    <glyph glyph-name="afii10108" unicode="&#x45b;" 
d="M113 1464h480v-454q12 5 31.5 16t48 22.5t67.5 20t90 8.5q73 0 148 -20t136.5 -67.5t100.5 -126t39 -195.5v-668h-480v580q0 19 -1.5 40t-9 38.5t-22 29t-40.5 11.5q-32 0 -60 -11t-48 -22v-666h-480v1464zM833 1104h-774v287h774v-287z" />
    <glyph glyph-name="afii10106" unicode="&#x459;" horiz-adv-x="1995" 
d="M1545 712q108 0 184 -34.5t124 -89.5t70 -122t22 -133q0 -80 -30.5 -141.5t-84.5 -104.5t-128 -65t-161 -22h-657v661h-192v-20q0 -64 -10 -138t-31 -148.5t-54.5 -143.5t-81 -122t-110 -85t-141.5 -32q-35 0 -73.5 2t-70.5 5q-38 3 -74 7l-14 337q23 2 43 5t42 8
q31 8 52.5 45.5t34.5 91.5t20 117.5t10.5 124t4 111t1.5 78.5v134h1124v-326h181zM1364 289h49q42 0 57.5 18.5t15.5 54.5t-15.5 55t-57.5 19h-49v-147z" />
    <glyph glyph-name="afii10107" unicode="&#x45a;" horiz-adv-x="1970" 
d="M1345 1038v-326h181q108 0 184 -34.5t124 -89.5t70 -122t22 -133q0 -80 -30.5 -141.5t-84.5 -104.5t-128 -65t-161 -22h-657v328h-290v-328h-481v1038h481v-335h290v335h480zM1345 289h49q42 0 57.5 18.5t15.5 54.5t-15.5 55t-57.5 19h-49v-147z" />
    <glyph glyph-name="afii10109" unicode="&#x45c;" horiz-adv-x="1350" 
d="M1284 1038q-26 -76 -61.5 -142.5t-77.5 -124.5t-89 -108t-96 -92q33 -61 85 -128t108.5 -130t110 -117.5t90.5 -90.5l-349 -221q-46 33 -102 83t-112 110t-107 126t-87 129q-6 -3 -12 -6.5t-11 -5.5v-320h-480v1038h480v-279q33 25 64.5 58t59.5 69.5t51 75.5t39 76h496
v0zM551 1255l207 404l349 -179l-329 -351z" />
    <glyph glyph-name="afii10110" unicode="&#x45e;" horiz-adv-x="1319" 
d="M179 -331q43 48 78.5 88t66.5 78t58.5 78t54.5 87h-55q-44 68 -85.5 152.5t-78.5 177.5t-69 189.5t-56.5 189.5t-41.5 177t-24 152l512 10q3 -71 10.5 -153.5t20.5 -167.5t32.5 -169.5t46.5 -159.5h25q16 35 30.5 90t26.5 118.5t21.5 131t16 128t9.5 108.5t3 74l513 -10
q-3 -62 -20 -148.5t-44 -184t-62 -200t-73 -197t-77 -175t-74 -133.5q-29 -53 -70 -122.5t-87 -142t-94 -143.5t-93 -127zM665 1162q-86 0 -147 16.5t-102 43t-65.5 60t-38.5 66.5t-20 62.5t-10 48.5l266 47q6 -23 13 -42.5t19 -33t32 -21t54 -7.5q33 0 52.5 7.5t30.5 21
t17.5 32.5t13.5 42l267 -46q-4 -19 -10 -48.5t-20 -62.5t-38.5 -66.5t-65.5 -60t-101.5 -43t-146.5 -16.5z" />
    <glyph glyph-name="afii10053" unicode="&#x404;" horiz-adv-x="1382" 
d="M584 517q38 -81 113.5 -112.5t175.5 -31.5q50 0 96 8t86 20t73.5 25.5t57.5 24.5l137 -335q-41 -28 -104.5 -54t-138 -46t-153.5 -32t-149 -12q-90 0 -178 12t-167.5 42t-147 81.5t-117 131t-77.5 190t-28 259.5q0 148 28 260.5t77.5 195t117 137t147 87t167.5 46
t178 13.5q81 0 162 -13t153.5 -33.5t132 -46.5t97.5 -52l-135 -335q-28 12 -61.5 26t-73 25.5t-84.5 19.5t-96 8q-50 0 -94 -7t-80 -23t-64 -43t-47 -66h390v-370h-394z" />
    <glyph glyph-name="afii10047" unicode="&#x42d;" horiz-adv-x="1397" 
d="M420 887h388q-38 79 -110.5 109t-172.5 30q-51 0 -96.5 -8t-85 -19.5t-73 -25.5t-60.5 -26l-136 335q37 26 97 52t132.5 46.5t153.5 33.5t162 13q90 0 178 -13.5t167.5 -46t147 -87t117 -137t77.5 -195t28 -260.5t-28 -259t-77.5 -190.5t-117 -131t-147 -81.5t-167.5 -42
t-178 -12q-71 0 -149.5 12t-152.5 32t-138 46t-105 54l137 335q24 -11 57.5 -24.5t73.5 -25.5t86.5 -20t96.5 -8q100 0 175 31.5t113 112.5h-393v370z" />
    <glyph glyph-name="afii10097" unicode="&#x44f;" horiz-adv-x="1226" 
d="M95 634q0 88 24.5 152t65 109t94 73t112 43.5t118 21t112.5 5.5h504v-1038h-458v228h110q-6 -3 -38.5 -5t-81.5 0t-110 10t-123 26t-121.5 47.5t-105.5 74.5t-74 107.5t-28 145.5zM667 693h-93q-22 0 -34 -5.5t-17.5 -14t-6.5 -17.5t-1 -16q0 -2 1 -10.5t6.5 -17.5
t16.5 -16.5t32 -7.5h96v105zM47 97q50 46 95 86t87 82.5t82.5 91.5t81.5 112l347 -158q-7 -22 -28.5 -58.5t-51 -79.5t-65 -89t-71 -87t-68 -73t-56.5 -47z" />
    <glyph glyph-name="afii10101" unicode="&#x454;" horiz-adv-x="1090" 
d="M63 526q0 129 35 231.5t105 173.5t174 108.5t241 37.5q111 0 215 -13.5t190 -54.5l-97 -300q-24 4 -64.5 15.5t-100.5 11.5q-49 0 -84.5 -3.5t-61.5 -12.5t-44 -24t-32 -38h287v-266h-278q19 -24 42 -37.5t49.5 -21t55 -9.5t58.5 -2q60 0 101.5 10t70.5 17l99 -309
q-28 -16 -66.5 -28.5t-90 -21.5t-117.5 -13.5t-149 -4.5q-103 0 -182.5 21.5t-139 60t-101 91t-67 114t-37 129.5t-11.5 138z" />
    <glyph glyph-name="afii10095" unicode="&#x44d;" horiz-adv-x="1075" 
d="M1024 526q0 -70 -11.5 -138t-37 -129.5t-67 -114t-101 -91t-139.5 -60t-182 -21.5q-83 0 -149 4.5t-117.5 13.5t-90 21.5t-66.5 28.5l99 309q29 -7 70.5 -17t101.5 -10q30 0 58.5 2t55 9.5t49.5 21t42 37.5h-278v266h286q-14 23 -32 38t-44 24t-61.5 12.5t-83.5 3.5
q-60 0 -100.5 -11.5t-64.5 -15.5l-97 300q86 41 190 54.5t215 13.5q137 0 241 -37.5t173.5 -108.5t105 -173.5t35.5 -231.5z" />
    <glyph glyph-name="afii10073" unicode="&#x437;" horiz-adv-x="995" 
d="M43 984q31 19 76 36.5t98.5 30t113 20t121.5 7.5q114 0 199.5 -20.5t142 -58t84.5 -90.5t28 -117q0 -89 -47 -149t-130 -86q41 -18 76.5 -37.5t61.5 -48.5t41 -70.5t15 -102.5q0 -92 -39.5 -154t-104.5 -100t-150.5 -54.5t-176.5 -17.5q-102 -2 -210.5 21t-198.5 71
l104 286q31 -11 56.5 -19.5t51 -13.5t55 -7.5t69.5 -2.5q15 0 30.5 2.5t27.5 8t19.5 13.5t7.5 19q0 20 -16.5 29t-42.5 9h-184v251h161q37 0 52 10t15 27q0 19 -16 33t-65 14q-33 0 -87 -6t-134 -38z" />
    <glyph glyph-name="napostrophe" unicode="&#x149;" horiz-adv-x="1831" 
d="M600 892q50 33 121.5 66.5t156.5 59.5t180.5 42.5t194.5 16.5q137 0 230.5 -32.5t150.5 -88t82 -130t25 -158.5v-668h-480v618q0 27 -15.5 50t-49.5 23q-29 0 -61 -6t-55 -16v-669h-480v892zM214 1124q146 0 214.5 -57t68.5 -156q3 -87 -19 -177t-60.5 -173t-89 -153
t-104.5 -118l-196 90q19 36 37.5 79.5t34 87t28 84.5t19.5 73q-59 7 -99 24.5t-64.5 45t-35.5 63.5t-11 80q0 97 67 152t210 55z" />
    <glyph glyph-name="lcommaaccent" unicode="&#x13c;" horiz-adv-x="670" 
d="M94 0v1464h480v-1464h-480zM269 -29q146 0 214.5 -57t68.5 -156q3 -87 -19 -177t-60.5 -173t-89 -153t-104.5 -118l-196 90q19 36 37.5 79.5t34 87t28 84.5t19.5 73q-59 7 -99 24.5t-64.5 45t-35.5 63.5t-11 80q0 97 67 152t210 55z" />
    <glyph glyph-name="g.end" horiz-adv-x="1298" 
d="M49 477q0 160 41.5 273.5t124 186t205.5 106.5t287 34q63 0 132 -10.5t136 -28t126 -39.5t101 -46v-909q0 -106 -31 -198.5t-97.5 -161.5t-171 -108.5t-250.5 -39.5q-150 0 -279 27.5t-229 75.5l98 290q68 -17 138.5 -27.5t155.5 -10.5q51 0 86.5 9t57.5 28t32 49t10 71
v53q-9 -12 -32 -31t-55 -36t-70.5 -29.5t-78.5 -12.5q-104 0 -185 35.5t-137 99t-85.5 153t-29.5 197.5zM518 509q0 -48 11 -76t28 -42.5t38.5 -18.5t42.5 -4q28 0 50 7t34 14v302q-10 3 -31.5 6.5t-51.5 3.5q-33 0 -56 -9t-37.5 -31t-21 -59t-6.5 -93z" />
    <glyph glyph-name="a.alt1000" horiz-adv-x="1186" 
d="M118 971q31 14 70.5 32.5t93.5 35t125 27.5t163 11q54 0 113.5 -5t116.5 -22t109.5 -49t91.5 -86.5t62.5 -134t23.5 -190.5v-590h-434l-23 88q-15 -17 -41.5 -37t-61 -37.5t-75 -29.5t-81.5 -12q-74 0 -136.5 22.5t-107.5 64.5t-70.5 101.5t-25.5 132.5q0 71 22 122
t58 86.5t81 57t90.5 34t87.5 18t71 9.5l175 20v16q0 15 -12 24t-33 13.5t-48 6t-57 1.5q-24 0 -52.5 -2.5t-59 -7.5t-61 -12t-58.5 -15zM616 428l-75 -10q-13 -2 -24.5 -9.5t-19.5 -18t-13 -22.5t-5 -24q0 -38 18.5 -56t48.5 -18q24 0 44.5 9t25.5 14v135z" />
    <glyph glyph-name="ae.alt1000" horiz-adv-x="1782" 
d="M118 971q31 14 70.5 32.5t93.5 35t125 27.5t163 11q38 0 78.5 -2.5t81.5 -9t81.5 -19.5t77.5 -34q70 33 153 49t177 16q127 0 223.5 -33.5t161 -87.5t97.5 -121t33 -134q0 -56 -19.5 -108.5t-65.5 -93t-122 -64.5t-189 -24h-249q16 -41 60 -63t131 -22q49 0 90.5 4
t79.5 11.5t74 17.5t74 21l102 -280q-45 -29 -104 -52.5t-125 -40.5t-134.5 -26t-131.5 -9q-64 0 -120 7t-107 21h-325l-23 88q-15 -17 -41.5 -37t-61 -37.5t-75 -29.5t-81.5 -12q-74 0 -136.5 22.5t-107.5 64.5t-70.5 101.5t-25.5 132.5q0 71 22 122t58 86.5t81 57t90.5 34
t87.5 18t71 9.5l175 20v16q0 15 -12 24t-33 13.5t-48 6t-57 1.5q-24 0 -52.5 -2.5t-59 -7.5t-61 -12t-58.5 -15zM1208 753q-28 0 -48.5 -7t-35.5 -19t-24.5 -28t-15.5 -34q1 -9 1.5 -18.5t0.5 -19.5h152q35 0 51.5 18t16.5 43q0 12 -4.5 24t-15.5 21t-30 14.5t-48 5.5z
M616 428l-75 -10q-13 -2 -24.5 -9.5t-19.5 -18t-13 -22.5t-5 -24q0 -38 18.5 -56t48.5 -18q24 0 44.5 9t25.5 14v135z" />
    <glyph glyph-name="e.1000" horiz-adv-x="1243" 
d="M543 411q16 -41 60 -63t131 -22q49 0 90.5 4t79.5 11.5t74 17.5t74 21l102 -280q-45 -29 -104 -52.5t-125 -40.5t-134.5 -26t-131.5 -9q-146 0 -256.5 37t-184.5 106.5t-111 169.5t-37 226q0 152 45 259.5t125 175.5t190.5 99.5t242.5 31.5q127 0 223.5 -33.5t161 -87.5
t97.5 -121t33 -134q0 -56 -19.5 -108.5t-65.5 -93t-122 -64.5t-189 -24h-249zM662 753q-35 0 -59 -11t-39 -29t-23.5 -40.5t-11.5 -45.5h163q35 0 51.5 18t16.5 43q0 12 -4.5 24t-15.5 21t-30 14.5t-48 5.5z" />
    <glyph glyph-name="afii10067.1000" horiz-adv-x="1288" 
d="M94 0v1038h711q78 0 146 -18t118 -53.5t79 -87.5t29 -120q0 -47 -16.5 -81.5t-40.5 -59.5t-51.5 -41t-48.5 -26v-7q41 -14 76.5 -38t62 -57t42 -74t15.5 -89q0 -63 -23 -116t-69.5 -90.5t-117.5 -58.5t-167 -21h-745zM574 299h106q37 0 37 49q0 48 -39 48h-104v-97z
M574 662h94q17 0 29.5 11.5t12.5 34.5t-12.5 34.5t-32.5 11.5h-91v-92z" />
    <glyph glyph-name="afii10073.1000" horiz-adv-x="995" 
d="M43 984q31 19 76 36.5t98.5 30t113 20t121.5 7.5q114 0 199.5 -20.5t142 -58t84.5 -90.5t28 -117q0 -89 -47 -149t-130 -86q41 -18 76.5 -37.5t61.5 -48.5t41 -70.5t15 -102.5q0 -92 -39.5 -154t-104.5 -100t-150.5 -54.5t-176.5 -17.5q-102 -2 -210.5 21t-198.5 71
l104 286q31 -11 56.5 -19.5t51 -13.5t55 -7.5t69.5 -2.5q15 0 30.5 2.5t27.5 8t19.5 13.5t7.5 19q0 20 -16.5 29t-42.5 9h-184v251h161q37 0 52 10t15 27q0 19 -16 33t-65 14q-33 0 -87 -6t-134 -38z" />
    <glyph glyph-name="afii10095.1000" horiz-adv-x="1075" 
d="M1024 526q0 -70 -11.5 -138t-37 -129.5t-67 -114t-101 -91t-139.5 -60t-182 -21.5q-83 0 -149 4.5t-117.5 13.5t-90 21.5t-66.5 28.5l99 309q15 -3 29 -8t31.5 -9t39.5 -7t52 -3t61.5 2t61.5 9.5t56.5 21t45.5 37.5h-278v266h286q-28 46 -86 62t-155 16q-30 0 -52 -3.5
t-38.5 -8t-29.5 -9t-25 -6.5l-97 300q86 41 190 54.5t215 13.5q137 0 241 -37.5t173.5 -108.5t105 -173.5t35.5 -231.5z" />
    <glyph glyph-name="g.alt1000" horiz-adv-x="1198" 
d="M91 628q0 110 40.5 194t109 140.5t160 85.5t193.5 29q49 0 94.5 -6.5t88.5 -18.5q37 29 87 52t115 23q50 0 89 -5t68 -12.5t48.5 -15.5t30.5 -15l-52 -241q-18 4 -38 7t-54 3q-6 0 -12 -0.5t-11 -1.5q26 -46 39.5 -100t13.5 -116q0 -110 -39.5 -188.5t-107.5 -128
t-159 -72.5t-194 -23q-41 0 -80 3q0 -24 11.5 -35t45.5 -11h151q111 0 185.5 -28t120.5 -72.5t65.5 -100.5t19.5 -112q0 -71 -30.5 -138.5t-99 -120t-177.5 -85t-265 -32.5q-104 0 -192 15.5t-151.5 50t-99 89t-35.5 132.5q0 27 6 52.5t11 45.5l369 -20q-1 -2 -1 -6
q0 -26 24 -38t76 -12q57 0 77.5 17t20.5 38q0 8 -2.5 18t-9.5 18.5t-21 14.5t-36 6l-166 1q-97 2 -158.5 22t-96 51.5t-47.5 72t-13 82.5q0 54 28.5 106.5t73.5 99.5q-54 50 -84 120t-30 166zM508 629q0 -41 26.5 -65.5t62.5 -24.5q18 0 34 7t28 19.5t19.5 29.5t7.5 38
q0 42 -25 68t-64 26t-64 -26.5t-25 -71.5z" />
    <glyph glyph-name="ij" unicode="&#x133;" horiz-adv-x="1386" 
d="M105 0v1038h480v-1038h-480zM343 1563q70 0 121.5 -14.5t85 -41t49.5 -64.5t16 -85q0 -99 -65 -151t-201 -52q-142 0 -207.5 56t-65.5 151t64.5 148t202.5 53zM490 -100q62 -15 104 -24.5t82 -9.5q38 0 60 14.5t33 34.5t14 41.5t3 35.5v1046h480v-1049
q0 -96 -28.5 -184.5t-89.5 -155.5t-157.5 -107t-232.5 -40q-91 0 -178.5 20t-162.5 48zM1027 1563q70 0 121.5 -14.5t85 -41t49.5 -64.5t16 -85q0 -99 -65 -151t-201 -52q-142 0 -207.5 56t-65.5 151t64.5 148t202.5 53z" />
    <glyph glyph-name="IJ" unicode="&#x132;" horiz-adv-x="1681" 
d="M135 0v1397h501v-1397h-501zM1531 482q0 -127 -24.5 -222.5t-77 -159.5t-135 -96t-197.5 -32q-49 0 -99 5.5t-98 14.5t-92 21.5t-81 27.5l65 358q15 -5 34.5 -10t40.5 -8.5t42 -5.5t39 -2q44 0 63 32t19 91v901h501v-915z" />
    <glyph glyph-name="g.alt" horiz-adv-x="1198" 
d="M91 628q0 110 40.5 194t109 140.5t160 85.5t193.5 29q49 0 94.5 -6.5t88.5 -18.5q37 29 87 52t115 23q50 0 89 -5t68 -12.5t48.5 -15.5t30.5 -15l-52 -241q-18 4 -38 7t-54 3q-6 0 -12 -0.5t-11 -1.5q26 -46 39.5 -100t13.5 -116q0 -110 -39.5 -188.5t-107.5 -128
t-159 -72.5t-194 -23q-41 0 -80 3q0 -24 11.5 -35t45.5 -11h151q111 0 185.5 -28t120.5 -72.5t65.5 -100.5t19.5 -112q0 -71 -30.5 -138.5t-99 -120t-177.5 -85t-265 -32.5q-104 0 -192 15.5t-151.5 50t-99 89t-35.5 132.5q0 27 6 52.5t11 45.5l369 -20q-1 -2 -1 -6
q0 -26 24 -38t76 -12q57 0 77.5 17t20.5 38q0 8 -2.5 18t-9.5 18.5t-21 14.5t-36 6l-166 1q-97 2 -158.5 22t-96 51.5t-47.5 72t-13 82.5q0 54 28.5 106.5t73.5 99.5q-54 50 -84 120t-30 166zM508 629q0 -41 26.5 -65.5t62.5 -24.5q18 0 34 7t28 19.5t19.5 29.5t7.5 38
q0 42 -25 68t-64 26t-64 -26.5t-25 -71.5z" />
    <glyph glyph-name="s.1000" horiz-adv-x="1092" 
d="M143 405q31 -15 70 -29.5t83 -26.5t91 -19.5t95 -7.5t65.5 5t17.5 16q0 12 -17.5 19.5t-47.5 13.5t-69.5 12t-82.5 17q-61 15 -112 37.5t-88 59.5t-58 91.5t-21 132.5q0 68 21 121t56.5 92t82.5 65.5t100 42.5t108.5 23t107.5 7q84 0 155 -9.5t129.5 -24.5t104.5 -34.5
t81 -39.5l-107 -305q-75 28 -144.5 44t-135.5 16q-37 0 -64 -3t-27 -21q0 -13 15 -19t40.5 -9.5t60 -8t73.5 -14.5q73 -19 130 -45.5t96 -65.5t59.5 -92t20.5 -125q0 -71 -20.5 -124t-55.5 -92t-82.5 -64.5t-101.5 -41t-111.5 -21.5t-113.5 -6q-103 0 -187.5 12.5t-149 31
t-109 39t-68.5 35.5z" />
    <glyph glyph-name="oe.1000" horiz-adv-x="1989" 
d="M70 519q0 126 40.5 229t116.5 176t184.5 113t245.5 40q144 0 254.5 -41.5t186 -116t114.5 -176t39 -221.5q0 -128 -41 -229.5t-117.5 -173t-186 -109.5t-245.5 -38q-138 0 -247.5 37.5t-186 108t-117 172t-40.5 229.5zM539 522q0 -51 9.5 -84.5t26 -53.5t39 -28t49.5 -8
q26 0 48 8t37.5 28t24.5 54t9 86t-9 86t-25 54t-38 28.5t-48 8.5t-48.5 -9t-39 -29.5t-26 -55t-9.5 -85.5zM1267 411q16 -41 60 -63t131 -22q49 0 90.5 4t79.5 11.5t74 17.5t74 21l102 -280q-45 -29 -104 -52.5t-125 -40.5t-134.5 -26t-131.5 -9q-146 0 -256.5 37
t-184.5 106.5t-111 169.5t-37 226q0 152 45 259.5t125 175.5t190.5 99.5t242.5 31.5q127 0 223.5 -33.5t161 -87.5t97.5 -121t33 -134q0 -56 -19.5 -108.5t-65.5 -93t-122 -64.5t-189 -24h-249zM1386 753q-35 0 -59 -11t-39 -29t-23.5 -40.5t-11.5 -45.5h163q35 0 51.5 18
t16.5 43q0 12 -4.5 24t-15.5 21t-30 14.5t-48 5.5z" />
    <glyph glyph-name="a.alt" horiz-adv-x="1186" 
d="M118 971q31 14 70.5 32.5t93.5 35t125 27.5t163 11q54 0 113.5 -5t116.5 -22t109.5 -49t91.5 -86.5t62.5 -134t23.5 -190.5v-590h-434l-23 88q-15 -17 -41.5 -37t-61 -37.5t-75 -29.5t-81.5 -12q-74 0 -136.5 22.5t-107.5 64.5t-70.5 101.5t-25.5 132.5q0 71 22 122
t58 86.5t81 57t90.5 34t87.5 18t71 9.5l175 20v16q0 15 -12 24t-33 13.5t-48 6t-57 1.5q-24 0 -52.5 -2.5t-59 -7.5t-61 -12t-58.5 -15zM616 428l-75 -10q-13 -2 -24.5 -9.5t-19.5 -18t-13 -22.5t-5 -24q0 -38 18.5 -56t48.5 -18q24 0 44.5 9t25.5 14v135z" />
    <glyph glyph-name="zero.fitted" horiz-adv-x="1536" 
d="M1459 712q0 -178 -41 -316.5t-125.5 -233t-213 -143t-303.5 -47.5q-173 1 -301 48t-212.5 138t-126.5 225t-42 309t40.5 311.5t124.5 230.5t212.5 143t304.5 50q343 1 513 -182.5t170 -532.5zM980 700q0 76 -10 140t-34 110.5t-63 72.5t-97 26q-45 0 -77.5 -16t-55 -43.5
t-36 -63t-21 -74t-10 -78.5t-2.5 -75q0 -36 2.5 -75.5t10 -78t21 -74t36 -62.5t55 -43t77.5 -16q58 0 97 26.5t63 73t34 110.5t10 140z" />
    <glyph glyph-name="one.fitted" horiz-adv-x="1536" 
d="M278 995v402h777v-1397h-504v995h-273zM351 424h904v-424h-904v424z" />
    <glyph glyph-name="two.fitted" horiz-adv-x="1536" 
d="M255 0v380q43 24 101 59.5t120 78.5t121.5 91.5t106.5 98t76 98t29 92.5q0 30 -12.5 53.5t-34.5 40t-50.5 25.5t-61.5 9q-53 0 -99.5 -8.5t-85 -21t-68 -26t-48.5 -23.5l-139 320q103 73 243 116.5t324 43.5q134 0 232 -29.5t162 -82t95 -125.5t31 -160
q0 -131 -37 -232.5t-93.5 -178t-123.5 -130.5t-128 -88h385v-401h-1045z" />
    <glyph glyph-name="three.fitted" horiz-adv-x="1536" 
d="M217 1303q40 26 98.5 48.5t128.5 39.5t148.5 26.5t159.5 9.5q151 0 263.5 -27.5t187 -77t111.5 -118.5t37 -153q0 -118 -62.5 -196.5t-171.5 -113.5q54 -23 100.5 -49t81 -63.5t54.5 -92t20 -135.5q0 -80 -23.5 -143t-66 -110.5t-100.5 -80.5t-126.5 -54t-146 -30.5
t-157.5 -10.5q-66 -1 -136.5 6t-140 22t-135.5 38t-124 55l136 337q41 -15 74.5 -25.5t70.5 -17.5t82 -10.5t110 -3.5q31 0 65.5 3t62.5 11.5t46.5 23.5t18.5 40q0 22 -25.5 35.5t-69 21t-100 10t-119.5 2.5h-119v356h105q85 0 143.5 5t94.5 15t51.5 24t15.5 32t-14 32
t-39 23t-59 14t-74 5q-33 0 -69 -0.5t-76 -5.5t-84 -17t-93 -35z" />
    <glyph glyph-name="four.fitted" horiz-adv-x="1536" 
d="M833 0v190h-682v376l402 832l520 -1l-366 -804h126v147h470v-147h93v-403h-93v-190h-470z" />
    <glyph glyph-name="five.fitted" horiz-adv-x="1536" 
d="M330 460q115 -37 221.5 -62t194.5 -25q75 0 110.5 25t35.5 66q0 31 -16.5 50.5t-42.5 30.5t-57.5 15t-61.5 4h-376v833h957v-378h-480v-101h34q127 0 226 -35.5t167 -97.5t103.5 -146.5t35.5 -182.5q0 -91 -25.5 -162.5t-70 -125.5t-104.5 -91.5t-128.5 -60.5t-143 -33.5
t-147.5 -10.5t-146.5 11.5t-145.5 31.5t-141 47.5t-132 59.5z" />
    <glyph glyph-name="six.fitted" horiz-adv-x="1536" 
d="M188 667q0 154 30.5 270t82 200.5t119 140.5t142.5 89t152.5 46.5t148.5 13.5q89 0 160.5 -9t127.5 -22.5t98.5 -30t72.5 -32.5l-141 -335q-22 5 -43 10t-46 9t-57 6.5t-76 2.5q-60 0 -107 -6t-80 -21t-52.5 -40t-25.5 -63q26 12 51 21t51.5 15t56.5 9t67 3
q115 0 199 -36.5t139 -100t81.5 -148.5t26.5 -181q0 -113 -36 -206t-108.5 -160t-181.5 -103.5t-255 -36.5q-167 0 -281.5 46t-184.5 134.5t-100.5 218t-30.5 296.5zM676 516q-6 -73 20.5 -106.5t77.5 -33.5q102 0 102 83q0 46 -24 68t-53 22q-23 0 -40 -2t-30.5 -6
t-25.5 -10t-27 -15z" />
    <glyph glyph-name="seven.fitted" horiz-adv-x="1536" 
d="M290 995v402h1030v-411q-32 -37 -72 -104t-82.5 -152.5t-84.5 -183t-78.5 -194.5t-63 -188.5t-38.5 -163.5h-537q82 288 182.5 537t215.5 458h-472z" />
    <glyph glyph-name="eight.fitted" horiz-adv-x="1536" 
d="M212 371q0 61 15.5 107t43.5 84t66 70t83 64q-36 28 -70 60t-61 73t-43.5 93t-16.5 120q0 88 35 159t103 121.5t168 78t229 27.5q117 0 206 -15.5t154.5 -43t110 -64.5t71 -79.5t38 -88.5t11.5 -91q0 -60 -20.5 -112.5t-52.5 -96t-70.5 -77t-75.5 -53.5
q112 -66 174.5 -148.5t62.5 -185.5q0 -90 -36.5 -163.5t-109.5 -126.5t-182.5 -82t-255.5 -29q-151 0 -260 31t-179.5 85t-104 126.5t-33.5 156.5zM702 423q0 -52 24 -72t62 -20q50 0 72 19.5t22 58.5q0 19 -9 38t-24 37t-35 34.5t-42 31.5q-36 -27 -53 -62.5t-17 -64.5z
M719 1004q0 -26 26 -58.5t63 -55.5q14 7 25 19.5t18.5 27.5t11.5 29.5t4 26.5q0 33 -14.5 57t-54.5 24q-44 0 -61.5 -19t-17.5 -51z" />
    <glyph glyph-name="nine.fitted" horiz-adv-x="1536" 
d="M1375 732q0 -154 -30.5 -270t-82 -200.5t-119 -140.5t-142.5 -89t-152.5 -46.5t-148.5 -13.5q-89 0 -160.5 9t-127.5 22.5t-98.5 30t-72.5 32.5l141 335q22 -5 43 -10t46 -9t57 -6.5t76 -2.5q60 0 107 6t80 21t52.5 40t25.5 63q-26 -12 -51 -21t-51.5 -15t-56.5 -9
t-67 -3q-115 0 -199 36.5t-139 100t-81.5 148.5t-26.5 181q0 113 36 206t108.5 160t181.5 103.5t255 36.5q167 0 281.5 -46t184.5 -134.5t100.5 -218t30.5 -296.5zM887 883q6 73 -20.5 106.5t-77.5 33.5q-102 0 -102 -83q0 -46 24 -68t53 -22q23 0 40 2t30.5 6t25.5 10
t27 15z" />
    <glyph glyph-name="zerooldstyle" unicode="&#xf730;" horiz-adv-x="1229" 
d="M92 523q0 152 41 257.5t111.5 171.5t164.5 95.5t201 29.5t201.5 -29.5t165 -95.5t111.5 -171.5t41 -257.5t-41 -257.5t-111.5 -171t-165 -94.5t-201.5 -29t-201 29t-164.5 94.5t-111.5 171t-41 257.5zM527 524q0 -49 2.5 -82.5t11.5 -54.5t25.5 -30.5t43.5 -9.5t43.5 9.5
t25.5 30.5t11.5 54.5t2.5 82.5t-2.5 82.5t-11 54.5t-25 30.5t-44.5 9.5t-44.5 -9.5t-25 -30.5t-11 -54.5t-2.5 -82.5z" />
    <glyph glyph-name="oneoldstyle" unicode="&#xf731;" horiz-adv-x="915" 
d="M18 636v402h751v-1038h-478v636h-273z" />
    <glyph glyph-name="twooldstyle" unicode="&#xf732;" horiz-adv-x="1120" 
d="M93 0v345q28 16 71.5 40t92 52t97.5 58t88.5 59.5t64 56.5t24.5 48q0 27 -26 36.5t-80 9.5q-39 0 -69 -6t-54.5 -15t-44.5 -20t-39 -21l-159 313q57 31 122 53.5t134.5 37.5t141 22.5t140.5 7.5q101 0 176.5 -22t125.5 -62t75 -95t25 -121q0 -61 -13 -111.5t-33.5 -91.5
t-45.5 -73.5t-49 -56.5t-43.5 -41t-29.5 -27h236v-376h-928z" />
    <glyph glyph-name="threeoldstyle" unicode="&#xf733;" horiz-adv-x="1194" 
d="M37 953q81 52 202.5 88t282.5 36q151 0 258.5 -27.5t176.5 -77t101.5 -118.5t32.5 -153q0 -117 -61.5 -192t-172.5 -118q54 -23 100.5 -53t81 -70.5t54.5 -93.5t20 -123q0 -120 -47 -202t-127.5 -132t-188 -72t-227.5 -23q-133 -2 -251.5 28t-234.5 93l135 330
q31 -12 64.5 -25t71.5 -24t80.5 -18t92.5 -7q33 0 63 2.5t52 11t35 23.5t13 40q0 31 -16.5 48t-48.5 24t-79.5 8t-110.5 1h-119v375h105q85 0 134.5 4.5t74 15.5t31 29t6.5 45q0 23 -12.5 37t-33.5 22.5t-49.5 11.5t-60.5 3t-63 -4t-65.5 -14t-75 -25.5t-89.5 -38.5z" />
    <glyph glyph-name="fouroldstyle" unicode="&#xf734;" horiz-adv-x="1333" 
d="M703 -389v220h-652v376l402 832l510 -1l-381 -830h121v143h480v-143h73v-377h-73v-220h-480z" />
    <glyph glyph-name="fiveoldstyle" unicode="&#xf735;" horiz-adv-x="1305" 
d="M211 81q44 -18 85 -35t79 -30t74.5 -20.5t71.5 -7.5q52 0 85.5 9t53 24t27 34t7.5 39q0 29 -15.5 46.5t-39.5 27t-54 12.5t-60 3h-346v855h897v-378h-460v-101h14q127 0 226 -35.5t167 -97.5t103.5 -146.5t35.5 -182.5q0 -91 -23 -162.5t-63 -125.5t-94 -91.5t-115 -60.5
t-127 -33.5t-130 -10.5q-87 0 -160.5 10.5t-138 28.5t-121.5 41.5t-112 49.5z" />
    <glyph glyph-name="sixoldstyle" unicode="&#xf736;" horiz-adv-x="1323" 
d="M88 667q0 154 27.5 270t74.5 200.5t109.5 140.5t133 89t145 46.5t145.5 13.5q89 0 160.5 -9t127.5 -22.5t98.5 -30t72.5 -32.5l-132 -325q-21 6 -43 13.5t-49 14.5t-61 11t-78 4q-60 0 -102 -10t-70 -29.5t-42.5 -48.5t-20.5 -67q26 12 46 21t41 15t46.5 9t62.5 3
q115 0 199 -36.5t139 -100t81.5 -148.5t26.5 -181q0 -113 -33 -206t-101.5 -160t-174.5 -103.5t-252 -36.5q-167 0 -278 46t-177.5 134.5t-94 218t-27.5 296.5zM559 526q0 -90 20 -133.5t75 -43.5q31 0 51 9t31.5 24t16 35t4.5 42q0 33 -6.5 54t-17.5 33.5t-25 17t-29 4.5
q-23 0 -39.5 -3t-29.5 -8.5t-25 -13.5t-26 -17z" />
    <glyph glyph-name="sevenoldstyle" unicode="&#xf737;" horiz-adv-x="1186" 
d="M80 636v402h1030v-411q-32 -37 -72 -104t-82.5 -152.5t-84.5 -183t-78.5 -194.5t-63 -188.5t-38.5 -163.5h-507q82 288 182.5 537t215.5 458h-502z" />
    <glyph glyph-name="eightoldstyle" unicode="&#xf738;" horiz-adv-x="1327" 
d="M72 371q0 61 17 108.5t47 87.5t69.5 73.5t84.5 65.5q-36 28 -71.5 58.5t-64.5 69.5t-47 89.5t-18 118.5q0 79 35 149.5t103 123t168 83t229 30.5q117 0 206 -15.5t154.5 -43t110 -64.5t71 -79.5t38 -88.5t11.5 -91q0 -60 -22 -112.5t-56 -96t-74 -77t-77 -53.5
q56 -33 101.5 -70t78 -79t50 -88t17.5 -97q0 -90 -36.5 -163.5t-109.5 -126.5t-182.5 -82t-255.5 -29q-151 0 -260 31t-179.5 85t-104 126.5t-33.5 156.5zM541 438q0 -26 9.5 -43t25 -27.5t34.5 -15t38 -4.5q50 0 83 19t33 55q0 20 -13.5 37t-33 32t-43 27t-42.5 22
q-18 -14 -34.5 -25.5t-29 -23.5t-20 -25t-7.5 -28zM560 995q0 -33 31.5 -62t76.5 -53q14 7 28 20t25 29t18 32t7 30q0 35 -23 48t-65 13q-44 0 -71 -14t-27 -43z" />
    <glyph glyph-name="nineoldstyle" unicode="&#xf739;" horiz-adv-x="1323" 
d="M1226 382q0 -154 -27.5 -270t-74.5 -200.5t-109.5 -140.5t-133 -89t-145 -46.5t-145.5 -13.5q-89 0 -160.5 9t-127.5 22.5t-98.5 30t-72.5 32.5l132 325q21 -6 43 -13.5t49 -14.5t61 -11t78 -4q60 0 102 10t70 29.5t42.5 48.5t20.5 67q-26 -12 -46.5 -21t-41.5 -15
t-46 -9t-62 -3q-115 0 -199 36.5t-139 100t-81.5 148.5t-26.5 181q0 113 33 206t101.5 160t174.5 103.5t252 36.5q167 0 278 -46t177.5 -134.5t94 -218t27.5 -296.5zM755 523q0 90 -20 133.5t-75 43.5q-31 0 -51 -9t-31.5 -24t-16 -35t-4.5 -42q0 -33 6.5 -54t17.5 -33.5
t25 -17t29 -4.5q23 0 39.5 3t29.5 8.5t25 13.5t26 17z" />
    <glyph glyph-name="zero.taboldstyle" horiz-adv-x="1229" 
d="M92 523q0 152 41 257.5t111.5 171.5t164.5 95.5t201 29.5t201.5 -29.5t165 -95.5t111.5 -171.5t41 -257.5t-41 -257.5t-111.5 -171t-165 -94.5t-201.5 -29t-201 29t-164.5 94.5t-111.5 171t-41 257.5zM527 524q0 -49 2.5 -82.5t11.5 -54.5t25.5 -30.5t43.5 -9.5t43.5 9.5
t25.5 30.5t11.5 54.5t2.5 82.5t-2.5 82.5t-11 54.5t-25 30.5t-44.5 9.5t-44.5 -9.5t-25 -30.5t-11 -54.5t-2.5 -82.5z" />
    <glyph glyph-name="one.taboldstyle" horiz-adv-x="915" 
d="M18 636v402h751v-1038h-478v636h-273z" />
    <glyph glyph-name="two.taboldstyle" horiz-adv-x="1120" 
d="M93 0v345q28 16 71.5 40t92 52t97.5 58t88.5 59.5t64 56.5t24.5 48q0 27 -26 36.5t-80 9.5q-39 0 -69 -6t-54.5 -15t-44.5 -20t-39 -21l-159 313q57 31 122 53.5t134.5 37.5t141 22.5t140.5 7.5q101 0 176.5 -22t125.5 -62t75 -95t25 -121q0 -61 -13 -111.5t-33.5 -91.5
t-45.5 -73.5t-49 -56.5t-43.5 -41t-29.5 -27h236v-376h-928z" />
    <glyph glyph-name="three.taboldstyle" horiz-adv-x="1194" 
d="M37 953q81 52 202.5 88t282.5 36q151 0 258.5 -27.5t176.5 -77t101.5 -118.5t32.5 -153q0 -117 -61.5 -192t-172.5 -118q54 -23 100.5 -53t81 -70.5t54.5 -93.5t20 -123q0 -120 -47 -202t-127.5 -132t-188 -72t-227.5 -23q-133 -2 -251.5 28t-234.5 93l135 330
q31 -12 64.5 -25t71.5 -24t80.5 -18t92.5 -7q33 0 63 2.5t52 11t35 23.5t13 40q0 31 -16.5 48t-48.5 24t-79.5 8t-110.5 1h-119v375h105q85 0 134.5 4.5t74 15.5t31 29t6.5 45q0 23 -12.5 37t-33.5 22.5t-49.5 11.5t-60.5 3t-63 -4t-65.5 -14t-75 -25.5t-89.5 -38.5z" />
    <glyph glyph-name="four.taboldstyle" horiz-adv-x="1333" 
d="M703 -389v220h-652v376l402 832l510 -1l-381 -830h121v143h480v-143h73v-377h-73v-220h-480z" />
    <glyph glyph-name="five.taboldstyle" horiz-adv-x="1305" 
d="M211 81q44 -18 85 -35t79 -30t74.5 -20.5t71.5 -7.5q52 0 85.5 9t53 24t27 34t7.5 39q0 29 -15.5 46.5t-39.5 27t-54 12.5t-60 3h-346v855h897v-378h-460v-101h14q127 0 226 -35.5t167 -97.5t103.5 -146.5t35.5 -182.5q0 -91 -23 -162.5t-63 -125.5t-94 -91.5t-115 -60.5
t-127 -33.5t-130 -10.5q-87 0 -160.5 10.5t-138 28.5t-121.5 41.5t-112 49.5z" />
    <glyph glyph-name="six.taboldstyle" horiz-adv-x="1323" 
d="M88 667q0 154 27.5 270t74.5 200.5t109.5 140.5t133 89t145 46.5t145.5 13.5q89 0 160.5 -9t127.5 -22.5t98.5 -30t72.5 -32.5l-132 -325q-21 6 -43 13.5t-49 14.5t-61 11t-78 4q-60 0 -102 -10t-70 -29.5t-42.5 -48.5t-20.5 -67q26 12 46 21t41 15t46.5 9t62.5 3
q115 0 199 -36.5t139 -100t81.5 -148.5t26.5 -181q0 -113 -33 -206t-101.5 -160t-174.5 -103.5t-252 -36.5q-167 0 -278 46t-177.5 134.5t-94 218t-27.5 296.5zM559 526q0 -90 20 -133.5t75 -43.5q31 0 51 9t31.5 24t16 35t4.5 42q0 33 -6.5 54t-17.5 33.5t-25 17t-29 4.5
q-23 0 -39.5 -3t-29.5 -8.5t-25 -13.5t-26 -17z" />
    <glyph glyph-name="seven.taboldstyle" horiz-adv-x="1186" 
d="M80 636v402h1030v-411q-32 -37 -72 -104t-82.5 -152.5t-84.5 -183t-78.5 -194.5t-63 -188.5t-38.5 -163.5h-507q82 288 182.5 537t215.5 458h-502z" />
    <glyph glyph-name="eight.taboldstyle" horiz-adv-x="1327" 
d="M72 371q0 61 17 108.5t47 87.5t69.5 73.5t84.5 65.5q-36 28 -71.5 58.5t-64.5 69.5t-47 89.5t-18 118.5q0 79 35 149.5t103 123t168 83t229 30.5q117 0 206 -15.5t154.5 -43t110 -64.5t71 -79.5t38 -88.5t11.5 -91q0 -60 -22 -112.5t-56 -96t-74 -77t-77 -53.5
q56 -33 101.5 -70t78 -79t50 -88t17.5 -97q0 -90 -36.5 -163.5t-109.5 -126.5t-182.5 -82t-255.5 -29q-151 0 -260 31t-179.5 85t-104 126.5t-33.5 156.5zM541 438q0 -26 9.5 -43t25 -27.5t34.5 -15t38 -4.5q50 0 83 19t33 55q0 20 -13.5 37t-33 32t-43 27t-42.5 22
q-18 -14 -34.5 -25.5t-29 -23.5t-20 -25t-7.5 -28zM560 995q0 -33 31.5 -62t76.5 -53q14 7 28 20t25 29t18 32t7 30q0 35 -23 48t-65 13q-44 0 -71 -14t-27 -43z" />
    <glyph glyph-name="nine.taboldstyle" horiz-adv-x="1323" 
d="M1226 382q0 -154 -27.5 -270t-74.5 -200.5t-109.5 -140.5t-133 -89t-145 -46.5t-145.5 -13.5q-89 0 -160.5 9t-127.5 22.5t-98.5 30t-72.5 32.5l132 325q21 -6 43 -13.5t49 -14.5t61 -11t78 -4q60 0 102 10t70 29.5t42.5 48.5t20.5 67q-26 -12 -46.5 -21t-41.5 -15
t-46 -9t-62 -3q-115 0 -199 36.5t-139 100t-81.5 148.5t-26.5 181q0 113 33 206t101.5 160t174.5 103.5t252 36.5q167 0 278 -46t177.5 -134.5t94 -218t27.5 -296.5zM755 523q0 90 -20 133.5t-75 43.5q-31 0 -51 -9t-31.5 -24t-16 -35t-4.5 -42q0 -33 6.5 -54t17.5 -33.5
t25 -17t29 -4.5q23 0 39.5 3t29.5 8.5t25 13.5t26 17z" />
    <glyph glyph-name="zerosuperior" unicode="&#x2070;" horiz-adv-x="874" 
d="M37 1129q0 117 31.5 198t86 132t127 73.5t155.5 22.5q82 0 155 -22.5t127 -73.5t85.5 -132t31.5 -198t-31.5 -198.5t-85.5 -131.5t-127 -72.5t-155 -22.5q-83 0 -155.5 22.5t-127 72.5t-86 131.5t-31.5 198.5zM373 1130q0 -38 2 -64t9 -42t19.5 -23.5t33.5 -7.5t33.5 7.5
t19.5 23.5t9 42t2 64q0 37 -2 63t-9 42.5t-19.5 23.5t-33.5 7t-34 -7t-19.5 -23.5t-8.5 -42.5t-2 -63z" />
    <glyph glyph-name="onesuperior" unicode="&#xb9;" horiz-adv-x="705" 
d="M14 1223v310h559v-800h-349v490h-210z" />
    <glyph glyph-name="twosuperior" unicode="&#xb2;" horiz-adv-x="864" 
d="M70 723v265q22 13 56 32t72.5 41t77.5 45.5t70.5 45.5t51 42t19.5 34q0 23 -23 30t-52 7q-21 0 -44 -5.5t-44.5 -14.5t-41 -19t-33.5 -19l-122 237q43 25 85 45t89.5 34t102.5 21.5t125 7.5q157 0 233 -67.5t76 -188.5q0 -65 -20 -112.5t-48 -81t-58 -55t-49 -35.5h193
v-289h-716z" />
    <glyph glyph-name="threesuperior" unicode="&#xb3;" horiz-adv-x="711" 
d="M20 1485q48 30 127 50.5t173 20.5q87 0 149 -16t101.5 -44.5t58.5 -68t19 -87.5q0 -68 -35 -111.5t-100 -67.5q31 -14 58 -31.5t46.5 -40.5t31 -53.5t11.5 -70.5q0 -70 -27 -117t-73.5 -76.5t-108.5 -42t-131 -13.5q-77 -1 -155 16.5t-145 53.5l79 203q15 -3 33 -7.5
t36.5 -8.5t35.5 -6.5t29 -2.5q16 0 32 1t29 4t21 8.5t8 14.5q0 8 -12 12.5t-28.5 7t-33 3t-26.5 0.5h-49v237h41q41 0 69 4t28 18q0 10 -19.5 17.5t-45.5 7.5q-22 0 -54 -2.5t-86 -20.5z" />
    <glyph glyph-name="foursuperior" unicode="&#x2074;" horiz-adv-x="770" 
d="M447 731v116h-416v248l232 445h343l-220 -435h61v52h277v-52h32v-258h-32v-116h-277z" />
    <glyph glyph-name="fivesuperior" unicode="&#x2075;" horiz-adv-x="754" 
d="M125 1004q17 -6 37 -10.5t40.5 -7t40 -3.5t35.5 -1q22 0 39.5 7.5t17.5 22.5q0 20 -12.5 26.5t-44.5 6.5h-175v503h517v-238h-266v-39h9q73 0 130.5 -20.5t97 -56t60 -84t20.5 -105.5q0 -79 -29 -135.5t-75.5 -93t-103.5 -53.5t-112 -17q-50 0 -93 6.5t-81 17t-72 24.5
t-66 29z" />
    <glyph glyph-name="sixsuperior" unicode="&#x2076;" horiz-adv-x="764" 
d="M51 1112q0 89 16.5 156t44.5 115.5t65 81t78 51.5t82.5 27t79.5 8q103 0 169 -17t101 -34l-81 -211q-12 4 -24.5 8.5t-28.5 8t-35.5 6t-44.5 2.5q-57 -1 -94.5 -16t-40.5 -54q15 7 26.5 12.5t23.5 9t26.5 5.5t35.5 2q67 0 115.5 -21.5t80 -58t46.5 -86t15 -104.5
q0 -65 -19 -119t-58.5 -92.5t-100.5 -60t-145 -21.5q-96 0 -160.5 26.5t-102.5 78t-54 126.5t-16 171zM333 1023q0 -42 9 -62.5t35 -20.5q29 0 39 15.5t10 36.5q0 31 -11 41t-25 10q-23 0 -33 -5.5t-24 -14.5z" />
    <glyph glyph-name="sevensuperior" unicode="&#x2077;" horiz-adv-x="684" 
d="M45 1310v232h595v-237q-18 -21 -41 -60t-47.5 -88t-49 -105.5t-45.5 -112.5t-36.5 -108.5t-22.5 -94.5h-292q47 165 105 309t124 265h-290z" />
    </font>
</defs>
</svg>
