<?xml version="1.0" standalone="no"?>
<!DOCTYPE svg PUBLIC "-//W3C//DTD SVG 1.1//EN" "http://www.w3.org/Graphics/SVG/1.1/DTD/svg11.dtd" >
<svg xmlns="http://www.w3.org/2000/svg" xmlns:xlink="http://www.w3.org/1999/xlink" version="1.1">
<metadata>
Created by FontForge 20170910 at Mon Dec 18 10:55:41 2017
 By Jimmy Wärting
Copyright (c) 2017 by studio kmzero. All rights reserved.
</metadata>
<defs>
<font id="Kabrio-BookItalic" horiz-adv-x="1148" >
  <font-face 
    font-family="Kabrio Book"
    font-weight="450"
    font-style="italic"
    font-stretch="normal"
    units-per-em="2048"
    panose-1="2 0 5 5 4 0 0 2 0 4"
    ascent="1500"
    descent="-548"
    x-height="1011"
    cap-height="1393"
    bbox="-272 -596 2349.62 1905"
    underline-thickness="102"
    underline-position="-205"
    unicode-range="U+000D-F739"
  />
<missing-glyph horiz-adv-x="667" 
 />
    <glyph glyph-name=".notdef" horiz-adv-x="667" 
 />
    <glyph glyph-name=".null" horiz-adv-x="0" 
 />
    <glyph glyph-name=".null" horiz-adv-x="0" 
 />
    <glyph glyph-name="nonmarkingreturn" unicode="&#xd;" horiz-adv-x="506" 
 />
    <glyph glyph-name="space" unicode=" " horiz-adv-x="506" 
 />
    <glyph glyph-name="numbersign" unicode="#" horiz-adv-x="1559" 
d="M389 1049h286l125 345h183l-125 -345h367l125 345h183l-125 -345h290l-60 -171h-291l-125 -347h289l-59 -171h-291l-128 -360h-183l128 360h-367l-128 -360h-183l128 360h-285l60 171h286l125 347h-285zM672 531h367l125 347h-367z" />
    <glyph glyph-name="percent" unicode="%" horiz-adv-x="1728" 
d="M500 0l810 1393h196l-810 -1393h-196zM315 1003q23 109 64 186t93.5 126t114.5 72t127 23q64 0 116.5 -23t84.5 -72t40.5 -126t-14.5 -186t-64 -186t-94 -125.5t-115 -71t-126 -22.5q-65 0 -117 22.5t-84.5 71t-40.5 125.5t15 186zM467 1004q-16 -75 -17.5 -126.5t12 -83
t41 -45.5t68.5 -14t74.5 14t60 45.5t47 83t36.5 126.5q16 74 17 125.5t-12 83.5t-40.5 46t-68.5 14t-74.5 -14t-60 -46t-47 -83.5t-36.5 -125.5zM1082 382q23 108 64 185t93.5 126t114.5 72t127 23q64 0 116.5 -23t84.5 -72t40.5 -126t-14.5 -185q-23 -109 -64 -186
t-94 -125.5t-115 -71t-126 -22.5q-65 0 -117 22.5t-84.5 71t-40.5 125.5t15 186zM1234 382q-16 -75 -17.5 -126t12 -82.5t41 -45.5t68.5 -14t74.5 14t60 45.5t47 82.5t36.5 126t17 126t-12 83t-40.5 46t-68.5 14t-74.5 -14t-60 -46t-47 -83t-36.5 -126z" />
    <glyph glyph-name="ampersand" unicode="&#x26;" horiz-adv-x="1431" 
d="M1111 1199q-33 20 -81.5 31.5t-125.5 11.5q-60 0 -113.5 -12.5t-95.5 -37t-70.5 -62t-39.5 -87.5q-14 -67 -7.5 -114t33.5 -76.5t73 -43.5t111 -14l228 -1l429 1l-31 -150h-237l-72 -336q-8 -37 -8.5 -67.5t8.5 -52.5t28.5 -34t51.5 -12q52 0 89 12.5t72 25.5l22 -133
q-30 -15 -59.5 -27t-61 -20.5t-66 -13.5t-75.5 -5q-75 0 -125 29.5t-71 90.5q-78 -57 -172 -89t-189 -29q-48 1 -96.5 10t-92.5 28.5t-80 50t-58.5 75.5t-28.5 105.5t11 138.5q15 69 44 125t69 98.5t88.5 72t102.5 46.5q-48 29 -77.5 64.5t-43 77t-13 90t12.5 102.5
q17 80 60 143.5t109 108t153.5 68t193.5 23.5q47 0 86 -4t73.5 -12.5t67 -22t66.5 -31.5zM990 638h-232q-90 0 -153 -22t-103.5 -56.5t-62 -76.5t-29.5 -82q-15 -72 -2.5 -120.5t46.5 -77t85 -40.5t112 -12q31 0 65.5 8t68.5 23t66.5 36t59.5 47l6 28z" />
    <glyph glyph-name="quotesingle" unicode="'" horiz-adv-x="468" 
d="M455 1416h187l-158 -454h-125z" />
    <glyph glyph-name="parenleft" unicode="(" horiz-adv-x="587" 
d="M253 600q30 139 81.5 270.5t112.5 248.5t124 215t114 170l171 -34q-53 -83 -113 -184t-116 -214.5t-102.5 -235t-72.5 -245.5q-23 -107 -28.5 -222.5t1.5 -227.5t24.5 -215.5t40.5 -187.5l-186 -34q-26 74 -47.5 175t-31.5 218t-4.5 245.5t32.5 257.5z" />
    <glyph glyph-name="parenright" unicode=")" horiz-adv-x="609" 
d="M600 600q-27 -129 -76.5 -257.5t-109 -245.5t-123.5 -218t-122 -175l-171 34q58 84 119 187.5t115.5 215.5t98 227.5t66.5 222.5q26 124 31.5 245.5t-2.5 235t-25 214.5t-35 184l186 34q21 -72 42.5 -170t32.5 -215t7 -248.5t-34 -270.5z" />
    <glyph glyph-name="asterisk" unicode="*" horiz-adv-x="911" 
d="M797 1234l256 64l11 -163l-249 -62l148 -186l-149 -119l-162 201l-245 -201l-100 119l229 186l-222 62l80 164l229 -64l51 242h174z" />
    <glyph glyph-name="plus" unicode="+" horiz-adv-x="943" 
d="M499 477h-270l36 169h270l57 267h175l-57 -267h271l-36 -169h-271l-57 -268h-175z" />
    <glyph glyph-name="comma" unicode="," horiz-adv-x="505" 
d="M294 200q118 0 98 -101l-2 -5q-12 -61 -34.5 -113.5t-51.5 -98t-62.5 -84t-67.5 -70.5l-84 42q46 64 81.5 124.5t45.5 106.5q-44 7 -59 31.5t-6 68.5q11 51 47 75t95 24z" />
    <glyph glyph-name="hyphen" unicode="-" horiz-adv-x="872" 
d="M210 474l36 169h660l-36 -169h-660z" />
    <glyph glyph-name="period" unicode="." horiz-adv-x="522" 
d="M295 173q118 0 98 -101q-10 -45 -42.5 -72.5t-95.5 -27.5q-65 0 -89 25.5t-13 76.5t47 75t95 24z" />
    <glyph glyph-name="slash" unicode="/" horiz-adv-x="886" 
d="M52 -77l921 1582l169 -60l-921 -1581z" />
    <glyph glyph-name="zero" unicode="0" horiz-adv-x="1213" 
d="M1269 701q-20 -92 -50 -181.5t-71 -169.5t-95 -147.5t-121 -116.5t-148.5 -76.5t-178.5 -27.5q-119 0 -204.5 41.5t-133.5 128.5t-55 221.5t33 320.5q17 82 45 167t68 164.5t93 149.5t121 122.5t151.5 83t184.5 30.5q98 0 168 -28.5t116 -78.5t71 -117.5t32 -146.5
t-0.5 -165.5t-25.5 -173.5zM1074 696q33 152 33.5 257t-27 170t-81 94t-128.5 29q-68 0 -122.5 -24t-98.5 -65t-77.5 -95t-59 -114.5t-43.5 -124.5t-31 -123q-13 -60 -22 -124.5t-10 -126t9 -116.5t36.5 -96.5t71.5 -65.5t114 -24q74 0 139.5 29t121 94t99.5 169.5t76 256.5
z" />
    <glyph glyph-name="one" unicode="1" horiz-adv-x="745" 
d="M371 1224l36 169h416l-296 -1393h-202l260 1224h-214z" />
    <glyph glyph-name="two" unicode="2" horiz-adv-x="1151" 
d="M128 0l31 150q172 141 318 261.5t255.5 225t178 194.5t85.5 171q7 30 8 71.5t-16.5 79t-60 63.5t-121.5 26q-51 0 -94 -6.5t-84.5 -19t-84 -32t-92.5 -46.5l-40 136q54 32 107.5 57.5t109.5 43t115.5 27t126.5 9.5q201 0 285.5 -94t46.5 -277q-17 -80 -55.5 -155
t-94 -146.5t-125 -141.5t-149 -140.5t-166.5 -141.5t-176 -146h628l-35 -169h-901z" />
    <glyph glyph-name="three" unicode="3" horiz-adv-x="1127" 
d="M384 1283q56 30 109 53.5t107 40t111 25.5t120 9q109 0 189 -23.5t128 -68t64.5 -108t-0.5 -143.5q-12 -54 -32 -102.5t-51.5 -90t-76 -77t-104.5 -64.5q46 -17 82 -46.5t58 -72t28 -98.5t-9 -125q-26 -121 -85.5 -199.5t-139.5 -124t-173 -64.5t-185 -21
q-57 -2 -113.5 5.5t-109 22.5t-100 37.5t-85.5 51.5l96 141q38 -23 72.5 -39.5t72.5 -28t82.5 -17t103.5 -5.5q64 0 123.5 12.5t109 41.5t85 77t50.5 119q8 39 0.5 81t-38.5 76.5t-88 57t-147 22.5h-172l33 156l168 1q65 0 121 14t100.5 43.5t75 76.5t44.5 114
q11 50 -1.5 87.5t-44 62t-80 37t-109.5 12.5q-43 0 -84 -6t-83.5 -18t-87.5 -30.5t-96 -43.5z" />
    <glyph glyph-name="four" unicode="4" horiz-adv-x="1104" 
d="M676 0l63 297h-599l36 170l612 927l209 -1l-607 -924h385l66 309h190l-66 -309h164l-36 -172h-164l-63 -297h-190z" />
    <glyph glyph-name="five" unicode="5" horiz-adv-x="1120" 
d="M204 269q43 -26 82.5 -48t80 -37.5t85 -24t97.5 -8.5q145 0 239 71.5t121 199.5q13 63 0 109.5t-49 78t-94 47t-133 15.5h-318l154 721h749l-35 -162h-555l-86 -403l180 -1q102 0 183 -26.5t132.5 -78t70.5 -127t-2 -173.5q-24 -116 -81 -199t-136 -136.5t-175.5 -79
t-200.5 -25.5q-67 0 -125.5 13.5t-109 34.5t-92.5 47t-76 52z" />
    <glyph glyph-name="six" unicode="6" horiz-adv-x="1192" 
d="M260 641q39 183 106.5 326.5t160 242t207.5 150t250 51.5q76 0 134 -10t101 -25t73.5 -32.5t53.5 -33.5l-102 -147l-42.5 25.5t-54 25.5t-73.5 20t-100 8q-102 0 -178.5 -37t-132 -95.5t-92.5 -131t-59 -143.5q99 41 191 57.5t166 16.5q106 0 178.5 -33.5t113 -93.5
t50 -142.5t-11.5 -181.5q-23 -107 -73.5 -194.5t-125.5 -150t-173.5 -97t-217.5 -34.5q-135 0 -218.5 46.5t-123 132.5t-39.5 207.5t32 272.5zM464 663q-134 -511 180 -511q67 0 125 20.5t104.5 58.5t79 93.5t47.5 125.5q13 63 8.5 116.5t-29 92.5t-69 61t-110.5 22
q-41 0 -88.5 -7.5t-93.5 -19t-86.5 -25.5t-67.5 -27z" />
    <glyph glyph-name="seven" unicode="7" horiz-adv-x="1051" 
d="M370 1224l36 169h857l-38 -176q-63 -62 -130.5 -147.5t-136 -186.5t-135.5 -213.5t-128 -227t-113.5 -227.5t-92.5 -215h-214q49 115 105.5 230.5t117 227.5t124 218.5t126.5 204.5t125.5 184.5t120.5 158.5h-624z" />
    <glyph glyph-name="eight" unicode="8" horiz-adv-x="1222" 
d="M200 356q14 67 54.5 126.5t91 109.5t103.5 89t93 65q-29 18 -62.5 47.5t-59.5 69.5t-38.5 90.5t0.5 111.5q18 82 63.5 146.5t114 108.5t157 67t192.5 23q127 0 210 -28.5t128.5 -76.5t57.5 -110.5t-2 -129.5q-13 -61 -44 -111.5t-73 -94t-92.5 -81.5t-103.5 -74
q54 -30 95.5 -65.5t67.5 -77.5t35 -91t-3 -107q-18 -84 -63 -154.5t-117 -120.5t-171 -78t-225 -28q-119 0 -204.5 27t-136.5 76.5t-68.5 118t0.5 152.5zM401 368q-23 -106 39.5 -167t204.5 -61q69 0 127 15.5t102.5 44.5t73 70t39.5 92q13 60 -4.5 103.5t-59 79
t-103.5 66.5t-139 65q-28 -19 -71 -48.5t-85.5 -68.5t-77 -87t-46.5 -104zM577 1057q-11 -53 9.5 -93t61 -72.5t95.5 -58.5t112 -51q38 26 77 51.5t73.5 56t60.5 70.5t38 94q9 42 1.5 78.5t-33.5 63.5t-73 42.5t-116 15.5q-122 0 -203 -48t-103 -149z" />
    <glyph glyph-name="nine" unicode="9" horiz-adv-x="1192" 
d="M1227 752q-39 -183 -106.5 -326.5t-159.5 -242t-207.5 -150t-250.5 -51.5q-76 0 -133.5 10t-100.5 25t-73.5 33t-53.5 34l101 146q19 -12 42 -25.5t54.5 -25.5t74 -20t100.5 -8q73 0 132.5 20t107 53t84 76.5t64 90.5t46.5 94.5t33 89.5q-97 -48 -193 -69.5t-170 -21.5
q-106 0 -178.5 33.5t-113 93.5t-50 143t11.5 182q23 107 73.5 194.5t125.5 150t173.5 96.5t217.5 34q135 0 218.5 -46.5t123 -132.5t39.5 -207.5t-32 -272.5zM1028 746q27 124 31 216.5t-17.5 154.5t-70.5 93t-127 31q-67 0 -125.5 -20.5t-105 -58.5t-79 -93.5t-47.5 -125.5
q-14 -63 -9 -116.5t29.5 -92.5t69 -61t110.5 -22q41 0 88.5 9t94 23t88 30.5t70.5 32.5z" />
    <glyph glyph-name="colon" unicode=":" horiz-adv-x="522" 
d="M295 173q118 0 98 -101q-10 -45 -42.5 -72.5t-95.5 -27.5q-65 0 -89 25.5t-13 76.5t47 75t95 24zM475 1019q119 0 98 -101q-10 -45 -43 -72.5t-96 -27.5q-65 0 -88.5 25.5t-12.5 76.5t47 75t95 24z" />
    <glyph glyph-name="semicolon" unicode=";" horiz-adv-x="510" 
d="M294 200q118 0 98 -101l-2 -5q-12 -61 -34.5 -113.5t-51.5 -98t-62.5 -84t-67.5 -70.5l-84 42q46 64 81.5 124.5t45.5 106.5q-44 7 -59 31.5t-6 68.5q11 51 47 75t95 24zM482 1035q118 0 98 -101q-10 -45 -42.5 -72.5t-95.5 -27.5q-65 0 -89 25.5t-13 76.5t47 75t95 24z
" />
    <glyph glyph-name="less" unicode="&#x3c;" horiz-adv-x="742" 
d="M411 526l295 -312l-147 -121l-380 435l564 428l95 -119z" />
    <glyph glyph-name="equal" unicode="=" horiz-adv-x="950" 
d="M185 272l35 161h716l-35 -161h-716zM259 620l35 161h716l-35 -161h-716z" />
    <glyph glyph-name="greater" unicode="&#x3e;" horiz-adv-x="742" 
d="M259 837l147 119l383 -428l-567 -435l-94 121l426 312z" />
    <glyph glyph-name="question" unicode="?" horiz-adv-x="920" 
d="M362 1320q35 18 78.5 34.5t90 29t92.5 20t86 7.5q117 0 189 -26.5t108.5 -71t43.5 -102.5t-5 -121q-15 -75 -42 -129t-64 -96t-81.5 -75.5t-94.5 -67.5q-56 -38 -95.5 -76t-68 -85.5t-48.5 -108t-36 -143.5l-165 -1q9 71 22.5 138t41.5 130t76 121t127 111q45 31 82 57
t65.5 54.5t48 62t29.5 80.5q20 90 -30.5 135t-163.5 45q-61 0 -128 -17.5t-146 -46.5zM400 159q103 0 84 -89q-8 -38 -36.5 -63t-82.5 -25q-107 0 -87 90q10 45 41 66t81 21z" />
    <glyph glyph-name="at" unicode="@" horiz-adv-x="2063" 
d="M662 504q27 130 86 228.5t141 165.5t181.5 101t209.5 34q58 0 110 -8t97.5 -20.5t85.5 -29t73 -33.5l-168 -787q-3 -21 6 -34t25 -20.5t35.5 -10t37.5 -2.5q71 0 122.5 45.5t89 120.5t64.5 171t48 197q70 328 -72 489.5t-504 161.5q-768 0 -938 -802q-41 -189 -25.5 -327
t86.5 -227.5t197.5 -133t307.5 -44.5q100 -2 188 9.5t175 34.5l-10 -140q-102 -29 -199.5 -41.5t-192.5 -12.5q-440 2 -613.5 220.5t-78.5 662.5q52 245 152.5 424t246 295.5t334.5 173t419 56.5q211 0 361.5 -51.5t238.5 -152t112.5 -249.5t-17.5 -345q-33 -156 -79.5 -282
t-109.5 -215t-146 -137t-189 -48q-111 0 -174 31t-64 98l-1 13q-35 -23 -72.5 -41.5t-79 -32t-89 -20.5t-102.5 -7q-94 0 -164 32t-111 96.5t-50 163t19 230.5zM849 508q-20 -95 -15 -163.5t30.5 -113.5t69 -66.5t101.5 -21.5q37 0 74.5 7t72 19.5t65.5 29t55 36.5l127 596
q-8 4 -24.5 11.5t-40 14t-53.5 11.5t-66 5q-71 0 -134.5 -24t-115.5 -70.5t-89.5 -114.5t-56.5 -156z" />
    <glyph glyph-name="A" unicode="A" horiz-adv-x="1326" 
d="M1079 -10q-3 79 -8 175.5t-14 204.5h-630q-55 -111 -102 -208t-82 -172l-204 10q31 70 73.5 156.5t91.5 182.5t103.5 198.5t110.5 203.5t112 198t107.5 182t97.5 155t83 117h283q18 -54 35.5 -129t33.5 -164t31 -188t28.5 -200.5t24 -202.5t18 -193.5t12 -173.5t5.5 -142
zM906 1224q-48 -72 -98.5 -155t-100.5 -171.5t-100 -180.5t-96 -182h532q-16 172 -41 348.5t-61 340.5h-35z" />
    <glyph glyph-name="B" unicode="B" horiz-adv-x="1230" 
d="M175 0l296 1393h436q108 0 188.5 -22t131 -66.5t68 -111.5t-1.5 -156q-25 -115 -98 -191t-179 -112l-3 -11q57 -15 98.5 -43.5t66 -70t31 -95.5t-7.5 -119q-42 -200 -182.5 -297.5t-367.5 -97.5h-476zM408 155h253q142 0 232.5 60.5t117.5 188.5q26 118 -37 179.5
t-206 61.5h-255zM544 795h223q67 0 124.5 15.5t101.5 45.5t73.5 73t41.5 98q12 59 -0.5 100t-46 67t-85 38t-117.5 12h-219z" />
    <glyph glyph-name="C" unicode="C" horiz-adv-x="1205" 
d="M418 691q-58 -272 22.5 -406t295.5 -134q87 0 175.5 26.5t192.5 76.5l39 -139q-116 -63 -237.5 -98t-230.5 -35q-140 0 -243 40t-163.5 124.5t-75 215.5t24.5 314q41 194 112.5 333t169 228.5t218 131.5t260.5 42q115 0 221 -36.5t191 -97.5l-97 -139q-79 51 -159.5 77.5
t-166.5 26.5q-432 0 -549 -551z" />
    <glyph glyph-name="D" unicode="D" horiz-adv-x="1330" 
d="M175 0l296 1393h439q82 0 158.5 -15t141 -48t114 -85.5t77.5 -127.5t32 -174t-23 -224q-41 -195 -120.5 -331.5t-183.5 -223t-226.5 -125.5t-249.5 -39h-455zM411 169h247q93 0 180.5 33.5t160.5 101t128 169t84 237.5q28 133 15.5 230t-58 160t-120.5 93.5t-171 30.5
h-241z" />
    <glyph glyph-name="E" unicode="E" horiz-adv-x="1105" 
d="M175 0l296 1393h821l-38 -169h-618l-93 -434h527l-34 -161h-527l-98 -460h637l-35 -169h-838z" />
    <glyph glyph-name="F" unicode="F" horiz-adv-x="1043" 
d="M175 1l296 1392h795l-36 -169h-594l-102 -480h517l-34 -160h-517l-124 -583h-201z" />
    <glyph glyph-name="G" unicode="G" horiz-adv-x="1301" 
d="M222 695q39 183 108.5 317.5t165.5 223t215.5 132t257.5 43.5q135 0 249.5 -31t196.5 -82l-98 -147q-84 43 -180.5 67t-193.5 24q-94 0 -176.5 -34t-150 -101.5t-117.5 -168.5t-78 -235q-31 -144 -26 -248.5t45 -172t113.5 -99.5t179.5 -32q64 0 127.5 10.5t129.5 27.5
l74 352h-289l38 178h476l-139 -654q-46 -18 -102.5 -33t-118 -26.5t-124.5 -17.5t-120 -6q-302 0 -420.5 177t-42.5 536z" />
    <glyph glyph-name="H" unicode="H" horiz-adv-x="1444" 
d="M175 0l296 1393h201l-128 -599h690l128 599h202l-296 -1393h-202l133 626h-690l-133 -626h-201z" />
    <glyph glyph-name="I" unicode="I" horiz-adv-x="553" 
d="M175 0l296 1393h201l-296 -1393h-201z" />
    <glyph glyph-name="J" unicode="J" horiz-adv-x="784" 
d="M687 371q-20 -95 -51.5 -168t-79 -122t-113 -74t-153.5 -25q-36 0 -70.5 5.5t-66 14.5t-59.5 20.5t-50 22.5l74 152q34 -17 77 -31.5t85 -14.5q53 0 87.5 14.5t57 41t35.5 63.5t22 81l222 1042h201z" />
    <glyph glyph-name="K" unicode="K" horiz-adv-x="1257" 
d="M175 1l296 1392h200l-147 -688q102 57 207.5 136.5t200.5 171t175 189.5t131 191h218q-92 -153 -223 -304t-286 -282q12 -82 44.5 -185.5t78.5 -208t103 -199t119 -159.5l-172 -110q-57 65 -111.5 152.5t-100 185t-79.5 199.5t-49 197q-74 -51 -148.5 -94t-149.5 -77
l-107 -507h-200z" />
    <glyph glyph-name="L" unicode="L" horiz-adv-x="1036" 
d="M175 0l296 1393h201l-261 -1224h578l-35 -169h-779z" />
    <glyph glyph-name="M" unicode="M" horiz-adv-x="1784" 
d="M109 0q40 161 85.5 322t90.5 309q33 106 67 212t67.5 205t65 187t57.5 158h318l83 -1128h11l561 1128h317q-9 -149 -24 -333.5t-42 -423.5q-11 -91 -22 -172.5t-22.5 -158.5t-23.5 -152t-25 -153h-204q13 70 28 168t30.5 208.5t30 226t26 221.5t18.5 195t8 146h-14
l-594 -1164h-220l-101 1164h-14q-28 -70 -60 -162.5t-65 -196.5t-65.5 -214.5t-62.5 -216.5t-56 -202.5t-45 -172.5h-204z" />
    <glyph glyph-name="N" unicode="N" horiz-adv-x="1473" 
d="M175 0l296 1393h245q34 -57 71 -146t75 -194.5t76.5 -219t75 -218t70.5 -191.5t63 -140h13l233 1109h201l-296 -1393h-238q-39 67 -77 157.5t-75 193t-74 210t-73 207.5t-71 187t-70 148h-13l-232 -1103h-200z" />
    <glyph glyph-name="O" unicode="O" horiz-adv-x="1427" 
d="M1500 696q-40 -187 -118.5 -322t-182.5 -222t-228.5 -128.5t-255.5 -41.5q-137 1 -245.5 44t-177 131t-89 222t18.5 316q39 181 116.5 315t182.5 223t232 133t265 45q135 0 242 -44.5t173 -134.5t85.5 -224t-18.5 -312zM982 1242q-114 0 -206.5 -43t-163 -117
t-119.5 -173.5t-74 -213.5q-24 -107 -19.5 -205.5t43.5 -173.5t114.5 -120t193.5 -45q105 0 195 38.5t160.5 110t120.5 172t76 223.5q25 117 18.5 217t-46 173.5t-112.5 115t-181 41.5z" />
    <glyph glyph-name="P" unicode="P" horiz-adv-x="1159" 
d="M175 0l296 1393h448q111 0 193.5 -29t132.5 -85t65.5 -138t-6.5 -189q-26 -122 -84 -211t-139.5 -147.5t-181 -87t-207.5 -28.5h-213l-101 -478h-203zM514 640h216q64 0 124 16.5t109.5 52t86 91.5t53.5 135q20 92 4 149.5t-54.5 89.5t-93.5 43.5t-113 11.5h-207z" />
    <glyph glyph-name="Q" unicode="Q" horiz-adv-x="1427" 
d="M1500 696q-30 -139 -81 -249t-119.5 -193t-150.5 -140t-173 -89q42 -45 94.5 -89.5t108 -85t111 -74.5t103.5 -58l-146 -112q-59 24 -124.5 66t-129.5 93t-123 107.5t-105 111.5q-13 -1 -25 -1.5t-25 -0.5q-137 1 -245.5 44t-177 131t-89 222t18.5 316q39 181 116.5 315
t182.5 223t232 133t265 45q135 0 242 -44.5t173 -134.5t85.5 -224t-18.5 -312zM982 1242q-114 0 -206.5 -43t-163 -117t-119.5 -173.5t-74 -213.5q-24 -107 -19.5 -205.5t43.5 -173.5t114.5 -120t193.5 -45q105 0 195 38.5t160.5 110t120.5 172t76 223.5q25 117 18.5 217
t-46 173.5t-112.5 115t-181 41.5z" />
    <glyph glyph-name="S" unicode="S" horiz-adv-x="1083" 
d="M191 259q67 -36 117 -57.5t92 -32.5t80 -14.5t82 -3.5q68 0 122 18t93 49t63.5 72.5t34.5 89.5t3 85t-33 66.5t-71.5 53.5t-112.5 45q-96 30 -169 61.5t-118 75t-59.5 106t5.5 155.5q18 87 62.5 157.5t112.5 120.5t160 77.5t205 27.5q100 0 190.5 -25.5t185.5 -84.5
l-98 -140q-42 24 -80 39.5t-74 24.5t-72.5 13t-75.5 4q-62 0 -115 -13.5t-93.5 -39t-67.5 -62.5t-37 -83q-11 -54 -2.5 -90t39.5 -63t85.5 -49.5t135.5 -49.5q85 -28 148.5 -63t102.5 -82t51.5 -108.5t-4.5 -141.5q-20 -92 -63.5 -168.5t-111.5 -131t-160 -85t-209 -30.5
q-62 0 -118.5 7.5t-110.5 23t-106 40t-106 58.5z" />
    <glyph glyph-name="T" unicode="T" horiz-adv-x="1083" 
d="M294 1224l36 169h1016l-36 -169h-407l-260 -1224h-202l260 1224h-407z" />
    <glyph glyph-name="U" unicode="U" horiz-adv-x="1372" 
d="M686 -18q-130 0 -225 32t-150.5 98t-70.5 168t15 241l186 872h201l-182 -854q-21 -101 -18.5 -174t33.5 -120.5t92 -70.5t156 -23q92 0 161.5 26.5t119.5 76t83 120.5t52 159l183 860h201l-186 -872q-29 -138 -86 -239.5t-139.5 -168t-189.5 -99t-236 -32.5z" />
    <glyph glyph-name="V" unicode="V" horiz-adv-x="1291" 
d="M502 0q-28 88 -53.5 202t-46.5 241t-37.5 259.5t-28.5 258t-19 237t-8 195.5l211 10q0 -54 4.5 -140t13 -190.5t21 -221t29 -232.5t36 -224.5t41.5 -197.5h40q32 46 73 112t87 144.5t95 166t98 177.5t95 178t86 167.5t72 146.5t52 114l208 -10q-32 -72 -83 -176.5
t-114 -228t-136.5 -257.5t-149.5 -264.5t-153 -251t-148 -215.5h-285z" />
    <glyph glyph-name="W" unicode="W" horiz-adv-x="1932" 
d="M1372 1393q-2 -87 -2 -189t1.5 -210t5 -216.5t10 -209.5t15.5 -190t21 -157h17q42 76 88 175t93 209t92 223.5t85.5 219.5t73 198t54.5 157l210 -10q-30 -96 -73.5 -213t-95.5 -244t-110 -257.5t-116 -253.5t-114.5 -232t-104.5 -193h-266q-14 67 -24 156t-18 187.5
t-12.5 201t-7 199t-2.5 180t3 144.5h-6q-27 -70 -63 -155.5t-78 -179.5t-88.5 -192t-94.5 -193.5t-96.5 -184.5t-93.5 -163h-266q-13 66 -22 168t-15.5 224.5t-8.5 258t-0.5 268t7.5 255t17 219.5l214 10q-7 -50 -12 -118.5t-9.5 -149t-7.5 -168.5t-4 -177t-1 -174.5
t1.5 -160t5.5 -135t9 -99.5h17q44 70 94 165t102 203t104 221.5t98.5 220.5t85.5 200.5t66 161.5h222z" />
    <glyph glyph-name="X" unicode="X" horiz-adv-x="1227" 
d="M39 0q69 106 133 194t130 171q35 44 79 96.5t89 104t86.5 96.5t71.5 74q-19 35 -37 68.5t-37 71.5t-39.5 83t-44.5 104q-29 73 -51.5 154.5t-43.5 175.5l227 10q3 -19 9 -47.5t15 -63t20 -73t24 -77.5q61 -168 122 -276h10q20 21 43.5 45.5t51.5 56.5t61.5 72t72.5 93
q34 43 57.5 75t44 61.5t41 60.5t47.5 73l223 -10q-32 -49 -64 -95.5t-65 -92.5t-69 -91.5t-76 -93.5q-88 -103 -154 -174.5t-104 -111.5q29 -50 72.5 -143t88.5 -211q37 -98 64.5 -188t50.5 -192l-229 -10q-7 30 -13.5 61.5t-16 68t-22 79.5t-31.5 96q-41 118 -75.5 191
t-55.5 109h-11q-27 -26 -59.5 -61t-67 -75.5t-70 -84.5t-68.5 -87q-63 -81 -113.5 -156.5t-92.5 -140.5z" />
    <glyph glyph-name="Y" unicode="Y" horiz-adv-x="1191" 
d="M429 953q-24 65 -45.5 129.5t-38.5 122.5t-30 106.5t-20 81.5l230 10q6 -29 16 -71.5t23 -91t27.5 -98t29.5 -92.5q14 -42 31 -88.5t34 -89.5t33.5 -78.5t28.5 -54.5h10q19 19 49.5 54t65.5 77.5t72 89t69 88.5q33 45 67.5 93t67 94.5t61 89.5t51.5 78l226 -10
q-54 -81 -135 -193.5t-181 -240.5q-88 -114 -178.5 -213t-180.5 -197l-116 -549h-201l116 549q-44 88 -93 190t-89 214z" />
    <glyph glyph-name="Z" unicode="Z" horiz-adv-x="1110" 
d="M88 0l35 167q60 78 138 164.5t164.5 177t177.5 183t178 183t164.5 176.5t138.5 165l2 8h-706l36 169h932l-38 -179q-60 -82 -136 -168t-159.5 -173.5t-171 -175.5t-172 -175.5t-162 -174t-140.5 -169.5l-2 -9h690l-35 -169h-934z" />
    <glyph glyph-name="bracketleft" unicode="[" horiz-adv-x="649" 
d="M96 -294l381 1792h439l-33 -155h-247l-315 -1483h247l-33 -154h-439z" />
    <glyph glyph-name="backslash" unicode="\" horiz-adv-x="864" 
d="M606 -136l-249 1581l193 60l249 -1582z" />
    <glyph glyph-name="bracketright" unicode="]" horiz-adv-x="650" 
d="M29 -294l33 154h247l315 1483h-247l33 155h439l-381 -1792h-439z" />
    <glyph glyph-name="asciicircum" unicode="^" horiz-adv-x="1079" 
d="M488 1011l-153 51l389 358l265 -1l236 -357l-178 -54l-221 272z" />
    <glyph glyph-name="underscore" unicode="_" horiz-adv-x="1294" 
d="M144 -14h1000l-32 -146h-1000z" />
    <glyph glyph-name="grave" unicode="`" horiz-adv-x="667" 
d="M684 1114l-232 262l165 98l173 -293z" />
    <glyph glyph-name="a" unicode="a" horiz-adv-x="1119" 
d="M186 504q27 130 86 228.5t141 165.5t182 101t209 34q58 0 110.5 -8t98 -20.5t85 -29t72.5 -33.5l-200 -942h-166l-4 98q-35 -23 -70.5 -44t-75 -37t-84.5 -25.5t-99 -9.5q-86 0 -152 32t-105 96.5t-47.5 163t19.5 230.5zM374 508q-20 -95 -15 -163.5t30 -113.5t69 -66.5
t102 -21.5q37 0 74 7t72 19.5t66.5 29t55.5 36.5l128 599q-8 4 -25.5 10.5t-42 12.5t-55 10.5t-64.5 4.5q-70 0 -133.5 -24t-115.5 -70t-89.5 -114t-56.5 -156z" />
    <glyph glyph-name="b" unicode="b" horiz-adv-x="1130" 
d="M455 1443h193l-108 -510q25 14 62 31.5t80 32.5t91 25.5t96 10.5q94 0 159 -34.5t101 -99.5t42 -157.5t-18 -208.5q-57 -266 -210.5 -408.5t-404.5 -142.5q-53 0 -106.5 6.5t-103 17.5t-93 24.5t-74.5 27.5zM378 172q42 -14 94 -21.5t103 -7.5q157 0 252.5 95.5
t135.5 284.5q15 71 13 134.5t-23 111.5t-63 76t-108 28q-32 0 -72 -9.5t-79.5 -23.5t-72.5 -30.5t-51 -29.5z" />
    <glyph glyph-name="c" unicode="c" horiz-adv-x="942" 
d="M202 518q28 132 82 229t127.5 160.5t162.5 94.5t186 31q80 0 157.5 -20.5t150.5 -69.5l-86 -132q-52 31 -109.5 46.5t-116.5 15.5q-145 0 -237.5 -93.5t-130.5 -270.5q-19 -87 -15.5 -155.5t30 -115t77 -71t125.5 -24.5q65 0 127 17.5t121 43.5l31 -131
q-89 -45 -174.5 -68t-173.5 -23q-120 0 -197 39.5t-115.5 111t-42.5 170t21 215.5z" />
    <glyph glyph-name="d" unicode="d" horiz-adv-x="1133" 
d="M817 0l-4 98q-74 -51 -153 -83.5t-174 -32.5q-83 0 -149.5 29.5t-107 93t-50.5 163t20 239.5q20 91 55.5 166t82 133t101 101t112.5 71t116 41.5t111 13.5q45 0 78.5 -4t59 -10t44.5 -13.5t36 -13.5l96 451h198l-306 -1443h-166zM387 507q-20 -95 -15.5 -163.5t30 -113
t69.5 -66t103 -21.5q60 0 129.5 20t134.5 63l128 605q-27 18 -78.5 30t-108.5 12q-67 0 -129 -22.5t-114 -68t-90.5 -114t-58.5 -161.5z" />
    <glyph glyph-name="e" unicode="e" horiz-adv-x="1045" 
d="M371 420q-6 -67 6 -119t44 -88t86 -54.5t132 -18.5q72 0 142 22.5t129 51.5l31 -136q-46 -23 -90 -40.5t-89 -30t-92 -19t-99 -6.5q-236 0 -330.5 137t-38.5 400q26 124 80 219.5t129.5 161t169 99.5t199.5 34q85 0 153 -25.5t113 -69.5t63 -105t3 -131
q-12 -58 -39.5 -109.5t-75.5 -89.5t-118.5 -60.5t-168.5 -22.5h-339zM739 873q-61 0 -113 -22.5t-95 -62t-75 -93.5t-52 -116h310q43 0 77.5 4t61 15.5t43.5 33t25 57.5q10 49 -3 83.5t-40.5 57t-64.5 33t-74 10.5z" />
    <glyph glyph-name="f" unicode="f" horiz-adv-x="646" 
d="M287 991l99 20l24 113q12 55 38.5 113t70.5 105.5t106.5 77.5t146.5 30q66 0 121 -16.5t88 -36.5l-75 -135q-20 7 -52.5 17t-81.5 10q-30 0 -57 -9.5t-49.5 -32t-40 -59t-28.5 -89.5l-19 -88h228l-31 -150h-228l-183 -861h-192l183 861h-95z" />
    <glyph glyph-name="g" unicode="g" horiz-adv-x="1132" 
d="M199 504q29 136 91.5 236t146 165t181.5 96.5t198 31.5q52 0 103.5 -7.5t99 -20t89.5 -28.5t75 -34l-191 -900h-2l1 -1l-1 -8q-27 -126 -79.5 -210t-123 -135t-155 -72.5t-174.5 -21.5q-40 0 -85.5 8t-91 22.5t-87 33.5t-72.5 42l84 128q24 -15 53 -29t63 -25t71.5 -18
t76.5 -8q57 -1 110 14t97 49.5t77 90.5t50 137l10 45q-72 -44 -149.5 -73.5t-173.5 -29.5q-94 0 -161.5 33.5t-106 99.5t-45 163.5t20.5 225.5zM387 508q-38 -179 12.5 -272t179.5 -93q31 0 66 7.5t70 20.5t67.5 30t57.5 36l127 600q-19 11 -69.5 23.5t-116.5 12.5
q-58 0 -119 -20t-115 -64t-96.5 -113t-63.5 -168z" />
    <glyph glyph-name="h" unicode="h" 
d="M455 1443h193l-108 -510q31 15 72.5 32.5t88 32.5t96 25t96.5 10q94 0 150.5 -35.5t83.5 -91.5t28.5 -124.5t-12.5 -135.5l-137 -646h-190l137 647q3 12 6 34t2.5 47t-7 50.5t-23 46.5t-46.5 34t-76 13q-32 0 -75.5 -10t-87.5 -24.5t-82 -31.5t-58 -30l-164 -776h-193z
" />
    <glyph glyph-name="i" unicode="i" horiz-adv-x="492" 
d="M150 0l214 1011h192l-214 -1011h-192zM537 1377q59 0 84.5 -25t14.5 -77q-10 -45 -43.5 -73t-96.5 -28q-123 0 -101 103q11 52 47 76t95 24z" />
    <glyph glyph-name="j" unicode="j" horiz-adv-x="492" 
d="M-194 -182q93 -36 171 -34q60 2 103.5 49t63.5 139l220 1039h193l-223 -1053q-11 -49 -35 -106.5t-68 -107.5t-110.5 -83.5t-160.5 -33.5q-40 0 -75.5 6t-64.5 14.5t-51 17t-34 14.5zM539 1377q119 0 98 -102q-10 -45 -43 -73t-96 -28q-124 0 -102 103q11 52 47.5 76
t95.5 24z" />
    <glyph glyph-name="k" unicode="k" horiz-adv-x="1081" 
d="M1180 1011q-81 -134 -179.5 -242t-210.5 -191q15 -69 41.5 -143t60 -145.5t72.5 -136t80 -114.5l-155 -94q-41 34 -83.5 96.5t-79 137t-65 151.5t-41.5 140q-96 -52 -196 -84l-82 -386h-193l306 1443h193l-185 -871q87 32 160 77.5t136 101.5t117 121.5t102 138.5h202v0z
" />
    <glyph glyph-name="l" unicode="l" horiz-adv-x="492" 
d="M149 0l306 1443h193l-306 -1443h-193z" />
    <glyph glyph-name="m" unicode="m" horiz-adv-x="1729" 
d="M325 864q34 19 89.5 47.5t126.5 55.5t154 46.5t172 19.5q82 0 135 -28t79 -80q41 20 86.5 39.5t94.5 34.5t101 24.5t106 9.5q65 0 111.5 -15t76.5 -41.5t46 -62t21.5 -76.5t1.5 -85.5t-13 -88.5l-141 -664h-192l128 606q6 27 12.5 57t9 59.5t-1 57t-17 48t-40 33
t-70.5 12.5q-38 0 -79.5 -10.5t-81.5 -26t-74.5 -33.5t-57.5 -33q-1 -55 -15 -118l-138 -652h-193l135 637q5 23 9.5 49.5t5 52.5t-4 50.5t-18 43t-38 29.5t-63.5 11t-80.5 -9.5t-80 -23.5t-71 -30t-53.5 -29l-166 -781h-195z" />
    <glyph glyph-name="n" unicode="n" 
d="M332 864q39 23 97.5 52t131.5 55t156 44t170 18q97 0 156.5 -31t89 -82.5t32.5 -119.5t-13 -142l-139 -658h-192l137 647q8 38 9 77.5t-13 72t-46 53t-89 20.5q-40 0 -84 -10.5t-86.5 -25.5t-80 -32.5t-63.5 -31.5l-163 -770h-193z" />
    <glyph glyph-name="o" unicode="o" horiz-adv-x="1145" 
d="M201 516q25 119 78 214.5t128.5 163t173 103.5t211.5 36q91 0 171.5 -27t135 -88.5t74 -160.5t-10.5 -242q-27 -129 -81 -228.5t-130.5 -167t-173 -102.5t-208.5 -35t-194 34t-130 101.5t-60 167t16 231.5zM389 515q-21 -101 -14.5 -172t35.5 -115.5t79 -64.5t115 -20
q66 0 124 21t106 66t83.5 115.5t56.5 169.5q19 92 12 159.5t-36.5 111.5t-78.5 65.5t-112 21.5q-66 0 -124.5 -22t-107 -66.5t-84 -111.5t-54.5 -158z" />
    <glyph glyph-name="p" unicode="p" horiz-adv-x="1132" 
d="M336 880q32 21 86 47t118.5 49t134.5 39t133 16q106 0 183.5 -27t122.5 -87t54.5 -157.5t-20.5 -238.5q-22 -104 -68 -201t-116.5 -172t-164.5 -120.5t-212 -45.5q-51 0 -88 4t-64.5 10t-48 13.5t-39.5 14.5l-87 -407h-193zM380 180q16 -6 35 -13t42.5 -12t53.5 -8.5
t68 -3.5q87 0 153 36t113 91.5t76 122t42 128.5q19 91 14.5 157t-30.5 108t-71 62t-105 20q-38 0 -76.5 -9t-73.5 -22.5t-64.5 -28t-48.5 -26.5z" />
    <glyph glyph-name="q" unicode="q" horiz-adv-x="1132" 
d="M199 506q28 133 89.5 232t145 164.5t185 98t209.5 32.5q51 0 100 -7.5t94.5 -20.5t86.5 -29t74 -33l-281 -1323h-193l97 458q-71 -42 -142 -69t-157 -27q-199 0 -280.5 134t-27.5 390zM390 520q-39 -183 8.5 -280t186.5 -97q28 0 61 6t66 16.5t65 24.5t59 31l132 618
q-34 19 -85.5 26.5t-111.5 7.5q-53 0 -111.5 -20.5t-112 -64t-96 -110t-61.5 -158.5z" />
    <glyph glyph-name="r" unicode="r" horiz-adv-x="799" 
d="M347 885q182 110 342.5 136t303.5 -20l-62 -151q-46 9 -95 12.5t-101 -2.5t-106.5 -24.5t-111.5 -52.5l-166 -783h-192z" />
    <glyph glyph-name="s" unicode="s" horiz-adv-x="883" 
d="M168 219q82 -45 153 -62t141 -17q40 0 75.5 12.5t64 33t47.5 46.5t25 53q6 24 1.5 45t-24 41.5t-57 41.5t-99.5 46q-59 22 -110 45t-86.5 55t-50 78t0.5 116q14 69 51.5 121t93 87.5t125.5 53.5t149 18q97 0 171.5 -19t139.5 -57l-85 -137q-65 28 -117.5 40.5
t-106.5 12.5q-99 0 -159.5 -31t-75.5 -100q-7 -34 8.5 -55t44 -35.5t66 -26t74.5 -24.5q77 -28 128 -60t78.5 -71t33 -86t-6.5 -104q-13 -62 -51 -116t-94.5 -94.5t-127.5 -64t-151 -23.5q-66 0 -120.5 9t-99 22.5t-79 30t-59.5 31.5z" />
    <glyph glyph-name="t" unicode="t" horiz-adv-x="781" 
d="M303 991l123 20l77 246h169l-53 -246h236l-31 -150h-236l-118 -552q-8 -37 -8.5 -67.5t8 -52.5t28 -34t51.5 -12q53 0 89.5 12.5t71.5 25.5l23 -133q-30 -15 -59.5 -27t-61 -20.5t-66.5 -13.5t-76 -5q-59 0 -103.5 19t-70.5 57.5t-32.5 97t10.5 137.5l121 568h-119z" />
    <glyph glyph-name="u" unicode="u" 
d="M349 1011h192l-128 -602q-16 -77 -9 -128t31.5 -82t64 -43.5t88.5 -12.5q149 0 266 84l166 784h192l-214 -1011h-165l-4 97q-27 -20 -62 -40.5t-75.5 -37t-86 -27t-93.5 -10.5q-99 0 -164.5 29.5t-101 83t-42 128t12.5 164.5z" />
    <glyph glyph-name="v" unicode="v" horiz-adv-x="1044" 
d="M402 0q-86 236 -122 491t-26 520l210 10q-5 -56 -5.5 -126.5t3.5 -148t12.5 -157.5t20 -156t26 -143t32.5 -118h11q38 51 80 115t84.5 136t83.5 149.5t78.5 155.5t69 152.5t55.5 140.5l204 -10q-48 -129 -110.5 -260t-136 -259.5t-156.5 -252.5t-172 -239h-242z" />
    <glyph glyph-name="w" unicode="w" horiz-adv-x="1657" 
d="M1797 1011q-85 -258 -209 -510.5t-270 -500.5h-255q-38 190 -58 376.5t-14 381.5h-6q-43 -108 -89.5 -207.5t-96.5 -193.5t-102 -182.5t-105 -174.5h-254q-21 115 -36 246.5t-22.5 265.5t-6 262.5t13.5 236.5l207 10q-12 -94 -18 -201t-5.5 -217.5t8 -219t21.5 -204.5h7
q72 114 135 229.5t114.5 223.5t92 205t67.5 174h252q-9 -83 -8 -188.5t9 -217.5t22.5 -222.5t32.5 -203.5h8q32 55 67.5 126t72 148.5t71 158t64.5 156t53 140.5t36 113z" />
    <glyph glyph-name="x" unicode="x" horiz-adv-x="980" 
d="M33 0q17 33 36.5 66.5t43.5 69.5t52.5 76t64.5 86q35 45 67.5 79t62.5 61.5t57 50t51 43.5q-38 57 -75 112t-60 118q-52 145 -61 249l210 3q4 -54 12 -95.5t23 -90.5q18 -57 45 -101t55 -79h8q23 19 44.5 38.5t42.5 40.5t43 46t46 55q38 47 64.5 90t50.5 96l209 -3
q-16 -33 -32 -61t-34.5 -56.5t-42.5 -60t-55 -70.5q-34 -41 -64 -72t-58 -57t-56 -50t-58 -52q13 -17 31.5 -42.5t38 -56.5t37.5 -65.5t30 -68.5q22 -62 34 -103t19 -73t11 -60t10 -63l-214 -3q-1 24 -3.5 48t-7.5 50.5t-13 57t-21 67.5q-9 27 -21 55.5t-25.5 55.5t-27.5 50
t-26 37h-9q-17 -14 -40 -35.5t-48.5 -48t-51.5 -56.5t-48 -61q-30 -41 -51 -72t-36 -56.5t-26.5 -47.5t-21.5 -44z" />
    <glyph glyph-name="y" unicode="y" horiz-adv-x="1054" 
d="M102 -381q36 36 78.5 81t87 95t88.5 102.5t82 102.5h-30q-47 132 -78 259t-47.5 252t-20.5 249.5t4 250.5l209 10q-10 -112 -9.5 -227t11 -225.5t30.5 -213t49 -188.5h11q81 105 151 221.5t126.5 230t99 217.5t68.5 185l203 -10q-27 -82 -65.5 -172t-85 -182.5
t-98.5 -184t-106.5 -176.5t-109 -160.5t-105.5 -135.5q-32 -44 -80.5 -105.5t-102 -127.5t-107 -129.5t-95.5 -111.5z" />
    <glyph glyph-name="z" unicode="z" horiz-adv-x="982" 
d="M308 850l34 161h746l-29 -139q-75 -93 -166.5 -181t-186 -174.5t-186.5 -173.5t-170 -178l-1 -4h568l-34 -161h-799l31 146q75 92 165.5 179.5t185 173t186 171.5t168.5 176l1 4h-513z" />
    <glyph glyph-name="braceleft" unicode="{" horiz-adv-x="720" 
d="M261 670q103 20 153.5 79t65.5 161l29 219q15 98 47 168.5t84 116t125.5 67t171.5 22.5q32 0 65 -3l-39 -147q-5 0 -16.5 0.5t-24.5 -1.5q-50 0 -85 -8.5t-59.5 -29t-40 -54.5t-26.5 -85q-8 -35 -14 -76.5t-11.5 -81.5t-11 -76t-10.5 -60q-12 -63 -30.5 -108.5t-46.5 -78
t-66 -54t-90 -37.5q45 -18 74.5 -40t43.5 -55t12.5 -81t-18.5 -117q-13 -54 -35 -124t-38 -146q-11 -49 -12.5 -84.5t12 -58t45 -33t87.5 -10.5q10 -2 20.5 -2t21.5 1l-23 -148q-20 -2 -38 -2h-35q-111 0 -175 27t-91.5 78t-22.5 125t32 169l51 178q14 50 21 89.5t-2.5 70.5
t-39.5 54t-89 41z" />
    <glyph glyph-name="bar" unicode="|" horiz-adv-x="481" 
d="M74 -343l392 1846h187l-392 -1846h-187z" />
    <glyph glyph-name="braceright" unicode="}" horiz-adv-x="751" 
d="M740 535q-66 -18 -105.5 -41t-62 -54t-32.5 -70.5t-17 -89.5l-25 -178q-14 -95 -40.5 -169t-75.5 -125t-124.5 -78t-187.5 -27h-35t-35 2l39 148q11 -1 21.5 -1t20.5 2q55 0 91.5 10.5t59.5 33t36.5 58t24.5 84.5q16 76 23.5 146t17.5 124q13 69 31.5 117t46.5 81t67 55
t92 40q-45 16 -74 37.5t-43 54t-13 78t16 108.5q5 24 15 60t21 76t22 81.5t19 76.5q11 51 9.5 85t-17 54.5t-47 29t-81.5 8.5q-13 2 -24 1.5t-16 -0.5l23 147q36 3 67 3q98 -1 162.5 -22.5t97 -67t34 -116t-25.5 -168.5l-63 -219q-29 -102 -3 -161t119 -79z" />
    <glyph glyph-name="asciitilde" unicode="~" horiz-adv-x="1177" 
d="M200 513q78 97 164 141.5t190 44.5q51 0 94.5 -16t82.5 -35.5t76.5 -35.5t77.5 -16q31 0 56 3t48.5 12t47.5 25.5t53 43.5l109 -70q-38 -50 -79.5 -84t-85.5 -54.5t-89 -29.5t-88 -9q-52 0 -96.5 16t-85 35t-78.5 35t-78 16q-35 0 -61.5 -5t-50.5 -16t-47 -28.5
t-50 -42.5z" />
    <glyph glyph-name="exclamdown" unicode="&#xa1;" horiz-adv-x="503" 
d="M344 813h170l-194 -998h-205zM481 1033q-59 0 -85 24t-15 75q22 102 145 102q62 0 83.5 -28t12.5 -72q-22 -101 -141 -101z" />
    <glyph glyph-name="sterling" unicode="&#xa3;" horiz-adv-x="1126" 
d="M294 673h111q-1 43 -7 84t-9.5 84.5t-2.5 92t13 107.5q16 75 51 142t90.5 118t131 80.5t171.5 29.5q71 0 127 -8.5t103.5 -24t90 -37.5t86.5 -49l-89 -140q-31 19 -62.5 35.5t-69 28.5t-83 19t-103.5 7q-46 0 -86.5 -15.5t-73 -44.5t-56 -69.5t-33.5 -91.5
q-12 -56 -12 -100.5t5.5 -85t12 -79.5t7.5 -83h284l-26 -118h-272q-11 -50 -27.5 -105.5t-38.5 -108.5t-49.5 -101t-61.5 -84q42 4 81.5 1.5t78.5 -7t77.5 -9t79.5 -4.5q40 0 79 4t74 10.5t64.5 14.5t50.5 17l26 -140q-28 -14 -67 -25.5t-83 -19.5t-89 -12t-84 -4
q-44 0 -89 3.5t-90.5 7.5t-90.5 7.5t-88 3.5q-31 0 -64 -3.5t-61 -7.5q-33 -5 -64 -11l32 153q34 24 65 66t57 97t47 120.5t36 136.5h-126z" />
    <glyph glyph-name="yen" unicode="&#xa5;" horiz-adv-x="1250" 
d="M1030 249h-676l30 137h676zM1078 471h-676l29 138h676zM465 953q-24 65 -45.5 129.5t-38.5 122.5t-30 106.5t-20 81.5l230 10q6 -29 16 -71.5t23 -91t27.5 -98t29.5 -92.5q14 -42 31 -88.5t34 -89.5t33.5 -78.5t28.5 -54.5h10q19 19 49.5 54t65.5 77.5t72 89t69 88.5
q33 45 67.5 93t67 94.5t61 89.5t51.5 78l226 -10q-54 -81 -135 -193.5t-181 -240.5q-88 -114 -178.5 -213t-180.5 -197l-116 -549h-201l116 549q-44 88 -93 190t-89 214z" />
    <glyph glyph-name="brokenbar" unicode="&#xa6;" horiz-adv-x="483" 
d="M79 -318l158 746h189l-158 -746h-189zM307 754l166 781h189l-166 -781h-189z" />
    <glyph glyph-name="section" unicode="&#xa7;" horiz-adv-x="947" 
d="M170 200q44 -22 83.5 -35t76.5 -20t71.5 -9.5t69.5 -2.5q44 0 80.5 12t64 32.5t45 47t24.5 56.5q6 30 1 54t-25 45t-58 41.5t-97 42.5q-58 21 -108.5 44t-85.5 57t-49 83t1 120q10 50 34.5 93.5t60 79.5t80.5 63.5t98 44.5q-20 18 -35.5 39.5t-24 47.5t-9.5 57t7 69
q15 70 52.5 122.5t93.5 87.5t129 52.5t158 17.5t156.5 -18.5t138.5 -57.5l-81 -128q-64 27 -118 40t-108 13q-46 0 -85.5 -8.5t-70.5 -26t-51.5 -43t-27.5 -58.5q-8 -35 7 -57.5t43 -38t65.5 -27.5t75.5 -26q75 -27 126 -56.5t79.5 -66t35 -84.5t-6.5 -112
q-21 -100 -92.5 -172t-182.5 -104q48 -44 62.5 -100t-1.5 -133q-14 -65 -50 -119.5t-91 -93.5t-127 -61t-157 -22q-64 0 -121 10t-104 24.5t-81.5 30.5t-52.5 28zM438 776q-8 -39 11 -65.5t54 -46.5q51 -20 98.5 -31t93.5 -11q44 0 80.5 12t64 32t45 47t24.5 57
q5 24 2.5 44.5t-15 38.5t-36 35t-60.5 35q-28 9 -54 14t-51 5q-46 0 -89 -13.5t-78 -36t-59 -52.5t-31 -64z" />
    <glyph glyph-name="dieresis" unicode="&#xa8;" horiz-adv-x="864" 
d="M687 1316q103 0 84 -89q-8 -38 -36.5 -62.5t-83.5 -24.5q-106 0 -87 89q10 46 41 66.5t82 20.5zM1017 1316q103 0 84 -89q-8 -38 -36.5 -62.5t-82.5 -24.5q-106 0 -87 89q10 46 41 66.5t81 20.5z" />
    <glyph glyph-name="copyright" unicode="&#xa9;" horiz-adv-x="1561" 
d="M225 693q22 102 66 195t105.5 172.5t139 144t166 110.5t185.5 70.5t198 24.5q156 0 275.5 -55.5t194 -152t99.5 -226.5t-6 -279q-32 -152 -113.5 -282.5t-197 -227t-258.5 -151.5t-298 -55q-158 0 -276.5 54t-191.5 149.5t-97 225.5t9 283zM361 693q-27 -126 -6.5 -233
t80 -185t155 -122t218.5 -44t238.5 45t210 124t162 186t93.5 231q27 124 5 232t-83 187.5t-157.5 125t-218.5 45.5q-79 0 -156 -19.5t-148.5 -56t-135 -89t-114.5 -118t-88 -143.5t-55 -166zM547 702q27 129 75.5 216.5t112.5 141.5t141 77t161 23q69 0 136 -17.5t131 -61.5
l-72 -113q-47 29 -100.5 42t-105.5 13q-65 0 -116.5 -17.5t-91.5 -56.5t-68.5 -101.5t-47.5 -152.5q-19 -88 -18.5 -151t23 -103.5t68 -59.5t116.5 -19q58 0 114.5 16t109.5 39l25 -112q-79 -41 -154 -60t-148 -19q-105 0 -172.5 31t-102 91t-38 149t21.5 205z" />
    <glyph glyph-name="ordfeminine" unicode="&#xaa;" horiz-adv-x="918" 
d="M487 1438q58 29 131.5 53t168.5 24q66 0 121 -14t91 -47t49.5 -86.5t-3.5 -132.5l-114 -537h-134v77q-15 -12 -41.5 -27.5t-62 -29.5t-77.5 -24t-89 -10q-54 0 -97.5 13t-71.5 42.5t-37 77t6 117.5q13 61 45.5 106.5t78 76.5t102 48.5t118.5 22.5l215 17l7 37
q6 27 5 53.5t-16.5 47.5t-48.5 33.5t-90 12.5q-61 0 -118.5 -20t-110.5 -41zM861 1090l-203 -18q-27 -3 -55 -9.5t-52 -21t-42.5 -39.5t-26.5 -64q-9 -41 -4 -64.5t21 -36t41 -16t56 -3.5q32 0 64.5 6t62 15t54 21t40.5 24z" />
    <glyph glyph-name="guillemotleft" unicode="&#xab;" horiz-adv-x="1142" 
d="M433 528l195 -335l-169 -100l-237 435l421 428l125 -100zM895 528l196 -335l-170 -100l-236 435l420 428l125 -100z" />
    <glyph glyph-name="logicalnot" unicode="&#xac;" horiz-adv-x="1158" 
d="M231 636l33 159h914l-98 -463h-169l65 304h-745z" />
    <glyph glyph-name="registered" unicode="&#xae;" horiz-adv-x="1453" 
d="M239 694q22 102 66 195t105.5 172.5t139 144t166 110.5t185.5 70.5t198 24.5q156 0 275.5 -55.5t194 -152t100 -226.5t-5.5 -279q-32 -152 -113.5 -283t-197 -227.5t-258.5 -151.5t-298 -55q-158 0 -276.5 54t-192 149.5t-97.5 226t9 283.5zM376 694q-27 -126 -7 -234
t79.5 -186.5t155 -123t218.5 -44.5t238.5 45.5t210 125t162 187.5t93.5 232q26 123 4.5 230.5t-82.5 187t-157 125.5t-218 46q-119 0 -232.5 -43t-207.5 -121t-161.5 -187t-95.5 -240zM1115 236q-66 81 -107.5 176t-64.5 186q-3 -1 -7 -1h-151l-71 -334h-148l195 914h291
q73 0 128.5 -19t90.5 -54.5t47 -87.5t-2 -118q-11 -53 -36 -95t-58.5 -74.5t-72.5 -56t-78 -39.5q12 -38 28.5 -79.5t37.5 -84t47.5 -84t59.5 -77.5zM810 710h170q34 0 67 13t60.5 37t47.5 57t28 72q10 45 1 76t-30 51t-50.5 29t-61.5 9h-158z" />
    <glyph glyph-name="degree" unicode="&#xb0;" horiz-adv-x="787" 
d="M680 1308q-39 0 -74 -8t-62.5 -27t-47.5 -50t-30 -77q-19 -89 20 -127.5t125 -38.5q48 0 83 13t59 35t38.5 51.5t21.5 62.5q10 46 5 78t-23 51.5t-47 28t-68 8.5zM702 1411q67 0 117 -15t80.5 -47.5t39 -83.5t-6.5 -122q-12 -55 -37 -103t-66 -83.5t-99.5 -56
t-136.5 -20.5q-146 0 -210.5 64t-34.5 204q15 72 46.5 122t77.5 81.5t104 45.5t126 14z" />
    <glyph glyph-name="plusminus" unicode="&#xb1;" horiz-adv-x="950" 
d="M524 593h-270l34 163h270l57 267h175l-57 -267h271l-34 -163h-271l-59 -274h-175zM128 4l35 161h716l-35 -161h-716z" />
    <glyph glyph-name="acute" unicode="&#xb4;" horiz-adv-x="667" 
d="M411 1181l297 293l123 -98l-343 -262z" />
    <glyph glyph-name="paragraph" unicode="&#xb6;" horiz-adv-x="1302" 
d="M497 -273l186 875h-79q-108 0 -179 29t-109.5 81.5t-46.5 125.5t11 162q16 75 52 146t94.5 125.5t141.5 88t193 33.5h293l-355 -1666h-202zM869 -273l355 1666h201l-355 -1666h-201z" />
    <glyph glyph-name="cedilla" unicode="&#xb8;" horiz-adv-x="670" 
d="M16 -305q32 -9 58.5 -12t55.5 -3q46 0 75 18t37 54q9 45 -17 60.5t-84 15.5q-17 0 -38 -1t-42 -3l98 166h148l-53 -85q35 -3 62.5 -13.5t44 -30t22 -48.5t-3.5 -69q-19 -90 -84 -133t-165 -43q-52 0 -91 7.5t-73 21.5z" />
    <glyph glyph-name="guillemotright" unicode="&#xbb;" horiz-adv-x="1175" 
d="M754 856l169 100l239 -428l-423 -435l-125 100l337 335zM292 856l169 100l238 -428l-422 -435l-126 100l338 335z" />
    <glyph glyph-name="questiondown" unicode="&#xbf;" horiz-adv-x="878" 
d="M803 -97q-36 -18 -79.5 -34.5t-90 -29t-92.5 -20t-86 -7.5q-117 0 -189 26.5t-109 71t-43.5 102.5t5.5 121q15 75 42 129t64 96t82 75.5t95 67.5q55 38 94.5 76t68 85.5t48.5 108t36 143.5l165 1q-9 -71 -22.5 -138t-41.5 -130t-76 -121t-127 -111q-45 -31 -82 -57
t-65.5 -54.5t-48 -62.5t-29.5 -80q-20 -90 30 -135t164 -45q60 0 127.5 17.5t147.5 46.5zM764 1064q-103 0 -84 89q8 38 36.5 62.5t82.5 24.5q106 0 87 -89q-10 -45 -40.5 -66t-81.5 -21z" />
    <glyph glyph-name="AE" unicode="&#xc6;" horiz-adv-x="1846" 
d="M912 0l79 373h-537q-41 -67 -76 -126.5t-63 -108t-47 -84t-28 -54.5h-214q25 53 65 129t95.5 172t126 210t155.5 244q67 105 135 200t130.5 177t117.5 148t96 113h1091l-38 -169h-633l-93 -434h541l-34 -161h-541l-98 -460h651l-35 -169h-846zM552 532h473l146 691
l-130 -1q-21 -29 -63.5 -83t-98.5 -128.5t-122.5 -167.5t-135.5 -199z" />
    <glyph glyph-name="Eth" unicode="&#xd0;" horiz-adv-x="1330" 
d="M654 624h-535l29 137h535zM175 0l296 1393h439q82 0 158.5 -15t141 -48t114 -85.5t77.5 -127.5t32 -174t-23 -224q-41 -195 -120.5 -331.5t-183.5 -223t-226.5 -125.5t-249.5 -39h-455zM411 169h247q93 0 180.5 33.5t160.5 101t128 169t84 237.5q28 133 15.5 230t-58 160
t-120.5 93.5t-171 30.5h-241z" />
    <glyph glyph-name="multiply" unicode="&#xd7;" horiz-adv-x="943" 
d="M487 590l-152 189l149 120l151 -189l231 188l98 -119l-232 -189l153 -189l-149 -119l-153 188l-232 -188l-96 119z" />
    <glyph glyph-name="Thorn" unicode="&#xde;" horiz-adv-x="1207" 
d="M668 1393l-47 -221h263q118 0 205 -28t139 -83.5t67.5 -138t-7.5 -192.5q-27 -124 -85 -213.5t-139 -147t-180.5 -84.5t-207.5 -27h-250l-54 -258h-202l296 1393h202zM460 418h250q65 0 125.5 15.5t111 50t87 91t53.5 138.5q20 93 4 150.5t-56.5 89.5t-99.5 43t-125 11
h-224z" />
    <glyph glyph-name="germandbls" unicode="&#xdf;" horiz-adv-x="1241" 
d="M145 0l270 1274q83 73 194.5 115t246.5 42q94 0 159 -26t103 -67.5t50.5 -94t0.5 -106.5q-11 -51 -26 -87.5t-36.5 -65.5t-51.5 -54t-71 -53q-25 -18 -46.5 -34t-38.5 -32t-28.5 -33t-15.5 -37q-4 -19 4 -35t27 -32t49 -35t70 -44q43 -26 79 -53.5t59 -63t31 -81
t-5 -107.5q-15 -68 -51 -125t-91 -97.5t-127 -63t-158 -22.5q-94 0 -178 23.5t-153 58.5l83 135q28 -13 56.5 -25t61 -21t70 -14.5t82.5 -5.5q35 0 70.5 11t65 31t51 48.5t29.5 65.5t2 62t-24 45t-48.5 38t-70.5 42q-49 26 -86.5 51.5t-61.5 54t-32.5 63.5t1.5 81
q8 39 22.5 69t37 56t54 50.5t73.5 53.5q25 16 46 31.5t38 33t29 38.5t18 50q7 36 -2 64.5t-32 48.5t-58 30.5t-78 10.5q-60 0 -110.5 -15.5t-107.5 -53.5l-253 -1193h-192z" />
    <glyph glyph-name="ae" unicode="&#xe6;" horiz-adv-x="1760" 
d="M196 504q27 130 86 228.5t141 165.5t181.5 101t209.5 34q114 0 204 -27.5t155 -60.5q67 43 145 65.5t164 22.5q85 0 153 -25.5t113 -69.5t63 -105t3 -131q-12 -58 -39.5 -109.5t-75.5 -89.5t-118.5 -60.5t-168.5 -22.5h-339q-6 -67 6 -119t44 -88t86 -54.5t132 -18.5
q72 0 142 22.5t129 51.5l31 -136q-46 -23 -90 -40.5t-89 -30t-92 -19t-99 -6.5q-184 0 -280 81l-13 -63h-166l-5 98q-35 -23 -70.5 -44t-74.5 -37t-84 -25.5t-99 -9.5q-86 0 -152 32t-105 96.5t-47.5 163t19.5 230.5zM383 508q-20 -95 -15 -163.5t30.5 -113.5t69 -66.5
t101.5 -21.5q37 0 74.5 7t72.5 19.5t66 29t56 36.5l128 599q-8 4 -25.5 10.5t-42.5 12.5t-55.5 10.5t-63.5 4.5q-70 0 -133.5 -24t-115.5 -70t-90 -114t-57 -156zM1441 873q-61 0 -113 -22.5t-95 -62t-75 -93.5t-52 -116h310q43 0 77.5 4t61 15.5t43.5 33t25 57.5
q10 49 -3 83.5t-40.5 57t-64.5 33t-74 10.5z" />
    <glyph glyph-name="eth" unicode="&#xf0;" horiz-adv-x="1103" 
d="M648 1148l132 112q-39 23 -82 42t-88 35l80 137q64 -19 121.5 -43t106.5 -54l144 121l96 -98l-130 -110q52 -51 87 -115.5t51.5 -143.5t14 -173t-26.5 -205q-34 -162 -85.5 -287t-125.5 -210.5t-174.5 -129.5t-232.5 -44q-112 0 -190.5 35t-124 98t-57.5 150t10 191
q24 110 77 197.5t125 149t156.5 94.5t170.5 33q92 0 168 -20.5t134 -55.5q5 106 -26 184.5t-88 136.5l-153 -129zM361 451q-14 -68 -7.5 -125.5t33 -99.5t72.5 -66t112 -25q95 -2 161 36.5t112 112t77 179.5t57 239q-36 21 -67.5 35.5t-62.5 23.5t-64 13.5t-71 4.5
q-62 0 -119 -24.5t-103.5 -68t-80.5 -103.5t-49 -132z" />
    <glyph glyph-name="divide" unicode="&#xf7;" horiz-adv-x="943" 
d="M233 498l35 161h716l-35 -161h-716zM566 371q103 0 85 -88q-8 -39 -36.5 -63.5t-83.5 -24.5q-106 0 -87 89q10 46 41 66.5t81 20.5zM690 952q103 0 84 -88q-8 -39 -36.5 -63.5t-83.5 -24.5q-105 0 -87 89q10 46 41.5 66.5t81.5 20.5z" />
    <glyph glyph-name="thorn" unicode="&#xfe;" horiz-adv-x="1116" 
d="M642 1416l-89 -420q57 16 114.5 26.5t108.5 10.5q105 0 187.5 -28t134 -90t66.5 -160.5t-15 -239.5q-22 -103 -66.5 -199t-113.5 -170.5t-163.5 -119t-216.5 -44.5q-49 0 -86.5 5.5t-66 13.5t-50 17.5t-37.5 17.5l-26 -124l-193 3l319 1501h193zM387 212q21 -14 43 -26.5
t47.5 -22t56.5 -15t69 -5.5q80 0 141 36t105.5 91.5t72.5 122t41 128.5q19 91 11 157.5t-38.5 110t-80.5 64t-114 20.5q-56 0 -115.5 -18t-110.5 -40zM323 -88l-76 -357h-193l76 360z" />
    <glyph glyph-name="OE" unicode="&#x152;" horiz-adv-x="1796" 
d="M912 0q-90 -18 -184 -18q-138 0 -247.5 39t-178 124.5t-89 220.5t21.5 329q41 192 118.5 327.5t182 221.5t230.5 126t265 41q94 0 174 -18h761l-38 -169h-633l-93 -434h541l-34 -161h-541l-98 -460h651l-35 -169h-774zM764 151q56 0 110 12l226 1063q-23 8 -49 12t-56 4
q-114 0 -205.5 -39t-162 -110.5t-119.5 -172.5t-76 -225q-25 -117 -20 -216.5t44 -172.5t115 -114t193 -41z" />
    <glyph glyph-name="oe" unicode="&#x153;" horiz-adv-x="1829" 
d="M211 516q25 119 78 214.5t128.5 163t173 103.5t211.5 36q91 0 171.5 -27t135 -88.5t74 -160.5t-10.5 -242q-27 -129 -81 -228.5t-130.5 -167t-173 -102.5t-208.5 -35t-194 34t-130 101.5t-60 167t16 231.5zM399 515q-21 -101 -14.5 -172t35.5 -115.5t79 -64.5t115 -20
q66 0 124 21t106 66t83.5 115.5t56.5 169.5q19 92 12 159.5t-36.5 111.5t-78.5 65.5t-112 21.5q-66 0 -124.5 -22t-107 -66.5t-84 -111.5t-54.5 -158zM1158 420q-6 -67 6 -119t44 -88t86 -54.5t132 -18.5q72 0 142 22.5t129 51.5l31 -136q-46 -23 -90 -40.5t-89 -30t-92 -19
t-99 -6.5q-236 0 -330.5 137t-38.5 400q26 124 80 219.5t129.5 161t169 99.5t199.5 34q85 0 153 -25.5t113 -69.5t63 -105t3 -131q-12 -58 -39.5 -109.5t-75.5 -89.5t-118.5 -60.5t-168.5 -22.5h-339zM1526 873q-61 0 -113 -22.5t-95 -62t-75 -93.5t-52 -116h310
q43 0 77.5 4t61 15.5t43.5 33t25 57.5q10 49 -3 83.5t-40.5 57t-64.5 33t-74 10.5z" />
    <glyph glyph-name="circumflex" unicode="&#x2c6;" horiz-adv-x="875" 
d="M465 1120l-110 36l266 264l222 -1l154 -263l-126 -38l-162 193z" />
    <glyph glyph-name="tilde" unicode="&#x2dc;" horiz-adv-x="923" 
d="M420 1214q57 72 121.5 109.5t140.5 37.5q38 0 69.5 -11.5t60 -25.5t56 -25.5t56.5 -11.5q22 0 38 2.5t30.5 9.5t30 19.5t36.5 32.5l92 -65q-55 -75 -123 -111t-131 -36q-38 0 -70.5 11.5t-62 25.5t-57.5 25.5t-57 11.5q-25 0 -42 -3.5t-31.5 -11t-29 -20t-34.5 -30.5z
" />
    <glyph glyph-name="endash" unicode="&#x2013;" horiz-adv-x="1224" 
d="M168 474l36 169h1065l-36 -169h-1065z" />
    <glyph glyph-name="emdash" unicode="&#x2014;" horiz-adv-x="2215" 
d="M163 474l36 169h2080l-36 -169h-2080z" />
    <glyph glyph-name="quoteleft" unicode="&#x2018;" horiz-adv-x="453" 
d="M419 974q-121 0 -99 101q12 62 34.5 115.5t51.5 99.5t63 84.5t70 71.5l83 -42q-47 -64 -82.5 -124.5t-45.5 -107.5q44 -7 59.5 -31.5t6.5 -67.5q-11 -51 -47 -75t-94 -24z" />
    <glyph glyph-name="quoteright" unicode="&#x2019;" horiz-adv-x="453" 
d="M527 1405q118 0 98 -101l-2 -5q-12 -61 -34.5 -113.5t-51.5 -98t-62.5 -84t-67.5 -70.5l-84 42q46 64 81.5 124.5t45.5 106.5q-44 7 -59 31.5t-6 68.5q11 51 47 75t95 24z" />
    <glyph glyph-name="quotesinglbase" unicode="&#x201a;" horiz-adv-x="455" 
d="M272 200q118 0 98 -101l-2 -5q-12 -61 -34.5 -113.5t-51.5 -98t-62.5 -84t-67.5 -70.5l-84 42q46 64 81.5 124.5t45.5 106.5q-44 7 -59 31.5t-6 68.5q11 51 47 75t95 24z" />
    <glyph glyph-name="quotedblleft" unicode="&#x201c;" horiz-adv-x="713" 
d="M700 945q-121 0 -99 101q12 62 34.5 115.5t51.5 99.5t63 84.5t70 71.5l83 -42q-47 -64 -82.5 -124.5t-45.5 -107.5q44 -7 59.5 -31.5t6.5 -67.5q-11 -51 -47 -75t-94 -24zM392 945q-121 0 -99 101q12 62 34.5 115.5t51.5 99.5t63 84.5t70 71.5l83 -42
q-47 -64 -82.5 -124.5t-45.5 -107.5q44 -7 59.5 -31.5t6.5 -67.5q-11 -51 -47 -75t-94 -24z" />
    <glyph glyph-name="quotedblright" unicode="&#x201d;" horiz-adv-x="723" 
d="M498 1421q118 0 98 -101l-2 -5q-12 -61 -34.5 -113.5t-51.5 -98t-62.5 -84t-67.5 -70.5l-84 42q46 64 81.5 124.5t45.5 106.5q-44 7 -59 31.5t-6 68.5q11 51 47 75t95 24zM825 1421q118 0 98 -101l-2 -5q-12 -61 -34.5 -113.5t-51.5 -98t-62.5 -84t-67.5 -70.5l-84 42
q46 64 81.5 124.5t45.5 106.5q-44 7 -59 31.5t-6 68.5q11 51 47 75t95 24z" />
    <glyph glyph-name="quotedblbase" unicode="&#x201e;" horiz-adv-x="740" 
d="M248 200q118 0 98 -101l-2 -5q-12 -61 -34.5 -113.5t-51.5 -98t-62.5 -84t-67.5 -70.5l-84 42q46 64 81.5 124.5t45.5 106.5q-44 7 -59 31.5t-6 68.5q11 51 47 75t95 24zM577 200q118 0 98 -101l-2 -5q-12 -61 -34.5 -113.5t-51.5 -98t-62.5 -84t-67.5 -70.5l-84 42
q46 64 81.5 124.5t45.5 106.5q-44 7 -59 31.5t-6 68.5q11 51 47 75t95 24z" />
    <glyph glyph-name="bullet" unicode="&#x2022;" horiz-adv-x="462" 
d="M383 701q118 0 98 -101q-10 -45 -42.5 -72.5t-95.5 -27.5q-65 0 -89 25.5t-13 76.5t47 75t95 24z" />
    <glyph glyph-name="ellipsis" unicode="&#x2026;" horiz-adv-x="1217" 
d="M270 159q103 0 84 -89q-8 -38 -36.5 -63t-82.5 -25q-107 0 -87 90q10 45 41 66t81 21zM633 159q103 0 84 -89q-8 -38 -36 -63t-83 -25q-107 0 -87 90q10 45 41 66t81 21zM1008 159q103 0 84 -89q-8 -38 -36.5 -63t-82.5 -25q-107 0 -87 90q10 45 41 66t81 21z" />
    <glyph glyph-name="guilsinglleft" unicode="&#x2039;" horiz-adv-x="654" 
d="M409 528l195 -335l-169 -100l-237 435l421 428l125 -100z" />
    <glyph glyph-name="guilsinglright" unicode="&#x203a;" horiz-adv-x="654" 
d="M274 856l169 100l238 -428l-422 -435l-126 100l338 335z" />
    <glyph glyph-name="Euro" unicode="&#x20ac;" horiz-adv-x="1353" 
d="M1059 585l-25 -116h-876l25 116h876zM226 789l25 116h876l-25 -116h-876zM602 691q-58 -272 22.5 -406t295.5 -134q87 0 175.5 26.5t192.5 76.5l39 -139q-116 -63 -237.5 -98t-230.5 -35q-140 0 -243 40t-163.5 124.5t-75 215.5t24.5 314q41 194 112.5 333t169 228.5
t218 131.5t260.5 42q115 0 221 -36.5t191 -97.5l-97 -139q-79 51 -159.5 77.5t-166.5 26.5q-432 0 -549 -551z" />
    <glyph glyph-name="trademark" unicode="&#x2122;" horiz-adv-x="1478" 
d="M358 1294l23 112h494l-23 -112h-180l-117 -546h-125l117 546h-189zM793 747l165 659h163l54 -476l263 476h161l-115 -659h-126l90 485l-247 -453h-117l-51 451l-119 -483h-121z" />
    <glyph glyph-name="dagger" unicode="&#x2020;" horiz-adv-x="776" 
d="M247 1010h263l105 493h188l-105 -493h262l-39 -182h-262l-248 -1171h-188l248 1171h-263z" />
    <glyph glyph-name="daggerdbl" unicode="&#x2021;" horiz-adv-x="776" 
d="M247 1010h263l105 493h188l-105 -493h262l-39 -182h-262l-42 -199h262l-38 -182h-262l-168 -790h-188l168 790h-263l38 182h263l42 199h-263z" />
    <glyph glyph-name="perthousand" unicode="&#x2030;" horiz-adv-x="2270" 
d="M1082 382q23 108 64 185t93.5 126t114.5 72t127 23q85 0 146.5 -39.5t84.5 -127.5q60 87 139 127t164 40q65 0 117 -23t84.5 -72t41 -126t-14.5 -185q-23 -109 -64 -186t-94 -125.5t-115 -71t-127 -22.5q-42 0 -79.5 9.5t-67.5 29.5t-52 51t-33 75q-60 -87 -138.5 -126
t-163.5 -39q-65 0 -117 22.5t-84.5 71t-40.5 125.5t15 186zM315 1003q23 109 64 186t93.5 126t114.5 72t127 23q64 0 116.5 -23t84.5 -72t40.5 -126t-14.5 -186t-64 -186t-94 -125.5t-115 -71t-126 -22.5q-65 0 -117 22.5t-84.5 71t-40.5 125.5t15 186zM500 0l810 1393h196
l-810 -1393h-196zM467 1004q-16 -75 -17.5 -126.5t12 -83t41 -45.5t68.5 -14t74.5 14t60 45.5t47 83t36.5 126.5q16 74 17 125.5t-12 83.5t-40.5 46t-68.5 14t-74.5 -14t-60 -46t-47 -83.5t-36.5 -125.5zM1234 382q-16 -75 -17.5 -126t12 -82.5t41 -45.5t68.5 -14t74.5 14
t60 45.5t47 82.5t36.5 126t17 126t-12 83t-40.5 46t-68.5 14t-74.5 -14t-60 -46t-47 -83t-36.5 -126zM1769 382q-16 -75 -17.5 -126t12 -82.5t40.5 -45.5t68 -14t74.5 14t60 45.5t47.5 82.5t37 126t17 126t-12.5 83t-41 46t-68.5 14t-74 -14t-59.5 -46t-47 -83t-36.5 -126z
" />
    <glyph glyph-name="hungarumlaut" unicode="&#x2dd;" horiz-adv-x="667" 
d="M358 1139l298 293l118 -89l-346 -262zM712 1139l297 293l119 -89l-347 -262z" />
    <glyph glyph-name=".Dot" horiz-adv-x="140" 
d="M160 656q4 20 15.5 38t28 31t36.5 20.5t40 7.5q21 0 38 -7.5t28 -20.5t15 -31t0 -38t-16 -37.5t-28.5 -30.5t-36.5 -20.5t-41 -7.5q-41 0 -64 28t-15 68zM427 650q4 20 15.5 38t27.5 31t35.5 20.5t39.5 7.5q42 0 64.5 -28t14.5 -69q-9 -40 -40.5 -55.5t-73.5 -15.5
q-20 0 -37.5 3.5t-29 12t-16.5 22t0 33.5z" />
    <glyph glyph-name=".dot" horiz-adv-x="15" 
d="M212 517q4 19 15 36t27 30t34.5 20t38.5 7q40 0 62.5 -27t14.5 -66q-4 -19 -15 -35.5t-27 -29t-35 -20t-39 -7.5q-39 0 -61.5 27t-14.5 65zM478 510q4 20 15.5 38t28 31.5t36.5 21t40 7.5q42 0 59 -28.5t9 -69.5q-8 -39 -34 -51t-68 -12q-20 0 -37.5 2.5t-29.5 9.5
t-17.5 19t-1.5 32z" />
    <glyph glyph-name="breve" unicode="&#x2d8;" horiz-adv-x="1792" 
d="M840 1125q-86 0 -134.5 23.5t-72.5 59.5t-31 77.5t-10 77.5l132 29q1 -23 4.5 -48.5t17 -47.5t41.5 -36t79 -14t85 14.5t56.5 36t37 47t25.5 48.5l120 -29q-19 -37 -44 -79t-64 -77t-97.5 -58.5t-144.5 -23.5z" />
    <glyph glyph-name="caron" unicode="&#x2c7;" horiz-adv-x="875" 
d="M694 1240l217 180l136 -37l-265 -252h-222l-156 253l150 35z" />
    <glyph glyph-name="dotaccent" unicode="&#x2d9;" horiz-adv-x="864" 
d="M687 1316q103 0 84 -89q-8 -38 -36.5 -62.5t-83.5 -24.5q-106 0 -87 89q10 46 41 66.5t82 20.5z" />
    <glyph glyph-name="ogonek" unicode="&#x2db;" horiz-adv-x="670" 
d="M353 -388q-41 -14 -83 -22t-94 -8q-50 0 -88 13t-62 38t-32 60t1 80q7 37 30.5 68.5t54.5 58.5t65.5 49t64.5 41h122q-41 -31 -73.5 -54.5t-56.5 -45t-39.5 -44t-21.5 -50.5q-10 -48 12.5 -75t68.5 -27q29 0 57 3.5t65 12.5z" />
    <glyph glyph-name="ring" unicode="&#x2da;" horiz-adv-x="864" 
d="M859 1307q-29 0 -48 -12.5t-25 -42.5q-13 -57 51 -57q34 0 50 16t21 39q7 31 -6.5 44t-42.5 13zM880 1394q76 0 110 -34.5t18 -109.5q-6 -30 -20 -56t-37 -44.5t-55 -29.5t-75 -11q-81 0 -116 34.5t-19 109.5q16 76 66.5 108.5t127.5 32.5z" />
    <glyph glyph-name="aacute" unicode="&#xe1;" horiz-adv-x="1119" 
d="M186 504q27 130 86 228.5t141 165.5t182 101t209 34q58 0 110.5 -8t98 -20.5t85 -29t72.5 -33.5l-200 -942h-166l-4 98q-35 -23 -70.5 -44t-75 -37t-84.5 -25.5t-99 -9.5q-86 0 -152 32t-105 96.5t-47.5 163t19.5 230.5zM374 508q-20 -95 -15 -163.5t30 -113.5t69 -66.5
t102 -21.5q37 0 74 7t72 19.5t66.5 29t55.5 36.5l128 599q-8 4 -25.5 10.5t-42 12.5t-55 10.5t-64.5 4.5q-70 0 -133.5 -24t-115.5 -70t-89.5 -114t-56.5 -156zM820 1217l297 293l123 -98l-343 -262z" />
    <glyph glyph-name="Aacute" unicode="&#xc1;" horiz-adv-x="1326" 
d="M1079 -10q-3 79 -8 175.5t-14 204.5h-630q-55 -111 -102 -208t-82 -172l-204 10q31 70 73.5 156.5t91.5 182.5t103.5 198.5t110.5 203.5t112 198t107.5 182t97.5 155t83 117h283q18 -54 35.5 -129t33.5 -164t31 -188t28.5 -200.5t24 -202.5t18 -193.5t12 -173.5t5.5 -142
zM906 1224q-48 -72 -98.5 -155t-100.5 -171.5t-100 -180.5t-96 -182h532q-16 172 -41 348.5t-61 340.5h-35zM946 1582l297 293l123 -98l-343 -262z" />
    <glyph glyph-name="Abreve" unicode="&#x102;" horiz-adv-x="1326" 
d="M1079 -10q-3 79 -8 175.5t-14 204.5h-630q-55 -111 -102 -208t-82 -172l-204 10q31 70 73.5 156.5t91.5 182.5t103.5 198.5t110.5 203.5t112 198t107.5 182t97.5 155t83 117h283q18 -54 35.5 -129t33.5 -164t31 -188t28.5 -200.5t24 -202.5t18 -193.5t12 -173.5t5.5 -142
zM906 1224q-48 -72 -98.5 -155t-100.5 -171.5t-100 -180.5t-96 -182h532q-16 172 -41 348.5t-61 340.5h-35zM1015 1579q-86 0 -134.5 23.5t-72.5 59.5t-31 77.5t-10 77.5l132 29q1 -23 4.5 -48.5t17 -47.5t41.5 -36t79 -14t85 14.5t56.5 36t37 47t25.5 48.5l120 -29
q-19 -37 -44 -79t-64 -77t-97.5 -58.5t-144.5 -23.5z" />
    <glyph glyph-name="Acircumflex" unicode="&#xc2;" horiz-adv-x="1326" 
d="M1079 -10q-3 79 -8 175.5t-14 204.5h-630q-55 -111 -102 -208t-82 -172l-204 10q31 70 73.5 156.5t91.5 182.5t103.5 198.5t110.5 203.5t112 198t107.5 182t97.5 155t83 117h283q18 -54 35.5 -129t33.5 -164t31 -188t28.5 -200.5t24 -202.5t18 -193.5t12 -173.5t5.5 -142
zM906 1224q-48 -72 -98.5 -155t-100.5 -171.5t-100 -180.5t-96 -182h532q-16 172 -41 348.5t-61 340.5h-35zM780 1517l-110 36l266 264l222 -1l154 -263l-126 -38l-162 193z" />
    <glyph glyph-name="Agrave" unicode="&#xc0;" horiz-adv-x="1326" 
d="M1079 -10q-3 79 -8 175.5t-14 204.5h-630q-55 -111 -102 -208t-82 -172l-204 10q31 70 73.5 156.5t91.5 182.5t103.5 198.5t110.5 203.5t112 198t107.5 182t97.5 155t83 117h283q18 -54 35.5 -129t33.5 -164t31 -188t28.5 -200.5t24 -202.5t18 -193.5t12 -173.5t5.5 -142
zM906 1224q-48 -72 -98.5 -155t-100.5 -171.5t-100 -180.5t-96 -182h532q-16 172 -41 348.5t-61 340.5h-35zM976 1521l-232 262l165 98l173 -293z" />
    <glyph glyph-name="Adieresis" unicode="&#xc4;" horiz-adv-x="1326" 
d="M1079 -10q-3 79 -8 175.5t-14 204.5h-630q-55 -111 -102 -208t-82 -172l-204 10q31 70 73.5 156.5t91.5 182.5t103.5 198.5t110.5 203.5t112 198t107.5 182t97.5 155t83 117h283q18 -54 35.5 -129t33.5 -164t31 -188t28.5 -200.5t24 -202.5t18 -193.5t12 -173.5t5.5 -142
zM906 1224q-48 -72 -98.5 -155t-100.5 -171.5t-100 -180.5t-96 -182h532q-16 172 -41 348.5t-61 340.5h-35zM871 1744q103 0 84 -89q-8 -38 -36.5 -62.5t-83.5 -24.5q-106 0 -87 89q10 46 41 66.5t82 20.5zM1201 1744q103 0 84 -89q-8 -38 -36.5 -62.5t-82.5 -24.5
q-106 0 -87 89q10 46 41 66.5t81 20.5z" />
    <glyph glyph-name="Amacron" unicode="&#x100;" horiz-adv-x="1326" 
d="M1079 -10q-3 79 -8 175.5t-14 204.5h-630q-55 -111 -102 -208t-82 -172l-204 10q31 70 73.5 156.5t91.5 182.5t103.5 198.5t110.5 203.5t112 198t107.5 182t97.5 155t83 117h283q18 -54 35.5 -129t33.5 -164t31 -188t28.5 -200.5t24 -202.5t18 -193.5t12 -173.5t5.5 -142
zM906 1224q-48 -72 -98.5 -155t-100.5 -171.5t-100 -180.5t-96 -182h532q-16 172 -41 348.5t-61 340.5h-35zM1291 1553h-608l29 137h608z" />
    <glyph glyph-name="Aogonek" unicode="&#x104;" horiz-adv-x="1326" 
d="M1079 -10q-3 79 -8 175.5t-14 204.5h-630q-55 -111 -102 -208t-82 -172l-204 10q31 70 73.5 156.5t91.5 182.5t103.5 198.5t110.5 203.5t112 198t107.5 182t97.5 155t83 117h283q18 -54 35.5 -129t33.5 -164t31 -188t28.5 -200.5t24 -202.5t18 -193.5t12 -173.5t5.5 -142
zM906 1224q-48 -72 -98.5 -155t-100.5 -171.5t-100 -180.5t-96 -182h532q-16 172 -41 348.5t-61 340.5h-35zM1321 -378q-41 -14 -83 -22t-94 -8q-50 0 -88 13t-62 38t-32 60t1 80q7 37 30.5 68.5t54.5 58.5t65.5 49t64.5 41h122q-41 -31 -73.5 -54.5t-56.5 -45t-39.5 -44
t-21.5 -50.5q-10 -48 12.5 -75t68.5 -27q29 0 57 3.5t65 12.5z" />
    <glyph glyph-name="Aring" unicode="&#xc5;" horiz-adv-x="1326" 
d="M1079 -10q-3 79 -8 175.5t-14 204.5h-630q-55 -111 -102 -208t-82 -172l-204 10q31 70 73.5 156.5t91.5 182.5t103.5 198.5t110.5 203.5t112 198t107.5 182t97.5 155t83 117h283q18 -54 35.5 -129t33.5 -164t31 -188t28.5 -200.5t24 -202.5t18 -193.5t12 -173.5t5.5 -142
zM906 1224q-48 -72 -98.5 -155t-100.5 -171.5t-100 -180.5t-96 -182h532q-16 172 -41 348.5t-61 340.5h-35zM1036 1718q-29 0 -48 -12.5t-25 -42.5q-13 -57 51 -57q34 0 50 16t21 39q7 31 -6.5 44t-42.5 13zM1057 1805q76 0 110 -34.5t18 -109.5q-6 -30 -20 -56t-37 -44.5
t-55 -29.5t-75 -11q-81 0 -116 34.5t-19 109.5q16 76 66.5 108.5t127.5 32.5z" />
    <glyph glyph-name="Atilde" unicode="&#xc3;" horiz-adv-x="1326" 
d="M1079 -10q-3 79 -8 175.5t-14 204.5h-630q-55 -111 -102 -208t-82 -172l-204 10q31 70 73.5 156.5t91.5 182.5t103.5 198.5t110.5 203.5t112 198t107.5 182t97.5 155t83 117h283q18 -54 35.5 -129t33.5 -164t31 -188t28.5 -200.5t24 -202.5t18 -193.5t12 -173.5t5.5 -142
zM906 1224q-48 -72 -98.5 -155t-100.5 -171.5t-100 -180.5t-96 -182h532q-16 172 -41 348.5t-61 340.5h-35zM642 1636q57 72 121.5 109.5t140.5 37.5q38 0 69.5 -11.5t60 -25.5t56 -25.5t56.5 -11.5q22 0 38 2.5t30.5 9.5t30 19.5t36.5 32.5l92 -65q-55 -75 -123 -111
t-131 -36q-38 0 -70.5 11.5t-62 25.5t-57.5 25.5t-57 11.5q-25 0 -42 -3.5t-31.5 -11t-29 -20t-34.5 -30.5z" />
    <glyph glyph-name="Cacute" unicode="&#x106;" horiz-adv-x="1205" 
d="M418 691q-58 -272 22.5 -406t295.5 -134q87 0 175.5 26.5t192.5 76.5l39 -139q-116 -63 -237.5 -98t-230.5 -35q-140 0 -243 40t-163.5 124.5t-75 215.5t24.5 314q41 194 112.5 333t169 228.5t218 131.5t260.5 42q115 0 221 -36.5t191 -97.5l-97 -139q-79 51 -159.5 77.5
t-166.5 26.5q-432 0 -549 -551zM990 1572l297 293l123 -98l-343 -262z" />
    <glyph glyph-name="Ccaron" unicode="&#x10c;" horiz-adv-x="1205" 
d="M418 691q-58 -272 22.5 -406t295.5 -134q87 0 175.5 26.5t192.5 76.5l39 -139q-116 -63 -237.5 -98t-230.5 -35q-140 0 -243 40t-163.5 124.5t-75 215.5t24.5 314q41 194 112.5 333t169 228.5t218 131.5t260.5 42q115 0 221 -36.5t191 -97.5l-97 -139q-79 51 -159.5 77.5
t-166.5 26.5q-432 0 -549 -551zM1027 1636l217 180l136 -37l-265 -252h-222l-156 253l150 35z" />
    <glyph glyph-name="Ccedilla" unicode="&#xc7;" horiz-adv-x="1205" 
d="M418 691q-58 -272 22.5 -406t295.5 -134q87 0 175.5 26.5t192.5 76.5l39 -139q-116 -63 -237.5 -98t-230.5 -35q-140 0 -243 40t-163.5 124.5t-75 215.5t24.5 314q41 194 112.5 333t169 228.5t218 131.5t260.5 42q115 0 221 -36.5t191 -97.5l-97 -139q-79 51 -159.5 77.5
t-166.5 26.5q-432 0 -549 -551zM452 -293q32 -9 58.5 -12t55.5 -3q46 0 75 18t37 54q9 45 -17 60.5t-84 15.5q-17 0 -38 -1t-42 -3l98 166h148l-53 -85q35 -3 62.5 -13.5t44 -30t22 -48.5t-3.5 -69q-19 -90 -84 -133t-165 -43q-52 0 -91 7.5t-73 21.5z" />
    <glyph glyph-name="Ccircumflex" unicode="&#x108;" horiz-adv-x="1205" 
d="M418 691q-58 -272 22.5 -406t295.5 -134q87 0 175.5 26.5t192.5 76.5l39 -139q-116 -63 -237.5 -98t-230.5 -35q-140 0 -243 40t-163.5 124.5t-75 215.5t24.5 314q41 194 112.5 333t169 228.5t218 131.5t260.5 42q115 0 221 -36.5t191 -97.5l-97 -139q-79 51 -159.5 77.5
t-166.5 26.5q-432 0 -549 -551zM791 1502l-110 36l266 264l222 -1l154 -263l-126 -38l-162 193z" />
    <glyph glyph-name="Cdotaccent" unicode="&#x10a;" horiz-adv-x="1205" 
d="M418 691q-58 -272 22.5 -406t295.5 -134q87 0 175.5 26.5t192.5 76.5l39 -139q-116 -63 -237.5 -98t-230.5 -35q-140 0 -243 40t-163.5 124.5t-75 215.5t24.5 314q41 194 112.5 333t169 228.5t218 131.5t260.5 42q115 0 221 -36.5t191 -97.5l-97 -139q-79 51 -159.5 77.5
t-166.5 26.5q-432 0 -549 -551zM1063 1741q103 0 84 -89q-8 -38 -36.5 -62.5t-83.5 -24.5q-106 0 -87 89q10 46 41 66.5t82 20.5z" />
    <glyph glyph-name="Dcaron" unicode="&#x10e;" horiz-adv-x="1330" 
d="M175 0l296 1393h439q82 0 158.5 -15t141 -48t114 -85.5t77.5 -127.5t32 -174t-23 -224q-41 -195 -120.5 -331.5t-183.5 -223t-226.5 -125.5t-249.5 -39h-455zM411 169h247q93 0 180.5 33.5t160.5 101t128 169t84 237.5q28 133 15.5 230t-58 160t-120.5 93.5t-171 30.5
h-241zM901 1630l217 180l136 -37l-265 -252h-222l-156 253l150 35z" />
    <glyph glyph-name="Dcroat" unicode="&#x110;" horiz-adv-x="1330" 
d="M654 624h-535l29 137h535zM175 0l296 1393h439q82 0 158.5 -15t141 -48t114 -85.5t77.5 -127.5t32 -174t-23 -224q-41 -195 -120.5 -331.5t-183.5 -223t-226.5 -125.5t-249.5 -39h-455zM411 169h247q93 0 180.5 33.5t160.5 101t128 169t84 237.5q28 133 15.5 230t-58 160
t-120.5 93.5t-171 30.5h-241z" />
    <glyph glyph-name="Eacute" unicode="&#xc9;" horiz-adv-x="1105" 
d="M175 0l296 1393h821l-38 -169h-618l-93 -434h527l-34 -161h-527l-98 -460h637l-35 -169h-838zM860 1566l297 293l123 -98l-343 -262z" />
    <glyph glyph-name="Ebreve" unicode="&#x114;" horiz-adv-x="1105" 
d="M175 0l296 1393h821l-38 -169h-618l-93 -434h527l-34 -161h-527l-98 -460h637l-35 -169h-838zM937 1534q-86 0 -134.5 23.5t-72.5 59.5t-31 77.5t-10 77.5l132 29q1 -23 4.5 -48.5t17 -47.5t41.5 -36t79 -14t85 14.5t56.5 36t37 47t25.5 48.5l120 -29q-19 -37 -44 -79
t-64 -77t-97.5 -58.5t-144.5 -23.5z" />
    <glyph glyph-name="Ecaron" unicode="&#x11a;" horiz-adv-x="1105" 
d="M175 0l296 1393h821l-38 -169h-618l-93 -434h527l-34 -161h-527l-98 -460h637l-35 -169h-838zM961 1639l217 180l136 -37l-265 -252h-222l-156 253l150 35z" />
    <glyph glyph-name="Ecircumflex" unicode="&#xca;" horiz-adv-x="1105" 
d="M175 0l296 1393h821l-38 -169h-618l-93 -434h527l-34 -161h-527l-98 -460h637l-35 -169h-838zM726 1514l-110 36l266 264l222 -1l154 -263l-126 -38l-162 193z" />
    <glyph glyph-name="Edieresis" unicode="&#xcb;" horiz-adv-x="1105" 
d="M175 0l296 1393h821l-38 -169h-618l-93 -434h527l-34 -161h-527l-98 -460h637l-35 -169h-838zM823 1751q103 0 84 -89q-8 -38 -36.5 -62.5t-83.5 -24.5q-106 0 -87 89q10 46 41 66.5t82 20.5zM1153 1751q103 0 84 -89q-8 -38 -36.5 -62.5t-82.5 -24.5q-106 0 -87 89
q10 46 41 66.5t81 20.5z" />
    <glyph glyph-name="Edotaccent" unicode="&#x116;" horiz-adv-x="1105" 
d="M175 0l296 1393h821l-38 -169h-618l-93 -434h527l-34 -161h-527l-98 -460h637l-35 -169h-838zM989 1740q103 0 84 -89q-8 -38 -36.5 -62.5t-83.5 -24.5q-106 0 -87 89q10 46 41 66.5t82 20.5z" />
    <glyph glyph-name="Egrave" unicode="&#xc8;" horiz-adv-x="1105" 
d="M175 0l296 1393h821l-38 -169h-618l-93 -434h527l-34 -161h-527l-98 -460h637l-35 -169h-838zM886 1506l-232 262l165 98l173 -293z" />
    <glyph glyph-name="Emacron" unicode="&#x112;" horiz-adv-x="1105" 
d="M175 0l296 1393h821l-38 -169h-618l-93 -434h527l-34 -161h-527l-98 -460h637l-35 -169h-838zM1243 1545h-608l29 137h608z" />
    <glyph glyph-name="Eogonek" unicode="&#x118;" horiz-adv-x="1105" 
d="M175 0l296 1393h821l-38 -169h-618l-93 -434h527l-34 -161h-527l-98 -460h637l-35 -169h-838zM1032 -377q-41 -14 -83 -22t-94 -8q-50 0 -88 13t-62 38t-32 60t1 80q7 37 30.5 68.5t54.5 58.5t65.5 49t64.5 41h122q-41 -31 -73.5 -54.5t-56.5 -45t-39.5 -44t-21.5 -50.5
q-10 -48 12.5 -75t68.5 -27q29 0 57 3.5t65 12.5z" />
    <glyph glyph-name="Gbreve" unicode="&#x11e;" horiz-adv-x="1301" 
d="M222 695q39 183 108.5 317.5t165.5 223t215.5 132t257.5 43.5q135 0 249.5 -31t196.5 -82l-98 -147q-84 43 -180.5 67t-193.5 24q-94 0 -176.5 -34t-150 -101.5t-117.5 -168.5t-78 -235q-31 -144 -26 -248.5t45 -172t113.5 -99.5t179.5 -32q64 0 127.5 10.5t129.5 27.5
l74 352h-289l38 178h476l-139 -654q-46 -18 -102.5 -33t-118 -26.5t-124.5 -17.5t-120 -6q-302 0 -420.5 177t-42.5 536zM1015 1547q-86 0 -134.5 23.5t-72.5 59.5t-31 77.5t-10 77.5l132 29q1 -23 4.5 -48.5t17 -47.5t41.5 -36t79 -14t85 14.5t56.5 36t37 47t25.5 48.5
l120 -29q-19 -37 -44 -79t-64 -77t-97.5 -58.5t-144.5 -23.5z" />
    <glyph glyph-name="Gcircumflex" unicode="&#x11c;" horiz-adv-x="1301" 
d="M222 695q39 183 108.5 317.5t165.5 223t215.5 132t257.5 43.5q135 0 249.5 -31t196.5 -82l-98 -147q-84 43 -180.5 67t-193.5 24q-94 0 -176.5 -34t-150 -101.5t-117.5 -168.5t-78 -235q-31 -144 -26 -248.5t45 -172t113.5 -99.5t179.5 -32q64 0 127.5 10.5t129.5 27.5
l74 352h-289l38 178h476l-139 -654q-46 -18 -102.5 -33t-118 -26.5t-124.5 -17.5t-120 -6q-302 0 -420.5 177t-42.5 536zM805 1506l-110 36l266 264l222 -1l154 -263l-126 -38l-162 193z" />
    <glyph glyph-name="Gcommaaccent" unicode="&#x122;" horiz-adv-x="1301" 
d="M222 695q39 183 108.5 317.5t165.5 223t215.5 132t257.5 43.5q135 0 249.5 -31t196.5 -82l-98 -147q-84 43 -180.5 67t-193.5 24q-94 0 -176.5 -34t-150 -101.5t-117.5 -168.5t-78 -235q-31 -144 -26 -248.5t45 -172t113.5 -99.5t179.5 -32q64 0 127.5 10.5t129.5 27.5
l74 352h-289l38 178h476l-139 -654q-46 -18 -102.5 -33t-118 -26.5t-124.5 -17.5t-120 -6q-302 0 -420.5 177t-42.5 536zM643 -124q118 0 98 -101l-2 -5q-12 -61 -34.5 -113.5t-51.5 -98t-62.5 -84t-67.5 -70.5l-84 42q46 64 81.5 124.5t45.5 106.5q-44 7 -59 31.5t-6 68.5
q11 51 47 75t95 24z" />
    <glyph glyph-name="Gdotaccent" unicode="&#x120;" horiz-adv-x="1301" 
d="M222 695q39 183 108.5 317.5t165.5 223t215.5 132t257.5 43.5q135 0 249.5 -31t196.5 -82l-98 -147q-84 43 -180.5 67t-193.5 24q-94 0 -176.5 -34t-150 -101.5t-117.5 -168.5t-78 -235q-31 -144 -26 -248.5t45 -172t113.5 -99.5t179.5 -32q64 0 127.5 10.5t129.5 27.5
l74 352h-289l38 178h476l-139 -654q-46 -18 -102.5 -33t-118 -26.5t-124.5 -17.5t-120 -6q-302 0 -420.5 177t-42.5 536zM1062 1746q103 0 84 -89q-8 -38 -36.5 -62.5t-83.5 -24.5q-106 0 -87 89q10 46 41 66.5t82 20.5z" />
    <glyph glyph-name="Hbar" unicode="&#x126;" horiz-adv-x="1444" 
d="M175 0l296 1393h201l-29 -136h690l29 136h202l-296 -1393h-202l133 626h-690l-133 -626h-201zM1234 794l67 315h-690l-67 -315h690z" />
    <glyph glyph-name="Hcircumflex" unicode="&#x124;" horiz-adv-x="1444" 
d="M175 0l296 1393h201l-128 -599h690l128 599h202l-296 -1393h-202l133 626h-690l-133 -626h-201zM817 1479l-110 36l266 264l222 -1l154 -263l-126 -38l-162 193z" />
    <glyph glyph-name="Iacute" unicode="&#xcd;" horiz-adv-x="553" 
d="M175 0l296 1393h201l-296 -1393h-201zM544 1569l297 293l123 -98l-343 -262z" />
    <glyph glyph-name="Ibreve" unicode="&#x12c;" horiz-adv-x="553" 
d="M175 0l296 1393h201l-296 -1393h-201zM612 1538q-86 0 -134.5 23.5t-72.5 59.5t-31 77.5t-10 77.5l132 29q1 -23 4.5 -48.5t17 -47.5t41.5 -36t79 -14t85 14.5t56.5 36t37 47t25.5 48.5l120 -29q-19 -37 -44 -79t-64 -77t-97.5 -58.5t-144.5 -23.5z" />
    <glyph glyph-name="Icircumflex" unicode="&#xce;" horiz-adv-x="553" 
d="M175 0l296 1393h201l-296 -1393h-201zM392 1508l-110 36l266 264l222 -1l154 -263l-126 -38l-162 193z" />
    <glyph glyph-name="Idieresis" unicode="&#xcf;" horiz-adv-x="553" 
d="M175 0l296 1393h201l-296 -1393h-201zM491 1756q103 0 84 -89q-8 -38 -36.5 -62.5t-83.5 -24.5q-106 0 -87 89q10 46 41 66.5t82 20.5zM821 1756q103 0 84 -89q-8 -38 -36.5 -62.5t-82.5 -24.5q-106 0 -87 89q10 46 41 66.5t81 20.5z" />
    <glyph glyph-name="Idotaccent" unicode="&#x130;" horiz-adv-x="553" 
d="M175 0l296 1393h201l-296 -1393h-201zM649 1737q103 0 84 -89q-8 -38 -36.5 -62.5t-83.5 -24.5q-106 0 -87 89q10 46 41 66.5t82 20.5z" />
    <glyph glyph-name="Igrave" unicode="&#xcc;" horiz-adv-x="553" 
d="M175 0l296 1393h201l-296 -1393h-201zM560 1508l-232 262l165 98l173 -293z" />
    <glyph glyph-name="Imacron" unicode="&#x12a;" horiz-adv-x="553" 
d="M175 0l296 1393h201l-296 -1393h-201zM912 1567h-608l29 137h608z" />
    <glyph glyph-name="Iogonek" unicode="&#x12e;" horiz-adv-x="553" 
d="M175 0l296 1393h201l-296 -1393h-201zM359 -378q-41 -14 -83 -22t-94 -8q-50 0 -88 13t-62 38t-32 60t1 80q7 37 30.5 68.5t54.5 58.5t65.5 49t64.5 41h122q-41 -31 -73.5 -54.5t-56.5 -45t-39.5 -44t-21.5 -50.5q-10 -48 12.5 -75t68.5 -27q29 0 57 3.5t65 12.5z" />
    <glyph glyph-name="Itilde" unicode="&#x128;" horiz-adv-x="553" 
d="M175 0l296 1393h201l-296 -1393h-201zM279 1617q57 72 121.5 109.5t140.5 37.5q38 0 69.5 -11.5t60 -25.5t56 -25.5t56.5 -11.5q22 0 38 2.5t30.5 9.5t30 19.5t36.5 32.5l92 -65q-55 -75 -123 -111t-131 -36q-38 0 -70.5 11.5t-62 25.5t-57.5 25.5t-57 11.5
q-25 0 -42 -3.5t-31.5 -11t-29 -20t-34.5 -30.5z" />
    <glyph glyph-name="Jcircumflex" unicode="&#x134;" horiz-adv-x="784" 
d="M687 371q-20 -95 -51.5 -168t-79 -122t-113 -74t-153.5 -25q-36 0 -70.5 5.5t-66 14.5t-59.5 20.5t-50 22.5l74 152q34 -17 77 -31.5t85 -14.5q53 0 87.5 14.5t57 41t35.5 63.5t22 81l222 1042h201zM613 1455l-110 36l266 264l222 -1l154 -263l-126 -38l-162 193z" />
    <glyph glyph-name="Kcommaaccent" unicode="&#x136;" horiz-adv-x="1255" 
d="M175 1l296 1392h200l-147 -688q102 57 207.5 136.5t200.5 171t175 189.5t131 191h218q-92 -153 -223 -304t-286 -282q12 -82 44.5 -185.5t78.5 -208t103 -199t119 -159.5l-172 -110q-57 65 -111.5 152.5t-100 185t-79.5 199.5t-49 197q-74 -51 -148.5 -94t-149.5 -77
l-107 -507h-200zM558 -61q118 0 98 -101l-2 -5q-12 -61 -34.5 -113.5t-51.5 -98t-62.5 -84t-67.5 -70.5l-84 42q46 64 81.5 124.5t45.5 106.5q-44 7 -59 31.5t-6 68.5q11 51 47 75t95 24z" />
    <glyph glyph-name="Lacute" unicode="&#x139;" horiz-adv-x="1036" 
d="M175 0l296 1393h201l-261 -1224h578l-35 -169h-779zM533 1530l297 293l123 -98l-343 -262z" />
    <glyph glyph-name="Lcaron" unicode="&#x13d;" horiz-adv-x="1062" 
d="M175 0l296 1393h201l-261 -1224h578l-35 -169h-779zM1169 1392q118 0 98 -101l-2 -5q-12 -61 -34.5 -113.5t-51.5 -98t-62.5 -84t-67.5 -70.5l-84 42q46 64 81.5 124.5t45.5 106.5q-44 7 -59 31.5t-6 68.5q11 51 47 75t95 24z" />
    <glyph glyph-name="Lcommaaccent" unicode="&#x13b;" horiz-adv-x="1036" 
d="M175 0l296 1393h201l-261 -1224h578l-35 -169h-779zM492 -97q118 0 98 -101l-2 -5q-12 -61 -34.5 -113.5t-51.5 -98t-62.5 -84t-67.5 -70.5l-84 42q46 64 81.5 124.5t45.5 106.5q-44 7 -59 31.5t-6 68.5q11 51 47 75t95 24z" />
    <glyph glyph-name="Ldot" unicode="&#x13f;" horiz-adv-x="1036" 
d="M175 0l296 1393h201l-261 -1224h578l-35 -169h-779zM945 776q103 0 84 -89q-8 -38 -36.5 -62.5t-83.5 -24.5q-106 0 -87 89q10 46 41 66.5t82 20.5z" />
    <glyph glyph-name="Lslash" unicode="&#x141;" horiz-adv-x="1036" 
d="M732 773l-589 -293l-38 122l590 293zM175 0l296 1393h201l-261 -1224h578l-35 -169h-779z" />
    <glyph glyph-name="Nacute" unicode="&#x143;" horiz-adv-x="1473" 
d="M984 1534l297 293l123 -98l-343 -262zM175 0l296 1393h245q34 -57 71 -146t75 -194.5t76.5 -219t75 -218t70.5 -191.5t63 -140h13l233 1109h201l-296 -1393h-238q-39 67 -77 157.5t-75 193t-74 210t-73 207.5t-71 187t-70 148h-13l-232 -1103h-200z" />
    <glyph glyph-name="Ncaron" unicode="&#x147;" horiz-adv-x="1473" 
d="M1076 1633l217 180l136 -37l-265 -252h-222l-156 253l150 35zM175 0l296 1393h245q34 -57 71 -146t75 -194.5t76.5 -219t75 -218t70.5 -191.5t63 -140h13l233 1109h201l-296 -1393h-238q-39 67 -77 157.5t-75 193t-74 210t-73 207.5t-71 187t-70 148h-13l-232 -1103h-200
z" />
    <glyph glyph-name="Ncommaaccent" unicode="&#x145;" horiz-adv-x="1473" 
d="M175 0l296 1393h245q34 -57 71 -146t75 -194.5t76.5 -219t75 -218t70.5 -191.5t63 -140h13l233 1109h201l-296 -1393h-238q-39 67 -77 157.5t-75 193t-74 210t-73 207.5t-71 187t-70 148h-13l-232 -1103h-200zM655 -75q118 0 98 -101l-2 -5q-12 -61 -34.5 -113.5
t-51.5 -98t-62.5 -84t-67.5 -70.5l-84 42q46 64 81.5 124.5t45.5 106.5q-44 7 -59 31.5t-6 68.5q11 51 47 75t95 24z" />
    <glyph glyph-name="Ntilde" unicode="&#xd1;" horiz-adv-x="1473" 
d="M702 1613q57 72 121.5 109.5t140.5 37.5q38 0 69.5 -11.5t60 -25.5t56 -25.5t56.5 -11.5q22 0 38 2.5t30.5 9.5t30 19.5t36.5 32.5l92 -65q-55 -75 -123 -111t-131 -36q-38 0 -70.5 11.5t-62 25.5t-57.5 25.5t-57 11.5q-25 0 -42 -3.5t-31.5 -11t-29 -20t-34.5 -30.5z
M175 0l296 1393h245q34 -57 71 -146t75 -194.5t76.5 -219t75 -218t70.5 -191.5t63 -140h13l233 1109h201l-296 -1393h-238q-39 67 -77 157.5t-75 193t-74 210t-73 207.5t-71 187t-70 148h-13l-232 -1103h-200z" />
    <glyph glyph-name="Oacute" unicode="&#xd3;" horiz-adv-x="1427" 
d="M1500 696q-40 -187 -118.5 -322t-182.5 -222t-228.5 -128.5t-255.5 -41.5q-137 1 -245.5 44t-177 131t-89 222t18.5 316q39 181 116.5 315t182.5 223t232 133t265 45q135 0 242 -44.5t173 -134.5t85.5 -224t-18.5 -312zM982 1242q-114 0 -206.5 -43t-163 -117
t-119.5 -173.5t-74 -213.5q-24 -107 -19.5 -205.5t43.5 -173.5t114.5 -120t193.5 -45q105 0 195 38.5t160.5 110t120.5 172t76 223.5q25 117 18.5 217t-46 173.5t-112.5 115t-181 41.5zM1036 1584l297 293l123 -98l-343 -262z" />
    <glyph glyph-name="Obreve" unicode="&#x14e;" horiz-adv-x="1427" 
d="M1500 696q-40 -187 -118.5 -322t-182.5 -222t-228.5 -128.5t-255.5 -41.5q-137 1 -245.5 44t-177 131t-89 222t18.5 316q39 181 116.5 315t182.5 223t232 133t265 45q135 0 242 -44.5t173 -134.5t85.5 -224t-18.5 -312zM982 1242q-114 0 -206.5 -43t-163 -117
t-119.5 -173.5t-74 -213.5q-24 -107 -19.5 -205.5t43.5 -173.5t114.5 -120t193.5 -45q105 0 195 38.5t160.5 110t120.5 172t76 223.5q25 117 18.5 217t-46 173.5t-112.5 115t-181 41.5zM1044 1535q-86 0 -134.5 23.5t-72.5 59.5t-31 77.5t-10 77.5l132 29q1 -23 4.5 -48.5
t17 -47.5t41.5 -36t79 -14t85 14.5t56.5 36t37 47t25.5 48.5l120 -29q-19 -37 -44 -79t-64 -77t-97.5 -58.5t-144.5 -23.5z" />
    <glyph glyph-name="Ocircumflex" unicode="&#xd4;" horiz-adv-x="1427" 
d="M1500 696q-40 -187 -118.5 -322t-182.5 -222t-228.5 -128.5t-255.5 -41.5q-137 1 -245.5 44t-177 131t-89 222t18.5 316q39 181 116.5 315t182.5 223t232 133t265 45q135 0 242 -44.5t173 -134.5t85.5 -224t-18.5 -312zM982 1242q-114 0 -206.5 -43t-163 -117
t-119.5 -173.5t-74 -213.5q-24 -107 -19.5 -205.5t43.5 -173.5t114.5 -120t193.5 -45q105 0 195 38.5t160.5 110t120.5 172t76 223.5q25 117 18.5 217t-46 173.5t-112.5 115t-181 41.5zM842 1505l-110 36l266 264l222 -1l154 -263l-126 -38l-162 193z" />
    <glyph glyph-name="Odieresis" unicode="&#xd6;" horiz-adv-x="1427" 
d="M1500 696q-40 -187 -118.5 -322t-182.5 -222t-228.5 -128.5t-255.5 -41.5q-137 1 -245.5 44t-177 131t-89 222t18.5 316q39 181 116.5 315t182.5 223t232 133t265 45q135 0 242 -44.5t173 -134.5t85.5 -224t-18.5 -312zM982 1242q-114 0 -206.5 -43t-163 -117
t-119.5 -173.5t-74 -213.5q-24 -107 -19.5 -205.5t43.5 -173.5t114.5 -120t193.5 -45q105 0 195 38.5t160.5 110t120.5 172t76 223.5q25 117 18.5 217t-46 173.5t-112.5 115t-181 41.5zM922 1753q103 0 84 -89q-8 -38 -36.5 -62.5t-83.5 -24.5q-106 0 -87 89q10 46 41 66.5
t82 20.5zM1252 1753q103 0 84 -89q-8 -38 -36.5 -62.5t-82.5 -24.5q-106 0 -87 89q10 46 41 66.5t81 20.5z" />
    <glyph glyph-name="Ograve" unicode="&#xd2;" horiz-adv-x="1427" 
d="M1500 696q-40 -187 -118.5 -322t-182.5 -222t-228.5 -128.5t-255.5 -41.5q-137 1 -245.5 44t-177 131t-89 222t18.5 316q39 181 116.5 315t182.5 223t232 133t265 45q135 0 242 -44.5t173 -134.5t85.5 -224t-18.5 -312zM982 1242q-114 0 -206.5 -43t-163 -117
t-119.5 -173.5t-74 -213.5q-24 -107 -19.5 -205.5t43.5 -173.5t114.5 -120t193.5 -45q105 0 195 38.5t160.5 110t120.5 172t76 223.5q25 117 18.5 217t-46 173.5t-112.5 115t-181 41.5zM1001 1512l-232 262l165 98l173 -293z" />
    <glyph glyph-name="Ohungarumlaut" unicode="&#x150;" horiz-adv-x="1427" 
d="M1500 696q-40 -187 -118.5 -322t-182.5 -222t-228.5 -128.5t-255.5 -41.5q-137 1 -245.5 44t-177 131t-89 222t18.5 316q39 181 116.5 315t182.5 223t232 133t265 45q135 0 242 -44.5t173 -134.5t85.5 -224t-18.5 -312zM982 1242q-114 0 -206.5 -43t-163 -117
t-119.5 -173.5t-74 -213.5q-24 -107 -19.5 -205.5t43.5 -173.5t114.5 -120t193.5 -45q105 0 195 38.5t160.5 110t120.5 172t76 223.5q25 117 18.5 217t-46 173.5t-112.5 115t-181 41.5zM822 1573l298 293l118 -89l-346 -262zM1176 1573l297 293l119 -89l-347 -262z" />
    <glyph glyph-name="Omacron" unicode="&#x14c;" horiz-adv-x="1427" 
d="M1500 696q-40 -187 -118.5 -322t-182.5 -222t-228.5 -128.5t-255.5 -41.5q-137 1 -245.5 44t-177 131t-89 222t18.5 316q39 181 116.5 315t182.5 223t232 133t265 45q135 0 242 -44.5t173 -134.5t85.5 -224t-18.5 -312zM982 1242q-114 0 -206.5 -43t-163 -117
t-119.5 -173.5t-74 -213.5q-24 -107 -19.5 -205.5t43.5 -173.5t114.5 -120t193.5 -45q105 0 195 38.5t160.5 110t120.5 172t76 223.5q25 117 18.5 217t-46 173.5t-112.5 115t-181 41.5zM1366 1567h-608l29 137h608z" />
    <glyph glyph-name="Otilde" unicode="&#xd5;" horiz-adv-x="1427" 
d="M1500 696q-40 -187 -118.5 -322t-182.5 -222t-228.5 -128.5t-255.5 -41.5q-137 1 -245.5 44t-177 131t-89 222t18.5 316q39 181 116.5 315t182.5 223t232 133t265 45q135 0 242 -44.5t173 -134.5t85.5 -224t-18.5 -312zM982 1242q-114 0 -206.5 -43t-163 -117
t-119.5 -173.5t-74 -213.5q-24 -107 -19.5 -205.5t43.5 -173.5t114.5 -120t193.5 -45q105 0 195 38.5t160.5 110t120.5 172t76 223.5q25 117 18.5 217t-46 173.5t-112.5 115t-181 41.5zM734 1626q57 72 121.5 109.5t140.5 37.5q38 0 69.5 -11.5t60 -25.5t56 -25.5
t56.5 -11.5q22 0 38 2.5t30.5 9.5t30 19.5t36.5 32.5l92 -65q-55 -75 -123 -111t-131 -36q-38 0 -70.5 11.5t-62 25.5t-57.5 25.5t-57 11.5q-25 0 -42 -3.5t-31.5 -11t-29 -20t-34.5 -30.5z" />
    <glyph glyph-name="R" unicode="R" horiz-adv-x="1242" 
d="M1030 -51q-105 131 -175.5 273t-108.5 283h-4h-257l-107 -505h-203l296 1393h456q97 0 176.5 -28.5t132 -82.5t73 -131.5t-0.5 -174.5q-17 -77 -54 -141t-87.5 -116t-110 -91t-119.5 -66q18 -57 43 -121.5t58.5 -130t75 -130t92.5 -121.5zM520 669h248q61 0 116.5 22.5
t101 61.5t77.5 92.5t46 115.5q15 72 0.5 123t-49 83.5t-83.5 47t-102 14.5h-236z" />
    <glyph glyph-name="Racute" unicode="&#x154;" horiz-adv-x="1242" 
d="M1030 -51q-105 131 -175.5 273t-108.5 283h-4h-257l-107 -505h-203l296 1393h456q97 0 176.5 -28.5t132 -82.5t73 -131.5t-0.5 -174.5q-17 -77 -54 -141t-87.5 -116t-110 -91t-119.5 -66q18 -57 43 -121.5t58.5 -130t75 -130t92.5 -121.5zM520 669h248q61 0 116.5 22.5
t101 61.5t77.5 92.5t46 115.5q15 72 0.5 123t-49 83.5t-83.5 47t-102 14.5h-236zM792 1554l297 293l123 -98l-343 -262z" />
    <glyph glyph-name="Rcaron" unicode="&#x158;" horiz-adv-x="1242" 
d="M1030 -51q-105 131 -175.5 273t-108.5 283h-4h-257l-107 -505h-203l296 1393h456q97 0 176.5 -28.5t132 -82.5t73 -131.5t-0.5 -174.5q-17 -77 -54 -141t-87.5 -116t-110 -91t-119.5 -66q18 -57 43 -121.5t58.5 -130t75 -130t92.5 -121.5zM520 669h248q61 0 116.5 22.5
t101 61.5t77.5 92.5t46 115.5q15 72 0.5 123t-49 83.5t-83.5 47t-102 14.5h-236zM902 1639l217 180l136 -37l-265 -252h-222l-156 253l150 35z" />
    <glyph glyph-name="Rcommaaccent" unicode="&#x156;" horiz-adv-x="1242" 
d="M1030 -51q-105 131 -175.5 273t-108.5 283h-4h-257l-107 -505h-203l296 1393h456q97 0 176.5 -28.5t132 -82.5t73 -131.5t-0.5 -174.5q-17 -77 -54 -141t-87.5 -116t-110 -91t-119.5 -66q18 -57 43 -121.5t58.5 -130t75 -130t92.5 -121.5zM520 669h248q61 0 116.5 22.5
t101 61.5t77.5 92.5t46 115.5q15 72 0.5 123t-49 83.5t-83.5 47t-102 14.5h-236zM565 -68q118 0 98 -101l-2 -5q-12 -61 -34.5 -113.5t-51.5 -98t-62.5 -84t-67.5 -70.5l-84 42q46 64 81.5 124.5t45.5 106.5q-44 7 -59 31.5t-6 68.5q11 51 47 75t95 24z" />
    <glyph glyph-name="Sacute" unicode="&#x15a;" horiz-adv-x="1083" 
d="M191 259q67 -36 117 -57.5t92 -32.5t80 -14.5t82 -3.5q68 0 122 18t93 49t63.5 72.5t34.5 89.5t3 85t-33 66.5t-71.5 53.5t-112.5 45q-96 30 -169 61.5t-118 75t-59.5 106t5.5 155.5q18 87 62.5 157.5t112.5 120.5t160 77.5t205 27.5q100 0 190.5 -25.5t185.5 -84.5
l-98 -140q-42 24 -80 39.5t-74 24.5t-72.5 13t-75.5 4q-62 0 -115 -13.5t-93.5 -39t-67.5 -62.5t-37 -83q-11 -54 -2.5 -90t39.5 -63t85.5 -49.5t135.5 -49.5q85 -28 148.5 -63t102.5 -82t51.5 -108.5t-4.5 -141.5q-20 -92 -63.5 -168.5t-111.5 -131t-160 -85t-209 -30.5
q-62 0 -118.5 7.5t-110.5 23t-106 40t-106 58.5zM904 1572l297 293l123 -98l-343 -262z" />
    <glyph glyph-name="Scaron" unicode="&#x160;" horiz-adv-x="1083" 
d="M191 259q67 -36 117 -57.5t92 -32.5t80 -14.5t82 -3.5q68 0 122 18t93 49t63.5 72.5t34.5 89.5t3 85t-33 66.5t-71.5 53.5t-112.5 45q-96 30 -169 61.5t-118 75t-59.5 106t5.5 155.5q18 87 62.5 157.5t112.5 120.5t160 77.5t205 27.5q100 0 190.5 -25.5t185.5 -84.5
l-98 -140q-42 24 -80 39.5t-74 24.5t-72.5 13t-75.5 4q-62 0 -115 -13.5t-93.5 -39t-67.5 -62.5t-37 -83q-11 -54 -2.5 -90t39.5 -63t85.5 -49.5t135.5 -49.5q85 -28 148.5 -63t102.5 -82t51.5 -108.5t-4.5 -141.5q-20 -92 -63.5 -168.5t-111.5 -131t-160 -85t-209 -30.5
q-62 0 -118.5 7.5t-110.5 23t-106 40t-106 58.5zM909 1639l217 180l136 -37l-265 -252h-222l-156 253l150 35z" />
    <glyph glyph-name="Scedilla" unicode="&#x15e;" horiz-adv-x="1083" 
d="M191 259q67 -36 117 -57.5t92 -32.5t80 -14.5t82 -3.5q68 0 122 18t93 49t63.5 72.5t34.5 89.5t3 85t-33 66.5t-71.5 53.5t-112.5 45q-96 30 -169 61.5t-118 75t-59.5 106t5.5 155.5q18 87 62.5 157.5t112.5 120.5t160 77.5t205 27.5q100 0 190.5 -25.5t185.5 -84.5
l-98 -140q-42 24 -80 39.5t-74 24.5t-72.5 13t-75.5 4q-62 0 -115 -13.5t-93.5 -39t-67.5 -62.5t-37 -83q-11 -54 -2.5 -90t39.5 -63t85.5 -49.5t135.5 -49.5q85 -28 148.5 -63t102.5 -82t51.5 -108.5t-4.5 -141.5q-20 -92 -63.5 -168.5t-111.5 -131t-160 -85t-209 -30.5
q-62 0 -118.5 7.5t-110.5 23t-106 40t-106 58.5zM330 -290q32 -9 58.5 -12t55.5 -3q46 0 75 18t37 54q9 45 -17 60.5t-84 15.5q-17 0 -38 -1t-42 -3l98 166h148l-53 -85q35 -3 62.5 -13.5t44 -30t22 -48.5t-3.5 -69q-19 -90 -84 -133t-165 -43q-52 0 -91 7.5t-73 21.5z" />
    <glyph glyph-name="Scircumflex" unicode="&#x15c;" horiz-adv-x="1083" 
d="M191 259q67 -36 117 -57.5t92 -32.5t80 -14.5t82 -3.5q68 0 122 18t93 49t63.5 72.5t34.5 89.5t3 85t-33 66.5t-71.5 53.5t-112.5 45q-96 30 -169 61.5t-118 75t-59.5 106t5.5 155.5q18 87 62.5 157.5t112.5 120.5t160 77.5t205 27.5q100 0 190.5 -25.5t185.5 -84.5
l-98 -140q-42 24 -80 39.5t-74 24.5t-72.5 13t-75.5 4q-62 0 -115 -13.5t-93.5 -39t-67.5 -62.5t-37 -83q-11 -54 -2.5 -90t39.5 -63t85.5 -49.5t135.5 -49.5q85 -28 148.5 -63t102.5 -82t51.5 -108.5t-4.5 -141.5q-20 -92 -63.5 -168.5t-111.5 -131t-160 -85t-209 -30.5
q-62 0 -118.5 7.5t-110.5 23t-106 40t-106 58.5zM681 1510l-110 36l266 264l222 -1l154 -263l-126 -38l-162 193z" />
    <glyph glyph-name="Scommaaccent" unicode="&#x218;" horiz-adv-x="1083" 
d="M191 259q67 -36 117 -57.5t92 -32.5t80 -14.5t82 -3.5q68 0 122 18t93 49t63.5 72.5t34.5 89.5t3 85t-33 66.5t-71.5 53.5t-112.5 45q-96 30 -169 61.5t-118 75t-59.5 106t5.5 155.5q18 87 62.5 157.5t112.5 120.5t160 77.5t205 27.5q100 0 190.5 -25.5t185.5 -84.5
l-98 -140q-42 24 -80 39.5t-74 24.5t-72.5 13t-75.5 4q-62 0 -115 -13.5t-93.5 -39t-67.5 -62.5t-37 -83q-11 -54 -2.5 -90t39.5 -63t85.5 -49.5t135.5 -49.5q85 -28 148.5 -63t102.5 -82t51.5 -108.5t-4.5 -141.5q-20 -92 -63.5 -168.5t-111.5 -131t-160 -85t-209 -30.5
q-62 0 -118.5 7.5t-110.5 23t-106 40t-106 58.5zM472 -103q118 0 98 -101l-2 -5q-12 -61 -34.5 -113.5t-51.5 -98t-62.5 -84t-67.5 -70.5l-84 42q46 64 81.5 124.5t45.5 106.5q-44 7 -59 31.5t-6 68.5q11 51 47 75t95 24z" />
    <glyph glyph-name="Tbar" unicode="&#x166;" horiz-adv-x="1083" 
d="M294 1224l36 169h1016l-36 -169h-407l-260 -1224h-202l260 1224h-407zM989 664h-608l29 137h608z" />
    <glyph glyph-name="Tcaron" unicode="&#x164;" horiz-adv-x="1083" 
d="M294 1224l36 169h1016l-36 -169h-407l-260 -1224h-202l260 1224h-407zM880 1624l217 180l136 -37l-265 -252h-222l-156 253l150 35z" />
    <glyph glyph-name="Tcommaaccent" unicode="&#x162;" horiz-adv-x="1083" 
d="M294 1224l36 169h1016l-36 -169h-407l-260 -1224h-202l260 1224h-407zM517 -93q118 0 98 -101l-2 -5q-12 -61 -34.5 -113.5t-51.5 -98t-62.5 -84t-67.5 -70.5l-84 42q46 64 81.5 124.5t45.5 106.5q-44 7 -59 31.5t-6 68.5q11 51 47 75t95 24z" />
    <glyph glyph-name="Uacute" unicode="&#xda;" horiz-adv-x="1372" 
d="M686 -18q-130 0 -225 32t-150.5 98t-70.5 168t15 241l186 872h201l-182 -854q-21 -101 -18.5 -174t33.5 -120.5t92 -70.5t156 -23q92 0 161.5 26.5t119.5 76t83 120.5t52 159l183 860h201l-186 -872q-29 -138 -86 -239.5t-139.5 -168t-189.5 -99t-236 -32.5zM950 1525
l297 293l123 -98l-343 -262z" />
    <glyph glyph-name="Ubreve" unicode="&#x16c;" horiz-adv-x="1372" 
d="M686 -18q-130 0 -225 32t-150.5 98t-70.5 168t15 241l186 872h201l-182 -854q-21 -101 -18.5 -174t33.5 -120.5t92 -70.5t156 -23q92 0 161.5 26.5t119.5 76t83 120.5t52 159l183 860h201l-186 -872q-29 -138 -86 -239.5t-139.5 -168t-189.5 -99t-236 -32.5zM1020 1503
q-86 0 -134.5 23.5t-72.5 59.5t-31 77.5t-10 77.5l132 29q1 -23 4.5 -48.5t17 -47.5t41.5 -36t79 -14t85 14.5t56.5 36t37 47t25.5 48.5l120 -29q-19 -37 -44 -79t-64 -77t-97.5 -58.5t-144.5 -23.5z" />
    <glyph glyph-name="Ucircumflex" unicode="&#xdb;" horiz-adv-x="1372" 
d="M686 -18q-130 0 -225 32t-150.5 98t-70.5 168t15 241l186 872h201l-182 -854q-21 -101 -18.5 -174t33.5 -120.5t92 -70.5t156 -23q92 0 161.5 26.5t119.5 76t83 120.5t52 159l183 860h201l-186 -872q-29 -138 -86 -239.5t-139.5 -168t-189.5 -99t-236 -32.5zM797 1495
l-110 36l266 264l222 -1l154 -263l-126 -38l-162 193z" />
    <glyph glyph-name="Udieresis" unicode="&#xdc;" horiz-adv-x="1372" 
d="M686 -18q-130 0 -225 32t-150.5 98t-70.5 168t15 241l186 872h201l-182 -854q-21 -101 -18.5 -174t33.5 -120.5t92 -70.5t156 -23q92 0 161.5 26.5t119.5 76t83 120.5t52 159l183 860h201l-186 -872q-29 -138 -86 -239.5t-139.5 -168t-189.5 -99t-236 -32.5zM886 1726
q103 0 84 -89q-8 -38 -36.5 -62.5t-83.5 -24.5q-106 0 -87 89q10 46 41 66.5t82 20.5zM1216 1726q103 0 84 -89q-8 -38 -36.5 -62.5t-82.5 -24.5q-106 0 -87 89q10 46 41 66.5t81 20.5z" />
    <glyph glyph-name="Ugrave" unicode="&#xd9;" horiz-adv-x="1372" 
d="M686 -18q-130 0 -225 32t-150.5 98t-70.5 168t15 241l186 872h201l-182 -854q-21 -101 -18.5 -174t33.5 -120.5t92 -70.5t156 -23q92 0 161.5 26.5t119.5 76t83 120.5t52 159l183 860h201l-186 -872q-29 -138 -86 -239.5t-139.5 -168t-189.5 -99t-236 -32.5zM1002 1484
l-232 262l165 98l173 -293z" />
    <glyph glyph-name="Uhungarumlaut" unicode="&#x170;" horiz-adv-x="1372" 
d="M686 -18q-130 0 -225 32t-150.5 98t-70.5 168t15 241l186 872h201l-182 -854q-21 -101 -18.5 -174t33.5 -120.5t92 -70.5t156 -23q92 0 161.5 26.5t119.5 76t83 120.5t52 159l183 860h201l-186 -872q-29 -138 -86 -239.5t-139.5 -168t-189.5 -99t-236 -32.5zM744 1559
l298 293l118 -89l-346 -262zM1098 1559l297 293l119 -89l-347 -262z" />
    <glyph glyph-name="Umacron" unicode="&#x16a;" horiz-adv-x="1372" 
d="M686 -18q-130 0 -225 32t-150.5 98t-70.5 168t15 241l186 872h201l-182 -854q-21 -101 -18.5 -174t33.5 -120.5t92 -70.5t156 -23q92 0 161.5 26.5t119.5 76t83 120.5t52 159l183 860h201l-186 -872q-29 -138 -86 -239.5t-139.5 -168t-189.5 -99t-236 -32.5zM1341 1562
h-608l29 137h608z" />
    <glyph glyph-name="Uogonek" unicode="&#x172;" horiz-adv-x="1372" 
d="M686 -18q-130 0 -225 32t-150.5 98t-70.5 168t15 241l186 872h201l-182 -854q-21 -101 -18.5 -174t33.5 -120.5t92 -70.5t156 -23q92 0 161.5 26.5t119.5 76t83 120.5t52 159l183 860h201l-186 -872q-29 -138 -86 -239.5t-139.5 -168t-189.5 -99t-236 -32.5zM842 -369
q-41 -14 -83 -22t-94 -8q-50 0 -88 13t-62 38t-32 60t1 80q7 37 30.5 68.5t54.5 58.5t65.5 49t64.5 41h122q-41 -31 -73.5 -54.5t-56.5 -45t-39.5 -44t-21.5 -50.5q-10 -48 12.5 -75t68.5 -27q29 0 57 3.5t65 12.5z" />
    <glyph glyph-name="Uring" unicode="&#x16e;" horiz-adv-x="1372" 
d="M686 -18q-130 0 -225 32t-150.5 98t-70.5 168t15 241l186 872h201l-182 -854q-21 -101 -18.5 -174t33.5 -120.5t92 -70.5t156 -23q92 0 161.5 26.5t119.5 76t83 120.5t52 159l183 860h201l-186 -872q-29 -138 -86 -239.5t-139.5 -168t-189.5 -99t-236 -32.5zM1058 1716
q-29 0 -48 -12.5t-25 -42.5q-13 -57 51 -57q34 0 50 16t21 39q7 31 -6.5 44t-42.5 13zM1079 1803q76 0 110 -34.5t18 -109.5q-6 -30 -20 -56t-37 -44.5t-55 -29.5t-75 -11q-81 0 -116 34.5t-19 109.5q16 76 66.5 108.5t127.5 32.5z" />
    <glyph glyph-name="Utilde" unicode="&#x168;" horiz-adv-x="1372" 
d="M686 -18q-130 0 -225 32t-150.5 98t-70.5 168t15 241l186 872h201l-182 -854q-21 -101 -18.5 -174t33.5 -120.5t92 -70.5t156 -23q92 0 161.5 26.5t119.5 76t83 120.5t52 159l183 860h201l-186 -872q-29 -138 -86 -239.5t-139.5 -168t-189.5 -99t-236 -32.5zM689 1611
q57 72 121.5 109.5t140.5 37.5q38 0 69.5 -11.5t60 -25.5t56 -25.5t56.5 -11.5q22 0 38 2.5t30.5 9.5t30 19.5t36.5 32.5l92 -65q-55 -75 -123 -111t-131 -36q-38 0 -70.5 11.5t-62 25.5t-57.5 25.5t-57 11.5q-25 0 -42 -3.5t-31.5 -11t-29 -20t-34.5 -30.5z" />
    <glyph glyph-name="Wacute" unicode="&#x1e82;" horiz-adv-x="1932" 
d="M1372 1393q-2 -87 -2 -189t1.5 -210t5 -216.5t10 -209.5t15.5 -190t21 -157h17q42 76 88 175t93 209t92 223.5t85.5 219.5t73 198t54.5 157l210 -10q-30 -96 -73.5 -213t-95.5 -244t-110 -257.5t-116 -253.5t-114.5 -232t-104.5 -193h-266q-14 67 -24 156t-18 187.5
t-12.5 201t-7 199t-2.5 180t3 144.5h-6q-27 -70 -63 -155.5t-78 -179.5t-88.5 -192t-94.5 -193.5t-96.5 -184.5t-93.5 -163h-266q-13 66 -22 168t-15.5 224.5t-8.5 258t-0.5 268t7.5 255t17 219.5l214 10q-7 -50 -12 -118.5t-9.5 -149t-7.5 -168.5t-4 -177t-1 -174.5
t1.5 -160t5.5 -135t9 -99.5h17q44 70 94 165t102 203t104 221.5t98.5 220.5t85.5 200.5t66 161.5h222zM1272 1575l297 293l123 -98l-343 -262z" />
    <glyph glyph-name="Wcircumflex" unicode="&#x174;" horiz-adv-x="1932" 
d="M1372 1393q-2 -87 -2 -189t1.5 -210t5 -216.5t10 -209.5t15.5 -190t21 -157h17q42 76 88 175t93 209t92 223.5t85.5 219.5t73 198t54.5 157l210 -10q-30 -96 -73.5 -213t-95.5 -244t-110 -257.5t-116 -253.5t-114.5 -232t-104.5 -193h-266q-14 67 -24 156t-18 187.5
t-12.5 201t-7 199t-2.5 180t3 144.5h-6q-27 -70 -63 -155.5t-78 -179.5t-88.5 -192t-94.5 -193.5t-96.5 -184.5t-93.5 -163h-266q-13 66 -22 168t-15.5 224.5t-8.5 258t-0.5 268t7.5 255t17 219.5l214 10q-7 -50 -12 -118.5t-9.5 -149t-7.5 -168.5t-4 -177t-1 -174.5
t1.5 -160t5.5 -135t9 -99.5h17q44 70 94 165t102 203t104 221.5t98.5 220.5t85.5 200.5t66 161.5h222zM1093 1509l-110 36l266 264l222 -1l154 -263l-126 -38l-162 193z" />
    <glyph glyph-name="Wdieresis" unicode="&#x1e84;" horiz-adv-x="1932" 
d="M1372 1393q-2 -87 -2 -189t1.5 -210t5 -216.5t10 -209.5t15.5 -190t21 -157h17q42 76 88 175t93 209t92 223.5t85.5 219.5t73 198t54.5 157l210 -10q-30 -96 -73.5 -213t-95.5 -244t-110 -257.5t-116 -253.5t-114.5 -232t-104.5 -193h-266q-14 67 -24 156t-18 187.5
t-12.5 201t-7 199t-2.5 180t3 144.5h-6q-27 -70 -63 -155.5t-78 -179.5t-88.5 -192t-94.5 -193.5t-96.5 -184.5t-93.5 -163h-266q-13 66 -22 168t-15.5 224.5t-8.5 258t-0.5 268t7.5 255t17 219.5l214 10q-7 -50 -12 -118.5t-9.5 -149t-7.5 -168.5t-4 -177t-1 -174.5
t1.5 -160t5.5 -135t9 -99.5h17q44 70 94 165t102 203t104 221.5t98.5 220.5t85.5 200.5t66 161.5h222zM1169 1746q103 0 84 -89q-8 -38 -36.5 -62.5t-83.5 -24.5q-106 0 -87 89q10 46 41 66.5t82 20.5zM1499 1746q103 0 84 -89q-8 -38 -36.5 -62.5t-82.5 -24.5
q-106 0 -87 89q10 46 41 66.5t81 20.5z" />
    <glyph glyph-name="Wgrave" unicode="&#x1e80;" horiz-adv-x="1932" 
d="M1372 1393q-2 -87 -2 -189t1.5 -210t5 -216.5t10 -209.5t15.5 -190t21 -157h17q42 76 88 175t93 209t92 223.5t85.5 219.5t73 198t54.5 157l210 -10q-30 -96 -73.5 -213t-95.5 -244t-110 -257.5t-116 -253.5t-114.5 -232t-104.5 -193h-266q-14 67 -24 156t-18 187.5
t-12.5 201t-7 199t-2.5 180t3 144.5h-6q-27 -70 -63 -155.5t-78 -179.5t-88.5 -192t-94.5 -193.5t-96.5 -184.5t-93.5 -163h-266q-13 66 -22 168t-15.5 224.5t-8.5 258t-0.5 268t7.5 255t17 219.5l214 10q-7 -50 -12 -118.5t-9.5 -149t-7.5 -168.5t-4 -177t-1 -174.5
t1.5 -160t5.5 -135t9 -99.5h17q44 70 94 165t102 203t104 221.5t98.5 220.5t85.5 200.5t66 161.5h222zM1289 1519l-232 262l165 98l173 -293z" />
    <glyph glyph-name="Yacute" unicode="&#xdd;" horiz-adv-x="1189" 
d="M429 953q-24 65 -45.5 129.5t-38.5 122.5t-30 106.5t-20 81.5l230 10q6 -29 16 -71.5t23 -91t27.5 -98t29.5 -92.5q14 -42 31 -88.5t34 -89.5t33.5 -78.5t28.5 -54.5h10q19 19 49.5 54t65.5 77.5t72 89t69 88.5q33 45 67.5 93t67 94.5t61 89.5t51.5 78l226 -10
q-54 -81 -135 -193.5t-181 -240.5q-88 -114 -178.5 -213t-180.5 -197l-116 -549h-201l116 549q-44 88 -93 190t-89 214zM881 1551l297 293l123 -98l-343 -262z" />
    <glyph glyph-name="Ycircumflex" unicode="&#x176;" horiz-adv-x="1189" 
d="M429 953q-24 65 -45.5 129.5t-38.5 122.5t-30 106.5t-20 81.5l230 10q6 -29 16 -71.5t23 -91t27.5 -98t29.5 -92.5q14 -42 31 -88.5t34 -89.5t33.5 -78.5t28.5 -54.5h10q19 19 49.5 54t65.5 77.5t72 89t69 88.5q33 45 67.5 93t67 94.5t61 89.5t51.5 78l226 -10
q-54 -81 -135 -193.5t-181 -240.5q-88 -114 -178.5 -213t-180.5 -197l-116 -549h-201l116 549q-44 88 -93 190t-89 214zM723 1506l-110 36l266 264l222 -1l154 -263l-126 -38l-162 193z" />
    <glyph glyph-name="Ydieresis" unicode="&#x178;" horiz-adv-x="1189" 
d="M429 953q-24 65 -45.5 129.5t-38.5 122.5t-30 106.5t-20 81.5l230 10q6 -29 16 -71.5t23 -91t27.5 -98t29.5 -92.5q14 -42 31 -88.5t34 -89.5t33.5 -78.5t28.5 -54.5h10q19 19 49.5 54t65.5 77.5t72 89t69 88.5q33 45 67.5 93t67 94.5t61 89.5t51.5 78l226 -10
q-54 -81 -135 -193.5t-181 -240.5q-88 -114 -178.5 -213t-180.5 -197l-116 -549h-201l116 549q-44 88 -93 190t-89 214zM809 1752q103 0 84 -89q-8 -38 -36.5 -62.5t-83.5 -24.5q-106 0 -87 89q10 46 41 66.5t82 20.5zM1139 1752q103 0 84 -89q-8 -38 -36.5 -62.5
t-82.5 -24.5q-106 0 -87 89q10 46 41 66.5t81 20.5z" />
    <glyph glyph-name="Ygrave" unicode="&#x1ef2;" horiz-adv-x="1189" 
d="M429 953q-24 65 -45.5 129.5t-38.5 122.5t-30 106.5t-20 81.5l230 10q6 -29 16 -71.5t23 -91t27.5 -98t29.5 -92.5q14 -42 31 -88.5t34 -89.5t33.5 -78.5t28.5 -54.5h10q19 19 49.5 54t65.5 77.5t72 89t69 88.5q33 45 67.5 93t67 94.5t61 89.5t51.5 78l226 -10
q-54 -81 -135 -193.5t-181 -240.5q-88 -114 -178.5 -213t-180.5 -197l-116 -549h-201l116 549q-44 88 -93 190t-89 214zM923 1500l-232 262l165 98l173 -293z" />
    <glyph glyph-name="Zacute" unicode="&#x179;" horiz-adv-x="1110" 
d="M88 0l35 167q60 78 138 164.5t164.5 177t177.5 183t178 183t164.5 176.5t138.5 165l2 8h-706l36 169h932l-38 -179q-60 -82 -136 -168t-159.5 -173.5t-171 -175.5t-172 -175.5t-162 -174t-140.5 -169.5l-2 -9h690l-35 -169h-934zM897 1588l297 293l123 -98l-343 -262z
" />
    <glyph glyph-name="Zcaron" unicode="&#x17d;" horiz-adv-x="1110" 
d="M88 0l35 167q60 78 138 164.5t164.5 177t177.5 183t178 183t164.5 176.5t138.5 165l2 8h-706l36 169h932l-38 -179q-60 -82 -136 -168t-159.5 -173.5t-171 -175.5t-172 -175.5t-162 -174t-140.5 -169.5l-2 -9h690l-35 -169h-934zM972 1643l217 180l136 -37l-265 -252
h-222l-156 253l150 35z" />
    <glyph glyph-name="Zdotaccent" unicode="&#x17b;" horiz-adv-x="1110" 
d="M88 0l35 167q60 78 138 164.5t164.5 177t177.5 183t178 183t164.5 176.5t138.5 165l2 8h-706l36 169h932l-38 -179q-60 -82 -136 -168t-159.5 -173.5t-171 -175.5t-172 -175.5t-162 -174t-140.5 -169.5l-2 -9h690l-35 -169h-934zM975 1728q103 0 84 -89
q-8 -38 -36.5 -62.5t-83.5 -24.5q-106 0 -87 89q10 46 41 66.5t82 20.5z" />
    <glyph glyph-name="abreve" unicode="&#x103;" horiz-adv-x="1119" 
d="M186 504q27 130 86 228.5t141 165.5t182 101t209 34q58 0 110.5 -8t98 -20.5t85 -29t72.5 -33.5l-200 -942h-166l-4 98q-35 -23 -70.5 -44t-75 -37t-84.5 -25.5t-99 -9.5q-86 0 -152 32t-105 96.5t-47.5 163t19.5 230.5zM374 508q-20 -95 -15 -163.5t30 -113.5t69 -66.5
t102 -21.5q37 0 74 7t72 19.5t66.5 29t55.5 36.5l128 599q-8 4 -25.5 10.5t-42 12.5t-55 10.5t-64.5 4.5q-70 0 -133.5 -24t-115.5 -70t-89.5 -114t-56.5 -156zM881 1181q-86 0 -134.5 23.5t-72.5 59.5t-31 77.5t-10 77.5l132 29q1 -23 4.5 -48.5t17 -47.5t41.5 -36t79 -14
t85 14.5t56.5 36t37 47t25.5 48.5l120 -29q-19 -37 -44 -79t-64 -77t-97.5 -58.5t-144.5 -23.5z" />
    <glyph glyph-name="acircumflex" unicode="&#xe2;" horiz-adv-x="1119" 
d="M186 504q27 130 86 228.5t141 165.5t182 101t209 34q58 0 110.5 -8t98 -20.5t85 -29t72.5 -33.5l-200 -942h-166l-4 98q-35 -23 -70.5 -44t-75 -37t-84.5 -25.5t-99 -9.5q-86 0 -152 32t-105 96.5t-47.5 163t19.5 230.5zM374 508q-20 -95 -15 -163.5t30 -113.5t69 -66.5
t102 -21.5q37 0 74 7t72 19.5t66.5 29t55.5 36.5l128 599q-8 4 -25.5 10.5t-42 12.5t-55 10.5t-64.5 4.5q-70 0 -133.5 -24t-115.5 -70t-89.5 -114t-56.5 -156zM640 1158l-110 36l266 264l222 -1l154 -263l-126 -38l-162 193z" />
    <glyph glyph-name="adieresis" unicode="&#xe4;" horiz-adv-x="1119" 
d="M186 504q27 130 86 228.5t141 165.5t182 101t209 34q58 0 110.5 -8t98 -20.5t85 -29t72.5 -33.5l-200 -942h-166l-4 98q-35 -23 -70.5 -44t-75 -37t-84.5 -25.5t-99 -9.5q-86 0 -152 32t-105 96.5t-47.5 163t19.5 230.5zM374 508q-20 -95 -15 -163.5t30 -113.5t69 -66.5
t102 -21.5q37 0 74 7t72 19.5t66.5 29t55.5 36.5l128 599q-8 4 -25.5 10.5t-42 12.5t-55 10.5t-64.5 4.5q-70 0 -133.5 -24t-115.5 -70t-89.5 -114t-56.5 -156zM731 1375q103 0 84 -89q-8 -38 -36.5 -62.5t-83.5 -24.5q-106 0 -87 89q10 46 41 66.5t82 20.5zM1061 1375
q103 0 84 -89q-8 -38 -36.5 -62.5t-82.5 -24.5q-106 0 -87 89q10 46 41 66.5t81 20.5z" />
    <glyph glyph-name="agrave" unicode="&#xe0;" horiz-adv-x="1119" 
d="M186 504q27 130 86 228.5t141 165.5t182 101t209 34q58 0 110.5 -8t98 -20.5t85 -29t72.5 -33.5l-200 -942h-166l-4 98q-35 -23 -70.5 -44t-75 -37t-84.5 -25.5t-99 -9.5q-86 0 -152 32t-105 96.5t-47.5 163t19.5 230.5zM374 508q-20 -95 -15 -163.5t30 -113.5t69 -66.5
t102 -21.5q37 0 74 7t72 19.5t66.5 29t55.5 36.5l128 599q-8 4 -25.5 10.5t-42 12.5t-55 10.5t-64.5 4.5q-70 0 -133.5 -24t-115.5 -70t-89.5 -114t-56.5 -156zM849 1154l-232 262l165 98l173 -293z" />
    <glyph glyph-name="amacron" unicode="&#x101;" horiz-adv-x="1119" 
d="M186 504q27 130 86 228.5t141 165.5t182 101t209 34q58 0 110.5 -8t98 -20.5t85 -29t72.5 -33.5l-200 -942h-166l-4 98q-35 -23 -70.5 -44t-75 -37t-84.5 -25.5t-99 -9.5q-86 0 -152 32t-105 96.5t-47.5 163t19.5 230.5zM374 508q-20 -95 -15 -163.5t30 -113.5t69 -66.5
t102 -21.5q37 0 74 7t72 19.5t66.5 29t55.5 36.5l128 599q-8 4 -25.5 10.5t-42 12.5t-55 10.5t-64.5 4.5q-70 0 -133.5 -24t-115.5 -70t-89.5 -114t-56.5 -156zM1161 1180h-608l29 137h608z" />
    <glyph glyph-name="aogonek" unicode="&#x105;" horiz-adv-x="1119" 
d="M186 504q27 130 86 228.5t141 165.5t182 101t209 34q58 0 110.5 -8t98 -20.5t85 -29t72.5 -33.5l-200 -942h-166l-4 98q-35 -23 -70.5 -44t-75 -37t-84.5 -25.5t-99 -9.5q-86 0 -152 32t-105 96.5t-47.5 163t19.5 230.5zM374 508q-20 -95 -15 -163.5t30 -113.5t69 -66.5
t102 -21.5q37 0 74 7t72 19.5t66.5 29t55.5 36.5l128 599q-8 4 -25.5 10.5t-42 12.5t-55 10.5t-64.5 4.5q-70 0 -133.5 -24t-115.5 -70t-89.5 -114t-56.5 -156zM993 -378q-41 -14 -83 -22t-94 -8q-50 0 -88 13t-62 38t-32 60t1 80q7 37 30.5 68.5t54.5 58.5t65.5 49t64.5 41
h122q-41 -31 -73.5 -54.5t-56.5 -45t-39.5 -44t-21.5 -50.5q-10 -48 12.5 -75t68.5 -27q29 0 57 3.5t65 12.5z" />
    <glyph glyph-name="aring" unicode="&#xe5;" horiz-adv-x="1119" 
d="M186 504q27 130 86 228.5t141 165.5t182 101t209 34q58 0 110.5 -8t98 -20.5t85 -29t72.5 -33.5l-200 -942h-166l-4 98q-35 -23 -70.5 -44t-75 -37t-84.5 -25.5t-99 -9.5q-86 0 -152 32t-105 96.5t-47.5 163t19.5 230.5zM374 508q-20 -95 -15 -163.5t30 -113.5t69 -66.5
t102 -21.5q37 0 74 7t72 19.5t66.5 29t55.5 36.5l128 599q-8 4 -25.5 10.5t-42 12.5t-55 10.5t-64.5 4.5q-70 0 -133.5 -24t-115.5 -70t-89.5 -114t-56.5 -156zM901 1338q-29 0 -48 -12.5t-25 -42.5q-13 -57 51 -57q34 0 50 16t21 39q7 31 -6.5 44t-42.5 13zM922 1425
q76 0 110 -34.5t18 -109.5q-6 -30 -20 -56t-37 -44.5t-55 -29.5t-75 -11q-81 0 -116 34.5t-19 109.5q16 76 66.5 108.5t127.5 32.5z" />
    <glyph glyph-name="atilde" unicode="&#xe3;" horiz-adv-x="1119" 
d="M186 504q27 130 86 228.5t141 165.5t182 101t209 34q58 0 110.5 -8t98 -20.5t85 -29t72.5 -33.5l-200 -942h-166l-4 98q-35 -23 -70.5 -44t-75 -37t-84.5 -25.5t-99 -9.5q-86 0 -152 32t-105 96.5t-47.5 163t19.5 230.5zM374 508q-20 -95 -15 -163.5t30 -113.5t69 -66.5
t102 -21.5q37 0 74 7t72 19.5t66.5 29t55.5 36.5l128 599q-8 4 -25.5 10.5t-42 12.5t-55 10.5t-64.5 4.5q-70 0 -133.5 -24t-115.5 -70t-89.5 -114t-56.5 -156zM490 1216q57 72 121.5 109.5t140.5 37.5q38 0 69.5 -11.5t60 -25.5t56 -25.5t56.5 -11.5q22 0 38 2.5t30.5 9.5
t30 19.5t36.5 32.5l92 -65q-55 -75 -123 -111t-131 -36q-38 0 -70.5 11.5t-62 25.5t-57.5 25.5t-57 11.5q-25 0 -42 -3.5t-31.5 -11t-29 -20t-34.5 -30.5z" />
    <glyph glyph-name="cacute" unicode="&#x107;" horiz-adv-x="942" 
d="M765 1215l297 293l123 -98l-343 -262zM202 518q28 132 82 229t127.5 160.5t162.5 94.5t186 31q80 0 157.5 -20.5t150.5 -69.5l-86 -132q-52 31 -109.5 46.5t-116.5 15.5q-145 0 -237.5 -93.5t-130.5 -270.5q-19 -87 -15.5 -155.5t30 -115t77 -71t125.5 -24.5
q65 0 127 17.5t121 43.5l31 -131q-89 -45 -174.5 -68t-173.5 -23q-120 0 -197 39.5t-115.5 111t-42.5 170t21 215.5z" />
    <glyph glyph-name="ccaron" unicode="&#x10d;" horiz-adv-x="942" 
d="M844 1268l217 180l136 -37l-265 -252h-222l-156 253l150 35zM203 518q28 132 82 229t127.5 160.5t162.5 94.5t186 31q80 0 157.5 -20.5t150.5 -69.5l-86 -132q-52 31 -109.5 46.5t-116.5 15.5q-145 0 -237.5 -93.5t-130.5 -270.5q-19 -87 -15.5 -155.5t30 -115t77 -71
t125.5 -24.5q65 0 127 17.5t121 43.5l31 -131q-89 -45 -174.5 -68t-173.5 -23q-120 0 -197 39.5t-115.5 111t-42.5 170t21 215.5z" />
    <glyph glyph-name="ccedilla" unicode="&#xe7;" horiz-adv-x="942" 
d="M319 -298q32 -9 58.5 -12t55.5 -3q46 0 75 18t37 54q9 45 -17 60.5t-84 15.5q-17 0 -38 -1t-42 -3l98 166h148l-53 -85q35 -3 62.5 -13.5t44 -30t22 -48.5t-3.5 -69q-19 -90 -84 -133t-165 -43q-52 0 -91 7.5t-73 21.5zM202 518q28 132 82 229t127.5 160.5t162.5 94.5
t186 31q80 0 157.5 -20.5t150.5 -69.5l-86 -132q-52 31 -109.5 46.5t-116.5 15.5q-145 0 -237.5 -93.5t-130.5 -270.5q-19 -87 -15.5 -155.5t30 -115t77 -71t125.5 -24.5q65 0 127 17.5t121 43.5l31 -131q-89 -45 -174.5 -68t-173.5 -23q-120 0 -197 39.5t-115.5 111
t-42.5 170t21 215.5z" />
    <glyph glyph-name="ccircumflex" unicode="&#x109;" horiz-adv-x="942" 
d="M202 518q28 132 82 229t127.5 160.5t162.5 94.5t186 31q80 0 157.5 -20.5t150.5 -69.5l-86 -132q-52 31 -109.5 46.5t-116.5 15.5q-145 0 -237.5 -93.5t-130.5 -270.5q-19 -87 -15.5 -155.5t30 -115t77 -71t125.5 -24.5q65 0 127 17.5t121 43.5l31 -131
q-89 -45 -174.5 -68t-173.5 -23q-120 0 -197 39.5t-115.5 111t-42.5 170t21 215.5zM570 1118l-110 36l266 264l222 -1l154 -263l-126 -38l-162 193z" />
    <glyph glyph-name="cdotaccent" unicode="&#x10b;" horiz-adv-x="942" 
d="M857 1340q103 0 84 -89q-8 -38 -36.5 -62.5t-83.5 -24.5q-106 0 -87 89q10 46 41 66.5t82 20.5zM202 518q28 132 82 229t127.5 160.5t162.5 94.5t186 31q80 0 157.5 -20.5t150.5 -69.5l-86 -132q-52 31 -109.5 46.5t-116.5 15.5q-145 0 -237.5 -93.5t-130.5 -270.5
q-19 -87 -15.5 -155.5t30 -115t77 -71t125.5 -24.5q65 0 127 17.5t121 43.5l31 -131q-89 -45 -174.5 -68t-173.5 -23q-120 0 -197 39.5t-115.5 111t-42.5 170t21 215.5z" />
    <glyph glyph-name="dcaron" unicode="&#x10f;" horiz-adv-x="1305" 
d="M817 0l-4 98q-74 -51 -153 -83.5t-174 -32.5q-83 0 -149.5 29.5t-107 93t-50.5 163t20 239.5q20 91 55.5 166t82 133t101 101t112.5 71t116 41.5t111 13.5q45 0 78.5 -4t59 -10t44.5 -13.5t36 -13.5l96 451h198l-306 -1443h-166zM387 507q-20 -95 -15.5 -163.5t30 -113
t69.5 -66t103 -21.5q60 0 129.5 20t134.5 63l128 605q-27 18 -78.5 30t-108.5 12q-67 0 -129 -22.5t-114 -68t-90.5 -114t-58.5 -161.5zM1524 1455q118 0 98 -101l-2 -5q-12 -61 -34.5 -113.5t-51.5 -98t-62.5 -84t-67.5 -70.5l-84 42q46 64 81.5 124.5t45.5 106.5
q-44 7 -59 31.5t-6 68.5q11 51 47 75t95 24z" />
    <glyph glyph-name="dcroat" unicode="&#x111;" horiz-adv-x="1133" 
d="M1298 1188h-608l28 130h608zM817 0l-4 98q-74 -51 -153 -83.5t-174 -32.5q-83 0 -149.5 29.5t-107 93t-50.5 163t20 239.5q20 91 55.5 166t82 133t101 101t112.5 71t116 41.5t111 13.5q45 0 78.5 -4t59 -10t44.5 -13.5t36 -13.5l96 451h198l-306 -1443h-166zM387 507
q-20 -95 -15.5 -163.5t30 -113t69.5 -66t103 -21.5q60 0 129.5 20t134.5 63l128 605q-27 18 -78.5 30t-108.5 12q-67 0 -129 -22.5t-114 -68t-90.5 -114t-58.5 -161.5z" />
    <glyph glyph-name="eacute" unicode="&#xe9;" horiz-adv-x="1045" 
d="M371 420q-6 -67 6 -119t44 -88t86 -54.5t132 -18.5q72 0 142 22.5t129 51.5l31 -136q-46 -23 -90 -40.5t-89 -30t-92 -19t-99 -6.5q-236 0 -330.5 137t-38.5 400q26 124 80 219.5t129.5 161t169 99.5t199.5 34q85 0 153 -25.5t113 -69.5t63 -105t3 -131
q-12 -58 -39.5 -109.5t-75.5 -89.5t-118.5 -60.5t-168.5 -22.5h-339zM739 873q-61 0 -113 -22.5t-95 -62t-75 -93.5t-52 -116h310q43 0 77.5 4t61 15.5t43.5 33t25 57.5q10 49 -3 83.5t-40.5 57t-64.5 33t-74 10.5zM805 1193l297 293l123 -98l-343 -262z" />
    <glyph glyph-name="ebreve" unicode="&#x115;" horiz-adv-x="1045" 
d="M371 420q-6 -67 6 -119t44 -88t86 -54.5t132 -18.5q72 0 142 22.5t129 51.5l31 -136q-46 -23 -90 -40.5t-89 -30t-92 -19t-99 -6.5q-236 0 -330.5 137t-38.5 400q26 124 80 219.5t129.5 161t169 99.5t199.5 34q85 0 153 -25.5t113 -69.5t63 -105t3 -131
q-12 -58 -39.5 -109.5t-75.5 -89.5t-118.5 -60.5t-168.5 -22.5h-339zM739 873q-61 0 -113 -22.5t-95 -62t-75 -93.5t-52 -116h310q43 0 77.5 4t61 15.5t43.5 33t25 57.5q10 49 -3 83.5t-40.5 57t-64.5 33t-74 10.5zM826 1161q-86 0 -134.5 23.5t-72.5 59.5t-31 77.5
t-10 77.5l132 29q1 -23 4.5 -48.5t17 -47.5t41.5 -36t79 -14t85 14.5t56.5 36t37 47t25.5 48.5l120 -29q-19 -37 -44 -79t-64 -77t-97.5 -58.5t-144.5 -23.5z" />
    <glyph glyph-name="ecaron" unicode="&#x11b;" horiz-adv-x="1045" 
d="M371 420q-6 -67 6 -119t44 -88t86 -54.5t132 -18.5q72 0 142 22.5t129 51.5l31 -136q-46 -23 -90 -40.5t-89 -30t-92 -19t-99 -6.5q-236 0 -330.5 137t-38.5 400q26 124 80 219.5t129.5 161t169 99.5t199.5 34q85 0 153 -25.5t113 -69.5t63 -105t3 -131
q-12 -58 -39.5 -109.5t-75.5 -89.5t-118.5 -60.5t-168.5 -22.5h-339zM739 873q-61 0 -113 -22.5t-95 -62t-75 -93.5t-52 -116h310q43 0 77.5 4t61 15.5t43.5 33t25 57.5q10 49 -3 83.5t-40.5 57t-64.5 33t-74 10.5zM862 1260l217 180l136 -37l-265 -252h-222l-156 253
l150 35z" />
    <glyph glyph-name="ecircumflex" unicode="&#xea;" horiz-adv-x="1045" 
d="M371 420q-6 -67 6 -119t44 -88t86 -54.5t132 -18.5q72 0 142 22.5t129 51.5l31 -136q-46 -23 -90 -40.5t-89 -30t-92 -19t-99 -6.5q-236 0 -330.5 137t-38.5 400q26 124 80 219.5t129.5 161t169 99.5t199.5 34q85 0 153 -25.5t113 -69.5t63 -105t3 -131
q-12 -58 -39.5 -109.5t-75.5 -89.5t-118.5 -60.5t-168.5 -22.5h-339zM739 873q-61 0 -113 -22.5t-95 -62t-75 -93.5t-52 -116h310q43 0 77.5 4t61 15.5t43.5 33t25 57.5q10 49 -3 83.5t-40.5 57t-64.5 33t-74 10.5zM605 1120l-110 36l266 264l222 -1l154 -263l-126 -38
l-162 193z" />
    <glyph glyph-name="edieresis" unicode="&#xeb;" horiz-adv-x="1045" 
d="M371 420q-6 -67 6 -119t44 -88t86 -54.5t132 -18.5q72 0 142 22.5t129 51.5l31 -136q-46 -23 -90 -40.5t-89 -30t-92 -19t-99 -6.5q-236 0 -330.5 137t-38.5 400q26 124 80 219.5t129.5 161t169 99.5t199.5 34q85 0 153 -25.5t113 -69.5t63 -105t3 -131
q-12 -58 -39.5 -109.5t-75.5 -89.5t-118.5 -60.5t-168.5 -22.5h-339zM739 873q-61 0 -113 -22.5t-95 -62t-75 -93.5t-52 -116h310q43 0 77.5 4t61 15.5t43.5 33t25 57.5q10 49 -3 83.5t-40.5 57t-64.5 33t-74 10.5zM691 1356q103 0 84 -89q-8 -38 -36.5 -62.5t-83.5 -24.5
q-106 0 -87 89q10 46 41 66.5t82 20.5zM1021 1356q103 0 84 -89q-8 -38 -36.5 -62.5t-82.5 -24.5q-106 0 -87 89q10 46 41 66.5t81 20.5z" />
    <glyph glyph-name="edotaccent" unicode="&#x117;" horiz-adv-x="1045" 
d="M371 420q-6 -67 6 -119t44 -88t86 -54.5t132 -18.5q72 0 142 22.5t129 51.5l31 -136q-46 -23 -90 -40.5t-89 -30t-92 -19t-99 -6.5q-236 0 -330.5 137t-38.5 400q26 124 80 219.5t129.5 161t169 99.5t199.5 34q85 0 153 -25.5t113 -69.5t63 -105t3 -131
q-12 -58 -39.5 -109.5t-75.5 -89.5t-118.5 -60.5t-168.5 -22.5h-339zM739 873q-61 0 -113 -22.5t-95 -62t-75 -93.5t-52 -116h310q43 0 77.5 4t61 15.5t43.5 33t25 57.5q10 49 -3 83.5t-40.5 57t-64.5 33t-74 10.5zM851 1347q103 0 84 -89q-8 -38 -36.5 -62.5t-83.5 -24.5
q-106 0 -87 89q10 46 41 66.5t82 20.5z" />
    <glyph glyph-name="egrave" unicode="&#xe8;" horiz-adv-x="1045" 
d="M371 420q-6 -67 6 -119t44 -88t86 -54.5t132 -18.5q72 0 142 22.5t129 51.5l31 -136q-46 -23 -90 -40.5t-89 -30t-92 -19t-99 -6.5q-236 0 -330.5 137t-38.5 400q26 124 80 219.5t129.5 161t169 99.5t199.5 34q85 0 153 -25.5t113 -69.5t63 -105t3 -131
q-12 -58 -39.5 -109.5t-75.5 -89.5t-118.5 -60.5t-168.5 -22.5h-339zM739 873q-61 0 -113 -22.5t-95 -62t-75 -93.5t-52 -116h310q43 0 77.5 4t61 15.5t43.5 33t25 57.5q10 49 -3 83.5t-40.5 57t-64.5 33t-74 10.5zM776 1139l-232 262l165 98l173 -293z" />
    <glyph glyph-name="emacron" unicode="&#x113;" horiz-adv-x="1045" 
d="M371 420q-6 -67 6 -119t44 -88t86 -54.5t132 -18.5q72 0 142 22.5t129 51.5l31 -136q-46 -23 -90 -40.5t-89 -30t-92 -19t-99 -6.5q-236 0 -330.5 137t-38.5 400q26 124 80 219.5t129.5 161t169 99.5t199.5 34q85 0 153 -25.5t113 -69.5t63 -105t3 -131
q-12 -58 -39.5 -109.5t-75.5 -89.5t-118.5 -60.5t-168.5 -22.5h-339zM739 873q-61 0 -113 -22.5t-95 -62t-75 -93.5t-52 -116h310q43 0 77.5 4t61 15.5t43.5 33t25 57.5q10 49 -3 83.5t-40.5 57t-64.5 33t-74 10.5zM1114 1160h-608l29 137h608z" />
    <glyph glyph-name="eogonek" unicode="&#x119;" horiz-adv-x="1045" 
d="M371 420q-6 -67 6 -119t44 -88t86 -54.5t132 -18.5q72 0 142 22.5t129 51.5l31 -136q-46 -23 -90 -40.5t-89 -30t-92 -19t-99 -6.5q-236 0 -330.5 137t-38.5 400q26 124 80 219.5t129.5 161t169 99.5t199.5 34q85 0 153 -25.5t113 -69.5t63 -105t3 -131
q-12 -58 -39.5 -109.5t-75.5 -89.5t-118.5 -60.5t-168.5 -22.5h-339zM739 873q-61 0 -113 -22.5t-95 -62t-75 -93.5t-52 -116h310q43 0 77.5 4t61 15.5t43.5 33t25 57.5q10 49 -3 83.5t-40.5 57t-64.5 33t-74 10.5zM864 -335q-41 -14 -83 -22t-94 -8q-50 0 -88 13t-62 38
t-32 60t1 80q7 37 30.5 68.5t54.5 58.5t65.5 49t64.5 41h122q-41 -31 -73.5 -54.5t-56.5 -45t-39.5 -44t-21.5 -50.5q-10 -48 12.5 -75t68.5 -27q29 0 57 3.5t65 12.5z" />
    <glyph glyph-name="gbreve" unicode="&#x11f;" horiz-adv-x="1132" 
d="M864 1143q-86 0 -134.5 23.5t-72.5 59.5t-31 77.5t-10 77.5l132 29q1 -23 4.5 -48.5t17 -47.5t41.5 -36t79 -14t85 14.5t56.5 36t37 47t25.5 48.5l120 -29q-19 -37 -44 -79t-64 -77t-97.5 -58.5t-144.5 -23.5zM199 504q29 136 91.5 236t146 165t181.5 96.5t198 31.5
q52 0 103.5 -7.5t99 -20t89.5 -28.5t75 -34l-191 -900h-2l1 -1l-1 -8q-27 -126 -79.5 -210t-123 -135t-155 -72.5t-174.5 -21.5q-40 0 -85.5 8t-91 22.5t-87 33.5t-72.5 42l84 128q24 -15 53 -29t63 -25t71.5 -18t76.5 -8q57 -1 110 14t97 49.5t77 90.5t50 137l10 45
q-72 -44 -149.5 -73.5t-173.5 -29.5q-94 0 -161.5 33.5t-106 99.5t-45 163.5t20.5 225.5zM387 508q-38 -179 12.5 -272t179.5 -93q31 0 66 7.5t70 20.5t67.5 30t57.5 36l127 600q-19 11 -69.5 23.5t-116.5 12.5q-58 0 -119 -20t-115 -64t-96.5 -113t-63.5 -168z" />
    <glyph glyph-name="gcircumflex" unicode="&#x11d;" horiz-adv-x="1132" 
d="M634 1124l-110 36l266 264l222 -1l154 -263l-126 -38l-162 193zM199 504q29 136 91.5 236t146 165t181.5 96.5t198 31.5q52 0 103.5 -7.5t99 -20t89.5 -28.5t75 -34l-191 -900h-2l1 -1l-1 -8q-27 -126 -79.5 -210t-123 -135t-155 -72.5t-174.5 -21.5q-40 0 -85.5 8
t-91 22.5t-87 33.5t-72.5 42l84 128q24 -15 53 -29t63 -25t71.5 -18t76.5 -8q57 -1 110 14t97 49.5t77 90.5t50 137l10 45q-72 -44 -149.5 -73.5t-173.5 -29.5q-94 0 -161.5 33.5t-106 99.5t-45 163.5t20.5 225.5zM387 508q-38 -179 12.5 -272t179.5 -93q31 0 66 7.5
t70 20.5t67.5 30t57.5 36l127 600q-19 11 -69.5 23.5t-116.5 12.5q-58 0 -119 -20t-115 -64t-96.5 -113t-63.5 -168z" />
    <glyph glyph-name="gcommaaccent" unicode="&#x123;" horiz-adv-x="1132" 
d="M862 1164q-119 0 -97 102q12 62 34.5 115.5t51.5 99t62.5 84.5t68.5 72l83 -43q-46 -64 -81.5 -124t-45.5 -107q44 -7 59.5 -32t6.5 -68q-11 -51 -47 -75t-95 -24zM199 504q29 136 91.5 236t146 165t181.5 96.5t198 31.5q52 0 103.5 -7.5t99 -20t89.5 -28.5t75 -34
l-191 -900h-2l1 -1l-1 -8q-27 -126 -79.5 -210t-123 -135t-155 -72.5t-174.5 -21.5q-40 0 -85.5 8t-91 22.5t-87 33.5t-72.5 42l84 128q24 -15 53 -29t63 -25t71.5 -18t76.5 -8q57 -1 110 14t97 49.5t77 90.5t50 137l10 45q-72 -44 -149.5 -73.5t-173.5 -29.5
q-94 0 -161.5 33.5t-106 99.5t-45 163.5t20.5 225.5zM387 508q-38 -179 12.5 -272t179.5 -93q31 0 66 7.5t70 20.5t67.5 30t57.5 36l127 600q-19 11 -69.5 23.5t-116.5 12.5q-58 0 -119 -20t-115 -64t-96.5 -113t-63.5 -168z" />
    <glyph glyph-name="gdotaccent" unicode="&#x121;" horiz-adv-x="1132" 
d="M909 1344q103 0 84 -89q-8 -38 -36.5 -62.5t-83.5 -24.5q-106 0 -87 89q10 46 41 66.5t82 20.5zM199 504q29 136 91.5 236t146 165t181.5 96.5t198 31.5q52 0 103.5 -7.5t99 -20t89.5 -28.5t75 -34l-191 -900h-2l1 -1l-1 -8q-27 -126 -79.5 -210t-123 -135t-155 -72.5
t-174.5 -21.5q-40 0 -85.5 8t-91 22.5t-87 33.5t-72.5 42l84 128q24 -15 53 -29t63 -25t71.5 -18t76.5 -8q57 -1 110 14t97 49.5t77 90.5t50 137l10 45q-72 -44 -149.5 -73.5t-173.5 -29.5q-94 0 -161.5 33.5t-106 99.5t-45 163.5t20.5 225.5zM387 508q-38 -179 12.5 -272
t179.5 -93q31 0 66 7.5t70 20.5t67.5 30t57.5 36l127 600q-19 11 -69.5 23.5t-116.5 12.5q-58 0 -119 -20t-115 -64t-96.5 -113t-63.5 -168z" />
    <glyph glyph-name="hbar" unicode="&#x127;" 
d="M455 1443h193l-108 -510q31 15 72.5 32.5t88 32.5t96 25t96.5 10q94 0 150.5 -35.5t83.5 -91.5t28.5 -124.5t-12.5 -135.5l-137 -646h-190l137 647q3 12 6 34t2.5 47t-7 50.5t-23 46.5t-46.5 34t-76 13q-32 0 -75.5 -10t-87.5 -24.5t-82 -31.5t-58 -30l-164 -776h-193z
M905 1172h-608l29 137h608z" />
    <glyph glyph-name="hcircumflex" unicode="&#x125;" 
d="M455 1443h193l-108 -510q31 15 72.5 32.5t88 32.5t96 25t96.5 10q94 0 150.5 -35.5t83.5 -91.5t28.5 -124.5t-12.5 -135.5l-137 -646h-190l137 647q3 12 6 34t2.5 47t-7 50.5t-23 46.5t-46.5 34t-76 13q-32 0 -75.5 -10t-87.5 -24.5t-82 -31.5t-58 -30l-164 -776h-193z
M360 1477l-110 36l266 264l222 -1l154 -263l-126 -38l-162 193z" />
    <glyph glyph-name="iacute" unicode="&#xed;" horiz-adv-x="492" 
d="M150 0l214 1011h192l-214 -1011h-192zM444 1201l297 293l123 -98l-343 -262z" />
    <glyph glyph-name="ibreve" unicode="&#x12d;" horiz-adv-x="492" 
d="M150 0l214 1011h192l-214 -1011h-192zM493 1149q-86 0 -134.5 23.5t-72.5 59.5t-31 77.5t-10 77.5l132 29q1 -23 4.5 -48.5t17 -47.5t41.5 -36t79 -14t85 14.5t56.5 36t37 47t25.5 48.5l120 -29q-19 -37 -44 -79t-64 -77t-97.5 -58.5t-144.5 -23.5z" />
    <glyph glyph-name="icircumflex" unicode="&#xee;" horiz-adv-x="492" 
d="M150 0l214 1011h192l-214 -1011h-192zM266 1114l-110 36l266 264l222 -1l154 -263l-126 -38l-162 193z" />
    <glyph glyph-name="idieresis" unicode="&#xef;" horiz-adv-x="492" 
d="M150 0l214 1011h192l-214 -1011h-192zM372 1345q103 0 84 -89q-8 -38 -36.5 -62.5t-83.5 -24.5q-106 0 -87 89q10 46 41 66.5t82 20.5zM702 1345q103 0 84 -89q-8 -38 -36.5 -62.5t-82.5 -24.5q-106 0 -87 89q10 46 41 66.5t81 20.5z" />
    <glyph glyph-name="igrave" unicode="&#xec;" horiz-adv-x="492" 
d="M150 0l214 1011h192l-214 -1011h-192zM455 1114l-232 262l165 98l173 -293z" />
    <glyph glyph-name="imacron" unicode="&#x12b;" horiz-adv-x="492" 
d="M150 0l214 1011h192l-214 -1011h-192zM800 1158h-608l29 137h608z" />
    <glyph glyph-name="iogonek" unicode="&#x12f;" horiz-adv-x="492" 
d="M150 0l214 1011h192l-214 -1011h-192zM537 1377q59 0 84.5 -25t14.5 -77q-10 -45 -43.5 -73t-96.5 -28q-123 0 -101 103q11 52 47 76t95 24zM323 -378q-41 -14 -83 -22t-94 -8q-50 0 -88 13t-62 38t-32 60t1 80q7 37 30.5 68.5t54.5 58.5t65.5 49t64.5 41h122
q-41 -31 -73.5 -54.5t-56.5 -45t-39.5 -44t-21.5 -50.5q-10 -48 12.5 -75t68.5 -27q29 0 57 3.5t65 12.5z" />
    <glyph glyph-name="itilde" unicode="&#x129;" horiz-adv-x="492" 
d="M150 0l214 1011h192l-214 -1011h-192zM143 1234q57 72 121.5 109.5t140.5 37.5q38 0 69.5 -11.5t60 -25.5t56 -25.5t56.5 -11.5q22 0 38 2.5t30.5 9.5t30 19.5t36.5 32.5l92 -65q-55 -75 -123 -111t-131 -36q-38 0 -70.5 11.5t-62 25.5t-57.5 25.5t-57 11.5
q-25 0 -42 -3.5t-31.5 -11t-29 -20t-34.5 -30.5z" />
    <glyph glyph-name="jcircumflex" unicode="&#x135;" horiz-adv-x="492" 
d="M-188 -148q95 -36 172 -33q60 2 103.5 49t63.5 138l213 1005h193l-216 -1018q-11 -49 -35.5 -107t-68.5 -108t-110.5 -83.5t-160.5 -33.5q-39 0 -74.5 6t-64 14.5t-50.5 17.5t-34 15zM275 1120l-110 36l266 264l222 -1l154 -263l-126 -38l-162 193z" />
    <glyph glyph-name="kcommaaccent" unicode="&#x137;" horiz-adv-x="1081" 
d="M1180 1011q-81 -134 -179.5 -242t-210.5 -191q15 -69 41.5 -143t60 -145.5t72.5 -136t80 -114.5l-155 -94q-41 34 -83.5 96.5t-79 137t-65 151.5t-41.5 140q-96 -52 -196 -84l-82 -386h-193l306 1443h193l-185 -871q87 32 160 77.5t136 101.5t117 121.5t102 138.5h202v0z
M499 -56q118 0 98 -101l-2 -5q-12 -61 -34.5 -113.5t-51.5 -98t-62.5 -84t-67.5 -70.5l-84 42q46 64 81.5 124.5t45.5 106.5q-44 7 -59 31.5t-6 68.5q11 51 47 75t95 24z" />
    <glyph glyph-name="lacute" unicode="&#x13a;" horiz-adv-x="492" 
d="M149 0l306 1443h193l-306 -1443h-193zM531 1588l297 293l123 -98l-343 -262z" />
    <glyph glyph-name="lcaron" unicode="&#x13e;" horiz-adv-x="646" 
d="M149 0l306 1443h193l-306 -1443h-193zM877 1455q118 0 98 -101l-2 -5q-12 -61 -34.5 -113.5t-51.5 -98t-62.5 -84t-67.5 -70.5l-84 42q46 64 81.5 124.5t45.5 106.5q-44 7 -59 31.5t-6 68.5q11 51 47 75t95 24z" />
    <glyph glyph-name="ldot" unicode="&#x140;" horiz-adv-x="607" 
d="M716 823q103 0 84 -89q-8 -38 -36.5 -62.5t-83.5 -24.5q-106 0 -87 89q10 46 41 66.5t82 20.5zM149 0l306 1443h193l-306 -1443h-193z" />
    <glyph glyph-name="lslash" unicode="&#x142;" horiz-adv-x="492" 
d="M672 746l-535 -243l-32 124l533 243zM149 0l306 1443h193l-306 -1443h-193z" />
    <glyph glyph-name="nacute" unicode="&#x144;" 
d="M332 864q39 23 97.5 52t131.5 55t156 44t170 18q97 0 156.5 -31t89 -82.5t32.5 -119.5t-13 -142l-139 -658h-192l137 647q8 38 9 77.5t-13 72t-46 53t-89 20.5q-40 0 -84 -10.5t-86.5 -25.5t-80 -32.5t-63.5 -31.5l-163 -770h-193zM776 1189l297 293l123 -98l-343 -262z
" />
    <glyph glyph-name="ncaron" unicode="&#x148;" 
d="M333 864q39 23 97.5 52t131.5 55t156 44t170 18q97 0 156.5 -31t89 -82.5t32.5 -119.5t-13 -142l-139 -658h-192l137 647q8 38 9 77.5t-13 72t-46 53t-89 20.5q-40 0 -84 -10.5t-86.5 -25.5t-80 -32.5t-63.5 -31.5l-163 -770h-193zM861 1258l217 180l136 -37l-265 -252
h-222l-156 253l150 35z" />
    <glyph glyph-name="ncommaaccent" unicode="&#x146;" 
d="M332 864q39 23 97.5 52t131.5 55t156 44t170 18q97 0 156.5 -31t89 -82.5t32.5 -119.5t-13 -142l-139 -658h-192l137 647q8 38 9 77.5t-13 72t-46 53t-89 20.5q-40 0 -84 -10.5t-86.5 -25.5t-80 -32.5t-63.5 -31.5l-163 -770h-193zM529 -37q118 0 98 -101l-2 -5
q-12 -61 -34.5 -113.5t-51.5 -98t-62.5 -84t-67.5 -70.5l-84 42q46 64 81.5 124.5t45.5 106.5q-44 7 -59 31.5t-6 68.5q11 51 47 75t95 24z" />
    <glyph glyph-name="ntilde" unicode="&#xf1;" 
d="M336 864q39 23 97.5 52t131.5 55t156 44t170 18q97 0 156.5 -31t89 -82.5t32.5 -119.5t-13 -142l-139 -658h-192l137 647q8 38 9 77.5t-13 72t-46 53t-89 20.5q-40 0 -84 -10.5t-86.5 -25.5t-80 -32.5t-63.5 -31.5l-163 -770h-193zM513 1235q57 72 121.5 109.5
t140.5 37.5q38 0 69.5 -11.5t60 -25.5t56 -25.5t56.5 -11.5q22 0 38 2.5t30.5 9.5t30 19.5t36.5 32.5l92 -65q-55 -75 -123 -111t-131 -36q-38 0 -70.5 11.5t-62 25.5t-57.5 25.5t-57 11.5q-25 0 -42 -3.5t-31.5 -11t-29 -20t-34.5 -30.5z" />
    <glyph glyph-name="oacute" unicode="&#xf3;" horiz-adv-x="1145" 
d="M201 516q25 119 78 214.5t128.5 163t173 103.5t211.5 36q91 0 171.5 -27t135 -88.5t74 -160.5t-10.5 -242q-27 -129 -81 -228.5t-130.5 -167t-173 -102.5t-208.5 -35t-194 34t-130 101.5t-60 167t16 231.5zM389 515q-21 -101 -14.5 -172t35.5 -115.5t79 -64.5t115 -20
q66 0 124 21t106 66t83.5 115.5t56.5 169.5q19 92 12 159.5t-36.5 111.5t-78.5 65.5t-112 21.5q-66 0 -124.5 -22t-107 -66.5t-84 -111.5t-54.5 -158zM788 1185l297 293l123 -98l-343 -262z" />
    <glyph glyph-name="obreve" unicode="&#x14f;" horiz-adv-x="1145" 
d="M201 516q25 119 78 214.5t128.5 163t173 103.5t211.5 36q91 0 171.5 -27t135 -88.5t74 -160.5t-10.5 -242q-27 -129 -81 -228.5t-130.5 -167t-173 -102.5t-208.5 -35t-194 34t-130 101.5t-60 167t16 231.5zM389 515q-21 -101 -14.5 -172t35.5 -115.5t79 -64.5t115 -20
q66 0 124 21t106 66t83.5 115.5t56.5 169.5q19 92 12 159.5t-36.5 111.5t-78.5 65.5t-112 21.5q-66 0 -124.5 -22t-107 -66.5t-84 -111.5t-54.5 -158zM822 1158q-86 0 -134.5 23.5t-72.5 59.5t-31 77.5t-10 77.5l132 29q1 -23 4.5 -48.5t17 -47.5t41.5 -36t79 -14t85 14.5
t56.5 36t37 47t25.5 48.5l120 -29q-19 -37 -44 -79t-64 -77t-97.5 -58.5t-144.5 -23.5z" />
    <glyph glyph-name="ocircumflex" unicode="&#xf4;" horiz-adv-x="1145" 
d="M201 516q25 119 78 214.5t128.5 163t173 103.5t211.5 36q91 0 171.5 -27t135 -88.5t74 -160.5t-10.5 -242q-27 -129 -81 -228.5t-130.5 -167t-173 -102.5t-208.5 -35t-194 34t-130 101.5t-60 167t16 231.5zM389 515q-21 -101 -14.5 -172t35.5 -115.5t79 -64.5t115 -20
q66 0 124 21t106 66t83.5 115.5t56.5 169.5q19 92 12 159.5t-36.5 111.5t-78.5 65.5t-112 21.5q-66 0 -124.5 -22t-107 -66.5t-84 -111.5t-54.5 -158zM614 1120l-110 36l266 264l222 -1l154 -263l-126 -38l-162 193z" />
    <glyph glyph-name="odieresis" unicode="&#xf6;" horiz-adv-x="1145" 
d="M201 516q25 119 78 214.5t128.5 163t173 103.5t211.5 36q91 0 171.5 -27t135 -88.5t74 -160.5t-10.5 -242q-27 -129 -81 -228.5t-130.5 -167t-173 -102.5t-208.5 -35t-194 34t-130 101.5t-60 167t16 231.5zM389 515q-21 -101 -14.5 -172t35.5 -115.5t79 -64.5t115 -20
q66 0 124 21t106 66t83.5 115.5t56.5 169.5q19 92 12 159.5t-36.5 111.5t-78.5 65.5t-112 21.5q-66 0 -124.5 -22t-107 -66.5t-84 -111.5t-54.5 -158zM688 1354q103 0 84 -89q-8 -38 -36.5 -62.5t-83.5 -24.5q-106 0 -87 89q10 46 41 66.5t82 20.5zM1018 1354q103 0 84 -89
q-8 -38 -36.5 -62.5t-82.5 -24.5q-106 0 -87 89q10 46 41 66.5t81 20.5z" />
    <glyph glyph-name="ograve" unicode="&#xf2;" horiz-adv-x="1145" 
d="M201 516q25 119 78 214.5t128.5 163t173 103.5t211.5 36q91 0 171.5 -27t135 -88.5t74 -160.5t-10.5 -242q-27 -129 -81 -228.5t-130.5 -167t-173 -102.5t-208.5 -35t-194 34t-130 101.5t-60 167t16 231.5zM389 515q-21 -101 -14.5 -172t35.5 -115.5t79 -64.5t115 -20
q66 0 124 21t106 66t83.5 115.5t56.5 169.5q19 92 12 159.5t-36.5 111.5t-78.5 65.5t-112 21.5q-66 0 -124.5 -22t-107 -66.5t-84 -111.5t-54.5 -158zM766 1137l-232 262l165 98l173 -293z" />
    <glyph glyph-name="ohungarumlaut" unicode="&#x151;" horiz-adv-x="1145" 
d="M201 516q25 119 78 214.5t128.5 163t173 103.5t211.5 36q91 0 171.5 -27t135 -88.5t74 -160.5t-10.5 -242q-27 -129 -81 -228.5t-130.5 -167t-173 -102.5t-208.5 -35t-194 34t-130 101.5t-60 167t16 231.5zM389 515q-21 -101 -14.5 -172t35.5 -115.5t79 -64.5t115 -20
q66 0 124 21t106 66t83.5 115.5t56.5 169.5q19 92 12 159.5t-36.5 111.5t-78.5 65.5t-112 21.5q-66 0 -124.5 -22t-107 -66.5t-84 -111.5t-54.5 -158zM607 1189l298 293l118 -89l-346 -262zM961 1189l297 293l119 -89l-347 -262z" />
    <glyph glyph-name="omacron" unicode="&#x14d;" horiz-adv-x="1145" 
d="M201 516q25 119 78 214.5t128.5 163t173 103.5t211.5 36q91 0 171.5 -27t135 -88.5t74 -160.5t-10.5 -242q-27 -129 -81 -228.5t-130.5 -167t-173 -102.5t-208.5 -35t-194 34t-130 101.5t-60 167t16 231.5zM389 515q-21 -101 -14.5 -172t35.5 -115.5t79 -64.5t115 -20
q66 0 124 21t106 66t83.5 115.5t56.5 169.5q19 92 12 159.5t-36.5 111.5t-78.5 65.5t-112 21.5q-66 0 -124.5 -22t-107 -66.5t-84 -111.5t-54.5 -158zM1123 1168h-608l29 137h608z" />
    <glyph glyph-name="otilde" unicode="&#xf5;" horiz-adv-x="1145" 
d="M201 516q25 119 78 214.5t128.5 163t173 103.5t211.5 36q91 0 171.5 -27t135 -88.5t74 -160.5t-10.5 -242q-27 -129 -81 -228.5t-130.5 -167t-173 -102.5t-208.5 -35t-194 34t-130 101.5t-60 167t16 231.5zM389 515q-21 -101 -14.5 -172t35.5 -115.5t79 -64.5t115 -20
q66 0 124 21t106 66t83.5 115.5t56.5 169.5q19 92 12 159.5t-36.5 111.5t-78.5 65.5t-112 21.5q-66 0 -124.5 -22t-107 -66.5t-84 -111.5t-54.5 -158zM465 1220q57 72 121.5 109.5t140.5 37.5q38 0 69.5 -11.5t60 -25.5t56 -25.5t56.5 -11.5q22 0 38 2.5t30.5 9.5t30 19.5
t36.5 32.5l92 -65q-55 -75 -123 -111t-131 -36q-38 0 -70.5 11.5t-62 25.5t-57.5 25.5t-57 11.5q-25 0 -42 -3.5t-31.5 -11t-29 -20t-34.5 -30.5z" />
    <glyph glyph-name="racute" unicode="&#x155;" horiz-adv-x="806" 
d="M347 885q182 110 342.5 136t303.5 -20l-62 -151q-46 9 -95 12.5t-101 -2.5t-106.5 -24.5t-111.5 -52.5l-166 -783h-192zM658 1197l297 293l123 -98l-343 -262z" />
    <glyph glyph-name="rcaron" unicode="&#x159;" horiz-adv-x="806" 
d="M347 885q182 110 342.5 136t303.5 -20l-62 -151q-46 9 -95 12.5t-101 -2.5t-106.5 -24.5t-111.5 -52.5l-166 -783h-192zM759 1260l217 180l136 -37l-265 -252h-222l-156 253l150 35z" />
    <glyph glyph-name="rcommaaccent" unicode="&#x157;" horiz-adv-x="806" 
d="M347 885q182 110 342.5 136t303.5 -20l-62 -151q-46 9 -95 12.5t-101 -2.5t-106.5 -24.5t-111.5 -52.5l-166 -783h-192zM223 -71q118 0 98 -101l-2 -5q-12 -61 -34.5 -113.5t-51.5 -98t-62.5 -84t-67.5 -70.5l-84 42q46 64 81.5 124.5t45.5 106.5q-44 7 -59 31.5t-6 68.5
q11 51 47 75t95 24z" />
    <glyph glyph-name="sacute" unicode="&#x15b;" horiz-adv-x="883" 
d="M168 219q82 -45 153 -62t141 -17q40 0 75.5 12.5t64 33t47.5 46.5t25 53q6 24 1.5 45t-24 41.5t-57 41.5t-99.5 46q-59 22 -110 45t-86.5 55t-50 78t0.5 116q14 69 51.5 121t93 87.5t125.5 53.5t149 18q97 0 171.5 -19t139.5 -57l-85 -137q-65 28 -117.5 40.5
t-106.5 12.5q-99 0 -159.5 -31t-75.5 -100q-7 -34 8.5 -55t44 -35.5t66 -26t74.5 -24.5q77 -28 128 -60t78.5 -71t33 -86t-6.5 -104q-13 -62 -51 -116t-94.5 -94.5t-127.5 -64t-151 -23.5q-66 0 -120.5 9t-99 22.5t-79 30t-59.5 31.5zM708 1193l297 293l123 -98l-343 -262z
" />
    <glyph glyph-name="scaron" unicode="&#x161;" horiz-adv-x="883" 
d="M168 219q82 -45 153 -62t141 -17q40 0 75.5 12.5t64 33t47.5 46.5t25 53q6 24 1.5 45t-24 41.5t-57 41.5t-99.5 46q-59 22 -110 45t-86.5 55t-50 78t0.5 116q14 69 51.5 121t93 87.5t125.5 53.5t149 18q97 0 171.5 -19t139.5 -57l-85 -137q-65 28 -117.5 40.5
t-106.5 12.5q-99 0 -159.5 -31t-75.5 -100q-7 -34 8.5 -55t44 -35.5t66 -26t74.5 -24.5q77 -28 128 -60t78.5 -71t33 -86t-6.5 -104q-13 -62 -51 -116t-94.5 -94.5t-127.5 -64t-151 -23.5q-66 0 -120.5 9t-99 22.5t-79 30t-59.5 31.5zM720 1255l217 180l136 -37l-265 -252
h-222l-156 253l150 35z" />
    <glyph glyph-name="scedilla" unicode="&#x15f;" horiz-adv-x="883" 
d="M168 219q82 -45 153 -62t141 -17q40 0 75.5 12.5t64 33t47.5 46.5t25 53q6 24 1.5 45t-24 41.5t-57 41.5t-99.5 46q-59 22 -110 45t-86.5 55t-50 78t0.5 116q14 69 51.5 121t93 87.5t125.5 53.5t149 18q97 0 171.5 -19t139.5 -57l-85 -137q-65 28 -117.5 40.5
t-106.5 12.5q-99 0 -159.5 -31t-75.5 -100q-7 -34 8.5 -55t44 -35.5t66 -26t74.5 -24.5q77 -28 128 -60t78.5 -71t33 -86t-6.5 -104q-13 -62 -51 -116t-94.5 -94.5t-127.5 -64t-151 -23.5q-66 0 -120.5 9t-99 22.5t-79 30t-59.5 31.5zM226 -305q32 -9 58.5 -12t55.5 -3
q46 0 75 18t37 54q9 45 -17 60.5t-84 15.5q-17 0 -38 -1t-42 -3l98 166h148l-53 -85q35 -3 62.5 -13.5t44 -30t22 -48.5t-3.5 -69q-19 -90 -84 -133t-165 -43q-52 0 -91 7.5t-73 21.5z" />
    <glyph glyph-name="scircumflex" unicode="&#x15d;" horiz-adv-x="883" 
d="M168 219q82 -45 153 -62t141 -17q40 0 75.5 12.5t64 33t47.5 46.5t25 53q6 24 1.5 45t-24 41.5t-57 41.5t-99.5 46q-59 22 -110 45t-86.5 55t-50 78t0.5 116q14 69 51.5 121t93 87.5t125.5 53.5t149 18q97 0 171.5 -19t139.5 -57l-85 -137q-65 28 -117.5 40.5
t-106.5 12.5q-99 0 -159.5 -31t-75.5 -100q-7 -34 8.5 -55t44 -35.5t66 -26t74.5 -24.5q77 -28 128 -60t78.5 -71t33 -86t-6.5 -104q-13 -62 -51 -116t-94.5 -94.5t-127.5 -64t-151 -23.5q-66 0 -120.5 9t-99 22.5t-79 30t-59.5 31.5zM497 1110l-110 36l266 264l222 -1
l154 -263l-126 -38l-162 193z" />
    <glyph glyph-name="scommaaccent" unicode="&#x219;" horiz-adv-x="883" 
d="M168 219q82 -45 153 -62t141 -17q40 0 75.5 12.5t64 33t47.5 46.5t25 53q6 24 1.5 45t-24 41.5t-57 41.5t-99.5 46q-59 22 -110 45t-86.5 55t-50 78t0.5 116q14 69 51.5 121t93 87.5t125.5 53.5t149 18q97 0 171.5 -19t139.5 -57l-85 -137q-65 28 -117.5 40.5
t-106.5 12.5q-99 0 -159.5 -31t-75.5 -100q-7 -34 8.5 -55t44 -35.5t66 -26t74.5 -24.5q77 -28 128 -60t78.5 -71t33 -86t-6.5 -104q-13 -62 -51 -116t-94.5 -94.5t-127.5 -64t-151 -23.5q-66 0 -120.5 9t-99 22.5t-79 30t-59.5 31.5zM393 -96q118 0 98 -101l-2 -5
q-12 -61 -34.5 -113.5t-51.5 -98t-62.5 -84t-67.5 -70.5l-84 42q46 64 81.5 124.5t45.5 106.5q-44 7 -59 31.5t-6 68.5q11 51 47 75t95 24z" />
    <glyph glyph-name="tbar" unicode="&#x167;" horiz-adv-x="788" 
d="M648 485h-464l27 129h464zM303 991l123 20l77 246h169l-53 -246h236l-31 -150h-236l-118 -552q-8 -37 -8.5 -67.5t8 -52.5t28 -34t51.5 -12q53 0 89.5 12.5t71.5 25.5l23 -133q-30 -15 -59.5 -27t-61 -20.5t-66.5 -13.5t-76 -5q-59 0 -103.5 19t-70.5 57.5t-32.5 97
t10.5 137.5l121 568h-119z" />
    <glyph glyph-name="tcaron" unicode="&#x165;" horiz-adv-x="917" 
d="M303 991l123 20l77 246h169l-53 -246h236l-31 -150h-236l-118 -552q-8 -37 -8.5 -67.5t8 -52.5t28 -34t51.5 -12q53 0 89.5 12.5t71.5 25.5l23 -133q-30 -15 -59.5 -27t-61 -20.5t-66.5 -13.5t-76 -5q-59 0 -103.5 19t-70.5 57.5t-32.5 97t10.5 137.5l121 568h-119z
M1085 1425q118 0 98 -101l-2 -5q-12 -61 -34.5 -113.5t-51.5 -98t-62.5 -84t-67.5 -70.5l-84 42q46 64 81.5 124.5t45.5 106.5q-44 7 -59 31.5t-6 68.5q11 51 47 75t95 24z" />
    <glyph glyph-name="tcommaaccent" unicode="&#x163;" horiz-adv-x="788" 
d="M303 991l123 20l77 246h169l-53 -246h236l-31 -150h-236l-118 -552q-8 -37 -8.5 -67.5t8 -52.5t28 -34t51.5 -12q53 0 89.5 12.5t71.5 25.5l23 -133q-30 -15 -59.5 -27t-61 -20.5t-66.5 -13.5t-76 -5q-59 0 -103.5 19t-70.5 57.5t-32.5 97t10.5 137.5l121 568h-119z
M464 -85q118 0 98 -101l-2 -5q-12 -61 -34.5 -113.5t-51.5 -98t-62.5 -84t-67.5 -70.5l-84 42q46 64 81.5 124.5t45.5 106.5q-44 7 -59 31.5t-6 68.5q11 51 47 75t95 24z" />
    <glyph glyph-name="uacute" unicode="&#xfa;" 
d="M349 1011h192l-128 -602q-16 -77 -9 -128t31.5 -82t64 -43.5t88.5 -12.5q149 0 266 84l166 784h192l-214 -1011h-165l-4 97q-27 -20 -62 -40.5t-75.5 -37t-86 -27t-93.5 -10.5q-99 0 -164.5 29.5t-101 83t-42 128t12.5 164.5zM751 1179l297 293l123 -98l-343 -262z" />
    <glyph glyph-name="ubreve" unicode="&#x16d;" 
d="M349 1011h192l-128 -602q-16 -77 -9 -128t31.5 -82t64 -43.5t88.5 -12.5q149 0 266 84l166 784h192l-214 -1011h-165l-4 97q-27 -20 -62 -40.5t-75.5 -37t-86 -27t-93.5 -10.5q-99 0 -164.5 29.5t-101 83t-42 128t12.5 164.5zM836 1163q-86 0 -134.5 23.5t-72.5 59.5
t-31 77.5t-10 77.5l132 29q1 -23 4.5 -48.5t17 -47.5t41.5 -36t79 -14t85 14.5t56.5 36t37 47t25.5 48.5l120 -29q-19 -37 -44 -79t-64 -77t-97.5 -58.5t-144.5 -23.5z" />
    <glyph glyph-name="ucircumflex" unicode="&#xfb;" 
d="M349 1011h192l-128 -602q-16 -77 -9 -128t31.5 -82t64 -43.5t88.5 -12.5q149 0 266 84l166 784h192l-214 -1011h-165l-4 97q-27 -20 -62 -40.5t-75.5 -37t-86 -27t-93.5 -10.5q-99 0 -164.5 29.5t-101 83t-42 128t12.5 164.5zM621 1127l-110 36l266 264l222 -1l154 -263
l-126 -38l-162 193z" />
    <glyph glyph-name="udieresis" unicode="&#xfc;" 
d="M349 1011h192l-128 -602q-16 -77 -9 -128t31.5 -82t64 -43.5t88.5 -12.5q149 0 266 84l166 784h192l-214 -1011h-165l-4 97q-27 -20 -62 -40.5t-75.5 -37t-86 -27t-93.5 -10.5q-99 0 -164.5 29.5t-101 83t-42 128t12.5 164.5zM717 1341q103 0 84 -89q-8 -38 -36.5 -62.5
t-83.5 -24.5q-106 0 -87 89q10 46 41 66.5t82 20.5zM1047 1341q103 0 84 -89q-8 -38 -36.5 -62.5t-82.5 -24.5q-106 0 -87 89q10 46 41 66.5t81 20.5z" />
    <glyph glyph-name="uhungarumlaut" unicode="&#x171;" 
d="M353 1011h192l-128 -602q-16 -77 -9 -128t31.5 -82t64 -43.5t88.5 -12.5q149 0 266 84l166 784h192l-214 -1011h-165l-4 97q-27 -20 -62 -40.5t-75.5 -37t-86 -27t-93.5 -10.5q-99 0 -164.5 29.5t-101 83t-42 128t12.5 164.5zM596 1175l298 293l118 -89l-346 -262z
M950 1175l297 293l119 -89l-347 -262z" />
    <glyph glyph-name="ugrave" unicode="&#xf9;" 
d="M349 1011h192l-128 -602q-16 -77 -9 -128t31.5 -82t64 -43.5t88.5 -12.5q149 0 266 84l166 784h192l-214 -1011h-165l-4 97q-27 -20 -62 -40.5t-75.5 -37t-86 -27t-93.5 -10.5q-99 0 -164.5 29.5t-101 83t-42 128t12.5 164.5zM816 1126l-232 262l165 98l173 -293z" />
    <glyph glyph-name="umacron" unicode="&#x16b;" 
d="M359 1011h192l-128 -602q-16 -77 -9 -128t31.5 -82t64 -43.5t88.5 -12.5q149 0 266 84l166 784h192l-214 -1011h-165l-4 97q-27 -20 -62 -40.5t-75.5 -37t-86 -27t-93.5 -10.5q-99 0 -164.5 29.5t-101 83t-42 128t12.5 164.5zM1161 1158h-608l29 137h608z" />
    <glyph glyph-name="uogonek" unicode="&#x173;" 
d="M349 1011h192l-128 -602q-16 -77 -9 -128t31.5 -82t64 -43.5t88.5 -12.5q149 0 266 84l166 784h192l-214 -1011h-165l-4 97q-27 -20 -62 -40.5t-75.5 -37t-86 -27t-93.5 -10.5q-99 0 -164.5 29.5t-101 83t-42 128t12.5 164.5zM1013 -377q-41 -14 -83 -22t-94 -8
q-50 0 -88 13t-62 38t-32 60t1 80q7 37 30.5 68.5t54.5 58.5t65.5 49t64.5 41h122q-41 -31 -73.5 -54.5t-56.5 -45t-39.5 -44t-21.5 -50.5q-10 -48 12.5 -75t68.5 -27q29 0 57 3.5t65 12.5z" />
    <glyph glyph-name="uring" unicode="&#x16f;" 
d="M349 1011h192l-128 -602q-16 -77 -9 -128t31.5 -82t64 -43.5t88.5 -12.5q149 0 266 84l166 784h192l-214 -1011h-165l-4 97q-27 -20 -62 -40.5t-75.5 -37t-86 -27t-93.5 -10.5q-99 0 -164.5 29.5t-101 83t-42 128t12.5 164.5zM893 1330q-29 0 -48 -12.5t-25 -42.5
q-13 -57 51 -57q34 0 50 16t21 39q7 31 -6.5 44t-42.5 13zM914 1417q76 0 110 -34.5t18 -109.5q-6 -30 -20 -56t-37 -44.5t-55 -29.5t-75 -11q-81 0 -116 34.5t-19 109.5q16 76 66.5 108.5t127.5 32.5z" />
    <glyph glyph-name="utilde" unicode="&#x169;" 
d="M350 1011h192l-128 -602q-16 -77 -9 -128t31.5 -82t64 -43.5t88.5 -12.5q149 0 266 84l166 784h192l-214 -1011h-165l-4 97q-27 -20 -62 -40.5t-75.5 -37t-86 -27t-93.5 -10.5q-99 0 -164.5 29.5t-101 83t-42 128t12.5 164.5zM484 1223q57 72 121.5 109.5t140.5 37.5
q38 0 69.5 -11.5t60 -25.5t56 -25.5t56.5 -11.5q22 0 38 2.5t30.5 9.5t30 19.5t36.5 32.5l92 -65q-55 -75 -123 -111t-131 -36q-38 0 -70.5 11.5t-62 25.5t-57.5 25.5t-57 11.5q-25 0 -42 -3.5t-31.5 -11t-29 -20t-34.5 -30.5z" />
    <glyph glyph-name="wacute" unicode="&#x1e83;" horiz-adv-x="1657" 
d="M1797 1011q-85 -258 -209 -510.5t-270 -500.5h-255q-38 190 -58 376.5t-14 381.5h-6q-43 -108 -89.5 -207.5t-96.5 -193.5t-102 -182.5t-105 -174.5h-254q-21 115 -36 246.5t-22.5 265.5t-6 262.5t13.5 236.5l207 10q-12 -94 -18 -201t-5.5 -217.5t8 -219t21.5 -204.5h7
q72 114 135 229.5t114.5 223.5t92 205t67.5 174h252q-9 -83 -8 -188.5t9 -217.5t22.5 -222.5t32.5 -203.5h8q32 55 67.5 126t72 148.5t71 158t64.5 156t53 140.5t36 113zM1035 1211l297 293l123 -98l-343 -262z" />
    <glyph glyph-name="wcircumflex" unicode="&#x175;" horiz-adv-x="1657" 
d="M1797 1011q-85 -258 -209 -510.5t-270 -500.5h-255q-38 190 -58 376.5t-14 381.5h-6q-43 -108 -89.5 -207.5t-96.5 -193.5t-102 -182.5t-105 -174.5h-254q-21 115 -36 246.5t-22.5 265.5t-6 262.5t13.5 236.5l207 10q-12 -94 -18 -201t-5.5 -217.5t8 -219t21.5 -204.5h7
q72 114 135 229.5t114.5 223.5t92 205t67.5 174h252q-9 -83 -8 -188.5t9 -217.5t22.5 -222.5t32.5 -203.5h8q32 55 67.5 126t72 148.5t71 158t64.5 156t53 140.5t36 113zM883 1135l-110 36l266 264l222 -1l154 -263l-126 -38l-162 193z" />
    <glyph glyph-name="wdieresis" unicode="&#x1e85;" horiz-adv-x="1657" 
d="M1797 1011q-85 -258 -209 -510.5t-270 -500.5h-255q-38 190 -58 376.5t-14 381.5h-6q-43 -108 -89.5 -207.5t-96.5 -193.5t-102 -182.5t-105 -174.5h-254q-21 115 -36 246.5t-22.5 265.5t-6 262.5t13.5 236.5l207 10q-12 -94 -18 -201t-5.5 -217.5t8 -219t21.5 -204.5h7
q72 114 135 229.5t114.5 223.5t92 205t67.5 174h252q-9 -83 -8 -188.5t9 -217.5t22.5 -222.5t32.5 -203.5h8q32 55 67.5 126t72 148.5t71 158t64.5 156t53 140.5t36 113zM944 1355q103 0 84 -89q-8 -38 -36.5 -62.5t-83.5 -24.5q-106 0 -87 89q10 46 41 66.5t82 20.5z
M1274 1355q103 0 84 -89q-8 -38 -36.5 -62.5t-82.5 -24.5q-106 0 -87 89q10 46 41 66.5t81 20.5z" />
    <glyph glyph-name="wgrave" unicode="&#x1e81;" horiz-adv-x="1657" 
d="M1797 1011q-85 -258 -209 -510.5t-270 -500.5h-255q-38 190 -58 376.5t-14 381.5h-6q-43 -108 -89.5 -207.5t-96.5 -193.5t-102 -182.5t-105 -174.5h-254q-21 115 -36 246.5t-22.5 265.5t-6 262.5t13.5 236.5l207 10q-12 -94 -18 -201t-5.5 -217.5t8 -219t21.5 -204.5h7
q72 114 135 229.5t114.5 223.5t92 205t67.5 174h252q-9 -83 -8 -188.5t9 -217.5t22.5 -222.5t32.5 -203.5h8q32 55 67.5 126t72 148.5t71 158t64.5 156t53 140.5t36 113zM1042 1126l-232 262l165 98l173 -293z" />
    <glyph glyph-name="yacute" unicode="&#xfd;" horiz-adv-x="1054" 
d="M102 -381q36 36 78.5 81t87 95t88.5 102.5t82 102.5h-30q-47 132 -78 259t-47.5 252t-20.5 249.5t4 250.5l209 10q-10 -112 -9.5 -227t11 -225.5t30.5 -213t49 -188.5h11q81 105 151 221.5t126.5 230t99 217.5t68.5 185l203 -10q-27 -82 -65.5 -172t-85 -182.5
t-98.5 -184t-106.5 -176.5t-109 -160.5t-105.5 -135.5q-32 -44 -80.5 -105.5t-102 -127.5t-107 -129.5t-95.5 -111.5zM789 1205l297 293l123 -98l-343 -262z" />
    <glyph glyph-name="ycircumflex" unicode="&#x177;" horiz-adv-x="1054" 
d="M102 -381q36 36 78.5 81t87 95t88.5 102.5t82 102.5h-30q-47 132 -78 259t-47.5 252t-20.5 249.5t4 250.5l209 10q-10 -112 -9.5 -227t11 -225.5t30.5 -213t49 -188.5h11q81 105 151 221.5t126.5 230t99 217.5t68.5 185l203 -10q-27 -82 -65.5 -172t-85 -182.5
t-98.5 -184t-106.5 -176.5t-109 -160.5t-105.5 -135.5q-32 -44 -80.5 -105.5t-102 -127.5t-107 -129.5t-95.5 -111.5zM584 1132l-110 36l266 264l222 -1l154 -263l-126 -38l-162 193z" />
    <glyph glyph-name="ydieresis" unicode="&#xff;" horiz-adv-x="1054" 
d="M102 -381q36 36 78.5 81t87 95t88.5 102.5t82 102.5h-30q-47 132 -78 259t-47.5 252t-20.5 249.5t4 250.5l209 10q-10 -112 -9.5 -227t11 -225.5t30.5 -213t49 -188.5h11q81 105 151 221.5t126.5 230t99 217.5t68.5 185l203 -10q-27 -82 -65.5 -172t-85 -182.5
t-98.5 -184t-106.5 -176.5t-109 -160.5t-105.5 -135.5q-32 -44 -80.5 -105.5t-102 -127.5t-107 -129.5t-95.5 -111.5zM645 1316q103 0 84 -89q-8 -38 -36.5 -62.5t-83.5 -24.5q-106 0 -87 89q10 46 41 66.5t82 20.5zM975 1316q103 0 84 -89q-8 -38 -36.5 -62.5t-82.5 -24.5
q-106 0 -87 89q10 46 41 66.5t81 20.5z" />
    <glyph glyph-name="ygrave" unicode="&#x1ef3;" horiz-adv-x="1054" 
d="M102 -381q36 36 78.5 81t87 95t88.5 102.5t82 102.5h-30q-47 132 -78 259t-47.5 252t-20.5 249.5t4 250.5l209 10q-10 -112 -9.5 -227t11 -225.5t30.5 -213t49 -188.5h11q81 105 151 221.5t126.5 230t99 217.5t68.5 185l203 -10q-27 -82 -65.5 -172t-85 -182.5
t-98.5 -184t-106.5 -176.5t-109 -160.5t-105.5 -135.5q-32 -44 -80.5 -105.5t-102 -127.5t-107 -129.5t-95.5 -111.5zM768 1123l-232 262l165 98l173 -293z" />
    <glyph glyph-name="zacute" unicode="&#x17a;" horiz-adv-x="982" 
d="M308 850l34 161h746l-29 -139q-75 -93 -166.5 -181t-186 -174.5t-186.5 -173.5t-170 -178l-1 -4h568l-34 -161h-799l31 146q75 92 165.5 179.5t185 173t186 171.5t168.5 176l1 4h-513zM715 1196l297 293l123 -98l-343 -262z" />
    <glyph glyph-name="zcaron" unicode="&#x17e;" horiz-adv-x="982" 
d="M308 850l34 161h746l-29 -139q-75 -93 -166.5 -181t-186 -174.5t-186.5 -173.5t-170 -178l-1 -4h568l-34 -161h-799l31 146q75 92 165.5 179.5t185 173t186 171.5t168.5 176l1 4h-513zM777 1255l217 180l136 -37l-265 -252h-222l-156 253l150 35z" />
    <glyph glyph-name="zdotaccent" unicode="&#x17c;" horiz-adv-x="982" 
d="M308 850l34 161h746l-29 -139q-75 -93 -166.5 -181t-186 -174.5t-186.5 -173.5t-170 -178l-1 -4h568l-34 -161h-799l31 146q75 92 165.5 179.5t185 173t186 171.5t168.5 176l1 4h-513zM798 1325q103 0 84 -89q-8 -38 -36.5 -62.5t-83.5 -24.5q-106 0 -87 89
q10 46 41 66.5t82 20.5z" />
    <glyph glyph-name="macron" unicode="&#xaf;" horiz-adv-x="1087" 
d="M1136 1158h-608l29 137h608z" />
    <glyph glyph-name="dotlessi" unicode="&#x131;" horiz-adv-x="492" 
d="M150 0l214 1011h192l-214 -1011h-192z" />
    <glyph glyph-name="dotlessj" unicode="&#x237;" horiz-adv-x="492" 
d="M-188 -148q95 -36 172 -33q60 2 103.5 49t63.5 138l213 1005h193l-216 -1018q-11 -49 -35.5 -107t-68.5 -108t-110.5 -83.5t-160.5 -33.5q-39 0 -74.5 6t-64 14.5t-50.5 17.5t-34 15z" />
    <glyph glyph-name="cent" unicode="&#xa2;" horiz-adv-x="920" 
d="M635 967l41 195h179l-39 -188zM616 35l-37 -173h-179l37 173h179zM174 518q28 132 82 229t127.5 160.5t162.5 94.5t186 31q80 0 157.5 -20.5t150.5 -69.5l-86 -132q-52 31 -109.5 46.5t-116.5 15.5q-145 0 -237.5 -93.5t-130.5 -270.5q-19 -87 -15.5 -155.5t30 -115
t77 -71t125.5 -24.5q65 0 127 17.5t121 43.5l31 -131q-89 -45 -174.5 -68t-173.5 -23q-120 0 -197 39.5t-115.5 111t-42.5 170t21 215.5z" />
    <glyph glyph-name="dollar" unicode="$" horiz-adv-x="1061" 
d="M703 1368l32 151h180l-32 -151h-180zM600 35l-37 -173h-180l37 173h180zM167 259q67 -36 117 -57.5t92 -32.5t80 -14.5t82 -3.5q68 0 122 18t93 49t63.5 72.5t34.5 89.5t3 85t-33 66.5t-71.5 53.5t-112.5 45q-96 30 -169 61.5t-118 75t-59.5 106t5.5 155.5
q18 87 62.5 157.5t112.5 120.5t160 77.5t205 27.5q100 0 190.5 -25.5t185.5 -84.5l-98 -140q-42 24 -80 39.5t-74 24.5t-72.5 13t-75.5 4q-62 0 -115 -13.5t-93.5 -39t-67.5 -62.5t-37 -83q-11 -54 -2.5 -90t39.5 -63t85.5 -49.5t135.5 -49.5q85 -28 148.5 -63t102.5 -82
t51.5 -108.5t-4.5 -141.5q-20 -92 -63.5 -168.5t-111.5 -131t-160 -85t-209 -30.5q-62 0 -118.5 7.5t-110.5 23t-106 40t-106 58.5z" />
    <glyph glyph-name="currency" unicode="&#xa4;" horiz-adv-x="997" 
d="M705 1051q113 0 185 -36l134 112l80 -96l-128 -101q37 -76 10 -202q-12 -57 -36 -107t-62 -91l87 -101l-121 -97l-88 113q-41 -17 -89 -26t-105 -9q-119 0 -191 34l-136 -113l-80 97l125 98q-42 77 -14 209q27 125 97 198l-80 98l120 97l84 -112q89 35 208 35zM678 930
q-48 0 -90.5 -10t-76 -33t-57.5 -61t-36 -94q-12 -54 -5 -92t30 -62.5t61.5 -35.5t90.5 -11q58 0 101 15.5t72.5 42t47 62.5t26.5 77q12 56 5.5 94.5t-28.5 62.5t-58 34.5t-83 10.5z" />
    <glyph glyph-name="AEacute" unicode="&#x1fc;" horiz-adv-x="1832" 
d="M912 0l79 373h-537q-41 -67 -76 -126.5t-63 -108t-47 -84t-28 -54.5h-214q25 53 65 129t95.5 172t126 210t155.5 244q67 105 135 200t130.5 177t117.5 148t96 113h1091l-38 -169h-633l-93 -434h541l-34 -161h-541l-98 -460h651l-35 -169h-846zM552 532h473l146 691
l-130 -1q-21 -29 -63.5 -83t-98.5 -128.5t-122.5 -167.5t-135.5 -199zM1387 1582l297 293l123 -98l-343 -262z" />
    <glyph glyph-name="commaaccent" unicode="&#xf6c3;" horiz-adv-x="0" 
 />
    <glyph glyph-name="Oslash" unicode="&#xd8;" horiz-adv-x="1427" 
d="M1500 696q-40 -187 -118.5 -322t-182.5 -222t-228.5 -128.5t-255.5 -41.5q-44 1 -84 5t-77 13l-78 -128l-166 55l83 138q-61 39 -105.5 97.5t-67.5 137t-23.5 177t25.5 218.5q39 181 116.5 315t182.5 223t232 133t265 45q97 0 176 -22q17 29 33.5 57t32.5 54l167 -55
l-79 -129q56 -42 96 -101.5t60.5 -137t20 -173t-24.5 -208.5zM982 1242q-114 0 -206.5 -43t-163 -117t-119.5 -173.5t-74 -213.5q-24 -107 -19.5 -205.5t43.5 -173.5t114.5 -120t193.5 -45q105 0 195 38.5t160.5 110t120.5 172t76 223.5q25 117 18.5 217t-46 173.5
t-112.5 115t-181 41.5z" />
    <glyph glyph-name="Oslashacute" unicode="&#x1fe;" horiz-adv-x="1427" 
d="M1500 696q-40 -187 -118.5 -322t-182.5 -222t-228.5 -128.5t-255.5 -41.5q-44 1 -84 5t-77 13l-78 -128l-166 55l83 138q-61 39 -105.5 97.5t-67.5 137t-23.5 177t25.5 218.5q39 181 116.5 315t182.5 223t232 133t265 45q97 0 176 -22q17 29 33.5 57t32.5 54l167 -55
l-79 -129q56 -42 96 -101.5t60.5 -137t20 -173t-24.5 -208.5zM982 1242q-114 0 -206.5 -43t-163 -117t-119.5 -173.5t-74 -213.5q-24 -107 -19.5 -205.5t43.5 -173.5t114.5 -120t193.5 -45q105 0 195 38.5t160.5 110t120.5 172t76 223.5q25 117 18.5 217t-46 173.5
t-112.5 115t-181 41.5zM1030 1612l297 293l123 -98l-343 -262z" />
    <glyph glyph-name="aeacute" unicode="&#x1fd;" horiz-adv-x="1760" 
d="M196 504q27 130 86 228.5t141 165.5t181.5 101t209.5 34q114 0 204 -27.5t155 -60.5q67 43 145 65.5t164 22.5q85 0 153 -25.5t113 -69.5t63 -105t3 -131q-12 -58 -39.5 -109.5t-75.5 -89.5t-118.5 -60.5t-168.5 -22.5h-339q-6 -67 6 -119t44 -88t86 -54.5t132 -18.5
q72 0 142 22.5t129 51.5l31 -136q-46 -23 -90 -40.5t-89 -30t-92 -19t-99 -6.5q-184 0 -280 81l-13 -63h-166l-5 98q-35 -23 -70.5 -44t-74.5 -37t-84 -25.5t-99 -9.5q-86 0 -152 32t-105 96.5t-47.5 163t19.5 230.5zM383 508q-20 -95 -15 -163.5t30.5 -113.5t69 -66.5
t101.5 -21.5q37 0 74.5 7t72.5 19.5t66 29t56 36.5l128 599q-8 4 -25.5 10.5t-42.5 12.5t-55.5 10.5t-63.5 4.5q-70 0 -133.5 -24t-115.5 -70t-90 -114t-57 -156zM1441 873q-61 0 -113 -22.5t-95 -62t-75 -93.5t-52 -116h310q43 0 77.5 4t61 15.5t43.5 33t25 57.5
q10 49 -3 83.5t-40.5 57t-64.5 33t-74 10.5zM1105 1215l297 293l123 -98l-343 -262z" />
    <glyph glyph-name="kgreenlandic" unicode="&#x138;" horiz-adv-x="1081" 
d="M1180 1011q-81 -134 -179.5 -242t-210.5 -191q15 -69 41.5 -143t60 -145.5t72.5 -136t80 -114.5l-155 -94q-41 34 -83.5 96.5t-79 137t-65 151.5t-41.5 140q-96 -52 -196 -84l-82 -386h-193l214 1011h193l-93 -439q87 32 160 77.5t136 101.5t117 121.5t102 138.5h202v0z
" />
    <glyph glyph-name="oslash" unicode="&#xf8;" horiz-adv-x="1145" 
d="M201 516q25 119 78 214.5t128.5 163t173 103.5t211.5 36q23 0 45.5 -1.5t44.5 -5.5l68 114l141 -56l-65 -107q45 -27 79 -67.5t53.5 -97.5t21 -131t-17.5 -166q-27 -129 -81 -228.5t-130.5 -167t-173 -102.5t-208.5 -35q-73 0 -133 15l-66 -110l-141 53l71 119
q-81 64 -107.5 178t8.5 279zM389 515q-21 -101 -14.5 -172t35.5 -115.5t79 -64.5t115 -20q66 0 124 21t106 66t83.5 115.5t56.5 169.5q19 92 12 159.5t-36.5 111.5t-78.5 65.5t-112 21.5q-66 0 -124.5 -22t-107 -66.5t-84 -111.5t-54.5 -158z" />
    <glyph glyph-name="oslashacute" unicode="&#x1ff;" horiz-adv-x="1145" 
d="M201 516q25 119 78 214.5t128.5 163t173 103.5t211.5 36q23 0 45.5 -1.5t44.5 -5.5l68 114l141 -56l-65 -107q45 -27 79 -67.5t53.5 -97.5t21 -131t-17.5 -166q-27 -129 -81 -228.5t-130.5 -167t-173 -102.5t-208.5 -35q-73 0 -133 15l-66 -110l-141 53l71 119
q-81 64 -107.5 178t8.5 279zM389 515q-21 -101 -14.5 -172t35.5 -115.5t79 -64.5t115 -20q66 0 124 21t106 66t83.5 115.5t56.5 169.5q19 92 12 159.5t-36.5 111.5t-78.5 65.5t-112 21.5q-66 0 -124.5 -22t-107 -66.5t-84 -111.5t-54.5 -158zM780 1238l297 293l123 -98
l-343 -262z" />
    <glyph glyph-name="Eng" unicode="&#x14a;" horiz-adv-x="1473" 
d="M1282 -75q-20 -95 -51.5 -167.5t-79 -121.5t-113.5 -74t-154 -25q-36 0 -70.5 5.5t-66.5 14.5t-60 20t-50 23l76 151q32 -16 75 -31t85 -15q53 0 88 14.5t57 41t35 63.5t23 82l50 237h202zM175 0l296 1393h245q34 -57 71 -146t75 -194.5t76.5 -219t75 -218t70.5 -191.5
t63 -140h13l233 1109h201l-296 -1393h-238q-39 67 -77 157.5t-75 193t-74 210t-73 207.5t-71 187t-70 148h-13l-232 -1103h-200z" />
    <glyph glyph-name="eng" unicode="&#x14b;" 
d="M332 864q39 23 98.5 52t133 55t156 44t167.5 18q97 0 155.5 -31t86.5 -82.5t30 -119.5t-14 -142l-141 -665q-11 -49 -35.5 -107t-68.5 -108t-111 -83.5t-161 -33.5q-39 0 -74.5 6t-64 14.5t-50.5 17.5t-34 15l69 138q96 -36 172 -33q60 2 104 49t64 138l135 638
q8 38 10.5 77.5t-9.5 72t-43 53t-88 20.5q-40 0 -84 -10.5t-86.5 -25.5t-80 -32.5t-64.5 -32.5l-162 -766h-193z" />
    <glyph glyph-name="fraction" unicode="&#x2044;" horiz-adv-x="842" 
d="M76 0l810 1393h174l-810 -1393h-174z" />
    <glyph glyph-name="afii10017" unicode="&#x410;" horiz-adv-x="1326" 
d="M1079 -10q-3 79 -8 175.5t-14 204.5h-630q-55 -111 -102 -208t-82 -172l-204 10q31 70 73.5 156.5t91.5 182.5t103.5 198.5t110.5 203.5t112 198t107.5 182t97.5 155t83 117h283q18 -54 35.5 -129t33.5 -164t31 -188t28.5 -200.5t24 -202.5t18 -193.5t12 -173.5t5.5 -142
zM906 1224q-48 -72 -98.5 -155t-100.5 -171.5t-100 -180.5t-96 -182h532q-16 172 -41 348.5t-61 340.5h-35z" />
    <glyph glyph-name="afii10018" unicode="&#x411;" horiz-adv-x="1230" 
d="M402 155h254q142 0 232 60.5t117 188.5q26 118 -37 179.5t-206 61.5h-255zM1201 1244h-567l-96 -449h254q98 0 181.5 -23.5t140.5 -71.5t81 -121t3 -173q-44 -208 -185 -307t-368 -99h-470l296 1393h762z" />
    <glyph glyph-name="afii10019" unicode="&#x412;" horiz-adv-x="1230" 
d="M175 0l296 1393h436q108 0 188.5 -22t131 -66.5t68 -111.5t-1.5 -156q-25 -115 -98 -191t-179 -112l-3 -11q57 -15 98.5 -43.5t66 -70t31 -95.5t-7.5 -119q-42 -200 -182.5 -297.5t-367.5 -97.5h-476zM408 155h253q142 0 232.5 60.5t117.5 188.5q26 118 -37 179.5
t-206 61.5h-255zM544 795h223q67 0 124.5 15.5t101.5 45.5t73.5 73t41.5 98q12 59 -0.5 100t-46 67t-85 38t-117.5 12h-219z" />
    <glyph glyph-name="afii10020" unicode="&#x413;" horiz-adv-x="1036" 
d="M1273 1393l-36 -169h-585l-260 -1224h-202l296 1393h787z" />
    <glyph glyph-name="afii10022" unicode="&#x415;" horiz-adv-x="1105" 
d="M175 0l296 1393h815l-37 -169h-618l-93 -434h526l-34 -161h-526l-98 -460h636l-35 -169h-832z" />
    <glyph glyph-name="afii10023" unicode="&#x401;" horiz-adv-x="1105" 
d="M175 0l296 1393h821l-38 -169h-618l-93 -434h527l-34 -161h-527l-98 -460h637l-35 -169h-838zM837 1689q103 0 84 -89q-8 -38 -36.5 -62.5t-83.5 -24.5q-106 0 -87 89q10 46 41 66.5t82 20.5zM1167 1689q103 0 84 -89q-8 -38 -36.5 -62.5t-82.5 -24.5q-106 0 -87 89
q10 46 41 66.5t81 20.5z" />
    <glyph glyph-name="afii10026" unicode="&#x418;" horiz-adv-x="1473" 
d="M1098 0l237 1103h-14q-61 -61 -133 -148t-151 -187t-161 -207.5t-162.5 -210t-157 -193t-142.5 -157.5h-239l296 1393h201l-239 -1109h13q39 40 89 99.5t107 131.5t119.5 153.5t127 165t128 165.5t123 155.5t113 135t96.5 103.5h245l-296 -1393h-200z" />
    <glyph glyph-name="afii10027" unicode="&#x419;" horiz-adv-x="1473" 
d="M1098 0l237 1103h-14q-61 -61 -133 -148t-151 -187t-161 -207.5t-162.5 -210t-157 -193t-142.5 -157.5h-239l296 1393h201l-239 -1109h13q39 40 89 99.5t107 131.5t119.5 153.5t127 165t128 165.5t123 155.5t113 135t96.5 103.5h245l-296 -1393h-200zM1106 1519
q-86 0 -134.5 23.5t-72.5 59.5t-31 77.5t-10 77.5l132 29q1 -23 4.5 -48.5t17 -47.5t41.5 -36t79 -14t85 14.5t56.5 36t37 47t25.5 48.5l120 -29q-19 -37 -44 -79t-64 -77t-97.5 -58.5t-144.5 -23.5z" />
    <glyph glyph-name="afii10028" unicode="&#x41a;" horiz-adv-x="1267" 
d="M175 1l296 1392h200l-147 -688q102 57 207.5 136.5t200.5 171t175 189.5t131 191h218q-92 -153 -223 -304t-286 -282q12 -82 44.5 -185.5t78.5 -208t103 -199t119 -159.5l-172 -110q-57 65 -111.5 152.5t-100 185t-79.5 199.5t-49 197q-74 -51 -148.5 -94t-149.5 -77
l-107 -507h-200z" />
    <glyph glyph-name="afii10029" unicode="&#x41b;" horiz-adv-x="1471" 
d="M1354 1224h-543l-64 -300q-10 -48 -25.5 -114t-36.5 -141.5t-48 -155.5t-59.5 -156.5t-71.5 -144.5t-84.5 -119t-98 -81t-111.5 -30q-24 0 -48.5 2.5t-46 6.5t-37 7t-19.5 5l38 151q17 -1 43 -6.5t58 -3.5q34 2 65 28.5t59 70.5t53.5 101.5t47.5 121t41 130t34.5 128
t27 115t19.5 90.5l99 464h946l-296 -1393h-202z" />
    <glyph glyph-name="afii10030" unicode="&#x41c;" horiz-adv-x="1699" 
d="M69 0q40 161 85.5 322t90.5 309q33 106 67 212t67.5 205t65 187t57.5 158h318l83 -1128h11l561 1128h317q-9 -149 -24 -333.5t-42 -423.5q-11 -91 -22 -172.5t-22.5 -158.5t-23.5 -152t-25 -153h-204q13 70 28 168t30.5 208.5t30 226t26 221.5t18.5 195t8 146h-14
l-594 -1164h-220l-101 1164h-14q-28 -70 -60 -162.5t-65 -196.5t-65.5 -214.5t-62.5 -216.5t-56 -202.5t-45 -172.5h-204z" />
    <glyph glyph-name="afii10031" unicode="&#x41d;" horiz-adv-x="1444" 
d="M175 0l296 1393h201l-128 -599h690l128 599h202l-296 -1393h-202l133 626h-690l-133 -626h-201z" />
    <glyph glyph-name="afii10032" unicode="&#x41e;" horiz-adv-x="1427" 
d="M1500 696q-40 -187 -118.5 -322t-182.5 -222t-228.5 -128.5t-255.5 -41.5q-137 1 -245.5 44t-177 131t-89 222t18.5 316q39 181 116.5 315t182.5 223t232 133t265 45q135 0 242 -44.5t173 -134.5t85.5 -224t-18.5 -312zM982 1242q-114 0 -206.5 -43t-163 -117
t-119.5 -173.5t-74 -213.5q-24 -107 -19.5 -205.5t43.5 -173.5t114.5 -120t193.5 -45q105 0 195 38.5t160.5 110t120.5 172t76 223.5q25 117 18.5 217t-46 173.5t-112.5 115t-181 41.5z" />
    <glyph glyph-name="afii10033" unicode="&#x41f;" horiz-adv-x="1444" 
d="M1268 0h-202l260 1224h-690l-260 -1224h-201l296 1393h1093z" />
    <glyph glyph-name="afii10034" unicode="&#x420;" horiz-adv-x="1156" 
d="M175 0l296 1393h448q111 0 193.5 -29t132.5 -85t65.5 -138t-6.5 -189q-26 -122 -84 -211t-139.5 -147.5t-181 -87t-207.5 -28.5h-213l-101 -478h-203zM514 640h216q64 0 124 16.5t109.5 52t86 91.5t53.5 135q20 92 4 149.5t-54.5 89.5t-93.5 43.5t-113 11.5h-207z" />
    <glyph glyph-name="afii10035" unicode="&#x421;" horiz-adv-x="1205" 
d="M418 691q-58 -272 22.5 -406t295.5 -134q87 0 175.5 26.5t192.5 76.5l39 -139q-116 -63 -237.5 -98t-230.5 -35q-140 0 -243 40t-163.5 124.5t-75 215.5t24.5 314q41 194 112.5 333t169 228.5t218 131.5t260.5 42q115 0 221 -36.5t191 -97.5l-97 -139q-79 51 -159.5 77.5
t-166.5 26.5q-432 0 -549 -551z" />
    <glyph glyph-name="afii10036" unicode="&#x422;" horiz-adv-x="1083" 
d="M294 1224l36 169h1016l-36 -169h-407l-260 -1224h-202l260 1224h-407z" />
    <glyph glyph-name="afii10037" unicode="&#x423;" horiz-adv-x="1216" 
d="M232 2l81 81t92 95t93.5 102.5t84.5 102.5h-14q-27 69 -52 132.5t-47 126.5t-39.5 129t-30.5 140q-26 149 -39 271t-7 212h215q-7 -98 1 -212t28 -245q9 -57 23.5 -110.5t31.5 -102t34.5 -92t31.5 -80.5h11q38 47 74.5 91.5t71 89.5t68 93.5t66.5 103.5q82 140 136.5 256
t89.5 208h215q-21 -55 -46.5 -113t-58 -121t-72.5 -132t-90 -147q-54 -84 -102.5 -151.5t-94.5 -126t-90.5 -112t-89.5 -108.5q-22 -29 -52.5 -67t-65.5 -80.5t-73.5 -87t-76 -87.5t-72 -82t-62.5 -70z" />
    <glyph glyph-name="afii10039" unicode="&#x425;" horiz-adv-x="1227" 
d="M42 0q69 106 133 194t130 171q35 44 79 96.5t89 104t86.5 96.5t71.5 74q-19 35 -37 68.5t-37 71.5t-39.5 83t-44.5 104q-29 73 -51.5 154.5t-43.5 175.5l227 10q3 -19 9 -47.5t15 -63t20 -73t24 -77.5q61 -168 122 -276h10q20 21 43.5 45.5t51.5 56.5t61.5 72t72.5 93
q34 43 57.5 75t44 61.5t41 60.5t47.5 73l223 -10q-32 -49 -64 -95.5t-65 -92.5t-69 -91.5t-76 -93.5q-88 -103 -154 -174.5t-104 -111.5q29 -50 72.5 -143t88.5 -211q37 -98 64.5 -188t50.5 -192l-229 -10q-7 30 -13.5 61.5t-16 68t-22 79.5t-31.5 96q-41 118 -75.5 191
t-55.5 109h-11q-27 -26 -59.5 -61t-67 -75.5t-70 -84.5t-68.5 -87q-63 -81 -113.5 -156.5t-92.5 -140.5z" />
    <glyph glyph-name="afii10021" unicode="&#x414;" horiz-adv-x="1503" 
d="M226 -233h-201l85 402h95q57 46 108.5 109.5t97.5 138.5t85.5 159.5t72 172.5t58 176.5t43.5 171.5l63 296h841l-261 -1224h124l-85 -402h-202l50 233h-924zM852 1020q-13 -61 -34 -132t-50 -146.5t-65.5 -153.5t-79 -152.5t-91.5 -142.5t-103 -124h682l225 1055h-440z
" />
    <glyph glyph-name="afii10024" unicode="&#x416;" horiz-adv-x="2014" 
d="M617 1393q10 -97 47.5 -196t95 -190.5t130.5 -170t153 -134.5l147 691h201l-147 -691q69 37 139.5 85t139 103t133.5 116.5t121.5 125.5t104 130t81.5 131h217q-48 -82 -109.5 -164.5t-132.5 -162t-151.5 -155t-165.5 -143.5q13 -82 44.5 -178.5t75 -191.5t97.5 -181
t113 -147l-177 -108q-51 58 -100 139.5t-91.5 173t-75 188.5t-49.5 187q-64 -42 -127.5 -77t-127.5 -64l-108 -508h-201l107 507q-105 58 -195 142q-56 -90 -129.5 -187t-155 -188.5t-165.5 -173t-160 -139.5l-131 108q57 40 116.5 92.5t118 112t115 123.5t107.5 128
t94 125.5t76 116.5q-115 137 -191 298.5t-101 326.5h217z" />
    <glyph glyph-name="afii10025" unicode="&#x417;" horiz-adv-x="1087" 
d="M346 1283q56 30 109 53.5t107 40t111 25.5t120 9q109 0 189 -23.5t128 -68t64.5 -108t-0.5 -143.5q-12 -54 -32 -102.5t-51.5 -90t-76 -77t-104.5 -64.5q46 -17 82 -46.5t58 -72t28 -98.5t-9 -125q-26 -121 -85.5 -199.5t-139.5 -124t-173 -64.5t-185 -21
q-57 -2 -113.5 5.5t-109 22.5t-100 37.5t-85.5 51.5l96 141q38 -23 72.5 -39.5t72.5 -28t82.5 -17t103.5 -5.5q64 0 123.5 12.5t109 41.5t85 77t50.5 119q8 39 0.5 81t-38.5 76.5t-88 57t-147 22.5h-172l33 156l168 1q65 0 121 14t100.5 43.5t75 76.5t44.5 114
q11 50 -1.5 87.5t-44 62t-80 37t-109.5 12.5q-43 0 -84 -6t-83.5 -18t-87.5 -30.5t-96 -43.5z" />
    <glyph glyph-name="afii10038" unicode="&#x424;" horiz-adv-x="1761" 
d="M762 -84l27 131h-38q-91 0 -173 14.5t-149 46t-117.5 81.5t-79 122t-32 167.5t22.5 216.5q39 181 118 305t185.5 201t235 111t266.5 34h38l28 134h201l-29 -135l58 1q88 -1 167.5 -16.5t144.5 -48t113.5 -84t75.5 -123.5t30 -166t-22 -212q-39 -185 -118 -309
t-183.5 -199.5t-228.5 -107.5t-254 -33l-58 1l-28 -132h-201zM1092 216q102 3 190.5 33t159 89t120 147.5t75.5 209.5q24 114 13 201.5t-54 148t-116.5 94t-173.5 38.5h-75l-205 -963zM420 695q-24 -107 -14 -195t55.5 -151t126.5 -98t199 -35h38l205 961h-38
q-114 0 -208 -32.5t-166.5 -94.5t-122.5 -151.5t-75 -203.5z" />
    <glyph glyph-name="afii10040" unicode="&#x426;" horiz-adv-x="1467" 
d="M411 169h690l261 1224h202l-261 -1224h127l-85 -402h-202l50 233h-1018l296 1393h201z" />
    <glyph glyph-name="afii10041" unicode="&#x427;" horiz-adv-x="1240" 
d="M871 0l119 561q-25 -16 -63.5 -34t-85 -33t-98.5 -24.5t-106 -9.5q-97 0 -171 28t-120 80.5t-62 127.5t4 169l113 528h201l-106 -499q-17 -77 0 -128t53.5 -81.5t86 -43t99.5 -12.5q37 0 77.5 6.5t79.5 18.5t73.5 29t58.5 39l143 671h201l-296 -1393h-201z" />
    <glyph glyph-name="afii10042" unicode="&#x428;" horiz-adv-x="1962" 
d="M411 169h514l261 1224h202l-261 -1224h492l261 1224h202l-296 -1393h-1611l296 1393h201z" />
    <glyph glyph-name="afii10043" unicode="&#x429;" horiz-adv-x="1978" 
d="M1864 -233h-202l50 233h-1537l296 1393h201l-261 -1224h514l261 1224h202l-261 -1224h492l261 1224h202l-261 -1224h128z" />
    <glyph glyph-name="afii10044" unicode="&#x42a;" horiz-adv-x="1295" 
d="M310 1393h474l-128 -598h253q98 0 181.5 -24t140.5 -71.5t81.5 -119t4.5 -165.5q-23 -109 -70 -187.5t-116.5 -129t-161.5 -74.5t-206 -24h-471l264 1244h-278zM520 155h253q142 0 232.5 60.5t117.5 188.5q26 118 -37.5 179.5t-205.5 61.5h-255z" />
    <glyph glyph-name="afii10046" unicode="&#x42c;" horiz-adv-x="1167" 
d="M402 155h254q142 0 232 60.5t117 188.5q26 118 -37 179.5t-206 61.5h-255zM666 1393l-128 -598h254q98 0 181.5 -24t140.5 -71.5t81.5 -119t4.5 -165.5q-23 -109 -70 -187.5t-117 -129t-162 -74.5t-206 -24h-470l296 1393h195z" />
    <glyph glyph-name="afii10045" unicode="&#x42b;" horiz-adv-x="1700" 
d="M402 155h254q142 0 232 60.5t117 188.5q26 118 -37 179.5t-206 61.5h-255zM666 1393l-128 -598h254q98 0 181.5 -24t140.5 -71.5t81.5 -119t4.5 -165.5q-23 -109 -70 -187.5t-117 -129t-162 -74.5t-206 -24h-470l296 1393h195zM1323 0l296 1393h201l-296 -1393h-201z" />
    <glyph glyph-name="afii10048" unicode="&#x42e;" horiz-adv-x="1959" 
d="M175 0l296 1393h201l-129 -607h233q46 157 124 274.5t179.5 195t220.5 116t248 39.5q135 0 241.5 -44.5t172.5 -134.5t86 -224t-18 -312q-40 -187 -118.5 -322t-182.5 -222t-228.5 -128.5t-255.5 -41.5q-128 1 -231.5 39t-172.5 115t-98 194.5t-6 276.5h-232l-129 -607
h-201zM1512 1242q-114 0 -206.5 -43t-163 -117t-119.5 -173.5t-74 -213.5q-24 -107 -19 -205.5t44 -173.5t114.5 -120t192.5 -45q105 0 195 38.5t160.5 110t120.5 172t76 223.5q25 117 18.5 217t-46 173.5t-112.5 115t-181 41.5z" />
    <glyph glyph-name="afii10049" unicode="&#x42f;" horiz-adv-x="1242" 
d="M67 59q76 57 145 121.5t129.5 130t113 130t95.5 121.5q-49 27 -92 66t-71.5 91t-38.5 116t7 141q21 97 74 174.5t128.5 131.5t167 82.5t189.5 28.5h456l-296 -1393h-203l107 505h-257h-4q-99 -141 -230 -283t-290 -273zM1132 1229h-236q-53 0 -108.5 -14.5t-103.5 -47
t-84.5 -83.5t-51.5 -123q-14 -62 -4.5 -115.5t38.5 -92.5t75.5 -61.5t107.5 -22.5h248z" />
    <glyph glyph-name="afii10050" unicode="&#x490;" horiz-adv-x="990" 
d="M1056 1393l49 233h202l-85 -402h-585l-260 -1224h-202l296 1393h585z" />
    <glyph glyph-name="afii10051" unicode="&#x402;" horiz-adv-x="1355" 
d="M226 1224l36 169h1021l-36 -169h-410l-69 -323q78 36 173 62.5t203 26.5q97 0 156 -30t87.5 -81t31 -118t-13.5 -141l-65 -306q-7 -33 -20 -70t-33.5 -74t-49.5 -71t-67 -60t-87 -41.5t-109 -15.5q-38 0 -69.5 5t-56.5 12t-42 14.5t-25 11.5l64 139l135 -24q61 2 104 46
t63 136l59 279q9 39 9.5 79t-14 71.5t-48.5 51.5t-95 20q-42 0 -88.5 -10.5t-91 -26.5t-83.5 -35t-66 -35l-152 -716h-201l260 1224h-410z" />
    <glyph glyph-name="afii10052" unicode="&#x403;" horiz-adv-x="982" 
d="M1258 1393l-36 -169h-585l-260 -1224h-202l296 1393h787zM799 1572l297 293l123 -98l-343 -262z" />
    <glyph glyph-name="afii10054" unicode="&#x405;" horiz-adv-x="1063" 
d="M171 259q67 -36 117 -57.5t92 -32.5t80 -14.5t82 -3.5q68 0 122 18t93 49t63.5 72.5t34.5 89.5t3 85t-33 66.5t-71.5 53.5t-112.5 45q-96 30 -169 61.5t-118 75t-59.5 106t5.5 155.5q18 87 62.5 157.5t112.5 120.5t160 77.5t205 27.5q100 0 190.5 -25.5t185.5 -84.5
l-98 -140q-42 24 -80 39.5t-74 24.5t-72.5 13t-75.5 4q-62 0 -115 -13.5t-93.5 -39t-67.5 -62.5t-37 -83q-11 -54 -2.5 -90t39.5 -63t85.5 -49.5t135.5 -49.5q85 -28 148.5 -63t102.5 -82t51.5 -108.5t-4.5 -141.5q-20 -92 -63.5 -168.5t-111.5 -131t-160 -85t-209 -30.5
q-62 0 -118.5 7.5t-110.5 23t-106 40t-106 58.5z" />
    <glyph glyph-name="afii10055" unicode="&#x406;" horiz-adv-x="553" 
d="M175 0l296 1393h201l-296 -1393h-201z" />
    <glyph glyph-name="afii10056" unicode="&#x407;" horiz-adv-x="553" 
d="M175 0l296 1393h201l-296 -1393h-201zM498 1756q103 0 84 -89q-8 -38 -36.5 -62.5t-83.5 -24.5q-106 0 -87 89q10 46 41 66.5t82 20.5zM828 1756q103 0 84 -89q-8 -38 -36.5 -62.5t-82.5 -24.5q-106 0 -87 89q10 46 41 66.5t81 20.5z" />
    <glyph glyph-name="afii10057" unicode="&#x408;" horiz-adv-x="784" 
d="M687 371q-20 -95 -51.5 -168t-79 -122t-113 -74t-153.5 -25q-36 0 -70.5 5.5t-66 14.5t-59.5 20.5t-50 22.5l74 152q34 -17 77 -31.5t85 -14.5q53 0 87.5 14.5t57 41t35.5 63.5t22 81l222 1042h201z" />
    <glyph glyph-name="afii10058" unicode="&#x409;" horiz-adv-x="2108" 
d="M1611 1393l-128 -598h253q98 0 182 -24t141 -71.5t81.5 -119t4.5 -165.5q-23 -109 -70 -187.5t-117 -129t-162 -74.5t-206 -24h-477l260 1224h-549l-64 -300q-10 -48 -25.5 -114t-36 -141.5t-46.5 -155.5t-58.5 -156.5t-71 -144.5t-83.5 -119t-97 -81t-111 -30
q-24 0 -48.5 2.5t-46 6.5t-37 7t-19.5 5l38 151q17 -1 43.5 -6t58.5 -4q44 1 84 45.5t75 115.5t64.5 158.5t53.5 174.5t41 164t28 127l99 464h946zM1347 155h253q142 0 232.5 60.5t117.5 188.5q26 118 -37 179.5t-206 61.5h-255z" />
    <glyph glyph-name="afii10059" unicode="&#x40a;" horiz-adv-x="2023" 
d="M1521 1393l-128 -598h254q98 0 181.5 -24t140.5 -71.5t81.5 -119t4.5 -165.5q-23 -109 -70 -187.5t-117 -129t-162 -74.5t-206 -24h-476l135 637h-648l-134 -631h-201l296 1393h201l-129 -604h648l128 598h201zM1257 155h253q143 0 233 60t117 189q26 118 -37 179.5
t-206 61.5h-255z" />
    <glyph glyph-name="afii10060" unicode="&#x40b;" horiz-adv-x="1459" 
d="M662 816q40 27 96 57.5t123.5 56.5t145.5 43t163 17q97 0 156 -30t87.5 -81t31 -118t-13.5 -141l-131 -620h-195l127 601q9 39 9.5 79t-14 71.5t-48.5 51.5t-95 20q-42 0 -90 -11t-93.5 -27.5t-85 -36t-65.5 -35.5zM267 1224l36 169h1016l-36 -169h-407l-260 -1224h-202
l260 1224h-407z" />
    <glyph glyph-name="afii10061" unicode="&#x40c;" horiz-adv-x="1267" 
d="M175 1l296 1392h200l-147 -688q102 57 207.5 136.5t200.5 171t175 189.5t131 191h218q-92 -153 -223 -304t-286 -282q12 -82 44.5 -185.5t78.5 -208t103 -199t119 -159.5l-172 -110q-57 65 -111.5 152.5t-100 185t-79.5 199.5t-49 197q-74 -51 -148.5 -94t-149.5 -77
l-107 -507h-200zM846 1533l297 293l123 -98l-343 -262z" />
    <glyph glyph-name="afii10062" unicode="&#x40e;" horiz-adv-x="1216" 
d="M232 2l81 81t92 95t93.5 102.5t84.5 102.5h-14q-27 69 -52 132.5t-47 126.5t-39.5 129t-30.5 140q-26 149 -39 271t-7 212h215q-7 -98 1 -212t28 -245q9 -57 23.5 -110.5t31.5 -102t34.5 -92t31.5 -80.5h11q38 47 74.5 91.5t71 89.5t68 93.5t66.5 103.5q82 140 136.5 256
t89.5 208h215q-21 -55 -46.5 -113t-58 -121t-72.5 -132t-90 -147q-54 -84 -102.5 -151.5t-94.5 -126t-90.5 -112t-89.5 -108.5q-22 -29 -52.5 -67t-65.5 -80.5t-73.5 -87t-76 -87.5t-72 -82t-62.5 -70zM956 1492q-86 0 -134.5 23.5t-72.5 59.5t-31 77.5t-10 77.5l132 29
q1 -23 4.5 -48.5t17 -47.5t41.5 -36t79 -14t85 14.5t56.5 36t37 47t25.5 48.5l120 -29q-19 -37 -44 -79t-64 -77t-97.5 -58.5t-144.5 -23.5z" />
    <glyph glyph-name="afii10065" unicode="&#x430;" horiz-adv-x="1119" 
d="M186 504q27 130 86 228.5t141 165.5t182 101t209 34q58 0 110.5 -8t98 -20.5t85 -29t72.5 -33.5l-200 -942h-166l-4 98q-35 -23 -70.5 -44t-75 -37t-84.5 -25.5t-99 -9.5q-86 0 -152 32t-105 96.5t-47.5 163t19.5 230.5zM374 508q-20 -95 -15 -163.5t30 -113.5t69 -66.5
t102 -21.5q37 0 74 7t72 19.5t66.5 29t55.5 36.5l128 599q-8 4 -25.5 10.5t-42 12.5t-55 10.5t-64.5 4.5q-70 0 -133.5 -24t-115.5 -70t-89.5 -114t-56.5 -156z" />
    <glyph glyph-name="afii10066" unicode="&#x431;" horiz-adv-x="1092" 
d="M194 641q41 193 107 333t154.5 233.5t198 143t237.5 60.5q72 6 122.5 11t88.5 11.5t67.5 16t59.5 25.5l26 -154q-58 -33 -150 -51t-222 -29q-102 -11 -174 -47.5t-121.5 -89t-81.5 -115t-53 -124.5q42 33 88 55.5t91.5 36t89 19.5t80.5 6q106 0 178.5 -37.5t113 -104
t48.5 -159t-16 -202.5q-23 -107 -74.5 -197.5t-128 -157.5t-176.5 -104.5t-219 -37.5q-130 0 -210.5 47t-118.5 133.5t-37.5 208t32.5 270.5zM402 676q-9 -25 -14 -41t-11 -44q-24 -112 -21.5 -195.5t27.5 -139.5t71.5 -84t112.5 -28q67 0 127.5 25t109 69t83 104t49.5 130
q15 73 11 135.5t-29 108.5t-71.5 72t-116.5 26q-48 0 -92 -10.5t-84.5 -29t-78.5 -44t-73 -54.5z" />
    <glyph glyph-name="afii10067" unicode="&#x432;" horiz-adv-x="1032" 
d="M149 0l214 1011h429q78 0 139 -16t100 -48.5t54 -81t1 -113.5q-17 -83 -71 -137.5t-128 -81.5l-2 -8q82 -22 119.5 -82.5t17.5 -155.5q-16 -72 -51.5 -126t-88.5 -90t-122.5 -53.5t-151.5 -17.5h-459zM372 143h226q47 0 86.5 7.5t69.5 25.5t50.5 47.5t29.5 74.5
q17 83 -29 120t-143 37h-224zM467 590h198q93 0 156.5 36t80.5 114q9 42 -1.5 68t-35 40t-61.5 19t-81 5h-196z" />
    <glyph glyph-name="afii10068" unicode="&#x433;" horiz-adv-x="868" 
d="M1040 1011l-34 -161h-484l-180 -850h-193l214 1011h677z" />
    <glyph glyph-name="afii10070" unicode="&#x435;" horiz-adv-x="1045" 
d="M371 420q-6 -67 6 -119t44 -88t86 -54.5t132 -18.5q72 0 142 22.5t129 51.5l31 -136q-46 -23 -90 -40.5t-89 -30t-92 -19t-99 -6.5q-236 0 -330.5 137t-38.5 400q26 124 80 219.5t129.5 161t169 99.5t199.5 34q85 0 153 -25.5t113 -69.5t63 -105t3 -131
q-12 -58 -39.5 -109.5t-75.5 -89.5t-118.5 -60.5t-168.5 -22.5h-339zM739 873q-61 0 -113 -22.5t-95 -62t-75 -93.5t-52 -116h310q43 0 77.5 4t61 15.5t43.5 33t25 57.5q10 49 -3 83.5t-40.5 57t-64.5 33t-74 10.5z" />
    <glyph glyph-name="afii10071" unicode="&#x451;" horiz-adv-x="1045" 
d="M371 420q-6 -67 6 -119t44 -88t86 -54.5t132 -18.5q72 0 142 22.5t129 51.5l31 -136q-46 -23 -90 -40.5t-89 -30t-92 -19t-99 -6.5q-236 0 -330.5 137t-38.5 400q26 124 80 219.5t129.5 161t169 99.5t199.5 34q85 0 153 -25.5t113 -69.5t63 -105t3 -131
q-12 -58 -39.5 -109.5t-75.5 -89.5t-118.5 -60.5t-168.5 -22.5h-339zM739 873q-61 0 -113 -22.5t-95 -62t-75 -93.5t-52 -116h310q43 0 77.5 4t61 15.5t43.5 33t25 57.5q10 49 -3 83.5t-40.5 57t-64.5 33t-74 10.5zM689 1356q103 0 84 -89q-8 -38 -36.5 -62.5t-83.5 -24.5
q-106 0 -87 89q10 46 41 66.5t82 20.5zM1019 1356q103 0 84 -89q-8 -38 -36.5 -62.5t-82.5 -24.5q-106 0 -87 89q10 46 41 66.5t81 20.5z" />
    <glyph glyph-name="afii10072" unicode="&#x436;" horiz-adv-x="1690" 
d="M1775 1011q-81 -134 -179.5 -241.5t-208.5 -190.5q15 -69 40.5 -143.5t59 -146t72.5 -136t80 -114.5l-155 -94q-27 22 -55.5 58.5t-55.5 81t-51.5 94.5t-45 101t-36.5 99.5t-25 90.5q-48 -26 -97 -47t-99 -37l-82 -386h-192l82 386q-87 31 -162 84q-40 -63 -101 -140
t-129.5 -151.5t-137 -137t-123.5 -96.5l-115 94q61 50 127.5 114.5t130 136t121.5 145.5t102 143q-75 83 -127.5 191t-77.5 242h202q17 -73 43 -138.5t65 -121.5t93 -101.5t128 -77.5l93 439h192l-93 -439q87 32 160.5 77.5t136.5 101.5t116.5 121.5t101.5 138.5h202v0z" />
    <glyph glyph-name="afii10074" unicode="&#x438;" 
d="M797 0l156 727h-10q-41 -40 -88.5 -97t-100 -123t-107 -137.5t-108 -139t-104.5 -127.5t-96 -103h-196l214 1011h185l-161 -739h9q37 37 85 95.5t102 128t110.5 144.5t111 145t104 129t89.5 97h201l-214 -1011h-182z" />
    <glyph glyph-name="afii10075" unicode="&#x439;" horiz-adv-x="1157" 
d="M797 0l156 727h-10q-41 -40 -88.5 -97t-100 -123t-107 -137.5t-108 -139t-104.5 -127.5t-96 -103h-196l214 1011h185l-161 -739h9q37 37 85 95.5t102 128t110.5 144.5t111 145t104 129t89.5 97h201l-214 -1011h-182zM820 1099q-86 0 -134.5 23.5t-72.5 59.5t-31 77.5
t-10 77.5l132 29q1 -23 4.5 -48.5t17 -47.5t41.5 -36t79 -14t85 14.5t56.5 36t37 47t25.5 48.5l120 -29q-19 -37 -44 -79t-64 -77t-97.5 -58.5t-144.5 -23.5z" />
    <glyph glyph-name="afii10076" unicode="&#x43a;" horiz-adv-x="1081" 
d="M1180 1011q-81 -134 -179.5 -242t-210.5 -191q15 -69 41.5 -143t60 -145.5t72.5 -136t80 -114.5l-155 -94q-41 34 -83.5 96.5t-79 137t-65 151.5t-41.5 140q-96 -52 -196 -84l-82 -386h-193l214 1011h193l-93 -439q87 32 160 77.5t136 101.5t117 121.5t102 138.5h202v0z
" />
    <glyph glyph-name="afii10077" unicode="&#x43b;" horiz-adv-x="1211" 
d="M1049 850h-412l-14 -68q-8 -37 -21.5 -91t-32.5 -117t-43.5 -131.5t-54.5 -134.5t-65.5 -125t-76 -103.5t-86 -71t-95.5 -26.5q-24 0 -47.5 2.5t-43.5 6.5t-34 7t-18 5l42 151q8 0 17 -2.5t19.5 -5.5t23 -5t28.5 -1q31 1 59.5 28t54.5 70.5t49.5 100t44 117.5t38 122.5
t30.5 115.5t22.5 96t14.5 64l33 157h794l-214 -1011h-192z" />
    <glyph glyph-name="afii10069" unicode="&#x434;" horiz-adv-x="1197" 
d="M113 161q46 28 85 75t71.5 105t59 123.5t47 131t36 127.5t26.5 113l37 175h751l-180 -850h102l-78 -365h-192l44 204h-707l-44 -204h-192l77 365h57zM611 764q-12 -58 -36.5 -136.5t-60.5 -161.5t-84 -163t-106 -142h530l146 689h-371z" />
    <glyph glyph-name="afii10080" unicode="&#x43e;" horiz-adv-x="1145" 
d="M201 516q25 119 78 214.5t128.5 163t173 103.5t211.5 36q91 0 171.5 -27t135 -88.5t74 -160.5t-10.5 -242q-27 -129 -81 -228.5t-130.5 -167t-173 -102.5t-208.5 -35t-194 34t-130 101.5t-60 167t16 231.5zM389 515q-21 -101 -14.5 -172t35.5 -115.5t79 -64.5t115 -20
q66 0 124 21t106 66t83.5 115.5t56.5 169.5q19 92 12 159.5t-36.5 111.5t-78.5 65.5t-112 21.5q-66 0 -124.5 -22t-107 -66.5t-84 -111.5t-54.5 -158z" />
    <glyph glyph-name="afii10082" unicode="&#x440;" horiz-adv-x="1132" 
d="M336 880q32 21 86 47t118.5 49t134.5 39t133 16q106 0 183.5 -27t122.5 -87t54.5 -157.5t-20.5 -238.5q-22 -104 -68 -201t-116.5 -172t-164.5 -120.5t-212 -45.5q-51 0 -88 4t-64.5 10t-48 13.5t-39.5 14.5l-87 -407h-193zM380 180q16 -6 35 -13t42.5 -12t53.5 -8.5
t68 -3.5q87 0 153 36t113 91.5t76 122t42 128.5q19 91 14.5 157t-30.5 108t-71 62t-105 20q-38 0 -76.5 -9t-73.5 -22.5t-64.5 -28t-48.5 -26.5z" />
    <glyph glyph-name="afii10083" unicode="&#x441;" horiz-adv-x="942" 
d="M202 518q28 132 82 229t127.5 160.5t162.5 94.5t186 31q80 0 157.5 -20.5t150.5 -69.5l-86 -132q-52 31 -109.5 46.5t-116.5 15.5q-145 0 -237.5 -93.5t-130.5 -270.5q-19 -87 -15.5 -155.5t30 -115t77 -71t125.5 -24.5q65 0 127 17.5t121 43.5l31 -131
q-89 -45 -174.5 -68t-173.5 -23q-120 0 -197 39.5t-115.5 111t-42.5 170t21 215.5z" />
    <glyph glyph-name="afii10084" unicode="&#x442;" horiz-adv-x="925" 
d="M192 850l34 161h902l-34 -161h-355l-180 -850h-193l180 850h-354z" />
    <glyph glyph-name="afii10085" unicode="&#x443;" horiz-adv-x="1054" 
d="M102 -381q36 36 78.5 81t87 95t88.5 102.5t82 102.5h-30q-47 132 -78 259t-47.5 252t-20.5 249.5t4 250.5l209 10q-10 -112 -9.5 -227t11 -225.5t30.5 -213t49 -188.5h11q81 105 151 221.5t126.5 230t99 217.5t68.5 185l203 -10q-27 -82 -65.5 -172t-85 -182.5
t-98.5 -184t-106.5 -176.5t-109 -160.5t-105.5 -135.5q-32 -44 -80.5 -105.5t-102 -127.5t-107 -129.5t-95.5 -111.5z" />
    <glyph glyph-name="afii10087" unicode="&#x445;" horiz-adv-x="1009" 
d="M48 0q17 33 36.5 66.5t43.5 69.5t52.5 76t64.5 86q35 45 67.5 79t62.5 61.5t57 50t51 43.5q-38 57 -75 112t-60 118q-52 145 -61 249l210 3q4 -54 12 -95.5t23 -90.5q18 -57 45 -101t55 -79h8q23 19 44.5 38.5t42.5 40.5t43 46t46 55q38 47 64.5 90t50.5 96l209 -3
q-16 -33 -32 -61t-34.5 -56.5t-42.5 -60t-55 -70.5q-34 -41 -64 -72t-58 -57t-56 -50t-58 -52q13 -17 31.5 -42.5t38 -56.5t37.5 -65.5t30 -68.5q22 -62 34 -103t19 -73t11 -60t10 -63l-214 -3q-1 24 -3.5 48t-7.5 50.5t-13 57t-21 67.5q-9 27 -21 55.5t-25.5 55.5t-27.5 50
t-26 37h-9q-17 -14 -40 -35.5t-48.5 -48t-51.5 -56.5t-48 -61q-30 -41 -51 -72t-36 -56.5t-26.5 -47.5t-21.5 -44z" />
    <glyph glyph-name="afii10078" unicode="&#x43c;" horiz-adv-x="1376" 
d="M93 0q29 118 62.5 234.5t65.5 223.5q23 77 48 154t49.5 149t47 135.5t41.5 114.5h271l68 -708h12l367 708h271q-5 -109 -16 -242t-31 -307q-8 -66 -15.5 -125.5t-16 -115t-17 -110t-17.5 -111.5h-197q6 30 12.5 74t13.5 94.5t14.5 104t13.5 103.5q9 69 16 131t11.5 114
t6 91t1.5 61h-12l-385 -729h-162l-76 729h-12q-11 -24 -27 -67.5t-34.5 -98t-37.5 -114.5t-35 -116q-17 -59 -31.5 -109.5t-27.5 -96l-25 -87.5t-22 -84h-195z" />
    <glyph glyph-name="afii10079" unicode="&#x43d;" horiz-adv-x="1220" 
d="M149 0l214 1011h193l-88 -417h536l88 417h193l-214 -1011h-193l92 434h-536l-92 -434h-193z" />
    <glyph glyph-name="afii10081" unicode="&#x43f;" horiz-adv-x="1220" 
d="M1071 0h-193l180 851h-536l-180 -851h-193l214 1011h922z" />
    <glyph glyph-name="afii10086" unicode="&#x444;" horiz-adv-x="1469" 
d="M543 -446l94 444q-32 -6 -68.5 -11t-72.5 -5q-91 0 -160 42.5t-111 115.5t-54.5 170t10.5 205q24 114 80 209t130.5 164t161 107t171.5 38q38 0 71 -5t59 -11l84 399h192l-84 -399q26 6 62 11t74 5q85 0 155.5 -38t116 -107t60.5 -164t-9 -209q-23 -108 -76.5 -205
t-126.5 -170t-160.5 -115.5t-177.5 -42.5q-37 0 -71.5 5t-63.5 11l-94 -444h-192zM566 146q31 0 57 3t48 8l149 702q-20 6 -46.5 9t-64.5 3q-57 0 -112.5 -27.5t-102 -75.5t-81 -113t-50.5 -140q-17 -81 -12.5 -148.5t30.5 -116.5t72.5 -76.5t112.5 -27.5zM1129 871
q-38 0 -66 -3t-51 -9l-149 -702q20 -5 45 -8t56 -3q66 0 124 27.5t104.5 76.5t80 116.5t50.5 148.5q16 75 9 140t-33 113t-69.5 75.5t-100.5 27.5z" />
    <glyph glyph-name="afii10088" unicode="&#x446;" horiz-adv-x="1230" 
d="M376 160h530l180 851h193l-180 -850h108l-78 -365h-192l44 204h-832l214 1011h193z" />
    <glyph glyph-name="afii10089" unicode="&#x447;" horiz-adv-x="1077" 
d="M734 0l83 391q-27 -18 -58.5 -36t-68 -32.5t-78 -23t-88.5 -8.5q-99 0 -162.5 29.5t-96.5 83t-37 128t15 164.5l67 315h193l-62 -293q-16 -77 -11.5 -128t26 -82t58.5 -43.5t87 -12.5q73 0 136 24t111 65l100 470h192l-214 -1011h-192z" />
    <glyph glyph-name="afii10090" unicode="&#x448;" horiz-adv-x="1519" 
d="M377 158h329l181 853h190l-181 -853h315l181 853h192l-214 -1011h-1219l214 1011h193z" />
    <glyph glyph-name="afii10091" unicode="&#x449;" horiz-adv-x="1527" 
d="M1434 -204h-192l44 204h-1137l214 1011h193l-181 -853h331l181 853h189l-181 -853h315l181 853h192l-181 -853h109z" />
    <glyph glyph-name="afii10092" unicode="&#x44a;" horiz-adv-x="1029" 
d="M256 1011h374l-85 -402h209q75 0 134.5 -21.5t97.5 -62t52 -98t-1 -129.5q-32 -150 -139 -224t-270 -74h-405l180 850h-181zM445 137h180q99 0 153.5 36.5t74.5 128.5q18 86 -21 129.5t-148 43.5h-168z" />
    <glyph glyph-name="afii10094" unicode="&#x44c;" horiz-adv-x="980" 
d="M371 137h178q51 0 89.5 8.5t67 28t46.5 51t28 77.5q18 87 -21.5 130t-149.5 43h-167zM556 1011l-85 -402h212q72 0 130.5 -20.5t97.5 -60t54 -97.5t-1 -132q-16 -77 -52 -133t-88.5 -93t-120.5 -55t-148 -18h-406l214 1011h193z" />
    <glyph glyph-name="afii10093" unicode="&#x44b;" horiz-adv-x="1425" 
d="M371 137h178q51 0 89.5 8.5t67 28t46.5 51t28 77.5q18 87 -21.5 130t-149.5 43h-167zM556 1011l-85 -402h212q72 0 130.5 -20.5t97.5 -60t54 -97.5t-1 -132q-16 -77 -52 -133t-88.5 -93t-120.5 -55t-148 -18h-406l214 1011h193zM1083 0l214 1011h192l-214 -1011h-192z
" />
    <glyph glyph-name="afii10096" unicode="&#x44e;" horiz-adv-x="1540" 
d="M149 0l214 1011h193l-88 -418h183q29 89 80.5 169t122 140t158.5 95.5t192 35.5q91 0 170.5 -32.5t133 -97t73.5 -162t-7 -226.5q-26 -122 -79.5 -220t-129.5 -168t-173 -107.5t-210 -37.5q-100 0 -173 31t-119.5 88t-65 137.5t-9.5 179.5h-185l-88 -418h-193zM800 515
q-19 -87 -12 -156t36 -117t78 -73.5t114 -25.5q66 0 125 26t107.5 74.5t84 117.5t53.5 154q16 77 8.5 142.5t-36 113.5t-76.5 75t-112 27q-65 0 -125 -26.5t-109 -74t-84.5 -113.5t-51.5 -144z" />
    <glyph glyph-name="afii10098" unicode="&#x491;" horiz-adv-x="853" 
d="M847 1011l44 204h193l-78 -365h-484l-180 -850h-193l214 1011h484z" />
    <glyph glyph-name="afii10102" unicode="&#x455;" horiz-adv-x="883" 
d="M168 219q82 -45 153 -62t141 -17q40 0 75.5 12.5t64 33t47.5 46.5t25 53q6 24 1.5 45t-24 41.5t-57 41.5t-99.5 46q-59 22 -110 45t-86.5 55t-50 78t0.5 116q14 69 51.5 121t93 87.5t125.5 53.5t149 18q97 0 171.5 -19t139.5 -57l-85 -137q-65 28 -117.5 40.5
t-106.5 12.5q-99 0 -159.5 -31t-75.5 -100q-7 -34 8.5 -55t44 -35.5t66 -26t74.5 -24.5q77 -28 128 -60t78.5 -71t33 -86t-6.5 -104q-13 -62 -51 -116t-94.5 -94.5t-127.5 -64t-151 -23.5q-66 0 -120.5 9t-99 22.5t-79 30t-59.5 31.5z" />
    <glyph glyph-name="afii10103" unicode="&#x456;" horiz-adv-x="492" 
d="M150 0l214 1011h192l-214 -1011h-192zM537 1377q59 0 84.5 -25t14.5 -77q-10 -45 -43.5 -73t-96.5 -28q-123 0 -101 103q11 52 47 76t95 24z" />
    <glyph glyph-name="afii10104" unicode="&#x457;" horiz-adv-x="492" 
d="M150 0l214 1011h192l-214 -1011h-192zM369 1345q103 0 84 -89q-8 -38 -36.5 -62.5t-83.5 -24.5q-106 0 -87 89q10 46 41 66.5t82 20.5zM699 1345q103 0 84 -89q-8 -38 -36.5 -62.5t-82.5 -24.5q-106 0 -87 89q10 46 41 66.5t81 20.5z" />
    <glyph glyph-name="afii10105" unicode="&#x458;" horiz-adv-x="492" 
d="M-194 -182q93 -36 171 -34q60 2 103.5 49t63.5 139l220 1039h193l-223 -1053q-11 -49 -35 -106.5t-68 -107.5t-110.5 -83.5t-160.5 -33.5q-40 0 -75.5 6t-64.5 14.5t-51 17t-34 14.5zM539 1377q119 0 98 -102q-10 -45 -43 -73t-96 -28q-124 0 -102 103q11 52 47.5 76
t95.5 24z" />
    <glyph glyph-name="afii10100" unicode="&#x453;" horiz-adv-x="858" 
d="M1040 1011l-34 -161h-484l-180 -850h-193l214 1011h677zM656 1195l297 293l123 -98l-343 -262z" />
    <glyph glyph-name="afii10099" unicode="&#x452;" 
d="M841 1166h-252l-42 -201q76 29 162.5 48.5t177.5 19.5q97 0 155.5 -31t86.5 -82.5t30 -119.5t-14 -142l-141 -665q-11 -49 -35.5 -107t-68.5 -108t-111 -83.5t-161 -33.5q-39 0 -74.5 6t-64 14.5t-50.5 17.5t-34 15l69 138q95 -36 172 -33q60 2 104 49t64 138l135 638
q8 38 10 77.5t-10 72t-43 53t-88 20.5q-39 0 -83.5 -10.5t-87 -25.5t-80 -32.5t-63.5 -32.5l-162 -766h-193l247 1166h-164l29 137h164l24 113h193l-24 -113h252z" />
    <glyph glyph-name="afii10108" unicode="&#x45b;" horiz-adv-x="1142" 
d="M448 1443h193l-108 -510q31 15 72.5 32.5t88 32.5t96 25t96.5 10q94 0 150.5 -35.5t83.5 -91.5t28.5 -124.5t-12.5 -135.5l-137 -646h-190l137 647q3 12 6 34t2.5 47t-7 50.5t-23 46.5t-46.5 34t-76 13q-32 0 -75.5 -10t-87.5 -24.5t-82 -31.5t-58 -30l-164 -776h-193z
M923 1166h-608l29 137h608z" />
    <glyph glyph-name="afii10106" unicode="&#x459;" horiz-adv-x="1745" 
d="M1329 1011l-85 -402h212q72 0 130.5 -20.5t97.5 -60t54 -97.5t-1 -132q-16 -77 -52 -133t-88.5 -93t-120.5 -55t-148 -18h-405l180 850h-421l-14 -68q-8 -37 -21 -91t-31.5 -117t-42 -131.5t-53 -134.5t-63.5 -125t-74 -103.5t-85 -71t-96 -26.5q-23 0 -46.5 2.5
t-43.5 6.5t-34.5 7t-18.5 5l42 151q8 0 17 -2.5t19.5 -5.5t23.5 -5t29 -1q40 2 77.5 47.5t70 115t59.5 153.5t48.5 162.5t35.5 142.5t21 93l33 157h794zM1143 137h179q50 0 88.5 8.5t67 28t46.5 51t28 77.5q18 87 -21.5 130t-149.5 43h-167z" />
    <glyph glyph-name="afii10107" unicode="&#x45a;" horiz-adv-x="1695" 
d="M1285 1011l-85 -402h212q72 0 130.5 -20.5t97.5 -60t54 -97.5t-1 -132q-16 -77 -52 -133t-89 -93t-121 -55t-148 -18h-405l92 434h-536l-92 -434h-193l214 1011h193l-88 -417h536l88 417h193zM1100 137h178q50 0 88.5 8.5t67 28t46.5 51t28 77.5q18 86 -21.5 129.5
t-149.5 43.5h-166z" />
    <glyph glyph-name="afii10109" unicode="&#x45c;" horiz-adv-x="1078" 
d="M1180 1011q-81 -134 -179.5 -242t-210.5 -191q15 -69 41.5 -143t60 -145.5t72.5 -136t80 -114.5l-155 -94q-41 34 -83.5 96.5t-79 137t-65 151.5t-41.5 140q-96 -52 -196 -84l-82 -386h-193l214 1011h193l-93 -439q87 32 160 77.5t136 101.5t117 121.5t102 138.5h202v0z
M725 1165l297 293l123 -98l-343 -262z" />
    <glyph glyph-name="afii10110" unicode="&#x45e;" horiz-adv-x="1054" 
d="M102 -381q36 36 78.5 81t87 95t88.5 102.5t82 102.5h-30q-47 132 -78 259t-47.5 252t-20.5 249.5t4 250.5l209 10q-10 -112 -9.5 -227t11 -225.5t30.5 -213t49 -188.5h11q81 105 151 221.5t126.5 230t99 217.5t68.5 185l203 -10q-27 -82 -65.5 -172t-85 -182.5
t-98.5 -184t-106.5 -176.5t-109 -160.5t-105.5 -135.5q-32 -44 -80.5 -105.5t-102 -127.5t-107 -129.5t-95.5 -111.5zM796 1153q-86 0 -134.5 23.5t-72.5 59.5t-31 77.5t-10 77.5l132 29q1 -23 4.5 -48.5t17 -47.5t41.5 -36t79 -14t85 14.5t56.5 36t37 47t25.5 48.5l120 -29
q-19 -37 -44 -79t-64 -77t-97.5 -58.5t-144.5 -23.5z" />
    <glyph glyph-name="afii10053" unicode="&#x404;" horiz-adv-x="1168" 
d="M406 629q-39 -242 44 -360t286 -118q87 0 175.5 26.5t192.5 76.5l39 -139q-116 -63 -237.5 -98t-230.5 -35q-140 0 -243 40t-163.5 124.5t-75 215.5t24.5 314q41 194 112.5 333t169 228.5t218 131.5t260.5 42q115 0 221 -36.5t191 -97.5l-97 -139q-79 51 -159.5 77.5
t-166.5 26.5q-391 0 -524 -452h553l-34 -161h-556z" />
    <glyph glyph-name="afii10047" unicode="&#x42d;" horiz-adv-x="1174" 
d="M513 790h553q59 452 -331 452q-87 0 -178 -26.5t-193 -77.5l-37 139q55 30 113.5 55t118 42.5t119.5 27t117 9.5q139 0 242 -42t162.5 -131.5t72 -228.5t-28.5 -333q-39 -183 -108.5 -314t-166 -215.5t-217 -124.5t-259.5 -40q-109 0 -216 35t-196 98l97 139
q83 -51 161 -77t166 -26q202 0 334.5 118t195.5 360h-555z" />
    <glyph glyph-name="afii10097" unicode="&#x44f;" horiz-adv-x="997" 
d="M76 52q108 82 191 162t151 165q-36 15 -67.5 44t-52.5 69.5t-28 90.5t5 106q18 82 61.5 142.5t103.5 100.5t131 59.5t143 19.5h354l-214 -1010h-187l73 345h-144q-5 0 -10 0.5t-10 1.5q-34 -49 -77 -101t-91.5 -104t-101 -100.5t-105.5 -90.5zM849 859h-176
q-37 0 -73 -10t-66.5 -30.5t-53 -53t-31.5 -77.5q-8 -38 -2.5 -71.5t23 -59t46 -40.5t67.5 -15h190z" />
    <glyph glyph-name="afii10101" unicode="&#x454;" horiz-adv-x="919" 
d="M183 518q30 143 84.5 241.5t127.5 159t161 87.5t185 27q80 0 157.5 -17t147.5 -62l-83 -143q-48 29 -104 44t-112 15q-137 0 -224 -65.5t-133 -213.5h401l-33 -158h-401q-19 -150 40 -217.5t202 -67.5q65 0 122.5 17.5t111.5 40.5l24 -144q-81 -43 -166.5 -61.5
t-173.5 -18.5q-120 0 -197.5 35.5t-117 104t-43 168t23.5 228.5z" />
    <glyph glyph-name="afii10095" unicode="&#x44d;" horiz-adv-x="897" 
d="M934 518q-27 -129 -73.5 -228.5t-114.5 -168t-161 -104t-213 -35.5q-88 0 -165.5 18.5t-140.5 61.5l84 144q45 -23 95 -40.5t115 -17.5q71 0 128.5 16.5t102 51t77.5 88.5t56 129h-401l33 158h401q16 148 -43 213.5t-196 65.5q-56 0 -118 -15t-122 -44l-23 143
q90 45 174.5 62t164.5 17q97 0 173.5 -27t124 -87.5t60 -159t-17.5 -241.5z" />
    <glyph glyph-name="afii10073" unicode="&#x437;" horiz-adv-x="783" 
d="M238 954q41 22 80 37t79 24.5t81.5 13.5t88.5 4q163 0 233.5 -71t43.5 -196q-17 -80 -59.5 -136.5t-124.5 -94.5q31 -13 56.5 -34t41.5 -51.5t20 -72t-7 -94.5q-18 -83 -64 -140t-106.5 -92t-128.5 -51t-131 -17q-48 -2 -92.5 4t-84 17.5t-74 26.5t-61.5 33l85 140
q26 -15 49.5 -26.5t49.5 -19t58 -11.5t76 -4q36 0 74.5 7.5t71.5 25t58 46.5t34 72q5 24 2.5 50.5t-18.5 49t-48 37.5t-85 15h-144l32 148l138 1q31 0 61 5.5t55 21.5t44 44t29 74q14 64 -20.5 98.5t-121.5 34.5q-29 0 -56.5 -2.5t-57 -9.5t-61.5 -19t-70 -30z" />
    <glyph glyph-name="napostrophe" unicode="&#x149;" horiz-adv-x="1331" 
d="M545 864q39 23 97.5 52t131.5 55t156 44t170 18q97 0 156.5 -31t89 -82.5t32.5 -119.5t-13 -142l-139 -658h-192l137 647q8 38 9 77.5t-13 72t-46 53t-89 20.5q-40 0 -84 -10.5t-86.5 -25.5t-80 -32.5t-63.5 -31.5l-163 -770h-193zM348 1043q118 0 98 -101l-2 -5
q-12 -61 -34.5 -113.5t-51.5 -98t-62.5 -84t-67.5 -70.5l-84 42q46 64 81.5 124.5t45.5 106.5q-44 7 -59 31.5t-6 68.5q11 51 47 75t95 24z" />
    <glyph glyph-name="lcommaaccent" unicode="&#x13c;" horiz-adv-x="492" 
d="M149 0l306 1443h193l-306 -1443h-193zM217 -57q118 0 98 -101l-2 -5q-12 -61 -34.5 -113.5t-51.5 -98t-62.5 -84t-67.5 -70.5l-84 42q46 64 81.5 124.5t45.5 106.5q-44 7 -59 31.5t-6 68.5q11 51 47 75t95 24z" />
    <glyph glyph-name="g.end" horiz-adv-x="1105" 
d="M179 504q29 138 92.5 238t147.5 164.5t181.5 95.5t195.5 31q52 0 103.5 -7.5t99 -20.5t89.5 -29t75 -34l-194 -911l-2 -1h2l-2 -8q-26 -123 -76 -212t-119 -146.5t-154.5 -85t-183.5 -27.5q-87 0 -177.5 18t-174.5 71l80 126q72 -37 135 -48.5t124 -11.5q68 0 124 14.5
t100 49t75.5 93t50.5 146.5l18 85q-68 -45 -140 -75.5t-163 -30.5q-92 0 -162 31t-111.5 94.5t-51.5 161t18 229.5zM367 508q-20 -95 -15 -163t31 -111.5t73 -64.5t111 -21q31 0 66 7.5t69 20t64.5 29.5t54.5 36l125 589q-10 6 -28 13t-42 14t-53 11.5t-62 4.5
q-59 0 -120 -20t-115 -64t-96 -113t-63 -168z" />
    <glyph glyph-name="a.alt1000" horiz-adv-x="1033" 
d="M349 939q37 18 77.5 35t86 30t96.5 21t109 8q82 0 148.5 -17.5t109 -58t58 -106t-5.5 -162.5l-132 -689h-183l5 105q-20 -15 -53.5 -36t-76.5 -40.5t-92.5 -33t-101.5 -13.5q-67 0 -121 17t-88.5 53.5t-46.5 94t5 139.5q16 77 56 131.5t96 90.5t125.5 55t145.5 25l255 21
l19 89q7 34 4 65.5t-22.5 56t-59.5 39t-107 14.5q-69 0 -139.5 -21t-135.5 -47zM795 489l-226 -18q-35 -3 -73 -12t-72 -28t-60 -51t-36 -81q-11 -53 -3.5 -87.5t29 -54.5t54 -27.5t70.5 -7.5q40 0 79.5 12t74.5 29t63.5 36t45.5 33z" />
    <glyph glyph-name="ae.alt1000" horiz-adv-x="1194" 
d="M349 939q37 18 77.5 35t86 30t96.5 21t109 8q107 0 185.5 -30.5t113.5 -103.5q78 67 173 100.5t203 33.5q85 0 151.5 -25.5t109.5 -69.5t60 -105t2 -131q-12 -58 -39.5 -104.5t-74 -79.5t-114 -50.5t-161.5 -17.5h-346l-7 -40q-8 -68 -0.5 -119t35.5 -85t78 -51.5
t128 -17.5q77 0 144.5 19.5t130.5 46.5l27 -125q-45 -23 -89.5 -40.5t-89.5 -30t-92 -19t-99 -6.5q-155 0 -244 59l-7 -41h-183l5 105q-20 -15 -53.5 -36t-76.5 -40.5t-92.5 -33t-101.5 -13.5q-67 0 -121 17t-88.5 53.5t-46.5 94t5 139.5q16 77 56 131.5t96 90.5t125.5 55
t145.5 25l255 21l19 89q7 34 4 65.5t-22.5 56t-59.5 39t-107 14.5q-69 0 -139.5 -21t-135.5 -47zM795 489l-226 -18q-35 -3 -73 -12t-72 -28t-60 -51t-36 -81q-11 -53 -3.5 -87.5t29 -54.5t54 -27.5t70.5 -7.5q40 0 79.5 12t74.5 29t63.5 36t45.5 33zM1359 887
q-66 0 -122 -24.5t-100.5 -67t-77 -100.5t-52.5 -124h311q45 0 82 4.5t64.5 18t46 37t26.5 61.5q10 50 -1 86.5t-36.5 60.5t-62.5 36t-78 12z" />
    <glyph glyph-name="e.1000" horiz-adv-x="1045" 
d="M373 450q-12 -77 -8 -135.5t30.5 -98t78.5 -59.5t135 -20q77 0 144.5 19.5t130.5 46.5l28 -125q-46 -23 -90 -40.5t-89.5 -30t-92.5 -19t-99 -6.5q-236 0 -316 135.5t-23 401.5q27 127 82 223.5t131.5 161t171.5 97t201 32.5q84 0 150.5 -25.5t109.5 -69.5t60 -105
t2 -131q-12 -58 -39.5 -104.5t-74 -79.5t-114 -50.5t-161.5 -17.5h-348zM753 887q-66 0 -122 -24.5t-100.5 -67t-77 -100.5t-52.5 -124h311q45 0 82 4.5t64.5 18t46 37t26.5 61.5q10 50 -1 86.5t-36.5 60.5t-62.5 36t-78 12z" />
    <glyph glyph-name="afii10067.1000" horiz-adv-x="1032" 
d="M149 0l214 1011h429q78 0 139 -16t100 -48.5t54 -81t1 -113.5q-17 -83 -71 -137.5t-128 -81.5l-2 -8q82 -22 119.5 -82.5t17.5 -155.5q-16 -72 -51.5 -126t-88.5 -90t-122.5 -53.5t-151.5 -17.5h-459zM371 140h223q47 0 86 8t69 26.5t50 48.5t29 75q17 84 -27 121.5
t-141 37.5h-221zM466 588h195q94 0 156 37.5t79 114.5q9 42 -1 68t-34 41t-60 20.5t-81 5.5h-193z" />
    <glyph glyph-name="afii10073.1000" horiz-adv-x="783" 
d="M238 954q41 22 80 37t79 24.5t81.5 13.5t88.5 4q163 0 233.5 -71t43.5 -196q-17 -80 -59.5 -136.5t-124.5 -94.5q31 -13 56.5 -34t41.5 -51.5t20 -72t-7 -94.5q-18 -83 -64 -140t-106.5 -92t-128.5 -51t-131 -17q-48 -2 -92.5 4t-84 17.5t-74 26.5t-61.5 33l83 129
q26 -15 49.5 -26t49.5 -19t58 -12t76 -4q36 0 74.5 8t72.5 27t59.5 50.5t35.5 77.5q6 26 3 54.5t-18.5 52.5t-47.5 39.5t-85 15.5h-144l27 127h138q31 0 61.5 6.5t56.5 23t45.5 46t29.5 76.5q14 68 -21 105t-122 37q-29 0 -56.5 -2.5t-57 -9.5t-61.5 -18.5t-70 -30.5z" />
    <glyph glyph-name="afii10095.1000" horiz-adv-x="897" 
d="M934 518q-27 -129 -73.5 -228.5t-114.5 -168t-161 -104t-213 -35.5q-88 0 -165.5 18.5t-140.5 61.5l82 132q44 -23 94 -40.5t115 -17.5q146 0 238.5 73.5t139.5 237.5h-409l27 131h408q12 82 2 140t-40 94.5t-81 53t-121 16.5q-56 0 -118 -15t-122 -43l-26 130
q90 45 174.5 62t164.5 17q97 0 173.5 -27t124 -87.5t60 -159t-17.5 -241.5z" />
    <glyph glyph-name="g.alt1000" horiz-adv-x="1040" 
d="M276 641q17 82 62 153.5t110 124.5t146 83.5t171 30.5q45 0 89.5 -10.5t83.5 -30.5q37 24 90.5 46.5t119.5 22.5q39 0 64.5 -6.5t38.5 -13.5l-52 -119q-8 2 -23 4t-35 2q-27 0 -51 -8.5t-44 -19.5q32 -48 44 -112.5t-5 -147.5q-20 -94 -66 -167.5t-110.5 -124t-144 -77
t-166.5 -26.5q-51 0 -95 8.5t-81 25.5q-11 -11 -19 -24.5t-13 -33.5q-8 -36 15 -50t67 -19l238 -29q78 -7 127.5 -29.5t75.5 -58.5t31 -83.5t-7 -104.5q-16 -74 -56.5 -132.5t-105 -99.5t-152 -62.5t-196.5 -21.5q-95 0 -169.5 18t-124 52t-70.5 84t-7 115q6 28 16 50.5
t21 40t20.5 30.5t14.5 22l147 -31q-4 -6 -11 -15t-14.5 -21t-14.5 -26.5t-10 -31.5q-6 -30 5 -56.5t40.5 -45.5t76.5 -30t112 -11q251 0 287 173q3 15 6 36.5t-6 42t-35 37.5t-80 24l-253 29q-108 9 -147 57t-22 125q11 53 41 91.5t68 69.5q-38 50 -50 120t8 161zM451 640
q-12 -56 -4 -101.5t32.5 -78t63 -50.5t86.5 -18t93.5 18.5t83.5 51.5t65 78.5t39 99.5q10 49 2 92t-32 75.5t-61.5 51.5t-86.5 19t-95 -18.5t-84 -50.5t-65 -75.5t-37 -93.5z" />
    <glyph glyph-name="ij" unicode="&#x133;" horiz-adv-x="941" 
d="M163 0l214 1011h192l-214 -1011h-192zM550 1377q59 0 84.5 -25t14.5 -77q-10 -45 -43.5 -73t-96.5 -28q-123 0 -101 103q11 52 47 76t95 24zM252 -182q93 -36 171 -34q60 2 103.5 49t63.5 139l220 1039h193l-223 -1053q-11 -49 -35 -106.5t-68 -107.5t-110.5 -83.5
t-160.5 -33.5q-40 0 -75.5 6t-64.5 14.5t-51 17t-34 14.5zM985 1377q119 0 98 -102q-10 -45 -43 -73t-96 -28q-124 0 -102 103q11 52 47.5 76t95.5 24z" />
    <glyph glyph-name="IJ" unicode="&#x132;" horiz-adv-x="1202" 
d="M198 0l296 1393h201l-296 -1393h-201zM1121 371q-20 -95 -51.5 -168t-79 -122t-113 -74t-153.5 -25q-36 0 -70.5 5.5t-66 14.5t-59.5 20.5t-50 22.5l74 152q34 -17 77 -31.5t85 -14.5q53 0 87.5 14.5t57 41t35.5 63.5t22 81l222 1042h201z" />
    <glyph glyph-name="g.alt" horiz-adv-x="1063" 
d="M276 641q17 82 62 153.5t110 124.5t146 83.5t171 30.5q45 0 89.5 -10.5t83.5 -30.5q37 24 90.5 46.5t119.5 22.5q39 0 64.5 -6.5t38.5 -13.5l-52 -119q-8 2 -23 4t-35 2q-27 0 -51 -8.5t-44 -19.5q32 -48 44 -112.5t-5 -147.5q-20 -94 -66 -168t-110.5 -125t-144.5 -78
t-167 -27q-100 0 -176 34q-17 -18 -24 -52q-8 -35 15 -49.5t68 -19.5l253 -29q69 -7 114 -30t69 -59.5t28.5 -84.5t-7.5 -105q-16 -74 -56.5 -132.5t-105 -99.5t-152 -62.5t-196.5 -21.5q-95 0 -169.5 18t-124 52t-70.5 84t-7 115q6 28 16 50.5t21 40t20.5 30.5t14.5 22
l158 -31q-4 -6 -11 -15t-14.5 -21t-14.5 -26.5t-10 -31.5q-6 -28 5 -52t39 -42t74 -28t111 -10q247 0 281 161q3 14 5.5 33.5t-7.5 38t-37 34.5t-82 23l-249 30q-106 9 -144.5 64t-20.5 140q11 54 38.5 90t63.5 65q-35 51 -45.5 119.5t8.5 156.5zM459 640q-12 -54 -4 -98
t31.5 -75.5t60.5 -48.5t84 -17q46 0 90 18t80.5 50t63 75.5t37.5 95.5q10 47 2 89t-31 73.5t-59.5 49.5t-83.5 18t-91.5 -18t-81 -49t-62.5 -73t-36 -90z" />
    <glyph glyph-name="s.1000" horiz-adv-x="883" 
d="M165 210q40 -23 78.5 -37.5t75 -22.5t73 -11t73.5 -3q44 0 79.5 12t62 32.5t43.5 47t24 56.5t3.5 53.5t-23 44t-58 40.5t-101.5 44q-59 21 -110.5 41.5t-87 51.5t-49.5 77t1 117q15 70 52.5 122.5t93.5 87.5t129 52.5t158 17.5t156.5 -18.5t138.5 -57.5l-83 -134
q-66 29 -118.5 42.5t-110.5 13.5q-94 0 -155 -34t-76 -103q-8 -36 6.5 -57.5t42.5 -36.5t66 -26t77 -24q77 -26 128 -55t79 -66.5t34 -86t-7 -112.5q-14 -65 -50 -119.5t-91 -93.5t-127 -61t-157 -22q-64 0 -119.5 9.5t-101 23.5t-80 30t-55.5 30z" />
    <glyph glyph-name="oe.1000" horiz-adv-x="1834" 
d="M201 516q25 119 78 214.5t128.5 163t173 103.5t211.5 36q91 0 171.5 -27t135 -88.5t74 -160.5t-10.5 -242q-27 -129 -81 -228.5t-130.5 -167t-173 -102.5t-208.5 -35t-194 34t-130 101.5t-60 167t16 231.5zM389 515q-21 -101 -14.5 -172t35.5 -115.5t79 -64.5t115 -20
q66 0 124 21t106 66t83.5 115.5t56.5 169.5q19 92 12 159.5t-36.5 111.5t-78.5 65.5t-112 21.5q-66 0 -124.5 -22t-107 -66.5t-84 -111.5t-54.5 -158zM1163 450q-12 -77 -8 -135.5t30.5 -98t78.5 -59.5t135 -20q77 0 144.5 19.5t130.5 46.5l28 -125q-46 -23 -90 -40.5
t-89.5 -30t-92.5 -19t-99 -6.5q-236 0 -316 135.5t-23 401.5q27 127 82 223.5t131.5 161t171.5 97t201 32.5q84 0 150.5 -25.5t109.5 -69.5t60 -105t2 -131q-12 -58 -39.5 -104.5t-74 -79.5t-114 -50.5t-161.5 -17.5h-348zM1543 887q-66 0 -122 -24.5t-100.5 -67t-77 -100.5
t-52.5 -124h311q45 0 82 4.5t64.5 18t46 37t26.5 61.5q10 50 -1 86.5t-36.5 60.5t-62.5 36t-78 12z" />
    <glyph glyph-name="a.alt" horiz-adv-x="1023" 
d="M355 939q37 18 77.5 35t86 30t96.5 21t110 8q81 0 147.5 -17.5t109 -58t58 -106t-5.5 -162.5l-146 -689h-166l-4 97q-19 -15 -49.5 -34.5t-71 -37.5t-90 -30.5t-107.5 -12.5q-67 0 -120.5 16t-87.5 52.5t-45.5 95.5t6.5 145q16 75 55.5 129.5t95 91.5t125 57t145.5 26
l253 22l17 81q7 34 4.5 65.5t-21.5 56t-58.5 39t-106.5 14.5q-70 0 -140.5 -21t-135.5 -47zM798 484l-224 -19q-33 -3 -70 -12t-69.5 -28t-57 -50t-34.5 -78q-11 -50 -3 -81.5t28 -49.5t50.5 -25t66.5 -7q40 0 77.5 7.5t70.5 19.5t61 27t48 30z" />
    <glyph glyph-name="zero.fitted" horiz-adv-x="1213" 
d="M1269 701q-20 -92 -50 -181.5t-71 -169.5t-95 -147.5t-121 -116.5t-148.5 -76.5t-178.5 -27.5q-119 0 -204.5 41.5t-133.5 128.5t-55 221.5t33 320.5q17 82 45 167t68 164.5t93 149.5t121 122.5t151.5 83t184.5 30.5q98 0 168 -28.5t116 -78.5t71 -117.5t32 -146.5
t-0.5 -165.5t-25.5 -173.5zM1074 696q33 152 33.5 257t-27 170t-81 94t-128.5 29q-68 0 -122.5 -24t-98.5 -65t-77.5 -95t-59 -114.5t-43.5 -124.5t-31 -123q-13 -60 -22 -124.5t-10 -126t9 -116.5t36.5 -96.5t71.5 -65.5t114 -24q74 0 139.5 29t121 94t99.5 169.5t76 256.5
z" />
    <glyph glyph-name="one.fitted" horiz-adv-x="1213" 
d="M561 1224l36 169h416l-296 -1393h-202l260 1224h-214zM353 182h602l-38 -182h-602z" />
    <glyph glyph-name="two.fitted" horiz-adv-x="1213" 
d="M148 0l31 150q172 141 318 261.5t255.5 225t178 194.5t85.5 171q7 30 8 71.5t-16.5 79t-60 63.5t-121.5 26q-51 0 -94 -6.5t-84.5 -19t-84 -32t-92.5 -46.5l-40 136q54 32 107.5 57.5t109.5 43t115.5 27t126.5 9.5q201 0 285.5 -94t46.5 -277q-17 -80 -55.5 -155
t-94 -146.5t-125 -141.5t-149 -140.5t-166.5 -141.5t-176 -146h628l-35 -169h-901z" />
    <glyph glyph-name="three.fitted" horiz-adv-x="1213" 
d="M414 1283q56 30 109 53.5t107 40t111 25.5t120 9q109 0 189 -23.5t128 -68t64.5 -108t-0.5 -143.5q-12 -54 -32 -102.5t-51.5 -90t-76 -77t-104.5 -64.5q46 -17 82 -46.5t58 -72t28 -98.5t-9 -125q-26 -121 -85.5 -199.5t-139.5 -124t-173 -64.5t-185 -21
q-57 -2 -113.5 5.5t-109 22.5t-100 37.5t-85.5 51.5l96 141q38 -23 72.5 -39.5t72.5 -28t82.5 -17t103.5 -5.5q64 0 123.5 12.5t109 41.5t85 77t50.5 119q8 39 0.5 81t-38.5 76.5t-88 57t-147 22.5h-172l33 156l168 1q65 0 121 14t100.5 43.5t75 76.5t44.5 114
q11 50 -1.5 87.5t-44 62t-80 37t-109.5 12.5q-43 0 -84 -6t-83.5 -18t-87.5 -30.5t-96 -43.5z" />
    <glyph glyph-name="four.fitted" horiz-adv-x="1213" 
d="M716 0l63 297h-599l36 170l612 927l209 -1l-607 -924h385l66 309h190l-66 -309h164l-36 -172h-164l-63 -297h-190z" />
    <glyph glyph-name="five.fitted" horiz-adv-x="1213" 
d="M234 269q43 -26 82.5 -48t80 -37.5t85 -24t97.5 -8.5q145 0 239 71.5t121 199.5q13 63 0 109.5t-49 78t-94 47t-133 15.5h-318l154 721h749l-35 -162h-555l-86 -403l180 -1q102 0 183 -26.5t132.5 -78t70.5 -127t-2 -173.5q-24 -116 -81 -199t-136 -136.5t-175.5 -79
t-200.5 -25.5q-67 0 -125.5 13.5t-109 34.5t-92.5 47t-76 52z" />
    <glyph glyph-name="six.fitted" horiz-adv-x="1213" 
d="M260 641q39 183 106.5 326.5t160 242t207.5 150t250 51.5q76 0 134 -10t101 -25t73.5 -32.5t53.5 -33.5l-102 -147l-42.5 25.5t-54 25.5t-73.5 20t-100 8q-102 0 -178.5 -37t-132 -95.5t-92.5 -131t-59 -143.5q99 41 191 57.5t166 16.5q106 0 178.5 -33.5t113 -93.5
t50 -142.5t-11.5 -181.5q-23 -107 -73.5 -194.5t-125.5 -150t-173.5 -97t-217.5 -34.5q-135 0 -218.5 46.5t-123 132.5t-39.5 207.5t32 272.5zM464 663q-134 -511 180 -511q67 0 125 20.5t104.5 58.5t79 93.5t47.5 125.5q13 63 8.5 116.5t-29 92.5t-69 61t-110.5 22
q-41 0 -88.5 -7.5t-93.5 -19t-86.5 -25.5t-67.5 -27z" />
    <glyph glyph-name="seven.fitted" horiz-adv-x="1213" 
d="M440 1224l36 169h857l-38 -176q-63 -62 -130.5 -147.5t-136 -186.5t-135.5 -213.5t-128 -227t-113.5 -227.5t-92.5 -215h-214q49 115 105.5 230.5t117 227.5t124 218.5t126.5 204.5t125.5 184.5t120.5 158.5h-624z" />
    <glyph glyph-name="eight.fitted" horiz-adv-x="1213" 
d="M200 356q14 67 54.5 126.5t91 109.5t103.5 89t93 65q-29 18 -62.5 47.5t-59.5 69.5t-38.5 90.5t0.5 111.5q18 82 63.5 146.5t114 108.5t157 67t192.5 23q127 0 210 -28.5t128.5 -76.5t57.5 -110.5t-2 -129.5q-13 -61 -44 -111.5t-73 -94t-92.5 -81.5t-103.5 -74
q54 -30 95.5 -65.5t67.5 -77.5t35 -91t-3 -107q-18 -84 -63 -154.5t-117 -120.5t-171 -78t-225 -28q-119 0 -204.5 27t-136.5 76.5t-68.5 118t0.5 152.5zM401 368q-23 -106 39.5 -167t204.5 -61q69 0 127 15.5t102.5 44.5t73 70t39.5 92q13 60 -4.5 103.5t-59 79
t-103.5 66.5t-139 65q-28 -19 -71 -48.5t-85.5 -68.5t-77 -87t-46.5 -104zM577 1057q-11 -53 9.5 -93t61 -72.5t95.5 -58.5t112 -51q38 26 77 51.5t73.5 56t60.5 70.5t38 94q9 42 1.5 78.5t-33.5 63.5t-73 42.5t-116 15.5q-122 0 -203 -48t-103 -149z" />
    <glyph glyph-name="nine.fitted" horiz-adv-x="1213" 
d="M1257 752q-39 -183 -106.5 -326.5t-159.5 -242t-207.5 -150t-250.5 -51.5q-76 0 -133.5 10t-100.5 25t-73.5 33t-53.5 34l101 146q19 -12 42 -25.5t54.5 -25.5t74 -20t100.5 -8q73 0 132.5 20t107 53t84 76.5t64 90.5t46.5 94.5t33 89.5q-97 -48 -193 -69.5t-170 -21.5
q-106 0 -178.5 33.5t-113 93.5t-50 143t11.5 182q23 107 73.5 194.5t125.5 150t173.5 96.5t217.5 34q135 0 218.5 -46.5t123 -132.5t39.5 -207.5t-32 -272.5zM1058 746q27 124 31 216.5t-17.5 154.5t-70.5 93t-127 31q-67 0 -125.5 -20.5t-105 -58.5t-79 -93.5t-47.5 -125.5
q-14 -63 -9 -116.5t29.5 -92.5t69 -61t110.5 -22q41 0 88.5 9t94 23t88 30.5t70.5 32.5z" />
    <glyph glyph-name="zerooldstyle" unicode="&#xf730;" horiz-adv-x="955" 
d="M176 505q30 141 83.5 241.5t122 164t149 93t164.5 29.5t151.5 -29.5t109.5 -93t52.5 -164t-19.5 -241.5t-83 -241t-122 -163t-149 -92.5t-164 -29.5t-152 29.5t-109.5 92.5t-52.5 163t19 241zM354 506q-21 -97 -20 -166t21.5 -113t58.5 -64.5t92 -20.5q53 0 99.5 20.5
t85 64.5t68.5 113t51 166t20 166t-21 113t-58 64.5t-91 20.5q-54 0 -100.5 -20.5t-85.5 -64.5t-69 -113t-51 -166z" />
    <glyph glyph-name="oneoldstyle" unicode="&#xf731;" horiz-adv-x="737" 
d="M290 843l36 169h406l-215 -1012h-192l179 843h-214z" />
    <glyph glyph-name="twooldstyle" unicode="&#xf732;" horiz-adv-x="978" 
d="M125 0l30 142q124 94 239.5 177t207 155.5t150.5 136t71 117.5q4 19 1 44.5t-20.5 48t-52 38t-92.5 15.5q-37 0 -70 -6t-65.5 -18t-64.5 -29t-66 -39l-51 129q39 25 87 47.5t100 39t104.5 26t102.5 9.5q73 0 131.5 -17.5t97 -51.5t53 -85t0.5 -117q-12 -58 -43.5 -112
t-76 -105t-99 -100t-113.5 -96t-119.5 -93.5t-115.5 -91.5h465l-34 -164h-757z" />
    <glyph glyph-name="threeoldstyle" unicode="&#xf733;" horiz-adv-x="1070" 
d="M291 890q49 31 96.5 55.5t97 41.5t103.5 26t117 9q109 0 186 -24t122 -68.5t59 -108t-3 -143.5q-12 -54 -31.5 -101.5t-51 -89t-75.5 -77.5t-105 -66q46 -17 81.5 -47.5t57.5 -73.5t27.5 -98.5t-8.5 -121.5q-26 -121 -83 -199.5t-134 -124.5t-167.5 -64.5t-182.5 -20.5
q-228 -8 -382 109l96 139q36 -22 68 -38.5t67.5 -27.5t77 -16.5t96.5 -5.5q64 0 122.5 14t105.5 44t80.5 77.5t48.5 115.5q9 41 3 84t-34 78t-83.5 57t-145.5 22h-172l34 160h168q65 0 119 14t96 44.5t71 79t44 117.5q10 45 -2 81.5t-41.5 63t-75 41t-103.5 14.5
q-43 0 -80.5 -7t-75 -20.5t-78 -34t-88.5 -47.5z" />
    <glyph glyph-name="fouroldstyle" unicode="&#xf734;" horiz-adv-x="1096" 
d="M585 -390l64 305h-591l35 164l614 933h207l-608 -932h379l65 308h192l-65 -308h159l-36 -165h-159l-64 -305h-192z" />
    <glyph glyph-name="fiveoldstyle" unicode="&#xf735;" horiz-adv-x="1120" 
d="M124 -119q39 -26 74.5 -47t71 -35.5t72.5 -22.5t79 -8q152 0 240.5 70.5t115.5 197.5q26 125 -42.5 186.5t-220.5 61.5h-281l154 727h689l-35 -165h-508l-84 -397l148 -1q102 0 180.5 -27.5t127 -79t65.5 -127.5t-4 -174q-24 -116 -77 -198t-127 -134t-165 -76.5
t-191 -24.5q-63 0 -117 12t-100.5 31t-85.5 43t-72 48z" />
    <glyph glyph-name="sixoldstyle" unicode="&#xf736;" horiz-adv-x="1138" 
d="M237 641q39 183 102.5 326.5t151 242t199 150t246.5 51.5q75 0 129 -10t93 -25t66.5 -32.5t50.5 -33.5l-97 -142q-20 12 -41 26t-49.5 27t-67 21t-93.5 8q-102 0 -176 -38.5t-126.5 -98.5t-86.5 -133.5t-57 -144.5q49 20 92.5 34t83 23t76 13t73.5 4q106 0 178.5 -33.5
t113 -93.5t50 -142.5t-11.5 -181.5q-23 -107 -69 -194.5t-116 -150t-164.5 -97t-213.5 -34.5q-135 0 -216 46.5t-118.5 132.5t-35.5 207.5t34 272.5zM433 665q-66 -258 -25.5 -390t198.5 -132q68 0 124 21.5t99 61.5t72.5 96.5t44.5 127.5q14 66 9 121t-30 94.5t-70 61
t-111 21.5q-41 0 -85 -8t-85 -20t-77.5 -27t-63.5 -28z" />
    <glyph glyph-name="sevenoldstyle" unicode="&#xf737;" horiz-adv-x="1051" 
d="M288 840l37 172h857l-38 -176q-66 -70 -135 -159t-137.5 -190t-134.5 -211t-126 -222t-112 -223t-92 -213h-203q75 172 164 344t184 331t191 299t183 248h-638z" />
    <glyph glyph-name="eightoldstyle" unicode="&#xf738;" horiz-adv-x="1222" 
d="M200 356q14 67 55 127t92 111t105 90.5t95 65.5q-29 18 -63.5 46.5t-61.5 68t-40 89.5t0 111q17 81 63 145t114.5 108.5t157 68t192.5 23.5q127 0 210 -28.5t128.5 -76.5t57.5 -110.5t-2 -129.5q-13 -61 -44.5 -112t-74.5 -94.5t-94 -81.5t-104 -74q54 -30 96.5 -65.5
t69 -77t36 -90.5t-2.5 -107q-18 -84 -63 -154.5t-117 -120.5t-171 -78t-225 -28q-119 0 -204.5 27t-136.5 76.5t-68.5 118t0.5 152.5zM392 372q-11 -53 0.5 -95.5t44.5 -72t85.5 -45.5t123.5 -16q69 0 128.5 15.5t105 45t76 70.5t41.5 92q13 60 -6 103.5t-62.5 78t-107 64.5
t-139.5 63q-28 -18 -72.5 -46.5t-88.5 -66.5t-80.5 -85.5t-48.5 -104.5zM569 1054q-12 -53 9.5 -93.5t63 -72.5t97.5 -58.5t114 -51.5q30 19 70 44.5t78.5 58.5t69 75.5t41.5 96.5q9 43 0.5 79t-36.5 62t-76 41t-118 15q-61 0 -113.5 -12t-93.5 -36t-68.5 -61t-37.5 -87z
" />
    <glyph glyph-name="nineoldstyle" unicode="&#xf739;" horiz-adv-x="1138" 
d="M1118 375q-39 -184 -102.5 -327.5t-151.5 -242t-199.5 -150t-246.5 -51.5q-75 0 -128.5 10t-92 25t-66 32.5t-50.5 33.5l96 143q19 -12 40 -26.5t49.5 -27t67.5 -21t94 -8.5q68 0 123.5 17.5t100 48t79.5 71.5t61.5 87t46.5 95.5t35 96.5q-50 -20 -93 -34.5t-82.5 -23.5
t-76 -13t-73.5 -4q-106 0 -178.5 33.5t-113 93.5t-50 143t11.5 182q23 107 69 194.5t116 150t164.5 96.5t213.5 34q135 0 216 -46.5t118.5 -132t35.5 -207.5t-34 -272zM922 350q66 260 26 391t-199 131q-68 0 -124 -21.5t-99 -61.5t-72.5 -97t-44.5 -127q-14 -66 -9 -121
t30 -94t70 -61t111 -22q41 0 84.5 8t85 20.5t78 27t63.5 27.5z" />
    <glyph glyph-name="zero.taboldstyle" horiz-adv-x="955" 
d="M176 505q30 141 83.5 241.5t122 164t149 93t164.5 29.5t151.5 -29.5t109.5 -93t52.5 -164t-19.5 -241.5t-83 -241t-122 -163t-149 -92.5t-164 -29.5t-152 29.5t-109.5 92.5t-52.5 163t19 241zM354 506q-21 -97 -20 -166t21.5 -113t58.5 -64.5t92 -20.5q53 0 99.5 20.5
t85 64.5t68.5 113t51 166t20 166t-21 113t-58 64.5t-91 20.5q-54 0 -100.5 -20.5t-85.5 -64.5t-69 -113t-51 -166z" />
    <glyph glyph-name="one.taboldstyle" horiz-adv-x="737" 
d="M290 843l36 169h406l-215 -1012h-192l179 843h-214z" />
    <glyph glyph-name="two.taboldstyle" horiz-adv-x="978" 
d="M125 0l30 142q124 94 239.5 177t207 155.5t150.5 136t71 117.5q4 19 1 44.5t-20.5 48t-52 38t-92.5 15.5q-37 0 -70 -6t-65.5 -18t-64.5 -29t-66 -39l-51 129q39 25 87 47.5t100 39t104.5 26t102.5 9.5q73 0 131.5 -17.5t97 -51.5t53 -85t0.5 -117q-12 -58 -43.5 -112
t-76 -105t-99 -100t-113.5 -96t-119.5 -93.5t-115.5 -91.5h465l-34 -164h-757z" />
    <glyph glyph-name="three.taboldstyle" horiz-adv-x="1070" 
d="M291 890q49 31 96.5 55.5t97 41.5t103.5 26t117 9q109 0 186 -24t122 -68.5t59 -108t-3 -143.5q-12 -54 -31.5 -101.5t-51 -89t-75.5 -77.5t-105 -66q46 -17 81.5 -47.5t57.5 -73.5t27.5 -98.5t-8.5 -121.5q-26 -121 -83 -199.5t-134 -124.5t-167.5 -64.5t-182.5 -20.5
q-228 -8 -382 109l96 139q36 -22 68 -38.5t67.5 -27.5t77 -16.5t96.5 -5.5q64 0 122.5 14t105.5 44t80.5 77.5t48.5 115.5q9 41 3 84t-34 78t-83.5 57t-145.5 22h-172l34 160h168q65 0 119 14t96 44.5t71 79t44 117.5q10 45 -2 81.5t-41.5 63t-75 41t-103.5 14.5
q-43 0 -80.5 -7t-75 -20.5t-78 -34t-88.5 -47.5z" />
    <glyph glyph-name="four.taboldstyle" horiz-adv-x="1096" 
d="M585 -390l64 305h-591l35 164l614 933h207l-608 -932h379l65 308h192l-65 -308h159l-36 -165h-159l-64 -305h-192z" />
    <glyph glyph-name="five.taboldstyle" horiz-adv-x="1120" 
d="M124 -119q39 -26 74.5 -47t71 -35.5t72.5 -22.5t79 -8q152 0 240.5 70.5t115.5 197.5q26 125 -42.5 186.5t-220.5 61.5h-281l154 727h689l-35 -165h-508l-84 -397l148 -1q102 0 180.5 -27.5t127 -79t65.5 -127.5t-4 -174q-24 -116 -77 -198t-127 -134t-165 -76.5
t-191 -24.5q-63 0 -117 12t-100.5 31t-85.5 43t-72 48z" />
    <glyph glyph-name="six.taboldstyle" horiz-adv-x="1138" 
d="M237 641q39 183 102.5 326.5t151 242t199 150t246.5 51.5q75 0 129 -10t93 -25t66.5 -32.5t50.5 -33.5l-97 -142q-20 12 -41 26t-49.5 27t-67 21t-93.5 8q-102 0 -176 -38.5t-126.5 -98.5t-86.5 -133.5t-57 -144.5q49 20 92.5 34t83 23t76 13t73.5 4q106 0 178.5 -33.5
t113 -93.5t50 -142.5t-11.5 -181.5q-23 -107 -69 -194.5t-116 -150t-164.5 -97t-213.5 -34.5q-135 0 -216 46.5t-118.5 132.5t-35.5 207.5t34 272.5zM433 665q-66 -258 -25.5 -390t198.5 -132q68 0 124 21.5t99 61.5t72.5 96.5t44.5 127.5q14 66 9 121t-30 94.5t-70 61
t-111 21.5q-41 0 -85 -8t-85 -20t-77.5 -27t-63.5 -28z" />
    <glyph glyph-name="seven.taboldstyle" horiz-adv-x="1051" 
d="M288 840l37 172h857l-38 -176q-66 -70 -135 -159t-137.5 -190t-134.5 -211t-126 -222t-112 -223t-92 -213h-203q75 172 164 344t184 331t191 299t183 248h-638z" />
    <glyph glyph-name="eight.taboldstyle" horiz-adv-x="1222" 
d="M200 356q14 67 55 127t92 111t105 90.5t95 65.5q-29 18 -63.5 46.5t-61.5 68t-40 89.5t0 111q17 81 63 145t114.5 108.5t157 68t192.5 23.5q127 0 210 -28.5t128.5 -76.5t57.5 -110.5t-2 -129.5q-13 -61 -44.5 -112t-74.5 -94.5t-94 -81.5t-104 -74q54 -30 96.5 -65.5
t69 -77t36 -90.5t-2.5 -107q-18 -84 -63 -154.5t-117 -120.5t-171 -78t-225 -28q-119 0 -204.5 27t-136.5 76.5t-68.5 118t0.5 152.5zM392 372q-11 -53 0.5 -95.5t44.5 -72t85.5 -45.5t123.5 -16q69 0 128.5 15.5t105 45t76 70.5t41.5 92q13 60 -6 103.5t-62.5 78t-107 64.5
t-139.5 63q-28 -18 -72.5 -46.5t-88.5 -66.5t-80.5 -85.5t-48.5 -104.5zM569 1054q-12 -53 9.5 -93.5t63 -72.5t97.5 -58.5t114 -51.5q30 19 70 44.5t78.5 58.5t69 75.5t41.5 96.5q9 43 0.5 79t-36.5 62t-76 41t-118 15q-61 0 -113.5 -12t-93.5 -36t-68.5 -61t-37.5 -87z
" />
    <glyph glyph-name="nine.taboldstyle" horiz-adv-x="1138" 
d="M1118 375q-39 -184 -102.5 -327.5t-151.5 -242t-199.5 -150t-246.5 -51.5q-75 0 -128.5 10t-92 25t-66 32.5t-50.5 33.5l96 143q19 -12 40 -26.5t49.5 -27t67.5 -21t94 -8.5q68 0 123.5 17.5t100 48t79.5 71.5t61.5 87t46.5 95.5t35 96.5q-50 -20 -93 -34.5t-82.5 -23.5
t-76 -13t-73.5 -4q-106 0 -178.5 33.5t-113 93.5t-50 143t11.5 182q23 107 69 194.5t116 150t164.5 96.5t213.5 34q135 0 216 -46.5t118.5 -132t35.5 -207.5t-34 -272zM922 350q66 260 26 391t-199 131q-68 0 -124 -21.5t-99 -61.5t-72.5 -97t-44.5 -127q-14 -66 -9 -121
t30 -94t70 -61t111 -22q41 0 84.5 8t85 20.5t78 27t63.5 27.5z" />
    </font>
</defs>
</svg>
